#N canvas 772 233 450 300 10;
#X obj 103 64 inlet;
#X obj 191 86 inlet;
#X obj 122 111 array get \$1;
#X obj 122 133 cyclone/iter;
#X obj 122 155 sel;
#X obj 102 178 collect;
#X obj 103 86 t b b f;
#X obj 102 200 outlet;
#X connect 0 0 6 0;
#X connect 1 0 2 2;
#X connect 2 0 3 0;
#X connect 3 0 4 0;
#X connect 4 1 5 1;
#X connect 5 0 7 0;
#X connect 6 0 5 0;
#X connect 6 1 2 0;
#X connect 6 2 4 1;
