#N canvas 344 210 450 398 10;
#X obj 58 10 inlet;
#X obj 170 268 outlet;
#X obj 257 80 inlet;
#X obj 58 35 route float bang;
#X obj 170 140 route + - * /;
#X obj 188 169 * -1;
#X obj 170 244 cyclone/accum;
#X obj 226 169 swap 1;
#X obj 226 191 /;
#X msg 257 140 set \$1;
#X obj 170 218 t b f;
#X obj 226 218 t b f;
#X obj 257 110 sp01 1;
#X obj 151 60 t b a b;
#X text 48 312 perform arithmetic on a given or saved number \, taking
+ - * / as prompts;
#X connect 0 0 3 0;
#X connect 2 0 12 0;
#X connect 3 0 6 0;
#X connect 3 2 13 0;
#X connect 4 0 10 0;
#X connect 4 1 5 0;
#X connect 4 2 11 0;
#X connect 4 3 7 0;
#X connect 5 0 10 0;
#X connect 6 0 1 0;
#X connect 7 0 8 0;
#X connect 7 1 8 1;
#X connect 8 0 11 0;
#X connect 9 0 6 0;
#X connect 10 0 6 0;
#X connect 10 1 6 1;
#X connect 11 0 6 0;
#X connect 11 1 6 2;
#X connect 12 0 9 0;
#X connect 13 0 12 2;
#X connect 13 1 4 0;
#X connect 13 2 12 1;
