#N canvas 469 309 450 453 10;
#X obj 156 140 f;
#X obj 184 140 + 1;
#X obj 175 208 route bang;
#X obj 171 105 t f;
#X obj 156 324 outlet;
#X obj 232 237 ==;
#X obj 140 32 inlet;
#X obj 156 162 t f f f;
#X obj 175 186 array get \$1 0 1;
#X obj 193 400 outlet no;
#X obj 268 159 inlet;
#X obj 155 81 until;
#X obj 156 265 spigot;
#X obj 156 288 t f b;
#X obj 140 57 t b b b f b;
#X obj 203 102 f 1;
#X obj 193 373 spigot;
#X obj 226 314 t f b;
#X obj 253 339 spigot \$2;
#X connect 0 0 7 0;
#X connect 1 0 0 1;
#X connect 2 0 11 1;
#X connect 2 1 5 0;
#X connect 3 0 0 1;
#X connect 5 0 12 1;
#X connect 6 0 14 0;
#X connect 7 0 12 0;
#X connect 7 1 8 0;
#X connect 7 2 1 0;
#X connect 8 0 2 0;
#X connect 10 0 8 2;
#X connect 11 0 0 0;
#X connect 12 0 13 0;
#X connect 13 0 4 0;
#X connect 13 1 17 0;
#X connect 14 0 16 0;
#X connect 14 1 11 0;
#X connect 14 2 3 0;
#X connect 14 3 5 1;
#X connect 14 4 15 0;
#X connect 15 0 16 1;
#X connect 16 0 9 0;
#X connect 17 0 16 1;
#X connect 17 1 18 0;
#X connect 18 0 11 1;
