#N canvas 516 309 450 300 10;
#X obj 222 113 f;
#X obj 250 113 + 1;
#X obj 241 181 route bang;
#X obj 241 74 t f;
#X obj 285 266 outlet;
#X obj 298 210 ==;
#X obj 182 237 t b;
#X obj 222 46 t b b f;
#X obj 222 21 inlet;
#X obj 222 135 t f f f;
#X obj 241 159 array get \$1 0 1;
#X obj 352 266 outlet no;
#X obj 222 238 demux 0 1 2;
#X obj 334 132 inlet;
#X obj 241 203 f 2;
#X connect 0 0 9 0;
#X connect 1 0 0 1;
#X connect 2 0 11 0;
#X connect 2 0 14 0;
#X connect 2 1 5 0;
#X connect 3 0 0 1;
#X connect 5 0 12 1;
#X connect 6 0 0 0;
#X connect 7 0 0 0;
#X connect 7 1 3 0;
#X connect 7 2 5 1;
#X connect 8 0 7 0;
#X connect 9 0 12 0;
#X connect 9 1 10 0;
#X connect 9 2 1 0;
#X connect 10 0 2 0;
#X connect 12 0 6 0;
#X connect 12 1 4 0;
#X connect 13 0 10 2;
#X connect 14 0 12 1;
