#N canvas 67 87 1299 681 10;
#X obj 23 -66 inlet;
#X obj 213 177 text define \$1-\$2-st;
#X obj 220 571 text set \$1-\$2-st;
#X obj 285 483 - 1;
#X obj 171 540 receive \$1-\$3ibang;
#X msg 213 154 click;
#X obj 432 338 receive \$1-\$3incr;
#X obj 374 180 f;
#X obj 374 203 + 1;
#X obj 374 409 -;
#X obj 374 364 f;
#X obj 374 431 until;
#X obj 374 247 !=;
#X obj 347 269 demux;
#X obj 285 436 list split 1;
#X obj 285 461 route float;
#X obj 374 225 t f f f;
#X obj 401 364 text fromlist \$1-\$2-st;
#X obj 401 338 list;
#X obj 374 386 t f f;
#X obj 77 216 s \$1-\$4;
#X obj 347 155 list-abs/list-map;
#X obj 446 225 symbol \;;
#X obj 374 292 list append \;;
#X obj 462 201 t b b;
#X obj 446 179 sel | \;;
#X obj 19 268 send;
#X obj 19 246 symbol \$1-\$2retr;
#X obj 52 339 receive \$1-\$2retr;
#X obj 52 361 makefilename %d-\$2-st;
#X obj 20 339 f \$1;
#X obj 52 383 s \$1-\$2rest;
#X obj 386 132 s \$1-\$3*.off;
#X obj 20 316 receive \$1-\$3*.off;
#X obj 19 108 receive \$1-\$3*.on;
#X obj 77 194 list prepend *.;
#X obj 31 620 spigot;
#X obj 31 644 s \$1-\$4newmon;
#X obj 64 597 receive \$1-savestart;
#X text -49 3 send list to saving;
#X text -193 295 define *. exception \, which reads from another Context's
text file.;
#X text 470 162 interpret separated message lists;
#X text -26 459 interpret individual message lists;
#X obj 251 386 t a a;
#X obj 374 316 t b a;
#X obj 249 340 - 1;
#X obj 206 281 v \$1-\$3size-21;
#X obj 564 309 list split 1;
#X obj 598 332 route bang;
#X obj 598 386 v \$1-\$3size-21;
#X obj 598 409 t b f f;
#X obj 690 452 array define \$0-scramble 1;
#X obj 690 386 list length;
#X msg 690 430 resize \$1;
#X obj 691 527 array set \$0-scramble;
#X obj 691 501 t f f;
#X obj 598 431 cyclone/uzi;
#X obj 186 315 cyclone/uzi;
#X obj 752 501 t f;
#X obj 564 485 urn;
#X obj 564 461 cyclone/uzi;
#X obj 691 479 - 1;
#X text 769 387 1: fill array with items to scramble;
#X text 488 462 2: randomize;
#X obj 627 484 == 1;
#X obj 564 552 demux;
#X obj 677 612 text get \$1-\$2-st;
#X obj 564 507 tabread \$0-scramble;
#X obj 656 634 list;
#X obj 509 619 text get \$1-\$2-st;
#X obj 591 578 t f f;
#X obj 509 645 text set \$1-\$2-st;
#X obj 656 656 text set \$1-\$2-st;
#X obj 477 412 receive \$1seed\$5;
#X obj 490 592 t f f f;
#X text 403 620 4: rearrange text;
#X text 692 634 5: first / last exception;
#X obj 690 408 t f f f;
#X text 572 286 SCRAMBLE;
#X obj 655 355 t a a b b;
#X obj 598 354 t b b;
#X obj 617 531 t f;
#X obj 564 529 -;
#X obj 285 504 t f b;
#X obj 31 549 route float;
#X msg 94 571 0;
#X text -16 596 set symbol;
#X obj 31 571 - 1;
#X obj 88 133 receive \$1-savestart;
#X obj 88 155 t b f;
#X obj 50 156 demux;
#X obj 35 178 f;
#X obj 19 223 t b f b;
#X obj 50 133 t f f;
#X obj 348 483 t b;
#X obj 348 507 t f f;
#X obj 186 362 route float;
#X obj 225 431 t f;
#X obj 186 402 t b f b;
#X obj 186 431 t f;
#X obj 23 -44 t b a;
#X obj -114 165 s \$1-restartt;
#X obj 186 516 list split;
#X obj 275 343 receive \$1-savestart;
#X obj 312 527 f 1;
#X obj 278 411 demux;
#X obj 655 550 f 1;
#X text 704 570 3: write scrambled list to array;
#X obj -149 239 pack;
#X msg -149 263 symbol \$2-\$1-dfetch;
#X obj -124 216 receive \$1-parent;
#X obj 87 2 t a f;
#X obj 121 46 cyclone/zl rot;
#X obj 87 25 list split 1;
#X obj 225 219 t2l \$1 \$2-st \$4 \$3;
#X obj 268 132 receive \$1-mess\$4;
#X obj 347 100 t b a b b;
#X obj 564 332 t b b;
#X obj 167 249 t b b b;
#X obj 164 90 t b a;
#X obj 191 112 s \$1-\$2-mod;
#X obj 35 200 sel 0;
#X obj 124 2 s \$1-lastmess;
#X obj 161 68 relay + - * / ++ -clear -open -edit -scramble;
#X obj 50 -22 route *. -rot -last;
#X obj 19 413 receive \$1-\$3lostmess;
#X connect 0 0 100 0;
#X connect 1 1 114 1;
#X connect 3 0 83 0;
#X connect 4 0 2 0;
#X connect 5 0 1 0;
#X connect 6 0 10 1;
#X connect 6 0 2 1;
#X connect 7 0 8 0;
#X connect 8 0 16 0;
#X connect 9 0 11 0;
#X connect 10 0 19 0;
#X connect 11 0 2 0;
#X connect 12 0 13 1;
#X connect 13 0 96 0;
#X connect 13 1 23 0;
#X connect 14 0 15 0;
#X connect 15 0 3 0;
#X connect 15 1 94 0;
#X connect 16 0 12 0;
#X connect 16 1 9 1;
#X connect 16 2 7 1;
#X connect 18 0 17 0;
#X connect 19 0 9 0;
#X connect 19 1 2 1;
#X connect 21 0 13 0;
#X connect 21 1 25 0;
#X connect 22 0 21 1;
#X connect 23 0 44 0;
#X connect 24 0 22 0;
#X connect 24 1 7 0;
#X connect 25 0 24 0;
#X connect 25 1 24 0;
#X connect 25 2 21 1;
#X connect 27 0 26 0;
#X connect 28 0 29 0;
#X connect 29 0 31 0;
#X connect 30 0 29 0;
#X connect 33 0 30 0;
#X connect 34 0 92 0;
#X connect 35 0 20 0;
#X connect 36 0 37 0;
#X connect 38 0 36 1;
#X connect 43 0 102 0;
#X connect 43 1 105 0;
#X connect 44 0 10 0;
#X connect 44 1 18 0;
#X connect 45 0 2 1;
#X connect 46 0 57 1;
#X connect 47 0 117 0;
#X connect 47 1 48 0;
#X connect 48 0 80 0;
#X connect 48 1 79 0;
#X connect 49 0 50 0;
#X connect 50 0 56 0;
#X connect 50 1 56 1;
#X connect 50 2 77 0;
#X connect 52 0 77 0;
#X connect 53 0 51 0;
#X connect 55 0 54 0;
#X connect 55 1 54 1;
#X connect 56 2 61 0;
#X connect 57 0 2 0;
#X connect 57 2 45 0;
#X connect 58 0 54 1;
#X connect 59 0 67 0;
#X connect 60 0 59 0;
#X connect 60 1 68 0;
#X connect 60 2 64 0;
#X connect 61 0 55 0;
#X connect 64 0 65 1;
#X connect 65 0 74 0;
#X connect 65 1 70 0;
#X connect 66 0 68 1;
#X connect 67 0 82 0;
#X connect 68 0 72 0;
#X connect 69 0 71 0;
#X connect 70 0 71 1;
#X connect 70 1 66 0;
#X connect 73 0 59 0;
#X connect 74 0 71 1;
#X connect 74 1 69 0;
#X connect 74 2 72 1;
#X connect 77 0 53 0;
#X connect 77 1 59 1;
#X connect 77 2 60 1;
#X connect 79 0 54 0;
#X connect 79 1 52 0;
#X connect 79 2 58 0;
#X connect 79 3 106 0;
#X connect 80 0 49 0;
#X connect 80 1 81 0;
#X connect 81 0 82 1;
#X connect 82 0 65 0;
#X connect 83 0 2 1;
#X connect 83 1 104 0;
#X connect 84 0 87 0;
#X connect 84 1 85 0;
#X connect 85 0 36 0;
#X connect 87 0 36 0;
#X connect 88 0 89 0;
#X connect 89 0 91 0;
#X connect 89 1 90 1;
#X connect 90 0 91 1;
#X connect 90 1 92 0;
#X connect 91 0 121 0;
#X connect 92 0 27 0;
#X connect 92 1 108 0;
#X connect 92 2 114 0;
#X connect 93 0 90 0;
#X connect 93 1 35 0;
#X connect 94 0 95 0;
#X connect 95 0 2 1;
#X connect 95 1 102 1;
#X connect 96 0 98 0;
#X connect 96 1 43 0;
#X connect 97 0 2 1;
#X connect 98 0 99 0;
#X connect 98 1 2 0;
#X connect 98 2 97 0;
#X connect 99 0 36 0;
#X connect 100 0 101 0;
#X connect 100 1 124 0;
#X connect 102 0 84 0;
#X connect 102 1 2 0;
#X connect 103 0 105 1;
#X connect 104 0 102 1;
#X connect 105 0 94 0;
#X connect 105 1 14 0;
#X connect 106 0 82 1;
#X connect 108 0 109 0;
#X connect 109 0 26 1;
#X connect 110 0 108 1;
#X connect 111 0 113 0;
#X connect 111 1 112 1;
#X connect 112 0 124 0;
#X connect 113 1 112 0;
#X connect 115 0 114 1;
#X connect 116 0 114 1;
#X connect 116 1 21 0;
#X connect 116 2 16 0;
#X connect 116 3 32 0;
#X connect 117 0 114 1;
#X connect 117 1 60 0;
#X connect 118 0 114 1;
#X connect 118 1 57 0;
#X connect 118 2 46 0;
#X connect 119 0 114 1;
#X connect 119 1 120 0;
#X connect 121 1 92 0;
#X connect 123 0 119 0;
#X connect 123 1 119 0;
#X connect 123 2 119 0;
#X connect 123 3 119 0;
#X connect 123 4 119 0;
#X connect 123 5 118 0;
#X connect 123 6 5 0;
#X connect 123 7 5 0;
#X connect 123 8 47 0;
#X connect 123 9 116 0;
#X connect 124 0 93 0;
#X connect 124 1 111 0;
#X connect 124 2 122 0;
#X connect 124 3 123 0;
#X connect 125 0 43 0;
