#N canvas 190 385 450 300 10;
#X obj 127 30 inlet;
#X obj 127 81 s \$1-asav\$2;
#X obj 167 106 s \$1-aop\$2;
#X obj 248 81 s \$1-acle\$2;
#X obj 289 106 s \$1-:\$2;
#X obj 127 52 route -save -open -edit -clear float bang;
#X connect 0 0 5 0;
#X connect 5 0 1 0;
#X connect 5 1 2 0;
#X connect 5 2 2 0;
#X connect 5 3 3 0;
#X connect 5 4 4 0;
#X connect 5 5 4 0;
