#N canvas 883 349 450 300 10;
#X obj 130 151 array define IDnn%^ 1;
#X obj 130 41 receive resID%^;
#X obj 130 63 max;
#X obj 130 85 t f f;
#X msg 130 129 resize \$1;
#X obj 130 107 change;
#X connect 1 0 2 0;
#X connect 2 0 3 0;
#X connect 3 0 5 0;
#X connect 3 1 2 1;
#X connect 4 0 0 0;
#X connect 5 0 4 0;
