#N canvas 67 87 1299 681 10;
#X obj 214 -16 inlet ID;
#X obj 222 85 symbol \$0-sync;
#X obj 222 131 send;
#X obj 416 151 receive \$0-sync;
#X text 276 134 1: fetch \$0 from ID number;
#X obj 542 100 receive \$1-xyt;
#X obj 542 143 t b s;
#X text 580 216 2: fetch X or Y size and send to max;
#X obj 484 336 iemguts/oreceive \$0n;
#X msg 441 387 symbol \$1-\$5arry;
#X msg 318 317 symbol \$1-\$5doned;
#X obj 318 339 iemguts/oreceive \$0n;
#X text 169 291 4: fetch x or y array and synch;
#X text 567 655 3: fetch colour and synch;
#X obj 318 697 t f b;
#X obj 350 718 f;
#X obj 350 741 + 1;
#X obj 350 763 pack f \$1 \$2;
#X obj 318 830 send;
#X obj 318 650 t a b;
#X obj 368 697 t f;
#X obj 318 673 cyclone/iter;
#X msg 350 785 symbol \$2-\$3-\$1-s;
#X obj 837 271 receive \$1-lshift-1;
#X obj 318 590 list split 8;
#X obj 837 294 spigot;
#X obj 416 196 route 0;
#X obj 368 362 receive \$1-midon;
#X obj 292 38 receive \$1-parentdollar;
#X msg 240 108 symbol \$2-\$1-dfetch;
#X obj 484 311 makefilename %d-colours;
#X obj 478 648 receive \$0-fcol;
#X obj 478 680 unpack s f;
#X obj 484 358 t b f;
#X obj 484 426 makefilename %d-toge;
#X obj 392 463 array get dummy@%G;
#X obj 318 433 array get dummy@%G;
#X obj 318 567 list append;
#X obj 318 408 t f b;
#X obj 664 425 iemguts/oreceive \$0n;
#X obj 664 403 makefilename %d-togri;
#X obj 729 243 sel 0;
#X text 613 174 contxt \$0 \, X/Y \, context ID \, gridcontrol \$0
\, x/y \, abstraction \$0;
#X obj 664 517 spigot;
#X obj 664 540 route bang;
#X obj 731 563 t f b f;
#X obj 777 585 -;
#X obj 713 634 -;
#X msg 759 758 \; \$3-\$2-\$1-conoff bang;
#X msg 823 677 \; \$3-\$2-\$1-conon bang;
#X obj 759 736 pack f \$2 \$1;
#X obj 823 654 pack f \$2 \$1;
#X obj 713 688 moses 1;
#X obj 759 711 moses 9;
#X obj 777 608 moses 1;
#X obj 823 631 moses 9;
#X obj 713 597 f;
#X obj 664 562 del 0;
#X obj 790 79 receive \$1-1xym;
#X obj 732 474 iemguts/oreceive \$0n;
#X obj 664 358 demux;
#X obj 664 313 pack;
#X obj 664 380 unpack;
#X obj 707 358 swap;
#X text 34 416 if burst \, flash collectively;
#X obj 1116 226 receive \$1-midon;
#X obj 729 267 t f f f;
#X obj 995 405 spigot;
#X obj 995 428 f;
#X obj 995 450 route 0;
#X obj 392 508 route 0 1;
#X obj 482 580 f;
#X obj 482 554 t b;
#X obj 493 509 receive \$0-maxf;
#X obj 550 556 s \$1-maxf;
#X obj 493 531 unpack s f;
#X text 883 730 if pattern \, fash individually;
#X obj 392 486 list prepend 0;
#X obj 1041 473 s \$1-m2out;
#X obj 1004 497 s \$1-preID;
#X obj 800 10 receive \$0-Mmm;
#X obj 800 32 unpack s f;
#X obj 800 125 -;
#X obj 800 147 abs;
#X obj 800 103 swap;
#X obj 867 54 t b f;
#X obj 864 -38 iemguts/oreceive \$0n;
#X obj 864 -63 makefilename %d-:M;
#X obj 864 -16 t b f;
#X obj 53 131 +;
#X obj 318 362 spigot;
#X obj 318 386 f;
#X obj 53 231 zexy/pack 0 x 0 \$1 0;
#X msg -10 350 \; \$5-c\$3 :\$2 \$1 \; \$4-preID \$3;
#X obj 416 175 zexy/pack 0 X f \$1 x \$0 0;
#X msg 518 244 \; \$7-c\$3 fetch \$6-maxf \$2 \; \$7-c\$3 fetch \$6-fcol
c \; \$7-c\$3 fetch \$6-Mmm M;
#X obj 53 253 spigot;
#X obj -89 372 pack;
#X obj -89 395 spigot;
#X obj -68 350 t f f;
#X text -190 397 if two buttons are pressed within 50ms \, register
them. If not \, ignore., f 13;
#X obj 542 122 unpack s s f s;
#X obj -89 483 zexy/pack 0 0 i x 0 0;
#X msg -88 507 \; \$5-c\$6 :\$3 swap \$1 \$2 :\$4 \$1 \$2;
#X obj -89 439 del 200;
#X obj -89 461 list;
#X obj -89 417 t b l b;
#X obj 53 -56 receive \$1-\$2-press-1;
#X obj -177 117 receive \$1-\$2-press-0;
#X msg -158 208 stop;
#X obj -92 146 f 1;
#X obj -177 139 t f b b;
#X obj -110 176 t f f;
#X obj -110 245 s \$1-\$4-absteal;
#X obj -83 221 s \$1-\$5-absteal;
#X obj 128 -104 receive \$1-\$2-absteal;
#X text -447 162 if button is held down \, steal from the row above/below
;
#X obj -83 199 * 2;
#X obj -350 216 receive \$1-\$2-upsteal;
#X obj -441 192 receive \$1-\$2-downsteal;
#X obj 103 30 s \$1-\$4-downsteal;
#X obj 78 53 s \$1-\$5-upsteal;
#X text -286 283 ...and receive data here;
#X obj -378 295 -;
#X obj -378 317 mod 8;
#X obj -378 339 + 1;
#X obj -441 214 t f b;
#X obj -350 238 t f b;
#X obj -414 238 symbol +;
#X obj -323 261 symbol -;
#X obj 53 153 t f b f f b f;
#X msg -339 407 \; \$5-c\$6 :\$4 \$3 \$1 \$2;
#X text -355 335 normalize input number and compile message;
#X obj -411 459 spigot;
#X obj -378 384 t b l l;
#X obj -378 406 t f;
#X obj -378 362 zexy/pack 0 0 + i 0 0 x;
#X msg -411 481 \; \$5-c\$6 :\$7 \$2;
#X obj -89 327 spigot 1;
#X obj 260 235 receive \$1-rshifton;
#X obj 995 383 spigot 1;
#X obj 732 496 spigot;
#X obj 112 359 receive \$1-modestop;
#X obj 53 275 demux;
#X msg 80 300 \; \$5-c\$3 :\$2 - \$1 \; \$4-preID \$3;
#X obj 97 253 receive \$1-dobang;
#X text -25 296 second option in case of shift double clicking (clears
toggles), f 17;
#X obj 227 31 sel 0;
#X obj 222 64 t b;
#X text 527 3 reset if Id = 0;
#X obj 484 29 symbol dummy@%G;
#X obj 1101 118 makefilename %d-gridlabel;
#X obj 1080 140 send;
#X obj 1080 95 v \$1-m1label;
#X obj 82 673 iemguts/oreceive;
#X obj 82 695 spigot;
#X obj 249 64 zexy/pack 0 0 x;
#X msg 82 651 symbol \$2-\$1-\$3-crossconnect;
#X obj 82 766 pipe 200;
#X text 22 789 flash from crossreference;
#X obj 82 742 t f f;
#X obj 390 268 receive \$1-1offy;
#X obj 375 290 mux;
#X obj 732 517 demux;
#X obj 82 719 demux;
#X obj 664 447 demux;
#X obj 1069 203 receive \$1-\$2-rshiftrow;
#X obj 1069 250 zexy/pack s x 0;
#X msg 1069 273 \; \$3-notsafe :\$2 \$1;
#X obj 1069 226 spigot;
#X obj 535 704 sel 0;
#X obj 535 727 f 0.5;
#X obj 419 -55 receive \$1-\$2-prepress;
#X obj 53 81 spigot;
#X obj 419 -9 f;
#X obj 419 -32 spigot;
#X obj 53 -34 demux 0 1 2 3;
#X obj 146 -175 receive \$1-stealside3;
#X obj -282 -156 +;
#X text -178 -29 start at point mechanism;
#X obj 68 175 del 50;
#X obj 155 -36 receive \$1-:tx;
#X obj 53 -5 demux;
#X obj 128 -10 demux;
#X obj 128 -81 spigot 1;
#X obj 146 -152 t f f;
#X obj 173 -127 != 3;
#X obj 53 105 t f f b;
#X obj 232 182 f;
#X obj 232 205 s \$1-befcell;
#X obj -261 -61 pack;
#X obj -282 -11 send;
#X obj -282 -132 t f b;
#X msg -261 -38 symbol \$2-c\$1;
#X obj -87 -155 receive \$1-tylist;
#X obj -282 -107 makefilename :s p %i;
#X obj -282 -84 s2l  ;
#X obj -282 -179 spigot 1;
#X obj 995 359 receive \$1-\$3-asynchinn;
#X obj 450 625 array get padd(()));
#X obj 450 602 receive \$1-lb;
#X obj 237 732 sel 0 -0.5;
#X obj 294 760 t b;
#X obj 237 760 t f;
#X obj 265 809 f -0.5;
#X obj 387 649 list append;
#X obj 237 474 array get padd2(()));
#X obj 270 364 f 1;
#X obj 433 240 t f f;
#X obj 237 395 spigot;
#X obj 214 9 t b f f f f f f f f f f f f f f b;
#X obj 151 571 cyclone/iter;
#X obj 294 787 f;
#X obj 732 451 makefilename %d-bu-n;
#X obj 120 445 array get dummy@%G;
#X obj 151 594 demux;
#X obj 1172 592 sel 0;
#X obj 1172 686 pack s f;
#X obj 416 217 t l b l f f f l b f f f f;
#X msg 1172 709 symbol \$2-\$1-bflash;
#X obj 1199 616 t b;
#X obj 1172 732 iemguts/oreceive \$0n;
#X obj 1172 663 symbol y;
#X obj 1199 640 symbol x;
#X obj 1172 755 spigot;
#X obj 1172 778 print ff\$2;
#X obj 178 548 f 1;
#X obj -226 607 text define \$0-bubuf;
#X obj 135 525 text set \$0-bubuf 1e+08;
#X obj 120 499 t b l l b b;
#X obj -76 553 del 500;
#X obj -226 582 receive \$1-interr-1;
#X obj -30 678 text get \$0-bubuf;
#X obj -49 702 text delete \$0-bubuf;
#X obj -49 655 t f f f;
#X obj -76 586 text size \$0-bubuf;
#X obj -76 609 sel 0;
#X obj -49 632 t b;
#X obj 395 531 else/routeall 0;
#X obj 354 538 t a a;
#X obj 281 517 sel 0;
#X obj 120 468 list append;
#X connect 0 0 210 0;
#X connect 1 0 2 0;
#X connect 3 0 94 0;
#X connect 5 0 101 0;
#X connect 6 0 94 0;
#X connect 6 0 156 0;
#X connect 6 1 94 1;
#X connect 8 0 33 0;
#X connect 9 0 36 2;
#X connect 10 0 11 0;
#X connect 11 0 90 0;
#X connect 14 0 201 0;
#X connect 14 1 15 0;
#X connect 15 0 16 0;
#X connect 16 0 15 1;
#X connect 16 0 17 0;
#X connect 17 0 22 0;
#X connect 19 0 21 0;
#X connect 19 1 20 0;
#X connect 20 0 15 1;
#X connect 21 0 14 0;
#X connect 22 0 18 1;
#X connect 23 0 25 0;
#X connect 23 0 46 1;
#X connect 23 0 47 1;
#X connect 23 0 89 1;
#X connect 23 0 178 1;
#X connect 24 0 19 0;
#X connect 24 2 205 0;
#X connect 25 0 162 0;
#X connect 26 1 218 0;
#X connect 27 0 43 1;
#X connect 27 0 90 1;
#X connect 27 0 141 1;
#X connect 27 0 155 1;
#X connect 28 0 92 4;
#X connect 28 0 94 6;
#X connect 28 0 102 4;
#X connect 28 0 136 4;
#X connect 28 0 156 1;
#X connect 28 0 190 1;
#X connect 29 0 2 1;
#X connect 30 0 8 0;
#X connect 31 0 32 0;
#X connect 32 1 170 0;
#X connect 33 0 90 0;
#X connect 33 1 212 1;
#X connect 34 0 35 2;
#X connect 35 0 77 0;
#X connect 36 0 37 0;
#X connect 37 0 24 0;
#X connect 38 0 36 0;
#X connect 38 1 35 0;
#X connect 39 0 165 0;
#X connect 40 0 39 0;
#X connect 41 0 66 0;
#X connect 43 0 44 0;
#X connect 44 0 57 0;
#X connect 44 1 45 0;
#X connect 45 0 56 1;
#X connect 45 1 56 0;
#X connect 45 2 46 0;
#X connect 46 0 54 0;
#X connect 47 0 52 0;
#X connect 50 0 48 0;
#X connect 51 0 49 0;
#X connect 52 1 53 0;
#X connect 53 0 50 0;
#X connect 54 1 55 0;
#X connect 55 0 51 0;
#X connect 56 0 47 0;
#X connect 57 0 56 0;
#X connect 58 0 84 0;
#X connect 59 0 141 0;
#X connect 60 0 62 0;
#X connect 60 1 63 0;
#X connect 61 0 60 0;
#X connect 62 0 40 0;
#X connect 62 1 213 0;
#X connect 63 0 40 0;
#X connect 63 1 213 0;
#X connect 65 0 67 1;
#X connect 65 0 169 1;
#X connect 66 0 40 0;
#X connect 66 1 213 0;
#X connect 67 0 68 0;
#X connect 68 0 69 0;
#X connect 69 1 78 0;
#X connect 69 1 79 0;
#X connect 70 0 239 0;
#X connect 70 1 238 0;
#X connect 71 0 239 0;
#X connect 72 0 71 0;
#X connect 73 0 75 0;
#X connect 75 1 74 0;
#X connect 75 1 71 1;
#X connect 77 0 70 0;
#X connect 80 0 81 0;
#X connect 81 1 85 0;
#X connect 82 0 83 0;
#X connect 83 0 60 1;
#X connect 83 0 224 1;
#X connect 84 0 82 0;
#X connect 84 1 82 1;
#X connect 85 0 84 0;
#X connect 85 1 84 1;
#X connect 85 1 216 0;
#X connect 86 0 88 0;
#X connect 87 0 86 0;
#X connect 88 0 61 0;
#X connect 88 1 85 0;
#X connect 89 0 130 0;
#X connect 90 0 91 0;
#X connect 91 0 38 0;
#X connect 92 0 96 0;
#X connect 94 0 26 0;
#X connect 96 0 143 0;
#X connect 97 0 98 0;
#X connect 98 0 106 0;
#X connect 99 0 97 1;
#X connect 99 1 98 1;
#X connect 101 0 6 0;
#X connect 101 1 92 1;
#X connect 101 1 94 4;
#X connect 101 1 102 3;
#X connect 101 1 136 6;
#X connect 101 1 156 2;
#X connect 101 1 167 1;
#X connect 101 2 77 1;
#X connect 101 3 102 2;
#X connect 101 3 136 3;
#X connect 102 0 103 0;
#X connect 104 0 105 0;
#X connect 105 0 102 0;
#X connect 106 0 104 0;
#X connect 106 1 105 1;
#X connect 106 2 112 0;
#X connect 107 0 176 0;
#X connect 108 0 111 0;
#X connect 109 0 104 0;
#X connect 110 0 112 0;
#X connect 110 0 133 1;
#X connect 111 1 109 0;
#X connect 111 2 112 0;
#X connect 112 0 113 0;
#X connect 112 1 117 0;
#X connect 115 0 184 0;
#X connect 117 0 114 0;
#X connect 118 0 127 0;
#X connect 119 0 126 0;
#X connect 123 0 124 0;
#X connect 124 0 125 0;
#X connect 125 0 136 0;
#X connect 126 0 123 0;
#X connect 126 1 128 0;
#X connect 127 0 123 0;
#X connect 127 1 129 0;
#X connect 128 0 136 2;
#X connect 129 0 136 2;
#X connect 130 0 92 0;
#X connect 130 1 180 0;
#X connect 130 2 99 0;
#X connect 130 3 138 0;
#X connect 130 4 110 0;
#X connect 130 5 136 1;
#X connect 133 0 137 0;
#X connect 134 0 135 0;
#X connect 134 1 133 0;
#X connect 134 2 131 0;
#X connect 135 0 133 1;
#X connect 136 0 134 0;
#X connect 138 0 97 0;
#X connect 139 0 138 1;
#X connect 139 0 140 1;
#X connect 139 0 197 1;
#X connect 140 0 67 0;
#X connect 141 0 163 0;
#X connect 142 0 104 0;
#X connect 142 0 230 0;
#X connect 143 0 93 0;
#X connect 143 1 144 0;
#X connect 145 0 143 1;
#X connect 147 0 150 0;
#X connect 147 1 148 0;
#X connect 148 0 1 0;
#X connect 150 0 86 0;
#X connect 150 0 35 2;
#X connect 150 0 36 2;
#X connect 150 0 8 0;
#X connect 150 0 11 0;
#X connect 150 0 213 0;
#X connect 150 0 214 2;
#X connect 151 0 152 1;
#X connect 153 0 152 0;
#X connect 154 0 155 0;
#X connect 155 0 164 0;
#X connect 156 0 29 0;
#X connect 156 0 157 0;
#X connect 157 0 154 0;
#X connect 158 0 47 0;
#X connect 160 0 158 0;
#X connect 160 1 46 0;
#X connect 161 0 162 2;
#X connect 161 0 163 1;
#X connect 161 0 164 1;
#X connect 161 0 165 1;
#X connect 162 0 90 0;
#X connect 163 0 214 0;
#X connect 164 0 160 0;
#X connect 165 0 43 0;
#X connect 166 0 169 0;
#X connect 167 0 168 0;
#X connect 169 0 167 0;
#X connect 170 0 171 0;
#X connect 170 1 212 1;
#X connect 171 0 212 1;
#X connect 172 0 175 0;
#X connect 173 0 187 0;
#X connect 175 0 174 0;
#X connect 176 0 182 0;
#X connect 176 1 121 0;
#X connect 176 2 120 0;
#X connect 176 3 183 0;
#X connect 177 0 185 0;
#X connect 178 0 192 0;
#X connect 180 0 99 0;
#X connect 181 0 183 1;
#X connect 181 0 182 1;
#X connect 182 0 173 0;
#X connect 182 1 197 0;
#X connect 183 0 197 0;
#X connect 183 1 173 0;
#X connect 184 0 176 1;
#X connect 185 0 176 1;
#X connect 185 1 186 0;
#X connect 186 0 184 1;
#X connect 187 0 89 0;
#X connect 187 1 123 1;
#X connect 187 2 188 0;
#X connect 188 0 189 0;
#X connect 190 0 193 0;
#X connect 192 0 195 0;
#X connect 192 1 188 0;
#X connect 193 0 191 1;
#X connect 194 0 195 0;
#X connect 195 0 196 0;
#X connect 196 0 191 0;
#X connect 197 0 178 0;
#X connect 198 0 140 0;
#X connect 199 0 205 1;
#X connect 200 0 199 0;
#X connect 201 0 203 0;
#X connect 201 1 204 0;
#X connect 201 2 202 0;
#X connect 202 0 212 0;
#X connect 203 0 18 0;
#X connect 204 0 18 0;
#X connect 205 0 24 0;
#X connect 206 0 19 0;
#X connect 207 0 209 1;
#X connect 208 0 162 1;
#X connect 208 1 209 1;
#X connect 209 0 206 0;
#X connect 209 0 150 0;
#X connect 210 0 209 0;
#X connect 210 1 92 2;
#X connect 210 2 147 0;
#X connect 210 3 156 0;
#X connect 210 4 94 2;
#X connect 210 5 25 1;
#X connect 210 6 41 0;
#X connect 210 7 68 1;
#X connect 210 8 96 1;
#X connect 210 9 102 5;
#X connect 210 10 136 5;
#X connect 210 11 173 1;
#X connect 210 12 175 1;
#X connect 210 13 190 0;
#X connect 210 14 188 1;
#X connect 210 15 207 0;
#X connect 211 0 215 0;
#X connect 212 0 18 0;
#X connect 213 0 59 0;
#X connect 213 0 214 2;
#X connect 214 0 241 0;
#X connect 215 0 47 0;
#X connect 215 1 46 0;
#X connect 216 0 222 0;
#X connect 216 1 220 0;
#X connect 217 0 219 0;
#X connect 218 0 10 0;
#X connect 218 1 208 0;
#X connect 218 2 9 0;
#X connect 218 3 30 0;
#X connect 218 4 34 0;
#X connect 218 4 87 0;
#X connect 218 5 61 0;
#X connect 218 6 95 0;
#X connect 218 7 153 0;
#X connect 218 8 151 0;
#X connect 218 9 167 2;
#X connect 218 10 174 1;
#X connect 218 11 217 1;
#X connect 219 0 221 0;
#X connect 220 0 223 0;
#X connect 221 0 224 0;
#X connect 222 0 217 0;
#X connect 223 0 217 0;
#X connect 226 0 215 1;
#X connect 229 0 230 0;
#X connect 229 1 228 0;
#X connect 229 2 211 0;
#X connect 229 3 226 0;
#X connect 229 4 235 0;
#X connect 230 0 235 0;
#X connect 231 0 227 0;
#X connect 232 0 211 0;
#X connect 234 0 233 0;
#X connect 234 1 232 0;
#X connect 234 2 215 1;
#X connect 235 0 236 0;
#X connect 236 1 237 0;
#X connect 237 0 234 0;
#X connect 238 0 239 0;
#X connect 238 1 72 0;
#X connect 239 0 240 0;
#X connect 239 1 37 1;
#X connect 240 0 241 1;
#X connect 240 1 241 1;
#X connect 241 0 229 0;
