#N canvas 219 85 984 687 10;
#X obj 214 4 inlet ID;
#X obj 232 85 symbol \$0-sync;
#X obj 232 131 send;
#X obj 416 161 receive \$0-sync;
#X text 277 134 1: fetch \$0 from ID number;
#X obj 542 120 receive \$1-xyt;
#X obj 542 163 t b s;
#X text 550 234 2: fetch X or Y size and send to max;
#X obj 484 336 iemguts/oreceive \$0n;
#X obj 542 142 unpack s s;
#X msg 441 387 symbol \$1-\$5arry;
#X msg 318 317 symbol \$1-\$5doned;
#X obj 318 339 iemguts/oreceive \$0n;
#X text 169 291 4: fetch x or y array and synch;
#X text 632 475 3: fetch colour and synch;
#X obj 318 607 t f b;
#X obj 350 628 f;
#X obj 350 651 + 1;
#X obj 350 673 pack f \$1 \$2;
#X obj 318 628 !=;
#X obj 318 650 *;
#X msg 318 717 color \$1;
#X obj 318 739 send;
#X obj 318 560 t a b;
#X obj 368 607 t f;
#X obj 318 583 cyclone/iter;
#X msg 350 695 symbol \$2-\$3-\$1-s;
#X obj 164 318 receive \$1-lshift-1;
#X obj 318 510 list split 8;
#X obj 164 341 spigot;
#X obj 318 536 list-abs/list-pad;
#X obj 434 514 receive \$1-padd;
#X obj 53 199 receive \$1-\$2-press;
#X obj 53 231 zexy/pack f x f;
#X msg 53 253 \; c\$3 :\$2 \$1;
#X obj 416 216 route 0;
#X obj 214 29 t f b f f f;
#X obj 318 386 spigot;
#X obj 357 362 receive \$1-midon;
#X obj 304 38 receive \$1-parentdollar;
#X obj 251 64 pack f s;
#X msg 251 108 symbol \$2-\$1-dfetch;
#X floatatom 168 91 5 0 0 0 - - -, f 5;
#X obj 484 311 makefilename %d-colours;
#X obj 478 558 receive \$0-fcol;
#X obj 478 590 unpack s f;
#X obj 484 358 t b f;
#X obj 416 195 zexy/pack 0 X f \$1 x \$0;
#X msg 518 264 \; c\$3 fetch \$4-maxf \$2 \; c\$3 fetch \$6-fcol c
;
#X obj 416 237 t l b l f f f l;
#X obj 484 426 makefilename %d-toge;
#X obj 392 463 array get dummy@%G;
#X obj 318 433 array get dummy@%G;
#X obj 318 487 list append;
#X obj 318 408 t f b;
#X connect 0 0 36 0;
#X connect 1 0 2 0;
#X connect 3 0 47 0;
#X connect 5 0 9 0;
#X connect 6 0 47 0;
#X connect 6 1 47 1;
#X connect 8 0 46 0;
#X connect 9 0 6 0;
#X connect 9 1 33 1;
#X connect 9 1 47 4;
#X connect 10 0 52 2;
#X connect 11 0 12 0;
#X connect 12 0 37 0;
#X connect 15 0 19 0;
#X connect 15 1 16 0;
#X connect 16 0 17 0;
#X connect 17 0 16 1;
#X connect 17 0 18 0;
#X connect 18 0 26 0;
#X connect 19 0 20 0;
#X connect 20 0 21 0;
#X connect 21 0 22 0;
#X connect 23 0 25 0;
#X connect 23 1 24 0;
#X connect 24 0 16 1;
#X connect 25 0 15 0;
#X connect 26 0 22 1;
#X connect 27 0 29 0;
#X connect 28 0 30 0;
#X connect 28 2 30 0;
#X connect 29 0 37 0;
#X connect 30 0 23 0;
#X connect 31 0 30 1;
#X connect 32 0 33 0;
#X connect 33 0 34 0;
#X connect 35 1 49 0;
#X connect 36 0 33 2;
#X connect 36 0 42 0;
#X connect 36 1 1 0;
#X connect 36 2 40 0;
#X connect 36 3 47 2;
#X connect 36 4 29 1;
#X connect 37 0 54 0;
#X connect 38 0 37 1;
#X connect 39 0 40 1;
#X connect 40 0 41 0;
#X connect 41 0 2 1;
#X connect 43 0 8 0;
#X connect 44 0 45 0;
#X connect 45 1 20 1;
#X connect 46 0 37 0;
#X connect 46 1 20 1;
#X connect 47 0 35 0;
#X connect 49 0 11 0;
#X connect 49 1 37 0;
#X connect 49 2 10 0;
#X connect 49 3 43 0;
#X connect 49 4 50 0;
#X connect 49 6 48 0;
#X connect 50 0 51 2;
#X connect 51 0 53 1;
#X connect 52 0 53 0;
#X connect 53 0 28 0;
#X connect 54 0 52 0;
#X connect 54 1 51 0;
