#N canvas 67 91 737 473 10;
#X obj 185 76 f;
#X obj 185 124 text get £"pascal);
#X obj 185 146 cyclone/iter;
#X obj 185 168 t f b;
#X obj 212 194 f;
#X obj 241 194 + 1;
#X obj 168 24 inlet;
#X text 293 234 i;
#X text 175 77 n;
#X text 165 237 bi;
#X text 397 235 t;
#X obj 168 367 outlet;
#X text 507 228 n;
#X obj 185 293 +;
#X obj 185 315 t f f;
#X obj 168 340 f;
#X text 259 304 sum ( binomial * (1-2)^(n-i) * t^i * w(i) );
#X obj 219 76 t f f;
#X obj 433 31 inlet;
#X obj 516 7 inlet;
#X obj 433 85 array set z\$1_b\$3_\$2;
#X obj 516 182 array set z\$1_b\$3_\$2;
#X obj 267 19 receive \$1-bpl-\$2-1;
#X obj 267 41 t f f b b f;
#X obj 168 50 t b b f b;
#X obj 185 254 expr $f1 * pow ($f3 \, $f2) * pow ((1-$f3) \, ($f4-$f2))
* z\$1_b\$3_\$2[$f2];
#X obj 516 159 f;
#X obj 433 58 f;
#X text 318 360 removed * c\$1sby\$3 from end;
#X connect 0 0 1 0;
#X connect 1 0 2 0;
#X connect 2 0 3 0;
#X connect 3 0 25 0;
#X connect 3 1 4 0;
#X connect 4 0 5 0;
#X connect 4 0 25 1;
#X connect 5 0 4 1;
#X connect 6 0 24 0;
#X connect 13 0 14 0;
#X connect 14 0 15 1;
#X connect 14 1 13 1;
#X connect 15 0 11 0;
#X connect 17 0 4 1;
#X connect 17 1 13 1;
#X connect 18 0 27 0;
#X connect 19 0 26 0;
#X connect 22 0 23 0;
#X connect 23 0 0 1;
#X connect 23 1 25 3;
#X connect 23 2 27 0;
#X connect 23 3 26 0;
#X connect 23 4 21 1;
#X connect 24 0 15 0;
#X connect 24 1 0 0;
#X connect 24 2 25 2;
#X connect 24 3 17 0;
#X connect 25 0 13 0;
#X connect 26 0 21 0;
#X connect 27 0 20 0;
