#N canvas 103 219 450 299 10;
#X obj 210 43 inlet;
#X obj 178 144 f;
#X obj 237 87 == \$3;
#X obj 178 166 spigot;
#X obj 191 87 sel \$3;
#X obj 210 65 t f f;
#X obj 178 188 outlet;
#X obj 178 15 receive \$1-\$2;
#X obj 191 113 t b b;
#X obj 293 174 spigot;
#X obj 255 196 t f f;
#X obj 293 196 t b;
#X obj 293 218 t f f;
#X text 275 90 set label;
#X text 239 264 color mover canvas;
#X obj 255 243 dvs \$1 mocol;
#X obj 255 173 f 1;
#X connect 0 0 5 0;
#X connect 1 0 3 0;
#X connect 2 0 3 1;
#X connect 3 0 6 0;
#X connect 4 0 8 0;
#X connect 4 1 9 0;
#X connect 5 0 4 0;
#X connect 5 1 2 0;
#X connect 7 0 1 0;
#X connect 8 0 1 0;
#X connect 8 1 16 0;
#X connect 9 0 11 0;
#X connect 10 0 15 0;
#X connect 10 1 9 1;
#X connect 11 0 12 0;
#X connect 12 0 15 0;
#X connect 12 1 9 1;
#X connect 16 0 10 0;
