#N canvas 150 90 907 456 10;
#X obj 617 127 array define \$0-m 1;
#X msg 617 105 resize \$1;
#X obj 402 112 array set \$0-m;
#X obj 402 87 inlet;
#X obj 309 138 inlet;
#X obj 309 160 t b b;
#X obj 341 183 array min \$0-m;
#X obj 309 206 array max \$0-m;
#X obj 176 291 outlet;
#X obj 176 149 inlet;
#X obj 309 229 -;
#X obj 208 318 outlet remainder;
#X obj 176 171 tabread \$0-m;
#X obj 176 213 t f f;
#X obj 176 235 div;
#X obj 208 235 mod;
#X obj 208 257 /;
#X text 606 59 1.1: receive total number of contexts and resize array
;
#X text 339 63 3.1: set array with all x/y values;
#X text 351 153 4.1: calculate min and max to determine scale;
#X text 223 285 5.1: iterate arrays and find position and accuracy
;
#X obj 176 192 -;
#X obj 176 257 + 1;
#X obj 617 83 receive \$1-arrsize;
#X obj 449 87 receive \$1-allcount;
#X obj 309 272 max 10;
#X obj 309 250 / 7;
#X obj 27 90 inlet second;
#X obj 59 136 array max \$0-m;
#X obj 59 158 max 8;
#X obj 59 350 outlet;
#X text 15 68 12.1: get maximum coordinate for matrix;
#X obj 27 112 t f f;
#X obj 27 372 outlet;
#X obj 27 216 array min \$0-m;
#X obj 27 238 min 1;
#X obj 27 260 - 1;
#X obj 59 306 -;
#X obj 27 282 t f f;
#X obj 59 328 abs;
#X connect 1 0 0 0;
#X connect 3 0 2 0;
#X connect 4 0 5 0;
#X connect 5 0 7 0;
#X connect 5 1 6 0;
#X connect 6 0 10 1;
#X connect 6 0 21 1;
#X connect 7 0 10 0;
#X connect 9 0 12 0;
#X connect 10 0 26 0;
#X connect 12 0 21 0;
#X connect 13 0 14 0;
#X connect 13 1 15 0;
#X connect 14 0 22 0;
#X connect 15 0 16 0;
#X connect 16 0 11 0;
#X connect 21 0 13 0;
#X connect 22 0 8 0;
#X connect 23 0 1 0;
#X connect 24 0 2 1;
#X connect 25 0 15 1;
#X connect 25 0 14 1;
#X connect 25 0 16 1;
#X connect 26 0 25 0;
#X connect 27 0 32 0;
#X connect 28 0 29 0;
#X connect 29 0 37 1;
#X connect 32 0 34 0;
#X connect 32 1 28 0;
#X connect 34 0 35 0;
#X connect 35 0 36 0;
#X connect 36 0 38 0;
#X connect 37 0 39 0;
#X connect 38 0 33 0;
#X connect 38 1 37 0;
#X connect 39 0 30 0;
