#N canvas 65 53 1301 715 10;
#N canvas 760 107 479 686 guts 0;
#X obj 310 335 iemguts/sendcanvas 1;
#X obj -46 -62 iemguts/canvasdelete 1;
#X obj 177 234 list trim;
#X obj 150 85 demux;
#X obj 177 137 list-abs/list-extend;
#X obj 150 264 list-abs/list-extend;
#X obj 177 161 spigot;
#X obj 150 286 spigot;
#X msg 119 -8 1;
#X obj 116 -62 list split 1;
#N canvas 151 331 450 395 pack 0;
#X obj 173 229 demux;
#X obj 146 175 sel 0;
#X obj 200 253 list-abs/list-extend;
#X obj 200 275 spigot;
#X msg 217 197 1;
#X obj 146 197 t b f b b;
#X obj 200 298 l2s;
#X obj 89 9 inlet;
#X obj 146 124 alter;
#X obj 146 151 t f f;
#X obj 173 323 outlet sym;
#X obj 172 96 f;
#X obj 207 96 + 1;
#X obj 235 120 + 1;
#X obj 200 120 f 1;
#X obj 89 31 route bang;
#X obj 89 53 t f;
#X obj 33 110 makefilename $%d;
#X obj 146 55 sel " #f ##f \;;
#X connect 0 0 10 0;
#X connect 0 1 2 0;
#X connect 1 0 5 0;
#X connect 2 0 3 0;
#X connect 3 0 6 0;
#X connect 4 0 3 1;
#X connect 5 0 2 1;
#X connect 5 1 3 1;
#X connect 5 2 2 0;
#X connect 5 3 4 0;
#X connect 6 0 10 0;
#X connect 7 0 15 0;
#X connect 8 0 9 0;
#X connect 9 0 1 0;
#X connect 9 1 0 1;
#X connect 11 0 12 0;
#X connect 11 0 0 0;
#X connect 12 0 11 1;
#X connect 13 0 14 1;
#X connect 14 0 13 0;
#X connect 14 0 0 0;
#X connect 15 0 16 0;
#X connect 15 1 18 0;
#X connect 16 0 17 0;
#X connect 17 0 0 0;
#X connect 18 0 8 0;
#X connect 18 1 11 0;
#X connect 18 2 14 0;
#X connect 18 4 0 0;
#X restore 150 14 pd pack;
#X obj 150 36 t a b;
#X obj 116 -90 t a a;
#X obj 158 -90 list split 1;
#X obj 177 186 list prepend;
#X obj 183 377 f;
#X obj 212 377 + 1;
#X obj 217 424 * 30;
#X obj 307 447 s2l;
#X obj 217 540 list trim;
#X obj 132 466 pack f f;
#X obj 177 108 sel #n;
#X msg 224 108 1;
#X obj 217 518 list prepend obj;
#X obj 217 446 t f f;
#X obj 244 469 list append;
#X obj 217 494 list append;
#X obj 177 212 list prepend obj 0 -30;
#X obj 150 330 sel #l;
#X obj 19 443 f;
#X obj 64 441 f;
#X obj 19 466 + 1;
#X obj 84 396 - 1;
#X obj 19 490 pack f f;
#X obj 147 356 + 1;
#X obj 45 351 t b b b b;
#X msg 134 393 1;
#X obj 355 478 f;
#X obj 355 504 spigot;
#X obj 183 353 t b a b;
#X obj 355 526 t f b;
#X msg 401 524 0;
#X obj 65 -142 t b b b b;
#X obj 20 24 symbol \$1;
#X obj 20 46 sel demux;
#X obj 20 69 t b b;
#X msg 47 114 obj 300 -40 inlet;
#X obj 183 396 t f f f f f f f;
#X obj 20 141 f;
#X obj 65 -166 inlet;
#X msg 310 293 connect 3 0 4 0;
#X msg 112 490 connect 4 \$2 \$1 0;
#X msg 18 514 connect 4 \$1 \$2 0;
#X obj 132 424 + 5;
#X obj 64 466 + 5;
#X obj 84 374 f 5;
#X msg 20 187 connect \$1 0 4 1;
#X obj 20 165 + 6;
#X obj 177 61 alter;
#X obj 116 -119 iemguts/canvasargs 1;
#X obj 90 -33 t b b b a;
#X obj 150 308 cyclone/iter;
#X obj 149 -7 list-abs/list-drip;
#X connect 2 0 0 0;
#X connect 3 0 5 0;
#X connect 3 1 21 0;
#X connect 4 0 6 0;
#X connect 5 0 7 0;
#X connect 6 0 14 0;
#X connect 7 0 61 0;
#X connect 8 0 7 1;
#X connect 8 0 6 1;
#X connect 9 1 60 0;
#X connect 10 0 11 0;
#X connect 11 0 3 0;
#X connect 11 1 58 0;
#X connect 12 0 9 0;
#X connect 12 1 13 0;
#X connect 13 0 14 1;
#X connect 14 0 27 0;
#X connect 15 0 47 0;
#X connect 16 0 15 1;
#X connect 17 0 24 0;
#X connect 18 0 25 1;
#X connect 19 0 0 0;
#X connect 20 0 51 0;
#X connect 21 0 22 0;
#X connect 21 1 4 0;
#X connect 22 0 3 1;
#X connect 23 0 19 0;
#X connect 24 0 26 0;
#X connect 24 1 25 0;
#X connect 25 0 26 1;
#X connect 26 0 23 0;
#X connect 27 0 2 0;
#X connect 28 0 35 0;
#X connect 28 1 39 0;
#X connect 29 0 31 0;
#X connect 30 0 54 0;
#X connect 31 0 29 1;
#X connect 31 0 33 0;
#X connect 31 0 34 0;
#X connect 32 0 37 1;
#X connect 32 0 53 1;
#X connect 32 0 55 1;
#X connect 33 0 52 0;
#X connect 34 0 15 1;
#X connect 35 0 29 0;
#X connect 35 1 30 0;
#X connect 35 2 55 0;
#X connect 35 3 36 0;
#X connect 36 0 38 1;
#X connect 37 0 38 0;
#X connect 38 0 40 0;
#X connect 39 0 15 0;
#X connect 39 1 18 0;
#X connect 39 2 37 0;
#X connect 40 0 54 1;
#X connect 40 1 41 0;
#X connect 41 0 38 1;
#X connect 42 1 43 0;
#X connect 42 2 50 0;
#X connect 42 3 59 0;
#X connect 43 0 44 0;
#X connect 44 0 45 0;
#X connect 45 0 48 0;
#X connect 45 1 46 0;
#X connect 46 0 0 0;
#X connect 47 0 53 0;
#X connect 47 1 20 1;
#X connect 47 2 17 0;
#X connect 47 3 16 0;
#X connect 47 4 29 1;
#X connect 47 5 30 1;
#X connect 47 6 48 1;
#X connect 48 0 57 0;
#X connect 49 0 42 0;
#X connect 50 0 0 0;
#X connect 51 0 0 0;
#X connect 52 0 0 0;
#X connect 53 0 20 0;
#X connect 54 0 33 1;
#X connect 55 0 32 0;
#X connect 56 0 0 0;
#X connect 57 0 56 0;
#X connect 58 0 3 1;
#X connect 59 0 12 0;
#X connect 60 0 5 0;
#X connect 60 1 4 0;
#X connect 60 2 8 0;
#X connect 60 3 62 0;
#X connect 61 0 28 0;
#X connect 62 0 10 0;
#X restore 121 -109 pd guts;
#X obj 121 -152 iemguts/initbang;
#X obj 121 -130 myinit 2;
#X obj 10 -100 inlet;
#X connect 1 0 2 0;
#X connect 2 0 0 0;
