#N canvas 241 97 907 687 10;
#N canvas 591 81 592 686 guts 1;
#X obj 72 -145 inlet;
#X obj 123 -100 iemguts/canvasargs 1;
#X obj 12 -78 text define \$0-br;
#X msg 12 -101 clear;
#X obj 123 -78 text fromlist \$0-br;
#X obj 72 -123 t b b b b;
#X obj 216 58 text get \$0-br 0;
#X obj 106 -53 text size \$0-br;
#X obj 178 15 cyclone/uzi;
#X obj 216 88 demux;
#X obj 137 35 f 1;
#X obj 247 34 f -1;
#X obj 276 181 list split 1;
#X obj 106 -31 - 1;
#X obj 210 160 list prepend obj 0 0 \$1;
#X obj 160 389 iemguts/sendcanvas 1;
#X obj 160 366 list trim;
#X obj 210 136 collect;
#X obj 430 288 f;
#X obj 430 310 + 1;
#X obj 310 209 list trim;
#X obj 349 410 + 1;
#X obj 271 410 f;
#X obj 297 410 + 1;
#X obj 271 442 pack;
#X msg 271 464 connect 4 \$1 \$2 0;
#X obj 323 410 f 5;
#X obj 385 264 t b b a b b b;
#X obj 481 404 f;
#X obj 481 436 pack;
#X obj 419 485 list prepend;
#X obj 481 458 list prepend obj;
#X obj 507 404 + 30;
#X obj 579 404 + 20;
#X obj 543 404 f 80;
#X obj 310 234 route #l bang;
#X obj 106 -11 t b b b b b b f;
#X obj 101 102 f \$2;
#X obj 101 124 sel 2;
#X msg 156 300 connect 3 0 4 0;
#X obj 101 146 t b b b;
#X msg 128 266 obj 300 -20 inlet \, connect 5 0 4 1;
#X obj 430 332 list prepend #f;
#X obj 419 360 cyclone/substitute #f 1;
#X obj 216 112 sel ##;
#X connect 0 0 5 0;
#X connect 1 0 4 0;
#X connect 3 0 2 0;
#X connect 5 0 3 0;
#X connect 5 2 7 0;
#X connect 5 3 1 0;
#X connect 6 0 9 0;
#X connect 7 0 13 0;
#X connect 8 2 6 0;
#X connect 9 0 44 0;
#X connect 9 1 12 0;
#X connect 10 0 9 1;
#X connect 11 0 6 1;
#X connect 12 1 20 0;
#X connect 13 0 36 0;
#X connect 14 0 16 0;
#X connect 16 0 15 0;
#X connect 17 0 14 0;
#X connect 18 0 19 0;
#X connect 19 0 18 1;
#X connect 19 0 42 0;
#X connect 20 0 35 0;
#X connect 21 0 26 1;
#X connect 22 0 23 0;
#X connect 22 0 24 0;
#X connect 23 0 22 1;
#X connect 24 0 25 0;
#X connect 25 0 15 0;
#X connect 26 0 21 0;
#X connect 26 0 24 1;
#X connect 27 0 22 0;
#X connect 27 1 26 0;
#X connect 27 2 43 0;
#X connect 27 3 18 0;
#X connect 27 4 28 0;
#X connect 27 5 34 0;
#X connect 28 0 29 0;
#X connect 28 0 32 0;
#X connect 29 0 31 0;
#X connect 30 0 16 0;
#X connect 31 0 30 1;
#X connect 32 0 28 1;
#X connect 33 0 34 1;
#X connect 34 0 29 1;
#X connect 34 0 33 0;
#X connect 35 0 22 0;
#X connect 35 2 27 0;
#X connect 36 0 8 0;
#X connect 36 1 11 0;
#X connect 36 2 10 0;
#X connect 36 3 37 0;
#X connect 36 4 17 0;
#X connect 36 5 8 0;
#X connect 36 6 8 1;
#X connect 37 0 38 0;
#X connect 38 0 40 0;
#X connect 38 1 39 0;
#X connect 39 0 15 0;
#X connect 40 0 26 0;
#X connect 40 1 41 0;
#X connect 40 2 39 0;
#X connect 41 0 15 0;
#X connect 42 0 43 1;
#X connect 43 0 30 0;
#X connect 43 1 30 0;
#X connect 44 1 17 1;
#X restore 121 -109 pd guts;
#X obj 121 -152 iemguts/initbang;
#X obj 121 -130 myinit 2;
#X obj 10 -100 inlet;
#X connect 1 0 2 0;
#X connect 2 0 0 0;
