#N canvas 814 292 377 443 10;
#X obj 71 92 inlet;
#X obj 83 232 outlet;
#X text 239 76 initialize offset;
#X obj 132 254 -;
#X obj 115 279 +;
#X obj 71 114 demux;
#X obj 56 137 f;
#X obj 264 224 inlet;
#X msg 191 63 1;
#X obj 264 247 t f;
#X obj 219 273 spigot 1;
#X obj 132 232 v \$1-:\$3-v;
#X obj 149 210 v \$1-:\$4-v;
#X obj 246 330 * \$2;
#X obj 219 378 +;
#X obj 219 400 outlet;
#X text 182 193 (v's inside save abstraction);
#X obj 172 38 t b b b;
#X obj 98 187 t f f b b;
#X obj 56 159 t f f;
#X obj 246 303 v \$1-tbyd\$4;
#X obj 115 303 s \$1-:\$3-n;
#X obj 172 14 receive \$1-lbang;
#X text 281 17 <-- was lb. Change back?;
#X connect 0 0 5 0;
#X connect 3 0 4 1;
#X connect 4 0 15 0;
#X connect 5 0 6 1;
#X connect 5 1 18 0;
#X connect 6 0 19 0;
#X connect 7 0 9 0;
#X connect 8 0 5 1;
#X connect 9 0 10 1;
#X connect 10 0 14 0;
#X connect 11 0 3 0;
#X connect 12 0 3 1;
#X connect 13 0 14 1;
#X connect 14 0 15 0;
#X connect 17 0 6 0;
#X connect 17 1 8 0;
#X connect 17 2 20 0;
#X connect 18 0 1 0;
#X connect 18 1 4 0;
#X connect 18 2 11 0;
#X connect 18 3 12 0;
#X connect 19 0 10 0;
#X connect 19 1 1 0;
#X connect 20 0 13 0;
#X connect 22 0 17 0;
