#N canvas 623 199 419 443 10;
#X obj 71 92 inlet;
#X obj 83 232 outlet;
#X text 239 76 initialize offset;
#X obj 132 254 -;
#X obj 115 279 +;
#X obj 71 114 demux;
#X obj 56 137 f;
#X obj 264 224 inlet;
#X obj 264 247 t f;
#X obj 219 273 spigot 1;
#X obj 132 232 v \$1-:\$3-v;
#X obj 149 210 v \$1-:\$4-v;
#X obj 246 330 * \$2;
#X obj 219 378 +;
#X obj 219 400 outlet;
#X text 182 193 (v's inside save abstraction);
#X obj 98 187 t f f b b;
#X obj 56 159 t f f;
#X obj 246 303 v \$1-tbyd\$4;
#X obj 115 303 s \$1-:\$3-n;
#X text 309 12 <-- was lb. Change back?;
#X obj 172 38 t b f b;
#X obj 172 14 receive \$1-lbang1;
#X connect 0 0 5 0;
#X connect 3 0 4 1;
#X connect 4 0 14 0;
#X connect 5 0 6 1;
#X connect 5 1 16 0;
#X connect 6 0 17 0;
#X connect 7 0 8 0;
#X connect 8 0 9 1;
#X connect 9 0 13 0;
#X connect 10 0 3 0;
#X connect 11 0 3 1;
#X connect 12 0 13 1;
#X connect 13 0 14 0;
#X connect 16 0 1 0;
#X connect 16 1 4 0;
#X connect 16 2 10 0;
#X connect 16 3 11 0;
#X connect 17 0 9 0;
#X connect 17 1 1 0;
#X connect 18 0 12 0;
#X connect 21 0 6 0;
#X connect 21 1 5 1;
#X connect 21 2 18 0;
#X connect 22 0 21 0;
