#N canvas 345 146 974 493 10;
#X obj 230 306 demux 0 1 2 3;
#X obj 301 360 -;
#X obj 330 360 * 12;
#X obj 301 386 -;
#X msg 301 408 :F \$1;
#X obj 361 443 -;
#X obj 390 443 * 12;
#X obj 361 469 -;
#X obj 251 360 t b f f;
#X msg 361 491 :G \$1;
#X obj 390 421 receive \$1-ysize-2;
#X obj 330 337 receive \$1-xsize-2;
#X obj 527 318 receive \$1-xstart;
#X obj 626 364 receive \$1-xend;
#N canvas 367 413 743 300 receive~ 0;
#X obj 114 159 outlet~;
#X obj 165 159 outlet;
#X obj 275 73 receive \$1-hostzero;
#X obj 275 137 iemguts/sendcanvas;
#X msg 275 95 obj 100 100 receive~ \$1-myline \, connect 5 0 0 0 \,
obj 140 100 receive \$1-imon \, connect 6 0 1 0;
#X connect 2 0 4 0;
#X connect 4 0 3 0;
#X restore 512 239 pd receive~;
#X obj 513 469 cyclone/edge~;
#X obj 512 340 -~;
#X obj 512 362 max~;
#X obj 512 414 *~;
#X obj 203 278 t b f;
#X obj 157 351 s \$1-dirtyy;
#X msg 513 513 :s;
#X obj 588 516 demux;
#X msg 588 538 stop;
#X msg 614 561 stop *;
#X obj 588 598 s \$1-undone2;
#X obj 615 468 receive \$1-estop;
#X msg 540 571 1;
#X obj 513 491 t b b;
#X obj 588 493 t b f;
#X obj 540 622 s \$1-eon;
#X obj 575 288 sel 0;
#X obj 575 266 t f f;
#X obj 236 230 receive \$1-nomove;
#X obj 716 510 receive \$1-hostzero;
#X obj 716 532 makefilename %s-yourswitch;
#X obj 716 554 iemguts/oreceive \$0nop;
#X obj 716 576 s \$1-myswitch;
#X obj 527 389 cyclone/lessthan~;
#X obj 512 437 *~;
#X obj 71 168 f 1;
#X obj 203 256 spigot;
#X obj 318 203 t f f;
#X obj 203 202 t f f;
#X obj 194 463 iemguts/canvasposition 3;
#X obj 71 71 receive \$1-lbang;
#X obj 41 42 route mouseup done-popup;
#X obj 182 95 ctxfiles/deb 700;
#X obj 71 118 del 100;
#X obj 182 70 spigot;
#X obj 215 29 receive \$1-savestart;
#X obj 254 144 s \$1-mypos;
#X obj 41 19 iemguts/receivecanvas 4;
#X obj 182 121 iemguts/canvasposition 3;
#X obj 74 246 s \$1-created1;
#X obj 71 141 t b b b;
#X obj 203 179 ctxfiles/m-interface \$1 4 62 54 5 54 46;
#X obj 34 468 em-init \$1 62 54;
#X obj 33 419 s \$1-backsplash--delete;
#X obj 34 443 receive \$1-pixsize;
#X obj 71 94 t b b;
#X obj 230 410 pack f f f;
#X obj 230 328 t b f f;
#X obj 182 144 t l l l l;
#X obj 230 433 list split 1;
#X obj 242 384 unpack;
#X connect 0 0 62 0;
#X connect 0 1 8 0;
#X connect 0 2 1 0;
#X connect 0 3 5 0;
#X connect 1 0 3 0;
#X connect 2 0 3 1;
#X connect 3 0 4 0;
#X connect 4 0 25 0;
#X connect 5 0 7 0;
#X connect 6 0 7 1;
#X connect 7 0 9 0;
#X connect 8 0 61 0;
#X connect 8 1 61 2;
#X connect 8 2 5 1;
#X connect 9 0 25 0;
#X connect 10 0 6 0;
#X connect 11 0 2 0;
#X connect 12 0 16 1;
#X connect 13 0 38 1;
#X connect 14 0 16 0;
#X connect 14 0 38 0;
#X connect 14 1 32 0;
#X connect 15 0 28 0;
#X connect 15 1 29 0;
#X connect 16 0 17 0;
#X connect 17 0 18 0;
#X connect 18 0 39 0;
#X connect 19 0 20 0;
#X connect 19 1 0 0;
#X connect 21 0 25 0;
#X connect 22 0 23 0;
#X connect 22 1 24 0;
#X connect 23 0 25 0;
#X connect 24 0 25 0;
#X connect 26 0 22 1;
#X connect 27 0 30 0;
#X connect 28 0 21 0;
#X connect 28 1 27 0;
#X connect 29 0 22 0;
#X connect 29 1 30 0;
#X connect 31 0 22 0;
#X connect 32 0 31 0;
#X connect 32 1 39 1;
#X connect 33 0 41 1;
#X connect 34 0 35 0;
#X connect 35 0 36 0;
#X connect 36 0 37 0;
#X connect 38 0 18 1;
#X connect 39 0 15 0;
#X connect 40 0 41 1;
#X connect 41 0 19 0;
#X connect 42 0 0 1;
#X connect 42 1 57 3;
#X connect 43 0 41 0;
#X connect 43 1 57 2;
#X connect 45 0 60 0;
#X connect 46 2 49 0;
#X connect 47 0 53 0;
#X connect 47 1 61 0;
#X connect 48 0 55 0;
#X connect 49 0 47 0;
#X connect 50 0 49 1;
#X connect 52 0 46 0;
#X connect 53 0 63 0;
#X connect 55 0 40 0;
#X connect 55 1 54 0;
#X connect 55 2 53 0;
#X connect 56 0 43 0;
#X connect 56 1 42 0;
#X connect 59 0 57 0;
#X connect 60 0 48 0;
#X connect 60 1 58 0;
#X connect 61 0 64 0;
#X connect 62 0 61 0;
#X connect 62 1 61 1;
#X connect 62 2 1 1;
#X connect 63 0 57 1;
#X connect 63 1 56 0;
#X connect 63 2 65 0;
#X connect 63 3 51 0;
#X connect 64 1 44 0;
#X connect 65 0 61 1;
#X connect 65 1 61 2;
