#N canvas 67 87 1299 681 10;
#X obj 203 179 ctxfiles/m-interface \$1 4 62 54 5 54 46;
#X obj 868 260 receive \$1-delemb;
#X obj 868 282 iemguts/canvasdelete 1;
#X obj 230 306 demux 0 1 2 3;
#X obj 230 410 pack f f;
#X obj 230 328 t f f;
#X obj 301 360 -;
#X obj 330 360 * 12;
#X obj 301 386 -;
#X msg 301 408 :F \$1;
#X obj 361 443 -;
#X obj 390 443 * 12;
#X obj 361 469 -;
#X obj 251 360 t b f f;
#X msg 361 491 :G \$1;
#X obj 390 421 receive \$1-ysize-2;
#X obj 330 337 receive \$1-xsize-2;
#X obj 527 318 receive \$1-xstart;
#X obj 626 364 receive \$1-xend;
#N canvas 367 413 743 300 receive~ 0;
#X obj 114 159 outlet~;
#X obj 165 159 outlet;
#X obj 275 73 receive \$1-hostzero;
#X obj 275 137 iemguts/sendcanvas;
#X msg 275 95 obj 100 100 receive~ \$1-myline \, connect 5 0 0 0 \,
obj 140 100 receive \$1-imon \, connect 6 0 1 0;
#X connect 2 0 4 0;
#X connect 4 0 3 0;
#X restore 512 239 pd receive~;
#X obj 513 469 cyclone/edge~;
#X obj 512 340 -~;
#X obj 512 362 max~;
#X obj 512 414 *~;
#X obj 203 278 t b f;
#X obj 157 351 s \$1-dirtyy;
#X msg 513 513 :s;
#X obj 588 516 demux;
#X msg 588 538 stop;
#X msg 614 561 stop *;
#X obj 588 598 s \$1-undone2;
#X obj 615 468 receive \$1-estop;
#X msg 540 571 1;
#X obj 513 491 t b b;
#X obj 588 493 t b f;
#X obj 540 622 s \$1-eon;
#X obj 575 288 sel 0;
#X obj 575 266 t f f;
#X obj 236 230 receive \$1-nomove;
#X obj 716 510 receive \$1-hostzero;
#X obj 716 532 makefilename %s-yourswitch;
#X obj 716 554 iemguts/oreceive \$0nop;
#X obj 716 576 s \$1-myswitch;
#X obj 527 389 cyclone/lessthan~;
#X obj 512 437 *~;
#X obj 886 313 receive \$1-lbang;
#X obj 886 484 s \$1-pokepos;
#X obj 905 460 pack;
#X obj 905 512 em-init \$1;
#X obj 71 144 f 1;
#X obj 203 256 spigot;
#X obj 230 546 spigot;
#X obj 318 203 t f f;
#X obj 203 202 t f f;
#X obj 230 573 iemguts/canvasposition 3;
#X obj 71 71 receive \$1-lbang;
#X obj 41 42 route mouseup done-popup;
#X obj 182 95 ctxfiles/deb 700;
#X obj 71 94 del 100;
#X obj 182 70 spigot;
#X obj 215 29 receive \$1-savestart;
#X obj 182 144 t l l l;
#X obj 234 144 s \$1-mypos;
#X obj 71 117 t b b;
#X obj 905 434 + 12;
#X obj 925 406 + 12;
#X obj 886 336 t b b b b;
#X obj 1121 355 list trim;
#X obj 1121 378 route %^;
#X obj 1121 424 + 12;
#X obj 1152 424 + 12;
#X obj 993 383 dvr \$1 yzoomp;
#X obj 961 406 dvr \$1 xzoomp;
#X obj 1121 401 route :F :G;
#X msg 1121 297 38 \, 39;
#X obj 905 359 v \$1-xszz;
#X obj 925 383 v \$1-yszz;
#X obj 1121 332 text get \$1-save;
#X obj 41 19 iemguts/receivecanvas 4;
#X obj 182 121 iemguts/canvasposition 3;
#X obj 707 124 receive \$1-cbee;
#X obj 707 172 s \$1-created1;
#X obj 263 517 receive \$1-nomove;
#X obj 707 147 del 100;
#X connect 0 0 53 0;
#X connect 0 1 52 0;
#X connect 0 2 0 1;
#X connect 1 0 2 0;
#X connect 3 0 5 0;
#X connect 3 1 13 0;
#X connect 3 2 6 0;
#X connect 3 3 10 0;
#X connect 4 0 51 0;
#X connect 5 0 4 0;
#X connect 5 1 6 1;
#X connect 6 0 8 0;
#X connect 7 0 8 1;
#X connect 8 0 9 0;
#X connect 9 0 30 0;
#X connect 10 0 12 0;
#X connect 11 0 12 1;
#X connect 12 0 14 0;
#X connect 13 0 4 0;
#X connect 13 1 4 1;
#X connect 13 2 10 1;
#X connect 14 0 30 0;
#X connect 15 0 11 0;
#X connect 16 0 7 0;
#X connect 17 0 21 1;
#X connect 18 0 43 1;
#X connect 19 0 21 0;
#X connect 19 0 43 0;
#X connect 19 1 37 0;
#X connect 20 0 33 0;
#X connect 20 1 34 0;
#X connect 21 0 22 0;
#X connect 22 0 23 0;
#X connect 23 0 44 0;
#X connect 24 0 25 0;
#X connect 24 1 3 0;
#X connect 26 0 30 0;
#X connect 27 0 28 0;
#X connect 27 1 29 0;
#X connect 28 0 30 0;
#X connect 29 0 30 0;
#X connect 31 0 27 1;
#X connect 32 0 35 0;
#X connect 33 0 26 0;
#X connect 33 1 32 0;
#X connect 34 0 27 0;
#X connect 34 1 35 0;
#X connect 36 0 27 0;
#X connect 37 0 36 0;
#X connect 37 1 44 1;
#X connect 38 0 50 1;
#X connect 39 0 40 0;
#X connect 40 0 41 0;
#X connect 41 0 42 0;
#X connect 43 0 23 1;
#X connect 44 0 20 0;
#X connect 45 0 66 0;
#X connect 47 0 48 0;
#X connect 49 0 50 1;
#X connect 50 0 24 0;
#X connect 52 0 3 1;
#X connect 52 1 48 3;
#X connect 53 0 50 0;
#X connect 53 1 48 2;
#X connect 55 0 58 0;
#X connect 56 2 59 0;
#X connect 57 0 79 0;
#X connect 58 0 63 0;
#X connect 59 0 57 0;
#X connect 60 0 59 1;
#X connect 61 0 48 1;
#X connect 61 1 0 0;
#X connect 61 2 62 0;
#X connect 63 0 49 0;
#X connect 63 1 79 0;
#X connect 64 0 47 0;
#X connect 65 0 47 1;
#X connect 66 0 46 0;
#X connect 66 1 75 0;
#X connect 66 2 76 0;
#X connect 66 3 74 0;
#X connect 67 0 68 0;
#X connect 68 0 73 0;
#X connect 68 1 73 0;
#X connect 69 0 64 1;
#X connect 70 0 65 1;
#X connect 71 0 65 1;
#X connect 72 0 64 1;
#X connect 73 0 69 0;
#X connect 73 1 70 0;
#X connect 74 0 77 0;
#X connect 75 0 64 0;
#X connect 76 0 65 0;
#X connect 77 0 67 0;
#X connect 78 0 56 0;
#X connect 79 0 61 0;
#X connect 80 0 83 0;
#X connect 82 0 51 1;
#X connect 83 0 81 0;
