#N canvas 67 89 1021 599 10;
#X obj 331 -7 inlet height;
#X obj 256 -9 inlet;
#X obj 240 283 loadbang;
#X obj 301 228 -;
#X obj 297 285 moses 1;
#X obj 256 21 demux 0 1 2 3;
#X obj 316 76 -;
#X obj 251 165 t f;
#X obj 119 140 t b f;
#X obj 197 293 t b f;
#X msg 559 138 0;
#X obj 200 140 t f f f b;
#X obj 234 208 +;
#X obj 389 192 +;
#X obj 608 161 * -1;
#X obj 281 168 t b f;
#X obj 362 169 t f f;
#X obj 281 44 t f f;
#X obj 331 44 t f f;
#X obj 316 98 moses 1;
#X obj 557 57 unpack;
#X obj 76 307 unpack;
#X obj 355 120 t f f f;
#X text 545 216 xfrom yfrom xto yto xsize ysize GOP xmargin ymargin
;
#X obj 76 285 receive \$1-mypos;
#X obj 169 227 change;
#X obj 233 258 change;
#X obj 648 65 t b b;
#X obj 590 82 t f f f;
#X obj 541 80 t f f f;
#X obj 240 305 spigot 1;
#X obj 240 327 t b f;
#X obj 557 15 ctxfiles/dvr \$1 cursorsz;
#X obj 648 87 ctxfiles/dv \$1 xszz;
#X obj 675 110 ctxfiles/dv \$1 yszz;
#X obj 648 43 receive \$1-lb1;
#X obj 376 351 outlet;
#X obj 119 116 ctxfiles/mp \$2;
#X obj 345 259 - \$3;
#X obj 345 234 max \$3;
#X obj 281 146 ctxfiles/mp \$4;
#X obj 608 139 - \$5;
#X obj 563 116 moses \$5;
#X obj 235 352 iemguts/canvasindex \$6;
#X obj 217 498 iemguts/canvasobjectposition \$7;
#X obj 307 199 t f f;
#X obj 183 406 spigot;
#X obj 232 406 f 1;
#X obj 232 383 receive \$1-st2;
#X obj 183 451 pack f f f;
#X obj 164 322 t b f b;
#X obj 183 474 list split 1;
#X obj 16 192 receive \$1-fitme;
#X obj 16 239 t b b b;
#X obj 16 215 del;
#X obj 35 262 pack f \$9;
#N canvas 168 157 606 528 protector 0;
#X obj 33 238 -;
#X obj 53 214 s \$1-xlay100;
#X obj 64 109 ctxfiles/lm \$1 x;
#X obj 313 165 -;
#N canvas 359 426 579 321 plusminus 0;
#X obj 141 24 inlet;
#X obj 231 14 inlet;
#X obj 140 137 -;
#X obj 184 182 s \$1-ylay100;
#X obj 231 67 t f f;
#X obj 251 139 + 1;
#X obj 184 159 * -0.5;
#X obj 111 280 outlet;
#X obj 167 280 outlet;
#X obj 141 76 t b b f;
#X obj 94 54 inlet;
#X obj 121 104 t f f f;
#X obj 278 139 + -1;
#X obj 355 179 outlet;
#X obj 388 93 t b b f;
#X obj 296 93 t b b f;
#X obj 296 40 receive \$1-:s1;
#X obj 388 40 receive \$1-:s2;
#X obj 111 258 / 1;
#X obj 167 258 / 1;
#X obj 125 169 / 1;
#X connect 0 0 9 0;
#X connect 1 0 4 0;
#X connect 2 0 20 1;
#X connect 4 0 5 0;
#X connect 4 1 12 0;
#X connect 5 0 18 0;
#X connect 6 0 3 0;
#X connect 9 0 20 0;
#X connect 9 1 2 0;
#X connect 9 2 2 1;
#X connect 10 0 11 0;
#X connect 11 0 20 0;
#X connect 11 1 2 0;
#X connect 11 2 6 0;
#X connect 12 0 19 0;
#X connect 14 0 13 0;
#X connect 14 1 12 0;
#X connect 14 2 12 1;
#X connect 15 0 13 0;
#X connect 15 1 5 0;
#X connect 15 2 5 1;
#X connect 16 0 15 0;
#X connect 17 0 14 0;
#X connect 18 0 7 0;
#X connect 19 0 8 0;
#X connect 20 0 19 1;
#X connect 20 0 18 1;
#X restore 474 255 pd plusminus;
#X obj 434 220 t b f f;
#X obj 436 268 -;
#X obj 513 134 abs;
#X obj 14 136 inlet x;
#X obj 64 70 inlet l;
#X obj 220 86 inlet r;
#X obj 467 73 inlet top;
#X obj 434 153 inlet y;
#X obj 174 492 outlet;
#X msg 415 428 resize \$1;
#X obj 386 406 moses 1;
#X msg 386 428 1;
#X obj 415 450 send;
#X obj 313 143 swap 100;
#X obj 53 192 / 100;
#X obj 205 198 - 1;
#X obj 174 469 spigot;
#X obj 162 241 receive \$1-arrayoff;
#X obj 220 120 ctxfiles/lm \$1 x;
#X obj 467 106 ctxfiles/lm \$1 y;
#X obj 480 406 receive \$1-name;
#X obj 228 415 receive \$1-lb2;
#X obj 257 437 receive \$1-nomove;
#X obj 367 357 receive \$1-size;
#X obj 144 384 pack f \$3 \$8 100 1 -1 0 1;
#X obj 367 179 t b b;
#X obj 144 415 list split 1;
#X obj 104 298 receive \$1-pixsize;
#X obj 104 324 unpack;
#X obj 14 167 t f f;
#X obj 33 261 t b f;
#X obj 69 428 print off;
#X obj 367 381 t b b f f f f b;
#X obj 228 438 f 1;
#X obj 228 461 f;
#X obj 162 263 t b b f b;
#X connect 0 0 35 0;
#X connect 2 0 0 0;
#X connect 2 1 0 1;
#X connect 2 2 20 0;
#X connect 3 0 29 3;
#X connect 4 0 29 4;
#X connect 4 1 29 5;
#X connect 4 2 29 0;
#X connect 5 0 29 0;
#X connect 5 1 6 0;
#X connect 5 2 4 0;
#X connect 6 0 29 2;
#X connect 7 0 6 1;
#X connect 7 0 4 1;
#X connect 8 0 34 0;
#X connect 9 0 2 0;
#X connect 10 0 23 0;
#X connect 11 0 24 0;
#X connect 12 0 5 0;
#X connect 14 0 17 0;
#X connect 15 0 16 0;
#X connect 15 1 29 3;
#X connect 16 0 29 3;
#X connect 18 0 3 0;
#X connect 18 1 3 1;
#X connect 19 0 1 0;
#X connect 20 0 29 6;
#X connect 21 0 13 0;
#X connect 21 0 36 0;
#X connect 22 0 40 0;
#X connect 23 0 0 0;
#X connect 23 1 0 1;
#X connect 23 2 18 0;
#X connect 24 0 30 0;
#X connect 24 1 7 0;
#X connect 24 2 4 2;
#X connect 25 0 17 1;
#X connect 26 0 38 0;
#X connect 27 0 39 0;
#X connect 28 0 37 0;
#X connect 29 0 31 0;
#X connect 30 0 29 0;
#X connect 30 1 6 0;
#X connect 31 1 21 0;
#X connect 32 0 33 0;
#X connect 33 0 29 1;
#X connect 33 1 29 2;
#X connect 34 0 0 0;
#X connect 34 1 19 0;
#X connect 35 0 29 0;
#X connect 35 1 29 1;
#X connect 37 0 39 0;
#X connect 37 1 29 0;
#X connect 37 2 15 0;
#X connect 37 3 14 0;
#X connect 37 4 18 1;
#X connect 37 5 19 1;
#X connect 37 6 38 0;
#X connect 38 0 39 0;
#X connect 39 0 21 1;
#X connect 40 0 39 0;
#X connect 40 1 29 0;
#X connect 40 2 29 7;
#X connect 40 3 38 0;
#X restore 376 328 pd protector;
#X obj 231 428 receive \$1-nomove;
#X connect 0 0 5 1;
#X connect 1 0 5 0;
#X connect 2 0 30 0;
#X connect 3 0 4 0;
#X connect 3 0 12 1;
#X connect 3 0 37 1;
#X connect 4 1 56 0;
#X connect 5 0 37 0;
#X connect 5 1 17 0;
#X connect 5 2 45 0;
#X connect 5 3 18 0;
#X connect 6 0 19 0;
#X connect 7 0 56 1;
#X connect 8 0 50 0;
#X connect 8 1 56 1;
#X connect 9 0 46 0;
#X connect 9 1 49 2;
#X connect 10 0 56 4;
#X connect 11 0 25 0;
#X connect 11 1 3 1;
#X connect 11 2 12 0;
#X connect 11 3 7 0;
#X connect 12 0 39 0;
#X connect 13 0 42 0;
#X connect 14 0 56 4;
#X connect 15 0 9 0;
#X connect 15 1 56 4;
#X connect 16 0 26 0;
#X connect 16 1 13 0;
#X connect 17 0 40 0;
#X connect 17 1 6 1;
#X connect 18 0 6 0;
#X connect 18 1 42 0;
#X connect 19 1 22 0;
#X connect 20 0 29 0;
#X connect 20 1 28 0;
#X connect 21 0 49 1;
#X connect 21 1 49 2;
#X connect 22 0 40 1;
#X connect 22 1 13 1;
#X connect 22 2 56 3;
#X connect 24 0 21 0;
#X connect 25 0 50 0;
#X connect 26 0 9 0;
#X connect 27 0 33 0;
#X connect 27 1 34 0;
#X connect 28 0 40 2;
#X connect 28 1 42 1;
#X connect 28 2 41 1;
#X connect 29 0 37 2;
#X connect 29 1 39 1;
#X connect 29 2 38 1;
#X connect 30 0 31 0;
#X connect 31 0 43 0;
#X connect 31 1 30 1;
#X connect 32 0 20 0;
#X connect 33 0 29 0;
#X connect 34 0 28 0;
#X connect 35 0 27 0;
#X connect 37 0 8 0;
#X connect 37 1 11 0;
#X connect 38 0 56 2;
#X connect 39 0 38 0;
#X connect 40 0 15 0;
#X connect 40 1 16 0;
#X connect 41 0 14 0;
#X connect 42 0 10 0;
#X connect 42 1 41 0;
#X connect 43 0 44 1;
#X connect 45 0 3 0;
#X connect 45 1 39 0;
#X connect 46 0 49 0;
#X connect 47 0 46 1;
#X connect 48 0 47 0;
#X connect 49 0 51 0;
#X connect 50 0 46 0;
#X connect 50 1 49 1;
#X connect 50 2 43 0;
#X connect 51 1 44 0;
#X connect 52 0 54 0;
#X connect 53 0 49 0;
#X connect 53 1 55 0;
#X connect 53 2 43 0;
#X connect 54 0 53 0;
#X connect 55 0 21 0;
#X connect 56 0 36 0;
#X connect 57 0 46 1;
