#N canvas 278 85 972 687 10;
#X obj 478 -9 inlet;
#X obj 366 258 > \$2;
#X obj 339 233 t f f f;
#X obj 339 282 demux;
#X obj 431 457 list append $ 0;
#X obj 431 480 list trim;
#X obj 434 750 outlet toggle-create;
#X msg 311 368 delete \$1;
#X obj 311 343 + \$4;
#X obj 307 750 outlet toggle-delete;
#X obj 150 459 + \$5;
#X obj 478 151 * 12;
#X obj 107 750 outlet maincanvas;
#X obj 130 312 + \$6;
#X obj 16 750 outlet movebox;
#X obj 130 341 pack f \$7;
#X obj 170 552 + \$8;
#X obj 216 750 outlet cnvsize;
#X obj 311 321 t f f;
#X obj 561 750 outlet customdown;
#X obj 671 750 outlet customup;
#X obj 431 358 * 12;
#X obj 431 390 + \$3;
#X obj 468 390 + \$10;
#X obj 262 92 + 1;
#X obj 262 28 - 1;
#X obj 699 434 + 12;
#X obj 756 508 s \$1-\$12emod;
#X obj 553 -29 inlet;
#X obj 763 535 - 12;
#X obj 769 750 outlet;
#X obj 763 557 + \$13;
#X obj 756 487 t f f;
#X obj 130 286 -;
#X obj 150 411 +;
#X obj 262 49 div \$14;
#X obj 170 604 -;
#X obj 431 435 pack f f 12;
#X obj 492 184 +;
#X obj 478 85 t f f;
#X obj 130 218 t f f f;
#X obj 656 195 *;
#X obj 510 151 * 12;
#X obj 478 55 t f f f;
#X obj 262 115 t b f f f f;
#X obj 547 203 -;
#X obj 547 225 t b f;
#X obj 547 270 f;
#X obj 547 247 del 50;
#X obj 352 73 - 1;
#X obj 76 526 s \$1-\$11pix;
#X obj 130 252 switch-\$11;
#X obj 352 50 switch-\$11;
#X obj 699 460 switch-\$11;
#X obj 93 389 switch-\$11;
#X obj 170 577 switch-\$11;
#X obj 656 337 s \$1-:\$15;
#X obj 656 217 t b f;
#X obj 656 291 f;
#X obj 262 71 change 0.5;
#X obj 478 13 change;
#X obj 685 172 - 1;
#X obj 628 146 switch-\$11;
#X obj 656 314 change 0.5;
#X obj 656 264 spigot;
#X obj 150 489 t f f;
#X obj 150 434 t f f;
#X obj 682 79 t f f f f;
#X obj 682 103 - 12;
#X obj 130 195 clip 12 1e+08;
#X obj 656 239 del 100;
#X obj 170 161 + 1;
#X obj 262 6 receive \$1-\$12zoom;
#X obj 681 55 receive \$1-\$11zoomdiv;
#X obj 717 239 receive \$1-savestart;
#X obj 547 168 receive \$1-raw\$11;
#X obj 170 140 receive \$1-\$12zoomdiv;
#X obj 352 26 receive \$1-\$12size;
#X obj 355 692 send;
#X obj 349 595 spigot;
#X obj 349 647 t b f;
#X obj 382 574 receive \$1-savestart;
#X obj 349 617 switch-\$11;
#X obj 406 647 - 1;
#X obj 376 669 makefilename \$1-\$11-%d-bolo;
#X obj 386 318 t b f f f f f;
#X msg 536 376 1;
#X obj 536 398 send;
#X text 521 413 start toggle scroll auto-on;
#X text 400 285 UP;
#X text 289 283 DOWN;
#X obj 563 376 makefilename \$1-%dtogstt;
#X connect 0 0 60 0;
#X connect 1 0 3 1;
#X connect 2 0 3 0;
#X connect 2 1 1 1;
#X connect 2 2 1 0;
#X connect 3 0 18 0;
#X connect 3 1 85 0;
#X connect 4 0 5 0;
#X connect 5 0 6 0;
#X connect 7 0 9 0;
#X connect 8 0 7 0;
#X connect 10 0 65 0;
#X connect 11 0 69 0;
#X connect 13 0 15 0;
#X connect 15 0 14 0;
#X connect 16 0 55 0;
#X connect 18 0 8 0;
#X connect 18 1 19 0;
#X connect 21 0 22 0;
#X connect 22 0 37 0;
#X connect 23 0 37 1;
#X connect 24 0 44 0;
#X connect 25 0 35 0;
#X connect 26 0 53 0;
#X connect 28 0 38 0;
#X connect 29 0 31 0;
#X connect 31 0 30 0;
#X connect 32 0 27 0;
#X connect 32 1 29 1;
#X connect 33 0 13 0;
#X connect 34 0 66 0;
#X connect 35 0 59 0;
#X connect 36 0 17 0;
#X connect 37 0 4 0;
#X connect 38 0 69 0;
#X connect 39 0 11 0;
#X connect 39 1 42 0;
#X connect 40 0 51 0;
#X connect 40 1 54 0;
#X connect 40 2 16 0;
#X connect 41 0 57 0;
#X connect 42 0 38 1;
#X connect 42 0 45 1;
#X connect 43 0 62 0;
#X connect 43 1 39 0;
#X connect 43 2 2 0;
#X connect 44 0 38 0;
#X connect 44 1 33 1;
#X connect 44 2 34 1;
#X connect 44 3 26 0;
#X connect 44 4 36 1;
#X connect 45 0 46 0;
#X connect 46 0 48 0;
#X connect 46 1 47 1;
#X connect 47 0 56 0;
#X connect 48 0 47 0;
#X connect 49 0 35 1;
#X connect 51 0 33 0;
#X connect 51 1 13 0;
#X connect 52 0 49 0;
#X connect 52 1 35 1;
#X connect 53 0 27 0;
#X connect 53 1 32 0;
#X connect 54 0 66 0;
#X connect 54 1 34 0;
#X connect 55 0 36 0;
#X connect 55 1 17 0;
#X connect 57 0 70 0;
#X connect 57 1 58 1;
#X connect 58 0 63 0;
#X connect 59 0 24 0;
#X connect 60 0 43 0;
#X connect 61 0 41 0;
#X connect 62 0 41 0;
#X connect 62 1 61 0;
#X connect 63 0 56 0;
#X connect 64 0 58 0;
#X connect 65 0 12 0;
#X connect 65 1 29 0;
#X connect 66 0 10 0;
#X connect 66 1 50 0;
#X connect 67 0 68 0;
#X connect 67 1 37 2;
#X connect 67 2 11 1;
#X connect 67 3 21 1;
#X connect 68 0 41 1;
#X connect 69 0 40 0;
#X connect 70 0 64 0;
#X connect 71 0 69 1;
#X connect 72 0 25 0;
#X connect 73 0 67 0;
#X connect 74 0 64 1;
#X connect 75 0 45 0;
#X connect 76 0 71 0;
#X connect 77 0 52 0;
#X connect 79 0 82 0;
#X connect 80 0 78 0;
#X connect 80 1 84 0;
#X connect 81 0 79 1;
#X connect 82 0 80 0;
#X connect 82 1 83 0;
#X connect 83 0 80 0;
#X connect 84 0 78 1;
#X connect 85 0 86 0;
#X connect 85 1 91 0;
#X connect 85 2 79 0;
#X connect 85 3 20 0;
#X connect 85 4 21 0;
#X connect 85 5 23 0;
#X connect 86 0 87 0;
#X connect 91 0 87 1;
