#N canvas 529 170 499 561 10;
#X obj 183 109 sel -1;
#X obj 183 132 f 1e+07;
#X obj 144 58 t b l f;
#X obj 144 183 del 20;
#X msg 163 298 line 0 \, bang;
#X msg 144 477 clear;
#X obj 183 261 == 1;
#X obj 145 36 inlet;
#X obj 183 86 text search cellbuff(((\$1);
#X obj 163 157 text set cellbuff(((\$1);
#X obj 183 238 text size cellbuff(((\$1);
#X obj 163 321 text sequence cellbuff(((\$1);
#X obj 144 500 text define cellbuff(((\$1);
#X obj 163 356 demux;
#X obj 190 380 list append \$1;
#X obj 190 403 outlet;
#X obj 388 289 s sysex1(((*;
#X obj 163 428 s sysex2(((*;
#X obj 361 261 t b b;
#X obj 361 324 f \$2;
#X obj 361 238 sel 0;
#X obj 191 183 receive buffertime%^%;
#X obj 144 213 t b b b;
#X obj 328 384 s sysex3(((*;
#X connect 0 0 1 0;
#X connect 0 1 9 1;
#X connect 1 0 9 1;
#X connect 2 0 3 0;
#X connect 2 1 9 0;
#X connect 2 2 8 0;
#X connect 3 0 22 0;
#X connect 4 0 11 0;
#X connect 5 0 12 0;
#X connect 6 0 13 1;
#X connect 6 0 20 0;
#X connect 7 0 2 0;
#X connect 8 0 0 0;
#X connect 10 0 6 0;
#X connect 11 0 13 0;
#X connect 11 1 23 0;
#X connect 13 0 17 0;
#X connect 13 1 14 0;
#X connect 14 0 15 0;
#X connect 18 0 19 0;
#X connect 18 1 16 0;
#X connect 19 0 17 0;
#X connect 20 0 18 0;
#X connect 21 0 3 1;
#X connect 22 0 5 0;
#X connect 22 1 4 0;
#X connect 22 2 10 0;
