#N canvas 730 142 492 493 10;
#X obj 180 167 - 1;
#X obj 98 385 outlet;
#X obj 152 268 f;
#X obj 98 338 list prepend 0;
#X obj 152 291 - 1;
#X obj 98 362 route 0;
#X obj 137 135 unpack;
#X obj 98 112 t b b a;
#X obj 264 179 - \$5;
#X obj 264 224 array define \$2-\$1o \$10;
#X obj 98 218 array get \$2-\$1o;
#X obj 137 191 array set \$2-\$1o;
#X obj 264 157 receive \$2-\$3size-2;
#X obj 98 68 receive \$2-\$1;
#X obj 167 245 receive \$2-\$4-l;
#X msg 264 201 resize \$1;
#X obj 98 90 switch-\$6 \$2 \$7 \$3 \$8 \$9;
#X text 193 294 remove redundant data;
#X obj 152 312 moses;
#X obj 35 135 receive \$2-\$1mp;
#X obj 35 159 t b b;
#X connect 0 0 11 1;
#X connect 2 0 4 0;
#X connect 3 0 5 0;
#X connect 4 0 18 0;
#X connect 5 0 1 0;
#X connect 6 0 11 0;
#X connect 6 1 0 0;
#X connect 7 0 10 0;
#X connect 7 1 2 0;
#X connect 7 2 6 0;
#X connect 8 0 15 0;
#X connect 10 0 3 0;
#X connect 12 0 8 0;
#X connect 13 0 16 0;
#X connect 14 0 2 1;
#X connect 15 0 9 0;
#X connect 16 0 7 0;
#X connect 16 1 2 1;
#X connect 18 1 2 1;
#X connect 18 1 3 1;
#X connect 19 0 20 0;
#X connect 20 0 10 0;
#X connect 20 1 2 0;
