#N canvas 634 301 450 300 10;
#X obj 47 51 inlet;
#X obj 47 95 textfile;
#X obj 47 117 outlet;
#X obj 177 51 inlet;
#X msg 47 73 rewind \, bang \, clear;
#X obj 177 73 list prepend add2;
#X obj 177 95 list trim;
#X connect 0 0 4 0;
#X connect 1 0 2 0;
#X connect 1 1 2 0;
#X connect 3 0 5 0;
#X connect 4 0 1 0;
#X connect 5 0 6 0;
#X connect 6 0 1 0;
