#N canvas 55 71 450 300 10;
#X obj 181 184 outlet;
#X obj 181 159 list trim;
#X obj 181 136 textfile;
#X msg 181 60 clear;
#X msg 96 61 rewind \, bang;
#X obj 181 33 inlet clear;
#X obj 220 60 inlet add;
#X obj 96 36 inlet bang;
#X obj 220 90 list prepend add2;
#X obj 220 112 list trim;
#X connect 1 0 0 0;
#X connect 2 0 1 0;
#X connect 2 1 0 0;
#X connect 3 0 2 0;
#X connect 4 0 2 0;
#X connect 5 0 3 0;
#X connect 6 0 8 0;
#X connect 7 0 4 0;
#X connect 8 0 9 0;
#X connect 9 0 2 0;
