#N canvas 561 81 636 655 10;
#X obj 126 48 unpack f f;
#X obj 126 70 moses;
#X obj 212 657 send;
#X msg 318 56 read colours.txt;
#X obj 318 79 array define colours£ 30;
#X obj 158 112 array get colours£ 0 1;
#X obj 170 216 / -65536;
#X obj 247 217 / -256;
#X obj 170 238 mod 256;
#X obj 247 239 mod 256;
#X obj 313 239 mod 256;
#X obj 313 324 mod 256;
#X obj 247 324 mod 256;
#X obj 170 324 mod 256;
#X obj 170 302 + 128;
#X obj 247 302 + 128;
#X obj 313 302 + 128;
#X obj 170 346 * -65536;
#X obj 247 347 * -256;
#X obj 313 347 * -1;
#X obj 153 162 moses 0;
#X obj 313 261 t f f;
#X obj 247 261 t f f;
#X obj 170 260 t f f;
#X obj 419 433 >= 2;
#X obj 419 456 - 1;
#X obj 419 478 t f f;
#X obj 247 389 +;
#X obj 232 415 +;
#X obj 493 371 +;
#X obj 478 397 +;
#X obj 446 499 + 1;
#X obj 446 521 * -1;
#X obj 313 217 * -1;
#X obj 153 186 t f f f f;
#X obj 293 507 demux;
#X obj 232 474 t f f;
#X obj 212 606 pack f f f f f f;
#X msg 303 425 1;
#X obj 232 445 demux;
#X obj 126 136 t f f b;
#X msg 297 395 0;
#X obj 293 557 t f f b;
#X obj 324 531 + 64;
#X obj 293 531 - 64;
#X obj 533 327 < 128;
#X obj 493 327 < 128;
#X obj 453 327 < 128;
#X obj 146 574 receive \$1-colobang;
#X obj 126 5 receive colourquery";
#X obj 318 10 spigot 1;
#X obj 126 27 t l b;
#X obj 158 91 mod 30;
#X obj 237 634 makefilename %d-primary-col;
#X obj 318 32 t b b f;
#X msg 357 109 read tog-col-key.txt;
#X obj 357 131 text define col-key#^&;
#X connect 0 0 1 0;
#X connect 0 1 53 0;
#X connect 1 0 40 0;
#X connect 1 1 52 0;
#X connect 3 0 4 0;
#X connect 5 0 40 0;
#X connect 6 0 8 0;
#X connect 7 0 9 0;
#X connect 8 0 23 0;
#X connect 9 0 22 0;
#X connect 10 0 21 0;
#X connect 11 0 19 0;
#X connect 12 0 18 0;
#X connect 13 0 17 0;
#X connect 14 0 13 0;
#X connect 15 0 12 0;
#X connect 16 0 11 0;
#X connect 17 0 28 0;
#X connect 18 0 27 0;
#X connect 19 0 27 1;
#X connect 20 0 34 0;
#X connect 21 0 16 0;
#X connect 21 1 45 0;
#X connect 22 0 15 0;
#X connect 22 1 46 0;
#X connect 23 0 14 0;
#X connect 23 1 47 0;
#X connect 24 0 25 0;
#X connect 25 0 26 0;
#X connect 26 0 37 2;
#X connect 26 1 31 0;
#X connect 27 0 28 1;
#X connect 28 0 39 0;
#X connect 29 0 30 1;
#X connect 30 0 24 0;
#X connect 31 0 32 0;
#X connect 32 0 37 3;
#X connect 33 0 10 0;
#X connect 34 0 6 0;
#X connect 34 1 7 0;
#X connect 34 3 33 0;
#X connect 35 0 44 0;
#X connect 35 1 43 0;
#X connect 36 0 37 1;
#X connect 36 1 35 0;
#X connect 37 0 2 0;
#X connect 38 0 39 1;
#X connect 39 0 36 0;
#X connect 39 1 37 5;
#X connect 40 0 37 0;
#X connect 40 1 20 0;
#X connect 40 2 41 0;
#X connect 41 0 39 1;
#X connect 42 0 37 4;
#X connect 42 1 34 0;
#X connect 42 2 38 0;
#X connect 43 0 42 0;
#X connect 44 0 42 0;
#X connect 45 0 29 1;
#X connect 45 0 35 1;
#X connect 46 0 29 0;
#X connect 47 0 30 0;
#X connect 48 0 37 0;
#X connect 49 0 51 0;
#X connect 50 0 54 0;
#X connect 51 0 0 0;
#X connect 51 1 50 0;
#X connect 52 0 5 0;
#X connect 53 0 2 1;
#X connect 54 0 3 0;
#X connect 54 1 55 0;
#X connect 54 2 50 1;
#X connect 55 0 56 0;
