#N canvas 67 166 1013 465 10;
#X obj 188 244 unpack;
#X obj 296 76 iemguts/canvasdelete 1;
#X obj 296 53 receive \$1-delemb;
#X obj 65 72 receive \$1-lbang;
#X obj 188 122 iemguts/canvasposition 2;
#X obj 35 43 route mouseup done-popup;
#X obj 176 96 ctxfiles/deb 700;
#X obj 35 20 iemguts/receivecanvas 3;
#X obj 215 168 ctxfiles/m-interface \$1 3 136 87 4 128 79;
#X obj 65 95 del 100;
#X obj 53 197 receive pd-\$1-paint;
#X msg 53 220 \$3 \$4;
#X obj 53 243 s \$1-pixsize;
#X obj 188 293 list prepend x;
#X obj 221 268 list prepend y;
#X obj 188 319 s \$1-reintegrate;
#X obj 689 93 receive~ \$0n;
#X obj 689 24 receive \$1-dvstart;
#X msg 689 70 set \$1-myline;
#X obj 768 253 receive \$1-:size;
#X obj 689 169 -~;
#X obj 689 192 max~;
#X obj 689 245 *~;
#X obj 704 221 cyclone/lessthan~;
#X obj 803 164 receive \$1-xend;
#X obj 704 116 receive \$1-xstart;
#X obj 689 356 outlet~;
#X obj 704 139 t f b f;
#X obj 803 189 -;
#X obj 723 300 /;
#X obj 689 326 *~;
#X obj 723 277 swap 128;
#X obj 176 71 spigot;
#X obj 209 30 receive \$1-savestart;
#X obj 188 145 t l l l;
#X obj 240 145 s \$1-mypos;
#X obj 442 76 dv \$1 xszz;
#X obj 508 76 dv \$1 yszz;
#X obj 442 26 receive \$1-fitme;
#X obj 442 49 t b b;
#X obj 508 99 - 30;
#X msg 331 322 connect 1 0 0 0;
#X obj 331 345 iemguts/sendcanvas;
#X obj 556 230 receive \$1-cbee;
#X obj 556 253 s \$1-created1;
#X obj 331 297 em-init \$1 128 79;
#X obj 215 193 ctxfiles/c-move \$1 127 128 92 93 3 4 79 30 128;
#X connect 0 0 13 0;
#X connect 0 1 14 0;
#X connect 2 0 1 0;
#X connect 3 0 9 0;
#X connect 4 0 34 0;
#X connect 5 2 32 0;
#X connect 6 0 4 0;
#X connect 7 0 5 0;
#X connect 8 0 45 2;
#X connect 8 0 46 0;
#X connect 8 1 45 3;
#X connect 8 1 46 1;
#X connect 8 2 8 1;
#X connect 9 0 4 0;
#X connect 10 0 11 0;
#X connect 11 0 12 0;
#X connect 11 0 45 0;
#X connect 13 0 15 0;
#X connect 14 0 15 0;
#X connect 16 0 20 0;
#X connect 17 0 18 0;
#X connect 18 0 16 0;
#X connect 19 0 31 1;
#X connect 20 0 21 0;
#X connect 21 0 22 0;
#X connect 21 0 23 0;
#X connect 22 0 30 0;
#X connect 23 0 22 1;
#X connect 24 0 28 0;
#X connect 25 0 27 0;
#X connect 27 0 20 1;
#X connect 27 1 28 0;
#X connect 27 2 28 1;
#X connect 28 0 31 0;
#X connect 28 0 23 1;
#X connect 29 0 30 1;
#X connect 30 0 26 0;
#X connect 31 0 29 0;
#X connect 31 1 29 1;
#X connect 32 0 6 0;
#X connect 33 0 32 1;
#X connect 34 0 45 1;
#X connect 34 1 8 0;
#X connect 34 2 35 0;
#X connect 36 0 13 0;
#X connect 37 0 40 0;
#X connect 38 0 39 0;
#X connect 39 0 36 0;
#X connect 39 1 37 0;
#X connect 40 0 14 0;
#X connect 41 0 42 0;
#X connect 43 0 44 0;
#X connect 45 0 41 0;
