#N canvas 69 170 1013 364 10;
#X obj 296 76 iemguts/canvasdelete 1;
#X obj 296 53 receive \$1-delemb;
#X obj 201 26 receive \$1-lbang;
#X obj 188 124 iemguts/canvasposition 2;
#X obj 35 73 route mouseup done-popup;
#X obj 176 95 ctxfiles/deb 700;
#X obj 35 50 iemguts/receivecanvas 3;
#X obj 188 168 ctxfiles/m-interface \$1 3 136 87 4 128 79;
#X obj 188 244 unpack;
#X obj 188 191 ctxfiles/c-move \$1 127 128 92 93 3 4 79;
#X obj 201 49 del 100;
#X obj 486 211 receive pd-\$1-paint;
#X msg 486 234 \$3 \$4;
#X obj 486 257 s \$1-pixsize;
#X obj 188 293 list prepend x;
#X obj 221 268 list prepend y;
#X obj 188 319 s \$1-reintegrate;
#N canvas 775 269 450 398 init 1;
#X obj 170 24 inlet;
#X obj 263 59 inlet;
#X obj 200 107 unpack;
#X obj 200 209 /;
#X obj 233 209 /;
#X obj 200 84 list 128 79;
#X obj 215 159 dv \$1 xszz;
#X obj 248 182 dv \$1 yszz;
#X obj 200 133 +;
#X obj 233 133 +;
#X obj 244 107 unpack;
#X obj 200 334 s \$1-:x2;
#X obj 233 259 s \$1-:y2;
#X obj 170 49 t b b b a b b;
#X msg 69 164 connect 9 0 8 0;
#X obj 69 187 iemguts/sendcanvas 1;
#X obj 200 312 spigot 1;
#X obj 233 235 spigot 1;
#X obj 114 116 t f f f;
#X obj 69 141 spigot 1;
#X obj 200 356 v \$1-:x2-v;
#X obj 233 285 v \$1-:y2-v;
#X connect 0 0 13 0;
#X connect 1 0 5 1;
#X connect 2 0 8 0;
#X connect 2 1 9 0;
#X connect 3 0 16 0;
#X connect 3 0 20 0;
#X connect 4 0 17 0;
#X connect 4 0 21 0;
#X connect 5 0 2 0;
#X connect 6 0 3 1;
#X connect 7 0 4 1;
#X connect 8 0 3 0;
#X connect 9 0 4 0;
#X connect 10 0 8 1;
#X connect 10 1 9 1;
#X connect 13 0 18 0;
#X connect 13 1 19 0;
#X connect 13 2 5 0;
#X connect 13 3 10 0;
#X connect 13 4 6 0;
#X connect 13 5 7 0;
#X connect 14 0 15 0;
#X connect 16 0 11 0;
#X connect 17 0 12 0;
#X connect 18 0 19 1;
#X connect 18 1 16 1;
#X connect 18 2 17 1;
#X connect 19 0 14 0;
#X restore 436 257 pd init;
#X obj 689 93 receive~ \$0n;
#X obj 689 24 receive \$1-dvstart;
#X msg 689 70 set \$1-myline;
#X obj 689 47 t f b;
#X obj 802 41 receive \$1-:size;
#X obj 786 71 f 128;
#X obj 786 95 / 44100;
#X obj 689 253 *~;
#X obj 689 139 -~;
#X obj 689 162 max~;
#X obj 689 215 *~;
#X obj 704 191 cyclone/lessthan~;
#X obj 803 166 receive \$1-xend;
#X obj 718 116 receive \$1-xstart;
#X obj 689 276 outlet~;
#X connect 1 0 0 0;
#X connect 2 0 10 0;
#X connect 3 0 7 0;
#X connect 3 0 17 0;
#X connect 4 2 5 0;
#X connect 5 0 3 0;
#X connect 6 0 4 0;
#X connect 7 0 9 0;
#X connect 7 1 9 1;
#X connect 8 0 14 0;
#X connect 8 1 15 0;
#X connect 10 0 3 0;
#X connect 11 0 12 0;
#X connect 12 0 13 0;
#X connect 12 0 17 1;
#X connect 14 0 16 0;
#X connect 15 0 16 0;
#X connect 18 0 26 0;
#X connect 19 0 21 0;
#X connect 20 0 18 0;
#X connect 21 0 20 0;
#X connect 21 1 23 0;
#X connect 22 0 24 0;
#X connect 23 0 24 0;
#X connect 24 0 25 1;
#X connect 25 0 32 0;
#X connect 26 0 27 0;
#X connect 27 0 28 0;
#X connect 27 0 29 0;
#X connect 28 0 25 0;
#X connect 29 0 28 1;
#X connect 30 0 29 1;
#X connect 31 0 26 1;
