#N canvas 395 244 666 364 10;
#X obj 296 76 iemguts/canvasdelete 1;
#X obj 296 53 receive \$1-delemb;
#X obj 201 26 receive \$1-lbang;
#X obj 188 124 iemguts/canvasposition 2;
#X obj 35 73 route mouseup done-popup;
#X obj 176 95 ctxfiles/deb 700;
#X obj 35 50 iemguts/receivecanvas 3;
#X obj 188 168 ctxfiles/m-interface \$1 3 136 87 4 128 79;
#X obj 188 244 unpack;
#X obj 188 191 ctxfiles/c-move \$1 127 128 92 93 3 4 79;
#X obj 201 49 del 100;
#X obj 486 211 receive pd-\$1-paint;
#X msg 486 234 \$3 \$4;
#X obj 486 257 s \$1-pixsize;
#X obj 188 293 list prepend x;
#X obj 221 268 list prepend y;
#X obj 188 319 s \$1-reintegrate;
#N canvas 974 269 450 328 init 1;
#X obj 170 24 inlet;
#X obj 263 59 inlet;
#X obj 56 107 iemguts/canvasdelete 1;
#X obj 200 107 unpack;
#X obj 200 209 /;
#X obj 233 209 /;
#X obj 200 84 list 128 79;
#X obj 215 159 dv \$1 xszz;
#X obj 248 182 dv \$1 yszz;
#X obj 200 133 +;
#X obj 233 133 +;
#X obj 244 107 unpack;
#X obj 200 254 s \$1-:x2;
#X obj 233 232 s \$1-:y2;
#X obj 170 49 t b b b a b b;
#X msg 69 164 connect 9 0 8 0;
#X obj 69 187 iemguts/sendcanvas 1;
#X connect 0 0 14 0;
#X connect 1 0 6 1;
#X connect 3 0 9 0;
#X connect 3 1 10 0;
#X connect 4 0 12 0;
#X connect 5 0 13 0;
#X connect 6 0 3 0;
#X connect 7 0 4 1;
#X connect 8 0 5 1;
#X connect 9 0 4 0;
#X connect 10 0 5 0;
#X connect 11 0 9 1;
#X connect 11 1 10 1;
#X connect 14 0 2 0;
#X connect 14 1 15 0;
#X connect 14 2 6 0;
#X connect 14 3 11 0;
#X connect 14 4 7 0;
#X connect 14 5 8 0;
#X connect 15 0 16 0;
#X restore 436 257 pd init;
#X connect 1 0 0 0;
#X connect 2 0 10 0;
#X connect 3 0 7 0;
#X connect 3 0 17 0;
#X connect 4 2 5 0;
#X connect 5 0 3 0;
#X connect 6 0 4 0;
#X connect 7 0 9 0;
#X connect 7 1 9 1;
#X connect 8 0 14 0;
#X connect 8 1 15 0;
#X connect 10 0 3 0;
#X connect 11 0 12 0;
#X connect 12 0 13 0;
#X connect 12 0 17 1;
#X connect 14 0 16 0;
#X connect 15 0 16 0;
