#N canvas 67 89 450 300 10;
#X obj 132 51 receive \$1-cemb-lb;
#X obj 132 106 print lb;
#X obj 296 53 receive \$1-delemb;
#X obj 296 76 iemguts/canvasdelete 1;
#X obj 132 76 ctxfiles/dvi \$0 4 inlet;
#X obj 262 165 receive \$0-dvstart;
#X obj 262 188 print st;
#X connect 0 0 4 0;
#X connect 2 0 3 0;
#X connect 4 0 1 0;
#X connect 5 0 6 0;
