#N canvas 562 393 666 298 10;
#X obj 296 76 iemguts/canvasdelete 1;
#X obj 132 76 ctxfiles/dvi \$0 4 inlet;
#X obj 296 53 receive \$1-delemb;
#X obj 146 101 receive \$1-cbee;
#X obj 132 51 receive \$1-lbang;
#X obj 146 126 f 1;
#X obj 113 150 spigot;
#X obj 113 173 iemguts/canvasposition 2;
#X obj 113 220 ctxfiles/c-move \$0 47 48 35 36;
#X obj -100 104 route mouseup done-popup;
#X obj 41 126 ctxfiles/deb 700;
#X obj -100 81 iemguts/receivecanvas 3;
#X text 133 259 ctxfiles/m-interface \$0 3 56 30 3 48 22;
#X obj 113 197 ctxfiles/m-interface \$0 3 136 87 4 128 79;
#X connect 2 0 0 0;
#X connect 3 0 5 0;
#X connect 4 0 1 0;
#X connect 4 0 6 0;
#X connect 5 0 6 1;
#X connect 6 0 7 0;
#X connect 7 0 13 0;
#X connect 9 2 10 0;
#X connect 10 0 7 0;
#X connect 11 0 9 0;
#X connect 13 0 8 0;
#X connect 13 1 8 1;
#X connect 13 2 13 1;
