#N canvas 186 393 666 298 10;
#X obj 296 76 iemguts/canvasdelete 1;
#X obj 296 53 receive \$1-delemb;
#X obj 146 101 receive \$1-cbee;
#X obj 113 78 receive \$1-lbang;
#X obj 146 126 f 1;
#X obj 113 150 spigot;
#X obj 113 173 iemguts/canvasposition 2;
#X obj -100 104 route mouseup done-popup;
#X obj 41 126 ctxfiles/deb 700;
#X obj -100 81 iemguts/receivecanvas 3;
#X text 133 259 ctxfiles/m-interface \$0 3 56 30 3 48 22;
#X obj 113 197 ctxfiles/m-interface \$1 3 136 87 4 128 79;
#X obj 113 220 ctxfiles/c-move \$1 127 128 92 93 3 4;
#X connect 1 0 0 0;
#X connect 2 0 4 0;
#X connect 3 0 5 0;
#X connect 4 0 5 1;
#X connect 5 0 6 0;
#X connect 6 0 11 0;
#X connect 7 2 8 0;
#X connect 8 0 6 0;
#X connect 9 0 7 0;
#X connect 11 0 12 0;
#X connect 11 1 12 1;
