#N canvas 67 203 1013 465 10;
#X obj 296 76 iemguts/canvasdelete 1;
#X obj 296 53 receive \$1-delemb;
#X obj 201 26 receive \$1-lbang;
#X obj 188 122 iemguts/canvasposition 2;
#X obj 35 73 route mouseup done-popup;
#X obj 176 95 ctxfiles/deb 700;
#X obj 35 50 iemguts/receivecanvas 3;
#X obj 215 168 ctxfiles/m-interface \$1 3 136 87 4 128 79;
#X obj 188 244 unpack;
#X obj 215 191 ctxfiles/c-move \$1 127 128 92 93 3 4 79;
#X obj 201 49 del 100;
#X obj 53 197 receive pd-\$1-paint;
#X msg 53 220 \$3 \$4;
#X obj 53 243 s \$1-pixsize;
#X obj 188 293 list prepend x;
#X obj 221 268 list prepend y;
#X obj 188 319 s \$1-reintegrate;
#N canvas 67 89 629 556 init 1;
#X obj 178 33 inlet;
#X obj 121 32 inlet;
#X obj 257 87 unpack;
#X obj 200 350 /;
#X obj 233 350 /;
#X obj 215 300 dv \$1 xszz;
#X obj 248 325 dv \$1 yszz;
#X msg 69 164 connect 9 0 8 0;
#X obj 69 187 iemguts/sendcanvas 1;
#X obj 69 141 spigot 1;
#X obj 200 524 v \$1-:x2-v;
#X obj 233 457 v \$1-:y2-v;
#X obj 233 403 demux;
#X obj 200 434 demux;
#X obj 305 349 f 1;
#X obj 260 427 v \$1-:y1-v;
#X obj 227 492 v \$1-:x1-v;
#X obj 178 89 unpack;
#X obj 274 161 t l b f b;
#X obj 274 184 +;
#X obj 269 349 t f;
#X obj 200 161 t l b f b;
#X obj 200 184 +;
#X obj 227 246 t f;
#X obj 254 246 f 1;
#X obj 14 222 spigot 1;
#X obj 114 116 t f f b;
#X msg 53 270 symbol x1 \, symbol x2 \, symbol y1 \, symbol y2, f
22;
#X obj 53 310 makefilename \$1-:%s;
#X obj 53 333 t b s s;
#X obj 53 450 send;
#X obj 72 358 makefilename %s-v;
#X obj 53 380 value;
#X msg 53 426 % \$1;
#X obj 53 403 * 100;
#X obj 387 10 inlet type;
#X obj 312 11 inlet pos;
#X obj 312 34 demux 0 1 2 3;
#X obj 200 138 pack f 128;
#X obj 274 138 pack f 90;
#X obj 178 58 t b b a b b;
#X obj 359 237 dvr \$1 realdelay;
#X obj 200 408 * 1;
#X obj 233 373 * 1;
#X obj 359 260 demux;
#X obj 344 283 f;
#X obj 344 306 t f f;
#X obj 14 245 t b b b;
#X obj 349 214 f 1;
#X connect 0 0 40 0;
#X connect 1 0 2 0;
#X connect 2 0 38 1;
#X connect 2 1 39 1;
#X connect 3 0 42 0;
#X connect 4 0 43 0;
#X connect 5 0 3 1;
#X connect 6 0 4 1;
#X connect 7 0 8 0;
#X connect 9 0 7 0;
#X connect 12 0 11 0;
#X connect 12 1 15 0;
#X connect 13 0 10 0;
#X connect 13 1 16 0;
#X connect 14 0 12 1;
#X connect 17 0 38 0;
#X connect 17 1 39 0;
#X connect 18 0 19 0;
#X connect 18 1 20 0;
#X connect 18 2 4 0;
#X connect 18 3 14 0;
#X connect 19 0 4 0;
#X connect 20 0 12 1;
#X connect 21 0 22 0;
#X connect 21 1 23 0;
#X connect 21 2 3 0;
#X connect 21 3 24 0;
#X connect 22 0 3 0;
#X connect 23 0 13 1;
#X connect 24 0 13 1;
#X connect 25 0 47 0;
#X connect 26 0 9 1;
#X connect 26 1 25 1;
#X connect 26 2 25 0;
#X connect 27 0 28 0;
#X connect 28 0 29 0;
#X connect 29 0 32 0;
#X connect 29 1 31 0;
#X connect 29 2 30 1;
#X connect 31 0 32 1;
#X connect 32 0 34 0;
#X connect 33 0 30 0;
#X connect 34 0 33 0;
#X connect 35 0 37 1;
#X connect 36 0 37 0;
#X connect 37 0 38 0;
#X connect 37 1 39 0;
#X connect 38 0 21 0;
#X connect 39 0 18 0;
#X connect 40 0 26 0;
#X connect 40 1 9 0;
#X connect 40 2 17 0;
#X connect 40 3 5 0;
#X connect 40 4 6 0;
#X connect 41 0 44 0;
#X connect 42 0 13 0;
#X connect 43 0 12 0;
#X connect 44 0 45 1;
#X connect 44 1 46 0;
#X connect 45 0 46 0;
#X connect 46 0 42 1;
#X connect 46 1 43 1;
#X connect 47 0 48 0;
#X connect 47 1 45 0;
#X connect 47 2 27 0;
#X connect 48 0 44 1;
#X restore 297 214 pd init;
#X obj 689 93 receive~ \$0n;
#X obj 689 24 receive \$1-dvstart;
#X msg 689 70 set \$1-myline;
#X obj 768 253 receive \$1-:size;
#X obj 689 169 -~;
#X obj 689 192 max~;
#X obj 689 245 *~;
#X obj 704 221 cyclone/lessthan~;
#X obj 803 164 receive \$1-xend;
#X obj 704 116 receive \$1-xstart;
#X obj 689 356 outlet~;
#X obj 188 145 t l l;
#X obj 704 139 t f b f;
#X obj 803 189 -;
#X obj 723 300 /;
#X obj 689 326 *~;
#X obj 723 277 swap 128;
#X connect 1 0 0 0;
#X connect 2 0 10 0;
#X connect 3 0 29 0;
#X connect 4 2 5 0;
#X connect 5 0 3 0;
#X connect 6 0 4 0;
#X connect 7 0 9 0;
#X connect 7 0 17 2;
#X connect 7 1 9 1;
#X connect 7 1 17 3;
#X connect 8 0 14 0;
#X connect 8 1 15 0;
#X connect 9 0 8 0;
#X connect 10 0 3 0;
#X connect 11 0 12 0;
#X connect 12 0 13 0;
#X connect 12 0 17 0;
#X connect 14 0 16 0;
#X connect 15 0 16 0;
#X connect 18 0 22 0;
#X connect 19 0 20 0;
#X connect 20 0 18 0;
#X connect 21 0 34 1;
#X connect 22 0 23 0;
#X connect 23 0 24 0;
#X connect 23 0 25 0;
#X connect 24 0 33 0;
#X connect 25 0 24 1;
#X connect 26 0 31 0;
#X connect 27 0 30 0;
#X connect 29 0 17 1;
#X connect 29 1 7 0;
#X connect 30 0 22 1;
#X connect 30 1 31 0;
#X connect 30 2 31 1;
#X connect 31 0 34 0;
#X connect 31 0 25 1;
#X connect 32 0 33 1;
#X connect 33 0 28 0;
#X connect 34 0 32 0;
#X connect 34 1 32 1;
