#N canvas 345 232 450 443 10;
#X declare -path ../;
#X obj 165 143 list append;
#X obj 45 179 list-abs/list-filter;
#X obj 206 179 !=;
#X obj 165 218 t a a;
#X obj 197 242 list length;
#X msg 236 286 resize \$1;
#X obj 291 182 print \$1;
#X obj 188 95 route 0;
#X obj 291 116 receive ctx-names;
#X obj 291 138 t b;
#X obj 291 160 array get \$1stor;
#X obj 45 95 array get \$1stor;
#X obj 165 365 array set \$1stor;
#X obj 188 73 array get \$1stor;
#X obj 236 308 array define \$1stor 1;
#X obj 165 7 receive \$1storbb^s0;
#X obj 45 31 receive \$1storbb^s1;
#X obj 98 288 route bang;
#X obj 98 310 t f;
#X obj 363 63 bng 15 250 50 0 empty empty empty 17 7 0 10 -262144 -1
-1;
#X obj 188 117 t b;
#X obj 20 216 receive crview;
#X msg 20 238 vis 1;
#X obj 20 260 iemguts/sendcanvas;
#X obj 197 264 sel -1;
#X obj 197 330 iemguts/canvasdelete 1;
#X obj 165 51 t f b b;
#X obj 45 61 t b f b;
#X obj 236 179 f -1;
#X obj 91 141 t f;
#X obj 165 29 sel 0;
#X obj 295 217 declare -path ../;
#X obj 165 407 shared cr \$1;
#X connect 0 0 3 0;
#X connect 1 0 3 0;
#X connect 1 1 2 0;
#X connect 2 0 1 1;
#X connect 3 0 17 0;
#X connect 3 1 4 0;
#X connect 4 0 24 0;
#X connect 5 0 14 0;
#X connect 7 0 20 0;
#X connect 7 1 0 1;
#X connect 8 0 9 0;
#X connect 9 0 10 0;
#X connect 10 0 6 0;
#X connect 11 0 1 0;
#X connect 13 0 7 0;
#X connect 15 0 30 0;
#X connect 16 0 27 0;
#X connect 17 0 18 0;
#X connect 17 1 12 0;
#X connect 18 0 12 0;
#X connect 19 0 9 0;
#X connect 20 0 0 1;
#X connect 21 0 22 0;
#X connect 22 0 23 0;
#X connect 24 0 25 0;
#X connect 24 1 5 0;
#X connect 26 0 0 0;
#X connect 26 1 13 0;
#X connect 26 2 28 0;
#X connect 27 0 11 0;
#X connect 27 1 2 1;
#X connect 27 2 29 0;
#X connect 28 0 24 1;
#X connect 29 0 24 1;
#X connect 30 1 26 0;
