#N canvas 613 313 450 365 10;
#X obj 165 143 list append;
#X obj 45 179 list-abs/list-filter;
#X obj 206 179 !=;
#X obj 165 218 t a a;
#X obj 197 242 list length;
#X msg 197 266 resize \$1;
#X obj 165 51 t f b;
#X obj 45 61 t b f;
#X obj 291 182 print \$1;
#X obj 197 95 route 0;
#X obj 291 116 receive ctx-names;
#X obj 291 138 t b;
#X obj 294 317 shared ctxfiles/cr \$1;
#X obj 291 160 array get \$1stor;
#X obj 45 95 array get \$1stor;
#X obj 165 335 array set \$1stor;
#X obj 197 73 array get \$1stor;
#X obj 197 288 array define \$1stor 1;
#X obj 165 11 receive \$1storbb^s0;
#X obj 45 31 receive \$1storbb^s1;
#X obj 306 211 receive cropen;
#X msg 306 233 vis 1;
#X obj 306 255 iemguts/sendcanvas;
#X obj 98 288 route bang;
#X obj 98 310 t f;
#X obj 363 63 bng 15 250 50 0 empty empty empty 17 7 0 10 -262144 -1
-1;
#X obj 197 117 t b;
#X connect 0 0 3 0;
#X connect 1 0 3 0;
#X connect 1 1 2 0;
#X connect 2 0 1 1;
#X connect 3 0 23 0;
#X connect 3 1 4 0;
#X connect 4 0 5 0;
#X connect 5 0 17 0;
#X connect 6 0 0 0;
#X connect 6 1 16 0;
#X connect 7 0 14 0;
#X connect 7 1 2 1;
#X connect 9 0 26 0;
#X connect 9 1 0 1;
#X connect 10 0 11 0;
#X connect 11 0 13 0;
#X connect 13 0 8 0;
#X connect 14 0 1 0;
#X connect 16 0 9 0;
#X connect 18 0 6 0;
#X connect 19 0 7 0;
#X connect 20 0 21 0;
#X connect 21 0 22 0;
#X connect 23 0 24 0;
#X connect 23 1 15 0;
#X connect 24 0 15 0;
#X connect 25 0 11 0;
#X connect 26 0 0 1;
