#N canvas 383 287 450 365 10;
#X obj 165 127 list append;
#X obj 85 179 list-abs/list-filter;
#X obj 216 179 !=;
#X obj 165 218 t a a;
#X obj 192 242 list length;
#X msg 192 266 resize \$1;
#X obj 165 51 t f b;
#X obj 85 61 t b f;
#X obj 291 182 print \$1;
#X obj 192 95 route 0;
#X obj 291 116 receive ctx-names;
#X obj 291 138 t b;
#X obj 85 95 array get \$1;
#X obj 192 73 array get \$1;
#X obj 291 160 array get \$1;
#X obj 192 288 array define \$1 1;
#X obj 165 335 array set \$1;
#X obj 165 11 receive \$1bb^s0;
#X obj 85 31 receive \$1bb^s1;
#X connect 0 0 3 0;
#X connect 1 0 3 0;
#X connect 1 1 2 0;
#X connect 2 0 1 1;
#X connect 3 0 16 0;
#X connect 3 1 4 0;
#X connect 4 0 5 0;
#X connect 5 0 15 0;
#X connect 6 0 0 0;
#X connect 6 1 13 0;
#X connect 7 0 12 0;
#X connect 7 1 2 1;
#X connect 9 1 0 1;
#X connect 10 0 11 0;
#X connect 11 0 14 0;
#X connect 12 0 1 0;
#X connect 13 0 9 0;
#X connect 14 0 8 0;
#X connect 17 0 6 0;
#X connect 18 0 7 0;
