#N canvas 708 149 450 375 10;
#X obj 147 55 loadbang;
#X obj 147 78 f \$1;
#X obj 147 101 + 1;
#X obj 147 124 t b f;
#X obj 147 147 t f;
#X obj 147 170 text get control-layout^^& 0 1;
#X obj 147 193 makefilename %d-ctl((();
#X obj 147 216 iemguts/oreceive \$0n;
#X obj 147 242 outlet;
#X connect 0 0 1 0;
#X connect 1 0 2 0;
#X connect 2 0 3 0;
#X connect 3 0 4 0;
#X connect 3 1 5 1;
#X connect 4 0 5 0;
#X connect 5 0 6 0;
#X connect 6 0 7 0;
#X connect 7 0 8 0;
