#N canvas 426 149 450 375 10;
#X obj 147 55 loadbang;
#X obj 147 78 f \$1;
#X obj 147 101 + 1;
#X obj 147 220 text get control-layout^^& 0 1;
#X obj 147 243 makefilename %d-ctl((();
#X obj 147 266 iemguts/oreceive \$0n;
#X obj 147 292 outlet;
#X obj 147 124 t b f f;
#X obj 147 197 f;
#X obj 186 172 * 9;
#X obj 206 197 -;
#X obj 186 149 > 8;
#X obj 221 173 * 8;
#X connect 0 0 1 0;
#X connect 1 0 2 0;
#X connect 2 0 7 0;
#X connect 3 0 4 0;
#X connect 4 0 5 0;
#X connect 5 0 6 0;
#X connect 7 0 8 0;
#X connect 7 1 10 0;
#X connect 7 2 11 0;
#X connect 8 0 3 0;
#X connect 9 0 8 1;
#X connect 10 0 3 1;
#X connect 11 0 9 0;
#X connect 11 0 12 0;
#X connect 12 0 10 1;
