#N canvas 67 89 620 528 10;
#X obj 264 6 loadbang;
#X obj 264 29 f \$1;
#X obj 264 52 t f f;
#X text 208 82 x =;
#X text 269 82 y =;
#X obj 270 130 pack;
#X obj 270 176 iemguts/oreceive \$0-n;
#X obj 230 105 + 1;
#X obj 291 105 + 1;
#X msg 270 153 symbol \$1-\$2-buff^&*;
#X obj 324 311 *;
#X obj 270 199 unpack f f f f;
#X obj 351 223 t f f;
#X obj 324 334 t f f;
#X obj 270 391 spigot;
#X obj 324 286 t f f;
#X obj 230 82 mod 9;
#X obj 291 82 div 9;
#X obj 270 498 s cellbuff*u(i-1;
#X obj 270 424 text get control-layout^^& 1 1;
#X obj 270 465 pack f f f;
#X text 130 500 cell \, colour \, channel;
#X obj 393 313 inlet;
#X obj 330 359 !=;
#X obj 351 246 * 1280;
#X text 134 199 y \, x \, col (v) \, channel;
#X connect 0 0 1 0;
#X connect 1 0 2 0;
#X connect 2 0 16 0;
#X connect 2 1 17 0;
#X connect 5 0 9 0;
#X connect 6 0 11 0;
#X connect 7 0 5 0;
#X connect 8 0 5 1;
#X connect 9 0 6 0;
#X connect 10 0 13 0;
#X connect 11 0 14 0;
#X connect 11 1 19 1;
#X connect 11 2 15 0;
#X connect 11 3 12 0;
#X connect 12 0 24 0;
#X connect 12 1 20 2;
#X connect 13 0 23 1;
#X connect 13 1 23 0;
#X connect 14 0 19 0;
#X connect 15 0 10 0;
#X connect 15 1 20 1;
#X connect 16 0 7 0;
#X connect 17 0 8 0;
#X connect 19 0 20 0;
#X connect 20 0 18 0;
#X connect 22 0 23 1;
#X connect 23 0 14 1;
#X connect 24 0 10 1;
