#N canvas 219 149 620 528 10;
#X obj 264 6 loadbang;
#X obj 264 29 f \$1;
#X obj 264 52 t f f;
#X text 208 82 x =;
#X text 269 82 y =;
#X obj 270 130 pack;
#X obj 270 176 iemguts/oreceive \$0-n;
#X obj 230 105 + 1;
#X obj 291 105 + 1;
#X msg 270 153 symbol \$1-\$2-buff^&*;
#X obj 324 271 *;
#X obj 270 199 unpack f f f f;
#X obj 351 223 t f f;
#X obj 270 375 pack f f f f;
#X obj 324 294 t f f;
#X obj 270 351 spigot;
#X obj 270 398 s cellbuff*u(i;
#X obj 324 246 t f f;
#X text 134 199 x \, y \, col (v) \, channel;
#X obj 330 319 != 0.356709;
#X obj 230 82 mod 9;
#X obj 291 82 div 9;
#X connect 0 0 1 0;
#X connect 1 0 2 0;
#X connect 2 0 20 0;
#X connect 2 1 21 0;
#X connect 5 0 9 0;
#X connect 6 0 11 0;
#X connect 7 0 5 0;
#X connect 8 0 5 1;
#X connect 9 0 6 0;
#X connect 10 0 14 0;
#X connect 11 0 15 0;
#X connect 11 1 13 1;
#X connect 11 2 17 0;
#X connect 11 3 12 0;
#X connect 12 0 10 1;
#X connect 12 1 13 3;
#X connect 13 0 16 0;
#X connect 14 0 19 1;
#X connect 14 1 19 0;
#X connect 15 0 13 0;
#X connect 17 0 10 0;
#X connect 17 1 13 2;
#X connect 19 0 15 1;
#X connect 20 0 7 0;
#X connect 21 0 8 0;
