#N canvas 714 433 536 300 10;
#X obj 186 31 inlet;
#X obj 186 75 f \$2;
#X obj 186 97 s \$1-cuc;
#X obj 64 31 receive \$1-\$2-cur;
#X obj 186 53 t b f;
#X obj 64 201 \$3;
#X obj 83 86 cyclone/iter;
#X obj 64 53 t b a b;
#X obj 83 108 route float;
#X obj 83 130 +;
#X obj 64 177 f;
#X obj 83 152 t f f;
#X obj 64 223 s \$1-cchek;
#X text 250 60 6.1 direct the input to this abstraction;
#X text 1 87 7.1 sum input;
#X text -72 224 7.2 compare and report;
#X connect 0 0 4 0;
#X connect 1 0 2 0;
#X connect 3 0 7 0;
#X connect 4 0 1 0;
#X connect 4 1 5 1;
#X connect 5 0 12 0;
#X connect 6 0 8 0;
#X connect 7 0 10 0;
#X connect 7 1 6 0;
#X connect 7 2 11 0;
#X connect 8 0 9 0;
#X connect 9 0 11 0;
#X connect 10 0 5 0;
#X connect 11 0 10 1;
#X connect 11 1 9 1;
