#N canvas 503 216 514 388 10;
#X declare -path ../;
#X obj 179 105 array define %&nou;
#N canvas 707 242 430 174 ^&*-dsmall1 0;
#X text 336 48 0 -5 \; 0 5 \; 10 5 \; 10 -5;
#X obj 35 63 filledcurve 65 1 1 -5 -5 -5 5 5 5 5 -5;
#X obj 32 27 struct ^&*-dsmall1 float x float y symbol onoff;
#X obj 51 113 drawsymbol onoff -3 -6;
#X restore 114 168 pd ^&*-dsmall1;
#N canvas 223 512 430 142 ^&*-dsmall2 0;
#X obj 35 62 filledcurve 20 1 1 -5 -5 -5 5 5 5 5 -5;
#X obj 32 26 struct ^&*-dsmall2 float x float y symbol onoff;
#X obj 51 113 drawsymbol onoff -3 -6 999;
#X restore 218 168 pd ^&*-dsmall2;
#X msg 44 108 read pascal.txt;
#X obj 44 132 text define £"pascal);
#X obj 44 84 iemguts/initbang;
#X msg 17 210 read chelp.txt;
#X obj 17 234 text define £""-help;
#X obj 220 205 receive £""-help;
#X msg 220 229 line 0 \, bang;
#X obj 220 253 text sequence £""-help;
#X obj 220 277 route bang;
#X obj 220 325 print -n;
#X msg 220 301  ;
#X obj 287 300 list trim;
#X obj 222 50 shared ctxfiles/cushare 0;
#N canvas 248 189 550 235 commands 0;
#X obj 169 66 t b a;
#X obj 92 108 cyclone/zl iter 1;
#X obj 237 110 ctxfiles/recompile \$0;
#X obj 169 42 receive *ujK9)erD;
#N canvas 67 89 450 300 identify 0;
#X obj 28 22 inlet;
#X obj 28 47 route x :x y :y size :size y1 :y1 y2 :y2 point1 points
point end :point1 point2 bpoints bpoint curve :point2 name :name color
colour :color speed :speed time :time duplicate :duplicate mirror-x
:mirror-x mirror-y :mirror-y scale :scale ec :ec name2 :name2 lock
:lock savelist help loadproperties;
#X obj 28 147 gtfs \$0 1 x 128;
#X obj 58 167 gtfs \$0 2 y 79;
#X obj 88 187 gtfs \$0 3 size 128;
#X obj 118 207 gtfs \$0 4 y1;
#X obj 148 227 gtfs \$0 5 y2;
#X obj 178 247 gtfs \$0 6 point1 bang;
#X obj 208 267 gtfs \$0 7 point2 bang;
#X obj 238 287 gtfs \$0 8 name bang;
#X obj 268 307 gtfs \$0 9 color -232534;
#X obj 298 327 gtfs \$0 10 speed 10;
#X obj 328 347 gtfs \$0 11 time 1000;
#X obj 358 367 gtfs \$0 12 duplicate 0;
#X obj 388 387 gtfs \$0 13 mirror-x 0;
#X obj 418 407 gtfs \$0 14 mirror-y 0;
#X obj 448 427 gtfs \$0 15 scale 1;
#X obj 478 447 gtfs \$0 16 ec 0;
#X obj 508 467 gtfs \$0 17 name2 0;
#X obj 538 487 gtfs \$0 18 lock 0;
#X obj 568 507 tf \$0 19;
#X obj 598 527 tf \$0 20;
#X obj 628 547 tf \$0 21;
#X obj 658 567 s \$0-othr;
#X connect 0 0 1 0;
#X connect 1 0 2 0;
#X connect 1 1 2 0;
#X connect 1 2 3 0;
#X connect 1 3 3 0;
#X connect 1 4 4 0;
#X connect 1 5 4 0;
#X connect 1 6 5 0;
#X connect 1 7 5 0;
#X connect 1 8 6 0;
#X connect 1 9 6 0;
#X connect 1 10 7 0;
#X connect 1 11 7 0;
#X connect 1 12 7 0;
#X connect 1 13 7 0;
#X connect 1 14 7 0;
#X connect 1 15 8 0;
#X connect 1 16 8 0;
#X connect 1 17 8 0;
#X connect 1 18 8 0;
#X connect 1 19 8 0;
#X connect 1 20 9 0;
#X connect 1 21 9 0;
#X connect 1 22 10 0;
#X connect 1 23 10 0;
#X connect 1 24 10 0;
#X connect 1 25 11 0;
#X connect 1 26 11 0;
#X connect 1 27 12 0;
#X connect 1 28 12 0;
#X connect 1 29 13 0;
#X connect 1 30 13 0;
#X connect 1 31 14 0;
#X connect 1 32 14 0;
#X connect 1 33 15 0;
#X connect 1 34 15 0;
#X connect 1 35 16 0;
#X connect 1 36 16 0;
#X connect 1 37 17 0;
#X connect 1 38 17 0;
#X connect 1 39 18 0;
#X connect 1 40 18 0;
#X connect 1 41 19 0;
#X connect 1 42 19 0;
#X connect 1 43 20 0;
#X connect 1 44 21 0;
#X connect 1 45 22 0;
#X connect 1 46 23 0;
#X restore 92 133 pd identify;
#N canvas 67 89 450 300 distribute 0;
#X obj 19 46 inlet;
#X obj 19 69 demux #f #f #f #f #f #f #f #f #f #f #f #f #f #f #f #f
#f #f #f #f #f #f;
#X obj 370 46 inlet;
#X obj 49 169 gs :x;
#X obj 79 189 gs :y;
#X obj 109 209 gs :size;
#X obj 139 229 gs :y1;
#X obj 169 249 gs :y2;
#X obj 199 269 gs :point1;
#X obj 229 289 gs :point2;
#X obj 259 309 gs :name;
#X obj 289 329 gs :color;
#X obj 319 349 gs :speed;
#X obj 349 369 gs :time;
#X obj 379 389 gs :duplicate;
#X obj 409 409 gs :mirror-x;
#X obj 439 429 gs :mirror-y;
#X obj 469 449 gs :scale;
#X obj 499 469 gs :ec;
#X obj 529 489 gs :name2;
#X obj 559 509 gs :lock;
#X obj 589 529 gs savelist;
#X obj 619 549 s £""-help;
#X obj 649 569 gs propload;
#X connect 0 0 1 0;
#X connect 1 1 3 0;
#X connect 1 2 4 0;
#X connect 1 3 5 0;
#X connect 1 4 6 0;
#X connect 1 5 7 0;
#X connect 1 6 8 0;
#X connect 1 7 9 0;
#X connect 1 8 10 0;
#X connect 1 9 11 0;
#X connect 1 10 12 0;
#X connect 1 11 13 0;
#X connect 1 12 14 0;
#X connect 1 13 15 0;
#X connect 1 14 16 0;
#X connect 1 15 17 0;
#X connect 1 16 18 0;
#X connect 1 17 19 0;
#X connect 1 18 20 0;
#X connect 1 19 21 0;
#X connect 1 20 22 0;
#X connect 1 21 23 0;
#X connect 2 0 1 1;
#X restore 237 135 pd distribute;
#X connect 0 0 2 0;
#X connect 0 1 1 0;
#X connect 1 0 4 0;
#X connect 2 0 5 0;
#X connect 2 1 5 1;
#X connect 3 0 0 0;
#X restore 388 148 pd commands;
#X msg 401 271 vis 1;
#X obj 401 293 iemguts/sendcanvas;
#N canvas 613 261 450 300 key 0;
#X obj 113 43 keyname;
#X obj 159 175 t f;
#X obj 159 202 change;
#X obj 191 128 f 1;
#X obj 159 76 sel Up Down Left Right;
#X obj 159 224 s r%gJN3-x;
#X obj 159 103 t b b;
#X obj 234 103 t b b;
#X obj 266 128 f 2;
#X obj 159 153 del 3000;
#X connect 0 1 4 0;
#X connect 1 0 2 0;
#X connect 2 0 5 0;
#X connect 3 0 2 0;
#X connect 4 0 6 0;
#X connect 4 1 6 0;
#X connect 4 2 7 0;
#X connect 4 3 7 0;
#X connect 6 0 9 0;
#X connect 6 1 3 0;
#X connect 7 0 9 0;
#X connect 7 1 8 0;
#X connect 8 0 2 0;
#X connect 9 0 1 0;
#X restore 389 176 pd key;
#X obj 401 249 receive cushare;
#X obj 222 74 declare -path ../;
#X connect 3 0 4 0;
#X connect 5 0 3 0;
#X connect 5 0 6 0;
#X connect 6 0 7 0;
#X connect 8 0 9 0;
#X connect 9 0 10 0;
#X connect 10 0 11 0;
#X connect 11 0 13 0;
#X connect 11 1 14 0;
#X connect 13 0 12 0;
#X connect 14 0 12 0;
#X connect 17 0 18 0;
#X connect 20 0 17 0;
