#N canvas 690 93 514 388 10;
#X obj 179 105 array define %&nou;
#N canvas 178 316 430 142 ^&*-dsmall1 0;
#X obj 35 62 filledcurve 65 1 1 0 -5 0 5 10 5 10 -5;
#X obj 32 27 struct ^&*-dsmall1 float x float y;
#X restore 114 168 pd ^&*-dsmall1;
#N canvas 178 316 430 142 ^&*-dsmall2 0;
#X obj 35 62 filledcurve 20 1 1 0 -5 0 5 10 5 10 -5;
#X obj 32 26 struct ^&*-dsmall2 float x float y;
#X restore 218 168 pd ^&*-dsmall2;
#X msg 44 108 read pascal.txt;
#X obj 44 132 text define £"pascal);
#X obj 44 84 iemguts/initbang;
#X msg 17 210 read chelp.txt;
#X obj 17 234 text define £""-help;
#X obj 220 205 receive £""-help;
#X msg 220 229 line 0 \, bang;
#X obj 220 253 text sequence £""-help;
#X obj 220 277 route bang;
#X obj 220 325 print -n;
#X msg 220 301  ;
#X obj 287 300 list trim;
#X obj 222 50 shared ctxfiles/cushare 0;
#N canvas 387 124 1024 557 commands 0;
#X obj 416 105 t b a;
#X obj 112 184 cyclone/zl iter 1;
#X obj 671 165 ctxfiles/recompile \$0;
#X obj 416 81 receive *ujK9)erD;
#X obj 556 94 v RfGbV5^g;
#X obj 112 207 ctxfiles/br2 route 1 \; x gtfs \$0 #f x 128 \, :x #l
\; y gtfs \$0 #f y 79 \, :y #l \; size gtfs \$0 #f size 128 \, :size
#l \; y1 gtfs \$0 #f y1 \, :y1 #l \; y2 gtfs \$0 #f y2 \, :y2 #l \;
point1 gtfs \$0 #f point1 bang \, points #l \, point #l \, end #l \,
:point1 #l \; point2 gtfs \$0 #f point2 bang \, bpoints #l \, bpoint
#l \, curve #l \, :point2 #l \; name gtfs \$0 #f name bang \, :name
#l \; color gtfs \$0 #f color -232534 \, colour #l \, :color #l \;
speed gtfs \$0 #f speed 10 \, :speed #l \; time gtfs \$0 #f time 1000
\, :time #l \; duplicate gtfs \$0 #f duplicate 0 \, :duplicate #l \;
mirror-x gtfs \$0 #f mirror-x 0 \, :mirror-x #l \; mirror-y gtfs \$0
#f mirror-y 0 \, :mirror-y #l \; scale gtfs \$0 #f scale 1 \, :scale
#l \; ec gtfs \$0 #f ec 0 \, :ec #l \; savelist tf \$0 #f \; help tf
\$0 #f \; ## s \$0-othr, f 76;
#X obj 671 194 ctxfiles/br2 demux 2 \; #f t \; #f gs :x \; #f gs :y
\; #f gs :size \; #f gs :y1 \; #f gs :y2 \; #f gs :point1 \; #f gs
:point2 \; #f gs :name \; #f gs :color \; #f gs :speed \; #f gs :time
\; #f gs :duplicate \; #f gs :mirror-x \; #f gs :mirror-y \; #f gs
:scale \; #f gs :ec \; #f gs savelist \; #f s £""-help;
#X connect 0 0 2 0;
#X connect 0 1 1 0;
#X connect 1 0 5 0;
#X connect 2 0 6 0;
#X connect 2 1 6 1;
#X connect 3 0 0 0;
#X restore 388 148 pd commands;
#X connect 3 0 4 0;
#X connect 5 0 3 0;
#X connect 5 0 6 0;
#X connect 6 0 7 0;
#X connect 8 0 9 0;
#X connect 9 0 10 0;
#X connect 10 0 11 0;
#X connect 11 0 13 0;
#X connect 11 1 14 0;
#X connect 13 0 12 0;
#X connect 14 0 12 0;
