#N canvas 699 81 450 388 12;
#X obj 179 105 array define %&nou;
#N canvas 178 316 430 142 ^&*-dsmall1 0;
#X obj 35 62 filledcurve 65 1 1 0 -5 0 5 10 5 10 -5;
#X obj 32 27 struct ^&*-dsmall1 float x float y;
#X restore 114 168 pd ^&*-dsmall1;
#N canvas 178 316 430 142 ^&*-dsmall2 0;
#X obj 35 62 filledcurve 20 1 1 0 -5 0 5 10 5 10 -5;
#X obj 32 26 struct ^&*-dsmall2 float x float y;
#X restore 218 168 pd ^&*-dsmall2;
#X msg 44 108 read pascal.txt;
#X obj 44 132 text define £"pascal);
#X obj 44 84 iemguts/initbang;
#X msg 17 210 read chelp.txt;
#X obj 17 234 text define £""-help;
#X obj 220 205 receive £""-help;
#X msg 220 229 line 0 \, bang;
#X obj 220 253 text sequence £""-help;
#X obj 220 277 route bang;
#X obj 220 325 print -n;
#X msg 220 301  ;
#X obj 96 285 receive ho;
#X msg 96 309 ho ho;
#X obj 96 333 print ho;
#X obj 287 300 list trim;
#X obj 222 50 shared ctxfiles/cushare;
#X connect 3 0 4 0;
#X connect 5 0 3 0;
#X connect 5 0 6 0;
#X connect 6 0 7 0;
#X connect 8 0 9 0;
#X connect 9 0 10 0;
#X connect 10 0 11 0;
#X connect 11 0 13 0;
#X connect 11 1 17 0;
#X connect 13 0 12 0;
#X connect 14 0 15 0;
#X connect 15 0 16 0;
#X connect 17 0 12 0;
