#N canvas 685 234 641 439 10;
#X obj 306 31 inlet;
#X obj 306 75 f \$2;
#X obj 306 97 s \$1-cuc;
#X obj 154 31 receive \$1-\$2-cur;
#X obj 169 323 s \$1-cchek;
#X text 370 61 6.1 direct the input to this abstraction;
#X obj 201 102 cyclone/iter;
#X obj 35 170 text define \$0-contains;
#X obj 201 124 text set \$0-contains 1e+06;
#X msg 35 148 clear;
#X obj 169 300 f;
#X obj 242 214 text search \$0-contains;
#X obj 242 192 cyclone/iter;
#X obj 242 236 sel -1;
#X obj 306 53 t b a;
#X obj 185 147 list;
#X obj 154 53 t b b b a b;
#X text 221 148 7.1 populate text file;
#X text 288 238 7.2 search rule into text;
#X text 16 271 7.3 0 if mismatch \, else 1;
#X obj 185 169 route bang;
#X obj 217 76 \$3 \$4;
#X obj 242 258 \$5 \$6;
#X connect 0 0 14 0;
#X connect 1 0 2 0;
#X connect 3 0 16 0;
#X connect 6 0 8 0;
#X connect 9 0 7 0;
#X connect 10 0 4 0;
#X connect 11 0 13 0;
#X connect 12 0 11 0;
#X connect 13 0 22 0;
#X connect 14 0 1 0;
#X connect 14 1 15 1;
#X connect 15 0 20 0;
#X connect 16 0 9 0;
#X connect 16 1 10 0;
#X connect 16 2 15 0;
#X connect 16 3 6 0;
#X connect 16 4 21 0;
#X connect 20 1 12 0;
#X connect 21 0 10 1;
#X connect 22 0 10 1;
