#N canvas 65 199 607 392 10;
#X obj 155 73 inlet;
#X obj 155 98 list prepend \$1;
#X obj 155 124 s \$2-inlet-in;
#X obj 262 97 t b a;
#X obj 289 123 outlet;
#X obj 262 174 s \$2-alltogsx;
#X obj 373 174 s \$2-allis;
#X obj 336 67 s \$2-x\$1r;
#X obj 501 47 t f f;
#X msg 501 69 size \$1;
#X obj 299 97 receive \$2xl\$1;
#X obj 334 123 receive \$2xb\$1;
#X obj 240 66 receive \$2xx\$1;
#X obj 52 193 receive \$2-\$1conme;
#X obj 52 215 iemguts/canvasindex;
#X obj 52 237 s \$2-conmed;
#X msg 336 45 pos \$1 \$2;
#X obj 336 23 sizer \$1 \$2 x 5 \$3 101 98 \$4;
#X obj 262 149 labeler \$1 \$2 x 0 i;
#X connect 0 0 1 0;
#X connect 1 0 2 0;
#X connect 3 0 18 0;
#X connect 3 1 4 0;
#X connect 8 0 9 0;
#X connect 8 1 18 2;
#X connect 9 0 7 0;
#X connect 10 0 4 0;
#X connect 11 0 18 1;
#X connect 12 0 3 0;
#X connect 13 0 14 0;
#X connect 14 0 15 0;
#X connect 16 0 7 0;
#X connect 17 0 16 0;
#X connect 17 1 8 0;
#X connect 18 0 5 0;
#X connect 18 1 6 0;
