#N canvas 372 373 545 326 10;
#X obj 227 146 pack f \$1;
#X obj 227 175 s \$2-alltogsy;
#X obj 344 146 s \$2-alljs;
#X obj 121 109 s \$2-y\$1r;
#X msg 213 69 size \$1;
#X obj 213 44 t f f;
#X obj 285 97 f \$1;
#X obj 192 97 receive \$2yy\$1;
#X obj 285 75 receive \$2-yhome;
#X msg 48 71 pos \$2 \$1;
#X obj 48 20 sizer \$1 \$2 y 3 \$3 98 100 \$4;
#X obj 227 120 labeler \$1 \$2 y 20 j;
#X connect 0 0 1 0;
#X connect 4 0 3 0;
#X connect 5 0 4 0;
#X connect 5 1 11 2;
#X connect 6 0 11 1;
#X connect 7 0 11 0;
#X connect 8 0 6 0;
#X connect 9 0 3 0;
#X connect 10 0 9 0;
#X connect 10 1 5 0;
#X connect 11 0 0 0;
#X connect 11 1 2 0;
