#N canvas 67 358 756 380 10;
#X obj 126 20 inlet;
#X obj 177 20 inlet;
#X obj 196 100 f;
#X obj 225 100 f 1;
#X obj 254 100 f -1;
#X obj 196 180 +;
#X obj 196 232 clip 0 0;
#X obj 196 254 change;
#X text 466 239 identify double press for ID change;
#X obj 196 278 t f f;
#X text 124 327 prevent two presses within alotted time (to allow for
buffer time);
#X obj 196 301 outlet;
#X obj 218 202 inlet;
#X obj 257 202 inlet;
#X obj 324 6 inlet;
#X obj 324 29 t b b;
#X msg 351 56 set 0;
#X obj 419 221 spigot;
#X obj 196 134 t f b;
#X obj 223 159 outlet;
#X obj 126 44 t b b b;
#X obj 177 44 t b b b;
#X obj 452 196 inlet;
#X obj 419 247 s \$1;
#X connect 0 0 20 0;
#X connect 1 0 21 0;
#X connect 2 0 18 0;
#X connect 3 0 5 1;
#X connect 4 0 5 1;
#X connect 5 0 6 0;
#X connect 6 0 7 0;
#X connect 7 0 9 0;
#X connect 9 0 11 0;
#X connect 9 1 2 1;
#X connect 12 0 6 1;
#X connect 13 0 6 2;
#X connect 14 0 15 0;
#X connect 15 0 9 0;
#X connect 15 1 16 0;
#X connect 16 0 7 0;
#X connect 17 0 23 0;
#X connect 18 0 5 0;
#X connect 18 1 19 0;
#X connect 20 0 17 0;
#X connect 20 1 2 0;
#X connect 20 2 3 0;
#X connect 21 0 17 0;
#X connect 21 1 2 0;
#X connect 21 2 4 0;
#X connect 22 0 17 1;
