#N canvas 65 85 450 300 10;
#X obj 125 74 inlet;
#X obj 125 96 t b b b;
#X obj 125 198 spigot;
#X obj 148 120 del \$1;
#X obj 171 167 f 1;
#X obj 148 143 t f;
#X obj 235 74 inlet;
#X obj 235 96 t b b b;
#X obj 235 198 spigot;
#X obj 258 120 del \$1;
#X obj 281 167 f 1;
#X obj 258 143 t f;
#X obj 168 245 \$2 \$3;
#X obj 168 267 s \$4;
#X connect 0 0 1 0;
#X connect 1 0 2 0;
#X connect 1 1 3 0;
#X connect 1 2 4 0;
#X connect 2 0 12 0;
#X connect 3 0 5 0;
#X connect 4 0 8 1;
#X connect 5 0 8 1;
#X connect 6 0 7 0;
#X connect 7 0 8 0;
#X connect 7 1 9 0;
#X connect 7 2 10 0;
#X connect 8 0 12 0;
#X connect 9 0 11 0;
#X connect 10 0 2 1;
#X connect 11 0 2 1;
#X connect 12 0 13 0;
