#N canvas 292 358 756 380 10;
#X obj 88 34 inlet;
#X obj 148 120 del \$1;
#X obj 198 33 inlet;
#X obj 258 120 del \$1;
#X obj 168 245 \$2 \$3;
#X obj 168 267 s \$4;
#X obj 229 120 f 1;
#X obj 413 113 f;
#X obj 442 113 f 1;
#X obj 471 113 f -1;
#X obj 413 193 +;
#X obj 413 245 clip 0 0;
#X obj 413 267 change;
#X text 120 219 identify double press for ID change;
#X obj 88 58 t b b b b b;
#X obj 198 55 t b b b b b;
#X obj 413 291 t f f;
#X text 341 340 prevent two presses within alotted time (to allow for
buffer time);
#X obj 413 314 outlet;
#X obj 428 80 receive \$5-\$7-res;
#X obj 435 215 inlet;
#X obj 474 215 inlet;
#X obj 541 19 inlet;
#X obj 541 42 t b b;
#X msg 568 69 set 0;
#X obj 119 120 f 1;
#X obj 125 198 spigot;
#X obj 235 198 spigot;
#X obj 413 147 t f b;
#X obj 258 167 t f;
#X obj 148 156 t f;
#X obj 440 172 outlet;
#X connect 0 0 14 0;
#X connect 1 0 30 0;
#X connect 2 0 15 0;
#X connect 3 0 29 0;
#X connect 4 0 5 0;
#X connect 6 0 26 1;
#X connect 7 0 28 0;
#X connect 8 0 10 1;
#X connect 9 0 10 1;
#X connect 10 0 11 0;
#X connect 11 0 12 0;
#X connect 12 0 16 0;
#X connect 14 0 26 0;
#X connect 14 1 1 0;
#X connect 14 2 25 0;
#X connect 14 3 7 0;
#X connect 14 4 8 0;
#X connect 15 0 27 0;
#X connect 15 1 3 0;
#X connect 15 2 6 0;
#X connect 15 3 7 0;
#X connect 15 4 9 0;
#X connect 16 0 18 0;
#X connect 16 1 7 1;
#X connect 19 0 7 1;
#X connect 20 0 11 1;
#X connect 21 0 11 2;
#X connect 22 0 23 0;
#X connect 23 0 16 0;
#X connect 23 1 24 0;
#X connect 24 0 12 0;
#X connect 25 0 27 0;
#X connect 26 0 4 0;
#X connect 27 0 4 0;
#X connect 28 0 10 0;
#X connect 28 1 31 0;
#X connect 29 0 26 1;
#X connect 30 0 27 1;
