#N canvas 416 180 450 300 10;
#X msg 209 93 1;
#X msg 182 93 0;
#X obj 209 121 demux;
#X obj 182 191 outlet;
#X obj 156 15 inlet;
#X obj 182 44 t b b;
#X obj 182 146 metro \$1;
#X obj 239 21 inlet;
#X obj 301 23 inlet;
#X msg 301 47 stop;
#X obj 182 70 del 500;
#X connect 0 0 2 0;
#X connect 0 0 2 1;
#X connect 1 0 2 1;
#X connect 1 0 6 0;
#X connect 2 0 6 0;
#X connect 4 0 5 0;
#X connect 5 0 10 0;
#X connect 5 1 0 0;
#X connect 6 0 3 0;
#X connect 7 0 1 0;
#X connect 8 0 1 0;
#X connect 8 0 9 0;
#X connect 9 0 10 0;
#X connect 10 0 1 0;
