#N canvas 364 89 599 679 10;
#N canvas 67 157 974 495 receivecanvas 0;
#X obj 385 247 s \$1-key;
#X obj 333 116 list split 2;
#X msg 214 79 1;
#X msg 187 183 0;
#X obj 333 139 cyclone/zl rev;
#X obj 155 102 s \$1-motion;
#X obj 464 215 s \$1-ctrl;
#X obj 393 61 route 1;
#X obj 393 84 s \$1-openup;
#X obj 412 290 s \$1-eitherkey;
#X obj 210 314 s otheroff@#;
#X msg 452 128 0;
#X obj 463 366 sel 1;
#X obj 431 315 change;
#X obj 522 566 s \$1-ymode;
#X obj 187 337 s \$1-mup;
#X obj 431 342 t f f;
#X obj 384 391 s \$1-shift;
#X obj 509 421 del 250;
#X msg 545 448 1;
#X obj 476 522 alter 0;
#X obj 476 473 spigot;
#X obj 509 448 t f;
#X obj 385 224 t f f f;
#X obj 463 391 t b b b;
#X obj 487 264 s \$1-eitherkey2;
#X obj 498 657 moses 1;
#X msg 498 679 1;
#X msg 544 679 1;
#X obj 498 634 spigot;
#X obj 451 701 spigot;
#X obj 551 711 spigot;
#X obj 233 288 s \$1-click;
#X obj 233 237 demux;
#X obj 535 86 sel 1;
#X obj 464 184 t f f f;
#X obj 512 65 t f f f;
#X obj 558 110 s \$1-edit;
#X obj 187 -60 receive otheroff@#;
#X obj 194 -15 receive \$1-notme;
#X obj 537 609 receive \$1-savestart;
#X obj 542 239 s \$1-xdir;
#X obj 645 239 s \$1-ydir;
#X obj 541 185 sel 1;
#X obj 593 185 sel 1;
#X obj 645 185 sel 1;
#X obj 697 185 sel 1;
#X obj 476 495 spigot;
#X obj 536 484 receive \$1-mouseone;
#X obj 451 723 t f f f;
#X obj 551 733 t f f f;
#X obj 511 850 s \$1-rlson;
#X obj 187 212 t f f f;
#X text 621 730 <-- change to lson to get bottom bank back;
#X obj 476 544 t b f f;
#X obj 476 586 s \$1-sshft;
#X obj 474 777 t f;
#X obj 543 776 t f;
#X obj 511 805 t f f;
#X obj 543 827 s \$1-rson;
#X obj 750 251 s \$1-tab;
#X obj 155 12 demux;
#X obj 214 57 t b a;
#X obj 246 79 s \$1-cclick;
#X obj 750 189 route ISO_Left_Tab;
#X obj 873 212 route 9;
#X obj 919 278 s R^THBF*(;
#X obj 919 254 sp01;
#X obj 931 212 receive togtype&&**(;
#X obj 944 233 receive \$1-togtype;
#X text 960 255 send to sharables for toggle type-in;
#X obj 645 207 f -1;
#X obj 697 207 f 1;
#X obj 593 207 f 1;
#X obj 541 207 f -1;
#X obj 680 302 t b;
#X obj 566 65 s \$1-SnotC;
#X text 248 -83 <-- delete this?;
#X obj 395 -102 receive \$1-foury;
#X obj 395 -14 iemguts/sendcanvas;
#X obj 395 -80 t b;
#X obj 395 -58 del 1;
#X obj 155 34 route motion mouse mouseup key done-popup setbounds editmode
copy duplicate, f 76;
#X obj 333 160 route Shift_L Shift_R Control_L Control_R Meta_L Meta_R
Left Right Up Down Alt_L Alt_R, f 89;
#X msg 395 -36 obj 100 -35 iemguts/receivecanvas 4 \, connect 87 0
61 0;
#X obj 59 156 else/window 4;
#X obj 59 182 sel 1;
#X connect 1 0 4 0;
#X connect 2 0 33 0;
#X connect 3 0 52 0;
#X connect 4 0 83 0;
#X connect 7 0 8 0;
#X connect 11 0 6 0;
#X connect 11 0 9 0;
#X connect 11 0 0 0;
#X connect 11 0 25 0;
#X connect 12 0 24 0;
#X connect 12 1 30 0;
#X connect 12 1 31 0;
#X connect 13 0 16 0;
#X connect 16 0 17 0;
#X connect 16 1 12 0;
#X connect 18 0 22 0;
#X connect 19 0 21 1;
#X connect 20 0 54 0;
#X connect 21 0 47 0;
#X connect 22 0 21 1;
#X connect 23 0 0 0;
#X connect 23 1 9 0;
#X connect 23 1 25 0;
#X connect 23 2 13 0;
#X connect 24 0 19 0;
#X connect 24 1 21 0;
#X connect 24 2 18 0;
#X connect 26 0 27 0;
#X connect 26 1 28 0;
#X connect 27 0 30 1;
#X connect 27 0 56 0;
#X connect 28 0 31 1;
#X connect 28 0 57 0;
#X connect 29 0 26 0;
#X connect 30 0 49 0;
#X connect 31 0 50 0;
#X connect 33 0 32 0;
#X connect 34 0 3 0;
#X connect 35 0 6 0;
#X connect 35 1 9 0;
#X connect 35 1 25 0;
#X connect 36 0 33 1;
#X connect 36 1 34 0;
#X connect 36 2 37 0;
#X connect 38 0 61 1;
#X connect 39 0 61 1;
#X connect 40 0 29 1;
#X connect 43 0 74 0;
#X connect 44 0 73 0;
#X connect 45 0 71 0;
#X connect 46 0 72 0;
#X connect 47 0 20 0;
#X connect 48 0 47 1;
#X connect 49 0 30 1;
#X connect 49 1 56 0;
#X connect 50 0 31 1;
#X connect 50 1 57 0;
#X connect 52 0 15 0;
#X connect 52 1 10 0;
#X connect 52 2 33 0;
#X connect 54 0 55 0;
#X connect 54 1 29 0;
#X connect 54 2 14 0;
#X connect 56 0 58 0;
#X connect 57 0 58 0;
#X connect 58 0 51 0;
#X connect 58 1 59 0;
#X connect 61 0 82 0;
#X connect 62 0 2 0;
#X connect 62 1 63 0;
#X connect 64 0 60 0;
#X connect 64 1 65 0;
#X connect 65 0 60 0;
#X connect 65 1 67 0;
#X connect 67 0 66 0;
#X connect 68 0 67 1;
#X connect 69 0 67 2;
#X connect 71 0 42 0;
#X connect 72 0 42 0;
#X connect 73 0 41 0;
#X connect 74 0 41 0;
#X connect 75 0 23 0;
#X connect 75 0 35 0;
#X connect 78 0 80 0;
#X connect 80 0 81 0;
#X connect 81 0 84 0;
#X connect 82 0 5 0;
#X connect 82 1 62 0;
#X connect 82 2 3 0;
#X connect 82 3 1 0;
#X connect 82 4 7 0;
#X connect 82 5 11 0;
#X connect 82 6 36 0;
#X connect 82 7 76 0;
#X connect 82 8 76 0;
#X connect 83 0 23 0;
#X connect 83 1 23 0;
#X connect 83 2 35 0;
#X connect 83 3 35 0;
#X connect 83 4 35 0;
#X connect 83 5 35 0;
#X connect 83 6 43 0;
#X connect 83 7 44 0;
#X connect 83 8 45 0;
#X connect 83 9 46 0;
#X connect 83 10 75 0;
#X connect 83 11 75 0;
#X connect 83 12 64 0;
#X connect 84 0 79 0;
#X connect 85 0 86 0;
#X connect 86 0 52 0;
#X restore 50 38 pd receivecanvas;
#N canvas 67 89 758 649 mousegrid 0;
#X obj 34 136 -;
#X obj 101 133 -;
#X obj 100 615 pack f f;
#X obj 53 -2 s \$1-cposr;
#X msg 53 -23 get_pos;
#X obj 128 816 s \$1-mousegrid;
#X obj 61 544 moses 0;
#X obj 125 443 moses 0;
#X msg 203 743 -1 -1;
#X obj 151 644 t b b;
#X obj 123 695 t b b;
#X obj 100 591 t f b;
#X obj 164 491 t b f b;
#X obj 105 768 t a a a;
#X obj 151 791 route -1;
#X obj 100 569 moses 7;
#X obj 144 546 + 2;
#X obj 203 445 + 2;
#X obj 164 469 moses 6;
#X obj 105 846 unpack f f;
#X obj 203 721 cyclone/onebang 1;
#X obj 119 108 + 2;
#X obj 105 890 s \$1-xsize-in;
#X obj 192 890 s \$1-ysize-in;
#X obj 297 552 s \$1-zsize-in;
#X obj 103 68 send;
#X msg 124 -1 symbol c\$1pos;
#X obj 61 224 s \$1-rawx;
#X obj 128 224 s \$1-rawy;
#X obj 409 106 !=;
#X text 277 848 PROBLEMS: 1 y grid needs + 1 somewhere. 2 when y resize
after divy is on \, it doesn't act the same as x (where all blocks
are resized). Fix this. 3 Make sure that the grid is assigned properly
in mouseover.;
#X obj 268 122 -;
#X obj 297 17 /;
#X obj 409 59 /;
#X obj 409 81 t b f;
#X obj 427 17 - 1;
#X obj 96 -69 s \$1-prex;
#X obj 53 42 t a a a;
#X obj 111 42 s \$1-mycpos;
#X obj 53 -47 deb 400;
#X obj 34 -69 t a b a;
#X obj 34 180 demux;
#X obj 101 180 demux;
#X obj 105 670 sp01 1;
#X obj 105 722 sp01 1;
#X obj 312 209 t f f;
#X obj 258 371 moses 0;
#X obj 312 371 moses 0;
#X obj 340 444 t b b;
#X msg 367 495 -1;
#X obj 258 269 sp01 1;
#X obj 297 525 change;
#X obj 363 370 + 2;
#X obj 297 396 moses 8;
#X obj 34 -140 receive \$1-motion;
#X obj 124 -23 receive \$1nnumber;
#X obj 268 76 receive \$1-wam;
#X obj 315 -27 receive \$1-xsize;
#X obj 427 -5 receive \$1-ysize;
#X obj 170 123 receive \$1-XE;
#X obj 170 145 receive \$1-YE;
#X obj 170 165 receive \$1-lson;
#X obj 170 185 receive \$1-rson;
#X obj 203 423 receive \$1-ysize;
#X obj 409 37 receive \$1-yzoom;
#X obj 297 -5 receive \$1-xzoom;
#X obj 53 20 receive \$1-cpos;
#X obj 144 523 receive \$1-xsize;
#X obj 61 324 grider \$1 x y 0 120 4;
#X obj 216 791 t b b;
#X obj 334 742 cyclone/onebang 1;
#X obj 334 764 t f;
#X obj 334 788 + 1;
#X obj 334 810 s \$1-mouseone;
#X obj 203 765 t a f b b;
#X obj 264 810 s \$1-maway;
#X obj 387 230 receive \$1-xzoomdiv;
#X obj 53 64 unpack;
#X obj 34 108 unpack;
#X obj 387 256 scrol \$1 rscroll x y;
#X text 399 461 create special grid for top left atoms \, which don't
move with the zoom.;
#X text 172 -77 compare absolute mouse position with relative canvas
position;
#X text 2 306 reduce into grid according to zoom level;
#X text 164 699 clip grid according to context size;
#X text 517 266 calculate scroll data for toggle float and message
scroll;
#X text 148 207 distribuite raw xy data;
#X text 160 -45 <<-- Cyclone/speedlim?;
#X obj 34 202 demux;
#X obj 101 201 demux;
#X obj 34 246 s \$1-rrawx;
#X obj 101 246 s \$1-rrawy;
#X obj 34 158 t f f f;
#X obj 101 157 t f f f;
#X obj -80 -48 receive \$1-pokepos;
#X obj 34 -92 demux;
#X obj 61 -116 receive \$1-edit;
#X obj 396 418 t b b;
#X obj 53 87 + 2;
#X obj 268 99 swap 1;
#X msg 336 419 -3;
#X text 235 458 try thru spigot;
#X obj 125 288 grider \$1 y x 1 121 3;
#X obj 411 292 scrol \$1 scroll y x;
#X obj 423 441 f -2;
#X obj 258 343 change;
#X obj 258 292 - 4;
#X obj 285 292 receive \$1-xsymsize;
#X obj 258 318 div 6;
#X obj 363 347 receive \$1-paramo;
#X obj 407 373 receive \$1-ysymsize;
#X obj 407 396 - 1;
#X obj 351 396 moses 16;
#X connect 0 0 91 0;
#X connect 1 0 92 0;
#X connect 2 0 43 0;
#X connect 4 0 3 0;
#X connect 6 0 10 0;
#X connect 6 1 15 0;
#X connect 7 0 9 0;
#X connect 7 1 18 0;
#X connect 8 0 74 0;
#X connect 9 0 20 0;
#X connect 9 1 43 1;
#X connect 10 0 20 0;
#X connect 10 1 44 1;
#X connect 11 0 2 0;
#X connect 11 1 44 2;
#X connect 12 0 2 0;
#X connect 12 1 2 1;
#X connect 12 2 43 2;
#X connect 13 0 19 0;
#X connect 13 1 5 0;
#X connect 13 2 14 0;
#X connect 14 1 69 0;
#X connect 15 0 11 0;
#X connect 15 1 10 0;
#X connect 16 0 15 1;
#X connect 17 0 18 1;
#X connect 18 0 12 0;
#X connect 18 1 9 0;
#X connect 19 0 22 0;
#X connect 19 1 23 0;
#X connect 20 0 8 0;
#X connect 21 0 1 1;
#X connect 26 0 25 1;
#X connect 29 0 45 0;
#X connect 31 0 45 0;
#X connect 32 0 29 0;
#X connect 33 0 34 0;
#X connect 34 0 29 0;
#X connect 34 1 29 1;
#X connect 35 0 33 1;
#X connect 37 0 77 0;
#X connect 37 1 25 0;
#X connect 37 2 38 0;
#X connect 39 0 4 0;
#X connect 40 0 78 0;
#X connect 40 1 39 0;
#X connect 40 2 36 0;
#X connect 41 0 87 0;
#X connect 42 0 88 0;
#X connect 43 0 44 0;
#X connect 44 0 13 0;
#X connect 45 0 101 1;
#X connect 45 1 68 1;
#X connect 46 0 49 0;
#X connect 46 1 53 0;
#X connect 47 0 48 0;
#X connect 47 1 111 0;
#X connect 48 0 50 1;
#X connect 48 1 49 0;
#X connect 49 0 51 0;
#X connect 50 0 105 0;
#X connect 51 0 24 0;
#X connect 52 0 53 1;
#X connect 53 0 51 0;
#X connect 53 1 99 0;
#X connect 54 0 94 0;
#X connect 55 0 26 0;
#X connect 56 0 98 0;
#X connect 57 0 32 1;
#X connect 58 0 35 0;
#X connect 59 0 87 1;
#X connect 60 0 88 1;
#X connect 61 0 42 1;
#X connect 61 0 41 1;
#X connect 62 0 42 1;
#X connect 62 0 41 1;
#X connect 63 0 17 0;
#X connect 64 0 33 0;
#X connect 65 0 32 0;
#X connect 66 0 37 0;
#X connect 67 0 16 0;
#X connect 68 0 6 0;
#X connect 69 0 20 1;
#X connect 69 1 70 0;
#X connect 70 0 71 0;
#X connect 71 0 72 0;
#X connect 72 0 73 0;
#X connect 74 0 13 0;
#X connect 74 1 72 0;
#X connect 74 2 70 1;
#X connect 74 3 75 0;
#X connect 76 0 79 0;
#X connect 77 0 97 0;
#X connect 77 1 21 0;
#X connect 78 0 0 0;
#X connect 78 1 1 0;
#X connect 87 0 89 0;
#X connect 87 1 27 0;
#X connect 88 0 90 0;
#X connect 88 1 28 0;
#X connect 91 0 41 0;
#X connect 91 1 68 0;
#X connect 91 2 50 0;
#X connect 92 0 42 0;
#X connect 92 1 101 0;
#X connect 92 2 47 0;
#X connect 93 0 4 0;
#X connect 94 0 40 0;
#X connect 95 0 94 1;
#X connect 96 0 50 1;
#X connect 96 1 103 0;
#X connect 97 0 0 1;
#X connect 98 0 31 0;
#X connect 98 1 31 1;
#X connect 99 0 51 0;
#X connect 101 0 7 0;
#X connect 103 0 51 0;
#X connect 104 0 46 0;
#X connect 105 0 107 0;
#X connect 106 0 107 1;
#X connect 107 0 104 0;
#X connect 108 0 52 0;
#X connect 109 0 110 0;
#X connect 110 0 111 1;
#X connect 111 0 50 2;
#X connect 111 1 96 0;
#X restore 50 75 pd mousegrid;
#N canvas 186 232 974 495 mouseover 0;
#X obj 437 31 route -1;
#X obj 490 54 route 4;
#X obj 666 150 moses 2;
#X obj 582 104 route 3;
#X obj 536 78 route 5;
#X obj 582 54 + 1;
#X obj 391 -62 + 1;
#X obj 345 -39 route 6;
#X obj 299 -61 route 5;
#X obj 628 78 - 1;
#X obj 582 128 + 1;
#X obj 582 159 t b f;
#X obj 55 170 t b b;
#X obj 55 263 f;
#X obj 55 285 + 1;
#X obj 119 237 spigot;
#X obj 55 329 t b f;
#X obj 55 308 sel 2 1;
#X obj 121 260 t f b;
#X msg 55 351 2;
#X obj 87 216 t f b;
#X obj 118 283 1;
#X obj 578 584 demux;
#X obj 366 498 s \$1-mscroll;
#X msg 578 608 :s;
#X obj 509 637 s \$1-everything;
#X obj 578 561 sel 2 1;
#X msg 509 611 stop;
#X obj 366 434 demux;
#X obj 398 477 s \$1-editor;
#X obj 398 456 sel 2;
#X obj 705 174 moses 5;
#X obj 714 345 change;
#X obj 714 367 s \$1-nexton;
#X obj 143 309 demux;
#X obj 614 201 demux;
#X obj 578 282 demux;
#X obj 391 -17 route 4;
#X obj 437 -41 - 1;
#X obj 391 9 + 1;
#X obj 391 61 moses 4;
#X obj 552 128 f;
#X obj 392 -94 t f f f f f;
#X obj 437 91 t b;
#X obj 391 115 t b f;
#X obj 423 197 demux;
#X obj 347 363 spigot;
#X obj 437 9 cyclone/zl rev;
#X obj 739 265 sel 0 1;
#X obj 328 310 route 0 1 2 3 4 5;
#X obj 143 359 s \$1-mousein;
#X obj 818 376 == 2;
#X obj 818 421 s \$1-nextmon;
#X obj 818 398 change;
#X obj 87 194 del 200;
#X obj 610 770 s otheroff@#;
#X obj 593 798 t f;
#X obj 593 820 s \$1-notme;
#X obj 502 768 s \$1-selon;
#X obj 170 260 t f;
#X obj 55 103 receive \$1-click;
#X obj 175 285 receive \$1-morphon;
#X obj 328 241 receive \$1-mouseout;
#X obj 739 243 receive \$1-xym;
#X obj 392 -121 receive \$1-xsize;
#X obj 299 -151 receive \$1-mousegrid;
#X obj 582 31 receive \$1-ysize;
#X obj 809 58 receive \$1-paramy;
#X msg 809 80 \$2 \$3;
#X obj 809 102 unpack;
#X obj 714 323 == 5;
#X obj -15 63 receive \$1-nostop;
#X obj 55 147 sel 1;
#X obj -15 85 t b a;
#X obj -15 107 t f;
#X obj 578 256 cyclone/funnel 6;
#X obj 610 327 route 0;
#X obj 584 350 sp01;
#X obj 584 304 receive \$1-mup;
#X obj 584 372 t f b;
#X obj 610 538 receive \$1-key;
#X text -89 288 count number of clicks;
#X text 83 528 send clicks to various channels according to zone;
#X obj 666 58 receive \$1-zsize-in;
#X text 507 -84 interpret mouse grid data into designated;
#X text 806 -113 zones \; 1: nbox \; 2: symbol \; 3: x toggles \; 4:
main \; 5: y toggles;
#X obj 299 -129 spigot 1;
#X obj 666 80 t f f;
#X obj 841 148 +;
#X obj 809 125 t f f;
#X obj 698 125 s \$1-zscroff;
#X obj 328 287 spigot 1;
#X obj 381 263 receive \$1-morphon1;
#X obj 347 386 sel 2;
#X obj 347 408 s \$1-:M;
#X obj 725 592 moses 1;
#X obj 771 618 <= 2;
#X obj 725 688 *;
#X obj 699 622 t b f;
#X obj 743 652 * 4;
#X obj 725 710 change;
#X obj 725 732 s \$1-tocurs;
#X obj 499 675 ts \$1 x 0 i;
#X obj 424 334 ts \$1 y 1 j;
#X obj 174 429 receive \$1-morphon;
#X obj 174 451 t b;
#X obj 174 473 t f f;
#X obj 389 287 receive moveon&&u*1;
#X obj 55 125 t f f f f f f;
#X obj 72 387 change;
#X obj 72 409 s \$1-click2;
#X obj 610 747 f 1;
#X obj 559 725 t f f b b;
#X obj 502 796 s \$1-noresize;
#X obj 578 436 change;
#X obj 143 336 list prepend 0;
#X obj 739 288 f 5;
#X obj 765 288 f 3;
#X obj 666 199 sel -1 -2 -3;
#X obj 689 221 s \$1-xrebgrid;
#X obj 747 198 s \$1-yrebgrid;
#X obj 698 102 <= -1;
#X obj 578 514 t f f f f f;
#X obj 836 570 f;
#X obj 836 547 receive \$1-scrolld;
#X obj 836 643 mux;
#X obj 851 619 receive \$1-xym;
#X obj 836 593 sel 5 3;
#X obj 836 666 s \$1-bu-bump;
#X connect 0 0 75 0;
#X connect 0 1 1 0;
#X connect 1 0 75 0;
#X connect 1 1 4 0;
#X connect 2 0 118 0;
#X connect 2 1 31 0;
#X connect 3 0 10 0;
#X connect 3 1 75 4;
#X connect 4 0 75 0;
#X connect 4 1 3 0;
#X connect 5 0 4 1;
#X connect 6 0 7 1;
#X connect 7 0 75 0;
#X connect 7 1 37 0;
#X connect 8 0 75 0;
#X connect 8 1 7 0;
#X connect 9 0 3 1;
#X connect 10 0 11 0;
#X connect 11 0 75 3;
#X connect 11 1 35 0;
#X connect 12 0 13 0;
#X connect 12 1 54 0;
#X connect 13 0 14 0;
#X connect 14 0 13 1;
#X connect 14 0 17 0;
#X connect 15 0 21 0;
#X connect 16 0 19 0;
#X connect 16 1 15 1;
#X connect 17 0 16 0;
#X connect 17 2 18 0;
#X connect 18 0 34 0;
#X connect 18 1 59 0;
#X connect 19 0 34 0;
#X connect 20 0 13 1;
#X connect 20 1 15 0;
#X connect 21 0 34 0;
#X connect 22 0 24 0;
#X connect 24 0 25 0;
#X connect 26 0 22 0;
#X connect 26 1 27 0;
#X connect 27 0 25 0;
#X connect 28 0 23 0;
#X connect 28 0 112 0;
#X connect 28 1 30 0;
#X connect 30 0 29 0;
#X connect 31 0 75 2;
#X connect 31 1 75 4;
#X connect 32 0 33 0;
#X connect 34 0 109 0;
#X connect 34 0 115 0;
#X connect 35 0 102 1;
#X connect 36 0 114 0;
#X connect 36 1 76 0;
#X connect 37 0 39 0;
#X connect 37 1 47 0;
#X connect 38 0 37 1;
#X connect 39 0 40 0;
#X connect 40 0 44 0;
#X connect 40 1 43 0;
#X connect 41 0 11 0;
#X connect 42 0 8 1;
#X connect 42 1 6 0;
#X connect 42 2 38 0;
#X connect 42 4 41 1;
#X connect 43 0 41 0;
#X connect 44 0 75 5;
#X connect 44 1 45 0;
#X connect 45 0 103 1;
#X connect 46 0 93 0;
#X connect 47 0 0 0;
#X connect 48 0 116 0;
#X connect 48 1 117 0;
#X connect 49 1 46 0;
#X connect 49 2 28 0;
#X connect 49 3 102 0;
#X connect 49 4 26 0;
#X connect 49 5 103 0;
#X connect 51 0 53 0;
#X connect 53 0 52 0;
#X connect 54 0 20 0;
#X connect 56 0 57 0;
#X connect 59 0 15 1;
#X connect 60 0 108 0;
#X connect 61 0 34 1;
#X connect 62 0 91 0;
#X connect 63 0 48 0;
#X connect 64 0 42 0;
#X connect 65 0 86 0;
#X connect 66 0 1 1;
#X connect 66 0 5 0;
#X connect 66 0 9 0;
#X connect 66 0 40 1;
#X connect 67 0 68 0;
#X connect 68 0 69 0;
#X connect 69 0 89 0;
#X connect 69 1 88 1;
#X connect 70 0 32 0;
#X connect 71 0 73 0;
#X connect 72 0 12 0;
#X connect 72 1 34 0;
#X connect 73 0 74 0;
#X connect 73 1 54 0;
#X connect 74 0 13 1;
#X connect 75 0 36 0;
#X connect 76 0 77 2;
#X connect 77 0 79 0;
#X connect 78 0 77 0;
#X connect 79 0 114 0;
#X connect 79 1 77 1;
#X connect 80 0 22 1;
#X connect 80 0 28 1;
#X connect 80 0 46 1;
#X connect 80 0 98 0;
#X connect 83 0 87 0;
#X connect 86 0 8 0;
#X connect 87 0 2 0;
#X connect 87 1 121 0;
#X connect 88 0 31 1;
#X connect 89 0 2 1;
#X connect 89 1 88 0;
#X connect 91 0 49 0;
#X connect 92 0 91 1;
#X connect 93 0 94 0;
#X connect 95 0 97 0;
#X connect 95 1 96 0;
#X connect 96 0 97 0;
#X connect 97 0 100 0;
#X connect 98 0 97 0;
#X connect 98 1 99 0;
#X connect 99 0 97 1;
#X connect 100 0 101 0;
#X connect 102 0 112 0;
#X connect 103 0 112 0;
#X connect 104 0 105 0;
#X connect 105 0 106 0;
#X connect 106 0 103 0;
#X connect 106 1 102 0;
#X connect 107 0 91 1;
#X connect 108 0 72 0;
#X connect 108 1 15 1;
#X connect 108 2 36 1;
#X connect 108 3 35 1;
#X connect 108 4 45 1;
#X connect 108 5 109 0;
#X connect 109 0 110 0;
#X connect 111 0 55 0;
#X connect 112 0 58 0;
#X connect 112 1 113 0;
#X connect 112 2 56 0;
#X connect 112 3 111 0;
#X connect 114 0 122 0;
#X connect 115 0 50 0;
#X connect 116 0 70 1;
#X connect 117 0 70 1;
#X connect 118 1 119 0;
#X connect 118 2 120 0;
#X connect 118 3 75 1;
#X connect 121 0 86 1;
#X connect 121 0 90 0;
#X connect 122 0 70 0;
#X connect 122 1 115 1;
#X connect 122 2 51 0;
#X connect 122 3 95 0;
#X connect 122 4 123 1;
#X connect 123 0 127 0;
#X connect 124 0 123 0;
#X connect 125 0 128 0;
#X connect 126 0 125 2;
#X connect 127 0 125 0;
#X connect 127 1 125 1;
#X restore 50 109 pd mouseover;
#N canvas 96 89 916 679 morph 0;
#X obj 81 460 pack f f;
#X obj 179 300 sin;
#X obj 345 43 unpack f f;
#X obj 227 72 sel 0 1;
#X obj 555 177 demux;
#X obj 591 177 demux;
#X msg 582 293 vis 0;
#X msg 657 245 menu-open;
#X msg 739 483 menu-open;
#X msg 807 482 vis 0;
#X obj 179 153 list split 1;
#X obj 191 448 s \$1-paramorph;
#X obj 509 45 unpack f f;
#X obj 179 181 t b a;
#X obj 348 462 pack f f;
#X obj 366 433 t b f;
#X obj 99 431 t b f;
#X obj 81 482 s \$1-cnvmorph;
#X msg 348 484 vis_size \$2 \$1;
#X obj 582 328 s \$1-xboxes;
#X obj 582 348 s \$1-yboxes;
#X obj 348 538 s \$1-block;
#X obj 650 59 unpack f f;
#X obj 531 458 pack f f;
#X obj 549 425 t b f;
#X msg 531 484 pos \$1 \$2;
#X text 40 579 #X obj 120 99 cnv 10 340 317 empty \$1-blockbmm empty
36 23 0 7 -262143 -1 0 \;;
#X obj 757 298 s \$1-flow;
#X obj 604 107 del 700;
#X msg 794 251 1;
#X obj 510 219 t b b b b f;
#X obj 767 515 iemguts/sendcanvas 3;
#X obj 227 49 t f b b f f;
#X obj 702 546 s \$1-wam;
#X msg 661 530 1;
#X obj 582 219 t b b b b b b;
#X obj 179 277 line 0 50;
#X obj 549 398 sf 102;
#X obj 451 398 sf 102;
#X obj 366 398 sf 2;
#X obj 99 398 sf 54;
#X obj 8 398 sf 62;
#X obj 604 129 t b b;
#X obj 275 398 sf 35;
#X text 48 129 379 338 to 455 286;
#X obj 748 168 iemguts/sendcanvas 3;
#X obj 709 98 del 10;
#X msg 748 142 dirty 0;
#X obj 799 359 s \$1-morphon1;
#X obj 255 93 t b f;
#X msg 798 328 1;
#X obj 227 26 receive \$1-morphon;
#X obj 345 17 receive \$1-pixsize;
#X obj 509 19 receive \$1-cursesize;
#X obj 650 31 receive \$1-tpos;
#X obj 747 32 receive \$1-sl4;
#X msg 525 255 1 \, 0;
#X text 174 615 xfrom yfrom xto yto xsize ysize GOP xmargin ymargin
;
#X obj 662 426 s \$1-facecan;
#X obj 709 120 t b b b;
#X obj 756 219 t b b;
#X msg 756 258 2;
#X obj 794 273 t f f;
#X obj 546 513 s \$1-sl5;
#X text 758 423 x y size;
#X text 61 254 13 26;
#X obj 191 398 sf 7;
#X obj 206 208 unpack f f f f f f f;
#X obj 172 326 t f f f f f f f f f f;
#X obj 403 83 receive \$1-paramo;
#X obj 335 112 pack 0 62 54 7 35 2 102 102;
#X text 52 559 cnv x \, cnv y \, paramorph \, c-sz x \, c-sz y \, c-pos
x \, c-posy, f 57;
#X msg 662 404 coords 0 -1 1 1 145 138 \$1 86 87;
#X msg 179 254 0 \, 1.5708 600;
#X obj 669 219 t b b f b;
#X obj 315 151 receive \$1-xmen;
#X obj 254 180 pack 145 141 20 104 134 105 127;
#X connect 0 0 17 0;
#X connect 1 0 68 0;
#X connect 2 0 41 2;
#X connect 2 0 70 1;
#X connect 2 1 40 2;
#X connect 2 1 70 2;
#X connect 3 0 70 0;
#X connect 3 1 49 0;
#X connect 4 0 30 0;
#X connect 4 1 35 0;
#X connect 5 0 74 0;
#X connect 5 1 60 0;
#X connect 6 0 19 0;
#X connect 6 0 20 0;
#X connect 7 0 19 0;
#X connect 7 0 20 0;
#X connect 8 0 31 0;
#X connect 9 0 31 0;
#X connect 10 1 13 0;
#X connect 12 0 43 2;
#X connect 12 0 70 4;
#X connect 12 1 39 2;
#X connect 12 1 70 5;
#X connect 13 0 73 0;
#X connect 13 1 67 0;
#X connect 14 0 18 0;
#X connect 15 0 14 0;
#X connect 15 1 14 1;
#X connect 16 0 0 0;
#X connect 16 1 0 1;
#X connect 18 0 21 0;
#X connect 22 0 38 2;
#X connect 22 0 70 6;
#X connect 22 1 37 2;
#X connect 22 1 70 7;
#X connect 23 0 25 0;
#X connect 23 0 63 0;
#X connect 24 0 23 0;
#X connect 24 1 23 1;
#X connect 25 0 21 0;
#X connect 28 0 42 0;
#X connect 29 0 62 0;
#X connect 30 0 9 0;
#X connect 30 1 56 0;
#X connect 30 2 8 0;
#X connect 30 4 27 0;
#X connect 32 0 3 0;
#X connect 32 1 4 0;
#X connect 32 2 28 0;
#X connect 32 3 4 1;
#X connect 32 4 5 1;
#X connect 34 0 33 0;
#X connect 35 0 6 0;
#X connect 35 3 34 0;
#X connect 35 5 7 0;
#X connect 36 0 1 0;
#X connect 37 0 24 0;
#X connect 38 0 23 0;
#X connect 39 0 15 0;
#X connect 40 0 16 0;
#X connect 41 0 0 0;
#X connect 42 0 46 0;
#X connect 42 1 5 0;
#X connect 43 0 14 0;
#X connect 46 0 59 0;
#X connect 47 0 45 0;
#X connect 49 0 76 0;
#X connect 49 1 48 0;
#X connect 50 0 48 0;
#X connect 51 0 32 0;
#X connect 52 0 2 0;
#X connect 53 0 12 0;
#X connect 54 0 22 0;
#X connect 55 0 22 0;
#X connect 56 0 72 0;
#X connect 59 0 9 0;
#X connect 59 1 8 0;
#X connect 59 2 47 0;
#X connect 60 0 61 0;
#X connect 60 1 29 0;
#X connect 61 0 72 0;
#X connect 62 0 72 0;
#X connect 62 1 27 0;
#X connect 66 0 11 0;
#X connect 67 0 41 1;
#X connect 67 1 40 1;
#X connect 67 2 66 1;
#X connect 67 3 43 1;
#X connect 67 4 39 1;
#X connect 67 5 38 1;
#X connect 67 6 37 1;
#X connect 68 0 41 0;
#X connect 68 1 40 0;
#X connect 68 2 66 0;
#X connect 68 3 43 0;
#X connect 68 4 39 0;
#X connect 68 5 38 0;
#X connect 68 6 37 0;
#X connect 69 0 66 2;
#X connect 69 0 70 3;
#X connect 70 0 10 0;
#X connect 72 0 58 0;
#X connect 73 0 36 0;
#X connect 74 0 6 0;
#X connect 74 1 50 0;
#X connect 74 2 33 0;
#X connect 74 3 7 0;
#X connect 75 0 76 2;
#X connect 76 0 13 0;
#X restore 46 500 pd morph;
#N canvas 590 312 450 300 next-colour 0;
#X obj 147 73 spigot;
#X obj 210 32 t f f;
#X obj 210 56 sel 1 0;
#X obj 147 140 t a b;
#X obj 229 141 s \$1-colmod-off;
#X obj 147 162 zl iter 1;
#X obj 147 184 route 0;
#X obj 210 8 receive \$1-nexton;
#X obj 147 119 array get \$1-bu-n;
#X obj 87 32 receive \$1-bursting;
#X obj 308 72 receive \$1-xym;
#X obj 308 94 sel 0 1;
#X obj 186 211 zexy/pack f \$1 y;
#X msg 308 116 y;
#X msg 337 116 x;
#X msg 213 254 symbol \$2-\$3-colmod-\$1;
#X obj 186 233 t b l;
#X obj 186 278 send;
#X obj 321 8 receive \$1-rson;
#X obj 147 96 demux;
#X obj 321 30 t b f;
#X connect 0 0 19 0;
#X connect 1 0 2 0;
#X connect 1 1 0 1;
#X connect 2 0 19 0;
#X connect 2 1 4 0;
#X connect 3 0 5 0;
#X connect 3 1 4 0;
#X connect 5 0 6 0;
#X connect 6 1 12 0;
#X connect 7 0 1 0;
#X connect 8 0 3 0;
#X connect 9 0 0 0;
#X connect 10 0 11 0;
#X connect 11 0 13 0;
#X connect 11 1 14 0;
#X connect 12 0 16 0;
#X connect 13 0 12 2;
#X connect 14 0 12 2;
#X connect 15 0 17 1;
#X connect 16 0 17 0;
#X connect 16 1 15 0;
#X connect 18 0 20 0;
#X connect 19 0 8 0;
#X connect 20 0 4 0;
#X connect 20 1 19 1;
#X restore 46 356 pd next-colour;
#N canvas 585 268 450 352 timestretch 0;
#X obj 109 158 mux;
#X obj 109 112 unpack f f;
#X obj 109 67 t b a;
#X obj 109 89 list;
#X obj 177 112 t b f;
#X obj 109 180 t f f;
#X obj 136 249 /;
#X obj 136 205 spigot;
#X obj 136 271 *;
#X obj 136 296 s \$1-dr;
#X obj 109 45 receive \$1-cursorsz;
#X obj 177 89 receive \$1-xym;
#X obj 170 181 receive \$1-ctrl;
#X obj 163 249 receive delay\$1s;
#X connect 0 0 5 0;
#X connect 1 0 0 0;
#X connect 1 1 0 1;
#X connect 2 0 3 0;
#X connect 2 1 3 1;
#X connect 3 0 1 0;
#X connect 4 0 3 0;
#X connect 4 1 0 2;
#X connect 5 0 6 1;
#X connect 5 1 7 0;
#X connect 6 0 8 0;
#X connect 7 0 6 0;
#X connect 8 0 9 0;
#X connect 10 0 2 0;
#X connect 11 0 4 0;
#X connect 12 0 7 1;
#X connect 13 0 8 1;
#X restore 46 563 pd timestretch;
#N canvas 67 229 714 358 colors 0;
#X obj 29 7 receive \$1-colours;
#X obj 64 165 s colourquery";
#X text 39 308 1 main \, 2 high contrast \, 3 HC text \, 4 main text
\, 5 HC alt \, 6 main alt;
#X obj 273 169 array set \$1-mycols;
#X obj 48 77 s \$1-colobang;
#X obj 30 143 list split 1;
#X obj 29 29 t b b f;
#X obj 30 99 receive \$1-colobang;
#X obj 29 53 s \$1-lcolb;
#X text 79 279 alternate \, white \, black \, cursor \, menu-text \,
main \, launchpad;
#X obj 273 147 list append \$1;
#X obj 273 123 receive \$1-primary-col;
#X obj 30 121 pack f f \$1;
#X obj 273 192 array define \$1-mycols 6;
#X msg 169 229 \; \$9-mbangr color \$6 \$4 \$4;
#X msg 333 229 \; \$9-underline color \$3 \$3 \$2;
#X msg 514 229 \; \$9-cposr color \$6 \$7 \$7;
#X msg 10 229 \; \$9-menlab color \$4 \$5 \$5;
#X connect 0 0 6 0;
#X connect 5 1 1 0;
#X connect 6 0 8 0;
#X connect 6 1 4 0;
#X connect 6 2 12 1;
#X connect 7 0 12 0;
#X connect 10 0 3 0;
#X connect 10 0 16 0;
#X connect 10 0 14 0;
#X connect 10 0 15 0;
#X connect 10 0 17 0;
#X connect 11 0 10 0;
#X connect 12 0 5 0;
#X restore 46 298 pd colors;
#X obj 279 190 receive \$1-graphicdel;
#X obj 279 212 iemguts/canvasdelete 1;
#N canvas 370 133 518 538 swap 0;
#X obj 110 4 receive \$1-rscroll;
#X obj 222 157 demux;
#X obj 129 131 zexy/pack swap f f;
#X obj 110 79 -;
#X obj 222 179 list prepend :i;
#X obj 249 204 list prepend :j;
#X obj 222 233 s \$1-anymessage;
#X obj 110 55 swap;
#X obj 234 74 t f f;
#X obj 140 262 array get \$1-alltogsxo 0 1;
#X obj 140 234 - 1;
#X obj 169 358 f;
#X obj 140 284 route 0;
#X obj 179 307 t b;
#X obj 169 333 sp01;
#X obj 322 179 makefilename \$1-alltogs%so;
#X obj 345 204 makefilename :%s;
#X msg 196 408 symbol -;
#X msg 164 234 symbol +;
#X obj 153 484 s \$1-notsafe;
#X obj 153 437 pack f s s;
#X obj 169 380 t f b;
#X obj 153 459 cyclone/zl rot 2;
#X obj 110 102 t f b f f b f f b b;
#X obj 273 103 v \$1-messb;
#X obj 273 125 t f f;
#X obj 386 46 sel 0;
#X msg 386 68 symbol x;
#X msg 413 90 symbol y;
#X obj 386 111 t s s s;
#X obj 425 133 sel bb;
#X obj 458 156 t b s;
#X obj 226 4 receive \$1-zscroff;
#X obj 110 29 spigot 1;
#X obj 244 25 receive \$1-y-messone;
#X obj 234 50 receive \$1-x-messone;
#X connect 0 0 33 0;
#X connect 1 0 4 0;
#X connect 1 1 5 0;
#X connect 2 0 1 0;
#X connect 3 0 23 0;
#X connect 4 0 6 0;
#X connect 5 0 6 0;
#X connect 7 0 3 0;
#X connect 7 1 3 1;
#X connect 8 0 2 2;
#X connect 8 1 7 1;
#X connect 9 0 12 0;
#X connect 10 0 9 0;
#X connect 11 0 21 0;
#X connect 12 0 14 2;
#X connect 12 1 13 0;
#X connect 13 0 14 1;
#X connect 14 0 11 0;
#X connect 15 0 9 2;
#X connect 16 0 20 1;
#X connect 17 0 20 2;
#X connect 18 0 20 2;
#X connect 20 0 22 0;
#X connect 21 0 20 0;
#X connect 21 1 17 0;
#X connect 22 0 19 0;
#X connect 23 0 8 0;
#X connect 23 1 2 0;
#X connect 23 2 2 1;
#X connect 23 3 20 0;
#X connect 23 4 18 0;
#X connect 23 5 10 0;
#X connect 23 6 11 1;
#X connect 23 7 14 0;
#X connect 23 8 24 0;
#X connect 24 0 25 0;
#X connect 25 0 1 1;
#X connect 25 1 26 0;
#X connect 26 0 27 0;
#X connect 26 1 28 0;
#X connect 27 0 29 0;
#X connect 28 0 29 0;
#X connect 29 0 15 0;
#X connect 29 1 16 0;
#X connect 29 2 30 0;
#X connect 30 1 31 0;
#X connect 31 0 14 1;
#X connect 31 1 30 1;
#X connect 32 0 33 1;
#X connect 33 0 7 0;
#X connect 34 0 8 0;
#X connect 35 0 8 0;
#X restore 47 531 pd swap;
#N canvas 437 182 539 567 find 0;
#X obj 136 109 route 0;
#X obj 79 21 receive \$1-findme;
#X obj 104 153 s \$1-ffind;
#X obj 136 65 cyclone/iter;
#X obj 175 153 ==;
#X obj 248 218 sel 1;
#X obj 248 188 != -1;
#X obj 248 240 t b b;
#X obj 275 308 metro 80;
#X obj 275 330 cyclone/togedge;
#X obj 248 284 t f f;
#X obj 248 262 del 400;
#X obj 275 386 + 5;
#X obj 275 430 cyclone/prepend label_pos;
#X obj 190 132 receive \$1nnumber;
#X obj 248 166 text search \$1-jnames;
#X obj 275 452 s \$1-cposr;
#X obj 136 87 route float symbol;
#X obj 79 43 route bang;
#X obj 362 352 f -2;
#X obj 275 352 f 2;
#X obj 275 408 pack 5 23;
#X obj 358 241 receive \$1-laby;
#X obj 358 288 t b f;
#X obj 358 264 change 23;
#X connect 0 1 2 0;
#X connect 0 1 4 0;
#X connect 1 0 18 0;
#X connect 3 0 17 0;
#X connect 4 0 5 0;
#X connect 5 0 7 0;
#X connect 6 0 5 0;
#X connect 7 0 11 0;
#X connect 7 1 8 0;
#X connect 8 0 9 0;
#X connect 9 0 20 0;
#X connect 9 1 19 0;
#X connect 10 0 12 0;
#X connect 10 1 8 0;
#X connect 11 0 10 0;
#X connect 12 0 21 0;
#X connect 13 0 16 0;
#X connect 14 0 4 1;
#X connect 15 0 6 0;
#X connect 17 0 0 0;
#X connect 17 1 15 0;
#X connect 18 0 7 0;
#X connect 18 1 3 0;
#X connect 19 0 12 0;
#X connect 20 0 12 0;
#X connect 21 0 13 0;
#X connect 22 0 24 0;
#X connect 23 0 21 0;
#X connect 23 1 21 1;
#X connect 24 0 23 0;
#X restore 46 437 pd find;
#N canvas 322 380 450 349 sym-scroll 0;
#X obj 196 64 t f f;
#X obj 160 90 spigot;
#X obj 160 119 list prepend +;
#X obj 160 141 list append;
#X obj 160 163 list trim;
#X obj 160 14 receive \$1-scroll;
#X obj 196 41 receive \$1-mscroll;
#X obj 223 90 - 1;
#X obj 160 185 t a b;
#X obj 187 207 v \$1-messb;
#X obj 187 231 sel 0 1;
#X msg 187 253 :a;
#X msg 229 253 :b;
#X obj 160 277 list prepend;
#X obj 160 300 send \$1-notsafe;
#X connect 0 0 1 1;
#X connect 0 1 7 0;
#X connect 1 0 2 0;
#X connect 2 0 3 0;
#X connect 3 0 4 0;
#X connect 4 0 8 0;
#X connect 5 0 1 0;
#X connect 6 0 0 0;
#X connect 7 0 3 1;
#X connect 8 0 13 0;
#X connect 8 1 9 0;
#X connect 9 0 10 0;
#X connect 10 0 11 0;
#X connect 10 1 12 0;
#X connect 11 0 13 1;
#X connect 12 0 13 1;
#X connect 13 0 14 0;
#X restore 46 408 pd sym-scroll;
#N canvas 530 89 589 686 symbol 0;
#X obj 32 6 receive \$1-syms;
#X obj 59 73 s2l;
#X msg 106 695 set \$1;
#X obj 106 717 s \$1-symr;
#X obj 246 457 receive \$1-iemarg1;
#X obj 246 479 t f;
#X obj 207 465 demux;
#X obj 234 437 receive \$1-xym;
#X obj 222 234 receive \$1-thispat;
#X obj 59 404 t b a;
#X obj 59 95 list trim;
#X obj 86 430 s \$1-anymessage;
#X obj 116 404 list;
#X msg 149 592 symbol;
#X obj 299 682 list split 1;
#X msg 333 708 symbol \$3-\$2-\$1-bolo;
#X obj 320 734 send;
#X obj 320 548 list split 1;
#X obj 354 572 route 4;
#X obj 354 594 route y;
#X obj 398 548 receive \$1-ysize-2;
#X obj 354 616 list prepend x;
#X obj 393 659 list prepend 4;
#X obj 354 638 list prepend 5;
#X obj 445 616 receive \$1-xsize-2;
#X obj 32 51 t b a;
#X obj 32 141 s \$1-restartt;
#X obj 342 348 receive \$1-mouseone;
#X obj 342 393 demux 0 1 2;
#X obj 405 371 receive \$1-selon;
#X obj 59 119 route . *.;
#X obj 116 141 t a b;
#X obj 104 245 v \$1-messb;
#X obj 104 267 sel 0 1;
#X obj 87 382 send;
#X obj 153 163 sp01;
#X msg 104 289 symbol x;
#X msg 123 312 symbol y;
#X obj 87 163 t a b b b;
#X msg 138 225 symbol on;
#X msg 104 358 symbol \$3-\$1*.\$2;
#X obj 153 185 t b b b b;
#X msg 204 208 symbol off;
#X obj 104 336 pack s s \$1;
#X obj 194 682 receive \$1-rson;
#X obj 194 704 sel 1;
#X obj 194 726 t f;
#X obj 32 28 demux;
#X obj 70 28 receive \$1-morphon;
#X obj 70 51 s \$1-morphsy;
#X obj 234 596 t s s;
#X obj 201 618 symbol;
#X obj 201 570 receive \$1-rebsym;
#X obj 149 570 spigot 1;
#X obj 194 548 receive \$1-imoff;
#X obj 37 524 receive \$1-symres;
#X obj 116 499 si \$1 x y pattern 5 xy2 a 1 4 m;
#X obj 267 280 receive \$1-x-messon;
#X obj 282 256 receive \$1-y-messon;
#X obj 300 303 receive \$1-imon;
#X obj 267 327 spigot;
#X obj 342 371 t f f;
#X obj 267 371 t f;
#X obj 222 404 spigot 1;
#X obj 369 415 sel 0;
#X obj 369 437 f 1;
#X obj 267 349 t b;
#X text 323 326 turn off symbol auto-scroll when key on;
#X text 133 119 route off special cases;
#X text -7 316 deal with *. mode;
#X text 408 588 turrn toggle cross colour on and off;
#X text 60 623 set symbol;
#X obj 415 129 receive \$1-sreset;
#X obj 394 152 list;
#X obj 394 174 unpack;
#X text 430 154 reset symbol after playback;
#X obj 427 195 makefilename \$1-%dresymg;
#X obj 394 219 send;
#X obj 394 85 receive \$1-imoff;
#X obj 394 107 sel 1;
#X obj 106 673 spigot 1;
#X obj 151 650 receive \$1-morphon1;
#X obj 38 717 s \$1-symrr;
#X obj 149 524 si \$1 y x burst 3 yx2 b 0 2 n;
#X connect 0 0 47 0;
#X connect 1 0 10 0;
#X connect 2 0 3 0;
#X connect 4 0 5 0;
#X connect 5 0 56 1;
#X connect 6 0 56 1;
#X connect 6 1 83 1;
#X connect 7 0 6 1;
#X connect 8 0 63 0;
#X connect 9 0 51 0;
#X connect 9 1 11 0;
#X connect 10 0 30 0;
#X connect 12 0 56 0;
#X connect 12 0 83 0;
#X connect 13 0 80 0;
#X connect 14 0 16 0;
#X connect 14 1 15 0;
#X connect 15 0 16 1;
#X connect 17 0 16 0;
#X connect 17 1 18 0;
#X connect 18 0 19 0;
#X connect 18 1 15 0;
#X connect 19 0 21 0;
#X connect 19 1 22 0;
#X connect 20 0 18 1;
#X connect 20 0 22 1;
#X connect 21 0 23 0;
#X connect 22 0 15 0;
#X connect 23 0 15 0;
#X connect 24 0 23 1;
#X connect 25 0 26 0;
#X connect 25 1 1 0;
#X connect 27 0 61 0;
#X connect 28 0 56 2;
#X connect 28 0 83 2;
#X connect 29 0 28 1;
#X connect 30 0 9 0;
#X connect 30 1 38 0;
#X connect 30 2 31 0;
#X connect 31 0 12 0;
#X connect 31 1 35 0;
#X connect 32 0 33 0;
#X connect 33 0 36 0;
#X connect 33 1 37 0;
#X connect 35 0 41 0;
#X connect 36 0 43 0;
#X connect 37 0 43 0;
#X connect 38 0 34 0;
#X connect 38 1 32 0;
#X connect 38 2 35 2;
#X connect 38 3 39 0;
#X connect 39 0 43 1;
#X connect 40 0 34 1;
#X connect 41 0 34 0;
#X connect 41 1 32 0;
#X connect 41 2 35 1;
#X connect 41 3 42 0;
#X connect 42 0 43 1;
#X connect 43 0 40 0;
#X connect 44 0 45 0;
#X connect 45 0 46 0;
#X connect 46 0 16 0;
#X connect 47 0 25 0;
#X connect 47 1 49 0;
#X connect 48 0 47 1;
#X connect 50 0 51 1;
#X connect 50 1 80 0;
#X connect 51 0 80 0;
#X connect 52 0 51 0;
#X connect 53 0 13 0;
#X connect 54 0 53 1;
#X connect 55 0 13 0;
#X connect 56 0 53 0;
#X connect 56 1 50 0;
#X connect 56 2 14 0;
#X connect 57 0 60 0;
#X connect 58 0 60 0;
#X connect 59 0 60 1;
#X connect 60 0 66 0;
#X connect 61 0 28 0;
#X connect 61 1 64 0;
#X connect 62 0 63 1;
#X connect 63 0 6 0;
#X connect 64 0 65 0;
#X connect 65 0 63 1;
#X connect 66 0 62 0;
#X connect 72 0 73 1;
#X connect 73 0 74 0;
#X connect 74 0 77 0;
#X connect 74 1 76 0;
#X connect 76 0 77 1;
#X connect 78 0 79 0;
#X connect 79 0 73 0;
#X connect 80 0 2 0;
#X connect 80 0 82 0;
#X connect 81 0 80 1;
#X connect 83 0 53 0;
#X connect 83 1 50 0;
#X connect 83 2 17 0;
#X restore 46 328 pd symbol;
#N canvas 293 239 744 481 label-morph 0;
#X obj 310 67 unpack;
#X obj 343 214 t f;
#X obj 343 236 + 3;
#X obj 416 98 unpack;
#X obj 243 314 lmc;
#X obj 355 314 lmc;
#X obj 198 174 line 10;
#X obj 560 231 s2l;
#X msg 575 209 symbol;
#X obj 560 253 list length;
#X obj 198 196 t f f f f;
#X obj 215 314 + 4;
#X obj 215 292 * 6;
#X obj 215 342 pack f f f;
#X msg 215 364 label_font 0 \$1 \, label_pos \$2 \$3;
#X obj 61 292 sel 0 1;
#X obj 100 336 cyclone/onebang 1;
#X obj 61 314 t b b;
#X obj 533 209 t s s;
#X obj 100 314 t b;
#X obj 100 359 symbol;
#X msg 100 381 label \$1;
#X msg 198 150 \$1 \, \$2 200;
#X obj 306 236 + 102;
#X obj 422 237 + 102;
#X text 384 280 symbol toggle canvas;
#X obj 277 258 pack 0 62 124 102;
#X obj 389 259 pack 0 54 109 102;
#X obj 271 18 receive \$1-sl5;
#X obj 310 41 receive \$1-sl4;
#X obj 416 76 receive \$1-pixsize;
#X obj 416 124 lmt \$1 y 54;
#X obj 575 187 receive \$1-lb;
#X obj 343 192 receive \$1-paraml;
#X obj 449 151 lmt \$1 x 62;
#X msg 61 406 label \, label_pos 0 -12 \, label_font 1 12;
#X obj 198 128 t l b b b;
#X obj 269 149 s \$1-lbll;
#X obj 100 431 s \$1-preblock;
#X connect 0 0 26 3;
#X connect 0 1 27 3;
#X connect 1 0 2 0;
#X connect 2 0 26 2;
#X connect 3 0 31 0;
#X connect 3 1 34 0;
#X connect 4 0 13 1;
#X connect 5 0 13 2;
#X connect 6 0 10 0;
#X connect 7 0 9 0;
#X connect 8 0 7 1;
#X connect 9 0 4 2;
#X connect 10 0 15 0;
#X connect 10 1 12 0;
#X connect 10 2 4 0;
#X connect 10 3 5 0;
#X connect 11 0 13 0;
#X connect 12 0 11 0;
#X connect 13 0 14 0;
#X connect 14 0 38 0;
#X connect 15 0 17 0;
#X connect 15 1 17 0;
#X connect 15 2 19 0;
#X connect 16 0 20 0;
#X connect 17 0 35 0;
#X connect 17 1 16 1;
#X connect 18 0 20 1;
#X connect 18 1 7 0;
#X connect 19 0 16 0;
#X connect 20 0 21 0;
#X connect 21 0 38 0;
#X connect 22 0 6 0;
#X connect 23 0 26 1;
#X connect 24 0 27 1;
#X connect 26 0 4 1;
#X connect 27 0 5 1;
#X connect 28 0 0 0;
#X connect 29 0 0 0;
#X connect 30 0 3 0;
#X connect 31 0 36 0;
#X connect 31 1 23 0;
#X connect 31 2 24 0;
#X connect 31 3 18 0;
#X connect 32 0 8 0;
#X connect 33 0 1 0;
#X connect 34 0 36 0;
#X connect 34 1 24 0;
#X connect 34 2 23 0;
#X connect 34 3 18 0;
#X connect 35 0 38 0;
#X connect 36 0 22 0;
#X connect 36 1 26 0;
#X connect 36 2 27 0;
#X connect 36 3 37 0;
#X restore 46 268 pd label-morph;
#X text 49 12 MAJOR SYSTEMS;
#X text 42 238 MINOR SYSTEMS;
#X text 157 36 receive all mouse and keyboard data from the canvas
and distribute it;
#X text 159 74 match mouse data into a grid;
#X text 160 107 match grid to seletable areas;
#X text 159 145 create line for cursor;
#N canvas 236 89 678 679 cursor 0;
#X obj 168 350 pack f f f;
#X obj 225 254 *;
#X msg 168 578 pos \$1 102;
#X obj 168 505 demux;
#X obj 218 505 spigot;
#X obj 168 444 line 100 50;
#X msg 168 420 \$1 \, \$2 \$3;
#X obj 344 483 demux;
#X msg 344 508 102;
#X obj 168 329 + 100;
#X obj 201 305 + 100;
#X obj 168 305 * 12;
#X obj 201 281 * 12;
#X obj 225 116 demux;
#X obj 225 160 -;
#X obj 252 160 t f;
#X obj 225 206 /;
#X obj 168 76 t a a;
#X obj 168 533 demux;
#X msg 195 556 pos 102 \$1;
#X obj 221 656 s \$1-sl4;
#X obj 479 340 unpack f f;
#X obj 459 383 mux;
#X obj 479 295 t b a;
#X obj 479 317 list;
#X obj 459 418 /;
#X obj 398 482 + 97;
#X obj 371 508 f 145;
#X obj 168 54 receive \$1-slist;
#X obj 282 -2 receive \$1-rev;
#X obj 520 182 receive \$1-xym;
#X obj 195 470 receive \$1-morphon;
#X obj 354 449 receive \$1-ended1;
#X obj 240 230 receive \$1-del1000;
#X obj 479 273 receive \$1-cursorsz;
#N canvas 783 394 501 348 recalc 0;
#X obj 142 79 inlet;
#X obj 233 316 outlet;
#X obj 233 291 list prepend;
#X obj 233 196 -;
#X obj 142 101 unpack f f f;
#X obj 233 171 swap;
#X obj 233 101 receive \$1-started;
#X obj 233 147 timer;
#X obj 233 221 /;
#X obj 293 33 receive \$1-imon;
#X obj 233 247 *;
#X obj 260 77 t b f;
#X obj 233 269 t f f f b;
#X obj 233 123 t b;
#X obj 260 55 spigot;
#X obj 260 10 receive \$1-del1000;
#X connect 0 0 4 0;
#X connect 2 0 1 0;
#X connect 3 0 8 0;
#X connect 4 1 2 1;
#X connect 4 2 5 1;
#X connect 4 2 8 1;
#X connect 5 0 3 0;
#X connect 5 1 3 1;
#X connect 6 0 13 0;
#X connect 7 0 5 0;
#X connect 8 0 10 0;
#X connect 9 0 14 1;
#X connect 10 0 12 0;
#X connect 11 0 7 1;
#X connect 11 1 10 1;
#X connect 12 0 2 0;
#X connect 12 1 8 1;
#X connect 12 2 5 1;
#X connect 12 3 7 0;
#X connect 13 0 7 0;
#X connect 14 0 11 0;
#X connect 15 0 14 0;
#X restore 195 396 pd recalc;
#X obj 168 372 t l l;
#X obj 520 204 t b f f;
#X obj 187 633 list split 1;
#X obj 225 138 swap;
#X obj 498 388 t b f;
#X obj 498 366 receive \$1-xy21;
#X obj 380 27 receive \$1-stone;
#X obj 240 183 receive \$1-xy21;
#X obj 168 98 unpack;
#X obj 282 25 t f f b f;
#X obj 398 582 receive \$0-labonoff;
#X obj 168 686 s \$1-block;
#X obj 168 605 t a a a;
#X obj 365 605 spigot;
#X obj 365 628 unpack s f f;
#X obj 434 675 -;
#X obj 374 652 swap 102;
#X obj 374 675 -;
#X obj 374 703 pack;
#X obj 434 652 swap 90;
#X msg 374 726 label_pos \$1 \$2;
#X connect 0 0 36 0;
#X connect 1 0 0 2;
#X connect 2 0 48 0;
#X connect 3 0 18 0;
#X connect 4 0 18 0;
#X connect 5 0 3 0;
#X connect 6 0 5 0;
#X connect 7 0 8 0;
#X connect 7 1 27 0;
#X connect 8 0 5 0;
#X connect 9 0 0 0;
#X connect 10 0 0 1;
#X connect 11 0 9 0;
#X connect 12 0 10 0;
#X connect 13 0 39 0;
#X connect 13 1 15 0;
#X connect 14 0 16 0;
#X connect 15 0 16 0;
#X connect 16 0 1 0;
#X connect 17 0 44 0;
#X connect 17 1 13 0;
#X connect 18 0 2 0;
#X connect 18 1 19 0;
#X connect 19 0 48 0;
#X connect 21 0 22 0;
#X connect 21 1 22 1;
#X connect 22 0 25 0;
#X connect 22 0 26 0;
#X connect 23 0 24 0;
#X connect 23 1 24 1;
#X connect 24 0 21 0;
#X connect 25 0 12 1;
#X connect 25 0 11 1;
#X connect 26 0 4 0;
#X connect 26 0 27 1;
#X connect 27 0 5 0;
#X connect 28 0 17 0;
#X connect 29 0 45 0;
#X connect 30 0 37 0;
#X connect 31 0 3 1;
#X connect 32 0 7 0;
#X connect 33 0 1 1;
#X connect 34 0 23 0;
#X connect 35 0 5 0;
#X connect 36 0 6 0;
#X connect 36 1 35 0;
#X connect 37 0 24 0;
#X connect 37 1 18 1;
#X connect 37 2 22 2;
#X connect 38 1 20 0;
#X connect 39 0 14 0;
#X connect 39 1 14 1;
#X connect 40 0 25 0;
#X connect 40 1 25 1;
#X connect 41 0 40 0;
#X connect 43 0 16 1;
#X connect 44 0 11 0;
#X connect 44 1 12 0;
#X connect 45 0 4 1;
#X connect 45 1 13 1;
#X connect 45 2 7 0;
#X connect 45 3 7 1;
#X connect 46 0 49 1;
#X connect 48 0 47 0;
#X connect 48 1 38 0;
#X connect 48 2 49 0;
#X connect 49 0 50 0;
#X connect 50 1 52 0;
#X connect 50 2 55 0;
#X connect 51 0 54 1;
#X connect 52 0 53 0;
#X connect 52 1 53 1;
#X connect 53 0 54 0;
#X connect 54 0 56 0;
#X connect 55 0 51 0;
#X connect 55 1 51 1;
#X connect 56 0 47 0;
#X restore 49 146 pd cursor;
#X text 154 356 colour next burst toggles on mouseover;
#N canvas 335 89 891 679 atoms 0;
#X msg 84 464 dirty 0;
#X obj 228 587 s \$1-dr;
#X obj 298 543 s \$1-symr;
#X msg 180 600 \$1 101;
#X obj 194 445 list append $ 0;
#X obj 136 -87 t f f;
#X obj 163 -36 <=;
#X obj 129 2 mux;
#X obj 180 636 iemguts/canvasobjectposition 3 16;
#X obj 84 348 spigot;
#X obj 168 115 spigot;
#X obj 271 23 + 1;
#X obj 271 54 t f f;
#X obj -33 -130 t f f;
#X obj 129 93 moses 0;
#X obj 18 289 iemguts/sendcanvas 3;
#X msg 511 591 \$1 101;
#X obj 511 566 change 101;
#X obj 511 614 iemguts/canvasobjectposition 3 16;
#X msg 14 244 menu-open;
#X msg 204 332 20 1 1 20;
#X obj 187 260 t b b b b;
#X obj 199 283 t b b b b;
#X obj 381 216 spigot;
#X obj 338 189 t b f b;
#X obj 338 216 spigot;
#X obj 338 238 t b f f;
#X msg 493 164 sym_pos \, del_size \, sym_size \, del_pos;
#X msg 216 355 101 1 1 20;
#X obj 187 237 sel 0 1 2;
#X obj 221 307 t b b b b;
#X msg 238 378 20 2 1 101;
#X msg 228 565 param \$2 0 0 - - \$5\$6-dr \$5\$6-:d2;
#X msg 298 522 param \$3 0 0 - - \$5\$6-symr \$5\$6-syms;
#X obj -6 -61 t b f;
#X obj 201 -36 == 1;
#X obj 201 -14 t b f;
#X obj 129 49 demux;
#X msg 156 70 0;
#X obj 129 25 f 6;
#X msg -30 244 vis 0;
#X obj 168 165 pipe 1000;
#X obj 236 -36 receive \$1-entryon;
#X obj -33 -152 receive \$1-zsize-2;
#X obj 136 -111 receive \$1-cursorsz;
#X obj 201 -58 receive \$1-ysize-2;
#X obj 271 1 receive \$1-graphic;
#X obj 296 23 receive \$1-foury;
#X obj 285 80 receive \$1-savestart;
#X obj 84 326 receive \$1-paramorph;
#X obj 426 242 pack f \$1;
#X obj 426 264 s paraquery";
#X obj 340 323 receive \$1-paramy;
#X obj 168 191 t b f f;
#X obj 84 370 t b f;
#X obj 194 504 s \$1-paraml;
#X obj 207 214 s \$1-paramo;
#X obj 680 448 receive \$1-symset;
#X msg 680 470 set \$1;
#X msg 650 426 set PROPERTIES;
#X obj 520 359 symbol \$0-flfetch;
#X obj 520 424 unpack s f;
#X obj 520 293 sel 0;
#X msg 577 454 set \$1;
#X obj 547 337 t f;
#X obj 547 315 t b b;
#X obj 650 405 del 701;
#X text 627 334 alter atoms on morph;
#X obj 2 410 receive \$1-dirtyy;
#X obj 520 271 receive \$1-morphon;
#X obj 557 293 s \$1-rebsym;
#X obj 520 381 s \$1-d-fetch;
#X obj 520 402 receive \$1-flfetch;
#X obj 699 405 receive \$1-symprop;
#X obj 611 -31 demux;
#X obj 534 40 sel 0;
#X obj 611 45 demux;
#X obj 619 -53 t f f;
#X obj 619 23 t f f;
#X obj 611 -98 receive \$1-:d2;
#X obj 619 -75 receive \$1-entryon;
#X obj 619 1 receive \$1-morphon;
#X obj 638 70 s \$1-morphf;
#X obj 611 96 s \$1-:d;
#X obj 534 106 v \$1-:d;
#X obj 534 84 del 701;
#X obj 534 62 spigot;
#X obj -44 542 sz zsize 31 \$1 5 0 Z;
#X obj 369 591 receive \$1-lb;
#X obj 168 143 demux;
#X obj 511 542 cyclone/zl nth 4;
#X obj 84 441 del 1;
#X obj 194 468 t a a a a;
#X obj 271 496 t a a;
#X obj 414 188 f 1;
#X obj 369 614 f 16;
#X obj 706 590 f 15;
#X text 365 435 <-- NOTE: This means that atoms will not resize in
a subpatch. Maybe find a workaround involving vis 1?, f 22;
#X obj 285 102 t f f;
#X obj 271 473 demux;
#X obj 309 473 t b a b;
#X msg 112 586 menu-open;
#X msg 69 586 vis 0;
#X obj 340 346 t b l b;
#X msg -44 565 label :\$2 \$1;
#X obj 19 -107 receive \$1-xsymoff;
#X obj 9 -130 receive \$1-xsymsize;
#X obj 19 -84 * 2;
#X obj -6 -107 * 6;
#X obj -6 -84 + 4;
#X obj 136 -63 div 6;
#X obj 21 -14 - 5;
#X obj 36 -61 - 1;
#X obj 136 -40 - 1;
#X obj -44 588 s \$1-preblock;
#X connect 0 0 15 0;
#X connect 3 0 8 0;
#X connect 4 0 92 0;
#X connect 5 0 110 0;
#X connect 5 1 6 0;
#X connect 6 0 7 2;
#X connect 7 0 39 0;
#X connect 9 0 54 0;
#X connect 10 0 89 0;
#X connect 11 0 12 0;
#X connect 12 0 10 1;
#X connect 12 1 9 1;
#X connect 13 0 7 0;
#X connect 13 1 108 0;
#X connect 14 1 10 0;
#X connect 16 0 18 0;
#X connect 17 0 16 0;
#X connect 19 0 15 0;
#X connect 20 0 4 0;
#X connect 21 0 40 0;
#X connect 21 1 20 0;
#X connect 21 2 19 0;
#X connect 21 3 94 0;
#X connect 22 0 40 0;
#X connect 22 1 28 0;
#X connect 22 2 19 0;
#X connect 22 3 94 0;
#X connect 23 0 19 0;
#X connect 24 0 25 0;
#X connect 24 1 50 0;
#X connect 24 2 23 0;
#X connect 25 0 26 0;
#X connect 26 0 40 0;
#X connect 26 1 25 1;
#X connect 26 2 23 1;
#X connect 28 0 4 0;
#X connect 29 0 21 0;
#X connect 29 1 22 0;
#X connect 29 2 30 0;
#X connect 29 3 24 0;
#X connect 30 0 40 0;
#X connect 30 1 31 0;
#X connect 30 2 19 0;
#X connect 30 3 94 0;
#X connect 31 0 4 0;
#X connect 32 0 1 0;
#X connect 33 0 2 0;
#X connect 34 0 6 0;
#X connect 34 1 6 1;
#X connect 35 0 36 0;
#X connect 36 0 39 0;
#X connect 36 1 37 1;
#X connect 37 0 14 0;
#X connect 37 1 38 0;
#X connect 38 0 10 0;
#X connect 39 0 37 0;
#X connect 40 0 15 0;
#X connect 41 0 53 0;
#X connect 42 0 36 0;
#X connect 43 0 13 0;
#X connect 44 0 5 0;
#X connect 45 0 35 0;
#X connect 46 0 11 0;
#X connect 47 0 12 0;
#X connect 48 0 98 0;
#X connect 49 0 9 0;
#X connect 50 0 51 0;
#X connect 52 0 103 0;
#X connect 53 0 91 0;
#X connect 53 1 29 0;
#X connect 53 2 56 0;
#X connect 54 0 91 0;
#X connect 54 1 29 0;
#X connect 57 0 58 0;
#X connect 58 0 2 0;
#X connect 59 0 2 0;
#X connect 60 0 71 0;
#X connect 61 1 63 0;
#X connect 62 0 60 0;
#X connect 62 0 70 0;
#X connect 62 1 65 0;
#X connect 63 0 1 0;
#X connect 64 0 63 0;
#X connect 65 0 64 0;
#X connect 65 1 66 0;
#X connect 66 0 59 0;
#X connect 68 0 91 0;
#X connect 69 0 62 0;
#X connect 72 0 61 0;
#X connect 73 0 59 0;
#X connect 74 0 76 0;
#X connect 75 0 86 0;
#X connect 76 0 83 0;
#X connect 76 1 82 0;
#X connect 77 0 75 0;
#X connect 77 1 74 1;
#X connect 78 0 75 0;
#X connect 78 1 76 1;
#X connect 79 0 74 0;
#X connect 80 0 77 0;
#X connect 81 0 78 0;
#X connect 84 0 63 0;
#X connect 85 0 84 0;
#X connect 86 0 85 0;
#X connect 87 0 104 0;
#X connect 88 0 95 0;
#X connect 88 0 96 0;
#X connect 89 0 41 0;
#X connect 89 1 53 0;
#X connect 90 0 17 0;
#X connect 91 0 0 0;
#X connect 92 0 55 0;
#X connect 92 1 3 0;
#X connect 92 2 99 0;
#X connect 92 3 90 0;
#X connect 93 0 32 0;
#X connect 93 1 33 0;
#X connect 94 0 23 1;
#X connect 94 0 25 1;
#X connect 95 0 8 1;
#X connect 96 0 18 1;
#X connect 98 0 89 1;
#X connect 98 1 86 1;
#X connect 99 0 93 0;
#X connect 99 1 100 0;
#X connect 100 0 102 0;
#X connect 100 1 93 0;
#X connect 100 2 101 0;
#X connect 103 0 40 0;
#X connect 103 1 4 0;
#X connect 103 2 19 0;
#X connect 104 0 114 0;
#X connect 105 0 107 0;
#X connect 106 0 108 1;
#X connect 106 0 110 1;
#X connect 107 0 109 1;
#X connect 107 0 112 0;
#X connect 108 0 109 0;
#X connect 109 0 34 0;
#X connect 110 0 113 0;
#X connect 111 0 7 1;
#X connect 112 0 111 1;
#X connect 113 0 7 1;
#X restore 46 380 pd atoms;
#X text 154 381 set size and position for float and symbol atoms;
#X text 154 326 interface symbol atom with databases;
#X text 152 408 identiy symbol scroll command from mouse data;
#X text 154 299 set colour scheme;
#X text 153 438 process find command;
#N canvas 568 89 548 679 xy-morph 0;
#X obj 204 95 sel 0 1;
#X msg 234 213 2 \$1;
#X msg 312 212 \$1 2;
#X obj 327 290 unpack f f;
#X obj 261 312 line 0 50;
#X obj 261 335 t f f;
#X obj 261 265 t b a;
#X obj 312 188 f 46;
#X obj 234 188 f 34;
#X obj 281 555 pack f f;
#X obj 299 390 demux;
#X obj 261 390 demux;
#X msg 281 577 vis_size \$1 \$2;
#X obj 308 419 demux;
#X obj 396 419 demux;
#X msg 308 441 2;
#X msg 423 440 2;
#X obj 299 502 t b f f;
#X obj 171 445 spigot;
#X obj 281 523 t f f;
#X obj 64 445 spigot;
#X obj 64 491 -;
#X obj 171 491 -;
#X obj 64 553 pack f f;
#X msg 64 598 pos \$1 \$2;
#X obj 171 536 t b f;
#X obj 261 358 pow 4;
#X obj 299 358 pow 0.25;
#X obj 234 242 demux;
#X obj 64 513 + 101;
#X obj 171 514 + 101;
#X obj 64 575 t a a;
#X obj 90 622 s \$1-tpos;
#X msg 261 290 0 \, 1 500;
#X obj 204 75 t f f f f f f;
#X obj 319 75 f;
#X obj 319 97 s \$1-xym-2;
#X obj 369 475 sf 46;
#X obj 281 475 sf 2;
#X obj 459 100 - 2;
#X obj 426 101 - 2;
#X obj 281 602 s \$1-block;
#X obj 319 51 receive \$1-colobang;
#X obj 426 30 receive \$1-cursorsz;
#X obj 205 54 receive \$1-xym;
#X obj 351 213 receive \$1-savestart;
#X obj 159 358 receive \$1-rev;
#X obj 426 77 unpack;
#X obj 64 467 swap;
#X obj 171 467 swap;
#X connect 0 0 8 0;
#X connect 0 1 7 0;
#X connect 1 0 28 0;
#X connect 2 0 28 0;
#X connect 3 0 38 1;
#X connect 3 1 37 1;
#X connect 4 0 5 0;
#X connect 5 0 26 0;
#X connect 5 1 27 0;
#X connect 6 0 33 0;
#X connect 6 1 3 0;
#X connect 7 0 2 0;
#X connect 8 0 1 0;
#X connect 9 0 12 0;
#X connect 10 0 38 0;
#X connect 10 1 37 0;
#X connect 11 0 37 0;
#X connect 11 1 38 0;
#X connect 12 0 41 0;
#X connect 13 0 15 0;
#X connect 13 1 38 2;
#X connect 14 0 37 2;
#X connect 14 1 16 0;
#X connect 15 0 38 2;
#X connect 16 0 37 2;
#X connect 17 0 9 0;
#X connect 17 1 9 1;
#X connect 17 2 18 0;
#X connect 18 0 49 0;
#X connect 19 0 9 0;
#X connect 19 1 20 0;
#X connect 20 0 48 0;
#X connect 21 0 29 0;
#X connect 22 0 30 0;
#X connect 23 0 31 0;
#X connect 24 0 41 0;
#X connect 25 0 23 0;
#X connect 25 1 23 1;
#X connect 26 0 11 0;
#X connect 27 0 10 0;
#X connect 28 0 12 0;
#X connect 28 1 6 0;
#X connect 29 0 23 0;
#X connect 30 0 25 0;
#X connect 31 0 24 0;
#X connect 31 1 32 0;
#X connect 33 0 4 0;
#X connect 34 0 0 0;
#X connect 34 1 10 1;
#X connect 34 2 11 1;
#X connect 34 3 13 1;
#X connect 34 4 14 1;
#X connect 34 5 35 1;
#X connect 35 0 36 0;
#X connect 37 0 17 0;
#X connect 38 0 19 0;
#X connect 39 0 8 1;
#X connect 39 0 13 0;
#X connect 39 0 49 1;
#X connect 40 0 7 1;
#X connect 40 0 14 0;
#X connect 40 0 48 1;
#X connect 42 0 35 0;
#X connect 43 0 47 0;
#X connect 44 0 34 0;
#X connect 45 0 28 1;
#X connect 46 0 18 1;
#X connect 46 0 20 1;
#X connect 47 0 40 0;
#X connect 47 1 39 0;
#X connect 48 0 21 0;
#X connect 48 1 21 1;
#X connect 49 0 22 0;
#X connect 49 1 22 1;
#X restore 46 468 pd xy-morph;
#X text 153 468 morph cursor on axis switch;
#X text 152 499 morph GUI on property bang;
#X text 151 530 swap i/j floats from mouse data;
#X text 149 562 calculate new cycle time when cycle is interrupted
with new :d value;
#X text 150 598 select mouse cursor type (not working);
#X obj 47 654 zd \$1 y 4;
#X obj 46 628 zd \$1 x 5;
#X text 180 638 process zoom from mouse data;
#X text 153 269 create symbol text graphic;
#N canvas 67 89 837 663 labeler 0;
#X obj 30 -5 receive \$1-saveset;
#X obj 254 146 sel 0 1;
#X msg 437 439 label \$1;
#X msg 388 439 label;
#X obj 444 368 l2s;
#X obj 264 423 pack f f;
#X obj 252 401 t b;
#X obj 254 218 int;
#X obj 254 124 receive \$1-nextmon;
#X obj 444 344 receive \$1-nextm;
#X obj 252 351 receive \$1-primary-col;
#X obj 437 322 l2s;
#X obj 437 299 receive \$1-message2;
#X obj 437 391 mux;
#X obj 452 231 receive \$1-eitherkey;
#X obj 437 414 sp01;
#X obj 452 276 t b b;
#X obj 452 253 t b f;
#X obj 412 253 t b b;
#X obj 30 17 spigot;
#X obj 154 -27 receive \$1-savestart;
#X obj 142 160 t b b b a;
#X msg 264 448 color \$2 0 \$1;
#X obj 61 91 list trim;
#X obj 61 113 route %^;
#X obj 254 263 pack f \$0;
#X obj 254 285 s fadequer^^;
#X obj 199 308 receive \$0-fadeq;
#X obj 154 -4 receive \$1-morphon1;
#X obj 193 219 l2s;
#X obj 93 24 receive \$1-lab;
#X obj 148 374 f -1;
#X obj 61 137 route :g :a :b :X :Y :Z;
#X obj 148 351 receive \$1-lbll;
#X obj 254 196 line 0 400;
#X obj 252 378 unpack f f f f;
#X obj 142 104 receive \$1-jlab;
#X msg 254 172 18 2000;
#X msg 310 172 23 2000;
#X obj 254 240 change 18;
#X obj 176 183 f 23;
#X obj 30 46 demux 0 1 2;
#X obj 388 515 mux;
#X obj 264 13 == 2;
#X obj 291 60 sel 1;
#X obj 264 36 t f f;
#X obj 452 28 f 1;
#X obj 413 80 s \$1-stealprint;
#X obj 438 57 s \$1-printall;
#X obj 502 408 receive \$1-stoleprint;
#X obj 502 431 l2s;
#X msg 502 454 label \$1;
#X obj 191 480 receive \$1-preblock;
#X obj 291 96 f 23;
#X obj 413 -21 del;
#X obj 413 -44 t b;
#X obj 413 4 t f b b;
#X msg 402 154 label;
#X obj 327 103 f 18;
#X obj 388 314 t b b b;
#X obj 363 551 t a a;
#X obj 363 594 s \$1-block;
#X obj 480 523 route label;
#X obj 480 546 route bang;
#X obj 480 569 t f;
#X msg 537 569 1;
#X obj 480 597 s \$0-labonoff;
#X obj 388 289 del 2000;
#X obj 327 80 t b b;
#X obj 191 534 spigot;
#X obj 224 508 t f;
#X obj 250 508 receive \$1-savestart;
#X obj 313 480 f 1;
#X connect 0 0 19 0;
#X connect 1 0 37 0;
#X connect 1 0 67 0;
#X connect 1 0 70 0;
#X connect 1 1 38 0;
#X connect 1 1 18 0;
#X connect 2 0 42 0;
#X connect 3 0 42 0;
#X connect 4 0 13 1;
#X connect 5 0 22 0;
#X connect 6 0 5 0;
#X connect 7 0 39 0;
#X connect 8 0 1 0;
#X connect 9 0 4 0;
#X connect 10 0 35 0;
#X connect 11 0 13 0;
#X connect 12 0 11 0;
#X connect 13 0 15 0;
#X connect 14 0 17 0;
#X connect 15 0 2 0;
#X connect 16 0 11 0;
#X connect 16 1 4 0;
#X connect 17 0 16 0;
#X connect 17 1 13 2;
#X connect 18 0 16 0;
#X connect 18 1 15 2;
#X connect 19 0 41 0;
#X connect 20 0 19 1;
#X connect 21 0 67 0;
#X connect 21 0 70 0;
#X connect 21 1 37 0;
#X connect 21 2 40 0;
#X connect 21 3 29 0;
#X connect 22 0 42 0;
#X connect 23 0 24 0;
#X connect 24 0 32 0;
#X connect 24 1 32 0;
#X connect 25 0 26 0;
#X connect 27 0 5 0;
#X connect 28 0 19 1;
#X connect 29 0 2 0;
#X connect 30 0 43 0;
#X connect 30 0 41 1;
#X connect 31 0 5 0;
#X connect 32 6 21 0;
#X connect 33 0 31 0;
#X connect 34 0 7 0;
#X connect 35 0 6 0;
#X connect 35 3 5 1;
#X connect 36 0 21 0;
#X connect 37 0 34 0;
#X connect 38 0 34 0;
#X connect 39 0 25 0;
#X connect 40 0 34 0;
#X connect 41 1 23 0;
#X connect 41 2 55 0;
#X connect 42 0 60 0;
#X connect 43 0 45 0;
#X connect 44 0 53 0;
#X connect 44 0 54 0;
#X connect 44 1 68 0;
#X connect 45 0 42 2;
#X connect 45 1 44 0;
#X connect 46 0 47 0;
#X connect 49 0 50 0;
#X connect 50 0 51 0;
#X connect 51 0 42 1;
#X connect 52 0 69 0;
#X connect 53 0 25 0;
#X connect 54 0 56 0;
#X connect 55 0 54 0;
#X connect 56 0 47 0;
#X connect 56 1 48 0;
#X connect 56 2 46 0;
#X connect 57 0 60 0;
#X connect 58 0 25 0;
#X connect 59 0 3 0;
#X connect 59 1 15 1;
#X connect 59 2 72 0;
#X connect 60 0 61 0;
#X connect 60 1 62 0;
#X connect 62 0 63 0;
#X connect 63 0 64 0;
#X connect 63 1 65 0;
#X connect 64 0 66 0;
#X connect 65 0 66 0;
#X connect 67 0 59 0;
#X connect 68 0 58 0;
#X connect 68 1 57 0;
#X connect 69 0 42 0;
#X connect 70 0 69 1;
#X connect 71 0 69 1;
#X connect 72 0 69 1;
#X restore 47 678 pd labeler;
#X text 163 678 draw labels from input commands;
#N canvas 397 287 766 300 mouse-cursor 0;
#X obj 94 69 change;
#X obj 213 69 change;
#X obj 333 69 change;
#X obj 94 25 receive \$1-Xcurs;
#X obj 213 25 receive \$1-Ycurs;
#X obj 333 25 receive \$1-Zcurs;
#X obj 213 91 * 2;
#X obj 333 91 * 3;
#X obj 94 47 == 3;
#X obj 213 47 == 3;
#X obj 333 47 == 3;
#X obj 213 265 s ^&*allcurs;
#X obj 213 210 pack f s;
#X obj 466 72 receive \$1-lb;
#X obj 466 94 hcs/canvas_name 4;
#X obj 335 121 receive \$1-tocurs;
#X obj 466 116 list fromsymbol;
#X obj 466 138 cyclone/zl rev;
#X obj 466 160 list split 2;
#X obj 500 182 cyclone/zl rev;
#X obj 500 204 list tosymbol;
#X obj 252 233 receive \$1-edit;
#X obj 213 233 demux;
#X connect 0 0 12 0;
#X connect 1 0 6 0;
#X connect 2 0 7 0;
#X connect 3 0 8 0;
#X connect 4 0 9 0;
#X connect 5 0 10 0;
#X connect 6 0 12 0;
#X connect 7 0 12 0;
#X connect 8 0 0 0;
#X connect 9 0 1 0;
#X connect 10 0 2 0;
#X connect 12 0 22 0;
#X connect 13 0 14 0;
#X connect 14 0 16 0;
#X connect 15 0 12 0;
#X connect 16 0 17 0;
#X connect 17 0 18 0;
#X connect 18 1 19 0;
#X connect 19 0 20 0;
#X connect 20 0 12 1;
#X connect 21 0 22 1;
#X connect 22 0 11 0;
#X restore 47 598 pd mouse-cursor;
#X connect 7 0 8 0;
