#N canvas 65 139 571 431 10;
#X obj 76 58 inlet;
#X obj 110 112 * 60;
#X obj 214 113 * 720;
#X obj 214 199 s \$1-dr;
#X obj 214 170 adder;
#X obj 76 82 route m M minute minutes h H hour hours;
#X obj 241 143 receive \$1-delna;
#X connect 0 0 5 0;
#X connect 1 0 4 0;
#X connect 2 0 4 0;
#X connect 4 0 3 0;
#X connect 5 0 1 0;
#X connect 5 1 1 0;
#X connect 5 2 1 0;
#X connect 5 3 1 0;
#X connect 5 4 2 0;
#X connect 5 5 2 0;
#X connect 5 6 2 0;
#X connect 5 7 2 0;
#X connect 5 8 4 0;
#X connect 6 0 4 1;
