#N canvas 333 163 540 430 10;
#X obj 206 139 abs;
#X obj 189 211 change;
#X obj 189 61 inlet;
#X obj 206 162 s delay\$1s;
#X obj 189 235 s \$1-revr;
#X obj 189 187 <;
#X obj 223 116 s \$1-delna;
#X obj 314 153 f;
#X obj 314 91 t b b;
#X obj 371 113 t b b;
#X obj 390 89 t b b;
#X obj 341 153 cyclone/funnel 3;
#X obj 314 205 demux 0 1 2;
#X obj 314 39 route bang;
#X obj 371 65 sel 1 0;
#X obj 314 262 * -1;
#X obj 345 229 abs;
#X obj 377 228 abs;
#X obj 341 175 t f;
#X obj 189 86 t f f f f;
#X obj 314 17 receive \$1-revme;
#X obj 314 291 s \$1-dr;
#X connect 0 0 3 0;
#X connect 1 0 4 0;
#X connect 2 0 19 0;
#X connect 5 0 1 0;
#X connect 7 0 12 0;
#X connect 8 0 7 0;
#X connect 8 1 11 0;
#X connect 9 0 7 0;
#X connect 9 1 11 1;
#X connect 10 0 7 0;
#X connect 10 1 11 2;
#X connect 11 0 18 0;
#X connect 12 0 15 0;
#X connect 12 1 16 0;
#X connect 12 2 17 0;
#X connect 13 0 8 0;
#X connect 13 1 14 0;
#X connect 14 0 9 0;
#X connect 14 1 10 0;
#X connect 15 0 21 0;
#X connect 16 0 15 0;
#X connect 17 0 21 0;
#X connect 18 0 12 1;
#X connect 19 0 5 0;
#X connect 19 1 0 0;
#X connect 19 2 6 0;
#X connect 19 3 7 1;
#X connect 20 0 13 0;
