#N canvas 131 181 450 300 10;
#X obj 139 26 inlet;
#X obj 137 140 outlet;
#N canvas 508 216 457 430 guts 1;
#X obj 230 289 iemguts/sendcanvas 1;
#X obj 193 318 iemguts/canvasdelete 1;
#X obj 200 38 spigot 1;
#X obj 281 168 t f;
#X obj 200 13 receive \$1-dvstart;
#X obj 193 168 t b b b f b;
#X msg 248 215 obj 120 120 value \$1-\$2;
#X obj 248 193 list append \$2;
#X obj 217 132 outlet;
#X obj 149 61 ../config;
#X msg 230 238 connect 4 7 5 0;
#X msg 211 261 connect 5 0 1 0;
#X obj 217 108 makefilename %d-\$2;
#X msg 260 132 connect 2 0 3 1;
#X obj 200 85 t b f b b;
#X text 38 143 Currently \, the value connects for 0.48 \, as there
is no 2nd inlet in 0.47. Maybe change his after a while., f 19;
#X connect 2 0 9 3;
#X connect 3 0 2 1;
#X connect 4 0 2 0;
#X connect 5 0 1 0;
#X connect 5 1 11 0;
#X connect 5 2 10 0;
#X connect 5 3 7 0;
#X connect 5 4 3 0;
#X connect 6 0 0 0;
#X connect 7 0 6 0;
#X connect 9 7 5 0;
#X connect 9 8 14 0;
#X connect 10 0 0 0;
#X connect 11 0 0 0;
#X connect 12 0 8 0;
#X connect 13 0 0 0;
#X connect 14 0 1 0;
#X connect 14 1 12 0;
#X connect 14 2 13 0;
#X connect 14 3 3 0;
#X restore 201 66 pd guts;
#X obj 174 94 value;
#X obj -44 62 ../config, f 31;
#X connect 0 0 4 3;
#X connect 3 0 1 0;
#X connect 4 8 3 0;
