#N canvas 319 181 450 300 10;
#X obj 139 46 inlet;
#X obj 137 140 outlet;
#N canvas 696 216 520 352 guts 1;
#X obj 230 189 iemguts/sendcanvas 1;
#X msg 230 138 connect 0 0 3 0;
#X msg 211 161 connect 3 0 1 0;
#X obj 193 218 iemguts/canvasdelete 1;
#X obj 193 38 spigot 1;
#X obj 281 68 t f;
#X obj 193 16 receive \$1-dvstart;
#X obj 193 68 t b b b f b;
#X msg 248 115 obj 120 120 value \$1-\$2;
#X obj 248 93 list append \$2;
#X connect 1 0 0 0;
#X connect 2 0 0 0;
#X connect 4 0 7 0;
#X connect 5 0 4 1;
#X connect 6 0 4 0;
#X connect 7 0 3 0;
#X connect 7 1 2 0;
#X connect 7 2 1 0;
#X connect 7 3 9 0;
#X connect 7 4 5 0;
#X connect 8 0 0 0;
#X connect 9 0 8 0;
#X restore 230 78 pd guts;
