#N canvas 472 183 450 300 10;
#X obj 180 63 inlet;
#X obj 190 171 outlet;
#X obj 217 40 spigot 1;
#X obj 217 15 receive \$1-dvstart;
#X obj 217 108 makefilename %d-\$2;
#X obj 217 63 t f b;
#X obj 244 86 t f;
#X obj 190 134 value;
#X connect 0 0 7 0;
#X connect 2 0 5 0;
#X connect 3 0 2 0;
#X connect 4 0 7 1;
#X connect 5 0 4 0;
#X connect 5 1 6 0;
#X connect 6 0 2 1;
#X connect 7 0 1 0;
