#N canvas 328 169 450 300 10;
#X obj 139 46 inlet;
#X obj 137 140 outlet;
#N canvas 705 204 520 352 guts 1;
#X msg 232 112 obj 120 120 \$2 \$1-\$3;
#X obj 232 90 list append \$2 \$3;
#X obj 232 305 iemguts/sendcanvas 1;
#X msg 239 218 connect 0 0 3 0;
#X msg 212 241 connect 3 0 1 0;
#X obj 212 136 symbol \$2;
#X obj 193 265 iemguts/canvasdelete 1;
#X obj 212 182 t b b;
#X obj 193 38 spigot 1;
#X obj 193 68 t b b f b;
#X obj 268 57 t f;
#X obj 193 16 receive \$1-dvstart;
#X obj 212 158 sel v value s send r receive;
#X connect 0 0 2 0;
#X connect 1 0 0 0;
#X connect 3 0 2 0;
#X connect 4 0 2 0;
#X connect 5 0 12 0;
#X connect 7 0 4 0;
#X connect 7 1 3 0;
#X connect 8 0 9 0;
#X connect 9 0 6 0;
#X connect 9 1 5 0;
#X connect 9 2 1 0;
#X connect 9 3 10 0;
#X connect 10 0 8 1;
#X connect 11 0 8 0;
#X connect 12 0 7 0;
#X connect 12 1 7 0;
#X connect 12 2 3 0;
#X connect 12 3 3 0;
#X connect 12 4 4 0;
#X connect 12 5 4 0;
#X connect 12 6 7 0;
#X restore 230 78 pd guts;
