#N canvas 370 134 450 300 10;
#X obj 148 106 s2l;
#X obj 148 83 iemguts/canvasdollarzero \$2;
#X obj 148 150 s \$1-dvstart;
#X obj 95 106 outlet;
#X obj 121 60 t b b;
#X obj 121 35 \$3;
#X connect 0 0 2 0;
#X connect 1 0 0 0;
#X connect 4 0 3 0;
#X connect 4 1 1 0;
#X connect 5 0 4 0;
