#N canvas 65 89 450 300 10;
#X obj 148 128 list trim;
#X obj 148 106 s2l;
#X obj 111 39 inlet;
#X obj 148 83 iemguts/canvasdollarzero \$2;
#X obj 148 150 s \$1-dvstart;
#X obj 95 106 outlet;
#X obj 121 60 t b b;
#X obj 148 39 loadbang;
#X connect 0 0 4 0;
#X connect 1 0 0 0;
#X connect 2 0 6 0;
#X connect 3 0 1 0;
#X connect 6 0 5 0;
#X connect 6 1 3 0;
#X connect 7 0 6 0;
