#N canvas 378 183 450 300 10;
#X obj 190 171 outlet;
#X obj 198 40 spigot 1;
#X obj 198 15 receive \$1-dvstart;
#X obj 217 108 makefilename %d-\$2;
#X obj 237 86 t f;
#X obj 190 134 value;
#X obj 57 134 iemguts/oreceive \$0nb;
#X obj 198 63 t b f b;
#X connect 1 0 7 0;
#X connect 2 0 1 0;
#X connect 3 0 5 1;
#X connect 3 0 6 0;
#X connect 4 0 1 1;
#X connect 5 0 0 0;
#X connect 6 0 0 0;
#X connect 7 0 5 0;
#X connect 7 1 3 0;
#X connect 7 2 4 0;
