#N canvas 489 154 450 460 10;
#X obj 61 57 inlet;
#X obj 115 331 list append;
#X obj 147 149 list;
#X obj 61 79 t a a;
#X obj 147 230 list length;
#X obj 147 275 list prepend :H;
#X obj 122 79 route bang;
#X obj 61 104 demux;
#X obj 115 205 t a a;
#X obj 179 103 t b a b;
#X msg 218 125 1;
#X obj 122 101 t f b;
#X obj 147 252 + 2;
#X obj 115 303 list prepend;
#X obj 115 384 spigot;
#X obj 115 406 outlet;
#X obj 85 331 list;
#X obj 199 27 receive \$1-hacklist;
#X obj 122 57 receive \$1-olist;
#X obj 148 354 receive \$1-savestart;
#X obj 234 55 receive \$1-acleol;
#X obj 234 77 t f;
#X connect 0 0 3 0;
#X connect 1 0 14 0;
#X connect 2 0 8 0;
#X connect 3 0 7 0;
#X connect 3 1 2 1;
#X connect 4 0 12 0;
#X connect 5 0 13 1;
#X connect 6 0 11 0;
#X connect 6 1 9 0;
#X connect 7 0 16 0;
#X connect 7 1 8 0;
#X connect 8 0 13 0;
#X connect 8 1 4 0;
#X connect 9 0 2 0;
#X connect 9 1 1 1;
#X connect 9 2 10 0;
#X connect 10 0 7 1;
#X connect 11 0 7 1;
#X connect 11 1 1 1;
#X connect 12 0 5 0;
#X connect 13 0 1 0;
#X connect 14 0 15 0;
#X connect 16 0 14 0;
#X connect 17 0 6 0;
#X connect 18 0 6 0;
#X connect 19 0 14 1;
#X connect 20 0 21 0;
#X connect 21 0 7 1;
