#N canvas 330 89 540 679 10;
#X obj 61 57 inlet;
#X obj 115 341 list append;
#X obj 147 149 list;
#X obj 61 79 t a a;
#X obj 134 230 list length;
#X obj 134 275 list prepend :H;
#X obj 122 79 route bang;
#X obj 61 104 demux;
#X obj 122 101 t f b;
#X obj 134 252 + 2;
#X obj 115 313 list prepend;
#X obj 180 691 spigot;
#X obj 180 713 outlet;
#X obj 61 130 list;
#X obj 199 27 receive \$1-hacklist;
#X obj 122 57 receive \$1-olist;
#X obj 240 267 receive \$1-savestart;
#X obj 102 5 receive \$1-acleol;
#X obj 102 27 t f;
#X obj 213 127 f 1;
#X obj 207 337 v \$1-fakedelay;
#X obj 207 386 /;
#X obj 207 312 spigot;
#X text 207 80 sense whether there is a hacklist or not;
#X text 236 245 if so \, create :H argument and assemble list;
#X obj 207 408 t f f;
#X obj 207 433 != 1;
#X obj 180 460 demux;
#X text 251 384 determine whether :x1 markers need to be recalculated
;
#X obj 207 488 t b a;
#X obj 234 535 demux;
#X obj 243 713 collect;
#X obj 295 691 f 1;
#X obj 261 559 t f b;
#X obj 288 581 t f;
#X obj 261 581 *;
#X obj 179 103 t b a b b;
#X obj 222 360 v \$1-realdelay;
#X text 319 540 reprocess :x1 markers if necesary;
#X obj 240 289 t f f b;
#X obj 234 511 cyclone/iter;
#X obj 234 606 t a a;
#X obj 234 634 sel :x1 :x2 :y1 :y2;
#X obj 295 669 t b;
#X obj 115 205 t a a b b;
#X obj 306 142 v \$1-chk0;
#X obj 306 165 spigot;
#X obj 306 188 sel 0;
#X obj 369 142 receive \$1-savestart;
#X obj 306 211 s hyYJ(I99;
#X connect 0 0 3 0;
#X connect 1 0 27 0;
#X connect 2 0 44 0;
#X connect 3 0 7 0;
#X connect 3 1 2 1;
#X connect 4 0 9 0;
#X connect 5 0 10 1;
#X connect 6 0 8 0;
#X connect 6 1 36 0;
#X connect 7 0 13 0;
#X connect 7 1 44 0;
#X connect 8 0 7 1;
#X connect 8 1 1 1;
#X connect 9 0 5 0;
#X connect 10 0 1 0;
#X connect 11 0 12 0;
#X connect 13 0 11 0;
#X connect 14 0 6 0;
#X connect 15 0 6 0;
#X connect 16 0 39 0;
#X connect 17 0 18 0;
#X connect 18 0 7 1;
#X connect 19 0 7 1;
#X connect 20 0 21 0;
#X connect 21 0 25 0;
#X connect 22 0 20 0;
#X connect 25 0 26 0;
#X connect 25 1 35 1;
#X connect 26 0 27 1;
#X connect 27 0 11 0;
#X connect 27 1 29 0;
#X connect 29 0 31 0;
#X connect 29 1 40 0;
#X connect 30 0 41 0;
#X connect 30 1 33 0;
#X connect 31 0 11 0;
#X connect 32 0 30 1;
#X connect 33 0 35 0;
#X connect 33 1 34 0;
#X connect 34 0 30 1;
#X connect 35 0 31 1;
#X connect 36 0 2 0;
#X connect 36 1 1 1;
#X connect 36 2 19 0;
#X connect 36 3 37 0;
#X connect 37 0 21 1;
#X connect 39 0 22 1;
#X connect 39 1 11 1;
#X connect 39 2 37 0;
#X connect 40 0 30 0;
#X connect 41 0 42 0;
#X connect 41 1 31 1;
#X connect 42 0 43 0;
#X connect 42 1 43 0;
#X connect 42 2 43 0;
#X connect 42 3 43 0;
#X connect 43 0 32 0;
#X connect 44 0 10 0;
#X connect 44 1 4 0;
#X connect 44 2 22 0;
#X connect 44 3 45 0;
#X connect 45 0 46 0;
#X connect 46 0 47 0;
#X connect 47 0 49 0;
#X connect 48 0 46 1;
