#N canvas 594 270 573 595 10;
#X obj 257 87 unpack;
#X obj 200 350 /;
#X obj 233 350 /;
#X obj 215 300 dv \$1 xszz;
#X obj 248 325 dv \$1 yszz;
#X obj 69 187 iemguts/sendcanvas 1;
#X obj 69 141 spigot 1;
#X obj 200 524 v \$1-:x2-v;
#X obj 233 457 v \$1-:y2-v;
#X obj 233 403 demux;
#X obj 200 434 demux;
#X obj 305 349 f 1;
#X obj 260 427 v \$1-:y1-v;
#X obj 227 492 v \$1-:x1-v;
#X obj 178 89 unpack;
#X obj 274 161 t l b f b;
#X obj 274 184 +;
#X obj 269 349 t f;
#X obj 200 161 t l b f b;
#X obj 200 184 +;
#X obj 227 246 t f;
#X obj 254 246 f 1;
#X obj 14 222 spigot 1;
#X obj 114 116 t f f b;
#X msg 53 270 symbol x1 \, symbol x2 \, symbol y1 \, symbol y2, f
22;
#X obj 53 310 makefilename \$1-:%s;
#X obj 53 333 t b s s;
#X obj 53 450 send;
#X obj 72 358 makefilename %s-v;
#X obj 53 380 value;
#X msg 53 426 % \$1;
#X obj 53 403 * 100;
#X obj 312 34 demux 0 1 2 3;
#X obj 200 138 pack f 128;
#X obj 274 138 pack f 90;
#X obj 178 58 t b b a b b;
#X obj 359 237 dvr \$1 realdelay;
#X obj 200 408 * 1;
#X obj 233 373 * 1;
#X obj 359 260 demux;
#X obj 344 283 f;
#X obj 344 306 t f f;
#X obj 14 245 t b b b;
#X obj 349 214 f 1;
#X msg 69 164 connect 1 0 0 0;
#X obj 51 32 inlet canvas_size;
#X obj 178 33 inlet position;
#X obj 312 -9 inlet pos m_1;
#X obj 387 10 inlet type m_2;
#X connect 0 0 33 1;
#X connect 0 1 34 1;
#X connect 1 0 37 0;
#X connect 2 0 38 0;
#X connect 3 0 1 1;
#X connect 4 0 2 1;
#X connect 6 0 44 0;
#X connect 9 0 8 0;
#X connect 9 1 12 0;
#X connect 10 0 7 0;
#X connect 10 1 13 0;
#X connect 11 0 9 1;
#X connect 14 0 33 0;
#X connect 14 1 34 0;
#X connect 15 0 16 0;
#X connect 15 1 17 0;
#X connect 15 2 2 0;
#X connect 15 3 11 0;
#X connect 16 0 2 0;
#X connect 17 0 9 1;
#X connect 18 0 19 0;
#X connect 18 1 20 0;
#X connect 18 2 1 0;
#X connect 18 3 21 0;
#X connect 19 0 1 0;
#X connect 20 0 10 1;
#X connect 21 0 10 1;
#X connect 22 0 42 0;
#X connect 23 0 6 1;
#X connect 23 1 22 1;
#X connect 23 2 22 0;
#X connect 24 0 25 0;
#X connect 25 0 26 0;
#X connect 26 0 29 0;
#X connect 26 1 28 0;
#X connect 26 2 27 1;
#X connect 28 0 29 1;
#X connect 29 0 31 0;
#X connect 30 0 27 0;
#X connect 31 0 30 0;
#X connect 32 0 33 0;
#X connect 32 1 34 0;
#X connect 33 0 18 0;
#X connect 34 0 15 0;
#X connect 35 0 23 0;
#X connect 35 1 6 0;
#X connect 35 2 14 0;
#X connect 35 3 3 0;
#X connect 35 4 4 0;
#X connect 36 0 39 0;
#X connect 37 0 10 0;
#X connect 38 0 9 0;
#X connect 39 0 40 1;
#X connect 39 1 41 0;
#X connect 40 0 41 0;
#X connect 41 0 37 1;
#X connect 41 1 38 1;
#X connect 42 0 43 0;
#X connect 42 1 40 0;
#X connect 42 2 24 0;
#X connect 43 0 39 1;
#X connect 44 0 5 0;
#X connect 45 0 0 0;
#X connect 46 0 35 0;
#X connect 47 0 32 0;
#X connect 48 0 32 1;
