#N canvas 687 173 573 595 10;
#X obj 257 87 unpack;
#X obj 200 350 /;
#X obj 233 350 /;
#X obj 215 300 dv \$1 xszz;
#X obj 248 325 dv \$1 yszz;
#X obj 69 141 spigot 1;
#X obj 200 524 v \$1-:x2-v;
#X obj 233 457 v \$1-:y2-v;
#X obj 233 403 demux;
#X obj 200 434 demux;
#X obj 305 349 f 1;
#X obj 260 427 v \$1-:y1-v;
#X obj 227 492 v \$1-:x1-v;
#X obj 178 89 unpack;
#X obj 274 161 t l b f b;
#X obj 274 184 +;
#X obj 269 349 t f;
#X obj 200 161 t l b f b;
#X obj 200 184 +;
#X obj 227 246 t f;
#X obj 254 246 f 1;
#X obj 14 222 spigot 1;
#X obj 114 116 t f f b;
#X msg 53 270 symbol x1 \, symbol x2 \, symbol y1 \, symbol y2, f
22;
#X obj 53 310 makefilename \$1-:%s;
#X obj 53 333 t b s s;
#X obj 53 450 send;
#X obj 72 358 makefilename %s-v;
#X obj 53 380 value;
#X msg 53 426 % \$1;
#X obj 53 403 * 100;
#X obj 312 34 demux 0 1 2 3;
#X obj 200 408 * 1;
#X obj 233 373 * 1;
#X obj 359 260 demux;
#X obj 344 283 f;
#X obj 344 306 t f f;
#X obj 14 245 t b b b;
#X obj 349 214 f 1;
#X obj 51 32 inlet canvas_size;
#X obj 178 33 inlet position;
#X obj 312 -9 inlet pos m_1;
#X obj 387 10 inlet type m_2;
#X obj 69 164 outlet;
#X obj 200 138 pack f \$2;
#X obj 274 138 pack f \$3;
#X obj 359 237 dvrv \$1 realdelay;
#X obj 78 537 list prepend \$2;
#X obj 78 560 route 62;
#X obj 78 583 print tto;
#X obj 79 511 cyclone/funnel 4;
#X obj 178 58 t b l l b b;
#X connect 0 0 44 1;
#X connect 0 1 45 1;
#X connect 1 0 32 0;
#X connect 2 0 33 0;
#X connect 3 0 1 1;
#X connect 4 0 2 1;
#X connect 5 0 43 0;
#X connect 8 0 7 0;
#X connect 8 0 50 3;
#X connect 8 1 11 0;
#X connect 8 1 50 2;
#X connect 9 0 6 0;
#X connect 9 0 50 1;
#X connect 9 1 12 0;
#X connect 9 1 50 0;
#X connect 10 0 8 1;
#X connect 13 0 44 0;
#X connect 13 1 45 0;
#X connect 14 0 15 0;
#X connect 14 1 16 0;
#X connect 14 2 2 0;
#X connect 14 3 10 0;
#X connect 15 0 2 0;
#X connect 16 0 8 1;
#X connect 17 0 18 0;
#X connect 17 1 19 0;
#X connect 17 2 1 0;
#X connect 17 3 20 0;
#X connect 18 0 1 0;
#X connect 19 0 9 1;
#X connect 20 0 9 1;
#X connect 21 0 37 0;
#X connect 22 0 5 1;
#X connect 22 1 21 1;
#X connect 22 2 21 0;
#X connect 23 0 24 0;
#X connect 24 0 25 0;
#X connect 25 0 28 0;
#X connect 25 1 27 0;
#X connect 25 2 26 1;
#X connect 27 0 28 1;
#X connect 28 0 30 0;
#X connect 29 0 26 0;
#X connect 30 0 29 0;
#X connect 31 0 44 0;
#X connect 31 1 45 0;
#X connect 32 0 9 0;
#X connect 33 0 8 0;
#X connect 34 0 35 1;
#X connect 34 1 36 0;
#X connect 35 0 36 0;
#X connect 36 0 32 1;
#X connect 36 1 33 1;
#X connect 37 0 38 0;
#X connect 37 1 35 0;
#X connect 37 2 23 0;
#X connect 38 0 34 1;
#X connect 39 0 0 0;
#X connect 40 0 51 0;
#X connect 41 0 31 0;
#X connect 42 0 31 1;
#X connect 44 0 17 0;
#X connect 45 0 14 0;
#X connect 46 0 34 0;
#X connect 47 0 48 0;
#X connect 48 0 49 0;
#X connect 51 0 22 0;
#X connect 51 1 5 0;
#X connect 51 2 13 0;
#X connect 51 3 3 0;
#X connect 51 4 4 0;
