#N canvas 238 329 910 436 10;
#X obj 55 26 inlet;
#X obj 153 73 inlet;
#X obj 82 98 demux 0 1 2 3;
#X obj 82 202 pack f f;
#X obj 51 228 iemguts/canvasposition 3;
#X obj 82 120 t f f;
#X obj 153 152 -;
#X obj 182 152 * 12;
#X obj 153 178 -;
#X msg 153 200 :F \$1;
#X obj 213 235 -;
#X obj 242 235 * 12;
#X obj 213 261 -;
#X obj 103 152 t b f f;
#X msg 213 283 :G \$1;
#X obj 242 213 receive \$1-ysize-2;
#X obj 182 129 receive \$1-xsize-2;
#X obj 379 110 receive \$1-xstart;
#X obj 478 156 receive \$1-xend;
#N canvas 508 413 743 300 receive~ 0;
#X obj 114 159 outlet~;
#X obj 165 159 outlet;
#X obj 275 73 receive \$1-hostzero;
#X obj 275 137 iemguts/sendcanvas;
#X msg 275 95 obj 100 100 receive~ \$1-myline \, connect 5 0 0 0 \,
obj 140 100 receive \$1-imon \, connect 6 0 1 0;
#X connect 2 0 4 0;
#X connect 4 0 3 0;
#X restore 364 38 pd receive~;
#X obj 365 261 cyclone/edge~;
#X obj 364 80 *~ 44.1;
#X obj 364 132 -~;
#X obj 364 154 max~;
#X obj 364 206 *~;
#X obj 55 70 t b f;
#X obj 9 143 s \$1-dirtyy;
#X msg 365 305 :s;
#X obj 440 308 demux;
#X msg 440 330 stop;
#X msg 466 353 stop *;
#X obj 440 390 s \$1-undone2;
#X obj 467 260 receive \$1-estop;
#X msg 392 363 1;
#X obj 365 283 t b b;
#X obj 440 285 t b f;
#X obj 392 414 s \$1-eon;
#X obj 427 80 sel 0;
#X obj 427 58 t f f;
#X obj 115 345 r mod;
#X msg 115 367 vis 1;
#X obj 115 389 iemguts/sendcanvas;
#X obj 191 35 receive \$1-mypos;
#X obj 191 57 spigot 1;
#X obj 230 79 t f;
#X obj 191 79 t b b;
#X text 248 60 initialize position;
#X obj 595 89 receive \$1-mycpos;
#X obj 595 181 outlet;
#X obj 55 48 spigot 1;
#X obj 100 13 receive \$1-nomove;
#X obj 595 111 unpack;
#X obj 595 155 pack;
#X obj 595 133 - 1;
#X obj 628 133 - 3;
#X obj 568 302 receive \$1-hostzero;
#X obj 568 324 makefilename %s-yourswitch;
#X obj 568 346 iemguts/oreceive \$0nop;
#X obj 568 368 s \$1-myswitch;
#X text 124 55 1 3 0 2;
#X obj 729 158 receive \$1-delemb;
#X obj 729 180 iemguts/canvasdelete;
#X obj 379 181 cyclone/lessthan~;
#X obj 364 229 *~;
#X connect 0 0 49 0;
#X connect 1 0 2 1;
#X connect 2 0 5 0;
#X connect 2 1 13 0;
#X connect 2 2 6 0;
#X connect 2 3 10 0;
#X connect 3 0 4 0;
#X connect 4 0 3 0;
#X connect 5 0 3 0;
#X connect 5 1 6 1;
#X connect 6 0 8 0;
#X connect 7 0 8 1;
#X connect 8 0 9 0;
#X connect 9 0 31 0;
#X connect 10 0 12 0;
#X connect 11 0 12 1;
#X connect 12 0 14 0;
#X connect 13 0 3 0;
#X connect 13 1 3 1;
#X connect 13 2 10 1;
#X connect 14 0 31 0;
#X connect 15 0 11 0;
#X connect 16 0 7 0;
#X connect 17 0 22 1;
#X connect 18 0 62 1;
#X connect 19 0 21 0;
#X connect 19 1 38 0;
#X connect 20 0 34 0;
#X connect 20 1 35 0;
#X connect 21 0 22 0;
#X connect 21 0 62 0;
#X connect 22 0 23 0;
#X connect 23 0 24 0;
#X connect 24 0 63 0;
#X connect 25 0 26 0;
#X connect 25 1 2 0;
#X connect 27 0 31 0;
#X connect 28 0 29 0;
#X connect 28 1 30 0;
#X connect 29 0 31 0;
#X connect 30 0 31 0;
#X connect 32 0 28 1;
#X connect 33 0 36 0;
#X connect 34 0 27 0;
#X connect 34 1 33 0;
#X connect 35 0 28 0;
#X connect 35 1 36 0;
#X connect 37 0 28 0;
#X connect 38 0 37 0;
#X connect 38 1 63 1;
#X connect 39 0 40 0;
#X connect 40 0 41 0;
#X connect 42 0 43 0;
#X connect 43 0 45 0;
#X connect 44 0 43 1;
#X connect 45 0 4 0;
#X connect 45 1 44 0;
#X connect 47 0 51 0;
#X connect 49 0 25 0;
#X connect 50 0 49 1;
#X connect 51 0 53 0;
#X connect 51 1 54 0;
#X connect 52 0 48 0;
#X connect 53 0 52 0;
#X connect 54 0 52 1;
#X connect 55 0 56 0;
#X connect 56 0 57 0;
#X connect 57 0 58 0;
#X connect 60 0 61 0;
#X connect 62 0 24 1;
#X connect 63 0 20 0;
