#N canvas 67 89 847 644 10;
#X obj 337 136 f \$1;
#X obj 337 208 iemguts/sendcanvas 1;
#X obj 271 -57 receive \$1-lb;
#X obj 345 343 s \$1-hostzero;
#X obj 298 411 send;
#X obj 329 366 makefilename %s-cbeep;
#X obj 313 485 makefilename %s-cntstrt;
#X obj 313 507 iemguts/oreceive \$1nb.;
#X obj 313 463 spigot 1;
#X obj 358 440 t f b;
#X obj 298 389 makefilename \$1-cbee;
#X obj 358 418 receive \$1-cbee;
#X obj 361 312 makefilename %s-backsplash;
#X obj 359 552 send;
#X obj 298 110 t b b b;
#X obj 336 572 s \$1-lbang;
#X obj 262 103 tgl 15 0 empty empty empty 17 7 0 10 -262144 -1 -1 0
1;
#X obj 298 80 sel 1;
#X obj 271 -13 sel ctxfiles/overlay-0;
#X obj 271 9 f 1;
#X obj 271 31 t f f;
#X obj 298 57 change;
#X obj 311 31 receive \$1-imembe;
#X obj 395 104 t b;
#X obj 395 126 s \$1-delemb;
#X obj 298 279 t s s s s s;
#X obj 313 530 t b b b;
#X obj 313 592 f 1;
#X obj 313 614 s \$1-lbang1;
#X obj 337 159 outlet;
#X obj 337 185 inlet;
#X obj 271 -35 iemguts/canvasname \$2;
#X obj 298 256 iemguts/canvasdollarzero \$3;
#X obj 317 231 ctxfiles/dvi \$1 \$4 inlet;
#X connect 0 0 29 0;
#X connect 2 0 31 0;
#X connect 5 0 4 1;
#X connect 6 0 7 0;
#X connect 7 0 26 0;
#X connect 8 0 6 0;
#X connect 9 0 8 1;
#X connect 9 1 26 0;
#X connect 10 0 4 0;
#X connect 11 0 9 0;
#X connect 12 0 13 1;
#X connect 14 0 32 0;
#X connect 14 1 33 0;
#X connect 14 2 0 0;
#X connect 16 0 21 0;
#X connect 17 0 14 0;
#X connect 17 1 23 0;
#X connect 18 0 19 0;
#X connect 19 0 20 0;
#X connect 20 1 21 0;
#X connect 21 0 17 0;
#X connect 22 0 21 0;
#X connect 23 0 24 0;
#X connect 25 0 10 0;
#X connect 25 1 8 0;
#X connect 25 2 5 0;
#X connect 25 3 3 0;
#X connect 25 4 12 0;
#X connect 26 0 27 0;
#X connect 26 1 15 0;
#X connect 26 2 13 0;
#X connect 27 0 28 0;
#X connect 30 0 1 0;
#X connect 31 0 18 0;
#X connect 32 0 25 0;
#X coords 0 -1 1 1 180 20 1 100 100;
