#N canvas 396 199 450 300 10;
#X obj 224 43 inlet;
#X obj 141 164 spigot;
#X obj 142 43 inlet;
#X msg 193 88 1;
#X obj 142 65 t b b b b;
#X obj 141 118 list prepend;
#X obj 141 140 t a a;
#X obj 159 88 t f;
#X obj 141 186 outlet;
#X text 61 225 accumulate a list out of individual terms;
#X connect 0 0 5 0;
#X connect 1 0 8 0;
#X connect 2 0 4 0;
#X connect 3 0 1 1;
#X connect 4 0 5 1;
#X connect 4 1 7 0;
#X connect 4 2 5 0;
#X connect 4 3 3 0;
#X connect 5 0 6 0;
#X connect 6 0 1 0;
#X connect 6 1 5 1;
#X connect 7 0 1 1;
