#N canvas 361 169 764 440 10;
#X declare -path ../;
#X obj 46 34 receive tyhjr(jK@;
#X obj 46 56 t b a;
#X obj 78 91 cyclone/zl iter 1;
#X obj 274 39 declare -path ../;
#X obj 427 123 ctxfiles/recompile \$0;
#X obj 273 14 shared ctxfiles/finder-share;
#X obj 78 120 route :x :y :n :s :l :m :k :start;
#X obj 78 150 gtfs \$0 1 :x 300;
#X obj 102 170 gtfs \$0 2 :y 200;
#X obj 126 190 gtfs \$0 3 :n 10;
#X obj 151 210 gtfs \$0 4 :s 50;
#X obj 175 230 gtfs \$0 5 :l bang;
#X obj 199 250 gtfs \$0 6 :m 33;
#X obj 224 270 gtfs \$0 7 :k 33;
#X obj 248 290 tf \$0 8;
#X obj 273 310 s \$0-othr;
#X obj 427 148 demux #f #f #f #f #f #f #f #f #f;
#X obj 450 178 gs :x;
#X obj 473 198 gs :y;
#X obj 497 218 gs :n;
#X obj 521 238 gs :s;
#X obj 545 258 gs :l;
#X obj 568 278 gs :m;
#X obj 592 298 gs :k;
#X obj 616 318 gs :start;
#X connect 0 0 1 0;
#X connect 1 0 4 0;
#X connect 1 1 2 0;
#X connect 2 0 6 0;
#X connect 4 0 16 0;
#X connect 4 1 16 1;
#X connect 6 0 7 0;
#X connect 6 1 8 0;
#X connect 6 2 9 0;
#X connect 6 3 10 0;
#X connect 6 4 11 0;
#X connect 6 5 12 0;
#X connect 6 6 13 0;
#X connect 6 7 14 0;
#X connect 6 8 15 0;
#X connect 16 1 17 0;
#X connect 16 2 18 0;
#X connect 16 3 19 0;
#X connect 16 4 20 0;
#X connect 16 5 21 0;
#X connect 16 6 22 0;
#X connect 16 7 23 0;
#X connect 16 8 24 0;
