#N canvas 418 434 450 300 10;
#X obj 213 92 inlet;
#X obj 252 92 f 1;
#X obj 219 127 spigot;
#X obj 219 172 outlet;
#X obj 279 92 receive \$1-fpst;
#X obj 252 70 receive \$1-\$2fps;
#X obj 219 149 f \$2;
#X connect 0 0 2 0;
#X connect 1 0 2 1;
#X connect 2 0 6 0;
#X connect 4 0 2 1;
#X connect 5 0 1 0;
#X connect 6 0 3 0;
