#N canvas 371 150 954 592 10;
#X obj 100 100 bng 10 250 50 0 \$0-s \$0-r empty 12 5 0 10 -262144
-1 -1;
#X obj 653 277 receive \$1-y;
#X obj 381 358 iemguts/canvasposition;
#X obj 316 42 receive \$1-start;
#X obj 296 98 receive \$1-\$2-go;
#X obj 319 173 - 10;
#X obj 301 205 f;
#X obj 122 173 iemguts/oreceive \$1-count-0;
#X obj 301 227 t f f;
#X obj 352 214 - 1;
#X obj 301 249 moses;
#X obj 122 151 makefilename \$1-count-%i;
#X obj 122 129 f 1;
#X obj 301 293 t f;
#X obj 343 271 pack;
#X obj 319 151 v \$1-x;
#X floatatom 111 100 5 0 0 0 - #0-nr #0-ns, f 5;
#X obj 15 215 receive \$0-s;
#X obj 15 307 del 1500;
#X msg 185 391 coords 0 -1 1 1 \$3 \$4 \$1 \$2 100;
#X obj 235 361 pack 2 100 10 10;
#X obj 169 292 f 1;
#X obj 33 272 f 2;
#X obj 70 357 f 1;
#X obj 239 322 f 2;
#X obj 185 413 iemguts/sendcanvas;
#X obj 105 361 pack 2 111 37 14;
#X obj -86 127 receive \$0-ns;
#X obj 389 155 l2s;
#X msg 389 177 label \$1;
#X obj 389 199 s \$0-r;
#X obj 301 271 t b b;
#X msg 333 317 label;
#X obj 296 120 t b b a;
#X obj -7 391 receive \$1-\$2-gon;
#X obj -32 417 list;
#X obj 543 227 receive \$1-\$2-god;
#X obj 543 291 cyclone/tanh;
#X obj 543 313 moses;
#X obj 653 299 t f f;
#X obj 653 357 * 0.333333;
#X obj 685 332 * 0.666667;
#X obj 575 346 *;
#X obj 543 347 *;
#X obj 543 370 swap;
#X obj 575 370 swap;
#X obj 543 392 -;
#X obj 575 392 -;
#X obj 381 336 spigot 1;
#X obj 15 329 t b f b;
#X obj 15 237 t b b f b f b;
#X msg 467 270 set \$1;
#X obj 467 292 s \$0-nr;
#X obj 0 505 s repack%g&hk(;
#X msg 37 447 \; c\$2 :\$4 f \$1;
#X obj -86 149 t b f;
#X obj -54 173 s r&&u*imn<;
#X obj 0 482 list prepend \$2 \$1;
#X obj 543 269 * 0.05;
#X obj -180 306 makefilename ffspace5t6y%i;
#X obj -180 328 iemguts/oreceive \$0n;
#X obj -32 448 demux;
#X obj -180 350 t b f;
#X msg -119 495 \; c\$2 :\$4 \$1;
#X connect 1 0 39 0;
#X connect 4 0 33 0;
#X connect 5 0 6 1;
#X connect 6 0 8 0;
#X connect 7 0 6 0;
#X connect 8 0 10 0;
#X connect 8 1 9 0;
#X connect 9 0 6 1;
#X connect 10 0 31 0;
#X connect 10 1 14 0;
#X connect 11 0 7 0;
#X connect 12 0 11 0;
#X connect 13 0 11 0;
#X connect 14 0 48 0;
#X connect 15 0 5 0;
#X connect 17 0 50 0;
#X connect 18 0 49 0;
#X connect 19 0 25 0;
#X connect 20 0 19 0;
#X connect 21 0 20 0;
#X connect 21 0 61 1;
#X connect 22 0 26 0;
#X connect 22 0 59 0;
#X connect 23 0 26 0;
#X connect 23 0 48 1;
#X connect 23 0 59 0;
#X connect 24 0 20 0;
#X connect 26 0 19 0;
#X connect 27 0 55 0;
#X connect 28 0 29 0;
#X connect 29 0 30 0;
#X connect 31 0 13 0;
#X connect 31 1 32 0;
#X connect 32 0 30 0;
#X connect 33 0 12 0;
#X connect 33 1 15 0;
#X connect 33 2 28 0;
#X connect 34 0 35 1;
#X connect 35 0 61 0;
#X connect 36 0 51 0;
#X connect 36 0 58 0;
#X connect 37 0 38 0;
#X connect 38 0 43 0;
#X connect 38 1 42 0;
#X connect 39 0 40 0;
#X connect 39 1 41 0;
#X connect 40 0 43 1;
#X connect 41 0 42 1;
#X connect 41 0 44 1;
#X connect 41 0 45 1;
#X connect 42 0 45 0;
#X connect 43 0 44 0;
#X connect 44 0 46 0;
#X connect 44 1 46 1;
#X connect 45 0 47 0;
#X connect 45 1 47 1;
#X connect 46 0 14 1;
#X connect 47 0 14 1;
#X connect 48 0 2 0;
#X connect 49 0 24 0;
#X connect 49 1 26 0;
#X connect 49 2 23 0;
#X connect 50 0 18 0;
#X connect 50 1 22 0;
#X connect 50 2 20 0;
#X connect 50 3 35 0;
#X connect 50 4 48 1;
#X connect 50 5 21 0;
#X connect 51 0 52 0;
#X connect 55 0 18 0;
#X connect 55 1 56 0;
#X connect 57 0 53 0;
#X connect 58 0 37 0;
#X connect 59 0 60 0;
#X connect 60 0 62 0;
#X connect 61 0 63 0;
#X connect 61 1 54 0;
#X connect 61 1 57 0;
#X connect 62 0 35 0;
#X connect 62 1 61 1;
#X coords 0 -1 1 1 10 10 2 100 100;
