#N canvas 448 261 674 346 10;
#X obj 132 16 inlet;
#X obj 150 171 iemguts/canvasposition 1;
#X obj 150 193 unpack;
#X obj 150 289 iemguts/sendcanvas 2;
#X obj 132 126 iemguts/canvasindex 1;
#X obj 132 82 t b b b;
#X obj 132 38 demux;
#X obj 171 104 f 1;
#X obj 396 106 t b f;
#X obj 396 152 send;
#X obj 427 129 makefilename %d-loadstart;
#X obj 171 16 receive \$1-gone;
#X obj 159 60 s \$1-done;
#X obj 132 148 s \$1-pbang;
#X obj 396 83 receive \$1-propload;
#X obj 396 129 f \$1;
#X obj 150 245 zexy/pack f f \$1 \$2;
#X msg 150 267 obj \$1 \$2 \$4 \$3;
#X obj 183 216 - \$3;
#X connect 0 0 6 0;
#X connect 1 0 2 0;
#X connect 2 0 16 0;
#X connect 2 1 18 0;
#X connect 4 0 13 0;
#X connect 5 0 4 0;
#X connect 5 1 1 0;
#X connect 5 2 7 0;
#X connect 6 0 5 0;
#X connect 6 1 12 0;
#X connect 7 0 6 1;
#X connect 8 0 15 0;
#X connect 8 1 10 0;
#X connect 10 0 9 1;
#X connect 11 0 6 1;
#X connect 14 0 8 0;
#X connect 15 0 9 0;
#X connect 16 0 17 0;
#X connect 17 0 3 0;
#X connect 18 0 16 1;
