#N canvas 294 243 450 300 10;
#X obj 186 173 t f b;
#X obj 186 125 s \$1-customs;
#X obj 186 149 receive \$1-customr;
#X obj 213 196 s \$1-zob;
#X obj 186 101 inlet;
#X obj 186 221 outlet;
#X connect 0 0 5 0;
#X connect 0 1 3 0;
#X connect 2 0 0 0;
#X connect 4 0 1 0;
