#N canvas 542 96 450 672 10;
#X obj 195 566 array get no#! 0 1;
#X obj 266 392 random;
#X obj 282 340 t b b s s;
#X obj 177 407 pack s f;
#X obj 162 504 cyclone/zl rev;
#X obj 162 526 unpack f s;
#X obj 225 431 pack s 0;
#X obj 162 478 list;
#X obj 162 333 t b s b s s;
#X obj 193 382 - 1;
#X obj 262 314 receive \$1seed6;
#X obj 89 60 inlet;
#X obj 299 369 array size no);
#X obj 193 360 array size no);
#X obj 183 452 mss x;
#X obj 209 250 demux;
#X obj 236 225 receive \$1-^set;
#X obj 197 198 makefilename %sstor;
#X obj 152 127 spigot;
#X obj 185 101 receive \$1-savestart;
#X obj 195 637 outlet;
#X obj 195 615 makefilename c%i;
#X obj 152 174 symbol all&&stor;
#X obj 195 588 f;
#X obj 152 151 sel . ..;
#X obj 89 102 route float;
#X obj 89 290 makefilename c%i;
#X connect 0 0 23 0;
#X connect 1 0 0 0;
#X connect 2 0 1 0;
#X connect 2 1 12 0;
#X connect 2 2 0 2;
#X connect 2 3 12 1;
#X connect 3 0 14 0;
#X connect 4 0 5 0;
#X connect 5 0 0 0;
#X connect 5 1 0 2;
#X connect 6 0 7 1;
#X connect 7 0 4 0;
#X connect 8 0 7 0;
#X connect 8 1 3 0;
#X connect 8 2 13 0;
#X connect 8 3 13 1;
#X connect 8 4 6 0;
#X connect 9 0 3 1;
#X connect 10 0 1 0;
#X connect 11 0 25 0;
#X connect 12 0 1 1;
#X connect 13 0 9 0;
#X connect 14 0 7 1;
#X connect 15 0 8 0;
#X connect 15 1 2 0;
#X connect 16 0 15 1;
#X connect 17 0 15 0;
#X connect 18 0 24 0;
#X connect 19 0 18 1;
#X connect 21 0 20 0;
#X connect 22 0 15 0;
#X connect 23 0 21 0;
#X connect 24 0 22 0;
#X connect 24 1 23 0;
#X connect 24 2 17 0;
#X connect 25 0 26 0;
#X connect 25 1 18 0;
#X connect 26 0 20 0;
