#N canvas 76 183 450 460 10;
#X obj 136 153 == 1;
#X obj 109 176 demux;
#X obj 136 131 v \$1-btype;
#X obj 136 199 v \$1-burstp;
#X obj 109 223 v \$1-pt-n;
#X obj 109 62 inlet;
#X obj 109 254 outlet;
#X obj 109 96 t b b;
#X connect 0 0 1 1;
#X connect 1 0 4 0;
#X connect 1 1 3 0;
#X connect 2 0 0 0;
#X connect 3 0 6 0;
#X connect 4 0 6 0;
#X connect 5 0 7 0;
#X connect 7 0 1 0;
#X connect 7 1 2 0;
