#N canvas 580 121 450 300 10;
#X obj 127 170 + 1;
#X obj 127 238 outlet;
#X obj 217 72 t a b;
#X msg 286 102 clear;
#X obj 217 146 cyclone/iter;
#X obj 94 146 sel -1;
#X obj 94 204 t f;
#X obj 94 97 inlet;
#X obj 217 47 receive \$1-`store;
#X obj 286 124 text define \$1-`st;
#X obj 217 168 text set \$1-`st 1e+06;
#X obj 127 194 text get \$1-`st;
#X obj 94 124 text search \$1-`st;
#X connect 0 0 11 0;
#X connect 2 0 4 0;
#X connect 2 1 3 0;
#X connect 3 0 9 0;
#X connect 4 0 10 0;
#X connect 5 0 6 0;
#X connect 5 1 0 0;
#X connect 6 0 1 0;
#X connect 7 0 12 0;
#X connect 8 0 2 0;
#X connect 11 0 1 0;
#X connect 12 0 5 0;
