#N canvas 383 160 450 300 10;
#X obj 149 111 f;
#X obj 137 177 spigot;
#X obj 137 89 t b f;
#X obj 265 117 s \$1-@on;
#X obj 170 156 receive \$1-@on;
#X obj 138 69 receive \$1-@@;
#X obj 149 133 s \$1-obor;
#X obj 238 47 inlet;
#X obj 137 200 outlet;
#X obj 238 70 t b b;
#X obj 265 94 f 1;
#X connect 0 0 6 0;
#X connect 1 0 8 0;
#X connect 2 0 1 0;
#X connect 2 1 0 1;
#X connect 4 0 1 1;
#X connect 5 0 2 0;
#X connect 7 0 9 0;
#X connect 9 0 0 0;
#X connect 9 1 10 0;
#X connect 10 0 3 0;
