#N canvas 481 204 449 478 10;
#X obj 259 186 == 1;
#X obj 136 279 - 1;
#X obj 265 210 sel 0;
#X msg 265 233 symbol i;
#X msg 292 253 symbol j;
#X obj 136 323 route bang;
#X obj 136 345 t f;
#X obj 132 131 v \$1-btype;
#X obj 292 186 receive \$1-xym;
#X obj 136 199 v \$1-burstp;
#X obj 105 223 v \$1-pt-n;
#X obj 136 301 array get \$1-iarry 0 1;
#X obj 265 275 makefilename \$1-%sarry;
#X obj 105 70 inlet;
#X obj 136 386 outlet;
#X obj 105 176 demux 0 1 2;
#X obj 193 347 int;
#X obj 105 104 t b b;
#X obj 178 223 array get \$1-floate;
#X connect 0 0 2 0;
#X connect 1 0 11 0;
#X connect 2 0 3 0;
#X connect 2 1 4 0;
#X connect 3 0 12 0;
#X connect 4 0 12 0;
#X connect 5 0 6 0;
#X connect 5 1 16 0;
#X connect 6 0 14 0;
#X connect 7 0 0 0;
#X connect 7 0 15 1;
#X connect 8 0 2 1;
#X connect 9 0 1 0;
#X connect 10 0 1 0;
#X connect 11 0 5 0;
#X connect 12 0 11 2;
#X connect 13 0 17 0;
#X connect 15 0 10 0;
#X connect 15 1 9 0;
#X connect 15 2 18 0;
#X connect 16 0 14 0;
#X connect 17 0 15 0;
#X connect 17 1 7 0;
#X connect 18 0 5 0;
