#N canvas 426 147 587 300 10;
#X obj 247 170 + 1;
#X obj 247 238 outlet;
#X obj 337 72 t a b;
#X msg 406 102 clear;
#X obj 337 146 cyclone/iter;
#X obj 214 146 sel -1;
#X obj 214 204 t f;
#X obj 157 78 inlet;
#X obj 337 47 receive \$1-!store;
#X obj 337 168 text set \$1-!st 1e+06;
#X obj 214 124 text search \$1-!st;
#X obj 247 194 text get \$1-!st;
#X obj 157 100 route bang;
#X msg 88 154 line 0 \, bang;
#X obj 88 176 text sequence \$1-!st;
#X obj 49 200 collect;
#X obj 49 127 t b b;
#X obj 406 124 text define -k \$1-!st;
#A set \;;
#X connect 0 0 11 0;
#X connect 2 0 4 0;
#X connect 2 1 3 0;
#X connect 3 0 17 0;
#X connect 4 0 9 0;
#X connect 5 0 6 0;
#X connect 5 1 0 0;
#X connect 6 0 1 0;
#X connect 7 0 12 0;
#X connect 8 0 2 0;
#X connect 10 0 5 0;
#X connect 11 0 1 0;
#X connect 12 0 16 0;
#X connect 12 1 10 0;
#X connect 13 0 14 0;
#X connect 14 0 15 1;
#X connect 15 0 1 0;
#X connect 16 0 15 0;
#X connect 16 1 13 0;
