#N canvas 55 51 450 300 10;
#X obj 176 27 inlet;
#X obj 176 170 outlet;
#X obj 176 121 s \$1-customs;
#X obj 176 145 receive \$1-customr;
#X obj 176 49 t a a;
#X obj 203 73 list length;
#X obj 203 95 outlet;
#X connect 0 0 4 0;
#X connect 3 0 1 0;
#X connect 4 0 2 0;
#X connect 4 1 5 0;
#X connect 5 0 6 0;
