#N canvas 67 89 450 300 10;
#X obj 176 27 inlet;
#X obj 193 212 outlet;
#X obj 193 121 s \$1-customs;
#X obj 193 145 receive \$1-customr;
#X obj 227 73 list length;
#X obj 227 95 outlet;
#X obj 176 49 t a a b a;
#X obj 201 86 f 1;
#X obj 193 168 t a b;
#X obj 220 191 t f;
#X obj 150 168 spigot;
#X connect 0 0 6 0;
#X connect 3 0 8 0;
#X connect 4 0 5 0;
#X connect 6 0 10 0;
#X connect 6 1 2 0;
#X connect 6 2 7 0;
#X connect 6 3 4 0;
#X connect 7 0 10 1;
#X connect 8 0 1 0;
#X connect 8 1 9 0;
#X connect 9 0 10 1;
#X connect 10 0 1 0;
