#N canvas 168 135 488 495 10;
#X obj 54 273 send;
#X obj 263 179 makefilename %d-scales;
#X obj 280 202 makefilename %d-scaler;
#X obj 280 225 iemguts/oreceive allscaler##;
#X obj 199 16 receive \$1-scaleback;
#X obj 263 73 receive \$1-scalebang;
#X obj 250 264 receive \$1-scaler;
#X obj 27 229 pack f \$1;
#X obj 27 165 inlet;
#X obj 250 330 outlet;
#X obj 27 311 t b l l;
#X obj 46 367 spigot 1;
#X obj 27 251 demux;
#X msg 297 145 \; \$1-scalebong 1;
#X obj 263 95 t f f f b;
#X obj 314 119 f 1;
#X obj 199 38 t b;
#X obj 199 60 t f;
#X obj 87 288 receive \$1-parent;
#X obj 87 310 makefilename %d-allscales;
#X obj 66 334 send;
#X obj 27 333 f 1;
#X obj 250 286 t f b;
#X obj 277 308 t f;
#X obj 46 389 send allscales##;
#X obj 27 187 t l b;
#X obj 54 208 s \$1-gothash;
#X connect 1 0 0 1;
#X connect 2 0 3 0;
#X connect 3 0 22 0;
#X connect 4 0 16 0;
#X connect 5 0 14 0;
#X connect 6 0 22 0;
#X connect 7 0 12 0;
#X connect 8 0 25 0;
#X connect 10 0 21 0;
#X connect 10 1 11 0;
#X connect 10 2 20 0;
#X connect 11 0 24 0;
#X connect 12 0 10 0;
#X connect 12 1 0 0;
#X connect 14 0 1 0;
#X connect 14 1 2 0;
#X connect 14 2 13 0;
#X connect 14 3 15 0;
#X connect 15 0 17 0;
#X connect 16 0 17 0;
#X connect 17 0 12 1;
#X connect 18 0 19 0;
#X connect 19 0 20 1;
#X connect 21 0 11 1;
#X connect 22 0 9 0;
#X connect 22 1 23 0;
#X connect 23 0 11 1;
#X connect 25 0 7 0;
#X connect 25 1 26 0;
