#N canvas 55 51 488 355 10;
#X obj 77 167 send;
#X obj 263 52 t f f f;
#X msg 302 75 \; \$1-scalebong bang;
#X obj 263 109 makefilename %d-scales;
#X obj 282 132 makefilename %d-scaler;
#X obj 147 212 iemguts/oreceive allscaler##;
#X obj 117 86 symbol allscales##;
#X obj 79 16 receive \$1-scaleback;
#X obj 117 40 receive \$1-lb;
#X obj 263 30 receive \$1-scalebang;
#X obj 115 188 receive \$1-scaler;
#X obj 77 141 pack f \$1;
#X obj 77 95 inlet;
#X obj 115 254 outlet;
#X connect 1 0 3 0;
#X connect 1 1 4 0;
#X connect 1 2 2 0;
#X connect 3 0 0 1;
#X connect 4 0 5 0;
#X connect 5 0 13 0;
#X connect 6 0 0 1;
#X connect 7 0 6 0;
#X connect 8 0 6 0;
#X connect 9 0 1 0;
#X connect 10 0 13 0;
#X connect 11 0 0 0;
#X connect 12 0 11 0;
