#N canvas 125 235 479 453 10;
#X obj 85 16 inlet;
#X obj 182 378 outlet;
#X obj 148 182 list split 1;
#X obj 182 354 cyclone/zl nth;
#X obj 245 136 sel 0;
#X obj 272 158 t b f;
#X obj 245 158 f 1;
#X obj 272 180 t f;
#X obj 213 329 list length;
#X obj 208 113 moses;
#X obj 208 136 t b f;
#X obj 208 158 f 2;
#X obj 182 212 demux 0 1 2;
#X obj 245 235 t b a;
#X obj 272 259 cyclone/iter;
#X obj 272 281 sel;
#X obj 287 235 abs;
#X obj 245 304 collect;
#X obj 85 38 route float;
#X obj 342 393 outlet fod;
#X obj 148 90 t l f l;
#X obj 342 341 list length;
#X obj 85 60 t b b;
#X obj 85 82 t f;
#X obj 112 82 f 3;
#X obj 342 363 +;
#X obj 357 305 receive \$1-getleftbr-.;
#X connect 0 0 18 0;
#X connect 2 1 12 0;
#X connect 3 0 1 0;
#X connect 4 0 6 0;
#X connect 4 1 5 0;
#X connect 5 0 7 0;
#X connect 5 1 3 1;
#X connect 6 0 12 1;
#X connect 7 0 12 1;
#X connect 8 0 1 0;
#X connect 9 0 10 0;
#X connect 9 1 4 0;
#X connect 10 0 11 0;
#X connect 10 1 16 0;
#X connect 11 0 12 1;
#X connect 12 0 3 0;
#X connect 12 1 8 0;
#X connect 12 2 13 0;
#X connect 13 0 17 0;
#X connect 13 1 14 0;
#X connect 14 0 15 0;
#X connect 15 1 17 1;
#X connect 16 0 15 1;
#X connect 17 0 1 0;
#X connect 18 0 22 0;
#X connect 18 1 20 0;
#X connect 20 0 2 0;
#X connect 20 1 9 0;
#X connect 20 2 21 0;
#X connect 21 0 25 0;
#X connect 22 0 23 0;
#X connect 22 1 24 0;
#X connect 23 0 1 0;
#X connect 24 0 19 0;
#X connect 25 0 19 0;
#X connect 26 0 25 1;
