#N canvas 677 81 468 687 10;
#X obj 146 283 t f f;
#X obj 142 500 -;
#X obj 174 353 + 1;
#X obj 142 353 -;
#X obj 142 385 t f f;
#X obj 185 429 *;
#X obj 142 475 +;
#X obj 127 545 f;
#X obj 142 522 t f f;
#X obj 142 407 mod 4;
#X obj 185 407 div 4;
#X obj 157 307 receive \$1-rev;
#X obj 189 329 receive \$1-invrev;
#X obj 142 453 array get \$1-pattern 0 1;
#X obj 146 202 v \$1-nexto;
#X obj 129 40 inlet;
#X obj 127 574 outlet;
#X obj 163 86 v \$1-btype;
#X obj 146 130 demux 0 1 2;
#X obj 209 153 f 1;
#X obj 177 181 f;
#X obj 203 181 + 1;
#X obj 255 107 receive \$1-brsst;
#X obj 220 129 t f;
#X obj 255 129 t f;
#X obj 298 237 sel 0 1;
#X obj 298 283 v \$1-patternl;
#X obj 317 306 v \$1-burstl;
#X obj 298 328 t f f;
#X obj 246 366 v \$1-xy21;
#X obj 266 386 v \$1-yx21;
#X obj 283 417 symbol \$1-pattern;
#X obj 303 437 symbol \$1-burst;
#X obj 146 250 af \$1-pattern;
#X obj 146 224 + 1;
#X obj 129 62 t b b b b;
#X connect 0 0 2 0;
#X connect 0 1 3 0;
#X connect 1 0 8 0;
#X connect 2 0 4 0;
#X connect 3 0 4 0;
#X connect 4 0 9 0;
#X connect 4 1 10 0;
#X connect 5 0 6 1;
#X connect 6 0 1 0;
#X connect 7 0 16 0;
#X connect 8 0 7 1;
#X connect 8 1 1 1;
#X connect 9 0 13 0;
#X connect 10 0 5 0;
#X connect 11 0 3 1;
#X connect 12 0 2 1;
#X connect 13 0 6 0;
#X connect 14 0 34 0;
#X connect 15 0 35 0;
#X connect 17 0 18 1;
#X connect 17 0 25 0;
#X connect 18 0 14 0;
#X connect 18 1 20 0;
#X connect 18 2 19 0;
#X connect 19 0 7 1;
#X connect 20 0 21 0;
#X connect 20 0 0 0;
#X connect 21 0 20 1;
#X connect 22 0 24 0;
#X connect 23 0 1 1;
#X connect 24 0 20 1;
#X connect 25 0 26 0;
#X connect 25 0 29 0;
#X connect 25 0 31 0;
#X connect 25 1 27 0;
#X connect 25 1 30 0;
#X connect 25 1 32 0;
#X connect 26 0 28 0;
#X connect 27 0 28 0;
#X connect 28 0 9 1;
#X connect 28 1 10 1;
#X connect 29 0 5 1;
#X connect 30 0 5 1;
#X connect 31 0 13 2;
#X connect 32 0 13 2;
#X connect 33 0 0 0;
#X connect 34 0 33 0;
#X connect 35 0 7 0;
#X connect 35 1 18 0;
#X connect 35 2 17 0;
#X connect 35 3 23 0;
