#N canvas 664 195 567 554 10;
#X obj 173 340 receive \$1seed2;
#X obj 92 -9 inlet;
#X obj 176 226 route float;
#X obj 239 251 swap;
#X obj 239 317 until;
#X obj 145 523 collect2;
#X obj 176 104 spigot 1;
#X obj 174 152 receive \$1-bump?;
#X text 258 225 determine whether one argument or two;
#X obj 176 251 t b f;
#X obj 176 126 t a a b;
#X obj 174 176 list;
#X obj 174 198 t a b;
#X text 235 190 store for bump message;
#X text 236 423 process and collect;
#X obj 221 81 receive \$1-?off;
#X obj 119 82 route bang;
#X obj 145 557 outlet;
#X obj 225 368 t f f;
#X obj 190 499 demux;
#X obj 225 390 abs;
#X obj 252 390 <;
#X obj 237 522 * -1;
#X text 278 387 process negatives;
#X obj 190 478 +;
#X obj 237 478 receive \$1-?offs;
#X obj 239 273 abs;
#X obj 190 416 demux;
#X obj 190 456 random;
#X obj 217 436 urn;
#X obj 300 344 receive \$1-?murn;
#X obj 92 57 t b a a;
#X obj 411 91 list length;
#X obj 411 113 outlet;
#X obj 239 296 max 1;
#X obj 92 13 route ?;
#X obj 92 35 t b;
#X connect 0 0 28 0;
#X connect 0 0 29 0;
#X connect 1 0 35 0;
#X connect 2 0 9 0;
#X connect 2 1 3 0;
#X connect 3 0 26 0;
#X connect 3 1 18 0;
#X connect 4 0 27 0;
#X connect 5 0 17 0;
#X connect 6 0 10 0;
#X connect 7 0 11 0;
#X connect 9 0 27 0;
#X connect 9 1 18 0;
#X connect 10 0 2 0;
#X connect 10 1 11 1;
#X connect 10 2 5 1;
#X connect 11 0 12 0;
#X connect 12 0 2 0;
#X connect 12 1 5 1;
#X connect 15 0 6 1;
#X connect 16 1 6 0;
#X connect 18 0 20 0;
#X connect 18 1 21 0;
#X connect 19 0 5 2;
#X connect 19 1 22 0;
#X connect 20 0 28 1;
#X connect 20 0 29 1;
#X connect 21 0 19 1;
#X connect 22 0 5 2;
#X connect 24 0 19 0;
#X connect 25 0 24 1;
#X connect 26 0 34 0;
#X connect 27 0 28 0;
#X connect 27 1 29 0;
#X connect 28 0 24 0;
#X connect 29 0 24 0;
#X connect 30 0 27 1;
#X connect 31 0 5 0;
#X connect 31 1 16 0;
#X connect 31 2 32 0;
#X connect 32 0 33 0;
#X connect 34 0 4 0;
#X connect 35 0 36 0;
#X connect 35 1 31 0;
#X connect 36 0 31 0;
