#N canvas 628 87 729 681 10;
#X obj 264 788 cyclone/zl nth;
#X obj 199 459 list split 1;
#X obj 296 635 l2s;
#X obj 296 657 s2l |;
#X obj 233 612 demux 0 1 2;
#X obj 296 679 cyclone/zl nth;
#X obj 233 484 list trim;
#X obj 199 437 receive \$1->f;
#X obj 257 -150 inlet;
#X obj 233 817 outlet;
#X obj 276 -58 list fromsymbol;
#X obj 276 -36 unpack;
#X obj 276 39 sel 99;
#X obj 235 148 f \$1;
#X obj 296 -82 t f f;
#X obj 276 17 spigot;
#X obj 276 61 f 1;
#X obj 257 88 demux;
#X text -44 0 determine whether the first symbol is an ID number;
#X obj 208 123 t a b;
#X obj 284 217 list split 1;
#X obj 303 189 send;
#X obj 303 166 symbol \$1-]fet;
#X obj 284 115 t a b s;
#X obj 229 366 pack s f;
#X obj 282 344 receive \$1-]fet;
#X text -78 124 if so \, fetch that ID's \$0. If not \, use this \$0.
;
#X obj 235 285 list split 1;
#X obj 296 448 t a a;
#X obj 208 418 send;
#X obj 208 263 t b a;
#X obj 208 323 symbol \$1->f;
#X text 321 303 determine float arguments;
#X text 72 324 send to fetch function;
#X obj 377 634 unpack;
#X obj 296 484 list length;
#X text 117 459 receive fetch;
#X text 70 681 process isolation arguments if needed;
#X obj 257 -128 list;
#X msg 229 393 symbol \$2-\$1-fetch;
#X obj 410 731 ==;
#X obj 296 746 demux;
#X obj 295 767 cyclone/zl nth;
#X obj 296 702 cyclone/fromsymbol;
#X obj 233 506 route = ' ";
#X obj 254 532 cyclone/zl rev;
#X obj 254 554 route " ';
#X obj 254 576 cyclone/zl rev;
#X obj 309 -12 sel 32;
#X msg 342 15 1;
#X obj 257 -106 t a s b a;
#X obj 421 -49 list length;
#X obj 421 33 outlet;
#X msg 519 207 symbol \$2-\$1-dfetch;
#X obj 544 160 receive \$1-parent;
#X obj 421 11 +;
#X obj 436 -14 receive \$1-getr-.;
#X obj 519 183 pack s f;
#X connect 0 0 9 0;
#X connect 1 1 6 0;
#X connect 2 0 3 0;
#X connect 3 0 5 0;
#X connect 4 0 9 0;
#X connect 4 1 0 0;
#X connect 4 2 2 0;
#X connect 5 0 43 0;
#X connect 6 0 44 0;
#X connect 7 0 1 0;
#X connect 8 0 38 0;
#X connect 10 0 11 0;
#X connect 11 0 15 0;
#X connect 11 1 48 0;
#X connect 12 0 16 0;
#X connect 13 0 24 1;
#X connect 14 0 17 1;
#X connect 14 1 15 1;
#X connect 15 0 12 0;
#X connect 16 0 17 1;
#X connect 17 0 19 0;
#X connect 17 1 23 0;
#X connect 19 0 30 0;
#X connect 19 1 13 0;
#X connect 20 1 30 0;
#X connect 22 0 21 0;
#X connect 23 0 20 0;
#X connect 23 1 22 0;
#X connect 23 2 57 0;
#X connect 24 0 39 0;
#X connect 25 0 24 1;
#X connect 27 0 24 0;
#X connect 27 1 28 0;
#X connect 28 0 35 0;
#X connect 28 1 34 0;
#X connect 30 0 31 0;
#X connect 30 1 27 0;
#X connect 31 0 29 0;
#X connect 34 0 5 1;
#X connect 34 0 0 1;
#X connect 34 1 40 0;
#X connect 34 1 42 1;
#X connect 35 0 4 1;
#X connect 38 0 50 0;
#X connect 39 0 29 1;
#X connect 40 0 41 1;
#X connect 41 0 42 0;
#X connect 41 1 9 0;
#X connect 42 0 9 0;
#X connect 43 0 41 0;
#X connect 44 0 4 0;
#X connect 44 1 45 0;
#X connect 44 2 45 0;
#X connect 44 3 4 0;
#X connect 45 0 46 0;
#X connect 46 0 47 0;
#X connect 46 1 47 0;
#X connect 46 2 47 0;
#X connect 47 0 4 0;
#X connect 48 1 49 0;
#X connect 49 0 15 1;
#X connect 50 0 17 0;
#X connect 50 1 10 0;
#X connect 50 2 14 0;
#X connect 50 3 51 0;
#X connect 51 0 55 0;
#X connect 53 0 21 1;
#X connect 54 0 57 1;
#X connect 55 0 52 0;
#X connect 56 0 55 1;
#X connect 57 0 53 0;
