#N canvas 452 206 450 546 10;
#X obj 159 227 - 1;
#X obj 159 251 /;
#X obj 258 455 send;
#X obj 336 416 makefilename ~get-%s;
#X obj 159 273 *;
#X obj 186 96 !=;
#X obj 159 118 demux;
#X obj 186 74 receive \$1-bytpe;
#X obj 186 143 v \$1-xy2;
#X obj 159 170 v \$1-pt-n;
#X obj 209 195 receive \$1-xy21;
#X obj 208 240 receive \$1-del1000;
#X obj 159 294 pack f \$1;
#X obj 279 391 makefilename \$1-intget;
#X obj 79 476 receive \$1-fetch;
#X obj 159 4 inlet;
#X obj 79 500 outlet;
#X obj 279 370 t f;
#X obj 279 349 sel .;
#X obj 222 327 route bang;
#X obj 159 31 t b a;
#X connect 0 0 1 0;
#X connect 1 0 4 0;
#X connect 3 0 2 1;
#X connect 4 0 12 0;
#X connect 5 0 6 1;
#X connect 6 0 9 0;
#X connect 6 1 8 0;
#X connect 7 0 5 0;
#X connect 8 0 0 0;
#X connect 9 0 0 0;
#X connect 10 0 1 1;
#X connect 11 0 4 1;
#X connect 12 0 2 0;
#X connect 13 0 2 1;
#X connect 14 0 16 0;
#X connect 15 0 20 0;
#X connect 17 0 13 0;
#X connect 18 0 17 0;
#X connect 18 1 3 0;
#X connect 19 0 17 0;
#X connect 19 1 18 0;
#X connect 20 0 6 0;
#X connect 20 1 19 0;
