#N canvas 67 96 450 672 10;
#X obj 155 546 array get no#! 0 1;
#X obj 266 384 random;
#X obj 282 333 t b b s s;
#X obj 122 486 unpack f s;
#X obj 266 307 receive \$1seed6;
#X obj 89 34 inlet;
#X obj 299 362 array size no);
#X obj 248 426 array size no);
#X obj 209 250 demux;
#X obj 236 225 receive \$1-^set;
#X obj 197 198 makefilename %sstor;
#X obj 152 127 spigot;
#X obj 185 101 receive \$1-savestart;
#X obj 155 617 outlet;
#X obj 155 595 makefilename c%i;
#X obj 152 174 symbol all&&stor;
#X obj 155 568 f;
#X obj 152 151 sel . ..;
#X obj 89 62 route float;
#X obj 89 290 makefilename c%i;
#X obj 179 454 list prepend;
#X obj 122 364 m-store \$0-^st;
#X obj 122 509 - 1;
#X obj 162 394 t s s b s;
#X obj 179 62 receive \$1-notlast;
#X obj 152 84 demux;
#X obj 212 501 t b;
#X connect 0 0 16 0;
#X connect 1 0 0 0;
#X connect 2 0 1 0;
#X connect 2 1 6 0;
#X connect 2 2 0 2;
#X connect 2 3 6 1;
#X connect 3 0 22 0;
#X connect 3 1 0 2;
#X connect 4 0 1 0;
#X connect 5 0 18 0;
#X connect 6 0 1 1;
#X connect 7 0 20 1;
#X connect 8 0 21 0;
#X connect 8 1 2 0;
#X connect 9 0 8 1;
#X connect 10 0 8 0;
#X connect 11 0 17 0;
#X connect 12 0 11 1;
#X connect 14 0 13 0;
#X connect 15 0 8 0;
#X connect 16 0 14 0;
#X connect 17 0 15 0;
#X connect 17 1 16 0;
#X connect 17 2 10 0;
#X connect 18 0 19 0;
#X connect 18 1 25 0;
#X connect 19 0 13 0;
#X connect 20 0 21 1;
#X connect 21 0 3 0;
#X connect 21 1 23 0;
#X connect 22 0 0 0;
#X connect 23 0 21 0;
#X connect 23 1 20 0;
#X connect 23 2 7 0;
#X connect 23 3 7 1;
#X connect 24 0 25 1;
#X connect 25 0 11 0;
#X connect 25 1 26 0;
#X connect 26 0 16 0;
