#N canvas 67 89 974 676 10;
#X msg 1059 251 resize \$1;
#X obj 473 492 sort;
#X obj 498 541 cyclone/iter;
#X text 756 373 1: retrieve data;
#X text 767 425 2: scale and collect;
#X text 813 500 3: store y data;
#X text 504 493 4: sort x data and store;
#X text 569 636 5: sort y data according to x and store;
#X obj 378 35 t b b;
#X obj 405 100 metro 100;
#X text 356 120 0.5: reset 1 second timer every time a change is detected.
;
#X text 464 41 0: when canvas message received \, start retrieving
data \, but stop after 2 seconds;
#X obj 378 57 del 3000;
#X obj 925 127 t b b b;
#X text 984 129 redraw from scratch;
#X obj 378 13 receive \$1-sstart\$2;
#X obj 1059 229 receive \$1-nsize\$2;
#X obj 495 186 v \$1-nsize\$2;
#X obj 760 324 receive \$1-pointer\$2;
#X obj 1059 274 array define \$1-ypre\$2 1;
#X obj 692 499 array set \$1-ypre\$2;
#X obj 456 637 collect;
#X obj 473 514 array set \$1-x-1-\$2;
#X obj 456 659 array set \$1-y-1-\$2;
#X obj 498 563 tabread \$1-ypre\$2;
#X obj 10 136 cyclone/uzi;
#X obj 84 160 - 1;
#X obj 84 182 t f f;
#X obj 47 300 collect;
#X text 93 394 compile save list;
#X obj 10 60 receive \$1-savelists;
#X obj 33 106 v \$1-nsize\$2;
#X obj 116 208 tabread \$1-x-1-\$2;
#X obj 84 251 tabread \$1-y-1-\$2;
#X obj 114 367 text set \$1-save \$3;
#X obj 601 347 element \$1-big\$2 \$1-array\$2;
#X obj 434 164 switch-g\$2 \$1 \$2;
#X obj 601 371 get ^&*-dsmall\$2 x y;
#X obj 498 613 * 1;
#X obj 227 77 receive \$1-lbb\$2;
#X obj 47 322 route bang;
#X obj 633 318 v \$1-rescue;
#X obj 601 294 t f f;
#X obj 114 345 list prepend point\$2;
#X obj 495 208 sel 0;
#X obj 925 81 receive \$1-rey\$2;
#X obj 378 79 t f b;
#X obj 279 373 receive \$1-pointer\$2;
#X obj 240 466 pointer;
#X obj 240 490 getsize \$1-big\$2 \$1-array\$2;
#X obj 240 594 sel;
#X obj 255 570 receive \$1-nsize\$2;
#X obj 255 620 send \$1-nrsize\$2;
#X obj 10 82 t b b b;
#X obj 240 416 t b;
#X obj 240 438 spigot;
#X obj 279 395 t b p;
#X obj 279 417 f 1;
#X obj 925 103 spigot;
#X obj 958 57 receive \$1-savestart;
#X obj 527 229 t b f;
#X obj 473 424 stor \$1 x 128 \$2 y -5;
#X obj 692 447 stor \$1 y 79 \$2 x 5;
#X obj 516 589 receive \$1-:scale;
#X obj 739 85 receive \$1-stealarray;
#X obj 739 188 t f f;
#X obj 766 164 unpack f s;
#X obj 823 188 makefilename %s-\$2;
#X obj 755 564 send;
#X text 802 272 steal array for [grab];
#X obj 473 447 demux 0 1 2;
#X obj 692 470 demux 0 1 2;
#X obj 739 108 t b b b b b b l;
#X obj 1065 564 element \$1-big\$2 \$1-array\$2;
#X obj 888 592 set -symbol ^&*-dsmall\$2 onoff;
#X obj 936 492 receive \$1-symon-\$2;
#X obj 936 515 unpack s f;
#X obj 222 11 receive \$1-newpoint\$2;
#X msg 222 34 stop;
#X obj 434 187 t b b;
#X obj 362 263 s;
#X obj 377 238 receive \$1-sendname;
#X obj 255 520 receive \$1-zero\$2;
#X obj 240 547 * 1;
#X obj 405 138 t b b b b b b b b;
#X obj 587 195 s \$1-nostop;
#X obj -378 -37 receive \$1-:x;
#X obj -279 -37 receive \$1-:y;
#X obj 911 564 print symonwhat?;
#X obj -351 110 v \$1-nsize\$2;
#X obj -78 175 receive \$1-pointer\$2;
#X obj -237 198 element \$1-big\$2 \$1-array\$2;
#X obj -351 132 sel 0;
#X obj -324 153 t b f;
#X text -263 153 resize data mechanism;
#X obj -324 175 cyclone/uzi 0 0;
#X obj 527 251 cyclone/uzi 0 0;
#X obj -183 111 f 1;
#X obj -312 86 / 128;
#X obj -213 59 / 79;
#X obj -345 311 *;
#X obj -210 311 *;
#X obj -210 111 t f;
#X obj -237 221 demux;
#X obj -345 287 get ^&*-dsmall\$2 x;
#X obj -210 287 get ^&*-dsmall\$2 y;
#X obj -345 339 set ^&*-dsmall\$2 x;
#X obj -345 261 t p p;
#X obj -210 260 t p p;
#X obj -210 339 set ^&*-dsmall\$2 y;
#X obj -378 -14 t f f;
#X obj -351 11 spigot;
#X obj -351 61 t b b f;
#X obj -279 -14 t f f;
#X obj -252 11 spigot;
#X obj -252 36 t b b f;
#X obj -193 -36 receive \$1-savestart;
#X obj -351 34 spigot;
#X obj -193 -8 receive \$1-cancelre1;
#X connect 0 0 19 0;
#X connect 1 0 22 0;
#X connect 1 1 2 0;
#X connect 2 0 24 0;
#X connect 8 0 12 0;
#X connect 8 1 9 0;
#X connect 9 0 84 0;
#X connect 12 0 46 0;
#X connect 13 0 84 0;
#X connect 13 1 61 1;
#X connect 13 2 62 1;
#X connect 15 0 8 0;
#X connect 16 0 0 0;
#X connect 17 0 44 0;
#X connect 18 0 35 1;
#X connect 18 0 73 1;
#X connect 21 0 23 0;
#X connect 24 0 38 0;
#X connect 25 1 28 0;
#X connect 25 2 26 0;
#X connect 26 0 27 0;
#X connect 27 0 33 0;
#X connect 27 1 32 0;
#X connect 28 0 40 0;
#X connect 30 0 53 0;
#X connect 31 0 25 1;
#X connect 32 0 28 1;
#X connect 33 0 28 1;
#X connect 35 0 37 0;
#X connect 36 0 79 0;
#X connect 37 0 61 3;
#X connect 37 1 62 3;
#X connect 38 0 21 1;
#X connect 39 0 84 0;
#X connect 40 1 43 0;
#X connect 42 0 35 0;
#X connect 42 1 41 0;
#X connect 43 0 34 0;
#X connect 44 1 60 0;
#X connect 45 0 58 0;
#X connect 46 0 9 0;
#X connect 46 1 54 0;
#X connect 47 0 56 0;
#X connect 48 0 49 0;
#X connect 49 0 83 0;
#X connect 50 1 52 0;
#X connect 51 0 50 1;
#X connect 53 0 25 0;
#X connect 53 1 31 0;
#X connect 53 2 54 0;
#X connect 54 0 55 0;
#X connect 55 0 48 0;
#X connect 56 0 57 0;
#X connect 56 1 48 1;
#X connect 57 0 55 1;
#X connect 58 0 13 0;
#X connect 59 0 58 1;
#X connect 60 0 96 0;
#X connect 60 1 96 1;
#X connect 61 0 70 0;
#X connect 62 0 71 0;
#X connect 63 0 38 1;
#X connect 64 0 72 0;
#X connect 65 0 70 1;
#X connect 65 1 71 1;
#X connect 66 0 65 0;
#X connect 66 1 67 0;
#X connect 67 0 68 1;
#X connect 70 0 1 0;
#X connect 70 1 68 0;
#X connect 71 0 20 0;
#X connect 71 2 68 0;
#X connect 72 0 65 0;
#X connect 72 1 61 0;
#X connect 72 2 62 0;
#X connect 72 3 17 0;
#X connect 72 4 61 1;
#X connect 72 5 62 1;
#X connect 72 6 66 0;
#X connect 73 0 74 1;
#X connect 75 0 76 0;
#X connect 75 0 88 0;
#X connect 76 0 74 0;
#X connect 76 1 73 0;
#X connect 77 0 78 0;
#X connect 78 0 12 0;
#X connect 79 0 80 0;
#X connect 79 1 12 0;
#X connect 81 0 80 1;
#X connect 82 0 83 1;
#X connect 83 0 50 0;
#X connect 84 0 61 2;
#X connect 84 1 62 2;
#X connect 84 2 36 0;
#X connect 84 3 21 0;
#X connect 84 4 61 0;
#X connect 84 5 62 0;
#X connect 84 6 17 0;
#X connect 84 7 85 0;
#X connect 86 0 110 0;
#X connect 87 0 113 0;
#X connect 89 0 92 0;
#X connect 90 0 91 1;
#X connect 91 0 103 0;
#X connect 92 1 93 0;
#X connect 93 0 95 0;
#X connect 93 1 95 1;
#X connect 95 2 91 0;
#X connect 96 2 42 0;
#X connect 97 0 103 1;
#X connect 98 0 100 1;
#X connect 99 0 101 1;
#X connect 100 0 106 0;
#X connect 101 0 109 0;
#X connect 102 0 103 1;
#X connect 103 0 107 0;
#X connect 103 1 108 0;
#X connect 104 0 100 0;
#X connect 105 0 101 0;
#X connect 107 0 104 0;
#X connect 107 1 106 1;
#X connect 108 0 105 0;
#X connect 108 1 109 1;
#X connect 110 0 98 1;
#X connect 110 1 111 0;
#X connect 111 0 117 0;
#X connect 112 0 89 0;
#X connect 112 1 102 0;
#X connect 112 2 98 0;
#X connect 113 0 99 1;
#X connect 113 1 114 0;
#X connect 114 0 115 0;
#X connect 115 0 89 0;
#X connect 115 1 97 0;
#X connect 115 2 99 0;
#X connect 116 0 114 1;
#X connect 116 0 111 1;
#X connect 117 0 112 0;
#X connect 118 0 117 1;
