#N canvas 67 152 501 300 10;
#X obj 333 161 cyclone/prepend matrix;
#X obj 224 226 send;
#X obj 62 83 list split 1;
#X obj 62 41 t a a;
#X obj 94 63 list split 1;
#X obj 102 104 route bang;
#X obj 266 5 inlet;
#X obj 62 19 receive \$1-tomatrix-\$2;
#X obj 333 139 receive \$1-mmax-\$3;
#X obj 248 95 zexy/pack element 0 0 0;
#X obj 298 49 unpack f f f;
#X obj 316 27 unpack;
#X obj 298 71 -;
#X obj 338 71 -;
#X obj 266 27 t b l;
#X obj 224 150 list trim;
#X obj 224 205 iemmatrix/matrix;
#X obj 333 183 iemmatrix/mtx_check;
#X obj 316 5 receive \$1-goffs;
#X obj 422 3 inlet;
#X obj 380 49 unpack f f f;
#X obj 422 25 t b l;
#X connect 0 0 17 0;
#X connect 2 1 5 0;
#X connect 3 0 2 0;
#X connect 3 1 4 0;
#X connect 4 0 1 1;
#X connect 5 0 16 0;
#X connect 5 1 15 0;
#X connect 6 0 14 0;
#X connect 7 0 3 0;
#X connect 8 0 0 0;
#X connect 9 0 15 0;
#X connect 10 0 12 0;
#X connect 10 1 13 0;
#X connect 10 2 9 3;
#X connect 11 0 12 1;
#X connect 11 1 13 1;
#X connect 12 0 9 1;
#X connect 13 0 9 2;
#X connect 14 0 9 0;
#X connect 14 1 10 0;
#X connect 15 0 16 0;
#X connect 16 0 1 0;
#X connect 17 0 16 1;
#X connect 18 0 11 0;
#X connect 19 0 21 0;
#X connect 20 0 9 1;
#X connect 20 1 9 2;
#X connect 20 2 9 3;
#X connect 21 0 9 0;
#X connect 21 1 20 0;
