#N canvas 703 302 450 300 10;
#X obj 130 66 list split 0;
#X obj 164 90 list split 8;
#X obj 164 116 t l b;
#X obj 164 158 cyclone/iter;
#X obj 191 203 f;
#X obj 191 225 + 1;
#X obj 164 180 t f b;
#X obj 191 138 t f;
#X obj 216 225 inlet y;
#X obj 199 45 inlet x;
#X obj 164 274 outlet;
#X obj 130 21 receive \$1-\$2;
#X obj 164 252 pack f f f \$1;
#X connect 0 1 1 0;
#X connect 1 0 2 0;
#X connect 2 0 3 0;
#X connect 2 1 7 0;
#X connect 3 0 6 0;
#X connect 4 0 5 0;
#X connect 5 0 4 1;
#X connect 5 0 12 1;
#X connect 6 0 12 0;
#X connect 6 1 4 0;
#X connect 7 0 4 1;
#X connect 8 0 12 2;
#X connect 9 0 0 1;
#X connect 11 0 0 0;
#X connect 12 0 10 0;
