#N canvas 67 87 1299 681 10;
#X obj 62 54 cnv 15 178 104 empty cc empty 20 12 0 14 -195043 -66577
0;
#X obj 864 203 s \$0-enr;
#X obj 836 222 s \$0-cnr;
#X symbolatom 117 136 19 0 0 0 command #0-cin #0-cout, f 19;
#X obj 144 61 bng 15 250 50 0 \$1-done \$0-f ^ 5 9 0 10 -203904 -1
-1;
#X obj 889 170 iemguts/canvasdelete 1;
#X obj 248 391 l2s;
#X obj 248 413 s \$0-cin;
#X obj 248 435 receive \$0-cout;
#X obj 248 457 s2l;
#X obj 248 479 list trim;
#X obj 248 501 outlet;
#X obj 696 140 receive \$1-pbang;
#X obj 713 184 iemguts/canvasindex;
#X obj 696 209 pack;
#X msg 696 231 connect \$2 0 \$1 0;
#X obj 696 253 iemguts/sendcanvas 1;
#X obj 889 148 receive \$1-done;
#X obj 427 22 iemguts/closebang;
#X obj 427 44 t f;
#X obj 427 66 s \$1-gone;
#X obj 696 162 t f b b b;
#X obj 730 353 text get \$1-save;
#X obj 764 534 send;
#X obj 808 420 makefilename \$0-%sr;
#X obj 747 209 f 1;
#X obj 899 118 iemguts/propertybang;
#X obj 386 616 loadbang;
#X obj 386 639 list append loadproperties \$0;
#X obj 1051 141 receive \$0-loadstart;
#X obj 1051 164 t b f;
#X obj 1078 187 makefilename %d-save;
#X obj 167 61 tgl 15 0 \$0-quantizes \$0-quantizer quantize 17 7 0
10 -195043 -1 -1 0 1;
#X obj 167 79 tgl 15 0 \$0-guis \$0-guir show GUI 17 7 0 10 -195043
-1 -1 0 1;
#X obj 67 61 tgl 15 0 \$0-savings \$0-savingr auto save 17 7 0 10
-195043 -1 -1 0 1;
#X obj 67 79 tgl 15 0 \$0-actives \$0-activer active window 17 7 0
10 -195043 -1 -1 0 1;
#X symbolatom 69 115 27 0 0 2 mode 2 list #0-m2r #0-m2s, f 27;
#X msg 140 242 :qu \$1;
#X obj 267 220 receive \$0-guis;
#X obj 140 220 receive \$0-quantizes;
#X msg 267 242 :gui \$1;
#X obj 368 220 receive \$0-savings;
#X msg 368 242 :sa \$1;
#X obj 486 220 receive \$0-actives;
#X msg 486 242 :ac \$1;
#X obj 487 267 receive \$0-m2s;
#X msg 487 289 :m1 \$1;
#X obj 764 488 list prepend set;
#X obj 764 511 list trim;
#X obj 730 375 list trim;
#X obj 730 397 route %^;
#X obj 730 420 list split 1;
#X text 798 310 placement on list \, send name \, list or symbol;
#X obj 730 328 unpack f s f;
#X obj 764 443 demux;
#X obj 791 465 l2s;
#X msg 730 279 33 quantize 0 \, 34 gui 0 \, 35 saving 0 \, 36 active
0 \, 37 m2 1 \, 38 tx 0;
#X obj 167 97 tgl 15 0 \$0-txs \$0-txr M2 toggle 17 7 0 10 -195043
-1 -1 0 1;
#X obj 604 220 receive \$0-txs;
#X msg 604 243 :tx \$1;
#X connect 6 0 7 0;
#X connect 8 0 9 0;
#X connect 9 0 10 0;
#X connect 10 0 11 0;
#X connect 12 0 21 0;
#X connect 13 0 14 1;
#X connect 14 0 15 0;
#X connect 15 0 16 0;
#X connect 17 0 5 0;
#X connect 18 0 19 0;
#X connect 19 0 20 0;
#X connect 21 0 14 0;
#X connect 21 1 13 0;
#X connect 21 2 56 0;
#X connect 21 3 25 0;
#X connect 22 0 49 0;
#X connect 24 0 23 1;
#X connect 25 0 2 0;
#X connect 25 0 1 0;
#X connect 26 0 5 0;
#X connect 27 0 28 0;
#X connect 28 0 11 0;
#X connect 29 0 30 0;
#X connect 30 0 56 0;
#X connect 30 1 31 0;
#X connect 31 0 22 3;
#X connect 37 0 6 0;
#X connect 38 0 40 0;
#X connect 39 0 37 0;
#X connect 40 0 6 0;
#X connect 41 0 42 0;
#X connect 42 0 6 0;
#X connect 43 0 44 0;
#X connect 44 0 6 0;
#X connect 45 0 46 0;
#X connect 46 0 6 0;
#X connect 47 0 48 0;
#X connect 48 0 23 0;
#X connect 49 0 50 0;
#X connect 50 0 51 0;
#X connect 50 1 51 0;
#X connect 51 1 54 0;
#X connect 53 0 22 0;
#X connect 53 1 24 0;
#X connect 53 2 54 1;
#X connect 54 0 47 0;
#X connect 54 1 55 0;
#X connect 55 0 47 0;
#X connect 56 0 53 0;
#X connect 58 0 59 0;
#X connect 59 0 6 0;
#X coords 0 -1 1 1 180 106 2 61 53;
