#N canvas 477 108 722 687 10;
#X obj 292 448 div 12;
#X obj 255 87 moses;
#X obj 282 110 moses;
#X obj 189 -12 inlet;
#X obj 319 73 t f f f;
#X obj 216 43 moses 0;
#X obj 309 137 moses;
#X msg 62 416 -1;
#X obj 396 147 * 2;
#X obj 358 50 + 24;
#X obj 255 65 t f f;
#X obj 410 227 * 13;
#X obj 447 146 + 1;
#X obj 392 254 <=;
#X obj 255 345 t f b;
#X obj 255 374 demux;
#X obj 255 402 -;
#X obj 392 281 + 12;
#X obj 387 14 t b f f;
#X obj 282 279 t b;
#X obj 524 125 - 1;
#X obj 396 123 t f f f f;
#X obj 309 189 - 62;
#X obj 309 220 t f b;
#X obj 292 470 demux;
#X obj 292 374 t f;
#X msg 336 448 1;
#X obj 319 493 +;
#X obj 524 149 t f f;
#X obj 319 24 t f f f f;
#X obj 319 517 + 1;
#X obj 319 50 - 12;
#X obj 70 283 change;
#X obj 282 301 f \$6;
#X obj 189 12 demux;
#X obj 189 204 div 12;
#X obj 228 -12 inlet;
#X obj 281 584 change;
#X obj 281 606 outlet;
#X obj 396 100 receive \$1-\$2zoomdiv;
#X obj 523 80 receive \$1-\$2size-2;
#X obj 410 203 receive \$1-\$2zoommod;
#X obj 222 164 receive \$1-\$2zoomdiv;
#X obj 387 -12 receive \$1-\$3zoomdiv;
#X obj 319 -41 receive \$1-\$2pix;
#X connect 0 0 24 0;
#X connect 1 0 14 0;
#X connect 1 1 2 0;
#X connect 2 0 19 0;
#X connect 2 1 6 0;
#X connect 3 0 34 0;
#X connect 4 1 1 1;
#X connect 5 0 7 0;
#X connect 5 1 10 0;
#X connect 6 0 22 0;
#X connect 6 1 7 0;
#X connect 7 0 32 0;
#X connect 7 0 37 0;
#X connect 8 0 9 1;
#X connect 9 0 6 1;
#X connect 10 0 1 0;
#X connect 10 1 13 0;
#X connect 11 0 13 1;
#X connect 12 0 11 1;
#X connect 13 0 15 1;
#X connect 13 0 17 0;
#X connect 14 0 15 0;
#X connect 14 1 25 0;
#X connect 15 0 16 0;
#X connect 15 1 0 0;
#X connect 16 0 0 0;
#X connect 17 0 0 1;
#X connect 18 0 31 0;
#X connect 18 1 31 1;
#X connect 19 0 33 0;
#X connect 20 0 28 0;
#X connect 21 0 8 0;
#X connect 21 1 17 1;
#X connect 21 3 12 0;
#X connect 22 0 23 0;
#X connect 23 0 0 0;
#X connect 23 1 26 0;
#X connect 24 0 32 0;
#X connect 24 0 37 0;
#X connect 24 1 27 0;
#X connect 25 0 24 1;
#X connect 26 0 24 1;
#X connect 27 0 30 0;
#X connect 28 0 33 1;
#X connect 28 1 27 1;
#X connect 29 0 31 0;
#X connect 29 1 2 1;
#X connect 29 2 9 0;
#X connect 29 3 22 1;
#X connect 30 0 32 0;
#X connect 30 0 37 0;
#X connect 31 0 4 0;
#X connect 33 0 32 0;
#X connect 33 0 37 0;
#X connect 34 0 35 0;
#X connect 34 1 5 0;
#X connect 35 0 37 0;
#X connect 36 0 34 1;
#X connect 37 0 38 0;
#X connect 39 0 21 0;
#X connect 40 0 20 0;
#X connect 41 0 11 0;
#X connect 41 0 16 1;
#X connect 42 0 35 1;
#X connect 43 0 18 0;
#X connect 44 0 29 0;
