#N canvas 197 272 511 323 10;
#X obj 53 -2 inlet;
#X obj 53 102 s \$1-rnum;
#X obj 53 80 f \$2;
#X obj 215 119 f \$2;
#X obj 473 54 f \$2;
#X obj 188 167 relay \$4;
#X obj 188 95 t a b;
#X obj 233 242 t a a;
#X obj 473 32 t b s;
#X obj 473 76 pack f s;
#X obj 188 189 list prepend %^ :\$3;
#X obj 233 219 list prepend :\$3;
#X obj 473 10 receive \$1-\$3-fetch;
#X obj 473 98 s \$1-fetchno2;
#X obj 53 20 t b b;
#X obj 283 2 v (dollarzero);
#X obj 277 242 makefilename %i-everything;
#X obj 233 264 send;
#X obj 297 264 makefilename %i-saveset;
#X obj 265 287 send;
#X text 480 125 what to do with fetch?;
#X obj 250 119 makefilename %i-savenum;
#X obj 215 141 send;
#X obj 188 48 makefilename %i-:\$3;
#X obj 188 71 iemguts/oreceive \$0n;
#X connect 0 0 14 0;
#X connect 2 0 1 0;
#X connect 3 0 22 0;
#X connect 4 0 9 0;
#X connect 5 0 10 0;
#X connect 5 1 11 0;
#X connect 6 0 5 0;
#X connect 6 1 3 0;
#X connect 7 0 17 0;
#X connect 7 1 19 0;
#X connect 8 0 4 0;
#X connect 8 1 9 1;
#X connect 9 0 13 0;
#X connect 10 0 7 0;
#X connect 11 0 7 0;
#X connect 12 0 8 0;
#X connect 14 0 2 0;
#X connect 14 1 15 0;
#X connect 15 0 16 0;
#X connect 15 0 18 0;
#X connect 15 0 21 0;
#X connect 15 0 23 0;
#X connect 16 0 17 1;
#X connect 18 0 19 1;
#X connect 21 0 22 1;
#X connect 23 0 24 0;
#X connect 24 0 6 0;
