#N canvas 230 396 450 355 10;
#X obj 160 21 inlet;
#X obj 160 44 t f b;
#X obj 160 67 + \$1;
#X obj 261 65 f \$1;
#X obj 160 303 print -n;
#X obj 160 257 list prepend;
#X obj 261 111 list append :;
#X obj 261 42 receive \$2-helpstart;
#X obj 160 115 text get \$2-pre;
#X obj 261 88 text get \$2-pre;
#X obj 160 183 demux;
#X obj 246 138 f \$3;
#X obj 187 205 outlet;
#X obj 103 223 route bang;
#X obj 160 280 list trim;
#X connect 0 0 1 0;
#X connect 1 0 2 0;
#X connect 2 0 8 0;
#X connect 3 0 9 0;
#X connect 5 0 14 0;
#X connect 6 0 5 1;
#X connect 7 0 3 0;
#X connect 7 0 11 0;
#X connect 8 0 10 0;
#X connect 9 0 6 0;
#X connect 10 0 13 0;
#X connect 10 1 12 0;
#X connect 11 0 10 1;
#X connect 13 1 5 0;
#X connect 14 0 4 0;
