#N canvas 67 85 1299 683 10;
#X obj 412 342 s \$0-labr;
#X obj 103 100 hsl 127 17 0 127 0 0 \$0-labs \$0-labr \$2 0 9 0 10
-262134 -262134 -1 12600 1;
#X obj 156 201 sp01 1;
#X obj 156 146 receive \$0-labs;
#X obj 206 201 receive \$1-mup;
#X obj 156 311 s \$1-helpout;
#X obj 156 289 f \$3;
#X msg 316 241 label;
#X text 235 33 arguments: \$1 \, original label \, number \, \$0;
#X obj 281 345 list prepend label;
#X obj 281 367 list trim;
#X obj 316 197 route **;
#X obj 190 267 list append \$2;
#X obj 190 289 s \$1-symset;
#X obj 559 303 list-abs/list-pad;
#X obj 343 218 t b a a a;
#X obj 559 259 list fromsymbol;
#X obj 559 281 list-abs/list-filter;
#X obj 691 281 != 194;
#X obj 559 236 symbol \$2;
#X obj 687 344 receive \$1-blippp;
#X obj 586 616 cyclone/zl rot;
#X obj 559 325 demux;
#X obj 586 660 list split 21;
#X obj 586 682 t a a;
#X obj 613 705 sp01;
#X obj 666 515 t b f b;
#X obj 586 728 list tosymbol;
#X msg 504 582 label \$1;
#X obj 613 441 - 1;
#X msg 613 538 22;
#X obj 613 493 sel 0;
#X obj 586 396 t a b;
#X obj 586 348 t b a;
#X obj 586 372 list;
#X obj 586 562 list append;
#X msg 687 366 1;
#X obj 613 419 f 21;
#X obj 667 572 demux;
#X obj 694 616 -;
#X obj 613 515 t b b b;
#X obj 721 491 t f;
#X obj 685 540 - 1;
#X obj 694 594 swap 42;
#X obj 412 297 receive \$1-primary-col;
#X text 426 277 WAS \$4;
#X obj 586 154 receive \$1-lb;
#X obj 316 175 receive \$1-\$3-rehelp;
#X obj 648 540 del 7;
#X obj 207 245 s \$1-sett1;
#X obj 156 223 t b b b b;
#X obj 658 242 array get 160aassaa;
#X msg 412 320 color \$4 \$4 \$5;
#X obj 156 168 sp01;
#X obj 252 115 receive \$1-savestart;
#X obj 586 199 f 1;
#X obj 655 201 s \$0-labr;
#X obj 586 176 t b b b b;
#X obj 655 176 f 127;
#X connect 2 0 50 0;
#X connect 3 0 53 0;
#X connect 4 0 2 2;
#X connect 6 0 5 0;
#X connect 7 0 0 0;
#X connect 9 0 10 0;
#X connect 10 0 0 0;
#X connect 11 0 7 0;
#X connect 11 0 41 0;
#X connect 11 0 53 1;
#X connect 11 1 15 0;
#X connect 12 0 13 0;
#X connect 14 0 22 0;
#X connect 15 0 53 2;
#X connect 15 2 12 1;
#X connect 15 3 19 0;
#X connect 16 0 17 0;
#X connect 17 0 14 0;
#X connect 17 1 18 0;
#X connect 18 0 17 1;
#X connect 19 0 16 0;
#X connect 20 0 36 0;
#X connect 21 0 23 0;
#X connect 22 0 35 1;
#X connect 22 1 33 0;
#X connect 23 0 24 0;
#X connect 24 0 27 0;
#X connect 24 1 25 0;
#X connect 25 0 35 1;
#X connect 26 0 48 0;
#X connect 26 1 42 0;
#X connect 26 2 25 1;
#X connect 27 0 28 0;
#X connect 28 0 0 0;
#X connect 29 0 37 1;
#X connect 29 0 31 0;
#X connect 30 0 37 1;
#X connect 31 0 40 0;
#X connect 31 1 26 0;
#X connect 32 0 35 0;
#X connect 32 1 37 0;
#X connect 33 0 34 0;
#X connect 33 1 34 1;
#X connect 34 0 32 0;
#X connect 35 0 21 0;
#X connect 36 0 38 1;
#X connect 37 0 29 0;
#X connect 38 0 21 1;
#X connect 38 1 43 0;
#X connect 39 0 21 1;
#X connect 40 0 30 0;
#X connect 40 1 25 2;
#X connect 40 2 41 0;
#X connect 41 0 38 1;
#X connect 42 0 38 0;
#X connect 43 0 39 0;
#X connect 43 1 39 1;
#X connect 44 0 52 0;
#X connect 46 0 57 0;
#X connect 47 0 11 0;
#X connect 48 0 34 0;
#X connect 50 0 6 0;
#X connect 50 1 2 1;
#X connect 50 2 12 0;
#X connect 50 3 49 0;
#X connect 51 0 14 1;
#X connect 52 0 0 0;
#X connect 53 0 2 0;
#X connect 54 0 53 2;
#X connect 55 0 22 1;
#X connect 57 0 55 0;
#X connect 57 1 19 0;
#X connect 57 2 51 0;
#X connect 57 3 58 0;
#X connect 58 0 56 0;
#X coords 0 -1 1 1 132 17 2 100 100;
