#N canvas 67 229 461 516 10;
#X obj 73 3 receive \$1-\$2-search;
#X obj 100 65 list split 1;
#X obj 100 135 f;
#X obj 100 111 until;
#X obj 131 135 + 1;
#X obj 100 159 list append;
#X obj 100 205 sel -1;
#X obj 178 257 s \$2-found;
#X obj 100 182 text search \$2-pro >= 0 < 0 \$1;
#X obj 73 349 spigot;
#X obj 106 325 receive \$2-sstart;
#X obj 94 379 receive \$2-searchstart;
#X obj 94 402 f \$1;
#X obj 94 425 + 1;
#X obj 94 448 makefilename %d-\$2-search;
#X obj 73 472 send;
#X obj 133 230 t f b f;
#X obj 152 257 t f;
#X obj 100 88 t b f;
#X obj 73 26 t l l;
#X text 156 94 5.1: search for all instances of the first search time
in the \$1 instance of pro, f 42;
#X text 165 354 5.1: If not found \, forward to \$1 + 1;
#X connect 0 0 19 0;
#X connect 1 0 18 0;
#X connect 1 1 5 1;
#X connect 2 0 5 0;
#X connect 3 0 2 0;
#X connect 4 0 2 1;
#X connect 5 0 8 0;
#X connect 6 0 3 1;
#X connect 6 1 16 0;
#X connect 8 0 6 0;
#X connect 9 0 15 0;
#X connect 10 0 9 1;
#X connect 11 0 12 0;
#X connect 12 0 13 0;
#X connect 13 0 14 0;
#X connect 14 0 15 1;
#X connect 16 0 4 0;
#X connect 16 1 17 0;
#X connect 16 2 7 0;
#X connect 17 0 9 1;
#X connect 18 0 3 0;
#X connect 18 1 2 1;
#X connect 19 0 9 0;
#X connect 19 1 1 0;
