#N canvas 440 118 881 650 10;
#X obj 341 264 + 1;
#X obj 397 389 - 1;
#X obj 407 330 unpack;
#X obj 248 189 spigot 1;
#X obj 465 238 t f;
#X obj 448 214 t f b b b;
#X obj 499 237 spigot;
#X obj 474 388 + 1;
#X obj 538 214 f 1;
#X obj 248 212 array min;
#X obj 372 482 array set;
#X obj 474 410 s;
#X obj 379 100 spigot 1;
#X obj 582 266 t f;
#X obj 582 288 f 1;
#X obj 376 287 t b b;
#X obj 117 262 array sum;
#X obj 117 284 sel 0;
#X obj 117 327 send;
#X text 34 245 delete IDshare when array sum is 0;
#X obj 379 169 del 10;
#X obj 407 308 pack;
#X obj 437 147 t f b;
#X obj 496 147 t f b;
#X obj 379 147 t b b b;
#X obj 637 366 f;
#X obj 379 122 route -reset -f;
#X obj 662 366 t f;
#X obj 397 411 t f f;
#X obj 424 433 >=;
#X obj 372 456 spigot;
#X obj 379 78 receive \$1-cnumbers;
#X obj 532 169 receive \$1-savestart;
#X obj 454 451 s \$1-:ID;
#X obj 248 167 inlet;
#X obj 286 38 inlet;
#X obj 341 406 outlet;
#X obj 366 30 inlet;
#X msg 396 52 symbol \$1-IDshare;
#X msg 138 305 symbol \$1-IDsharedel;
#X msg 508 353 symbol \$1-IDsharer;
#X obj 637 408 outlet;
#X obj 341 355 t f f f f f b f b;
#X connect 0 0 42 0;
#X connect 1 0 28 0;
#X connect 2 0 30 0;
#X connect 2 1 1 0;
#X connect 3 0 9 0;
#X connect 4 0 3 1;
#X connect 5 0 42 0;
#X connect 5 1 4 0;
#X connect 5 2 8 0;
#X connect 5 3 6 0;
#X connect 6 0 21 0;
#X connect 7 0 11 0;
#X connect 8 0 6 1;
#X connect 9 1 0 0;
#X connect 12 0 26 0;
#X connect 13 0 12 1;
#X connect 14 0 12 1;
#X connect 15 0 16 0;
#X connect 15 1 21 0;
#X connect 16 0 17 0;
#X connect 17 0 18 0;
#X connect 20 0 9 0;
#X connect 21 0 2 0;
#X connect 22 0 5 0;
#X connect 22 1 25 0;
#X connect 23 0 5 0;
#X connect 23 1 27 0;
#X connect 24 0 20 0;
#X connect 24 1 21 0;
#X connect 24 2 27 0;
#X connect 25 0 41 0;
#X connect 26 0 24 0;
#X connect 26 1 22 0;
#X connect 26 2 23 0;
#X connect 27 0 41 0;
#X connect 28 0 10 1;
#X connect 28 1 29 0;
#X connect 29 0 30 1;
#X connect 30 0 10 0;
#X connect 31 0 12 0;
#X connect 32 0 6 1;
#X connect 32 0 25 1;
#X connect 34 0 3 0;
#X connect 35 0 15 0;
#X connect 37 0 38 0;
#X connect 37 0 39 0;
#X connect 37 0 40 0;
#X connect 38 0 16 2;
#X connect 38 0 10 2;
#X connect 38 0 9 2;
#X connect 39 0 18 1;
#X connect 40 0 11 1;
#X connect 42 0 36 0;
#X connect 42 1 30 0;
#X connect 42 2 1 0;
#X connect 42 3 21 1;
#X connect 42 4 7 0;
#X connect 42 5 14 0;
#X connect 42 6 33 0;
#X connect 42 7 13 0;
