#N canvas 455 159 881 650 10;
#X obj 341 264 + 1;
#X obj 397 389 - 1;
#X obj 407 330 unpack;
#X obj 248 189 spigot 1;
#X obj 465 238 t f;
#X obj 448 214 t f b b b;
#X obj 499 237 spigot;
#X obj 474 388 + 1;
#X obj 538 214 f 1;
#X obj 360 55 makefilename %d-IDshare;
#X obj 248 212 array min;
#X obj 372 482 array set;
#X obj 474 410 s;
#X obj 461 327 makefilename %d-IDsharer;
#X obj 379 100 spigot 1;
#X obj 582 266 t f;
#X obj 582 288 f 1;
#X obj 376 287 t b b;
#X obj 117 262 array sum;
#X obj 142 304 makefilename %d-IDsharedel;
#X obj 117 284 sel 0;
#X obj 117 326 send;
#X text 34 245 delete IDshare when array sum is 0;
#X obj 379 169 del 10;
#X obj 407 308 pack;
#X obj 341 355 t f f f f f f b f b f f;
#X msg 631 472 \; \$4-parentn \$1 \$3;
#X obj 604 449 t l l;
#X obj 604 511 spigot;
#X obj 621 577 send;
#X msg 638 555 symbol \$3-\$2-IDchange;
#X obj 565 484 route 0;
#X obj 604 533 t b f l b;
#X obj 437 147 t f b;
#X obj 496 147 t f b;
#X obj 379 147 t b b b;
#X obj 637 366 f;
#X obj 379 122 route -reset -f;
#X obj 662 366 t f;
#X obj 397 411 t f f;
#X obj 424 433 >=;
#X obj 372 456 spigot;
#X obj 379 78 receive \$1-cnumbers;
#X obj 532 169 receive \$1-savestart;
#X obj 376 265 receive \$1-Cbang;
#X obj 284 392 v \$1nnumber;
#X obj 454 451 s \$1-:ID;
#X obj 356 506 s \$1nnumber;
#X obj 654 405 receive \$1-parent;
#X obj 604 427 pack f f f \$1;
#X obj 655 577 s \$1-roff;
#X obj 604 599 s \$1-roff2;
#X obj 248 167 inlet;
#X obj 366 30 inlet;
#X connect 0 0 25 0;
#X connect 1 0 39 0;
#X connect 2 0 41 0;
#X connect 2 1 1 0;
#X connect 3 0 10 0;
#X connect 4 0 3 1;
#X connect 5 0 25 0;
#X connect 5 1 4 0;
#X connect 5 2 8 0;
#X connect 5 3 6 0;
#X connect 6 0 24 0;
#X connect 7 0 12 0;
#X connect 8 0 6 1;
#X connect 9 0 10 2;
#X connect 9 0 11 2;
#X connect 9 0 18 2;
#X connect 10 1 0 0;
#X connect 13 0 12 1;
#X connect 14 0 37 0;
#X connect 15 0 14 1;
#X connect 16 0 14 1;
#X connect 17 0 18 0;
#X connect 17 1 24 0;
#X connect 18 0 20 0;
#X connect 19 0 21 1;
#X connect 20 0 21 0;
#X connect 23 0 10 0;
#X connect 24 0 2 0;
#X connect 25 0 45 0;
#X connect 25 1 47 0;
#X connect 25 2 41 0;
#X connect 25 3 1 0;
#X connect 25 4 24 1;
#X connect 25 5 7 0;
#X connect 25 6 16 0;
#X connect 25 7 46 0;
#X connect 25 8 15 0;
#X connect 25 9 49 1;
#X connect 25 10 49 0;
#X connect 27 0 31 0;
#X connect 27 1 26 0;
#X connect 28 0 32 0;
#X connect 30 0 29 1;
#X connect 31 1 28 0;
#X connect 32 0 51 0;
#X connect 32 1 29 0;
#X connect 32 2 30 0;
#X connect 32 3 50 0;
#X connect 33 0 5 0;
#X connect 33 1 36 0;
#X connect 34 0 5 0;
#X connect 34 1 38 0;
#X connect 35 0 23 0;
#X connect 35 1 24 0;
#X connect 35 2 38 0;
#X connect 36 0 28 1;
#X connect 37 0 35 0;
#X connect 37 1 33 0;
#X connect 37 2 34 0;
#X connect 38 0 28 1;
#X connect 39 0 11 1;
#X connect 39 1 40 0;
#X connect 40 0 41 1;
#X connect 41 0 11 0;
#X connect 42 0 14 0;
#X connect 43 0 6 1;
#X connect 43 0 36 1;
#X connect 44 0 17 0;
#X connect 48 0 49 2;
#X connect 49 0 27 0;
#X connect 52 0 3 0;
#X connect 53 0 9 0;
#X connect 53 0 13 0;
#X connect 53 0 19 0;
