#N canvas 409 330 450 300 10;
#X obj 130 63 max;
#X obj 130 85 t f f;
#X msg 130 129 resize \$1;
#X obj 130 107 change;
#X obj 130 151 array define \$1-IDshare 1;
#X obj 130 41 receive \$1-IDsharer;
#X obj 240 183 shared ctxfiles/IDshare \$1;
#X obj 289 61 receive idsopen;
#X msg 289 83 vis 1;
#X obj 289 105 iemguts/sendcanvas;
#X obj 42 173 receive \$1-IDsharedel;
#X obj 42 239 iemguts/canvasdelete 1;
#X obj 42 195 spigot 1;
#X obj 42 217 t b f;
#X connect 0 0 1 0;
#X connect 1 0 3 0;
#X connect 1 1 0 1;
#X connect 2 0 4 0;
#X connect 3 0 2 0;
#X connect 5 0 0 0;
#X connect 7 0 8 0;
#X connect 8 0 9 0;
#X connect 10 0 12 0;
#X connect 12 0 13 0;
#X connect 13 0 11 0;
#X connect 13 1 12 1;
