#N canvas 414 355 740 300 10;
#X obj 13 129 s \$7-inlet-out;
#X obj 104 129 s \$7-outletx;
#X obj 183 129 s \$7-outlety;
#X obj 347 129 s \$7-everythingout;
#X obj 262 129 s \$7-mouseout;
#X obj 13 105 inlet;
#X obj 104 105 inlet;
#X obj 183 105 inlet;
#X obj 347 105 inlet;
#X obj 262 105 inlet;
#X obj 616 105 inlet;
#X obj 616 129 s \$7-customr;
#X obj 463 105 inlet;
#X obj 463 129 s \$7-messager;
#X obj 548 105 inlet;
#X obj 548 129 route m;
#X obj 587 152 s \$7-nburst;
#X connect 5 0 0 0;
#X connect 6 0 1 0;
#X connect 7 0 2 0;
#X connect 8 0 3 0;
#X connect 9 0 4 0;
#X connect 10 0 11 0;
#X connect 12 0 13 0;
#X connect 14 0 15 0;
#X connect 15 1 16 0;
