#N canvas 137 351 1181 407 10;
#X obj 20 76 iemguts/savebangs 1;
#X obj 13 362 iemguts/canvasname 1;
#X obj 20 267 f;
#X obj 20 156 iemguts/closebang;
#X obj 20 98 del 100;
#X msg 81 209 1;
#X obj 20 208 spigot;
#X obj 150 278 f \$7;
#X obj 313 258 outlet;
#X obj 399 258 outlet;
#X obj 497 258 outlet;
#X obj 685 258 outlet;
#X obj 593 258 outlet;
#X obj 150 249 receive \$7-lb;
#X obj 35 242 receive \$7-build2;
#X obj 313 216 receive \$7-inlet-in;
#X obj 367 -97 receive \$7-outletx-in;
#X obj 465 136 receive \$7-outlety-in;
#X obj 685 172 receive \$7-everything;
#X obj 593 236 receive \$7-mousein;
#X obj 993 258 outlet;
#X obj 993 236 receive \$7-customs;
#X obj 20 178 t b b;
#X obj 58 179 s \$7-closing;
#X obj 785 258 outlet;
#X obj 785 236 receive \$7-messages;
#X obj 283 169 iemguts/canvasdelete;
#X obj 685 194 list trim;
#X obj 685 216 route %^;
#X obj 283 123 receive \$7-overlay;
#X obj 283 145 iemguts/sendcanvas 1;
#X obj 20 124 s \$7-overlay-save;
#X msg 150 336 symbol tmp/\$1-overlay.pd;
#X msg 20 311 symbol overlay-\$1.pd;
#X obj 893 258 outlet;
#X obj 893 216 receive \$7-nexts;
#X obj 367 -49 spigot;
#X obj 548 48 loadbang;
#X obj 548 70 v findon)()(;
#X obj 533 26 receive findon)()(;
#X obj 548 92 t f f;
#X obj 465 180 spigot;
#X obj 367 96 s \$7-xffind;
#X obj 465 202 s \$7-yffind;
#X obj 367 -75 t f a;
#X obj 465 158 t f a;
#X obj 413 -68 receive \$7-xsize-2;
#X obj 367 -27 moses 5;
#X obj 387 69 spigot;
#X obj 413 -5 t f b;
#X obj 426 21 v \$7-fdog;
#X obj 426 43 ==;
#X obj 703 88 iemguts/canvasdollarzero 1;
#X obj 703 110 s \$7-ovzero;
#X connect 0 0 4 0;
#X connect 2 0 33 0;
#X connect 3 0 22 0;
#X connect 4 0 31 0;
#X connect 5 0 6 1;
#X connect 6 0 2 0;
#X connect 7 0 32 0;
#X connect 13 0 5 0;
#X connect 13 0 7 0;
#X connect 14 0 2 1;
#X connect 15 0 8 0;
#X connect 16 0 44 0;
#X connect 17 0 45 0;
#X connect 18 0 27 0;
#X connect 19 0 12 0;
#X connect 21 0 20 0;
#X connect 22 0 6 0;
#X connect 22 1 23 0;
#X connect 25 0 24 0;
#X connect 27 0 28 0;
#X connect 28 0 11 0;
#X connect 28 1 11 0;
#X connect 29 0 30 0;
#X connect 32 0 1 1;
#X connect 33 0 1 1;
#X connect 35 0 34 0;
#X connect 36 0 47 0;
#X connect 37 0 38 0;
#X connect 37 0 52 0;
#X connect 38 0 40 0;
#X connect 39 0 40 0;
#X connect 40 0 36 1;
#X connect 40 1 41 1;
#X connect 41 0 43 0;
#X connect 44 0 36 0;
#X connect 44 1 9 0;
#X connect 45 0 41 0;
#X connect 45 1 10 0;
#X connect 46 0 47 1;
#X connect 47 0 42 0;
#X connect 47 1 49 0;
#X connect 48 0 42 0;
#X connect 49 0 48 0;
#X connect 49 1 50 0;
#X connect 50 0 51 0;
#X connect 51 0 48 1;
#X connect 52 0 53 0;
