#N canvas 273 355 882 300 10;
#X obj 13 129 s \$3-inlet-out;
#X obj 104 129 s \$3-outletx;
#X obj 183 129 s \$3-outlety;
#X obj 347 129 s \$3-everythingout;
#X obj 262 129 s \$3-mouseout;
#X obj 13 105 inlet;
#X obj 104 105 inlet;
#X obj 183 105 inlet;
#X obj 347 105 inlet;
#X obj 262 105 inlet;
#X obj 616 105 inlet;
#X obj 616 129 s \$3-customr;
#X obj 463 105 inlet;
#X obj 463 129 s \$3-messager;
#X obj 548 105 inlet;
#X obj 448 228 route m;
#X obj 487 251 s \$3-nburst;
#X obj 598 254 s \$3-x-messon;
#X obj 648 234 s \$3-y-messon;
#X obj 548 181 route next cursor-x cursor-y count;
#X obj 698 207 s \$3-mescout;
#X connect 5 0 0 0;
#X connect 6 0 1 0;
#X connect 7 0 2 0;
#X connect 8 0 3 0;
#X connect 9 0 4 0;
#X connect 10 0 11 0;
#X connect 12 0 13 0;
#X connect 14 0 19 0;
#X connect 15 1 16 0;
#X connect 19 0 15 0;
#X connect 19 1 17 0;
#X connect 19 2 18 0;
#X connect 19 3 20 0;
