#N canvas 67 271 1181 407 10;
#X obj 20 76 iemguts/savebangs 1;
#X obj 13 362 iemguts/canvasname 1;
#X obj 20 267 f;
#X obj 20 98 del 100;
#X msg 81 209 1;
#X obj 20 208 spigot;
#X obj 150 278 f \$3;
#X obj 313 258 outlet;
#X obj 399 258 outlet;
#X obj 497 258 outlet;
#X obj 685 258 outlet;
#X obj 593 258 outlet;
#X obj 150 249 receive \$3-lb;
#X obj 35 242 receive \$3-build2;
#X obj 313 216 receive \$3-inlet-in;
#X obj 367 -97 receive \$3-outletx-in;
#X obj 465 136 receive \$3-outlety-in;
#X obj 685 172 receive \$3-everything;
#X obj 593 236 receive \$3-mousein;
#X obj 993 258 outlet;
#X obj 993 236 receive \$3-customs;
#X obj 20 178 t b b;
#X obj 58 179 s \$3-closing;
#X obj 785 258 outlet;
#X obj 785 236 receive \$3-messages;
#X obj 283 169 iemguts/canvasdelete;
#X obj 685 194 list trim;
#X obj 685 216 route %^;
#X obj 283 123 receive \$3-overlay;
#X obj 283 145 iemguts/sendcanvas 1;
#X obj 20 124 s \$3-overlay-save;
#X msg 150 336 symbol tmp/\$1-overlay.pd;
#X msg 20 311 symbol overlay-\$1.pd;
#X obj 893 258 outlet;
#X obj 850 142 receive \$3-nexts;
#X obj 367 -49 spigot;
#X obj 548 48 loadbang;
#X obj 548 70 v findon)()(;
#X obj 533 26 receive findon)()(;
#X obj 548 92 t f f;
#X obj 465 180 spigot;
#X obj 367 96 s \$3-xffind;
#X obj 465 202 s \$3-yffind;
#X obj 367 -75 t f a;
#X obj 465 158 t f a;
#X obj 413 -68 receive \$3-xsize-2;
#X obj 367 -27 moses 5;
#X obj 387 69 spigot;
#X obj 413 -5 t f b;
#X obj 426 21 v \$3-fdog;
#X obj 426 43 ==;
#X obj 703 88 iemguts/canvasdollarzero 1;
#X obj 703 132 s \$3-ovzero;
#X obj 20 156 receive \$3-Cbang;
#X obj 703 110 s2l;
#X obj 850 165 cyclone/prepend next;
#X obj 893 189 receive \$3-messonpre;
#X connect 0 0 3 0;
#X connect 2 0 32 0;
#X connect 3 0 30 0;
#X connect 4 0 5 1;
#X connect 5 0 2 0;
#X connect 6 0 31 0;
#X connect 12 0 4 0;
#X connect 12 0 6 0;
#X connect 13 0 2 1;
#X connect 14 0 7 0;
#X connect 15 0 43 0;
#X connect 16 0 44 0;
#X connect 17 0 26 0;
#X connect 18 0 11 0;
#X connect 20 0 19 0;
#X connect 21 0 5 0;
#X connect 21 1 22 0;
#X connect 24 0 23 0;
#X connect 26 0 27 0;
#X connect 27 0 10 0;
#X connect 27 1 10 0;
#X connect 28 0 29 0;
#X connect 31 0 1 1;
#X connect 32 0 1 1;
#X connect 34 0 55 0;
#X connect 35 0 46 0;
#X connect 36 0 37 0;
#X connect 36 0 51 0;
#X connect 37 0 39 0;
#X connect 38 0 39 0;
#X connect 39 0 35 1;
#X connect 39 1 40 1;
#X connect 40 0 42 0;
#X connect 43 0 35 0;
#X connect 43 1 8 0;
#X connect 44 0 40 0;
#X connect 44 1 9 0;
#X connect 45 0 46 1;
#X connect 46 0 41 0;
#X connect 46 1 48 0;
#X connect 47 0 41 0;
#X connect 48 0 47 0;
#X connect 48 1 49 0;
#X connect 49 0 50 0;
#X connect 50 0 47 1;
#X connect 51 0 54 0;
#X connect 53 0 21 0;
#X connect 54 0 52 0;
#X connect 55 0 33 0;
#X connect 56 0 33 0;
