#N canvas 279 221 974 495 10;
#X obj 728 617 inlet;
#X obj 728 593 outlet;
#X obj 668 402 line;
#X obj 668 101 -;
#X obj 731 299 /;
#X obj 642 347 t f;
#X text 310 -48 xa ya;
#X text 711 -177 xb yb;
#X text 898 249 s;
#X obj 731 277 swap 10;
#X obj 592 -55 unpack;
#X obj 780 -81 unpack;
#X obj 668 708 +;
#X obj 668 685 *;
#X obj 730 421 -;
#X msg 556 824 set \$1;
#X obj 668 864 tabwrite \$1-array;
#X msg 602 300 stop;
#X obj 668 347 pack f 10 f;
#X obj 467 -11 receive \$1-\$3-head;
#X obj 820 2 receive \$1-lb1;
#X obj 731 321 * 0.5;
#X text 797 681 x value = L + xa * z/X;
#X text 719 121 no. of points P is: (xb-xa) * z/X;
#X obj 668 562 demux;
#X text 783 651 2: if so \, pass line to outlet;
#X obj 1019 248 f \$3;
#X msg 1019 323 inlet \$1 \, outlet \$1;
#X obj 1019 300 t f b;
#X obj 1019 366 list length;
#X text 934 217 1: determine whether inlet & outlet are connected;
#X obj 1019 388 != 2;
#X obj 1019 410 t b f;
#X obj 1046 458 demux;
#X obj 1019 432 t f;
#X obj 1073 424 f 1;
#X obj 1019 270 + 1;
#X obj 1019 344 iemguts/canvasconnections 1;
#X text 735 370 draw a line L from 0 to P in s miliseconds;
#X obj 728 639 unpack;
#X obj 556 802 receive \$1-aname;
#X obj 1046 480 ||;
#X obj 820 70 sel 0;
#X obj 807 -18 receive \$1-lob;
#X obj 695 709 receive \$1-y1y2;
#X obj 668 730 * 1;
#X obj 668 752 +;
#X text 791 709 y1-y2;
#X text 784 729 y2;
#X text 295 715 y value = ( L/P + ya (yb - ya) ) * (y1 - y2) + y2;
#X obj 696 730 receive \$1-y22;
#X obj 307 -28 receive \$1-1-\$2-point;
#X obj 697 -160 receive \$1-1-\$3-point;
#X obj 332 81 receive \$1-bpl-\$3;
#X obj 8 -33 receive \$1-bpy-\$3;
#X obj 50 42 receive \$1-bpx-\$3;
#X msg 406 147 resize \$1;
#X obj 120 187 spigot;
#X text 208 58 receive bpoints and bang unless empty;
#X obj 120 231 t f f;
#X obj 152 256 ==;
#X obj 152 278 sel 1;
#X obj 152 331 t f f;
#X obj 184 356 ==;
#X obj 184 378 sel 0;
#X obj 668 493 demux;
#X obj 550 300 != 0;
#X text 388 517 decide process bezier base on bp length;
#X obj 668 255 f 1;
#X obj 825 552 *;
#X obj 120 209 array sum z\$1_bx_\$3;
#X obj 152 304 array sum z\$1_by_\$3;
#X obj 406 169 array define z\$1_bx_\$3 1;
#X obj 416 191 array define z\$1_by_\$3 1;
#X obj 707 463 demux;
#X obj 73 118 array set z\$1_bx_\$3 1;
#X obj 8 12 array set z\$1_by_\$3 1;
#X obj 787 321 t b f f f;
#X obj 758 7 t f f;
#X obj 349 214 s \$1-bpl-\$3-1;
#X obj 406 125 + 2;
#X obj 349 192 + 1;
#X obj 668 78 t f f;
#X obj 592 14 t b f f f;
#X obj 668 663 demux;
#X obj 332 103 t f f f f f;
#X obj 332 151 sel 0;
#X obj 827 496 bezier \$1 \$3 x;
#X obj 820 28 v c\$1sbyx;
#X obj 731 253 * 1;
#X obj 996 581 spigot;
#X obj 996 603 t b f;
#X msg 996 625 const 1;
#X msg 1023 651 resize \$1;
#X obj 893 716 spigot;
#X obj 893 738 t b f;
#X obj 893 760 t f;
#X obj 893 782 tabwrite \$1-ec\$2;
#X obj 1023 673 array define \$1-ec\$2 1;
#X text 1072 596 e1: if error correct is on \, fill array with p number
of points with constant 1 If not \, zero out array (to save memory)
;
#X text 945 702 e2: then \, zero the array for every y value written
to the main array;
#X obj 1045 730 spigot;
#X obj 1045 782 array max \$1-ec\$2;
#X obj 1068 808 sel 0;
#X obj 728 189 t b f b f f;
#X obj 668 424 t f f f;
#X obj 1045 752 sel 1;
#X text 1096 734 e3: then \, identify points that haven't been written.
If positive \, increase resolution and restart.;
#X obj 1072 832 t b b;
#X obj 1124 856 + 1;
#X obj 1124 834 f 1;
#X obj 1067 554 sel 0;
#X obj 1067 576 f 1;
#X obj 767 756 t f f f;
#X obj 786 780 spigot;
#X obj 668 774 t f f;
#X obj 695 799 spigot;
#X obj 788 1014 tabwrite \$1-array;
#X obj 1017 8 receive \$1-1-\$3-delme;
#X obj 1017 54 iemguts/canvasdelete 1;
#X obj 1057 124 iemguts/canvasconnections;
#X msg 1057 99 inlet 0 \, outlet 0;
#X obj 1057 146 unpack s f f;
#X msg 1138 168 delete \$1;
#X obj 1138 190 iemguts/sendcanvas 1;
#X obj 1017 30 t b b b b;
#X msg 1027 77 vis 0;
#X msg 1077 77 menu-open;
#X obj 280 42 receive \$1-bpb;
#X obj 788 991 * 1;
#X obj 858 832 receive \$1-size*2;
#X obj 786 842 demux;
#X obj 813 898 -;
#X obj 813 875 swap 255;
#X obj 858 854 - 1;
#X obj 1029 528 receive \$1-:ec;
#X obj 813 805 receive \$1-:mirror-y;
#X obj 803 964 receive \$1-:mirror-xx;
#X obj 525 748 receive \$1-:duplicate;
#X obj 770 252 receive \$0-:speed;
#X obj 813 921 receive \$1-:size;
#X obj 532 -119 route x y;
#X obj 697 -109 route x y;
#X obj 631 -33 f;
#X obj 758 -17 f;
#X obj 562 -95 t f b;
#X obj 532 -72 t b f;
#X obj 697 -66 t b f;
#X obj 727 -87 t f b;
#X obj 169 -84 receive r%gJN3-x;
#X obj 73 93 spigot 1;
#X obj 8 -11 spigot 1;
#X obj 134 -55 != 2;
#X obj 169 -55 != 1;
#X obj 163 415 t b b;
#X obj 163 437 s \$1-rego;
#X obj 50 65 t b l a;
#X obj 19 369 route bang;
#X msg 86 391 1;
#X obj 204 498 spigot;
#X obj 19 391 t f f;
#X obj 35 498 spigot;
#X text 224 330 detect whether x or y data have changed based on sum
(fallable), f 41;
#X obj 35 542 array min z\$1_bx_\$3;
#X obj 165 573 ==;
#X obj 307 -5 t b a b b;
#X obj 204 542 array max z\$1_bx_\$3;
#X obj 204 520 t b f;
#X obj 35 520 t f b;
#X obj 176 520 t f;
#X obj 165 596 sel 0;
#X text 90 459 error correction: identify if the extremities of z\$1_bx
array cease to be point1'2. If so \, trigger gget 2 recalculation.
;
#X obj 165 618 s \$1-lbb2;
#X obj 668 124 sel 0;
#X obj 700 167 t f b;
#X obj 668 147 spigot;
#X obj 668 186 t f f;
#X obj 738 167 f 1;
#X text 746 160 stop repeats if line length is 0;
#X obj 697 -138 t a b b;
#X obj 711 -17 t f f;
#X obj 332 125 change;
#X obj 825 579 +;
#X obj 731 225 * 1;
#X text 850 573 <-- this used to multiply by sbyx first;
#X obj 912 326 * 1;
#X obj 780 -55 * 1;
#X obj 689 31 receive \$1-:size;
#X obj 668 53 f \$4;
#X obj 786 943 + \$4;
#X obj 592 -33 * 1;
#X obj 940 295 / 1;
#X obj 695 526 bezier \$1 \$3 y;
#X connect 0 0 39 0;
#X connect 2 0 105 0;
#X connect 3 0 173 0;
#X connect 4 0 21 0;
#X connect 5 0 2 0;
#X connect 9 0 4 0;
#X connect 9 1 4 1;
#X connect 10 0 190 0;
#X connect 10 1 143 0;
#X connect 11 0 186 0;
#X connect 11 1 144 0;
#X connect 12 0 45 0;
#X connect 13 0 12 0;
#X connect 14 0 13 1;
#X connect 15 0 16 0;
#X connect 15 0 117 0;
#X connect 17 0 2 0;
#X connect 18 0 2 0;
#X connect 19 0 188 0;
#X connect 20 0 88 0;
#X connect 21 0 18 2;
#X connect 24 0 84 0;
#X connect 24 1 1 0;
#X connect 26 0 36 0;
#X connect 27 0 37 0;
#X connect 28 0 27 0;
#X connect 28 1 35 0;
#X connect 29 0 31 0;
#X connect 31 0 32 0;
#X connect 32 0 34 0;
#X connect 32 1 33 0;
#X connect 33 0 41 0;
#X connect 33 1 41 1;
#X connect 34 0 33 1;
#X connect 35 0 33 1;
#X connect 36 0 28 0;
#X connect 37 0 29 0;
#X connect 39 0 84 0;
#X connect 39 1 113 0;
#X connect 40 0 15 0;
#X connect 41 0 24 1;
#X connect 42 1 185 1;
#X connect 42 1 186 1;
#X connect 42 1 190 1;
#X connect 42 1 191 1;
#X connect 42 1 87 3;
#X connect 43 0 88 0;
#X connect 44 0 45 1;
#X connect 45 0 46 0;
#X connect 46 0 115 0;
#X connect 50 0 46 1;
#X connect 51 0 165 0;
#X connect 52 0 179 0;
#X connect 53 0 85 0;
#X connect 54 0 151 0;
#X connect 55 0 156 0;
#X connect 56 0 72 0;
#X connect 56 0 73 0;
#X connect 57 0 70 0;
#X connect 59 0 60 1;
#X connect 59 1 60 0;
#X connect 60 0 61 0;
#X connect 61 0 71 0;
#X connect 61 1 154 0;
#X connect 62 0 63 1;
#X connect 62 1 63 0;
#X connect 63 0 64 0;
#X connect 64 0 154 0;
#X connect 65 0 24 0;
#X connect 65 1 192 0;
#X connect 66 0 65 1;
#X connect 66 0 74 1;
#X connect 66 0 84 1;
#X connect 68 0 18 0;
#X connect 69 0 182 0;
#X connect 70 0 59 0;
#X connect 71 0 62 0;
#X connect 74 0 69 0;
#X connect 74 1 87 0;
#X connect 77 0 14 0;
#X connect 77 1 14 1;
#X connect 77 2 12 1;
#X connect 77 3 192 1;
#X connect 78 0 14 0;
#X connect 78 1 192 2;
#X connect 80 0 56 0;
#X connect 81 0 79 0;
#X connect 82 0 3 0;
#X connect 82 1 87 2;
#X connect 83 0 188 0;
#X connect 83 1 3 1;
#X connect 83 2 182 1;
#X connect 83 3 191 0;
#X connect 84 0 13 0;
#X connect 84 1 45 0;
#X connect 85 0 181 0;
#X connect 85 1 81 0;
#X connect 85 2 57 1;
#X connect 85 3 66 0;
#X connect 85 4 80 0;
#X connect 86 0 188 0;
#X connect 87 0 113 0;
#X connect 88 0 42 0;
#X connect 89 0 9 0;
#X connect 90 0 91 0;
#X connect 91 0 92 0;
#X connect 91 1 93 0;
#X connect 92 0 98 0;
#X connect 93 0 98 0;
#X connect 94 0 95 0;
#X connect 95 0 96 0;
#X connect 95 1 97 1;
#X connect 96 0 97 0;
#X connect 101 0 106 0;
#X connect 102 1 103 0;
#X connect 103 1 108 0;
#X connect 104 0 68 0;
#X connect 104 1 183 0;
#X connect 104 2 5 0;
#X connect 104 3 69 1;
#X connect 104 4 185 0;
#X connect 105 0 101 0;
#X connect 105 1 65 0;
#X connect 105 2 74 0;
#X connect 106 0 102 0;
#X connect 108 0 188 0;
#X connect 108 1 110 0;
#X connect 109 0 110 1;
#X connect 109 0 89 1;
#X connect 110 0 109 0;
#X connect 111 0 112 0;
#X connect 112 0 93 0;
#X connect 112 0 110 1;
#X connect 112 0 89 1;
#X connect 113 0 16 1;
#X connect 113 1 114 0;
#X connect 113 2 94 0;
#X connect 114 0 131 0;
#X connect 115 0 16 0;
#X connect 115 1 116 0;
#X connect 116 0 129 0;
#X connect 118 0 125 0;
#X connect 120 0 122 0;
#X connect 121 0 120 0;
#X connect 122 2 123 0;
#X connect 123 0 124 0;
#X connect 125 0 119 0;
#X connect 125 1 126 0;
#X connect 125 2 121 0;
#X connect 125 3 127 0;
#X connect 126 0 124 0;
#X connect 127 0 124 0;
#X connect 128 0 85 0;
#X connect 129 0 117 0;
#X connect 130 0 134 0;
#X connect 131 0 189 0;
#X connect 131 1 133 0;
#X connect 132 0 117 1;
#X connect 133 0 132 0;
#X connect 133 1 132 1;
#X connect 134 0 133 1;
#X connect 135 0 90 1;
#X connect 135 0 94 1;
#X connect 135 0 101 1;
#X connect 135 0 111 0;
#X connect 136 0 131 1;
#X connect 137 0 129 1;
#X connect 138 0 116 1;
#X connect 138 0 114 1;
#X connect 139 0 9 1;
#X connect 139 0 18 1;
#X connect 140 0 189 1;
#X connect 141 0 146 0;
#X connect 141 1 145 0;
#X connect 141 2 10 0;
#X connect 142 0 147 0;
#X connect 142 1 148 0;
#X connect 142 2 11 0;
#X connect 143 0 77 0;
#X connect 144 0 78 0;
#X connect 145 0 190 0;
#X connect 145 1 143 0;
#X connect 146 0 190 0;
#X connect 146 1 143 0;
#X connect 147 0 188 0;
#X connect 147 1 144 0;
#X connect 148 0 188 0;
#X connect 148 1 144 0;
#X connect 149 0 152 0;
#X connect 149 0 153 0;
#X connect 150 0 75 0;
#X connect 151 0 76 0;
#X connect 152 0 151 1;
#X connect 153 0 150 1;
#X connect 154 0 155 0;
#X connect 154 1 188 0;
#X connect 156 0 57 0;
#X connect 156 1 150 0;
#X connect 156 2 157 0;
#X connect 157 0 160 0;
#X connect 157 1 158 0;
#X connect 158 0 160 0;
#X connect 159 0 167 0;
#X connect 160 0 161 1;
#X connect 160 1 159 1;
#X connect 161 0 168 0;
#X connect 163 1 164 0;
#X connect 164 0 170 0;
#X connect 165 0 161 0;
#X connect 165 1 141 0;
#X connect 165 2 17 0;
#X connect 165 3 26 0;
#X connect 166 0 164 0;
#X connect 167 0 166 0;
#X connect 167 1 164 1;
#X connect 168 0 163 0;
#X connect 168 1 169 0;
#X connect 169 0 164 1;
#X connect 170 0 172 0;
#X connect 173 0 175 0;
#X connect 173 1 174 0;
#X connect 174 0 104 0;
#X connect 174 1 177 0;
#X connect 175 0 176 0;
#X connect 176 0 104 0;
#X connect 176 1 175 1;
#X connect 177 0 175 1;
#X connect 179 0 142 0;
#X connect 179 1 17 0;
#X connect 179 2 26 0;
#X connect 180 0 159 0;
#X connect 180 1 188 0;
#X connect 181 0 86 0;
#X connect 182 0 113 0;
#X connect 183 0 89 0;
#X connect 185 0 90 0;
#X connect 186 0 180 0;
#X connect 187 0 188 1;
#X connect 188 0 82 0;
#X connect 189 0 117 1;
#X connect 190 0 83 0;
#X connect 191 0 87 1;
#X connect 192 0 24 0;
