#N canvas 65 85 1301 687 10;
#X obj 215 -4 inlet;
#X obj 476 175 list length;
#X obj 473 531 + 1;
#X obj 446 509 demux;
#X obj 480 412 list-abs/list-enumerate;
#X obj 476 200 moses 2;
#X msg 476 273 2;
#X obj 449 333 demux 0 1 2;
#X obj 512 459 s \$1-ino;
#X obj 385 729 send;
#X obj 446 605 sel dum;
#X obj 446 684 symbol;
#X obj 515 272 t b f;
#X obj 560 272 t b f;
#X obj 635 340 int;
#X obj 560 202 - 1;
#X obj 605 226 + 1;
#X obj 515 223 moses \$4;
#X obj 560 248 moses \$5;
#X obj 560 180 t f f f;
#X obj 347 199 f;
#X obj 347 221 until;
#X obj 347 243 t f;
#X obj 320 169 t b b;
#X obj 371 128 s \$1-all\$2sr;
#X obj 479 660 makefilename \$1-i%d;
#X obj 594 503 makefilename \$1-j%d;
#X obj 446 585 makefilename \$1-\$2%d;
#X obj 635 318 * 0.5;
#X obj 345 303 receive \$1-all\$2ss;
#X obj 610 133 receive \$1-\$3size-init;
#X obj 560 158 receive \$1-\$3size-2;
#X obj 573 460 receive \$1-ysize-init;
#X obj 594 481 receive \$1-ysize-2;
#X obj 497 619 receive \$1-xsize-init;
#X obj 479 639 receive \$1-xsize-2;
#X obj 412 437 cyclone/zl iter 2;
#X obj 635 412 s \$1-\$2lk-l;
#X obj 345 325 t l b;
#X obj 515 311 t f f;
#X obj 323 484 unpack;
#X obj 367 484 unpack;
#X obj 367 510 * -1;
#X text 52 66 interpret different input messages;
#X text 628 225 determine whether the numbers are indexed or stepwise
;
#X text 579 595 last toggle exception;
#X text 436 724 send values to toggles;
#X obj 323 583 list prepend *;
#X obj 385 684 list trim;
#X obj 320 270 collect;
#X obj 260 65 route clear swap s + - > >> < <<;
#X msg 16 225 1;
#X obj 84 203 route bang;
#X obj 141 226 * -1;
#X obj 16 203 route bang;
#X msg 84 225 -1;
#X text 217 273 shift;
#X obj 84 397 list split 1;
#X obj 84 376 t a b;
#X obj 84 354 sp01;
#X obj 84 265 t b f b f;
#X obj 206 334 sp01;
#X obj -21 178 t a b;
#X obj 16 178 t a b;
#X obj 84 178 t a b;
#X obj 121 178 t a b;
#X obj 206 356 s \$1-\$3-ijbud;
#X obj -21 153 receive \$1-\$3-ijdub;
#X obj 118 420 cyclone/zl rot;
#X obj 84 288 symbol \$1-shiftf\$2;
#X obj 84 310 s \$1-\$2-fetch;
#X obj 84 333 receive \$1-shiftf\$2;
#X obj 118 442 t a b;
#X obj 542 333 == 1;
#X obj 851 345 moocow/any2bytes;
#X obj 851 368 route 99;
#X obj 851 391 t l b;
#X obj 851 415 moocow/bytes2any;
#X obj 788 318 route float;
#X obj 788 341 t f f;
#X obj 788 364 int;
#X obj 827 409 -;
#X obj 807 453 demux;
#X obj 827 431 ==;
#X obj 807 476 list prepend c;
#X text 911 372 check for integer \, decimal and c-number and process
accordingly;
#X obj 412 461 cyclone/zl rev;
#X obj 412 483 list split 1;
#X obj 215 40 t a b;
#X obj 260 40 t a b;
#X obj 243 209 f 1;
#X obj 269 209 t f;
#X obj 215 18 route \$3;
#X obj 274 618 spigot;
#X obj 243 231 t f f;
#X obj 274 713 s \$1-\$3sneak;
#X obj 419 557 t f f;
#X obj 526 358 spigot;
#X obj 560 294 f 1;
#X obj 526 380 s \$1-togsoff\$3;
#X obj 247 587 sel 0;
#X obj 449 88 t a a;
#X obj 480 358 t a b;
#X obj 274 689 f;
#X obj 296 555 t f f;
#X obj 788 387 t f f f;
#X obj 274 664 t b;
#X connect 0 0 92 0;
#X connect 1 0 5 0;
#X connect 2 0 96 0;
#X connect 3 0 96 0;
#X connect 3 1 2 0;
#X connect 4 0 86 0;
#X connect 5 0 6 0;
#X connect 5 1 17 0;
#X connect 6 0 39 0;
#X connect 7 0 36 0;
#X connect 7 1 102 0;
#X connect 7 2 8 0;
#X connect 10 0 11 0;
#X connect 10 1 9 1;
#X connect 11 0 9 1;
#X connect 12 0 39 0;
#X connect 12 1 28 0;
#X connect 13 0 98 0;
#X connect 13 1 37 0;
#X connect 14 0 37 0;
#X connect 15 0 17 1;
#X connect 16 0 18 1;
#X connect 17 0 12 0;
#X connect 17 1 18 0;
#X connect 18 0 13 0;
#X connect 18 1 12 0;
#X connect 19 0 15 0;
#X connect 19 1 16 0;
#X connect 19 2 20 1;
#X connect 20 0 21 0;
#X connect 21 0 22 0;
#X connect 22 0 49 1;
#X connect 23 0 49 0;
#X connect 23 1 20 0;
#X connect 25 0 11 1;
#X connect 26 0 10 1;
#X connect 27 0 10 0;
#X connect 28 0 14 0;
#X connect 29 0 38 0;
#X connect 30 0 19 0;
#X connect 31 0 19 0;
#X connect 32 0 26 0;
#X connect 33 0 26 0;
#X connect 34 0 25 0;
#X connect 35 0 25 0;
#X connect 36 0 86 0;
#X connect 38 0 36 0;
#X connect 38 1 98 0;
#X connect 39 0 7 1;
#X connect 39 1 73 0;
#X connect 40 0 104 0;
#X connect 40 1 96 0;
#X connect 41 0 42 0;
#X connect 41 1 96 0;
#X connect 42 0 104 0;
#X connect 47 0 48 0;
#X connect 48 0 9 0;
#X connect 49 0 4 0;
#X connect 50 0 23 0;
#X connect 50 1 24 0;
#X connect 50 2 24 0;
#X connect 50 3 40 0;
#X connect 50 4 41 0;
#X connect 50 5 62 0;
#X connect 50 6 63 0;
#X connect 50 7 64 0;
#X connect 50 8 65 0;
#X connect 50 9 101 0;
#X connect 51 0 60 0;
#X connect 52 0 55 0;
#X connect 52 1 53 0;
#X connect 53 0 60 0;
#X connect 54 0 51 0;
#X connect 54 1 60 0;
#X connect 55 0 60 0;
#X connect 57 1 68 0;
#X connect 58 0 57 0;
#X connect 58 1 59 1;
#X connect 59 0 58 0;
#X connect 60 0 69 0;
#X connect 60 1 68 1;
#X connect 60 2 59 2;
#X connect 60 3 61 0;
#X connect 61 0 66 0;
#X connect 62 0 54 0;
#X connect 62 1 61 1;
#X connect 63 0 54 0;
#X connect 63 1 61 2;
#X connect 64 0 52 0;
#X connect 64 1 61 1;
#X connect 65 0 52 0;
#X connect 65 1 61 2;
#X connect 67 0 62 0;
#X connect 68 0 72 0;
#X connect 69 0 70 0;
#X connect 71 0 59 0;
#X connect 72 0 4 0;
#X connect 72 1 98 0;
#X connect 73 0 3 1;
#X connect 74 0 75 0;
#X connect 75 0 76 0;
#X connect 76 0 77 0;
#X connect 77 0 84 0;
#X connect 78 0 79 0;
#X connect 78 1 74 0;
#X connect 79 0 80 0;
#X connect 79 1 81 1;
#X connect 80 0 105 0;
#X connect 81 0 83 0;
#X connect 82 0 84 0;
#X connect 82 1 9 0;
#X connect 83 0 82 1;
#X connect 84 0 48 0;
#X connect 86 0 87 0;
#X connect 87 0 78 0;
#X connect 87 1 3 0;
#X connect 88 0 50 0;
#X connect 88 1 90 0;
#X connect 89 0 50 0;
#X connect 89 1 91 0;
#X connect 90 0 94 0;
#X connect 91 0 94 0;
#X connect 92 0 88 0;
#X connect 92 1 89 0;
#X connect 93 0 106 0;
#X connect 94 0 93 1;
#X connect 94 1 97 1;
#X connect 96 0 103 1;
#X connect 96 1 27 0;
#X connect 97 0 99 0;
#X connect 98 0 39 0;
#X connect 100 1 93 0;
#X connect 101 0 7 0;
#X connect 101 1 1 0;
#X connect 102 0 4 0;
#X connect 102 1 97 0;
#X connect 103 0 95 0;
#X connect 104 0 93 0;
#X connect 104 1 47 0;
#X connect 105 0 100 0;
#X connect 105 1 82 0;
#X connect 105 2 81 0;
#X connect 106 0 103 0;
