#N canvas 71 179 974 495 10;
#X obj 170 -51 inlet;
#X obj 476 175 list length;
#X obj 473 531 + 1;
#X obj 446 509 demux;
#X obj 480 412 else/order;
#X obj 476 200 moses 2;
#X msg 476 273 2;
#X obj 449 333 demux 0 1 2;
#X obj 512 459 s \$1-ino;
#X obj 385 729 send;
#X obj 446 605 sel dum;
#X obj 446 684 symbol;
#X obj 515 272 t b f;
#X obj 560 272 t b f;
#X obj 635 340 int;
#X obj 560 202 - 1;
#X obj 605 226 + 1;
#X obj 515 223 moses \$4;
#X obj 560 248 moses \$5;
#X obj 347 223 until;
#X obj 347 245 t f;
#X obj 320 149 t b b;
#X obj 371 128 s \$1-all\$2sr;
#X obj 479 660 makefilename \$1-i%d;
#X obj 594 503 makefilename \$1-j%d;
#X obj 446 585 makefilename \$1-\$2%d;
#X obj 635 318 * 0.5;
#X obj 345 303 receive \$1-all\$2ss;
#X obj 610 133 receive \$1-\$3size-init;
#X obj 560 158 receive \$1-\$3size-2;
#X obj 573 460 receive \$1-ysize-init;
#X obj 594 481 receive \$1-ysize-2;
#X obj 497 619 receive \$1-xsize-init;
#X obj 479 639 receive \$1-xsize-2;
#X obj 412 437 cyclone/zl iter 2;
#X obj 635 412 s \$1-\$2lk-l;
#X obj 345 325 t l b;
#X obj 515 311 t f f;
#X obj 323 484 unpack;
#X obj 367 484 unpack;
#X obj 367 510 * -1;
#X text 323 35 interpret different input messages;
#X text 628 225 determine whether the numbers are indexed or stepwise
;
#X text 579 595 last toggle exception;
#X text 436 724 send values to toggles;
#X obj 323 583 list prepend *;
#X obj 385 684 list trim;
#X obj 320 270 collect;
#X msg 16 225 1;
#X obj 84 203 route bang;
#X obj 141 226 * -1;
#X obj 16 203 route bang;
#X msg 84 225 -1;
#X text 217 273 shift;
#X obj 84 397 list split 1;
#X obj 84 376 t a b;
#X obj 84 354 sp01;
#X obj 84 265 t b f b f;
#X obj 221 397 sp01;
#X obj -21 178 t a b;
#X obj 16 178 t a b;
#X obj 84 178 t a b;
#X obj 121 178 t a b;
#X obj 221 442 s \$1-\$3-ijbud;
#X obj -21 131 receive \$1-\$3-ijdub;
#X obj 118 441 cyclone/zl rot;
#X obj 84 288 symbol \$1-shiftf\$2;
#X obj 84 310 s \$1-\$2-fetch;
#X obj 84 333 receive \$1-shiftf\$2;
#X obj 118 486 t a b;
#X obj 542 333 == 1;
#X obj 862 448 route 99;
#X obj 788 288 route float;
#X obj 788 311 t f f;
#X obj 788 424 int;
#X obj 834 469 -;
#X obj 807 513 demux;
#X obj 834 491 ==;
#X obj 807 536 list prepend c;
#X text 922 392 check for integer \, decimal and c-number and process
accordingly;
#X obj 412 461 cyclone/zl rev;
#X obj 412 483 list split 1;
#X obj 215 40 t a b;
#X obj 260 40 t a b;
#X obj 243 209 f 1;
#X obj 269 209 t f;
#X obj 215 18 route \$3;
#X obj 274 618 spigot;
#X obj 274 713 s \$1-\$3sneak;
#X obj 419 557 t f f;
#X obj 526 358 spigot;
#X obj 560 294 f 1;
#X obj 526 404 s \$1-togsoff\$3;
#X obj 242 587 sel 0;
#X obj 563 90 t a a;
#X obj 480 358 t a b;
#X obj 274 689 f;
#X obj 296 555 t f f;
#X obj 788 447 t f f f;
#X obj 274 664 t b;
#X obj 170 -28 route -l;
#X obj 21 84 list split 1;
#X obj 48 -16 list split 1;
#X obj 48 9 route float;
#X obj 138 52 f 1;
#X obj 215 -6 t a b;
#X obj 48 31 t f b;
#X obj 75 54 f 1;
#X obj 111 52 t f;
#X obj 118 419 cyclone/zl ecils;
#X obj 118 463 list append;
#X obj 55 108 list trim;
#X obj 221 419 pack;
#X text 222 336 cutoff point;
#X obj -21 153 unpack;
#X obj 111 30 t b b;
#X obj 21 -40 t a a;
#X obj 347 201 -;
#X obj 243 231 t f f;
#X obj 968 -169 route bang;
#X obj 968 -81 t b f f;
#X obj 1060 -38 array define \$0-scramble 1;
#X obj 1060 -104 list length;
#X msg 1060 -60 resize \$1;
#X obj 1061 37 array set \$0-scramble;
#X obj 1061 11 t f f;
#X obj 968 -59 cyclone/uzi;
#X obj 1122 11 t f;
#X obj 934 -5 urn;
#X obj 934 -29 cyclone/uzi;
#X obj 1061 -11 - 1;
#X text 1139 -103 1: fill array with items to scramble;
#X text 858 -28 2: randomize;
#X text 1080 62 3: write scrambled list to array;
#X obj 997 -6 == 1;
#X obj 934 62 demux;
#X obj 934 17 tabread \$0-scramble;
#X obj 961 88 t f f;
#X obj 847 -78 receive \$1seed\$5;
#X text 773 130 4: rearrange text;
#X text 1077 162 5: first / last exception;
#X obj 1060 -82 t f f f;
#X obj 1025 -146 t a a b b;
#X obj 968 -147 t b b;
#X obj 987 41 t f;
#X obj 934 39 -;
#X obj 934 -192 t b a;
#X obj 1013 41 f 1;
#X obj 1026 144 f;
#X obj 936 196 pack;
#X obj 1026 189 pack;
#X obj 968 -125 v \$1-\$3cor;
#X obj 879 151 route bang;
#X obj 1041 102 route bang;
#X obj 879 129 array get \$1-\$2arry 0 1;
#X obj 1041 79 array get \$1-\$2arry 0 1;
#X obj 860 102 t f f f;
#X obj 968 -103 -;
#X obj 742 352 l2s;
#X obj 788 400 s2l;
#X obj 742 378 sel dum;
#X obj 788 352 receive \$1-negzero;
#X obj 742 400 t f f;
#X obj 879 173 array get \$1-floate;
#X obj 1041 124 array get \$1-floate;
#X obj 862 425 else/fromany;
#X obj 862 471 else/toany;
#X obj 526 381 t f;
#X obj 862 494 route float;
#X obj 260 65 route clear swap s - + > >> < << scramble all pairs;
#X obj 513 90 t a b a;
#X obj 386 179 list prepend;
#X obj 386 202 list split \$7;
#X obj 347 179 f \$7;
#X obj 560 180 t f f f f;
#X obj 386 225 t l l;
#X obj 211 356 t f f f f f;
#X obj 386 248 cyclone/zl ecils;
#X obj 386 155 t a a;
#X connect 0 0 100 0;
#X connect 1 0 5 0;
#X connect 2 0 89 0;
#X connect 3 0 89 0;
#X connect 3 1 2 0;
#X connect 4 0 80 0;
#X connect 5 0 6 0;
#X connect 5 1 17 0;
#X connect 6 0 37 0;
#X connect 7 0 34 0;
#X connect 7 1 95 0;
#X connect 7 2 8 0;
#X connect 10 0 11 0;
#X connect 10 1 9 1;
#X connect 11 0 9 1;
#X connect 12 0 37 0;
#X connect 12 1 26 0;
#X connect 13 0 91 0;
#X connect 13 1 35 0;
#X connect 14 0 35 0;
#X connect 15 0 17 1;
#X connect 16 0 18 1;
#X connect 17 0 12 0;
#X connect 17 1 18 0;
#X connect 18 0 13 0;
#X connect 18 1 12 0;
#X connect 19 0 20 0;
#X connect 20 0 47 1;
#X connect 21 0 47 0;
#X connect 21 1 173 0;
#X connect 23 0 11 1;
#X connect 24 0 10 1;
#X connect 25 0 10 0;
#X connect 26 0 14 0;
#X connect 27 0 36 0;
#X connect 28 0 174 0;
#X connect 29 0 174 0;
#X connect 30 0 24 0;
#X connect 31 0 24 0;
#X connect 32 0 23 0;
#X connect 33 0 23 0;
#X connect 34 0 80 0;
#X connect 36 0 34 0;
#X connect 36 1 91 0;
#X connect 37 0 7 1;
#X connect 37 1 70 0;
#X connect 38 0 97 0;
#X connect 38 1 89 0;
#X connect 39 0 40 0;
#X connect 39 1 89 0;
#X connect 40 0 97 0;
#X connect 45 0 46 0;
#X connect 46 0 9 0;
#X connect 47 0 4 0;
#X connect 48 0 57 0;
#X connect 49 0 52 0;
#X connect 49 1 50 0;
#X connect 50 0 57 0;
#X connect 51 0 48 0;
#X connect 51 1 57 0;
#X connect 52 0 57 0;
#X connect 54 1 109 0;
#X connect 55 0 54 0;
#X connect 55 1 56 1;
#X connect 56 0 55 0;
#X connect 57 0 66 0;
#X connect 57 1 65 1;
#X connect 57 2 56 2;
#X connect 57 3 58 0;
#X connect 58 0 112 0;
#X connect 59 0 51 0;
#X connect 59 1 58 1;
#X connect 60 0 51 0;
#X connect 60 1 58 2;
#X connect 61 0 49 0;
#X connect 61 1 58 1;
#X connect 62 0 49 0;
#X connect 62 1 58 2;
#X connect 64 0 114 0;
#X connect 65 0 110 0;
#X connect 66 0 67 0;
#X connect 68 0 56 0;
#X connect 69 0 4 0;
#X connect 69 1 91 0;
#X connect 70 0 3 1;
#X connect 71 0 166 0;
#X connect 72 0 73 0;
#X connect 72 1 165 0;
#X connect 73 0 158 0;
#X connect 73 1 75 1;
#X connect 74 0 98 0;
#X connect 75 0 77 0;
#X connect 76 0 78 0;
#X connect 76 1 9 0;
#X connect 77 0 76 1;
#X connect 78 0 46 0;
#X connect 80 0 81 0;
#X connect 81 0 72 0;
#X connect 81 1 3 0;
#X connect 82 0 169 0;
#X connect 82 1 84 0;
#X connect 83 0 169 0;
#X connect 83 1 85 0;
#X connect 84 0 118 0;
#X connect 85 0 118 0;
#X connect 86 0 82 0;
#X connect 86 1 83 0;
#X connect 87 0 99 0;
#X connect 89 0 96 1;
#X connect 89 1 25 0;
#X connect 90 0 167 0;
#X connect 91 0 37 0;
#X connect 93 1 87 0;
#X connect 94 0 7 0;
#X connect 94 1 1 0;
#X connect 95 0 4 0;
#X connect 95 1 90 0;
#X connect 96 0 88 0;
#X connect 97 0 87 0;
#X connect 97 1 45 0;
#X connect 98 0 93 0;
#X connect 98 1 76 0;
#X connect 98 2 75 0;
#X connect 99 0 96 0;
#X connect 100 0 116 0;
#X connect 100 1 105 0;
#X connect 101 1 111 0;
#X connect 102 0 103 0;
#X connect 103 0 106 0;
#X connect 103 1 115 0;
#X connect 104 0 176 0;
#X connect 105 0 86 0;
#X connect 105 1 176 0;
#X connect 106 0 176 0;
#X connect 106 1 107 0;
#X connect 107 0 101 1;
#X connect 108 0 101 1;
#X connect 109 0 65 0;
#X connect 109 1 110 1;
#X connect 110 0 69 0;
#X connect 111 0 86 0;
#X connect 112 0 63 0;
#X connect 114 0 59 0;
#X connect 114 1 176 0;
#X connect 115 0 108 0;
#X connect 115 1 104 0;
#X connect 116 0 101 0;
#X connect 116 1 102 0;
#X connect 117 0 19 0;
#X connect 118 0 87 1;
#X connect 118 1 90 1;
#X connect 119 0 143 0;
#X connect 119 1 142 0;
#X connect 120 0 126 0;
#X connect 120 1 126 1;
#X connect 120 2 141 0;
#X connect 122 0 141 0;
#X connect 123 0 121 0;
#X connect 125 0 124 0;
#X connect 125 1 124 1;
#X connect 126 2 130 0;
#X connect 127 0 124 1;
#X connect 128 0 136 0;
#X connect 129 0 128 0;
#X connect 129 1 148 0;
#X connect 129 2 134 0;
#X connect 130 0 125 0;
#X connect 134 0 135 1;
#X connect 135 0 156 0;
#X connect 135 1 137 0;
#X connect 136 0 145 0;
#X connect 137 0 149 1;
#X connect 137 1 155 0;
#X connect 138 0 128 0;
#X connect 141 0 123 0;
#X connect 141 1 128 1;
#X connect 141 2 129 1;
#X connect 142 0 124 0;
#X connect 142 1 122 0;
#X connect 142 2 127 0;
#X connect 142 3 147 0;
#X connect 143 0 151 0;
#X connect 143 1 144 0;
#X connect 144 0 145 1;
#X connect 145 0 135 0;
#X connect 146 0 129 0;
#X connect 146 1 119 0;
#X connect 147 0 145 1;
#X connect 148 0 150 0;
#X connect 149 0 81 0;
#X connect 150 0 81 0;
#X connect 151 0 157 0;
#X connect 152 0 163 0;
#X connect 152 1 149 0;
#X connect 153 0 164 0;
#X connect 153 1 148 1;
#X connect 154 0 152 0;
#X connect 155 0 153 0;
#X connect 156 0 149 1;
#X connect 156 1 154 0;
#X connect 156 2 150 1;
#X connect 157 0 120 0;
#X connect 158 0 160 0;
#X connect 159 0 74 0;
#X connect 160 0 162 0;
#X connect 160 1 159 0;
#X connect 161 0 160 1;
#X connect 162 0 87 0;
#X connect 162 1 9 0;
#X connect 163 0 149 0;
#X connect 164 0 148 1;
#X connect 165 0 71 0;
#X connect 166 0 168 0;
#X connect 167 0 92 0;
#X connect 168 0 78 0;
#X connect 169 0 21 0;
#X connect 169 1 22 0;
#X connect 169 2 22 0;
#X connect 169 3 38 0;
#X connect 169 4 39 0;
#X connect 169 5 59 0;
#X connect 169 6 60 0;
#X connect 169 7 61 0;
#X connect 169 8 62 0;
#X connect 169 9 146 0;
#X connect 169 10 178 0;
#X connect 169 11 170 0;
#X connect 169 12 94 0;
#X connect 170 0 7 0;
#X connect 170 1 37 0;
#X connect 170 2 1 0;
#X connect 171 0 172 0;
#X connect 172 0 175 0;
#X connect 172 2 171 0;
#X connect 173 0 117 0;
#X connect 174 0 15 0;
#X connect 174 1 16 0;
#X connect 174 2 173 1;
#X connect 174 3 172 1;
#X connect 175 0 177 0;
#X connect 175 1 1 0;
#X connect 176 0 109 1;
#X connect 176 1 112 1;
#X connect 176 2 117 1;
#X connect 176 3 157 1;
#X connect 176 4 177 1;
#X connect 177 0 7 0;
#X connect 178 0 171 0;
#X connect 178 1 171 1;
