#N canvas 426 149 450 386 10;
#X obj 158 39 inlet;
#X obj 229 256 s \$1-coeffr;
#X obj 158 282 s \$1-:K;
#X obj 158 67 route * / ^ map off;
#X obj 158 247 f 1;
#X obj 158 225 t b a;
#X obj 180 180 t b a;
#X obj 229 232 route float;
#X obj 202 135 t b a;
#X obj 180 202 f 2;
#X obj 202 157 f 3;
#X obj 246 90 t b;
#X obj 224 90 t b;
#X obj 246 112 t f;
#X obj 224 112 f 4;
#X connect 0 0 3 0;
#X connect 3 0 5 0;
#X connect 3 1 6 0;
#X connect 3 2 8 0;
#X connect 3 3 12 0;
#X connect 3 4 11 0;
#X connect 3 5 2 0;
#X connect 4 0 2 0;
#X connect 5 0 4 0;
#X connect 5 1 7 0;
#X connect 6 0 9 0;
#X connect 6 1 7 0;
#X connect 7 0 1 0;
#X connect 8 0 10 0;
#X connect 8 1 7 0;
#X connect 9 0 2 0;
#X connect 10 0 2 0;
#X connect 11 0 13 0;
#X connect 12 0 14 0;
#X connect 13 0 2 0;
#X connect 14 0 2 0;
