#N canvas 307 245 450 391 10;
#X obj 126 34 inlet;
#X obj 195 181 f;
#X obj 220 181 + 1;
#X obj 195 214 outlet;
#X obj 210 122 t f;
#X obj 126 210 outlet;
#X obj 126 148 t b b;
#X obj 126 67 t b a b;
#X obj 145 96 cyclone/iter;
#X obj 145 122 sel \$1;
#X obj 126 183 collect;
#X connect 0 0 7 0;
#X connect 1 0 2 0;
#X connect 1 0 3 0;
#X connect 2 0 1 1;
#X connect 4 0 1 1;
#X connect 6 0 10 0;
#X connect 6 1 1 0;
#X connect 7 0 6 0;
#X connect 7 1 8 0;
#X connect 7 2 4 0;
#X connect 8 0 9 0;
#X connect 9 0 6 0;
#X connect 9 1 10 1;
#X connect 10 0 5 0;
