#N canvas 67 87 870 635 10;
#X obj 196 181 pack f \$1;
#X obj 553 355 spigot;
#X obj 699 214 spigot;
#X obj 567 225 change;
#X obj 138 131 del 400;
#X obj 553 380 f \$1;
#X obj 196 224 outlet;
#X obj 491 249 outlet;
#X obj 491 223 pack f \$1;
#X obj 276 888 s \$2-\$3\$1r;
#X obj 699 191 moses 1;
#X obj 138 60 t b b;
#X obj 567 202 != 0;
#X obj 642 857 inlet size;
#X msg 604 1108 size \$1 \, label_pos \$2 \$3 \, label_font 1 \$4;
#X obj 438 -128 receive \$2-\$5\$1;
#X obj 699 170 receive \$2-\$1-togsel\$3;
#X obj 277 821 receive \$2-togsoff\$3;
#X obj 177 106 receive \$2-delfrac;
#X obj 196 137 receive \$2-\$3\$1;
#X obj 51 194 receive \$2-\$3-\$1-bolo;
#X msg 228 556 set 1;
#X msg 171 556 set 0;
#X obj 522 427 receive \$2-ffind;
#X obj 537 450 abs;
#X obj 522 474 ==;
#X obj 522 496 sel 1;
#X obj 522 518 s \$2-\$3-\$1wiggle;
#X obj 231 586 text get col-key#^&;
#X obj 231 610 unpack f f f;
#X obj 231 632 tabread \$2-mycols;
#X obj 265 654 tabread \$2-mycols;
#X obj 300 677 tabread \$2-mycols;
#X obj 132 312 t b f;
#X obj 132 334 f;
#X obj 132 356 -;
#X obj 159 334 &;
#X obj 107 356 |;
#X obj 223 203 != 0;
#X obj 168 729 list trim;
#X obj 132 444 >> 2;
#X obj 132 466 sel 2;
#X obj 132 488 del 100;
#X obj 168 703 zexy/pack color -8.15833e+06 0 0;
#X obj 138 175 t f;
#X obj 51 261 pack f 8;
#X obj 107 261 pack f 4;
#X obj 163 261 pack f 2;
#X obj 220 261 pack f 1;
#X text 45 241 tracking;
#X text 105 241 selected;
#X text 167 241 playing;
#X text 224 241 float;
#X obj 132 422 demux;
#X obj 132 379 t f b f f f f;
#X obj 189 532 t f f b;
#X obj 132 510 t f f b;
#X text 633 105 receive toggle float and process arithmetic;
#X text 244 159 on-off from toggle;
#X text 185 358 add toggle states;
#X text 129 635 retrieve colour;
#X text 592 312 turns toggle on while scrolling;
#X text 559 474 proccess find command;
#X text 182 459 deal with tracking blanks;
#X obj 107 288 route 1 0;
#X obj 33 86 receive \$2-colmod-off;
#X obj 185 -3 receive \$2-\$3-colmod-\$1;
#X obj 185 43 spigot \$4;
#X obj 236 21 receive \$2-xym\$3;
#X obj 138 21 inlet bang;
#X obj 604 677 expr log10($f1);
#X obj 604 698 int;
#X msg 546 767 label \$1;
#X obj 638 926 * 0.5;
#X obj 546 602 t f f f;
#X obj 604 782 +;
#X obj 604 654 abs;
#X obj 565 628 route 0;
#X msg 565 655 2;
#X obj 604 760 + 2;
#X obj 621 977 t f f;
#X obj 648 1001 * 2;
#X obj 507 548 route 0;
#X msg 507 606 label;
#X obj 621 955 / 2;
#X obj 604 1084 pack 12 2 6 12;
#X obj 604 835 change;
#X obj 604 880 f 12;
#X obj 604 857 t b f;
#X obj 640 1027 ../config;
#X obj 604 901 t f f f f;
#X obj 736 1027 - 2;
#X obj 685 1053 clip 0 10;
#X obj 546 741 l2s;
#X obj 573 719 makefilename c%i;
#X obj 621 1054 * 0.5;
#X text 682 718 make label;
#X text 663 968 calculate label size;
#X obj 573 98 inlet bank;
#X msg 458 462 stop;
#X obj 586 333 receive \$2-savestart;
#X obj 553 313 spigot;
#X obj 138 153 sp01 1;
#X obj 113 60 t b;
#X obj 586 291 t f;
#X msg 612 191 set b%i;
#X msg 639 214 set c%i;
#X obj 6 170 receive \$2-lcolb;
#X obj 6 150 receive \$2-colobang;
#X obj 196 158 t f f b;
#X obj 51 220 t f b;
#X obj 234 315 t f;
#X obj 596 355 receive \$2-\$1togstt;
#X obj 132 400 spigot;
#X obj -107 172 >= \$1;
#X obj -12 261 pack f 16;
#X text 3 241 limit;
#X obj -107 150 receive \$2-\$3max;
#X text 566 23 test whether toggle float contains c or not;
#X obj 538 679 demux;
#X obj 400 21 sel 0;
#X obj 400 43 t b b;
#X obj 414 115 spigot;
#X obj 400 65 del 100;
#X obj 400 87 t f;
#X obj 427 87 f 1;
#X text 295 38 scroll up for c numbers \, down for float \, but alllow
scroll up for float if received in 100 ms of last scroll, f 15;
#X obj 537 405 int;
#X obj 491 153 demux;
#X obj 518 199 + 0.5;
#X obj 490 19 f 1;
#X obj 438 -83 route * c;
#X obj 568 49 f -1;
#X obj 438 -106 t a b;
#X obj 599 49 f 1;
#X obj 491 199 * 1;
#X obj 553 572 * 1;
#X obj 383 -25 +;
#X obj 518 175 abs;
#X obj 557 547 demux;
#X obj 582 71 t f f;
#X text 491 80 c or regular;
#X text 615 71 from command or from scroll;
#X obj 629 760 <=;
#X obj 604 806 +;
#X obj 573 120 t b f b b;
#X obj 513 -13 t f b b;
#X obj 596 -106 receive \$2-savestart;
#X obj 287 791 receive \$2-togsoff\$3\$1;
#X obj 449 65 spigot 1;
#X obj 438 -59 t b f b;
#X obj 477 -38 t f;
#X obj 438 -37 f 1;
#X obj 287 -83 receive \$2-\$1-togscrol\$3;
#X obj 699 236 t f f;
#X obj 608 -5 * 1;
#X obj 206 315 f 1;
#X obj 189 509 f 1;
#X obj 165 86 f 1;
#X obj 439 21 >;
#X obj 596 -84 t b f;
#X obj 596 -61 spigot;
#X msg 581 -31 set 1;
#X obj 439 43 change;
#X obj 108 -27 receive \$2-\$3-\$1-blink;
#X obj 330 240 *;
#X obj 471 120 t f f f f f b b f;
#X obj 330 328 pack;
#X msg 330 350 symbol \$2-\$1-IDchange;
#X obj 330 372 iemguts/oreceive \$0-n;
#X obj 330 262 change;
#X obj 330 284 t f b;
#X obj 351 306 v \$2-parent;
#X obj 330 394 zexy/pack 0 \$1 \$2 \$5;
#X msg 330 416 \; \$3-notsafe :\$4 \$2 c\$1;
#X obj 623 -32 f -1;
#X obj 654 -32 f 1;
#X obj 383 -1 t f f b f b b;
#X obj 467 -1 t f b b;
#X text 640 -7 This determines whether the incoming value should be
flipped;
#X obj 391 -56 * 1;
#X obj 481 96 t f f f f f f;
#X obj 764 -99 * -2;
#X obj 764 -76 + 1;
#X text 791 -89 This determines if adding terms should be flipped \,
based on whether it is a c or a regularf loat.;
#X connect 0 0 6 0;
#X connect 1 0 5 0;
#X connect 2 0 154 0;
#X connect 3 0 48 0;
#X connect 4 0 102 0;
#X connect 5 0 9 0;
#X connect 5 0 99 0;
#X connect 8 0 7 0;
#X connect 10 0 2 0;
#X connect 10 1 154 0;
#X connect 11 0 4 0;
#X connect 11 1 158 0;
#X connect 12 0 3 0;
#X connect 13 0 87 0;
#X connect 14 0 9 0;
#X connect 15 0 133 0;
#X connect 16 0 10 0;
#X connect 17 0 9 0;
#X connect 18 0 4 1;
#X connect 19 0 109 0;
#X connect 20 0 110 0;
#X connect 21 0 9 0;
#X connect 22 0 9 0;
#X connect 23 0 25 0;
#X connect 24 0 25 1;
#X connect 25 0 26 0;
#X connect 26 0 27 0;
#X connect 28 0 29 0;
#X connect 29 0 30 0;
#X connect 29 1 31 0;
#X connect 29 2 32 0;
#X connect 30 0 43 1;
#X connect 31 0 43 2;
#X connect 32 0 43 3;
#X connect 33 0 34 0;
#X connect 33 1 36 0;
#X connect 34 0 35 0;
#X connect 35 0 54 0;
#X connect 36 0 35 1;
#X connect 37 0 54 0;
#X connect 38 0 46 0;
#X connect 39 0 9 0;
#X connect 40 0 41 0;
#X connect 41 0 42 0;
#X connect 41 0 157 0;
#X connect 42 0 56 0;
#X connect 43 0 39 0;
#X connect 44 0 47 0;
#X connect 45 0 64 0;
#X connect 46 0 64 0;
#X connect 47 0 64 0;
#X connect 48 0 64 0;
#X connect 53 0 40 0;
#X connect 54 0 113 0;
#X connect 54 1 43 0;
#X connect 54 2 28 0;
#X connect 54 3 34 1;
#X connect 54 4 36 1;
#X connect 54 5 37 1;
#X connect 55 0 46 0;
#X connect 55 1 53 1;
#X connect 55 2 21 0;
#X connect 56 0 53 1;
#X connect 56 1 46 0;
#X connect 56 2 22 0;
#X connect 64 0 37 0;
#X connect 64 1 33 0;
#X connect 65 0 44 0;
#X connect 65 0 102 2;
#X connect 66 0 67 0;
#X connect 66 0 103 0;
#X connect 66 0 158 0;
#X connect 68 0 67 1;
#X connect 69 0 11 0;
#X connect 70 0 71 0;
#X connect 71 0 79 0;
#X connect 72 0 9 0;
#X connect 73 0 85 2;
#X connect 74 0 119 0;
#X connect 74 1 77 0;
#X connect 74 2 143 0;
#X connect 75 0 144 0;
#X connect 76 0 70 0;
#X connect 77 0 78 0;
#X connect 77 1 76 0;
#X connect 78 0 86 0;
#X connect 79 0 75 0;
#X connect 80 0 95 0;
#X connect 80 1 81 0;
#X connect 81 0 89 0;
#X connect 82 0 83 0;
#X connect 82 1 139 0;
#X connect 83 0 9 0;
#X connect 84 0 80 0;
#X connect 85 0 14 0;
#X connect 86 0 88 0;
#X connect 87 0 90 0;
#X connect 88 0 87 0;
#X connect 88 1 84 1;
#X connect 89 0 85 3;
#X connect 89 1 92 0;
#X connect 90 0 85 0;
#X connect 90 1 84 0;
#X connect 90 2 73 0;
#X connect 90 3 91 0;
#X connect 91 0 92 2;
#X connect 92 0 85 3;
#X connect 93 0 72 0;
#X connect 94 0 72 0;
#X connect 95 0 85 1;
#X connect 98 0 145 0;
#X connect 99 0 42 0;
#X connect 100 0 1 1;
#X connect 101 0 1 0;
#X connect 102 0 44 0;
#X connect 103 0 102 1;
#X connect 104 0 101 1;
#X connect 105 0 94 0;
#X connect 106 0 94 0;
#X connect 107 0 45 0;
#X connect 108 0 45 0;
#X connect 109 0 0 0;
#X connect 109 1 38 0;
#X connect 109 2 111 0;
#X connect 110 0 45 0;
#X connect 110 1 156 0;
#X connect 111 0 113 1;
#X connect 112 0 1 1;
#X connect 113 0 53 0;
#X connect 114 0 115 0;
#X connect 115 0 64 0;
#X connect 117 0 114 0;
#X connect 119 0 93 0;
#X connect 119 1 94 0;
#X connect 120 0 121 0;
#X connect 121 0 123 0;
#X connect 121 1 125 0;
#X connect 122 0 181 0;
#X connect 123 0 124 0;
#X connect 124 0 122 1;
#X connect 125 0 122 1;
#X connect 127 0 24 0;
#X connect 128 0 135 0;
#X connect 128 1 138 0;
#X connect 129 0 8 0;
#X connect 130 0 181 0;
#X connect 131 0 150 0;
#X connect 131 1 178 0;
#X connect 131 2 146 0;
#X connect 132 0 140 0;
#X connect 133 0 131 0;
#X connect 133 1 134 0;
#X connect 134 0 140 0;
#X connect 134 0 161 1;
#X connect 135 0 8 0;
#X connect 136 0 74 0;
#X connect 137 0 177 0;
#X connect 138 0 129 0;
#X connect 139 0 136 0;
#X connect 139 1 74 0;
#X connect 140 0 135 1;
#X connect 140 1 136 1;
#X connect 143 0 75 1;
#X connect 144 0 86 0;
#X connect 145 0 106 0;
#X connect 145 1 166 0;
#X connect 145 2 105 0;
#X connect 145 3 130 0;
#X connect 146 0 166 0;
#X connect 146 1 181 0;
#X connect 146 2 175 0;
#X connect 147 0 160 0;
#X connect 148 0 9 0;
#X connect 149 0 181 0;
#X connect 150 0 152 0;
#X connect 150 1 180 0;
#X connect 150 2 151 0;
#X connect 151 0 149 1;
#X connect 152 0 149 1;
#X connect 153 0 137 0;
#X connect 154 0 2 1;
#X connect 154 1 101 1;
#X connect 155 0 137 1;
#X connect 156 0 113 1;
#X connect 157 0 55 0;
#X connect 158 0 47 0;
#X connect 159 0 163 0;
#X connect 160 0 161 0;
#X connect 161 0 162 0;
#X connect 162 0 163 0;
#X connect 163 0 149 0;
#X connect 164 0 11 0;
#X connect 165 0 170 0;
#X connect 166 0 155 0;
#X connect 166 1 128 0;
#X connect 166 2 82 0;
#X connect 166 3 12 0;
#X connect 166 4 127 0;
#X connect 166 5 104 0;
#X connect 166 6 101 0;
#X connect 166 7 165 0;
#X connect 167 0 168 0;
#X connect 168 0 169 0;
#X connect 169 0 173 0;
#X connect 170 0 171 0;
#X connect 171 0 167 0;
#X connect 171 1 172 0;
#X connect 172 0 167 1;
#X connect 173 0 174 0;
#X connect 175 0 155 1;
#X connect 176 0 155 1;
#X connect 177 0 166 0;
#X connect 177 1 120 0;
#X connect 177 2 122 0;
#X connect 177 3 159 0;
#X connect 177 4 132 0;
#X connect 177 5 176 0;
#X connect 178 0 166 0;
#X connect 178 1 130 0;
#X connect 178 2 176 0;
#X connect 180 0 137 0;
#X connect 181 0 119 1;
#X connect 181 1 128 1;
#X connect 181 2 139 1;
#X connect 181 3 144 1;
#X connect 181 4 165 1;
#X connect 181 5 182 0;
#X connect 182 0 183 0;
#X connect 183 0 180 1;
