#N canvas 579 164 579 508 10;
#X obj 111 78 moses 128;
#X obj 171 103 t b b;
#X obj 203 169 mod 2;
#X obj 203 125 f;
#X obj 203 147 + 1;
#X obj 171 194 demux;
#X msg 203 218 saving large arrays is not recommended. Click again
to save anyway.;
#X obj 203 253 print Content;
#X obj 50 276 demux;
#X obj 40 242 inlet;
#X obj 50 460 outlet;
#X obj 82 303 t a a;
#X obj 114 327 list length;
#X obj 82 352 list prepend;
#X obj 82 396 list append;
#X obj 38 148 t b f b;
#X obj 97 174 t b b b;
#X obj 340 334 t a a;
#X obj 372 357 list length;
#X obj 82 374 list prepend :H;
#X obj 187 34 receive \$1-size;
#X obj 38 126 receive \$1-clerame;
#X obj 97 196 s \$1-lstr;
#X obj 204 327 array get c\$1;
#X obj 372 379 s \$1-sizer;
#X obj 340 409 array set c\$1;
#X obj 340 312 receive \$1-myvals;
#X obj 292 285 receive \$1-name;
#X obj 50 427 list;
#X obj 51 -28 receive \$1-savelists;
#X obj 111 56 f 100;
#X obj 111 13 receive \$1-savem;
#X obj 111 35 t b;
#X obj 51 15 spigot;
#X obj 90 -7 receive \$1-:as;
#X obj 120 227 f 1;
#X connect 0 0 16 0;
#X connect 0 1 1 0;
#X connect 1 0 5 0;
#X connect 1 1 3 0;
#X connect 2 0 5 1;
#X connect 3 0 4 0;
#X connect 4 0 3 1;
#X connect 4 0 2 0;
#X connect 5 0 16 0;
#X connect 5 1 6 0;
#X connect 6 0 7 0;
#X connect 8 0 28 0;
#X connect 8 1 11 0;
#X connect 9 0 8 0;
#X connect 11 0 13 0;
#X connect 11 1 12 0;
#X connect 12 0 13 1;
#X connect 13 0 19 0;
#X connect 14 0 10 0;
#X connect 15 0 22 0;
#X connect 15 1 8 1;
#X connect 15 2 14 1;
#X connect 16 0 22 0;
#X connect 16 1 35 0;
#X connect 16 2 23 0;
#X connect 17 0 25 0;
#X connect 17 1 18 0;
#X connect 18 0 24 0;
#X connect 19 0 14 0;
#X connect 20 0 30 1;
#X connect 21 0 15 0;
#X connect 23 0 14 1;
#X connect 26 0 17 0;
#X connect 27 0 23 2;
#X connect 27 0 25 2;
#X connect 28 0 10 0;
#X connect 29 0 33 0;
#X connect 30 0 0 0;
#X connect 31 0 32 0;
#X connect 32 0 30 0;
#X connect 33 0 30 0;
#X connect 34 0 33 1;
#X connect 35 0 8 1;
