#N canvas 454 170 450 298 10;
#X obj 151 25 shared ctxfiles/launch-share;
#X msg 102 223 vis 1;
#X obj 102 245 iemguts/sendcanvas;
#X obj 102 201 receive lshare;
#X obj 88 66 array define dummy@%G 1;
#N canvas 197 186 740 538 messages 0;
#X obj 134 73 receive YYh&&8(v;
#X obj 201 117 t b a;
#X obj 311 164 ctxfiles/recompile \$0;
#X obj 85 178 cyclone/zl iter 1;
#X msg 320 30 symbol  ;
#X obj 134 95 route bang;
#X obj 311 187 ctxfiles/br2 demux 2 \; #f t \; #f gs :1f0 \; #f gs
:1f1 \; #f gs :1f2 \; #f gs :1f3 \; #f gs :1f4 \; #f gs :1f5 \; #f
gs :1f6 \; #f gs :1f7 \; #f gs :2f0 \; #f gs :2f1 \; #f gs :2f2 \;
#f gs :2f3 \; #f gs :2f4 \; #f gs :2f5 \; #f gs :2f6 \; #f gs :2f7
\; #f gs :3f0 \; #f gs :3f1 \; #f gs :3f2 \; #f gs :3f3 \; #f gs :3f4
\; #f gs :3f5 \; #f gs :3f6 \; #f gs :3f7 \; #f gs :4f0 \; #f gs :4f1
\; #f gs :4f2 \; #f gs :4f3 \; #f gs :4f4 \; #f gs :4f5 \; #f gs :4f6
\; #f gs :4f7 \; #f gs :qu \; #f gs :gui \; #f gs :sa \; #f gs :ac
\; #f gs :m1 \; #f gs propload;
#X obj 85 199 ctxfiles/br2 route 1 \; :1f0 gtfs \$0 #f 1f0 :s \; :1f1
gtfs \$0 #f 1f1 :ss \; :1f2 gtfs \$0 #f 1f2 -send 2 \; :1f3 gtfs \$0
#f 1f3 -send 3 \; :1f4 gtfs \$0 #f 1f4 :u \; :1f5 gtfs \$0 #f 1f5
find \; :1f6 gtfs \$0 #f 1f6 :r 1 c 0 1 \; :1f7 gtfs \$0 #f 1f7
copy ~ ID \; :2f0 gtfs \$0 #f 2f0 :s \; :2f1 gtfs \$0 #f 2f1 :ss
\; :2f2 gtfs \$0 #f 2f2 -send 2 \; :2f3 gtfs \$0 #f 2f3 -send 3 \;
:2f4 gtfs \$0 #f 2f4 :u \; :2f5 gtfs \$0 #f 2f5 find \; :2f6 gtfs \$0
#f 2f6 :r 1 c 0 1 \; :2f7 gtfs \$0 #f 2f7 copy ~ ID \; :3f0 gtfs
\$0 #f 3f0 chromatic \; :3f1 gtfs \$0 #f 3f1 major \; :3f2 gtfs \$0
#f 3f2 minor \; :3f3 gtfs \$0 #f 3f3 pentatonic major \; :3f4 gtfs
\$0 #f 3f4 pentatonic minor \; :3f5 gtfs \$0 #f 3f5 blues major \;
:3f6 gtfs \$0 #f 3f6 blues minor \; :3f7 gtfs \$0 #f 3f7 custom1 \;
:4f0 gtfs \$0 #f 4f0 120000 \; :4f1 gtfs \$0 #f 4f1 60000 \; :4f2 gtfs
\$0 #f 4f2 30000 \; :4f3 gtfs \$0 #f 4f3 10000 \; :4f4 gtfs \$0 #f
4f4 3000 \; :4f5 gtfs \$0 #f 4f5 1000 \; :4f6 gtfs \$0 #f 4f6 500 \;
:4f7 gtfs \$0 #f 4f7 1 \; :qu gtfs \$0 #f qu 0 \, :quantize #l \; :gui
gtfs \$0 #f gui 0 \, :GUI #l \; :sa gtfs \$0 #f sa 1 \; :ac gtfs \$0
#f ac 0 \; :m1 gtfs \$0 #f m1 bang \; loadproperties tf \$0 #f \; ##
s \$0-othr;
#X connect 0 0 5 0;
#X connect 1 0 2 0;
#X connect 1 1 3 0;
#X connect 2 0 6 0;
#X connect 2 1 6 1;
#X connect 3 0 7 0;
#X connect 5 1 1 0;
#X restore 301 215 pd messages;
#N canvas 256 211 475 450 select 0;
#X obj 188 171 +;
#X obj 188 225 mod;
#X obj 114 47 receive updub##;
#X obj 236 47 receive downdub##;
#X obj 262 307 f -1;
#X obj 262 330 makefilename %i-masteron&&;
#X obj 188 379 send;
#X obj 225 307 t f;
#X obj 188 307 f 1;
#X obj 38 173 receive masteronto&&;
#X obj 188 193 t f f;
#X obj 114 69 t b f;
#X obj 114 91 f 1;
#X obj 236 69 t b f;
#X obj 236 91 f -1;
#X obj 188 253 spigot 1;
#X obj 188 277 t b f b f b b b;
#X obj 371 243 t f;
#X obj 371 274 del 250;
#X obj 371 296 f 1;
#X connect 0 0 10 0;
#X connect 1 0 15 0;
#X connect 2 0 11 0;
#X connect 3 0 13 0;
#X connect 4 0 5 0;
#X connect 5 0 6 1;
#X connect 7 0 6 0;
#X connect 8 0 6 0;
#X connect 9 0 15 0;
#X connect 10 0 1 0;
#X connect 10 1 0 1;
#X connect 11 0 12 0;
#X connect 11 1 1 1;
#X connect 12 0 0 0;
#X connect 13 0 14 0;
#X connect 13 1 1 1;
#X connect 14 0 0 0;
#X connect 15 0 16 0;
#X connect 16 0 8 0;
#X connect 16 1 5 0;
#X connect 16 2 7 0;
#X connect 16 3 4 1;
#X connect 16 4 4 0;
#X connect 16 5 18 0;
#X connect 16 6 17 0;
#X connect 17 0 15 1;
#X connect 18 0 19 0;
#X connect 19 0 15 1;
#X restore 308 237 pd select;
#N canvas 67 87 450 300 scales 0;
#X obj 231 44 receive RRfBB%6;
#X msg 231 113 read scales.txt;
#X obj 231 138 text define gridscales%%;
#X obj 231 66 spigot 1;
#X obj 231 88 t b f;
#X connect 0 0 3 0;
#X connect 1 0 2 0;
#X connect 3 0 4 0;
#X connect 4 0 1 0;
#X connect 4 1 3 1;
#X restore 386 202 pd scales;
#N canvas 338 335 458 300 id 0;
#X obj 106 73 max;
#X obj 106 95 t f f;
#X msg 106 139 resize \$1;
#X obj 106 117 change;
#X obj 106 161 array define grd%-IDshare 1;
#X obj 106 51 receive grd%-IDsharer;
#X obj 126 184 array define grd%-colshare 1;
#X connect 0 0 1 0;
#X connect 1 0 3 0;
#X connect 1 1 0 1;
#X connect 2 0 4 0;
#X connect 2 0 6 0;
#X connect 3 0 2 0;
#X connect 5 0 0 0;
#X restore 344 157 pd id;
#X connect 1 0 2 0;
#X connect 3 0 1 0;
