#N canvas 306 265 1037 488 10;
#X obj 145 51 unpack f f;
#X obj 145 348 pack f f f;
#X obj 202 245 *;
#X msg 145 372 \$1 \, \$2 \$3;
#X obj 202 129 demux;
#X obj 202 173 -;
#X obj 229 173 t f;
#X obj 202 225 /;
#X obj 145 29 t a a;
#X obj 173 303 *;
#X obj 145 303 *;
#X obj 145 221 /;
#X obj 173 129 /;
#X obj 145 394 vline~;
#X obj 145 416 send~ \$1-myline;
#X obj 145 7 receive \$1-slist;
#X obj 229 81 receive \$1-rev;
#X obj 30 348 receive \$1-sl-stop;
#X obj 230 225 receive \$1-del1000;
#X obj 231 203 v \$1-del1000;
#X obj 336 112 receive \$1-lineinit;
#X obj 240 104 v \$1-rev;
#X obj 592 93 receive \$1-mkord;
#X obj 536 62 receive \$1-order;
#X obj 553 117 collect;
#X obj 553 139 sort;
#X obj 553 318 send;
#X obj 553 217 t b f;
#X obj 553 194 cyclone/iter;
#X obj 553 241 f;
#X obj 553 263 + 1;
#X obj 518 17 receive \$1-savestart;
#X obj 518 42 t b;
#X obj 839 256 array define \$0-zeros 1;
#X obj 785 119 t f b;
#X obj 812 142 f;
#X obj 839 188 + 1;
#X obj 812 164 t f f;
#X obj 785 312 tabwrite \$0-zeros;
#X obj 785 97 receive \$1-mkord0;
#X obj 839 210 t f f;
#X msg 839 232 resize \$1;
#X obj 580 288 makefilename %d-mynum;
#X obj 580 263 tabread \$0-zeros;
#X obj 711 64 receive \$1-order0;
#X obj 711 86 t f f;
#X obj 202 151 swap;
#X obj 261 161 t f f f;
#X text 452 447 maybe stone should tell whether there is a double message??
;
#X obj 336 143 v \$1-xy21;
#X obj 335 165 receive \$1-xy21;
#X obj 831 342 receive \$1-smarker;
#X text 684 20 MARKER SYSTEM;
#X obj 831 364 t a f;
#X obj 858 388 makefilename \$1-%dmarkr;
#X obj 830 411 list split 1;
#X obj 864 439 send;
#X obj 661 388 list split 1;
#X obj 695 414 send;
#X obj 661 322 receive \$1-ctntalk;
#X obj 688 366 list split 1;
#X obj 661 344 t a a;
#X connect 0 0 11 0;
#X connect 0 1 12 0;
#X connect 1 0 3 0;
#X connect 2 0 1 2;
#X connect 3 0 13 0;
#X connect 4 0 46 0;
#X connect 4 1 6 0;
#X connect 5 0 7 0;
#X connect 6 0 7 0;
#X connect 7 0 2 0;
#X connect 8 0 0 0;
#X connect 8 1 4 0;
#X connect 9 0 1 1;
#X connect 10 0 1 0;
#X connect 11 0 10 0;
#X connect 12 0 9 0;
#X connect 13 0 14 0;
#X connect 15 0 8 0;
#X connect 16 0 4 1;
#X connect 17 0 13 0;
#X connect 18 0 2 1;
#X connect 18 0 9 1;
#X connect 18 0 10 1;
#X connect 19 0 2 1;
#X connect 19 0 10 1;
#X connect 19 0 9 1;
#X connect 20 0 19 0;
#X connect 20 0 21 0;
#X connect 20 0 49 0;
#X connect 21 0 4 1;
#X connect 22 0 24 1;
#X connect 23 0 24 0;
#X connect 24 0 25 0;
#X connect 25 1 28 0;
#X connect 27 0 29 0;
#X connect 27 1 43 0;
#X connect 28 0 27 0;
#X connect 29 0 30 0;
#X connect 30 0 29 1;
#X connect 30 0 26 0;
#X connect 31 0 32 0;
#X connect 32 0 24 0;
#X connect 34 0 38 0;
#X connect 34 1 35 0;
#X connect 35 0 37 0;
#X connect 36 0 40 0;
#X connect 37 0 38 1;
#X connect 37 1 36 0;
#X connect 39 0 34 0;
#X connect 40 0 41 0;
#X connect 40 1 35 1;
#X connect 41 0 33 0;
#X connect 42 0 26 1;
#X connect 43 0 42 0;
#X connect 44 0 45 0;
#X connect 45 0 29 1;
#X connect 45 1 40 0;
#X connect 46 0 5 0;
#X connect 46 1 5 1;
#X connect 47 0 12 1;
#X connect 47 1 11 1;
#X connect 47 2 7 1;
#X connect 49 0 47 0;
#X connect 50 0 47 0;
#X connect 51 0 53 0;
#X connect 53 0 55 0;
#X connect 53 1 54 0;
#X connect 54 0 56 1;
#X connect 55 1 56 0;
#X connect 57 1 58 0;
#X connect 59 0 61 0;
#X connect 60 0 58 1;
#X connect 61 0 57 0;
#X connect 61 1 60 0;
