#N canvas 730 135 416 299 10;
#X obj 147 12 inlet;
#X obj 147 37 route bang;
#X obj 177 129 openpanel;
#X obj 177 95 receive \$1-obang;
#X obj 204 61 l2s;
#X obj 177 153 s \$1-:lo;
#X connect 0 0 1 0;
#X connect 1 0 2 0;
#X connect 1 1 4 0;
#X connect 2 0 5 0;
#X connect 3 0 2 0;
#X connect 4 0 5 0;
