#N canvas 733 131 416 299 10;
#X obj 147 12 inlet;
#X obj 147 37 route bang;
#X obj 177 129 openpanel;
#X obj 177 95 receive \$1-obang;
#X obj 204 61 l2s;
#X obj 228 176 s \$1-:lo;
#X msg 189 176 :ed 0;
#X obj 189 200 s \$1-anyin;
#X obj 177 153 t b b b s;
#X obj 211 223 s \$0-roff;
#X obj 177 247 s \$0-roff2;
#X connect 0 0 1 0;
#X connect 1 0 2 0;
#X connect 1 1 4 0;
#X connect 2 0 8 0;
#X connect 3 0 2 0;
#X connect 4 0 8 0;
#X connect 6 0 7 0;
#X connect 8 3 5 0;
