#N canvas 854 356 450 300 10;
#X obj 60 40 inlet drive;
#X obj 205 90 -;
#X obj 130 144 *;
#X obj 163 142 -;
#X obj 130 234 outlet;
#X obj 130 166 -;
#X obj 130 188 * -1;
#X obj 130 210 -;
#X obj 373 39 inlet offset;
#X obj 173 15 inlet;
#X obj 173 42 unpack f f f f;
#X connect 0 0 2 0;
#X connect 1 0 2 1;
#X connect 2 0 5 0;
#X connect 3 0 5 1;
#X connect 5 0 6 0;
#X connect 6 0 7 0;
#X connect 7 0 4 0;
#X connect 8 0 7 1;
#X connect 9 0 10 0;
#X connect 10 1 3 0;
#X connect 10 1 1 0;
#X connect 10 2 1 1;
#X connect 10 3 3 1;
