#N canvas 587 330 523 300 10;
#X obj 225 127 + 0.5;
#X obj 225 189 * 12;
#X obj 198 41 t b l;
#X obj 90 41 t b l;
#X obj 90 19 receive \$1-\$2smd;
#X obj 198 19 receive \$1-\$2smu;
#X obj 246 167 receive \$1-\$2zoomdiv;
#X obj 225 237 outlet;
#X obj 264 189 inlet;
#X obj 225 213 swap \$3;
#X obj 268 237 outlet;
#X obj 90 215 outlet;
#X obj 343 142 outlet sym;
#X obj 225 75 list split 1;
#X obj 259 97 route bang;
#X obj 316 120 t b s;
#X obj 90 166 sp01;
#X obj 102 127 receive \$1-morphon1;
#X obj 90 188 spigot 1;
#X obj 90 65 pack 1 0;
#X obj 122 87 pack 0 1;
#X connect 0 0 1 0;
#X connect 1 0 9 0;
#X connect 2 0 20 0;
#X connect 2 1 13 0;
#X connect 3 0 19 0;
#X connect 3 1 13 0;
#X connect 4 0 3 0;
#X connect 5 0 2 0;
#X connect 6 0 1 1;
#X connect 8 0 9 1;
#X connect 9 0 7 0;
#X connect 9 1 10 0;
#X connect 13 0 0 0;
#X connect 13 1 14 0;
#X connect 14 0 16 1;
#X connect 14 1 15 0;
#X connect 15 0 16 2;
#X connect 15 1 12 0;
#X connect 16 0 18 0;
#X connect 17 0 18 1;
#X connect 18 0 11 0;
#X connect 19 0 16 0;
#X connect 20 0 16 0;
