#N canvas 102 89 794 679 10;
#X obj 222 194 -;
#X obj 279 194 -;
#X obj 222 216 moses -8;
#X obj 267 239 moses 0;
#X obj 397 199 + 8;
#X obj 454 199 + 8;
#X obj 294 163 +;
#X obj 237 163 +;
#X obj 279 216 moses -8;
#X obj 324 240 moses 0;
#X obj 419 448 demux;
#X obj 267 381 demux;
#X obj 232 659 demux 0 1 2 3;
#X obj 328 660 demux 0 1 2 3;
#X obj 232 606 spigot;
#X obj 328 607 spigot;
#X obj 403 495 >= 1;
#X obj 294 430 >= 1;
#X obj 80 -22 t f;
#X obj 267 463 demux;
#X obj 446 472 demux;
#X obj 111 453 mux;
#X obj 294 407 spigot;
#X obj 403 472 spigot;
#X obj 41 -51 t a a b;
#X obj 222 -34 list;
#X obj 111 513 demux;
#X obj 183 -81 moses 1;
#X obj 133 403 * 4;
#X obj 8 649 sel 0;
#X obj 80 4 s \$1-prevsw;
#X obj 307 61 s \$1-mypos;
#X obj 298 839 outlet data;
#X obj 237 18 iemguts/canvasposition \$2;
#N canvas 395 140 617 670 time 0;
#X obj 149 232 route float s;
#X obj 149 417 outlet pos;
#X obj 225 352 t f f;
#X obj 225 376 *;
#X obj 333 90 sel 0 1;
#X obj 288 170 pack f f;
#X obj 288 238 /;
#X obj 315 260 /;
#X obj 176 350 *;
#X obj 396 371 inlet;
#X obj 321 392 demux 0 1 2 3;
#X obj 144 179 s \$0-retime;
#X obj 144 135 spigot;
#X obj 144 157 /;
#X obj 272 599 s \$1-xstart;
#X obj 371 598 s \$1-xend;
#X obj 149 255 t f f;
#X obj 288 215 t a a;
#X obj 314 44 receive \$0-osome;
#X obj 149 210 receive \$0-ovalue;
#X obj 190 87 receive \$1-savestart;
#X obj 315 238 swap;
#X text -40 157 calculate retiming coefficient;
#X text 365 173 calculate time by distance coefficient (and inverse)
;
#X text -26 351 combine time and position numbers;
#X text -40 559 prepare start and end points for line~;
#X text -84 451 force x2 (y2) from x1 (y1) and define initial exception
;
#X obj 371 415 t f b;
#X obj 406 415 t f b;
#X obj 70 87 moses 0.01;
#X obj 90 10 receive \$1-created1;
#X obj 288 282 t f f f;
#X obj 327 305 demux;
#X obj 314 67 t b f f;
#X obj 327 346 v \$1-tbydx1;
#X obj 354 326 v \$1-tbydy1;
#X obj 346 441 bth \$1 \$7 y2 y1;
#X obj 272 572 * 44100;
#X obj 371 572 * 44100;
#X obj 186 255 route +;
#X obj 186 277 t f b;
#X obj 186 324 +;
#X obj 433 492 top \$1 my2 \$0 y2 dd;
#X obj 492 408 demux 0 1 2 3;
#X obj 272 516 top \$1 mx1 \$0 x1 xx;
#X obj 346 468 top \$1 my1 \$0 y1 xx;
#X obj 371 547 top \$1 mx2 \$0 x2 dd;
#X obj 201 304 receive \$1-replu;
#X obj 432 572 receive \$0-:br;
#X obj 272 494 bth \$1 \$6 x2 x1;
#X obj 70 63 dvr \$1 realdelay;
#X obj 193 111 dvr \$1 savestart;
#X obj 333 115 dv \$1 xszz;
#X obj 352 139 dv \$1 yszz;
#X obj 90 33 dv \$1 realdelay;
#X obj 307 372 dv \$1 tbyd;
#X obj 127 111 t f f f f;
#X obj 193 135 v yourtime\$0;
#X text 297 192 <-- there used to be a spigot here from st1;
#X connect 0 0 16 0;
#X connect 0 1 39 0;
#X connect 2 0 3 0;
#X connect 2 1 10 0;
#X connect 3 0 1 0;
#X connect 4 0 52 0;
#X connect 4 1 53 0;
#X connect 5 0 17 0;
#X connect 6 0 31 0;
#X connect 7 0 3 1;
#X connect 8 0 10 0;
#X connect 9 0 10 1;
#X connect 9 0 43 1;
#X connect 10 0 49 0;
#X connect 10 1 36 0;
#X connect 10 2 27 0;
#X connect 10 3 28 0;
#X connect 12 0 13 0;
#X connect 13 0 11 0;
#X connect 16 0 1 0;
#X connect 16 1 8 0;
#X connect 17 0 6 0;
#X connect 17 1 21 0;
#X connect 18 0 33 0;
#X connect 19 0 0 0;
#X connect 20 0 12 1;
#X connect 21 0 7 0;
#X connect 21 1 7 1;
#X connect 27 0 46 0;
#X connect 27 1 49 1;
#X connect 28 0 42 0;
#X connect 28 1 36 1;
#X connect 29 1 56 0;
#X connect 30 0 54 0;
#X connect 31 0 8 1;
#X connect 31 1 55 0;
#X connect 31 2 32 0;
#X connect 32 0 34 0;
#X connect 32 1 35 0;
#X connect 33 0 5 0;
#X connect 33 1 4 0;
#X connect 33 2 32 1;
#X connect 36 0 45 0;
#X connect 36 1 42 0;
#X connect 37 0 14 0;
#X connect 38 0 15 0;
#X connect 39 0 40 0;
#X connect 39 1 2 0;
#X connect 40 0 41 0;
#X connect 40 1 43 0;
#X connect 41 0 2 0;
#X connect 43 0 44 1;
#X connect 43 1 45 1;
#X connect 43 2 46 1;
#X connect 43 3 42 1;
#X connect 44 0 37 0;
#X connect 46 0 38 0;
#X connect 47 0 41 1;
#X connect 48 0 38 1;
#X connect 48 0 37 1;
#X connect 49 0 44 0;
#X connect 49 1 46 0;
#X connect 50 0 29 0;
#X connect 51 0 12 1;
#X connect 52 0 5 1;
#X connect 53 0 5 1;
#X connect 54 0 29 0;
#X connect 56 0 13 1;
#X connect 56 1 12 0;
#X connect 56 2 5 0;
#X connect 56 3 57 0;
#X restore 298 816 pd time;
#X obj 336 786 outlet which;
#X msg 608 246 1;
#X obj 81 573 blp \$1 mx1 1;
#X obj 232 629 demux;
#X obj 328 629 demux;
#X obj 553 536 unpack;
#X obj 397 135 receive \$1-pixsize;
#X obj 336 741 receive \$0-owhich;
#X obj 378 607 receive \$1-cmorphon;
#X obj 267 333 cyclone/funnel 4;
#X obj 267 357 t f;
#X obj 377 420 cyclone/funnel 4;
#X obj 377 444 t f;
#X obj 467 290 receive \$1-prevsw;
#X msg 485 810 dirty 1;
#X obj 485 786 spigot;
#X obj 222 -9 t a b;
#X obj 237 40 t l l;
#X obj 518 764 receive \$1-savestart;
#X obj 108 688 makefilename %.4s s;
#X msg 108 712 label \$1;
#X obj 108 735 s \$1-block;
#X msg 534 491 1;
#X obj 573 491 t f;
#X obj 573 514 s \$1-nomove;
#X obj 534 447 inlet reposition;
#X obj 237 62 unpack;
#X obj 252 118 unpack;
#X obj 222 141 unpack;
#X obj 397 157 unpack;
#X text 289 -81 receive mouse data;
#X text 35 546 interface with canvas label;
#X text 74 217 identify mouseover areas;
#X obj 534 469 t b a b;
#X text 414 653 receive mover data and distribute according to mouseover
area;
#X text 474 692 combine with message data input;
#X text 586 472 receive reposition data and cancel movement;
#X obj 336 764 t f f;
#X obj 608 220 receive \$0-dort;
#X obj 485 832 iemguts/sendcanvas \$5;
#X obj 547 362 t b b;
#X obj 547 407 s \$0-st2;
#X obj 579 385 s \$0-st1;
#X obj 565 80 receive \$1-delemb;
#X obj 704 756 outlet;
#X obj 704 777 inlet;
#X obj 9 693 route bang;
#X msg 9 715 label;
#X obj 8 624 sp01;
#X obj 8 671 t b b;
#X obj 108 663 t a b;
#X obj 306 264 moses \$6;
#X obj 351 290 moses \$3;
#X obj 363 265 moses \$7;
#X obj 408 290 moses \$4;
#X obj 553 563 change;
#X obj 596 563 change;
#X obj 257 684 tt 0 0 \$0 x1 \$1 2;
#X obj 258 -9 receive \$1-lbang;
#X obj 608 275 dvs \$1 xyprot;
#X obj 148 489 f 1;
#X obj 268 -36 f 1;
#X obj 222 -58 t b b b;
#X obj 183 -105 dvr \$1 click2;
#X obj 252 94 dvr \$1 mycpos;
#X obj 432 226 dvr \$1 mup;
#X obj 328 584 dvr \$1 mmovey;
#X obj 232 560 dvr \$1 mmovex;
#X obj 101 593 blp \$1 mx2 2;
#X obj 121 613 blp \$1 my1 8;
#X obj 141 633 blp \$1 my2 4;
#X obj 41 -84 dvr \$1 preview;
#X obj 8 602 dvr \$1 shift;
#X obj 94 316 dvr \$1 ymode;
#X obj 547 340 dvr \$1 iemarg1;
#X obj 403 718 tt 1 1 \$0 y1 \$1 0;
#X obj 366 690 tt 3 1 \$0 y2 \$1 1;
#X obj 282 712 tt 2 0 \$0 x2 \$1 3;
#X obj 485 741 receive \$1-dirt;
#X obj 521 319 receive \$1-savestart;
#X obj 565 102 iemguts/canvasdelete 1;
#X connect 0 0 2 0;
#X connect 1 0 8 0;
#X connect 2 0 44 0;
#X connect 2 1 3 0;
#X connect 3 0 44 1;
#X connect 3 1 86 0;
#X connect 4 0 87 1;
#X connect 5 0 89 1;
#X connect 6 0 1 1;
#X connect 7 0 0 1;
#X connect 8 0 46 0;
#X connect 8 1 9 0;
#X connect 9 0 46 2;
#X connect 9 1 88 0;
#X connect 10 0 23 0;
#X connect 10 1 20 0;
#X connect 11 0 19 0;
#X connect 11 1 22 0;
#X connect 12 1 92 0;
#X connect 12 2 112 0;
#X connect 13 1 111 0;
#X connect 13 2 110 0;
#X connect 14 0 38 0;
#X connect 15 0 39 0;
#X connect 16 0 14 1;
#X connect 17 0 15 1;
#X connect 18 0 30 0;
#X connect 19 0 21 0;
#X connect 19 1 12 1;
#X connect 20 0 28 0;
#X connect 20 1 13 1;
#X connect 21 0 26 0;
#X connect 22 0 17 0;
#X connect 23 0 16 0;
#X connect 24 0 51 0;
#X connect 24 1 25 1;
#X connect 24 2 18 0;
#X connect 25 0 51 0;
#X connect 26 0 37 0;
#X connect 26 0 103 0;
#X connect 26 0 104 0;
#X connect 26 0 105 0;
#X connect 27 0 26 1;
#X connect 27 1 97 0;
#X connect 28 0 21 1;
#X connect 29 0 84 0;
#X connect 33 0 52 0;
#X connect 34 0 32 0;
#X connect 36 0 94 0;
#X connect 37 0 85 0;
#X connect 38 0 12 0;
#X connect 39 0 13 0;
#X connect 40 0 90 0;
#X connect 40 1 91 0;
#X connect 41 0 64 0;
#X connect 42 0 72 0;
#X connect 43 0 38 1;
#X connect 43 0 39 1;
#X connect 44 0 45 0;
#X connect 45 0 11 0;
#X connect 46 0 47 0;
#X connect 47 0 10 0;
#X connect 48 0 20 1;
#X connect 48 0 19 1;
#X connect 48 0 22 1;
#X connect 48 0 23 1;
#X connect 49 0 74 0;
#X connect 50 0 49 0;
#X connect 51 0 63 0;
#X connect 51 1 33 0;
#X connect 52 0 61 0;
#X connect 52 1 31 0;
#X connect 53 0 50 1;
#X connect 54 0 55 0;
#X connect 55 0 56 0;
#X connect 57 0 59 0;
#X connect 58 0 59 0;
#X connect 60 0 68 0;
#X connect 61 0 7 0;
#X connect 61 1 6 0;
#X connect 62 0 7 1;
#X connect 62 1 6 1;
#X connect 63 0 0 0;
#X connect 63 1 1 0;
#X connect 64 0 4 0;
#X connect 64 0 86 1;
#X connect 64 1 5 0;
#X connect 64 1 88 1;
#X connect 68 0 57 0;
#X connect 68 1 40 0;
#X connect 68 2 58 0;
#X connect 72 0 35 0;
#X connect 72 1 34 0;
#X connect 73 0 36 0;
#X connect 75 0 76 0;
#X connect 75 1 77 0;
#X connect 78 0 115 0;
#X connect 80 0 81 0;
#X connect 81 0 82 0;
#X connect 81 1 55 0;
#X connect 82 0 56 0;
#X connect 83 0 29 0;
#X connect 84 0 79 0;
#X connect 84 1 83 1;
#X connect 85 0 54 0;
#X connect 85 1 83 2;
#X connect 86 0 44 3;
#X connect 86 1 87 0;
#X connect 87 0 44 2;
#X connect 87 1 44 0;
#X connect 88 0 46 3;
#X connect 88 1 89 0;
#X connect 89 0 46 1;
#X connect 89 1 46 0;
#X connect 90 0 92 1;
#X connect 91 0 110 1;
#X connect 93 0 33 0;
#X connect 95 0 26 1;
#X connect 96 0 30 0;
#X connect 97 0 95 0;
#X connect 97 1 25 0;
#X connect 97 2 96 0;
#X connect 98 0 27 0;
#X connect 99 0 62 0;
#X connect 100 0 12 1;
#X connect 100 0 13 1;
#X connect 100 0 94 0;
#X connect 101 0 15 0;
#X connect 102 0 14 0;
#X connect 103 0 85 0;
#X connect 104 0 85 0;
#X connect 105 0 85 0;
#X connect 106 0 24 0;
#X connect 107 0 83 0;
#X connect 108 0 10 1;
#X connect 108 0 11 1;
#X connect 108 0 21 2;
#X connect 109 0 75 0;
#X connect 113 0 50 0;
#X connect 114 0 75 0;
