#N canvas 67 247 880 521 10;
#X obj 374 62 f;
#X obj 356 90 list prepend;
#X obj 401 62 + 1;
#X msg 517 92 clear;
#X text 463 18 assume incoming text start with number and symbol;
#X text 454 65 set incoming text to buffer along with line number;
#X msg 355 14 4 oncoming lists;
#X msg 44 21 list oncoming lists;
#X obj 106 106 t f;
#X obj 91 130 f;
#X obj 91 84 until;
#X obj 91 224 sel -1;
#X obj 118 130 + 1;
#X obj 143 293 unpack;
#X obj 91 201 t f f f;
#X obj 215 339 - 1;
#X obj 176 361 f;
#X obj 176 339 t b;
#X text 493 -2 assume incoming text start with number and symbol;
#X msg 385 -6 4 incoming lists;
#X msg 170 20 list incoming lists;
#X text 145 74 maybe truncate here? Otherwise \, the whole thing will
be searched for. Or is that the idea?, f 26;
#X obj 67 -5 inlet search;
#X obj 325 -7 inlet add;
#X obj 124 270 t l l b;
#X obj 37 397 list split 1;
#X obj 71 421 outlet;
#X obj 355 429 outlet status;
#X text 175 148 search input iteratively until every line is found
\, then stop loop;
#X text 193 284 when match is found \, -1 the search number \, and
report back the line number for until loop.;
#X obj 91 178 text search \$1 >= 0 2;
#X obj 124 247 text get \$1;
#X obj 355 114 text set \$1 1e+13;
#X obj 515 114 text define \$1;
#X obj 215 361 text set \$1 0 1;
#X obj 176 384 text delete \$1;
#X obj 176 316 moses 1;
#X obj 355 37 t a b b;
#X obj 144 130 list split 1;
#X obj 91 154 pack f s;
#X obj 74 58 t b b b a;
#X obj 355 382 text size \$1;
#X obj 355 405 >;
#X connect 0 0 1 1;
#X connect 0 0 2 0;
#X connect 1 0 32 0;
#X connect 2 0 0 1;
#X connect 2 0 42 0;
#X connect 3 0 33 0;
#X connect 6 0 37 0;
#X connect 7 0 40 0;
#X connect 8 0 9 1;
#X connect 9 0 39 0;
#X connect 10 0 9 0;
#X connect 11 0 10 1;
#X connect 11 1 31 0;
#X connect 12 0 9 1;
#X connect 13 0 12 0;
#X connect 13 1 36 0;
#X connect 14 0 11 0;
#X connect 14 1 16 1;
#X connect 14 2 34 1;
#X connect 15 0 34 0;
#X connect 16 0 35 0;
#X connect 17 0 16 0;
#X connect 19 0 37 0;
#X connect 20 0 40 0;
#X connect 22 0 40 0;
#X connect 23 0 37 0;
#X connect 24 0 25 0;
#X connect 24 1 13 0;
#X connect 24 2 41 0;
#X connect 25 1 26 0;
#X connect 30 0 14 0;
#X connect 31 0 24 0;
#X connect 36 0 17 0;
#X connect 36 1 15 0;
#X connect 37 0 1 0;
#X connect 37 1 0 0;
#X connect 38 0 39 1;
#X connect 39 0 30 0;
#X connect 40 1 10 0;
#X connect 40 2 8 0;
#X connect 40 3 38 0;
#X connect 41 0 42 0;
#X connect 42 0 27 0;
