#N canvas 67 247 880 521 10;
#X obj 374 62 f;
#X obj 356 90 list prepend;
#X obj 401 62 + 1;
#X msg 515 92 clear;
#X text 454 65 set incoming text to buffer along with line number;
#X obj 106 106 t f;
#X obj 91 130 f;
#X obj 91 84 until;
#X obj 91 224 sel -1;
#X obj 118 130 + 1;
#X obj 143 293 unpack;
#X obj 91 201 t f f f;
#X obj 215 339 - 1;
#X obj 176 361 f;
#X obj 176 339 t b;
#X text 493 -2 assume incoming text start with number and symbol;
#X obj 61 27 inlet search;
#X obj 325 -7 inlet add;
#X obj 37 397 list split 1;
#X obj 354 429 outlet status;
#X text 175 148 search input iteratively until every line is found
\, then stop loop;
#X obj 91 178 text search \$1 >= 0 2;
#X obj 124 247 text get \$1;
#X obj 355 114 text set \$1 1e+13;
#X obj 515 114 text define \$1;
#X obj 215 361 text set \$1 0 1;
#X obj 176 384 text delete \$1;
#X obj 355 37 t a b b;
#X obj 144 130 list split 1;
#X obj 91 154 pack f s;
#X obj 354 382 text size \$1;
#X obj 354 405 >;
#X obj 176 316 moses 2;
#X obj 182 428 spigot;
#X obj 182 451 outlet not-found;
#X obj 71 421 outlet found;
#X obj 222 404 f 1;
#X obj 247 404 t f;
#X obj 124 270 t l l b;
#X obj 61 58 t b a b b a b;
#X obj 354 357 del;
#X connect 0 0 1 1;
#X connect 0 0 2 0;
#X connect 1 0 23 0;
#X connect 2 0 0 1;
#X connect 2 0 31 0;
#X connect 3 0 24 0;
#X connect 5 0 6 1;
#X connect 6 0 29 0;
#X connect 7 0 6 0;
#X connect 8 0 7 1;
#X connect 8 1 22 0;
#X connect 9 0 6 1;
#X connect 10 0 9 0;
#X connect 10 1 32 0;
#X connect 11 0 8 0;
#X connect 11 1 13 1;
#X connect 11 2 25 1;
#X connect 12 0 25 0;
#X connect 13 0 26 0;
#X connect 14 0 13 0;
#X connect 16 0 39 0;
#X connect 17 0 27 0;
#X connect 18 1 35 0;
#X connect 21 0 11 0;
#X connect 22 0 38 0;
#X connect 27 0 1 0;
#X connect 27 1 0 0;
#X connect 28 0 29 1;
#X connect 29 0 21 0;
#X connect 30 0 31 0;
#X connect 31 0 19 0;
#X connect 32 0 14 0;
#X connect 32 1 12 0;
#X connect 33 0 34 0;
#X connect 36 0 33 1;
#X connect 37 0 33 1;
#X connect 38 0 18 0;
#X connect 38 1 10 0;
#X connect 38 2 37 0;
#X connect 39 0 40 0;
#X connect 39 1 33 0;
#X connect 39 2 7 0;
#X connect 39 3 5 0;
#X connect 39 4 28 0;
#X connect 39 5 36 0;
#X connect 40 0 30 0;
