#N canvas 609 192 450 492 10;
#X obj 107 22 inlet;
#X obj 107 45 sel 0 0.5;
#X obj 132 186 array get dummy@%G;
#X obj 237 160 receive \$1-floatsym;
#X obj 287 111 receive \$1-arrysym;
#X obj 158 68 t b;
#X obj 107 416 s \$1-filt-e;
#X obj 158 137 array get dummy@%G 0 1;
#X obj 158 91 v \$1-lshift-2;
#X obj 158 114 + \$2;
#X obj 107 393 pack f \$3;
#X obj 107 161 f 0.000937221;
#X obj 107 370 change 0.000937221;
#X obj 3 22 receive \$1-bcset;
#X obj 132 313 +;
#X obj 149 287 t b f;
#X obj 149 264 receive \$1-ushift-21;
#X obj 107 68 t b f;
#X obj 132 212 t f b;
#X obj 177 235 f 1;
#X obj 132 342 spigot 1;
#X connect 0 0 1 0;
#X connect 1 0 17 0;
#X connect 1 1 2 0;
#X connect 1 2 5 0;
#X connect 2 0 18 0;
#X connect 3 0 2 2;
#X connect 4 0 7 2;
#X connect 5 0 8 0;
#X connect 7 0 18 0;
#X connect 8 0 9 0;
#X connect 9 0 7 0;
#X connect 10 0 6 0;
#X connect 11 0 12 0;
#X connect 12 0 10 0;
#X connect 13 0 12 0;
#X connect 14 0 20 0;
#X connect 15 0 14 0;
#X connect 15 1 14 1;
#X connect 16 0 15 0;
#X connect 17 0 11 0;
#X connect 17 1 20 1;
#X connect 18 0 14 0;
#X connect 18 1 19 0;
#X connect 19 0 20 1;
#X connect 20 0 12 0;
