#N canvas 370 257 791 473 10;
#X obj 294 34 iemguts/canvasargs;
#X obj 347 103 list length;
#X obj 216 206 list;
#X obj 216 183 t b b b;
#X obj 255 219 f;
#X obj 255 242 + 1;
#X obj 255 266 mod;
#X msg 216 373 label \$1;
#X obj 216 395 s \$0-labr;
#X obj 385 393 iemguts/sendcanvas;
#X obj 216 311 list split;
#X obj 244 332 list split 1;
#X obj 281 438 s \$1-\$2;
#X obj 114 159 t b f;
#X obj 141 181 - 1;
#X obj 216 161 sp01 1;
#X msg 385 372 donecanvasdialog 0 -1 2 0 -1 1 1 \$1 15 100 100 \, dirty
0;
#X obj 379 149 list fromsymbol;
#X obj 379 171 list length;
#X obj 356 260 * 6;
#X msg 356 414 size \$1 15;
#X obj 385 350 + 3;
#X obj 331 324 - 2;
#X obj 103 100 hsl 40 15 0 127 0 1 \$0-labs \$0-labr \$5 -1 8 0 10
-262134 -262134 -1 3900 1;
#X obj 294 56 list split 4;
#X obj 527 103 list split 3;
#X obj 561 129 route 0;
#X msg 613 157 label \$1;
#X obj 613 187 s \$0-canv;
#X obj 600 215 list fromsymbol;
#X obj 651 260 list length;
#X obj 651 283 * -6;
#X obj 651 307 + -3;
#X obj 101 101 cnv 1 1 1 empty \$0-canv empty -16 7 0 10 -233017 -1
0;
#X msg 651 329 label_pos \$1 7;
#X text 461 17 arguments: \$0 \, send \, recieve \, label \, opt1 \,
opt2...;
#X obj 477 241 ../config-distro;
#X obj 332 286 ../config-distro;
#X msg 522 265 pos 101 100;
#X obj 372 313 - 3;
#X msg 477 291 pos 103 100;
#X obj 379 126 cyclone/iter;
#X obj 379 193 max;
#X obj 379 215 t f f;
#X obj 364 238 f;
#X obj 328 79 t a a b a;
#X obj 114 137 receive \$1-\$3;
#X obj 216 136 receive \$0-labs;
#X obj 265 161 receive \$1-mup;
#X obj 117 263 receive \$1-mcol;
#X obj 600 237 route 194;
#X msg 600 350 label_pos 0 -7;
#X obj 294 10 spigot 1;
#X obj 294 -37 loadbang;
#X obj 294 -14 t f b;
#X connect 0 0 24 0;
#X connect 1 0 6 1;
#X connect 2 0 10 0;
#X connect 3 0 2 0;
#X connect 3 1 15 1;
#X connect 3 2 4 0;
#X connect 4 0 5 0;
#X connect 5 0 4 1;
#X connect 5 0 6 0;
#X connect 6 0 10 1;
#X connect 6 0 12 0;
#X connect 7 0 8 0;
#X connect 10 1 11 0;
#X connect 11 0 7 0;
#X connect 13 0 2 0;
#X connect 13 1 14 0;
#X connect 14 0 4 0;
#X connect 15 0 3 0;
#X connect 16 0 9 0;
#X connect 17 0 18 0;
#X connect 18 0 42 0;
#X connect 19 0 21 0;
#X connect 19 0 37 0;
#X connect 20 0 8 0;
#X connect 21 0 16 0;
#X connect 22 0 20 0;
#X connect 24 0 25 0;
#X connect 24 1 45 0;
#X connect 25 1 26 0;
#X connect 26 1 27 0;
#X connect 26 1 29 0;
#X connect 27 0 28 0;
#X connect 29 0 50 0;
#X connect 30 0 31 0;
#X connect 31 0 32 0;
#X connect 32 0 34 0;
#X connect 34 0 28 0;
#X connect 36 0 40 0;
#X connect 36 1 38 0;
#X connect 37 0 22 0;
#X connect 37 1 39 0;
#X connect 38 0 8 0;
#X connect 39 0 20 0;
#X connect 40 0 8 0;
#X connect 41 0 17 0;
#X connect 42 0 43 0;
#X connect 43 0 44 1;
#X connect 43 1 42 1;
#X connect 44 0 19 0;
#X connect 45 0 2 1;
#X connect 45 1 1 0;
#X connect 45 2 44 0;
#X connect 45 3 41 0;
#X connect 46 0 13 0;
#X connect 47 0 15 0;
#X connect 48 0 15 2;
#X connect 49 0 8 0;
#X connect 49 0 28 0;
#X connect 50 0 51 0;
#X connect 50 1 30 0;
#X connect 51 0 28 0;
#X connect 52 0 0 0;
#X connect 52 0 36 0;
#X connect 53 0 54 0;
#X connect 54 0 52 1;
#X connect 54 1 52 0;
#X coords 0 -1 1 1 45 15 2 100 100;
