#N canvas 315 410 450 320 10;
#N canvas 212 118 450 300 receives 0;
#X obj 130 20 inlet;
#X obj 130 42 iemguts/sendcanvas;
#X obj 124 217 outlet;
#X obj 294 14 inlet;
#X connect 0 0 1 0;
#X restore 157 119 pd receives;
#X obj 157 143 outlet;
#X obj 157 72 inlet;
#N canvas 626 185 450 430 guts 1;
#X obj 272 52 list length;
#X obj 292 80 f;
#X obj 292 123 until;
#X obj 292 145 f;
#X msg 292 211 delete \$1;
#X obj 140 123 f;
#X obj 140 145 + 1;
#X obj 140 101 t b a;
#X obj 195 234 * 50;
#X obj 292 102 t f f;
#X obj 292 167 - 1;
#X obj 167 359 outlet;
#X obj 150 -18 inlet;
#X obj 150 4 route **deleteme//;
#X obj 111 28 iemguts/canvasdelete 1;
#X obj 292 189 + 4;
#X obj 60 190 + 3;
#X msg 60 211 connect \$1 0 2 0 \, connect 3 0 \$1 0;
#X obj 255 28 t b a a b b;
#X msg 59 159 loadbang;
#X msg 228 234 1;
#X obj 216 85 t f f f b;
#X obj 267 266 iemguts/canvasdollarzero 5;
#X obj 167 315 list append;
#X obj 167 337 list trim;
#X obj 140 167 t f f f b b;
#X obj 140 80 cyclone/iter;
#X obj 167 267 pack s f f;
#X msg 167 293 obj \$2 100 sr\$3 \$1;
#X connect 0 0 1 1;
#X connect 1 0 9 0;
#X connect 2 0 3 0;
#X connect 3 0 10 0;
#X connect 4 0 11 0;
#X connect 5 0 6 0;
#X connect 6 0 25 0;
#X connect 7 0 5 0;
#X connect 7 1 27 0;
#X connect 8 0 27 1;
#X connect 9 0 2 0;
#X connect 9 1 3 1;
#X connect 10 0 3 1;
#X connect 10 0 15 0;
#X connect 12 0 13 0;
#X connect 13 0 14 0;
#X connect 13 1 18 0;
#X connect 15 0 4 0;
#X connect 16 0 17 0;
#X connect 17 0 11 0;
#X connect 18 0 19 0;
#X connect 18 1 26 0;
#X connect 18 2 0 0;
#X connect 18 3 1 0;
#X connect 18 4 21 0;
#X connect 19 0 11 0;
#X connect 20 0 27 2;
#X connect 21 0 5 1;
#X connect 21 1 27 1;
#X connect 21 2 27 2;
#X connect 21 3 22 0;
#X connect 22 0 23 1;
#X connect 23 0 24 0;
#X connect 24 0 11 0;
#X connect 25 0 16 0;
#X connect 25 1 5 1;
#X connect 25 2 8 0;
#X connect 25 3 20 0;
#X connect 25 4 23 1;
#X connect 26 0 7 0;
#X connect 27 0 28 0;
#X connect 28 0 23 0;
#X restore 157 96 pd guts;
#X obj 220 71 inlet;
#X connect 0 0 1 0;
#X connect 2 0 3 0;
#X connect 3 0 0 0;
#X connect 4 0 0 1;
