#N canvas 537 239 450 437 10;
#X obj 82 23 inlet;
#X obj 191 8 inlet add;
#X obj 111 375 list prepend;
#X obj 111 112 msgfile;
#X obj 111 349 list append;
#X obj 191 33 list prepend add;
#X obj 191 55 list trim;
#X obj 111 397 outlet;
#X msg 111 87 flush \, clear;
#X obj 111 134 list trim;
#X obj 111 178 route sym;
#X obj 139 301 - 1;
#X obj 195 388 outlet;
#X obj 257 366 sp01;
#X obj 257 388 outlet;
#X obj 111 325 spigot;
#X obj 308 388 outlet;
#X obj 362 365 f;
#X obj 377 343 t f;
#X obj 362 387 outlet;
#X obj 111 156 t a b;
#X msg 362 321 1;
#X obj 82 56 t b a b s s b b;
#X obj 111 200 t a a b;
#X obj 111 279 list split;
#X obj 130 225 list length;
#X obj 130 247 - 1;
#X connect 0 0 22 0;
#X connect 1 0 5 0;
#X connect 2 0 7 0;
#X connect 3 0 9 0;
#X connect 4 0 2 0;
#X connect 5 0 6 0;
#X connect 6 0 3 0;
#X connect 8 0 3 0;
#X connect 9 0 20 0;
#X connect 10 0 23 0;
#X connect 10 1 12 0;
#X connect 11 0 4 1;
#X connect 11 0 15 1;
#X connect 11 0 16 0;
#X connect 13 0 14 0;
#X connect 15 0 4 0;
#X connect 17 0 19 0;
#X connect 18 0 17 1;
#X connect 20 0 10 0;
#X connect 20 1 21 0;
#X connect 21 0 17 1;
#X connect 22 0 17 0;
#X connect 22 1 13 0;
#X connect 22 2 8 0;
#X connect 22 3 10 1;
#X connect 22 4 2 1;
#X connect 22 5 13 2;
#X connect 22 6 18 0;
#X connect 23 0 24 0;
#X connect 23 1 25 0;
#X connect 23 2 13 1;
#X connect 24 0 15 0;
#X connect 24 1 11 0;
#X connect 25 0 26 0;
#X connect 26 0 24 1;
