#N canvas 740 206 450 346 10;
#X obj 147 11 inlet;
#X obj 147 131 demux;
#X obj 162 108 demux;
#X obj 162 85 inlet;
#X obj 154 307 outlet;
#X obj 147 33 t b a;
#X obj 154 248 t a a;
#X obj 192 248 t a a;
#X obj 268 180 switch-\$1;
#X obj 185 181 switch-\$1;
#X obj 147 156 ms-store 1;
#X obj 154 279 spigot 1;
#X obj 228 248 switch-\$1;
#X obj 279 272 <= 1;
#X obj 230 156 ms-store 2;
#X obj 287 307 outlet;
#X obj 189 33 f;
#X obj 189 55 ==;
#X connect 0 0 5 0;
#X connect 1 0 10 0;
#X connect 1 1 14 0;
#X connect 2 0 10 1;
#X connect 2 1 14 1;
#X connect 3 0 2 0;
#X connect 5 0 16 0;
#X connect 5 1 1 0;
#X connect 6 0 11 0;
#X connect 6 1 14 1;
#X connect 7 0 11 0;
#X connect 7 1 10 1;
#X connect 8 0 7 0;
#X connect 9 0 6 0;
#X connect 10 0 6 0;
#X connect 10 1 14 1;
#X connect 10 2 9 0;
#X connect 10 3 12 0;
#X connect 10 4 15 0;
#X connect 11 0 4 0;
#X connect 12 1 13 0;
#X connect 13 0 11 1;
#X connect 14 0 7 0;
#X connect 14 1 10 1;
#X connect 14 2 8 0;
#X connect 14 3 12 0;
#X connect 14 4 15 0;
#X connect 16 0 17 0;
#X connect 17 0 16 1;
#X connect 17 0 2 1;
#X connect 17 0 1 1;
