#N canvas 169 309 450 336 10;
#X obj 82 10 inlet;
#X obj 216 37 inlet;
#X obj 239 82 makefilename %d-ls;
#X obj 239 104 iemguts/oreceive \$0n;
#X obj 82 167 s \$1-mxback;
#X obj 82 123 int;
#X obj 195 150 receive \$1-\$2-m3c;
#X obj 239 126 spigot 1;
#X obj 195 195 t b f b;
#X obj 241 217 t f;
#X obj 195 217 f 1;
#X obj 216 59 t f f f;
#X obj 262 268 makefilename %d-lr;
#X obj 218 300 send;
#X obj 82 145 pack f \$2 \$3;
#X obj 82 101 / 0.787401;
#X obj 218 245 * 0.787401;
#X obj 212 82 ==;
#X obj 82 32 demux;
#X obj 114 55 t b;
#X obj 114 77 t f;
#X obj 195 172 demux;
#X connect 0 0 18 0;
#X connect 1 0 11 0;
#X connect 2 0 3 0;
#X connect 3 0 7 0;
#X connect 5 0 14 0;
#X connect 6 0 21 0;
#X connect 7 0 15 0;
#X connect 8 0 10 0;
#X connect 8 1 16 0;
#X connect 8 2 9 0;
#X connect 9 0 7 1;
#X connect 10 0 7 1;
#X connect 11 0 17 0;
#X connect 11 1 2 0;
#X connect 11 2 12 0;
#X connect 12 0 13 1;
#X connect 14 0 4 0;
#X connect 15 0 5 0;
#X connect 16 0 13 0;
#X connect 17 0 18 1;
#X connect 17 0 21 1;
#X connect 18 0 15 0;
#X connect 18 1 19 0;
#X connect 19 0 20 0;
#X connect 20 0 14 0;
#X connect 21 0 8 0;
#X connect 21 1 19 0;
