#N canvas 158 226 548 468 10;
#X obj 82 10 inlet;
#X obj 212 37 inlet;
#X obj 239 104 iemguts/oreceive \$0n;
#X obj 82 189 s \$1-mxback;
#X obj 82 123 int;
#X obj 195 150 receive \$1-\$2-m3c;
#X obj 239 126 spigot 1;
#X obj 235 217 t f;
#X obj 195 217 f 1;
#X obj 215 420 send;
#X obj 82 167 pack f \$2 \$3;
#X obj 82 101 / 0.787401;
#X obj 215 315 * 0.787401;
#X obj 212 82 ==;
#X obj 82 32 demux;
#X obj 114 55 t b;
#X obj 114 77 t f;
#X obj 195 172 demux;
#X obj 215 366 pack f 1;
#X obj 268 343 receive \$1-fadetime;
#X obj 259 388 makefilename %d-fromgrid;
#X obj 195 195 t b f b b;
#X obj 352 157 f \$2;
#X obj 352 179 v \$1-keepslide;
#X obj 352 201 receive \$1-\$2-backslide;
#X obj 82 145 change;
#X obj 352 245 send;
#X obj 377 224 makefilename %d-stopslide;
#X obj 212 59 t f f f f b;
#X msg 119 123 set -1;
#X obj 215 248 t b f;
#X obj 215 292 f;
#X obj 215 270 del 10;
#X obj 239 82 makefilename %d-gridls;
#X connect 0 0 14 0;
#X connect 1 0 28 0;
#X connect 2 0 6 0;
#X connect 4 0 25 0;
#X connect 5 0 17 0;
#X connect 6 0 11 0;
#X connect 7 0 6 1;
#X connect 8 0 6 1;
#X connect 10 0 3 0;
#X connect 11 0 4 0;
#X connect 12 0 18 0;
#X connect 13 0 14 1;
#X connect 13 0 17 1;
#X connect 14 0 11 0;
#X connect 14 1 15 0;
#X connect 15 0 16 0;
#X connect 16 0 25 0;
#X connect 17 0 21 0;
#X connect 17 1 15 0;
#X connect 18 0 9 0;
#X connect 19 0 18 1;
#X connect 20 0 9 1;
#X connect 21 0 8 0;
#X connect 21 1 30 0;
#X connect 21 2 7 0;
#X connect 21 3 22 0;
#X connect 22 0 23 0;
#X connect 24 0 26 0;
#X connect 25 0 10 0;
#X connect 27 0 26 1;
#X connect 28 0 13 0;
#X connect 28 1 33 0;
#X connect 28 2 20 0;
#X connect 28 3 27 0;
#X connect 28 4 29 0;
#X connect 29 0 25 0;
#X connect 30 0 32 0;
#X connect 30 1 31 1;
#X connect 31 0 12 0;
#X connect 32 0 31 0;
#X connect 33 0 2 0;
