#N canvas 364 271 548 497 10;
#X obj 82 10 inlet;
#X obj 212 37 inlet;
#X obj 239 104 iemguts/oreceive \$0n;
#X obj 82 213 s \$1-mxback;
#X obj 82 123 int;
#X obj 197 155 receive \$1-\$2-m3c;
#X obj 239 126 spigot 1;
#X obj 237 291 t f;
#X obj 197 291 f 1;
#X obj 215 470 send;
#X obj 82 191 pack f \$2 \$3;
#X obj 82 101 / 0.787401;
#X obj 215 365 * 0.787401;
#X obj 212 82 ==;
#X obj 82 32 demux;
#X obj 109 56 t b;
#X obj 109 78 t f;
#X obj 197 246 demux;
#X obj 215 416 pack f 1;
#X obj 357 362 receive \$1-fadetime;
#X obj 259 438 makefilename %d-fromgrid;
#X obj 352 157 f \$2;
#X obj 352 179 v \$1-keepslide;
#X obj 352 201 receive \$1-\$2-backslide;
#X obj 82 145 change;
#X obj 352 246 send;
#X obj 377 224 makefilename %d-stopslide;
#X msg 119 123 set -1;
#X obj 197 179 t b f;
#X obj 197 223 f;
#X obj 197 201 del 10;
#X obj 239 82 makefilename %d-gridls;
#X obj 82 168 t f f;
#X obj 215 315 t f f f;
#X obj 288 317 -;
#X obj 288 340 abs;
#X obj 288 386 * 1;
#X obj 288 363 / 128;
#X obj 25 272 receive \$1-m4slm;
#X obj 212 59 t f f f f b f;
#X obj 46 298 makefilename %d-slmode;
#X obj 25 328 send;
#X obj 197 269 t b f b b b;
#X obj 41 367 spigot;
#X obj 41 390 s thu^^y&h;
#X connect 0 0 14 0;
#X connect 1 0 39 0;
#X connect 2 0 6 0;
#X connect 4 0 24 0;
#X connect 5 0 28 0;
#X connect 6 0 11 0;
#X connect 7 0 6 1;
#X connect 8 0 6 1;
#X connect 10 0 3 0;
#X connect 11 0 4 0;
#X connect 12 0 18 0;
#X connect 13 0 14 1;
#X connect 13 0 17 1;
#X connect 14 0 11 0;
#X connect 14 1 15 0;
#X connect 15 0 16 0;
#X connect 16 0 32 0;
#X connect 17 0 42 0;
#X connect 17 1 15 0;
#X connect 18 0 9 0;
#X connect 19 0 36 1;
#X connect 20 0 9 1;
#X connect 21 0 22 0;
#X connect 23 0 25 0;
#X connect 24 0 32 0;
#X connect 26 0 25 1;
#X connect 27 0 24 0;
#X connect 28 0 30 0;
#X connect 28 1 29 1;
#X connect 29 0 17 0;
#X connect 30 0 29 0;
#X connect 31 0 2 0;
#X connect 32 0 10 0;
#X connect 32 1 34 1;
#X connect 33 0 34 1;
#X connect 33 1 12 0;
#X connect 33 2 34 0;
#X connect 34 0 35 0;
#X connect 35 0 37 0;
#X connect 36 0 18 1;
#X connect 37 0 36 0;
#X connect 38 0 41 0;
#X connect 38 0 43 1;
#X connect 39 0 13 0;
#X connect 39 1 31 0;
#X connect 39 2 20 0;
#X connect 39 3 26 0;
#X connect 39 4 27 0;
#X connect 39 5 40 0;
#X connect 40 0 41 1;
#X connect 42 0 8 0;
#X connect 42 1 33 0;
#X connect 42 2 7 0;
#X connect 42 3 21 0;
#X connect 42 4 43 0;
#X connect 43 0 44 0;
