#N canvas 697 437 490 300 10;
#X obj 108 177 spigot;
#X obj 128 121 route bang;
#X obj 128 99 iemguts/canvasdollarzero \$1;
#X obj 108 205 outlet;
#X obj 89 53 inlet;
#X obj 89 75 t b a b;
#X obj 89 97 t f;
#X obj 185 145 t b;
#X obj 141 151 f 1;
#X connect 0 0 3 0;
#X connect 1 1 7 0;
#X connect 2 0 1 0;
#X connect 4 0 5 0;
#X connect 5 0 6 0;
#X connect 5 1 0 0;
#X connect 5 2 2 0;
#X connect 6 0 8 0;
#X connect 7 0 8 0;
#X connect 8 0 0 1;
