#N canvas 700 433 490 300 10;
#X obj 108 177 spigot;
#X obj 128 121 route bang;
#X msg 141 153 1;
#X obj 128 99 iemguts/canvasdollarzero \$1;
#X obj 108 205 outlet;
#X obj 89 53 inlet;
#X obj 89 75 t b a b;
#X obj 89 97 t f;
#X connect 0 0 4 0;
#X connect 1 1 2 0;
#X connect 2 0 0 1;
#X connect 3 0 1 0;
#X connect 5 0 6 0;
#X connect 6 0 7 0;
#X connect 6 1 0 0;
#X connect 6 2 3 0;
#X connect 7 0 0 1;
