#N canvas 562 87 746 681 10;
#X obj 79 99 list split 1;
#X obj 24 146 list split 1;
#X obj 85 314 send;
#X obj 52 77 t a a;
#X obj 58 212 t a a;
#X obj 79 124 t a a;
#X obj 107 546 send;
#X msg 106 289 symbol \$2\$3\$3\$1;
#X obj 106 266 list append \$1 \$2;
#X obj 184 53 symbol \$2;
#X obj 184 30 sel 1;
#X obj 106 146 demux;
#X obj 160 176 route;
#X obj 184 75 sel y;
#X obj 160 199 f;
#X obj 160 245 list append \$1 \$4;
#X obj 327 248 route;
#X obj 58 178 list trim;
#X obj 107 523 spigot;
#X obj 354 321 array get \$1-\$3arry 0 1;
#X obj 354 273 - 1;
#X obj 52 55 receive \$1-outlet\$2;
#X obj 184 8 receive \$1-xym;
#X obj 354 221 receive \$1-\$2size-2;
#X obj 200 176 receive \$1-xsize-2;
#X obj 192 149 receive \$1-ysize-2;
#X msg 327 656 symbol \$2-c\$1;
#X obj 415 344 receive \$1-glocal;
#X obj 153 436 receive \$1-stop*0.1;
#X obj 185 457 receive \$1-stop*1;
#X obj 327 342 t f f;
#X obj 327 365 int;
#X obj 359 410 -;
#X obj 327 388 t f f;
#X obj 327 434 spigot;
#X obj 356 501 makefilename c%i;
#X obj 185 478 f 1;
#X obj 140 500 spigot 1;
#X obj 184 97 f 1;
#X obj 352 526 receive \$1-parent;
#X obj 327 548 pack;
#X obj 385 578 pack f s;
#X obj 438 556 receive \$1-ovzero;
#X obj 327 479 demux 0 1 2 3;
#X obj 415 412 route float;
#X obj 489 459 f 3;
#X obj 489 435 t b b a;
#X obj 508 511 send;
#X obj 508 481 f \$0;
#X obj 528 459 makefilename %s-patchget;
#X obj 468 602 receive \$0-patchgot;
#X obj 415 624 pack f s;
#X obj 327 297 array get \$1-floate;
#X obj 454 366 receive patchgot&Y*U;
#X obj 415 366 t b a;
#X obj 415 388 list 0;
#X connect 0 0 5 0;
#X connect 1 1 17 0;
#X connect 3 0 1 0;
#X connect 3 1 0 0;
#X connect 4 0 18 0;
#X connect 4 1 2 0;
#X connect 5 0 16 0;
#X connect 5 1 11 0;
#X connect 7 0 2 1;
#X connect 8 0 7 0;
#X connect 9 0 13 0;
#X connect 10 0 9 0;
#X connect 10 1 11 1;
#X connect 11 0 8 0;
#X connect 11 1 12 0;
#X connect 12 0 14 0;
#X connect 12 1 8 0;
#X connect 13 0 38 0;
#X connect 14 0 15 0;
#X connect 15 0 7 0;
#X connect 16 0 52 0;
#X connect 16 1 20 0;
#X connect 17 0 4 0;
#X connect 18 0 6 0;
#X connect 19 0 30 0;
#X connect 20 0 19 0;
#X connect 21 0 3 0;
#X connect 22 0 10 0;
#X connect 23 0 16 1;
#X connect 24 0 14 1;
#X connect 25 0 12 1;
#X connect 26 0 6 1;
#X connect 27 0 54 0;
#X connect 28 0 37 1;
#X connect 28 0 18 1;
#X connect 29 0 36 0;
#X connect 30 0 31 0;
#X connect 30 1 32 1;
#X connect 31 0 33 0;
#X connect 32 0 34 1;
#X connect 32 0 37 0;
#X connect 33 0 34 0;
#X connect 33 1 32 0;
#X connect 34 0 43 0;
#X connect 35 0 6 1;
#X connect 36 0 37 1;
#X connect 37 0 18 1;
#X connect 38 0 11 1;
#X connect 39 0 40 1;
#X connect 40 0 26 0;
#X connect 41 0 26 0;
#X connect 42 0 41 1;
#X connect 43 0 40 0;
#X connect 43 1 35 0;
#X connect 43 2 41 0;
#X connect 43 3 51 0;
#X connect 44 0 43 1;
#X connect 44 1 46 0;
#X connect 45 0 43 1;
#X connect 46 0 45 0;
#X connect 46 1 48 0;
#X connect 46 2 49 0;
#X connect 48 0 47 0;
#X connect 49 0 47 1;
#X connect 50 0 51 1;
#X connect 51 0 26 0;
#X connect 52 0 30 0;
#X connect 53 0 55 0;
#X connect 54 0 55 0;
#X connect 54 1 55 1;
#X connect 55 0 44 0;
