#N canvas 553 87 746 681 10;
#X obj 79 99 list split 1;
#X obj 24 146 list split 1;
#X obj 85 314 send;
#X obj 52 77 t a a;
#X obj 58 212 t a a;
#X obj 79 124 t a a;
#X obj 107 546 send;
#X msg 106 289 symbol \$2\$3\$3\$1;
#X obj 106 266 list append \$1 \$2;
#X obj 184 53 symbol \$2;
#X obj 184 30 sel 1;
#X obj 106 146 demux;
#X obj 160 176 route;
#X obj 184 75 sel y;
#X obj 160 199 f;
#X obj 160 245 list append \$1 \$4;
#X obj 327 248 route;
#X obj 58 178 list trim;
#X obj 107 523 spigot;
#X obj 354 321 array get \$1-\$3arry 0 1;
#X obj 354 273 - 1;
#X obj 52 55 receive \$1-outlet\$2;
#X obj 184 8 receive \$1-xym;
#X obj 354 221 receive \$1-\$2size-2;
#X obj 200 176 receive \$1-xsize-2;
#X obj 192 149 receive \$1-ysize-2;
#X obj 153 436 receive \$1-stop*0.1;
#X obj 185 457 receive \$1-stop*1;
#X obj 327 342 t f f;
#X obj 327 365 int;
#X obj 359 410 -;
#X obj 327 388 t f f;
#X obj 327 434 spigot;
#X obj 185 478 f 1;
#X obj 140 500 spigot 1;
#X obj 184 97 f 1;
#X obj 327 297 array get \$1-floate;
#X obj 327 475 makefilename \$0n;
#X obj 381 429 receive \$1-Jsend;
#X connect 0 0 5 0;
#X connect 1 1 17 0;
#X connect 3 0 1 0;
#X connect 3 1 0 0;
#X connect 4 0 18 0;
#X connect 4 1 2 0;
#X connect 5 0 16 0;
#X connect 5 1 11 0;
#X connect 7 0 2 1;
#X connect 8 0 7 0;
#X connect 9 0 13 0;
#X connect 10 0 9 0;
#X connect 10 1 11 1;
#X connect 11 0 8 0;
#X connect 11 1 12 0;
#X connect 12 0 14 0;
#X connect 12 1 8 0;
#X connect 13 0 35 0;
#X connect 14 0 15 0;
#X connect 15 0 7 0;
#X connect 16 0 36 0;
#X connect 16 1 20 0;
#X connect 17 0 4 0;
#X connect 18 0 6 0;
#X connect 19 0 28 0;
#X connect 20 0 19 0;
#X connect 21 0 3 0;
#X connect 22 0 10 0;
#X connect 23 0 16 1;
#X connect 24 0 14 1;
#X connect 25 0 12 1;
#X connect 26 0 34 1;
#X connect 26 0 18 1;
#X connect 27 0 33 0;
#X connect 28 0 29 0;
#X connect 28 1 30 1;
#X connect 29 0 31 0;
#X connect 30 0 32 1;
#X connect 30 0 34 0;
#X connect 31 0 32 0;
#X connect 31 1 30 0;
#X connect 32 0 37 0;
#X connect 33 0 34 1;
#X connect 34 0 18 1;
#X connect 35 0 11 1;
#X connect 36 0 28 0;
#X connect 37 0 6 1;
#X connect 38 0 37 0;
