#N canvas 207 87 933 681 10;
#X obj 171 -20 inlet;
#X obj 321 619 send;
#X obj 348 515 sel dum;
#X obj 348 590 symbol;
#X obj 474 349 list length;
#X obj 435 424 s \$1-\$2lk-l;
#X obj 216 47 route 0;
#X obj 387 493 makefilename \$1-y%dr;
#X obj 381 564 makefilename \$1-x%dr;
#X obj 348 448 makefilename \$1-\$2%dr;
#X obj 387 470 receive \$1-ysize-2;
#X obj 381 538 receive \$1-xsize-2;
#X obj 321 319 cyclone/iter;
#X obj 321 296 t a a;
#X obj 295 256 t a b b;
#X obj 238 230 t b b;
#X obj 474 245 v \$1-\$2cor;
#X obj 474 267 +;
#X obj 321 403 demux 0 1 2;
#X obj 418 193 t a b;
#X obj 316 173 t a b;
#X obj 337 228 t a b;
#X obj 474 223 t b f f;
#X obj 352 426 t b;
#X obj 321 425 t b;
#X obj 321 447 t f;
#X obj 343 197 t f;
#X text 541 489 deal with last toggle;
#X obj 600 197 route bang;
#X obj 657 220 * -1;
#X obj 532 197 route bang;
#X obj 634 459 list-abs/list-map;
#X obj 753 509 +;
#X obj 753 531 - 1;
#X obj 600 282 symbol \$1-shiftf\$2;
#X obj 600 327 receive \$1-shiftf\$2;
#X obj 600 304 s \$1-\$2-fetch;
#X text 733 267 shift;
#X obj 753 575 + 1;
#X obj 600 391 list split 1;
#X obj 798 394 receive \$1-\$2cor;
#X obj 753 553 mod \$4;
#X obj 600 370 t a b;
#X obj 600 348 sp01;
#X obj 600 259 t b f b f;
#X obj 722 328 sp01;
#X obj 495 172 t a b;
#X obj 532 172 t a b;
#X obj 600 172 t a b;
#X obj 637 172 t a b;
#X obj 722 350 s \$1-\$2-ijdub;
#X obj 495 113 receive \$1-\$2-ijbud;
#X obj 238 197 route bang;
#X obj 430 620 s \$1-alltogsymp;
#X obj 634 414 list trim;
#X obj 634 436 route =;
#X obj 462 378 receive \$1-\$2size-21;
#X obj 435 401 min 4;
#X obj 426 318 receive \$1-\$2size-2;
#X obj 321 347 moses \$5;
#X obj 426 340 + 1;
#X obj 204 347 receive \$1-\$2sneak;
#X obj 445 217 f 1;
#X obj 364 253 f 2;
#X obj 474 200 f 1;
#X obj 532 219 f 1;
#X obj 600 219 f -1;
#X obj 204 369 t f f;
#X obj 495 135 unpack;
#X obj 171 2 route -l;
#X obj 32 231 list split 1;
#X obj 59 131 list split 1;
#X obj 59 156 route float;
#X obj 149 199 f 1;
#X obj 59 178 t f b;
#X obj 86 201 f 1;
#X obj 122 199 t f;
#X obj 66 255 list trim;
#X obj 122 177 t b b;
#X obj 32 107 t a a;
#X obj 216 24 t a b;
#X obj 753 486 moses \$6;
#X obj 798 460 + 1;
#X obj 798 437 -;
#X obj 798 416 f \$4;
#X obj 36 515 cyclone/uzi \$4;
#X obj 83 630 send;
#X obj 144 561 makefilename \$1-togsoff\$2%d;
#X obj 635 584 s \$1-togsoff\$2;
#X obj 616 529 t a b b;
#X obj 474 290 -;
#X obj 149 239 t f b f f;
#X obj 275 101 t b f;
#X obj 275 145 send;
#X obj 302 123 makefilename \$1-\$2-%dwiggle;
#X obj 430 598 cyclone/onebang;
#X obj 321 381 t b f f;
#X obj 117 538 t f f;
#X obj 735 111 demux;
#X obj 762 88 receive \$1-ses\$2;
#X obj 762 133 t f;
#X obj 635 555 t f;
#X obj 255 69 route def = - + > >> < << clear f all inverse;
#X obj 36 568 mux 0 1 2;
#X obj 162 474 f 2;
#X obj 135 452 t b b;
#X obj 36 477 t b f;
#X obj 98 368 f 1;
#X obj 36 538 t f b;
#X obj 71 342 t b b;
#X connect 0 0 69 0;
#X connect 2 0 3 0;
#X connect 2 0 95 1;
#X connect 2 1 1 1;
#X connect 3 0 1 1;
#X connect 4 0 57 0;
#X connect 6 0 15 0;
#X connect 6 1 102 0;
#X connect 7 0 2 1;
#X connect 8 0 3 1;
#X connect 9 0 2 0;
#X connect 10 0 7 0;
#X connect 11 0 8 0;
#X connect 12 0 59 0;
#X connect 13 0 12 0;
#X connect 13 1 4 0;
#X connect 14 0 13 0;
#X connect 14 1 106 0;
#X connect 14 2 64 0;
#X connect 15 0 106 0;
#X connect 15 1 22 0;
#X connect 16 0 17 0;
#X connect 17 0 90 0;
#X connect 18 0 24 0;
#X connect 18 1 23 0;
#X connect 18 2 1 0;
#X connect 19 0 13 0;
#X connect 19 1 62 0;
#X connect 20 0 13 0;
#X connect 20 1 26 0;
#X connect 21 0 13 0;
#X connect 21 1 63 0;
#X connect 22 0 16 0;
#X connect 22 1 17 1;
#X connect 22 2 18 1;
#X connect 23 0 1 0;
#X connect 24 0 25 0;
#X connect 25 0 1 0;
#X connect 26 0 18 1;
#X connect 28 0 66 0;
#X connect 28 1 29 0;
#X connect 29 0 44 0;
#X connect 30 0 65 0;
#X connect 30 1 44 0;
#X connect 31 0 89 0;
#X connect 31 1 81 0;
#X connect 32 0 33 0;
#X connect 33 0 41 0;
#X connect 34 0 36 0;
#X connect 35 0 43 0;
#X connect 38 0 31 1;
#X connect 39 1 54 0;
#X connect 40 0 84 0;
#X connect 41 0 38 0;
#X connect 42 0 39 0;
#X connect 42 1 43 1;
#X connect 43 0 42 0;
#X connect 44 0 34 0;
#X connect 44 1 32 1;
#X connect 44 2 43 2;
#X connect 44 3 45 0;
#X connect 45 0 50 0;
#X connect 46 0 30 0;
#X connect 46 1 45 1;
#X connect 47 0 30 0;
#X connect 47 1 45 2;
#X connect 48 0 28 0;
#X connect 48 1 45 1;
#X connect 49 0 28 0;
#X connect 49 1 45 2;
#X connect 51 0 68 0;
#X connect 52 0 15 0;
#X connect 52 1 14 0;
#X connect 54 0 55 0;
#X connect 55 0 31 0;
#X connect 55 1 31 0;
#X connect 56 0 57 1;
#X connect 57 0 5 0;
#X connect 58 0 60 0;
#X connect 59 0 96 0;
#X connect 60 0 59 1;
#X connect 61 0 67 0;
#X connect 62 0 18 1;
#X connect 63 0 18 1;
#X connect 64 0 22 0;
#X connect 65 0 44 0;
#X connect 66 0 44 0;
#X connect 67 0 1 0;
#X connect 67 1 9 0;
#X connect 68 0 46 0;
#X connect 68 1 91 0;
#X connect 69 0 79 0;
#X connect 69 1 80 0;
#X connect 70 1 77 0;
#X connect 71 0 72 0;
#X connect 72 0 74 0;
#X connect 72 1 78 0;
#X connect 73 0 91 0;
#X connect 74 0 91 0;
#X connect 74 1 75 0;
#X connect 75 0 70 1;
#X connect 76 0 70 1;
#X connect 77 0 6 0;
#X connect 78 0 76 0;
#X connect 78 1 73 0;
#X connect 79 0 70 0;
#X connect 79 1 71 0;
#X connect 80 0 6 0;
#X connect 80 1 91 0;
#X connect 81 0 32 0;
#X connect 81 1 31 1;
#X connect 82 0 81 1;
#X connect 83 0 82 0;
#X connect 83 0 41 1;
#X connect 83 0 85 1;
#X connect 84 0 83 0;
#X connect 85 0 108 0;
#X connect 85 2 97 0;
#X connect 87 0 86 1;
#X connect 89 0 13 0;
#X connect 89 1 101 0;
#X connect 89 2 64 0;
#X connect 90 0 57 0;
#X connect 91 1 84 0;
#X connect 91 2 83 1;
#X connect 91 3 90 1;
#X connect 92 0 93 0;
#X connect 92 1 94 0;
#X connect 94 0 93 1;
#X connect 95 0 53 0;
#X connect 96 0 95 0;
#X connect 96 1 18 0;
#X connect 96 2 9 0;
#X connect 97 0 103 2;
#X connect 97 1 87 0;
#X connect 98 0 19 0;
#X connect 98 1 100 0;
#X connect 99 0 98 1;
#X connect 100 0 19 0;
#X connect 101 0 88 0;
#X connect 102 0 52 0;
#X connect 102 1 52 0;
#X connect 102 2 20 0;
#X connect 102 3 21 0;
#X connect 102 4 46 0;
#X connect 102 5 47 0;
#X connect 102 6 48 0;
#X connect 102 7 49 0;
#X connect 102 8 15 0;
#X connect 102 9 92 0;
#X connect 102 10 105 0;
#X connect 102 11 109 0;
#X connect 102 12 98 0;
#X connect 103 0 86 0;
#X connect 104 0 103 3;
#X connect 105 0 85 0;
#X connect 105 1 104 0;
#X connect 106 0 85 0;
#X connect 106 1 103 3;
#X connect 107 0 103 3;
#X connect 108 0 103 0;
#X connect 108 1 103 1;
#X connect 109 0 85 0;
#X connect 109 1 107 0;
