#N canvas 67 198 450 455 10;
#X obj 112 194 moses 0;
#X obj 199 194 moses 0;
#X msg 112 239 1;
#X msg 199 239 1;
#X msg 230 239 0;
#X msg 144 239 0;
#X obj 112 144 -;
#X obj 199 145 -;
#X msg 190 388 vis 0;
#X obj 190 365 del 1;
#X obj 112 100 receive \$1-openup;
#X obj 293 145 receive \$1-pixsize;
#X obj 112 216 moses \$2;
#X obj 199 216 moses \$3;
#X obj 104 411 s \$1-opened;
#X obj 190 411 iemguts/sendcanvas \$4;
#X obj 108 368 outlet;
#X obj 220 78 receive \$1-\$5pos;
#X obj 139 2 inlet;
#X obj 139 24 t b l b;
#X obj 147 311 demux;
#X msg 178 46 1;
#X obj 233 388 outlet;
#X obj 142 69 t f f f;
#X obj 112 169 switch-\$6 \$1 x;
#X obj 199 169 switch-\$6 \$1 y;
#X obj 147 340 t b b b;
#X obj 112 122 unpack;
#X obj 220 100 unpack;
#X obj 293 167 unpack;
#X obj 147 263 &&;
#X obj 147 285 sel 1;
#X connect 0 0 5 0;
#X connect 0 1 12 0;
#X connect 1 0 4 0;
#X connect 1 1 13 0;
#X connect 2 0 30 0;
#X connect 3 0 30 1;
#X connect 4 0 30 1;
#X connect 5 0 30 0;
#X connect 6 0 24 0;
#X connect 7 0 25 0;
#X connect 8 0 15 0;
#X connect 9 0 8 0;
#X connect 10 0 27 0;
#X connect 11 0 29 0;
#X connect 12 0 2 0;
#X connect 12 1 5 0;
#X connect 13 0 3 0;
#X connect 13 1 4 0;
#X connect 17 0 28 0;
#X connect 18 0 19 0;
#X connect 19 0 23 0;
#X connect 19 1 27 0;
#X connect 19 2 21 0;
#X connect 20 0 26 0;
#X connect 20 1 22 0;
#X connect 21 0 23 0;
#X connect 23 0 20 1;
#X connect 23 1 24 1;
#X connect 23 2 25 1;
#X connect 24 0 0 0;
#X connect 25 0 1 0;
#X connect 26 0 16 0;
#X connect 26 1 9 0;
#X connect 26 2 14 0;
#X connect 27 0 6 0;
#X connect 27 1 7 0;
#X connect 28 0 6 1;
#X connect 28 1 7 1;
#X connect 29 0 12 1;
#X connect 29 1 13 1;
#X connect 30 0 31 0;
#X connect 31 0 20 0;
