#N canvas 234 422 895 338 10;
#X obj 85 65 receive paraquery";
#X obj 85 87 unpack;
#X obj 85 131 - 3;
#X obj 85 153 * 4;
#X obj 85 109 moses 12;
#X obj 278 170 spigot 1;
#X obj 278 192 t b f;
#X obj 250 145 t f b;
#X msg 278 214 read params.txt;
#X obj 85 175 array get params£ 0 4;
#X msg 138 230 133 5 \$1 101;
#X obj 138 205 - 5;
#X obj 85 286 send;
#X obj 250 264 makefilename %d-paramy;
#X obj 555 41 receive ^&*allcurs;
#X obj 555 63 change;
#X obj 555 115 sel 1 2 3;
#X obj 555 85 pipe 50;
#X obj 475 64 r onn;
#X obj 475 86 metro 1000;
#X obj 475 108 f;
#X obj 475 130 + 1;
#X obj 475 152 mod 4;
#X obj 905 135 sel 1 2 3;
#X obj 900 280 t;
#X msg 905 163 set ::cursor_runmode_nothing "left_side";
#X msg 922 190 set ::cursor_runmode_nothing "top_side";
#X msg 956 216 set ::cursor_runmode_nothing "arrow";
#X msg 787 74 runmode_nothing left_side \, \$1 configure -c $cursor_runmode_nothing
;
#X obj 922 249 hcs/sys_gui;
#X obj 697 100 bng 15 250 50 0 empty empty empty 17 7 0 10 -262144
-1 -1;
#X obj 697 120 del 1000;
#X msg 588 176 set ::cursor_runmode_nothing "left_side" \, \$1 configure
-cursor $cursor_runmode_nothing;
#X obj 266 88 array get params£ 0 1;
#X obj 266 20 receive fadequer^^;
#X obj 266 42 unpack;
#X obj 299 64 t f b;
#X obj 299 110 makefilename %d-fadeq;
#X obj 278 236 array define params£ 42;
#X obj 557 225 symbol hcs/sys_gui;
#X obj 555 141 symbol hcs/canvas_name;
#X connect 0 0 1 0;
#X connect 1 0 4 0;
#X connect 1 1 7 0;
#X connect 2 0 3 0;
#X connect 3 0 9 0;
#X connect 4 0 2 0;
#X connect 4 1 11 0;
#X connect 5 0 6 0;
#X connect 6 0 8 0;
#X connect 6 1 5 1;
#X connect 7 0 13 0;
#X connect 7 1 5 0;
#X connect 8 0 38 0;
#X connect 9 0 12 0;
#X connect 10 0 12 0;
#X connect 11 0 10 0;
#X connect 13 0 12 1;
#X connect 14 0 15 0;
#X connect 15 0 17 0;
#X connect 16 0 40 0;
#X connect 16 2 40 0;
#X connect 17 0 16 0;
#X connect 18 0 19 0;
#X connect 19 0 20 0;
#X connect 20 0 21 0;
#X connect 21 0 22 0;
#X connect 22 0 20 1;
#X connect 22 0 16 0;
#X connect 23 0 25 0;
#X connect 23 1 26 0;
#X connect 23 2 25 0;
#X connect 23 3 27 0;
#X connect 25 0 24 0;
#X connect 25 0 29 0;
#X connect 26 0 24 0;
#X connect 26 0 29 0;
#X connect 27 0 24 0;
#X connect 27 0 29 0;
#X connect 30 0 31 0;
#X connect 31 0 40 0;
#X connect 33 0 12 0;
#X connect 34 0 35 0;
#X connect 35 0 33 0;
#X connect 35 1 36 0;
#X connect 36 0 37 0;
#X connect 36 1 5 0;
#X connect 37 0 12 1;
#X connect 40 0 32 0;
