#N canvas 67 89 898 679 10;
#X obj 100 100 bng 17 250 50 0 empty empty empty -2 8 0 8 -262144 -1
-1;
#X obj 114 188 s \$3-press;
#X obj 132 109 f 1;
#X obj 296 4 receive \$3-clear;
#X obj 449 5 receive \$3-\$1-\$2-s;
#X obj 114 138 f;
#X obj 132 83 receive \$3-\$1-\$2-on;
#X obj 142 60 t f;
#X obj 142 34 receive \$3-\$1-\$2-off;
#X msg 248 176 color 0;
#X obj 14 -36 f \$4;
#X obj 296 28 t b f f;
#X obj 283 124 t b f f;
#X obj 530 200 sel;
#X obj 530 354 f;
#X obj 548 276 pack f \$0 \$3;
#X obj 548 333 receive \$0-gotcolor;
#X msg 548 298 \; \$3-getcolor \$1 \$2;
#X text 598 258 get color number if new;
#X obj 530 100 moses;
#X obj 14 -58 receive \$3-lb;
#X obj 232 229 receive \$3-\$1-\$2-dollarz;
#X obj 232 251 makefilename %d-imon;
#X obj 232 273 iemguts/oreceive \$0n;
#X obj 296 488 spigot;
#X obj 282 294 receive \$3-gridon;
#X obj 232 369 t b f;
#X obj 264 391 sel 0;
#X obj 282 317 sel 0;
#X obj 296 413 t b;
#X obj 454 434 receive \$3-\$1-\$2-conon;
#X obj 362 407 receive \$3-\$1-\$2-conoff;
#X text 13 399 pulse when context is on (mode 0);
#X text -67 461 flash when toggle is fired (mode 1);
#X obj 454 456 f 2;
#X obj 557 127 mod 30;
#X obj 283 99 receive \$3-\$2-vclear;
#X obj 419 508 spigot;
#X obj 452 486 receive \$3-turnmeons;
#X obj 314 361 t b b;
#X obj 346 384 f 1;
#X obj 282 339 t b f;
#X obj 56 301 makefilename %d-:c;
#X obj 56 323 iemguts/oreceive \$0n;
#X obj 56 345 pack f \$1 \$2 \$3;
#X obj 14 56 t b f;
#X obj 114 164 pack f \$1 \$2 127;
#X obj 557 150 * 6;
#X obj 584 198 + 5;
#X obj 584 224 tabread colours£;
#X obj 476 58 t f;
#X msg 422 241 color \$1;
#X obj 422 216 tabread colours£;
#X obj 557 173 t f f;
#X obj 449 87 t f f;
#X obj 548 254 t f f f;
#X obj 490 308 f;
#X obj 530 223 t b b;
#X obj 554 74 spigot;
#X msg 56 367 \; \$4-resetcol \$1 \$3 \$2;
#X obj 14 -13 text get control-layout^^& \$2 1;
#X obj 14 34 iemguts/oreceive \$0n;
#X obj 14 11 makefilename \$3-%d-inn;
#X obj 419 456 f;
#X text 513 535 col (v) \, channel \, x \, y;
#X msg 419 569 \; \$3-\$4-buff^&* \$4 \$3 \$1 \$2;
#X obj 449 30 sel 0 0.5 -0.5;
#X obj 503 58 f 71;
#X obj 419 535 pack f 1 \$2 \$1;
#X obj 296 456 f 1;
#X obj 264 413 f 1;
#X obj 282 361 f 1;
#X obj 296 435 f 3;
#X connect 0 0 5 0;
#X connect 2 0 5 1;
#X connect 3 0 11 0;
#X connect 4 0 66 0;
#X connect 5 0 46 0;
#X connect 6 0 2 0;
#X connect 7 0 5 1;
#X connect 8 0 7 0;
#X connect 9 0 0 0;
#X connect 10 0 60 0;
#X connect 11 0 9 0;
#X connect 11 1 5 1;
#X connect 11 2 63 0;
#X connect 12 0 9 0;
#X connect 12 1 5 1;
#X connect 12 2 63 0;
#X connect 13 0 57 0;
#X connect 13 1 55 0;
#X connect 14 0 63 0;
#X connect 15 0 17 0;
#X connect 16 0 14 0;
#X connect 19 0 13 0;
#X connect 19 1 35 0;
#X connect 20 0 10 0;
#X connect 21 0 22 0;
#X connect 21 0 42 0;
#X connect 22 0 23 0;
#X connect 23 0 26 0;
#X connect 24 0 68 1;
#X connect 25 0 28 0;
#X connect 25 0 58 1;
#X connect 26 0 63 0;
#X connect 26 1 27 0;
#X connect 27 0 70 0;
#X connect 27 1 29 0;
#X connect 28 0 41 0;
#X connect 28 1 39 0;
#X connect 29 0 72 0;
#X connect 30 0 34 0;
#X connect 31 0 63 0;
#X connect 34 0 37 0;
#X connect 35 0 47 0;
#X connect 36 0 12 0;
#X connect 37 0 68 0;
#X connect 38 0 37 1;
#X connect 39 0 69 0;
#X connect 39 1 40 0;
#X connect 40 0 24 1;
#X connect 41 0 71 0;
#X connect 41 1 24 1;
#X connect 42 0 43 0;
#X connect 43 0 44 0;
#X connect 43 0 58 0;
#X connect 44 0 59 0;
#X connect 45 0 0 0;
#X connect 45 1 46 3;
#X connect 46 0 1 0;
#X connect 47 0 53 0;
#X connect 48 0 49 0;
#X connect 49 0 63 0;
#X connect 50 0 19 0;
#X connect 51 0 0 0;
#X connect 52 0 51 0;
#X connect 53 0 52 0;
#X connect 53 1 48 0;
#X connect 54 0 51 0;
#X connect 54 1 63 0;
#X connect 55 0 15 0;
#X connect 55 1 13 1;
#X connect 55 2 56 0;
#X connect 56 0 51 0;
#X connect 57 0 56 0;
#X connect 57 1 14 0;
#X connect 58 0 19 0;
#X connect 60 0 62 0;
#X connect 61 0 45 0;
#X connect 62 0 61 0;
#X connect 63 0 37 0;
#X connect 66 0 54 0;
#X connect 66 1 50 0;
#X connect 66 2 67 0;
#X connect 66 3 19 0;
#X connect 67 0 54 0;
#X connect 68 0 65 0;
#X connect 69 0 24 0;
#X connect 70 0 69 0;
#X connect 71 0 68 1;
#X connect 72 0 69 0;
#X coords 0 -1 1 1 17 17 2 100 100;
