#N canvas 446 143 863 539 10;
#X obj 46 149 inlet;
#X obj 46 239 s \$1-soth;
#X obj 46 217 pack \$2 \$3;
#X obj 46 171 t b b;
#X obj 73 193 s \$1-\$2fps;
#X obj 429 132 receive \$1-\$2-\$3robo;
#X obj 468 203 - 1;
#X obj 468 439 s \$1-obod;
#X obj 495 346 \$4 \$1;
#X obj 468 225 t f f;
#X obj 468 179 t f f;
#X obj 495 249 text get \$1-calc;
#X obj 495 368 s \$1-obor;
#X obj 468 412 spigot;
#X obj 495 324 t a b;
#X obj 558 336 t f;
#X obj 522 390 f 1;
#X obj 495 203 s \$1-obop;
#X text 143 194 2.1.1 notify [ctxfiles/pf] for match;
#X text 119 224 2.1.2 forward code characters (order \, ID);
#X text 560 204 8.1 inform where the processed character should go
;
#X text 604 254 8.2 retrieve argument;
#X text 310 50 pf1: process with one argument;
#X text 621 323 8.3 cross-check type;
#X text 560 368 8.4 fetch value for special character and send;
#X text 517 411 8.5 inform which character to delete (if data type
correct);
#X obj 429 154 route 0;
#X obj 429 250 t b b f;
#X obj 495 272 route \$6 \$7;
#X obj 558 294 t b b;
#X connect 0 0 3 0;
#X connect 2 0 1 0;
#X connect 3 0 2 0;
#X connect 3 1 4 0;
#X connect 5 0 26 0;
#X connect 6 0 9 0;
#X connect 8 0 12 0;
#X connect 9 0 13 0;
#X connect 9 1 11 0;
#X connect 10 0 6 0;
#X connect 10 1 17 0;
#X connect 11 0 28 0;
#X connect 13 0 7 0;
#X connect 14 0 8 0;
#X connect 14 1 16 0;
#X connect 15 0 13 1;
#X connect 16 0 13 1;
#X connect 26 0 27 0;
#X connect 26 1 10 0;
#X connect 27 0 8 0;
#X connect 27 1 15 0;
#X connect 27 2 17 0;
#X connect 28 0 14 0;
#X connect 28 1 14 0;
#X connect 28 2 29 0;
#X connect 29 0 8 0;
#X connect 29 1 15 0;
