#N canvas 434 229 817 539 10;
#X obj 27 158 inlet;
#X obj 27 248 s \$1-soth;
#X obj 27 226 pack \$2 \$3;
#X obj 27 180 t b b;
#X obj 54 202 s \$1-\$2fps;
#X obj 424 14 receive \$1-\$2-\$3robo;
#X obj 467 164 route float;
#X obj 443 244 route float;
#X obj 467 139 text get \$1-calc;
#X obj 443 223 text get \$1-calc;
#X obj 443 64 + 1;
#X obj 467 64 - 1;
#X obj 557 309 t b;
#X obj 443 266 spigot;
#X obj 495 64 f 1;
#X obj 557 331 t f f;
#X obj 424 36 t f f f b;
#X obj 467 88 t f f;
#X obj 494 110 s \$1-obop;
#X obj 364 296 spigot;
#X obj 364 318 t f f;
#X obj 364 351 s \$1-obod;
#X obj 443 387 s \$1-obor;
#X obj 443 361 \$4;
#X text 124 203 2.1.1 notify [ctxfiles/pf] for match;
#X text 100 233 2.1.2 forward code characters (order \, ID);
#X text 528 64 8.1 reset spigot;
#X text 78 14 pf2: process with two arguments (before and after);
#X text 541 96 8.2 inform where the processed character should go;
#X text 574 139 8.3 retrieve previous argument;
#X text 549 226 8.5 retrieve next arggument;
#X text 475 360 8.7 fetch value for special character and send;
#X text 138 335 8.8 inform which characters to delete;
#X obj 530 191 switch-\$5;
#X obj 506 284 switch-\$5;
#X text 541 168 8.4 if not float (and \$5=y) \, abort;
#X text 502 265 8.6 if not float (and \$5=y) \, abort;
#X obj 443 331 zexy/pack;
#X connect 0 0 3 0;
#X connect 2 0 1 0;
#X connect 3 0 2 0;
#X connect 3 1 4 0;
#X connect 5 0 16 0;
#X connect 6 0 37 1;
#X connect 6 1 33 0;
#X connect 7 0 13 0;
#X connect 7 1 34 0;
#X connect 8 0 6 0;
#X connect 9 0 7 0;
#X connect 10 0 9 0;
#X connect 11 0 17 0;
#X connect 12 0 15 0;
#X connect 13 0 37 0;
#X connect 14 0 13 1;
#X connect 14 0 19 1;
#X connect 15 0 13 1;
#X connect 15 1 19 1;
#X connect 16 0 19 0;
#X connect 16 1 10 0;
#X connect 16 2 11 0;
#X connect 16 3 14 0;
#X connect 17 0 8 0;
#X connect 17 1 18 0;
#X connect 19 0 20 0;
#X connect 20 0 21 0;
#X connect 20 1 21 0;
#X connect 23 0 22 0;
#X connect 33 0 37 1;
#X connect 33 1 12 0;
#X connect 34 0 13 0;
#X connect 34 1 12 0;
#X connect 37 0 23 0;
