#N canvas 144 101 1065 687 10;
#X obj 208 66 inlet;
#X obj 208 156 s \$1-soth;
#X obj 208 134 pack \$2 \$3;
#X obj 208 88 t b b;
#X obj 235 110 s \$1-\$2fps;
#X obj 553 513 \$4 \$1;
#X obj 635 702 s \$1-obop;
#X obj 581 609 t f f;
#X obj 568 657 until;
#X obj 568 709 f;
#X obj 608 680 t f f;
#X obj 568 734 s \$1-obod;
#X text 297 128 2.1.1 notify [ctxfiles/pf] for match;
#X text 273 158 2.1.2 forward code characters (order \, ID);
#X obj 553 537 s \$1-obor2;
#X obj 553 23 receive \$1-\$2-\$3robo;
#X obj 553 443 collect;
#X obj 571 339 text get \$1-calc;
#X obj 572 250 list trim;
#X obj 572 272 until;
#X obj 572 228 list append \$7;
#X obj 572 316 t f f;
#X text 486 -76 1--2-3-4----5-6-7-8-----9-----10;
#X text 218 -75 pf3: process with variable arguments;
#X obj 610 272 - \$6;
#X obj 572 294 f;
#X text 709 109 8.1 get first argument;
#X text 636 162 8.2 check if it's the right type and abort if not;
#X text 669 234 8.3 start getting next arguments;
#X text 665 414 8.4 stop when special character or end of text is reached
;
#X text 765 360 8.5 allow for one exception ([);
#X text 705 702 8.7 inform position;
#X text 633 735 8.8 inform items to be deleted;
#X text 597 526 8.9 send collected list onwards to process;
#X obj 572 387 switch-\$10;
#X obj 572 70 t f f;
#X obj 568 634 + \$11;
#X obj 659 436 t a a;
#X obj 686 459 list length;
#X obj 686 481 == 1;
#X obj 643 460 spigot;
#X text 764 457 8.5 collect arguments but weed out coded items (ie.
list>1);
#X text 448 -60 " pf3 \$0 2 5 get? 1 2 1 float symbol x 0 float ";
#X text 448 -40 " pf3 \$0 2 5 get[ -1 1 bang float ] x 1 symbol ";
#X text 448 -20 " pf3 \$0 2 5 get> 1 2 2 symbol symbol t 0 symbol "
;
#X obj 572 361 list \$12;
#X obj 609 436 t b;
#X text 252 -5 (first arg \, second arg \, go for this many places
\, until \, first type \, end type \, allow extra symbol \, delete
pos correct \, second first type \, first arg type), f 117;
#X obj 553 45 t f b f;
#X obj 614 304 \$14 1;
#X obj 572 414 route bang \$9 .;
#X obj 604 460 t b b;
#X obj 631 483 f 1;
#X obj 553 206 t b b f b;
#X obj 606 483 t f;
#X obj 631 505 s \$1-\$4-.;
#X obj 608 649 switch-\$15;
#X obj 553 107 switch-\$13 \$1 \$5 \$8 \$16;
#X connect 0 0 3 0;
#X connect 2 0 1 0;
#X connect 3 0 2 0;
#X connect 3 1 4 0;
#X connect 5 0 14 0;
#X connect 5 1 7 0;
#X connect 7 0 36 0;
#X connect 7 1 56 0;
#X connect 8 0 9 0;
#X connect 9 0 11 0;
#X connect 10 0 9 1;
#X connect 10 1 6 0;
#X connect 15 0 48 0;
#X connect 16 0 5 0;
#X connect 17 0 45 0;
#X connect 18 0 19 0;
#X connect 19 0 25 0;
#X connect 20 0 18 0;
#X connect 21 0 17 0;
#X connect 21 1 49 0;
#X connect 24 0 25 1;
#X connect 25 0 21 0;
#X connect 34 0 50 0;
#X connect 34 1 37 0;
#X connect 35 0 34 1;
#X connect 35 1 57 1;
#X connect 36 0 8 0;
#X connect 37 0 40 0;
#X connect 37 1 38 0;
#X connect 38 0 39 0;
#X connect 39 0 40 1;
#X connect 40 0 16 1;
#X connect 45 0 34 0;
#X connect 46 0 19 1;
#X connect 48 0 57 0;
#X connect 48 1 35 0;
#X connect 48 2 56 1;
#X connect 49 0 25 1;
#X connect 50 0 19 1;
#X connect 50 1 46 0;
#X connect 50 2 51 0;
#X connect 50 3 37 0;
#X connect 51 0 19 1;
#X connect 51 1 52 0;
#X connect 52 0 55 0;
#X connect 53 0 16 0;
#X connect 53 1 20 0;
#X connect 53 2 24 0;
#X connect 53 3 54 0;
#X connect 54 0 55 0;
#X connect 56 0 10 0;
#X connect 57 0 53 0;
#X connect 57 1 16 1;
