#N canvas 383 339 450 299 10;
#X obj 106 73 max;
#X msg 106 139 resize \$1;
#X obj 106 117 change;
#X obj 106 51 receive pgr%-IDsharer;
#X obj 106 161 array define pgr%-IDshare 1;
#X obj 243 77 shared ctxfiles/pgshare;
#X obj 106 95 t f f f;
#X obj 236 190 v pgmax**i(;
#X connect 0 0 6 0;
#X connect 1 0 4 0;
#X connect 2 0 1 0;
#X connect 3 0 0 0;
#X connect 6 0 2 0;
#X connect 6 1 0 1;
#X connect 6 2 7 0;
