#N canvas 392 318 450 299 10;
#X obj 106 73 max;
#X obj 106 95 t f f;
#X msg 106 139 resize \$1;
#X obj 106 117 change;
#X obj 106 51 receive pgr%-IDsharer;
#X obj 106 161 array define pgr%-IDshare 1;
#X obj 243 77 shared ctxfiles/pgshare;
#X connect 0 0 1 0;
#X connect 1 0 3 0;
#X connect 1 1 0 1;
#X connect 2 0 5 0;
#X connect 3 0 2 0;
#X connect 4 0 0 0;
