#N canvas 404 87 657 681 10;
#X obj 105 384 cyclone/zl iter 2;
#X obj 105 488 unpack;
#X obj 105 542 * 128;
#X obj 144 431 f;
#X obj 163 476 + 1;
#X obj 159 407 t f;
#X obj 151 562 swap 1;
#X obj 151 584 -;
#X obj 259 599 element \$1-big\$2 \$1-array\$2;
#X obj 418 575 receive \$1-pointer\$2;
#X obj 62 60 route clear float bang;
#X obj 148 87 f 1;
#X obj 116 -48 pack;
#X obj 89 -102 t f b;
#X obj 116 -72 spigot 1;
#X obj 116 1 s \$1-pointer\$2;
#X obj 227 -48 receive \$1-ppoint;
#X obj 116 -22 append \$1-big\$2 x y;
#X text 170 -88 1: send pointer (only once);
#X obj 191 87 t l l b;
#X obj 210 112 list length;
#X obj 210 134 div 2;
#X obj 225 297 s \$1-nsize\$2;
#X obj 240 275 setsize \$1-big\$2 \$1-array\$2;
#X obj 426 252 receive \$1-pointer\$2;
#X text 209 57 2: parse command;
#X obj 105 125 t f f;
#X obj 132 154 +;
#X obj 255 210 !=;
#X obj 255 254 s \$1-zero\$2;
#X text 259 167 3: set size and watch for 0 size;
#X obj 105 250 until;
#X obj 105 272 f;
#X obj 105 294 +;
#X obj 105 198 expr $f1 \; 0 \; 1 / ($f1 + 1);
#X obj 105 319 pack f 0.5;
#X text -17 178 generate points on a line;
#X text 202 457 4: send coordinates to data;
#X obj 78 154 moses;
#X obj 210 319 spigot;
#X obj 257 319 receive \$1-savestart;
#X obj 440 341 moses;
#X obj 440 410 until;
#X obj 440 432 f;
#X obj 440 477 - 1;
#X obj 440 365 swap;
#X obj 440 387 -;
#X obj 440 455 t f f;
#X obj 440 522 pack f \$1 \$2 128 f;
#X obj 440 499 t f f;
#X obj 168 431 +;
#X obj 467 315 t f f f f;
#X obj 210 188 t b f f f f f;
#X obj 440 544 switch-f\$2;
#X obj 210 161 max;
#X obj 255 232 change -1;
#X obj 210 341 del 10;
#X obj 210 363 s \$1-rey;
#X obj 50 -124 t b a b;
#X obj 18 -72 s \$1-newpoint\$2;
#X obj 50 -146 receive \$1-:point\$2;
#X obj 171 498 receive \$1-:y;
#X obj 132 520 receive \$1-:x;
#X obj 518 498 receive \$1-:x;
#X obj 302 113 receive \$1-nrsize\$2;
#X obj 105 564 + 5;
#X obj 151 606 * 79;
#X obj 151 628 - 5;
#X obj 6 655 symbol  ;
#X obj 106 655 set ^&*-dsmall\$2 x y;
#X obj 6 681 set -symbol ^&*-dsmall\$2 onoff;
#X obj 105 407 t b l b;
#X obj 271 503 receive \$1-setme-\$2;
#X obj 144 454 t f f f b;
#X obj 195 475 t f;
#X obj 259 622 demux 0 1 2;
#X obj 271 526 unpack f f f;
#X obj 340 549 + 1;
#X obj 282 702 set ^&*-dsmall\$2 x;
#X obj 309 679 set ^&*-dsmall\$2 y;
#X obj 282 656 demux;
#X connect 0 0 71 0;
#X connect 1 0 2 0;
#X connect 1 1 6 0;
#X connect 2 0 65 0;
#X connect 3 0 73 0;
#X connect 4 0 3 1;
#X connect 5 0 3 1;
#X connect 6 0 7 0;
#X connect 6 1 7 1;
#X connect 7 0 66 0;
#X connect 8 0 75 0;
#X connect 9 0 8 1;
#X connect 10 0 54 0;
#X connect 10 1 26 0;
#X connect 10 2 11 0;
#X connect 10 3 19 0;
#X connect 11 0 26 0;
#X connect 12 0 17 0;
#X connect 13 0 14 1;
#X connect 13 1 14 0;
#X connect 14 0 12 0;
#X connect 16 0 17 2;
#X connect 17 0 15 0;
#X connect 19 0 0 0;
#X connect 19 1 20 0;
#X connect 19 2 5 0;
#X connect 20 0 21 0;
#X connect 21 0 54 0;
#X connect 24 0 23 1;
#X connect 26 0 38 0;
#X connect 26 1 27 0;
#X connect 27 0 54 0;
#X connect 28 0 55 0;
#X connect 31 0 32 0;
#X connect 32 0 33 0;
#X connect 33 0 35 0;
#X connect 33 0 32 1;
#X connect 34 0 31 0;
#X connect 34 1 32 1;
#X connect 34 2 33 1;
#X connect 35 0 0 0;
#X connect 38 0 50 0;
#X connect 38 1 34 0;
#X connect 39 0 56 0;
#X connect 40 0 39 1;
#X connect 41 0 45 0;
#X connect 42 0 43 0;
#X connect 43 0 47 0;
#X connect 44 0 49 0;
#X connect 45 0 46 0;
#X connect 45 1 46 1;
#X connect 46 0 42 0;
#X connect 47 0 44 0;
#X connect 47 1 48 4;
#X connect 48 0 53 0;
#X connect 49 0 48 0;
#X connect 49 1 43 1;
#X connect 50 0 73 0;
#X connect 51 0 41 1;
#X connect 51 1 45 1;
#X connect 51 2 43 1;
#X connect 51 3 41 0;
#X connect 52 0 39 0;
#X connect 52 1 22 0;
#X connect 52 2 23 0;
#X connect 52 3 28 0;
#X connect 52 4 51 0;
#X connect 52 5 27 1;
#X connect 54 0 52 0;
#X connect 55 0 29 0;
#X connect 56 0 57 0;
#X connect 58 0 59 0;
#X connect 58 1 10 0;
#X connect 58 2 13 0;
#X connect 60 0 58 0;
#X connect 61 0 66 1;
#X connect 62 0 2 1;
#X connect 63 0 48 3;
#X connect 64 0 52 0;
#X connect 65 0 69 0;
#X connect 66 0 67 0;
#X connect 67 0 69 1;
#X connect 68 0 70 0;
#X connect 71 0 68 0;
#X connect 71 1 1 0;
#X connect 71 2 3 0;
#X connect 72 0 76 0;
#X connect 73 0 8 0;
#X connect 73 1 4 0;
#X connect 73 2 50 1;
#X connect 73 3 74 0;
#X connect 74 0 75 1;
#X connect 75 0 69 2;
#X connect 75 0 70 1;
#X connect 75 1 78 1;
#X connect 75 2 79 1;
#X connect 76 0 80 0;
#X connect 76 1 8 0;
#X connect 76 2 77 0;
#X connect 76 2 80 1;
#X connect 77 0 75 1;
#X connect 80 0 78 0;
#X connect 80 1 79 0;
