#N canvas 623 210 743 480 10;
#X obj 100 100 bng 15 250 50 0 empty empty empty -2 8 0 8 -262144 -1
-1;
#X obj 114 188 s \$3-press;
#X obj 132 109 f 1;
#X obj 296 4 receive \$3-clear;
#X obj 60 7 receive \$3-\$1-\$2-s;
#X obj 114 164 pack f \$1 \$2;
#X obj 114 138 f;
#X obj 132 83 receive \$3-\$1-\$2-on;
#X obj 142 60 t f;
#X obj 142 34 receive \$3-\$1-\$2-off;
#X msg 248 176 color 0;
#X obj 283 100 receive \$3-col-\$2;
#X obj -4 34 receive \$3-\$4-\$2-inn;
#X obj 352 161 unpack s f;
#X obj 532 386 f \$4;
#X obj 532 408 * 10;
#X obj 532 430 + \$2;
#X obj 419 407 swap;
#X obj 419 433 noteout 1;
#X obj 419 190 sel 0;
#X obj 419 212 t f;
#X obj 296 28 t b f f;
#X obj 283 124 t b f f;
#X obj 451 237 sel;
#X obj 469 261 t f f;
#X obj 451 361 f;
#X obj 469 283 pack f \$0 \$3;
#X obj 469 340 receive \$0-gotcolor;
#X msg 469 305 \; \$3-getcolor \$1 \$2;
#X text 533 255 get color number if new;
#X obj 483 234 tabread launchpadcolors##;
#X obj 451 212 moses;
#X obj 532 364 receive \$3-lb;
#X connect 0 0 6 0;
#X connect 2 0 6 1;
#X connect 3 0 21 0;
#X connect 4 0 0 0;
#X connect 4 0 13 0;
#X connect 5 0 1 0;
#X connect 6 0 5 0;
#X connect 7 0 2 0;
#X connect 8 0 6 1;
#X connect 9 0 8 0;
#X connect 10 0 0 0;
#X connect 11 0 22 0;
#X connect 12 0 0 0;
#X connect 13 1 19 0;
#X connect 14 0 15 0;
#X connect 15 0 16 0;
#X connect 16 0 17 1;
#X connect 17 0 18 0;
#X connect 17 1 18 1;
#X connect 19 0 20 0;
#X connect 19 1 31 0;
#X connect 20 0 17 0;
#X connect 21 0 10 0;
#X connect 21 1 6 1;
#X connect 21 2 17 0;
#X connect 22 0 10 0;
#X connect 22 1 6 1;
#X connect 22 2 17 0;
#X connect 23 0 25 0;
#X connect 23 1 24 0;
#X connect 24 0 26 0;
#X connect 24 1 23 1;
#X connect 25 0 17 0;
#X connect 26 0 28 0;
#X connect 27 0 25 0;
#X connect 30 0 25 0;
#X connect 31 0 23 0;
#X connect 31 1 30 0;
#X connect 32 0 14 0;
#X coords 0 -1 1 1 15 15 2 100 100;
