#N canvas 65 85 450 300 10;
#X obj 168 100 t f;
#X msg 217 100 1;
#X obj 168 78 route bang -overlay float;
#X obj 168 55 inlet;
#X obj 315 107 s \$1-printthese;
#X obj 168 135 s \$1-printall;
#X obj 266 136 s \$1-:pr;
#X connect 0 0 5 0;
#X connect 1 0 5 0;
#X connect 2 0 0 0;
#X connect 2 1 1 0;
#X connect 2 2 6 0;
#X connect 2 3 4 0;
#X connect 3 0 2 0;
