#N canvas 772 82 535 661 10;
#X obj 80 245 f;
#X obj 105 277 random;
#X obj 91 370 +;
#X obj 118 506 mod;
#X obj 118 530 + 1;
#X obj 80 151 inlet main;
#X obj 118 555 outlet;
#X obj 118 480 - 1;
#X obj 271 12 inlet;
#X obj 118 457 +;
#X obj 155 201 t f b b;
#X obj 20 580 s \$1-bu-bump;
#X obj 20 554 del 199;
#N canvas 385 266 743 502 gauss 0;
#X obj 157 277 inlet;
#X obj 157 344 outlet;
#X obj 304 153 t f f;
#X msg 335 243 1;
#X obj 335 282 expr exp(-($f1-32)*($f1-32)/(2*$f2*$f2));
#X obj 304 208 == 32;
#X obj 157 322 - 32;
#X obj 545 101 inlet;
#X obj 320 317 tabwrite \$1-rand\$2rry;
#X obj 157 300 array random \$1-rand\$2rry;
#X obj 379 163 inlet;
#X obj 545 163 t b f;
#X obj 223 109 cyclone/uzi 64;
#X obj 304 130 - 1;
#X obj 572 218 exp;
#X obj 572 193 * 0.05;
#X obj 572 240 * 0.5;
#X obj 304 185 demux 0 1 2 4;
#X connect 0 0 9 0;
#X connect 2 0 17 0;
#X connect 2 1 8 1;
#X connect 3 0 8 0;
#X connect 4 0 8 0;
#X connect 5 0 8 0;
#X connect 6 0 1 0;
#X connect 7 0 11 0;
#X connect 9 0 6 0;
#X connect 10 0 17 1;
#X connect 11 0 12 0;
#X connect 11 1 15 0;
#X connect 12 2 13 0;
#X connect 13 0 2 0;
#X connect 14 0 16 0;
#X connect 15 0 14 0;
#X connect 16 0 4 1;
#X connect 17 0 5 0;
#X connect 17 1 3 0;
#X connect 17 2 3 0;
#X connect 17 3 4 0;
#X restore 194 226 pd gauss;
#X obj 271 114 route float;
#X obj 143 134 t f f;
#X obj 105 344 + 1;
#X obj 250 421 t b f;
#X obj 14 6 receive \$1-rand\$2;
#X obj 118 369 receive \$1-\$3wrap;
#X obj 250 376 receive \$1-prog\$2;
#X obj 144 249 receive \$1-burstl;
#X obj 11 129 receive \$1seed\$4;
#X text 23 444 add proression;
#X text 265 36 receive initial offset;
#X text 220 287 determine whether random addition clips or not (wrap)
;
#X text 27 373 add random;
#X text 142 506 wrap around burst size;
#X obj 91 392 demux;
#X obj 91 418 clip 1 \$4;
#X text 9 420 clip for wrap;
#X obj 116 83 sel 0 100 101;
#X text 226 77 determine whether random is off \, gaussian \, even
distribution or urn;
#X obj 116 108 cyclone/funnel 4;
#X obj 80 177 demux 0 1 2 3;
#X obj 115 312 urn;
#X obj 1 277 receive \$1-bum\$2;
#X obj -100 92 array define \$1-rand\$2rry 64;
#X msg -100 69 click 0 0 0 0 0;
#X obj 77 53 t b f f;
#X obj 14 28 route -open;
#X obj 271 136 sel 0;
#X obj 271 158 f 1;
#X connect 0 0 2 0;
#X connect 1 0 16 0;
#X connect 2 0 28 0;
#X connect 3 0 4 0;
#X connect 4 0 6 0;
#X connect 5 0 34 0;
#X connect 7 0 3 0;
#X connect 8 0 14 0;
#X connect 9 0 7 0;
#X connect 10 0 2 1;
#X connect 10 1 0 0;
#X connect 10 2 13 0;
#X connect 12 0 11 0;
#X connect 13 0 2 1;
#X connect 14 0 41 0;
#X connect 15 0 34 1;
#X connect 15 1 13 1;
#X connect 16 0 9 0;
#X connect 17 0 12 0;
#X connect 17 1 9 1;
#X connect 18 0 40 0;
#X connect 19 0 28 1;
#X connect 20 0 17 0;
#X connect 21 0 1 1;
#X connect 21 0 3 1;
#X connect 21 0 29 2;
#X connect 21 0 35 1;
#X connect 21 0 42 1;
#X connect 22 0 1 0;
#X connect 22 0 13 0;
#X connect 22 0 35 0;
#X connect 28 0 29 0;
#X connect 28 1 9 0;
#X connect 29 0 9 0;
#X connect 31 0 33 0;
#X connect 31 1 33 1;
#X connect 31 2 33 2;
#X connect 31 3 33 3;
#X connect 33 0 15 0;
#X connect 34 0 0 0;
#X connect 34 1 1 0;
#X connect 34 2 35 0;
#X connect 34 3 10 0;
#X connect 35 0 16 0;
#X connect 36 0 35 0;
#X connect 38 0 37 0;
#X connect 39 0 12 0;
#X connect 39 1 13 2;
#X connect 39 2 31 0;
#X connect 40 0 38 0;
#X connect 40 1 39 0;
#X connect 41 0 42 0;
#X connect 41 1 0 1;
#X connect 42 0 0 1;
