#N canvas 667 337 699 431 10;
#X obj 209 348 outlet;
#X obj 150 19 inlet done;
#X obj 346 348 outlet;
#X obj 346 303 f;
#X msg 380 71 1;
#X obj 221 145 demux;
#X obj 221 172 route float;
#X obj 284 202 print command not recognized;
#X obj 361 44 t f b b;
#X obj 221 19 receive \$1-othr;
#X obj 361 19 receive \$1-rnum;
#X obj 231 292 receive \$1-roff;
#X obj 150 124 spigot;
#X obj 150 146 t b f f;
#X obj 177 191 t b b b;
#X obj 86 93 receive \$1-roff2;
#X text 192 93 <-- disconnected from spigot and conncted to trigger.
Any problems?, f 67;
#X obj 209 321 collect2;
#X connect 1 0 12 0;
#X connect 3 0 2 0;
#X connect 4 0 5 1;
#X connect 4 0 12 1;
#X connect 5 0 6 0;
#X connect 5 1 17 2;
#X connect 6 1 7 0;
#X connect 8 0 3 1;
#X connect 8 1 4 0;
#X connect 8 2 12 0;
#X connect 9 0 5 0;
#X connect 10 0 8 0;
#X connect 11 0 17 1;
#X connect 12 0 13 0;
#X connect 13 0 14 0;
#X connect 13 1 5 1;
#X connect 13 2 12 1;
#X connect 14 0 17 1;
#X connect 14 1 17 0;
#X connect 14 2 3 0;
#X connect 15 0 13 0;
#X connect 17 0 0 0;
