#N canvas 620 337 699 431 10;
#X obj 209 348 outlet;
#X obj 150 19 inlet done;
#X obj 346 348 outlet;
#X obj 346 303 f;
#X obj 221 195 demux;
#X obj 221 222 route float;
#X obj 284 252 print command not recognized;
#X obj 361 44 t f b b;
#X obj 221 19 receive \$1-othr;
#X obj 361 19 receive \$1-rnum;
#X obj 231 292 receive \$1-roff;
#X obj 150 124 spigot;
#X obj 86 93 receive \$1-roff2;
#X obj 209 321 collect2;
#X obj 380 69 f 1;
#X obj 150 149 t f b b b f f;
#X connect 1 0 11 0;
#X connect 3 0 2 0;
#X connect 4 0 5 0;
#X connect 4 1 13 2;
#X connect 5 1 6 0;
#X connect 7 0 3 1;
#X connect 7 1 14 0;
#X connect 7 2 11 0;
#X connect 8 0 4 0;
#X connect 9 0 7 0;
#X connect 10 0 13 1;
#X connect 11 0 15 0;
#X connect 12 0 15 0;
#X connect 13 0 0 0;
#X connect 14 0 4 1;
#X connect 14 0 11 1;
#X connect 15 0 2 0;
#X connect 15 1 13 1;
#X connect 15 2 13 0;
#X connect 15 3 3 0;
#X connect 15 4 4 1;
#X connect 15 5 11 1;
