#N canvas 65 82 450 300 10;
#X obj 207 97 + 0.5;
#X obj 168 131 div;
#X obj 168 72 moses 0;
#X obj 168 97 - 0.5;
#X obj 168 48 inlet;
#X obj 168 157 outlet;
#X connect 0 0 1 0;
#X connect 1 0 5 0;
#X connect 2 0 3 0;
#X connect 2 1 0 0;
#X connect 3 0 1 0;
#X connect 4 0 2 0;
