#N canvas 518 295 596 427 10;
#X symbolatom 100 101 17 0 0 0 - #1-#2-r #1-#2-s, f 17;
#X obj 245 82 iemguts/canvasargs;
#X obj 285 127 l2s;
#X obj 285 149 s \$1-\$2-r;
#X obj 245 104 list split 2;
#X obj 67 180 receive \$1-vsel;
#X obj 67 229 sel \$2;
#X obj 67 354 s \$1-sy-out;
#X obj 67 282 symbol;
#X obj 67 204 f;
#X obj 227 335 list fromsymbol;
#X obj 202 368 list;
#X obj 175 336 spigot;
#X obj 214 307 f 1;
#X obj 186 285 del 400;
#X obj 186 307 t f;
#X obj 202 390 s \$1-gprint;
#X obj -63 110 receive \$1-\$2-revv;
#X obj 67 304 demux;
#X obj -63 154 t f;
#X obj -17 154 f 1;
#X obj -63 132 t b b b;
#X obj 74 329 s \$1-sy-steal;
#X obj 214 233 receive \$1-vselpre;
#X obj 175 257 spigot;
#X obj 67 255 t b b b b;
#X obj 245 38 receive \$1-carg1;
#X obj 245 60 spigot 1;
#X obj 377 59 t f;
#X obj 100 134 receive \$1-\$2-s;
#X obj 390 232 list prepend :f\$2;
#X obj 390 209 spigot 1;
#X obj 455 209 t f;
#X obj 455 188 f 1;
#X obj 390 254 s \$1-tomess;
#X obj 377 15 receive \$1-:f\$2;
#X obj 100 157 t b s s s;
#X obj 377 37 t b b a b;
#X obj 417 58 list;
#X connect 1 0 4 0;
#X connect 2 0 3 0;
#X connect 4 1 2 0;
#X connect 5 0 9 0;
#X connect 6 0 25 0;
#X connect 8 0 18 0;
#X connect 9 0 6 0;
#X connect 10 0 11 1;
#X connect 11 0 16 0;
#X connect 12 0 11 0;
#X connect 13 0 12 1;
#X connect 14 0 15 0;
#X connect 15 0 12 1;
#X connect 17 0 21 0;
#X connect 18 0 7 0;
#X connect 18 1 22 0;
#X connect 19 0 18 1;
#X connect 20 0 18 1;
#X connect 21 0 19 0;
#X connect 21 1 8 0;
#X connect 21 2 20 0;
#X connect 23 0 24 1;
#X connect 24 0 12 0;
#X connect 25 0 8 0;
#X connect 25 1 13 0;
#X connect 25 2 14 0;
#X connect 25 3 24 0;
#X connect 26 0 27 0;
#X connect 27 0 1 0;
#X connect 28 0 27 1;
#X connect 29 0 36 0;
#X connect 30 0 34 0;
#X connect 31 0 30 0;
#X connect 32 0 31 1;
#X connect 33 0 31 1;
#X connect 35 0 37 0;
#X connect 36 0 9 0;
#X connect 36 1 8 1;
#X connect 36 2 10 0;
#X connect 36 3 31 0;
#X connect 37 0 28 0;
#X connect 37 1 33 0;
#X connect 37 2 38 0;
#X connect 37 3 32 0;
#X connect 38 0 2 0;
#X coords 0 -1 1 1 122 15 2 100 100;
