#N canvas 294 320 842 448 10;
#X symbolatom 100 101 17 0 0 0 - #1-#2-r #1-#2-s, f 17;
#X obj 42 251 s \$1-sy-out;
#X obj 176 347 list fromsymbol;
#X obj 155 380 list;
#X obj 135 347 spigot;
#X obj 174 319 f 1;
#X obj 146 319 t f;
#X obj 155 402 s \$1-gprint;
#X obj 168 250 receive \$1-vselpre;
#X obj 135 274 spigot;
#X obj 321 82 receive \$1-\$2-s;
#X obj 354 104 receive \$1-mode;
#X obj 518 148 text define -k \$0-mysym;
#A set :s \; :f0 :s \; chromatic \; \; \; \;;
#X obj 321 149 text set \$0-mysym;
#X obj 354 126 - 1;
#X obj 380 179 text get \$0-mysym;
#X msg 380 223 set \$1;
#X obj 380 245 s \$1-\$2-r;
#X obj 380 201 l2s;
#X obj 129 132 receive \$1-\$2-vsel;
#X obj 129 177 text get \$0-mysym;
#X obj 192 224 send;
#X obj 213 201 makefilename \$1-%d-vselgot;
#X obj 129 201 t b b b a a;
#X obj 511 255 symst \$1 \$2 1 1f \$0 0;
#X obj 511 275 symst \$1 \$2 9 2f \$0 1;
#X obj 511 296 symst \$1 \$2 17 3f \$0 2;
#X obj 511 317 symst \$1 \$2 25 4f \$0 3;
#X obj 146 297 del 200;
#X obj 322 309 print got;
#X obj 129 154 - 1;
#X connect 2 0 3 1;
#X connect 3 0 7 0;
#X connect 4 0 3 0;
#X connect 5 0 4 1;
#X connect 6 0 4 1;
#X connect 8 0 9 1;
#X connect 9 0 4 0;
#X connect 10 0 13 0;
#X connect 11 0 14 0;
#X connect 14 0 13 1;
#X connect 14 0 15 0;
#X connect 14 0 22 0;
#X connect 15 0 18 0;
#X connect 16 0 17 0;
#X connect 18 0 16 0;
#X connect 19 0 30 0;
#X connect 20 0 23 0;
#X connect 22 0 21 1;
#X connect 23 0 5 0;
#X connect 23 1 28 0;
#X connect 23 2 9 0;
#X connect 23 3 2 0;
#X connect 23 4 21 0;
#X connect 23 4 29 0;
#X connect 28 0 6 0;
#X connect 30 0 20 0;
#X coords 0 -1 1 1 122 15 2 100 100;
