#N canvas 82 212 842 524 10;
#X symbolatom 100 100 20 0 0 0 - #1-#2-r #1-#2-s, f 20;
#X obj 135 357 spigot;
#X obj 174 329 f 1;
#X obj 146 329 t f;
#X obj 135 447 s \$1-gprint;
#X obj 168 260 receive \$1-vselpre;
#X obj 135 284 spigot;
#X obj 321 82 receive \$1-\$2-s;
#X obj 518 148 text define -k \$0-mysym;
#A set :s \; :f0 :s \; chromatic \; \; \; \;;
#X obj 321 149 text set \$0-mysym;
#X obj 354 126 - 1;
#X obj 380 179 text get \$0-mysym;
#X msg 380 223 set \$1;
#X obj 380 245 s \$1-\$2-r;
#X obj 380 201 l2s;
#X obj 129 120 receive \$1-\$2-vsel;
#X obj 129 187 text get \$0-mysym;
#X obj 192 234 send;
#X obj 213 211 makefilename \$1-%d-vselgot;
#X obj 511 255 symst \$1 \$2 1 1f \$0 0;
#X obj 146 307 del 200;
#X obj 135 380 f;
#X obj 129 211 t b b b a;
#X obj 129 142 - 1;
#X obj 129 164 t f f;
#X obj 135 403 text get \$0-mysym;
#X obj 135 425 else/fromany;
#X obj 354 104 receive \$1-firstmode;
#X obj 321 104 s2l;
#X obj 430 64 receive \$1-\$2-newsymbol;
#X obj 511 275 symst \$1 \$2 9 2f \$0 1;
#X obj 511 296 symst \$1 \$2 17 3f \$0 2;
#X obj 511 317 symst \$1 \$2 25 4f \$0 3;
#X connect 1 0 21 0;
#X connect 2 0 1 1;
#X connect 3 0 1 1;
#X connect 5 0 6 1;
#X connect 6 0 1 0;
#X connect 7 0 28 0;
#X connect 10 0 9 1;
#X connect 10 0 11 0;
#X connect 10 0 18 0;
#X connect 11 0 14 0;
#X connect 12 0 13 0;
#X connect 14 0 12 0;
#X connect 15 0 23 0;
#X connect 16 0 22 0;
#X connect 18 0 17 1;
#X connect 20 0 3 0;
#X connect 21 0 25 0;
#X connect 22 0 2 0;
#X connect 22 1 20 0;
#X connect 22 2 6 0;
#X connect 22 3 17 0;
#X connect 23 0 24 0;
#X connect 24 0 16 0;
#X connect 24 1 21 1;
#X connect 25 0 26 0;
#X connect 26 0 4 0;
#X connect 27 0 10 0;
#X connect 28 0 9 0;
#X connect 29 0 10 0;
#X coords 0 -1 1 1 122 17 2 100 100;
