#N canvas 439 338 450 427 10;
#X symbolatom 100 101 17 0 0 0 - #1-#2-r -, f 17;
#X obj 245 82 iemguts/canvasargs;
#X obj 279 127 l2s;
#X obj 279 149 s \$1-\$2-r;
#X obj 245 104 list split 2;
#X obj 67 150 receive \$1-vsel;
#X obj 67 199 sel \$2;
#X obj 67 324 s \$1-sy-out;
#X obj 67 252 symbol;
#X obj 67 174 f;
#X obj 227 305 list fromsymbol;
#X obj 100 119 t b s s;
#X obj 202 338 list;
#X obj 175 306 spigot;
#X obj 214 277 f 1;
#X obj 179 255 del 400;
#X obj 179 277 t f;
#X obj 202 360 s \$1-gprint;
#X obj 245 60 loadbang;
#X obj -63 110 receive \$1-\$2-revv;
#X obj 67 274 demux;
#X obj -63 154 t f;
#X obj -17 154 f 1;
#X obj -63 132 t b b b;
#X obj 74 299 s \$1-sy-steal;
#X obj 218 183 receive \$1-vselpre;
#X obj 179 230 t b b;
#X obj 67 225 t b b b;
#X obj 179 207 spigot;
#X connect 0 0 11 0;
#X connect 1 0 4 0;
#X connect 2 0 3 0;
#X connect 4 1 2 0;
#X connect 5 0 9 0;
#X connect 6 0 27 0;
#X connect 8 0 20 0;
#X connect 9 0 6 0;
#X connect 10 0 12 1;
#X connect 11 0 9 0;
#X connect 11 1 8 1;
#X connect 11 2 10 0;
#X connect 12 0 17 0;
#X connect 13 0 12 0;
#X connect 14 0 13 1;
#X connect 15 0 16 0;
#X connect 16 0 13 1;
#X connect 18 0 1 0;
#X connect 19 0 23 0;
#X connect 20 0 7 0;
#X connect 20 1 24 0;
#X connect 21 0 20 1;
#X connect 22 0 20 1;
#X connect 23 0 21 0;
#X connect 23 1 8 0;
#X connect 23 2 22 0;
#X connect 25 0 28 1;
#X connect 26 0 15 0;
#X connect 26 1 13 0;
#X connect 27 0 8 0;
#X connect 27 1 14 0;
#X connect 27 2 28 0;
#X connect 28 0 26 0;
#X coords 0 -1 1 1 122 15 2 100 100;
