#N canvas 314 223 727 545 10;
#X obj 159 213 list;
#X obj 367 178 cyclone/iter;
#X obj 340 262 collect;
#X obj 340 156 t b a;
#X obj 340 403 spigot 1;
#X obj 340 380 spigot;
#X obj 340 469 route bang;
#X msg 340 491;
#X obj 100 116 t f f;
#X obj 334 239 sp01 1;
#X obj 367 200 sel \; %^;
#X msg 496 107 1;
#X obj 340 286 demux;
#X text 4 265 write parameters to save file (from data->tfs);
#X text 449 223 compile save list;
#X text 403 425 append overlay save;
#X obj 100 94 receive \$1-savenum;
#X obj 465 33 receive \$1-printall;
#X obj 96 164 iemguts/oreceive \$1-saveset 1;
#X obj 159 235 text set \$1-save;
#X obj 367 111 s \$1-savelists;
#X obj 340 134 text tolist \$1-save;
#X obj 367 330 s \$1-printyou;
#X obj 373 357 receive \$1-savestart;
#X obj 499 289 receive \$1-saveme;
#X obj 167 14 iemguts/savebangs \$3;
#X obj 340 425 \$2 \$1;
#X obj 100 139 s \$1-undo-next;
#X obj 340 516 s \$1-iemargr;
#X obj 96 186 route *tog*;
#X obj 96 318 v \$1-savenum;
#X text 181 323 process bang toggles;
#X obj 96 340 text get \$1-save;
#X obj 258 408 sel 1;
#X obj 258 430 t f;
#X msg 285 430 1;
#X obj 240 467 pack s f;
#X obj 240 489 s \$1-notsafe;
#X obj 201 386 unpack s f;
#X obj 96 362 cyclone/zl ecils 2;
#X obj 367 307 demux;
#X obj 340 447 demux;
#X obj 465 55 t b b b f f;
#X text 541 56 print all and print overlay intercept;
#X obj 465 77 t f f;
#X obj 397 492 list;
#X obj 294 14 \$4 \$1;
#X obj 321 -75 receive \$1-SnotC;
#X obj 348 -9 f 1;
#X obj 294 38 demux;
#X obj 321 60 t b b b;
#X obj 254 89 s \$1-afterC;
#X obj 254 112 s \$1-beforeC;
#X obj 340 89 t b b;
#X obj 321 -53 t b b;
#X obj 321 -31 del 1;
#X obj 321 -9 t f;
#X obj 499 311 sel 0;
#X obj 499 333 t f b;
#X connect 0 0 19 0;
#X connect 1 0 10 0;
#X connect 2 0 12 0;
#X connect 3 0 2 0;
#X connect 3 1 1 0;
#X connect 4 0 26 0;
#X connect 5 0 4 0;
#X connect 6 0 7 0;
#X connect 6 1 45 0;
#X connect 7 0 28 0;
#X connect 8 0 27 0;
#X connect 8 1 19 1;
#X connect 9 0 2 1;
#X connect 10 0 9 2;
#X connect 10 1 9 1;
#X connect 10 2 9 0;
#X connect 11 0 12 1;
#X connect 12 0 5 0;
#X connect 12 1 40 0;
#X connect 16 0 8 0;
#X connect 17 0 42 0;
#X connect 18 0 29 0;
#X connect 21 0 3 0;
#X connect 23 0 5 1;
#X connect 24 0 57 0;
#X connect 25 1 49 0;
#X connect 26 0 41 0;
#X connect 29 0 30 0;
#X connect 29 1 0 0;
#X connect 30 0 32 0;
#X connect 32 0 39 0;
#X connect 33 0 34 0;
#X connect 33 1 35 0;
#X connect 34 0 36 1;
#X connect 35 0 36 1;
#X connect 36 0 37 0;
#X connect 38 0 36 0;
#X connect 38 1 33 0;
#X connect 39 1 38 0;
#X connect 40 0 22 0;
#X connect 40 1 26 0;
#X connect 41 0 6 0;
#X connect 41 1 22 0;
#X connect 42 0 44 0;
#X connect 42 1 21 0;
#X connect 42 2 11 0;
#X connect 42 3 40 1;
#X connect 42 4 41 1;
#X connect 44 0 12 1;
#X connect 44 1 41 1;
#X connect 45 0 28 0;
#X connect 46 0 49 0;
#X connect 47 0 54 0;
#X connect 48 0 49 1;
#X connect 49 0 53 0;
#X connect 49 1 50 0;
#X connect 50 0 51 0;
#X connect 50 1 53 0;
#X connect 50 2 52 0;
#X connect 53 0 21 0;
#X connect 53 1 20 0;
#X connect 54 0 55 0;
#X connect 54 1 48 0;
#X connect 55 0 56 0;
#X connect 56 0 49 1;
#X connect 57 0 58 0;
#X connect 57 1 4 1;
#X connect 58 0 4 1;
#X connect 58 1 53 0;
