#N canvas 332 152 300 435 10;
#X obj 92 279 <;
#X obj 88 161 div 12;
#X obj 88 183 change;
#X obj 92 347 * 2;
#X obj 92 369 - 1;
#X obj 92 394 s \$1-\$2;
#X obj 150 279 t f;
#X obj 88 139 spigot;
#X obj 88 92 demux;
#X obj 115 67 receive \$1-rson;
#X obj 131 92 receive \$1-selon;
#X obj 131 139 inlet;
#X obj 150 302 s \$1-\$4gob;
#X obj 136 42 receive \$1-\$3gob;
#X obj 180 114 receive \$1-mup;
#X obj 88 205 t b f;
#X obj 88 229 sp01;
#X obj 131 114 t f b b;
#X obj 88 15 receive \$1-rraw\$3;
#X obj 170 171 v \$1-rraw\$3;
#X obj 170 197 div 12;
#X obj 88 251 t b f f b;
#X obj 9 316 s \$1-scrolld;
#X connect 0 0 3 0;
#X connect 1 0 2 0;
#X connect 2 0 15 0;
#X connect 3 0 4 0;
#X connect 4 0 5 0;
#X connect 6 0 12 0;
#X connect 7 0 1 0;
#X connect 8 0 7 0;
#X connect 9 0 8 1;
#X connect 10 0 17 0;
#X connect 11 0 1 1;
#X connect 11 0 20 1;
#X connect 13 0 7 1;
#X connect 14 0 17 0;
#X connect 15 0 16 2;
#X connect 15 1 16 0;
#X connect 16 0 21 0;
#X connect 17 0 7 1;
#X connect 17 1 16 1;
#X connect 17 2 19 0;
#X connect 18 0 8 0;
#X connect 19 0 20 0;
#X connect 20 0 0 1;
#X connect 21 0 22 0;
#X connect 21 1 0 1;
#X connect 21 2 0 0;
#X connect 21 3 6 0;
