#N canvas 393 210 450 300 10;
#X obj 145 90 *;
#X obj 145 142 +;
#X obj 207 145 -;
#X obj 234 97 t f f;
#X obj 234 73 f \$1;
#X obj 145 188 t f f;
#X obj 145 254 outlet;
#X obj 145 23 inlet sin;
#X obj 207 23 inlet f;
#X obj 207 46 t f b;
#X obj 145 210 int;
#X obj 145 232 change;
#X obj 255 23 inlet r;
#X connect 0 0 1 0;
#X connect 1 0 5 0;
#X connect 2 0 0 1;
#X connect 3 0 1 1;
#X connect 3 1 2 1;
#X connect 4 0 3 0;
#X connect 5 0 10 0;
#X connect 5 1 4 1;
#X connect 7 0 0 0;
#X connect 8 0 9 0;
#X connect 9 0 2 0;
#X connect 9 1 4 0;
#X connect 10 0 11 0;
#X connect 11 0 6 0;
#X connect 12 0 4 1;
