#N canvas 65 105 450 289 10;
#X obj 150 68 t b s;
#X obj 150 92 t f;
#X obj 150 116 send;
#X obj 226 134 receive \$1-delete;
#X obj 150 44 receive \$1-\$2oij0%zB;
#X connect 0 0 1 0;
#X connect 0 1 2 1;
#X connect 1 0 2 0;
#X connect 4 0 0 0;
