#N canvas 161 184 450 399 10;
#X declare -path ../;
#N canvas 286 159 605 451 params 0;
#X obj 85 55 receive paraquery";
#X obj 85 77 unpack;
#X obj 85 131 - 3;
#X obj 85 109 moses 12;
#X obj 278 170 spigot 1;
#X obj 278 192 t b f;
#X obj 250 145 t f b;
#X msg 278 215 read params.txt;
#X obj 85 392 send;
#X obj 250 284 makefilename %d-paramy;
#X obj 266 88 array get params£ 0 1;
#X obj 266 20 receive fadequer^^;
#X obj 266 42 unpack;
#X obj 299 64 t f b;
#X obj 299 110 makefilename %d-fadeq;
#X obj 85 175 array get params£ 0 2;
#X obj 85 153 * 2;
#X obj 130 201 swap 5;
#X obj 85 201 unpack;
#X obj 100 257 receive \$0-xsymsize;
#X obj 111 281 receive \$0-xsymoff;
#X obj 85 281 * 6;
#X obj 85 234 t f f;
#X obj 85 304 + 2;
#X obj 85 357 pack f f f 101;
#X obj 85 329 + 101;
#X obj 163 226 - 5;
#X obj 278 237 array define params£ 30;
#X connect 0 0 1 0;
#X connect 1 0 3 0;
#X connect 1 1 6 0;
#X connect 2 0 16 0;
#X connect 3 0 2 0;
#X connect 3 1 17 0;
#X connect 4 0 5 0;
#X connect 5 0 7 0;
#X connect 5 1 4 1;
#X connect 6 0 9 0;
#X connect 6 1 4 0;
#X connect 7 0 27 0;
#X connect 9 0 8 1;
#X connect 10 0 8 0;
#X connect 11 0 12 0;
#X connect 12 0 10 0;
#X connect 12 1 13 0;
#X connect 13 0 14 0;
#X connect 13 1 4 0;
#X connect 14 0 8 1;
#X connect 15 0 18 0;
#X connect 16 0 15 0;
#X connect 17 0 22 0;
#X connect 17 1 26 0;
#X connect 18 0 22 0;
#X connect 18 1 24 2;
#X connect 19 0 21 1;
#X connect 20 0 23 1;
#X connect 21 0 23 0;
#X connect 22 0 21 0;
#X connect 22 1 24 1;
#X connect 23 0 25 0;
#X connect 24 0 8 0;
#X connect 25 0 24 0;
#X connect 26 0 24 2;
#X restore 93 109 pd params;
#N canvas 67 87 753 681 colours 0;
#X obj 126 48 unpack f f;
#X obj 126 70 moses;
#X obj 212 657 send;
#X obj 170 216 / -65536;
#X obj 247 217 / -256;
#X obj 170 238 mod 256;
#X obj 247 239 mod 256;
#X obj 313 239 mod 256;
#X obj 313 324 mod 256;
#X obj 247 324 mod 256;
#X obj 170 324 mod 256;
#X obj 170 302 + 128;
#X obj 247 302 + 128;
#X obj 313 302 + 128;
#X obj 170 346 * -65536;
#X obj 247 347 * -256;
#X obj 313 347 * -1;
#X obj 153 162 moses 0;
#X obj 313 261 t f f;
#X obj 247 261 t f f;
#X obj 170 260 t f f;
#X obj 419 433 >= 2;
#X obj 419 456 - 1;
#X obj 419 478 t f f;
#X obj 247 389 +;
#X obj 232 415 +;
#X obj 493 371 +;
#X obj 478 397 +;
#X obj 446 499 + 1;
#X obj 446 521 * -1;
#X obj 313 217 * -1;
#X obj 153 186 t f f f f;
#X obj 293 507 demux;
#X obj 232 474 t f f;
#X obj 232 445 demux;
#X obj 293 557 t f f b;
#X obj 324 531 + 64;
#X obj 293 531 - 64;
#X obj 533 327 < 128;
#X obj 493 327 < 128;
#X obj 453 327 < 128;
#X obj 146 574 receive \$1-colobang;
#X obj 126 5 receive colourquery";
#X obj 318 10 spigot 1;
#X obj 126 27 t l b;
#X obj 386 162 mod 30;
#X obj 237 634 makefilename %d-primary-col;
#X obj 318 32 t b b f;
#X msg 357 109 read tog-col-key.txt;
#X obj 357 131 text define col-key#^&;
#X obj 72 376 pack f f f;
#X obj 72 426 spigot;
#X obj 72 461 s back-col;
#X msg 318 56 read colcode.txt;
#X text 415 177 main \, alternate \, cursor \, menu \, launchpad \,
main-toggle \, highlihted toggle;
#X obj 494 269 array define -k novcolors## 384;
#A 0 0 0 0 28 28 28 124 124 124 252 252 252 255 78 72 254 10 0 90 0
0 24 0 2 255 188 99 255 87 0 90 29 0 36 24 2 253 253 33 253 253 0 88
88 0 24 24 0 129 253 43 64 253 1 22 88 0 19 40 1 53 253 43 0 254 0
0 88 1 0 24 0 53 252 71 0 254 0 0 88 1 0 24 0 50 253 127 0 253 58 1
88 20 0 28 14 47 252 177 0 251 145 1 87 50 1 24 16 57 190 255 0 167
255 1 64 81 0 16 24 65 134 255 0 80 255 1 26 90 1 6 25 71 71 255 0
0 254 0 0 90 0 0 24 131 71 255 80 0 255 22 0 103 10 0 50 255 72 254
255 0 254 90 0 90 24 0 24 251 78 131 255 7 83 90 2 27 33 1 16 255 25
1 154 53 0 122 81 1 62 101 0 1 56 0 0 84 50 0 83 127 0 0 254 1 68 77
26 0 209 124 124 124 32 32 32 255 10 0 186 253 0 172 236 0 86 253 0
0 136 0 1 252 123 0 167 255 2 26 255 53 0 255 120 0 255 180 23 126
65 32 0 255 74 1 130 225 0 102 253 0 0 254 0 0 254 0 69 253 97 1 251
203 80 134 255 39 77 200 132 122 237 211 12 255 255 6 90 255 125 1
184 177 0 138 253 0 129 93 0 58 40 2 13 76 5 0 80 55 19 20 41 16 31
90 106 60 24 172 4 1 225 81 54 220 105 0 254 225 0 153 225 1 96 181
0 27 28 49 220 253 84 118 251 185 150 152 255 139 98 255 64 64 64 116
116 116 222 252 252 162 4 1 52 1 0 0 210 1 0 65 1 184 177 0 60 48 0
180 93 0 76 19 0;
#X obj 281 390 t f f;
#X obj 309 445 f 1;
#X obj 386 185 * 6;
#X obj 386 208 array get colours£ 0 6;
#X obj 318 79 array define colours£ 180;
#X msg 386 231 \$2 -1 0 \$3 \$4 \$1 \$5 \$6;
#X obj 126 136 t f f b;
#X obj 212 606 pack f f f f f f f f;
#X connect 0 0 1 0;
#X connect 0 1 46 0;
#X connect 1 0 62 0;
#X connect 1 1 45 0;
#X connect 3 0 5 0;
#X connect 4 0 6 0;
#X connect 5 0 20 0;
#X connect 6 0 19 0;
#X connect 7 0 18 0;
#X connect 8 0 16 0;
#X connect 8 0 50 2;
#X connect 9 0 15 0;
#X connect 9 0 50 1;
#X connect 10 0 50 0;
#X connect 10 0 14 0;
#X connect 11 0 10 0;
#X connect 12 0 9 0;
#X connect 13 0 8 0;
#X connect 14 0 25 0;
#X connect 15 0 24 0;
#X connect 16 0 24 1;
#X connect 17 0 31 0;
#X connect 18 0 13 0;
#X connect 18 1 38 0;
#X connect 19 0 12 0;
#X connect 19 1 39 0;
#X connect 20 0 11 0;
#X connect 20 1 40 0;
#X connect 21 0 22 0;
#X connect 22 0 23 0;
#X connect 23 0 63 1;
#X connect 23 1 28 0;
#X connect 24 0 25 1;
#X connect 25 0 34 0;
#X connect 26 0 27 1;
#X connect 27 0 21 0;
#X connect 28 0 29 0;
#X connect 29 0 63 2;
#X connect 29 0 63 6;
#X connect 30 0 7 0;
#X connect 31 0 3 0;
#X connect 31 1 4 0;
#X connect 31 3 30 0;
#X connect 32 0 37 0;
#X connect 32 1 36 0;
#X connect 33 0 63 3;
#X connect 33 1 32 0;
#X connect 34 0 33 0;
#X connect 34 1 63 5;
#X connect 35 0 63 4;
#X connect 35 1 31 0;
#X connect 35 2 57 0;
#X connect 36 0 35 0;
#X connect 37 0 35 0;
#X connect 38 0 26 1;
#X connect 38 0 32 1;
#X connect 39 0 26 0;
#X connect 40 0 27 0;
#X connect 41 0 63 0;
#X connect 42 0 44 0;
#X connect 43 0 47 0;
#X connect 44 0 0 0;
#X connect 44 1 43 0;
#X connect 45 0 58 0;
#X connect 46 0 2 1;
#X connect 47 0 53 0;
#X connect 47 1 48 0;
#X connect 47 2 43 1;
#X connect 48 0 49 0;
#X connect 50 0 51 0;
#X connect 51 0 52 0;
#X connect 53 0 60 0;
#X connect 56 0 51 1;
#X connect 56 1 34 1;
#X connect 57 0 34 1;
#X connect 57 0 51 1;
#X connect 58 0 59 0;
#X connect 59 0 61 0;
#X connect 61 0 2 0;
#X connect 62 0 63 0;
#X connect 62 1 17 0;
#X connect 62 2 56 0;
#X connect 63 0 2 0;
#X restore 93 132 pd colours;
#N canvas 65 85 880 466 burstline 0;
#X obj 266 334 - 1;
#X obj 183 138 moses;
#X obj 210 91 max;
#X obj 210 113 t f f;
#X obj 210 160 change;
#X obj 210 212 -;
#X obj 210 234 until;
#X obj 210 256 f;
#X obj 210 278 + 1;
#X obj 210 305 t f f f;
#X obj 183 59 t f f;
#X obj 211 357 array set burstline;
#X obj 337 356 array define burstline 1;
#X msg 337 334 resize \$1;
#X obj 210 183 t f f f f;
#X obj 95 237 f;
#X obj 95 259 s linesize%%;
#X obj 183 33 receive linesize%%;
#X obj 95 211 receive ls-cb;
#X obj 303 160 text define #%^dif^%;
#X text 433 159 overlay file;
#X obj 303 91 spigot 1;
#X msg 303 136 read overlay-0.pd;
#X obj 342 231 text define *(presets@#;
#X msg 354 271 read helptext.txt;
#X obj 354 294 text define @(prefs@(;
#X obj 542 231 text define *(shortcuts@#;
#X obj 303 113 t b b b b b f;
#X obj 542 281 text define ^&bpresets();
#X msg 542 259 read ../burst-presets.txt;
#X msg 342 209 read ../load-presets.txt;
#X msg 542 209 read ../menu-shortcuts.txt;
#X obj 303 69 iemguts/initbang;
#X obj 473 106 array define -k 160aassaa 21;
#A 0 160 160 160 160 160 160 160 160 160 160 160 160 160 160 160 160
160 160 160 160 160;
#X connect 0 0 11 1;
#X connect 1 1 4 0;
#X connect 2 0 3 0;
#X connect 3 0 1 1;
#X connect 3 1 2 1;
#X connect 4 0 14 0;
#X connect 5 0 6 0;
#X connect 6 0 7 0;
#X connect 7 0 8 0;
#X connect 8 0 9 0;
#X connect 9 0 11 0;
#X connect 9 1 0 0;
#X connect 9 2 7 1;
#X connect 10 0 1 0;
#X connect 10 1 2 0;
#X connect 13 0 12 0;
#X connect 14 0 5 1;
#X connect 14 1 5 0;
#X connect 14 2 13 0;
#X connect 14 3 15 1;
#X connect 15 0 16 0;
#X connect 17 0 10 0;
#X connect 18 0 15 0;
#X connect 21 0 27 0;
#X connect 22 0 19 0;
#X connect 24 0 25 0;
#X connect 27 0 22 0;
#X connect 27 1 30 0;
#X connect 27 2 24 0;
#X connect 27 3 31 0;
#X connect 27 4 29 0;
#X connect 27 5 21 1;
#X connect 29 0 28 0;
#X connect 30 0 23 0;
#X connect 31 0 26 0;
#X connect 32 0 21 0;
#X restore 93 155 pd burstline;
#X obj 86 71 shared ctxfiles/shareables;
#N canvas 500 305 377 300 license 0;
#X obj 133 13 receive license;
#X obj 165 80 text define license;
#X obj 133 35 t b b;
#X msg 133 107 line 0 \, bang;
#X obj 133 129 text sequence license;
#X obj 108 9 bng 15 250 50 0 empty empty empty 17 7 0 10 -262144 -1
-1;
#X obj 133 151 route bang;
#X msg 133 173  ;
#X obj 200 188 list trim;
#X obj 200 210 print -n;
#X msg 165 58 read -c License.txt;
#X connect 0 0 2 0;
#X connect 2 0 3 0;
#X connect 2 1 10 0;
#X connect 3 0 4 0;
#X connect 4 0 6 0;
#X connect 5 0 2 0;
#X connect 6 0 7 0;
#X connect 6 1 8 0;
#X connect 7 0 9 0;
#X connect 8 0 9 0;
#X connect 10 0 1 0;
#X restore 93 178 pd license;
#N canvas 390 97 721 687 repack 0;
#X obj 343 37 receive repack%g&hk(;
#X obj 193 451 text get \$0n;
#X obj 193 319 moses;
#X obj 193 341 min;
#X obj 248 364 f;
#X obj 193 384 - 1;
#X obj 193 473 cyclone/iter;
#X obj 193 495 spigot;
#X obj 260 543 sel = ? ~ ! @ # % _ ^;
#X obj 193 517 route bang;
#X obj 291 453 f 1;
#X obj 260 568 t b f;
#X obj 260 590 f 1;
#X obj 324 590 f 2;
#X obj 149 667 -;
#X obj 260 617 t f f;
#X obj 117 616 t f f;
#X obj 149 724 demux 0 1 2;
#X obj 452 90 sel x y;
#X obj 475 112 f 1;
#X obj 424 176 demux;
#X text 48 178 0: xsize-2 \; 1: ysize-2 \; 2: parent \; 3: x-limit
\; 4: y-limit;
#X obj 225 273 array get \$0n 0 1;
#X obj 452 152 t f f;
#X obj 225 229 f;
#X obj 225 251 t f f;
#X obj 257 298 + 3;
#X obj 257 322 array get \$0n 0 1;
#X obj 225 384 array get \$0n 1 1;
#X obj 294 120 makefilename %i-init;
#X obj 424 200 makefilename %i-pattern-st;
#X obj 341 225 makefilename %i-settings;
#X obj 456 260 makefilename %i-burst-st;
#X text 523 149 1: retrieve relevant settings from Context;
#X text 27 443 3: retrieve message;
#X text -130 333 2: check toggle number against message limit;
#X text -34 510 4: check for special characters;
#X text 113 160 5: initialize number;
#X text -12 601 6: send new value;
#X obj 178 143 array get \$0n 0 1;
#X obj 117 581 receive r&&u*imn<;
#X text 48 11 gbang number \, finder \$0 \, toggle number \, ID number
\, context \$0 \, x/y;
#X obj 193 429 t f f;
#X obj 149 695 pack f f f s s f f;
#X obj 343 65 unpack f f f f f s;
#X obj 193 203 t f b b b b;
#X obj 424 627 array get \$0n 2 1;
#X obj 272 654 + 1;
#X obj 475 485 list append a i;
#X obj 505 505 list append b j;
#X obj 472 554 unpack s s;
#X text 243 718 new value \, toggle number \, ID number \, i/j \, a/b
\, parent \$0 \, clipped toggle number;
#X obj 255 756 receive ffshift5t6y2;
#X obj 223 781 demux;
#X msg 223 803 It is not recommended to alter database terms which
contain special characters. To alter anyway hold Shift.;
#X obj 223 838 print Warning;
#X obj 225 342 t b b b;
#X obj 225 407 t f f f;
#X obj 236 429 - 1;
#X msg 149 915 \; \$6-c\$3 :\$5 + \$1 1 \$7;
#X msg 186 863 \$6-c\$3 :\$4 + \$1 \$2 \; \$6-c\$3 :\$4 + \$1 \$2;
#X connect 0 0 44 0;
#X connect 1 0 6 0;
#X connect 2 0 3 0;
#X connect 2 1 56 0;
#X connect 3 0 5 0;
#X connect 4 0 32 0;
#X connect 5 0 42 0;
#X connect 6 0 7 0;
#X connect 7 0 9 0;
#X connect 8 0 11 0;
#X connect 8 1 13 0;
#X connect 8 2 13 0;
#X connect 8 3 13 0;
#X connect 8 4 13 0;
#X connect 8 5 13 0;
#X connect 8 6 13 0;
#X connect 8 7 13 0;
#X connect 8 8 13 0;
#X connect 9 1 8 0;
#X connect 10 0 7 1;
#X connect 11 0 12 0;
#X connect 11 1 7 1;
#X connect 12 0 15 0;
#X connect 13 0 15 0;
#X connect 14 0 43 0;
#X connect 15 0 17 1;
#X connect 16 0 14 1;
#X connect 16 1 14 0;
#X connect 17 0 59 0;
#X connect 17 1 60 0;
#X connect 17 2 53 0;
#X connect 18 0 23 0;
#X connect 18 0 48 0;
#X connect 18 1 19 0;
#X connect 18 1 49 0;
#X connect 19 0 23 0;
#X connect 20 0 30 0;
#X connect 20 1 32 0;
#X connect 22 0 2 1;
#X connect 23 0 20 1;
#X connect 23 1 24 1;
#X connect 24 0 25 0;
#X connect 25 0 22 0;
#X connect 25 1 26 0;
#X connect 26 0 27 0;
#X connect 27 0 3 1;
#X connect 28 0 57 0;
#X connect 29 0 39 2;
#X connect 30 0 1 3;
#X connect 31 0 22 2;
#X connect 31 0 27 2;
#X connect 31 0 28 2;
#X connect 31 0 46 2;
#X connect 32 0 1 3;
#X connect 39 0 14 1;
#X connect 40 0 16 0;
#X connect 42 0 1 0;
#X connect 42 1 47 0;
#X connect 43 0 17 0;
#X connect 44 0 39 0;
#X connect 44 1 29 0;
#X connect 44 2 45 0;
#X connect 44 2 43 1;
#X connect 44 3 43 2;
#X connect 44 4 20 0;
#X connect 44 4 4 1;
#X connect 44 4 31 0;
#X connect 44 5 18 0;
#X connect 45 0 2 0;
#X connect 45 1 24 0;
#X connect 45 2 10 0;
#X connect 45 3 15 0;
#X connect 45 4 46 0;
#X connect 46 0 43 5;
#X connect 47 0 43 6;
#X connect 48 0 50 0;
#X connect 49 0 50 0;
#X connect 50 0 43 4;
#X connect 50 1 43 3;
#X connect 52 0 53 1;
#X connect 53 0 54 0;
#X connect 53 1 59 0;
#X connect 54 0 55 0;
#X connect 56 0 28 0;
#X connect 56 1 4 0;
#X connect 56 2 48 0;
#X connect 57 0 58 0;
#X connect 57 1 43 6;
#X connect 58 0 1 0;
#X connect 58 0 43 1;
#X restore 93 201 pd repack;
#X obj 288 22 receive share;
#X msg 288 44 vis 1;
#X obj 288 66 iemguts/sendcanvas;
#N canvas 345 204 828 564 type-float 0;
#X obj 223 31 receive typesel^Y&Y;
#X obj 100 31 receive R^THBF*(;
#X text 363 30 <-- send symbol;
#X obj 100 75 unpack;
#X obj 100 97 spigot;
#X text 376 119 c = 99 \; - = 45 \; 0-9 = 48-57;
#X text 12 31 key data -->;
#X obj 100 53 sp01;
#X obj 76 471 list append;
#X msg 76 493 \; \$3-notsafe :\$4 \$2 \$1;
#X obj 164 278 sp01;
#X obj 76 324 cyclone/accum;
#X msg 49 293 set 0;
#X obj 164 300 f 10;
#X obj 100 120 sel 99 45;
#X obj 178 179 moses 48;
#X obj 231 202 moses 58;
#X obj 231 224 - 48;
#X text 241 177 identify correct characters;
#X text 193 265 if another key is pressed \, multiply by 10 befor adding
;
#X obj 94 373 alter;
#X text 301 403 if - is pressed \, multiply by -1;
#X obj 94 395 * 0.5;
#X obj 76 416 +;
#X text 135 356 if press c \, add 0.5 (which identifies it as a c-number)
;
#X obj 313 310 f 1;
#X obj 160 148 t b f b b b;
#X obj 139 417 * -2;
#X obj 139 439 + 1;
#X obj 139 395 alter;
#X obj 76 441 * 1;
#X obj 223 53 t b b l b b;
#X obj 295 232 t b b f f f;
#X obj 223 75 del 1500;
#X text 282 88 reset function after 1.5 second;
#X obj 585 114 receive moveon&&u*p;
#X obj 585 136 change;
#X obj 585 158 s moveon&&u*;
#X obj 675 214 ==;
#X obj 675 236 s moveon&&u*1;
#X connect 0 0 31 0;
#X connect 1 0 7 0;
#X connect 3 0 4 0;
#X connect 3 1 4 1;
#X connect 4 0 14 0;
#X connect 7 0 3 0;
#X connect 8 0 9 0;
#X connect 10 0 13 0;
#X connect 11 0 23 0;
#X connect 12 0 11 0;
#X connect 13 0 11 2;
#X connect 14 0 20 0;
#X connect 14 1 29 0;
#X connect 14 2 26 0;
#X connect 15 1 16 0;
#X connect 16 0 17 0;
#X connect 17 0 11 1;
#X connect 20 0 22 0;
#X connect 22 0 23 1;
#X connect 23 0 30 0;
#X connect 25 0 30 1;
#X connect 26 0 11 0;
#X connect 26 1 15 0;
#X connect 26 2 10 2;
#X connect 26 3 10 0;
#X connect 26 4 33 0;
#X connect 27 0 28 0;
#X connect 28 0 30 1;
#X connect 29 0 27 0;
#X connect 30 0 8 0;
#X connect 31 0 33 0;
#X connect 31 1 7 2;
#X connect 31 2 8 1;
#X connect 31 3 10 1;
#X connect 31 4 32 0;
#X connect 32 0 12 0;
#X connect 32 1 25 0;
#X connect 32 2 20 0;
#X connect 32 3 29 0;
#X connect 32 4 23 1;
#X connect 33 0 7 1;
#X connect 35 0 36 0;
#X connect 36 0 37 0;
#X connect 36 0 38 0;
#X connect 38 0 39 0;
#X restore 93 270 pd type-float;
#N canvas 340 98 965 670 copy 0;
#X obj 289 53 receive GG7HJ8I@;
#X obj 16 181 receive dc&gkO9ID;
#X obj 386 597 receive rthYJuk&U;
#X text 124 181 1: receive ID number from host;
#X text 498 597 2: receive parent \$0;
#X obj 289 99 route from to;
#X obj 336 144 f 1;
#X obj 411 144 t f;
#X text 395 44 3: receive copy message;
#X text 440 146 4: if no director \, assume "to";
#X obj 323 209 cyclone/iter;
#X obj 323 231 route float;
#X obj 284 254 collect;
#X text 1 606 ALL;
#X text 100 610 THESE;
#X obj 282 419 demux;
#X obj 225 291 route bang;
#X text -71 297 6: if no float arguments \, assume "wait";
#X obj 16 203 demux;
#X obj 289 75 demux;
#X obj 43 359 del 1500;
#X obj 26 405 f 1;
#X obj 82 435 t f f;
#X obj 16 225 v \$0-mainID;
#X obj 83 469 collect;
#X obj 122 439 change;
#X msg 122 409 set 0.544;
#X obj 43 258 t b f;
#X text -347 413 7: if "wait" \, collect the incoming ID number \,
then collect the ID number of any Context which sends a "copy" message
within 1.5 seconds.;
#X text 325 420 TO;
#X text 244 420 FROM;
#X obj 336 476 v \$0-mainID;
#X obj 194 514 v \$0-mainID;
#X obj 194 467 cyclone/iter;
#X obj 26 336 t b b b;
#X obj 336 519 change;
#X obj 289 120 t b b a b b;
#X obj 364 121 t b b a b b;
#X obj 194 544 t b f b;
#X obj 336 544 t b f b;
#X obj 355 621 pack f f \$0;
#X msg 355 643 \; \$2-\$1-dfetch symbol \$3-copydollar;
#X obj 348 688 receive \$0-copydollar;
#X obj 348 710 demux;
#X obj 233 567 t f;
#X obj 375 567 f 1;
#X text 485 685 9: fetch \$0 numbers from appropriate contexts (based
on ID and parent dollar);
#X text 411 738 10: fetch data from \$0-save text object (according
to settings in 5);
#X obj 245 748 makefilename %d-save;
#X obj 23 1008 text sequence \$0-n;
#X obj 194 489 t b f;
#X obj 309 449 t f b;
#X text 386 546 <-- this is the ID number to copy to;
#X text -59 545 8: this is the ID number to copy from -->;
#X msg 23 985 line 0 \, bang;
#X obj 92 670 cyclone/iter;
#X obj 92 692 list fromsymbol;
#X obj 92 714 route 58;
#X obj 92 736 list prepend 58;
#X obj 92 758 list tosymbol;
#X obj 146 846 sel -1;
#X obj 146 824 text search \$0n 0;
#X obj 119 913 text search \$0n 1;
#X obj 119 935 sel -1;
#X obj 119 802 t s s;
#X obj 146 868 f 1;
#X obj 119 890 spigot;
#X obj 179 868 t b f;
#X obj 179 890 t f;
#X obj 152 960 text get \$0n;
#X obj 23 1033 list trim;
#X obj 23 1055 route bang %^;
#X text -220 590 11: if no symbol arguments \, assume "all";
#X text -168 911 12: if ALL \, sequence entire save list;
#X text 257 879 13: if THESE \, search for terms and get them;
#X obj 117 1226 send;
#X obj 375 812 makefilename %d-notsafe;
#X text 148 1226 15: send to appropriate context!;
#X obj 23 582 collect2;
#X obj 282 313 t b l b;
#X obj 23 604 route bang ~;
#X obj 92 626 t a b;
#X obj 92 780 demux;
#X obj 119 649 f 1;
#X obj 42 626 t b a b;
#X obj 54 736 t f f;
#X msg 427 191 set 0.652;
#X obj 60 1081 demux;
#X obj 483 274 text define \$0-copynot;
#X msg 483 250 clear;
#X obj -20 838 text set \$0-copynot 1e+07;
#X obj 60 1104 t a a;
#X obj 87 1150 text search \$0-copynot;
#X obj 87 1172 == -1;
#X obj 60 1197 spigot;
#X obj 87 1127 list split 1;
#X obj 357 775 makefilename %d-roff;
#X obj 336 798 send;
#X obj 43 381 t b b b;
#X connect 0 0 19 0;
#X connect 1 0 18 0;
#X connect 2 0 40 1;
#X connect 5 0 36 0;
#X connect 5 1 37 0;
#X connect 5 2 37 0;
#X connect 6 0 15 1;
#X connect 7 0 15 1;
#X connect 10 0 11 0;
#X connect 11 0 12 1;
#X connect 11 1 78 2;
#X connect 12 0 16 0;
#X connect 15 0 33 0;
#X connect 15 1 51 0;
#X connect 16 0 34 0;
#X connect 16 1 79 0;
#X connect 18 0 23 0;
#X connect 18 1 27 0;
#X connect 19 0 5 0;
#X connect 20 0 98 0;
#X connect 21 0 22 0;
#X connect 22 0 18 1;
#X connect 22 1 19 1;
#X connect 24 0 15 0;
#X connect 25 0 24 1;
#X connect 26 0 25 0;
#X connect 27 0 20 0;
#X connect 27 1 25 0;
#X connect 31 0 35 0;
#X connect 32 0 38 0;
#X connect 33 0 50 0;
#X connect 34 0 21 0;
#X connect 34 1 20 0;
#X connect 34 2 26 0;
#X connect 35 0 39 0;
#X connect 36 0 12 0;
#X connect 36 1 89 0;
#X connect 36 2 10 0;
#X connect 36 3 6 0;
#X connect 36 4 86 0;
#X connect 37 0 12 0;
#X connect 37 1 89 0;
#X connect 37 2 10 0;
#X connect 37 3 7 0;
#X connect 37 4 86 0;
#X connect 38 0 78 0;
#X connect 38 1 40 0;
#X connect 38 2 44 0;
#X connect 39 0 97 0;
#X connect 39 1 40 0;
#X connect 39 2 45 0;
#X connect 40 0 41 0;
#X connect 42 0 43 0;
#X connect 43 0 48 0;
#X connect 43 1 76 0;
#X connect 43 1 96 0;
#X connect 44 0 43 1;
#X connect 45 0 43 1;
#X connect 48 0 49 1;
#X connect 48 0 61 1;
#X connect 48 0 62 1;
#X connect 48 0 69 3;
#X connect 49 0 70 0;
#X connect 50 0 32 0;
#X connect 50 1 35 0;
#X connect 51 0 38 0;
#X connect 51 1 31 0;
#X connect 54 0 49 0;
#X connect 55 0 56 0;
#X connect 56 0 57 0;
#X connect 57 0 58 0;
#X connect 57 1 58 0;
#X connect 58 0 59 0;
#X connect 59 0 82 0;
#X connect 60 0 65 0;
#X connect 60 1 67 0;
#X connect 61 0 60 0;
#X connect 62 0 63 0;
#X connect 63 1 69 0;
#X connect 64 0 66 0;
#X connect 64 1 61 0;
#X connect 65 0 66 1;
#X connect 66 0 62 0;
#X connect 67 0 68 0;
#X connect 67 1 69 0;
#X connect 68 0 66 1;
#X connect 69 0 70 0;
#X connect 70 0 71 0;
#X connect 71 1 87 0;
#X connect 71 2 87 0;
#X connect 76 0 75 1;
#X connect 78 0 80 0;
#X connect 79 0 78 1;
#X connect 79 1 15 0;
#X connect 79 2 22 0;
#X connect 80 0 54 0;
#X connect 80 1 84 0;
#X connect 80 2 81 0;
#X connect 81 0 55 0;
#X connect 81 1 83 0;
#X connect 82 0 90 0;
#X connect 82 1 64 0;
#X connect 83 0 85 0;
#X connect 84 0 54 0;
#X connect 84 1 55 0;
#X connect 84 2 85 0;
#X connect 85 0 87 1;
#X connect 85 1 82 1;
#X connect 86 0 35 0;
#X connect 87 0 91 0;
#X connect 87 1 75 0;
#X connect 89 0 88 0;
#X connect 91 0 94 0;
#X connect 91 1 95 0;
#X connect 92 0 93 0;
#X connect 93 0 94 1;
#X connect 94 0 75 0;
#X connect 95 0 92 0;
#X connect 96 0 97 1;
#X connect 98 0 78 1;
#X connect 98 1 24 0;
#X connect 98 2 22 0;
#X restore 93 247 pd copy;
#N canvas 67 87 736 379 cursor 0;
#X obj 134 14 receive ^&*allcurs;
#X obj 134 37 route 1 2 0 3 4;
#X obj 134 62 list;
#X obj 151 130 list;
#X obj 174 62 list;
#X obj 215 63 list;
#X obj 132 302 hcs/sys_gui;
#X msg 134 89 set ::cursor_runmode_nothing "left_side" \, \$1 configure
-cursor $cursor_runmode_nothing;
#X msg 151 159 set ::cursor_runmode_nothing "top_side" \, \$1 configure
-cursor $cursor_runmode_nothing;
#X msg 174 199 set ::cursor_runmode_nothing "arrow" \, \$1 configure
-cursor $cursor_runmode_nothing;
#X msg 215 247 set ::cursor_runmode_nothing "dot" \, \$1 configure
-cursor $cursor_runmode_nothing;
#X connect 0 0 1 0;
#X connect 1 0 2 0;
#X connect 1 1 3 0;
#X connect 1 2 4 0;
#X connect 1 3 2 0;
#X connect 1 4 5 0;
#X connect 2 0 7 0;
#X connect 3 0 8 0;
#X connect 4 0 9 0;
#X connect 5 0 10 0;
#X connect 7 0 6 0;
#X connect 8 0 6 0;
#X connect 9 0 6 0;
#X connect 10 0 6 0;
#X restore 93 224 pd cursor;
#N canvas 299 99 1020 669 help 0;
#X obj 285 -125 receive help%%%;
#X obj 387 16 spigot 1;
#X obj 462 119 text define \$0-pre;
#X msg 462 96 read -c ../helpfiles/docfiles/context_commands.csv;
#X obj 373 217 until;
#X obj 405 242 + 16;
#X obj 469 296 + 1;
#X obj 441 296 + 2;
#X obj 414 321 text get \$0-pre;
#X obj 414 344 route bang;
#X obj 432 370 collect;
#X obj 458 232 text define \$0-pro;
#X obj 432 393 list;
#X obj 373 242 f 16;
#X obj 452 166 f 16;
#X obj 432 450 text set \$0-pro;
#X msg 458 207 clear;
#X obj 373 145 text size \$0-pre;
#X obj 373 168 / 16;
#X obj 414 296 + 5;
#X obj 373 265 t b f f f f f f f f f;
#X obj 388 296 + 7;
#X obj 432 416 t l l;
#X obj 459 475 list length;
#X obj 459 498 max;
#X obj 444 632 iemguts/sendcanvas;
#X obj 444 566 pack f f \$0;
#X obj 243 455 s 1-\$0-search;
#X obj 312 406 list prepend 0;
#X obj 243 431 list prepend;
#X obj 482 344 / 16;
#X obj 482 367 - 1;
#X obj 591 349 receive \$0-found;
#X obj 459 544 + 1;
#X obj 270 370 s \$0-sstart;
#X msg 444 589 obj 0 500 clone ctxfiles/helpsearch \$2 \$3 \; \$3-searchstart
bang;
#X obj 459 521 t f f f;
#X obj 243 599 makefilename %d-\$0-search;
#X obj 243 622 iemguts/oreceive \$0n;
#X obj 373 193 t f f f;
#X obj 600 245 array define \$0-matches 1;
#X msg 600 220 resize \$1;
#X obj 270 347 f 1;
#X obj 591 395 tabread \$0-matches;
#X obj 591 418 + 1;
#X obj 591 441 tabwrite \$0-matches;
#X obj 591 372 t f f;
#X msg 622 192 const 0;
#X obj 243 300 cyclone/iter;
#X obj 243 691 print no match found;
#X obj 243 323 t a b;
#X obj -35 147 array max \$0-matches;
#X obj 67 262 * 16;
#X obj 285 -102 l2s;
#X obj 285 -79 t s s;
#X obj 285 -54 sel sym^^;
#X obj 336 -29 s2l;
#X obj 69 126 + 1;
#X obj -35 170 moses;
#X obj 92 147 list length;
#X obj -8 193 t b;
#X obj -35 193 t b;
#X obj -10 123 t f;
#X obj 387 43 t b b b b f b;
#X obj 432 68 s \$0-helpstart;
#X obj -150 472 list prepend;
#X obj -150 495 list trim;
#X obj -150 518 print COMMAND;
#X obj -150 447 helpprint 1 \$0 1;
#X obj -133 421 helpprint 0 \$0 1;
#X obj -167 544 helpprint 7 \$0;
#X obj 238 149 f;
#X obj 265 196 + 1;
#X obj 265 221 mod 4;
#X obj 67 285 demux 0 1 2 3;
#X obj 38 405 helpprint 3 \$0;
#X obj 22 428 helpprint 4 \$0;
#X obj 6 451 helpprint 13 \$0;
#X obj -9 474 helpprint 14 \$0;
#X obj 238 119 t f;
#X obj 121 15 t b b;
#X obj 5 528 print -n;
#X msg 5 505  ;
#X obj -167 395 t f f f b;
#X obj -9 382 t f f f f b;
#X obj 238 172 t f f;
#X obj 117 310 t f f b;
#X obj 136 333 helpprint 11 \$0;
#X obj 117 356 helpprint 10 \$0;
#X obj -6 5 t b b;
#X obj 82 172 v \$0-match;
#X obj -35 97 v \$0-match;
#X obj 67 217 v \$0-match;
#X obj 67 240 + 1;
#X obj -6 28 v \$0-match;
#X obj -6 51 + 1;
#X obj 336 -7 t b a a b b b l;
#X obj 243 645 list;
#X obj 243 668 list trim;
#X text 350 -77 1: see if the received command is a repeat or a new
command;
#X symbolatom 198 -126 10 0 0 0 - - -, f 10;
#X text 474 31 2: read help text file the first time to pre;
#X text 505 287 3: compile relevant terms from text file to pro;
#X text 573 627 4: create clone search object based on the maximum
number of terms in pro;
#X text 156 389 5: send search terms to clone abstractions;
#X text 716 361 6: for every match \, add 1 to the corresponding array
index, f 31;
#X text -226 120 7: identify array indeces which have the same value
as there are number of search terms, f 31;
#X text -135 351 8: print out correct terms from pre;
#X text 158 30 9: if same command is repeated \, forward print counter
, f 31;
#X text 152 261 10: if counter reaches 3 \, search for next matching
term, f 30;
#X connect 0 0 53 0;
#X connect 1 0 63 0;
#X connect 3 0 2 0;
#X connect 4 0 13 0;
#X connect 5 0 13 1;
#X connect 6 0 8 0;
#X connect 7 0 8 0;
#X connect 8 0 9 0;
#X connect 9 1 10 1;
#X connect 10 0 12 0;
#X connect 12 0 22 0;
#X connect 13 0 20 0;
#X connect 14 0 13 1;
#X connect 14 0 5 1;
#X connect 14 0 18 1;
#X connect 14 0 30 1;
#X connect 14 0 52 1;
#X connect 16 0 11 0;
#X connect 17 0 18 0;
#X connect 18 0 39 0;
#X connect 19 0 8 0;
#X connect 20 0 10 0;
#X connect 20 2 21 0;
#X connect 20 3 19 0;
#X connect 20 4 7 0;
#X connect 20 5 6 0;
#X connect 20 6 8 0;
#X connect 20 7 15 1;
#X connect 20 8 30 0;
#X connect 20 9 5 0;
#X connect 21 0 8 0;
#X connect 22 0 15 0;
#X connect 22 1 23 0;
#X connect 23 0 24 0;
#X connect 24 0 36 0;
#X connect 26 0 35 0;
#X connect 28 0 29 1;
#X connect 29 0 27 0;
#X connect 30 0 31 0;
#X connect 31 0 10 1;
#X connect 32 0 46 0;
#X connect 33 0 26 1;
#X connect 35 0 25 0;
#X connect 36 0 33 0;
#X connect 36 1 37 0;
#X connect 36 2 24 1;
#X connect 37 0 38 0;
#X connect 38 0 97 0;
#X connect 39 0 4 0;
#X connect 39 1 28 0;
#X connect 39 2 41 0;
#X connect 41 0 40 0;
#X connect 42 0 34 0;
#X connect 43 0 44 0;
#X connect 44 0 45 0;
#X connect 46 0 43 0;
#X connect 46 1 45 1;
#X connect 47 0 40 0;
#X connect 48 0 50 0;
#X connect 50 0 29 0;
#X connect 50 1 42 0;
#X connect 51 0 58 0;
#X connect 51 1 90 0;
#X connect 52 0 74 0;
#X connect 53 0 54 0;
#X connect 54 0 55 1;
#X connect 54 1 55 0;
#X connect 55 0 80 0;
#X connect 55 1 56 0;
#X connect 56 0 96 0;
#X connect 58 0 61 0;
#X connect 58 1 60 0;
#X connect 59 0 58 1;
#X connect 60 0 92 0;
#X connect 61 0 97 0;
#X connect 62 0 51 0;
#X connect 63 0 26 0;
#X connect 63 1 17 0;
#X connect 63 2 14 0;
#X connect 63 2 16 0;
#X connect 63 3 64 0;
#X connect 63 4 1 1;
#X connect 63 5 3 0;
#X connect 65 0 66 0;
#X connect 66 0 67 0;
#X connect 68 0 65 0;
#X connect 69 0 65 1;
#X connect 71 0 85 0;
#X connect 72 0 73 0;
#X connect 73 0 71 1;
#X connect 74 0 83 0;
#X connect 74 1 84 0;
#X connect 74 2 86 0;
#X connect 74 3 89 0;
#X connect 79 0 71 0;
#X connect 80 0 91 0;
#X connect 80 1 71 0;
#X connect 82 0 81 0;
#X connect 83 0 70 0;
#X connect 83 1 68 0;
#X connect 83 2 69 0;
#X connect 83 3 82 0;
#X connect 84 0 78 0;
#X connect 84 1 77 0;
#X connect 84 2 76 0;
#X connect 84 3 75 0;
#X connect 84 4 82 0;
#X connect 85 0 74 1;
#X connect 85 1 72 0;
#X connect 86 0 88 0;
#X connect 86 1 87 0;
#X connect 86 2 82 0;
#X connect 89 0 94 0;
#X connect 89 1 79 0;
#X connect 91 0 51 0;
#X connect 92 0 93 0;
#X connect 93 0 52 0;
#X connect 94 0 95 0;
#X connect 95 0 51 0;
#X connect 96 0 62 0;
#X connect 96 1 59 0;
#X connect 96 2 48 0;
#X connect 96 3 47 0;
#X connect 96 4 1 0;
#X connect 96 5 79 0;
#X connect 96 6 97 1;
#X connect 97 0 98 0;
#X connect 98 0 49 0;
#X connect 100 0 53 0;
#X restore 93 293 pd help;
#X obj 300 140 declare -path ../;
#N canvas 67 89 450 652 symbol-size 0;
#X obj 143 17 loadbang;
#X msg 181 63 read config-textsize.pd;
#X obj 181 86 text define \$0-symsize;
#X msg 142 63 clear;
#X obj 142 40 t b b b;
#X obj 107 157 unpack s f;
#X obj 107 203 text get \$0-symsize;
#X obj 117 17 bng 15 250 50 0 empty empty empty 17 7 0 10 -262144 -1
-1;
#X obj 107 180 text search \$0-symsize 11;
#X obj 107 227 cyclone/zl nth 22;
#X obj 107 250 demux 0 1 2;
#X obj 146 298 -;
#X obj 146 346 * 10;
#X obj 126 373 -;
#X obj 126 395 v -(xoffset);
#X obj 158 321 v -(xsize);
#X obj 170 279 v -(ysize);
#X obj 237 279 s \$0-ysymsize;
#X obj 237 396 s \$0-xsymoff;
#X obj 237 330 s \$0-xsymsize;
#X obj 107 276 t b f f;
#X obj 63 423 - 4;
#X obj 101 395 * 2;
#X obj 63 370 f 126;
#X obj 63 446 div 6;
#X obj 63 471 v -(xmenu);
#X obj 104 501 pack f -10;
#X obj 104 524 s paraquery";
#X obj 243 452 receive -10-paramy;
#X obj 243 475 unpack f f f f;
#X obj 243 498 - 101;
#X obj 297 498 * 6;
#X obj 243 521 t f f;
#X obj 243 593 array set params£ 24;
#X obj 351 548 + 88;
#X obj 243 570 pack 32 87 17 90 120 17;
#X msg 107 134 y-sym-val 2 \, x1-sym-val 1 \, x2-sym-val 0;
#X obj 357 309 + 6;
#X obj 357 332 v -(ysize6);
#X obj 360 370 / 12;
#X obj 360 393 * 8;
#X text 385 392 <--label font size;
#X obj 360 438 v -(labsize);
#X obj 360 416 + 1;
#X connect 0 0 4 0;
#X connect 1 0 2 0;
#X connect 3 0 2 0;
#X connect 4 0 3 0;
#X connect 4 1 36 0;
#X connect 4 2 1 0;
#X connect 5 0 8 0;
#X connect 5 1 10 1;
#X connect 6 0 9 0;
#X connect 7 0 4 0;
#X connect 8 0 6 0;
#X connect 9 0 10 0;
#X connect 10 0 20 0;
#X connect 10 1 11 1;
#X connect 10 2 16 0;
#X connect 10 2 17 0;
#X connect 10 2 35 2;
#X connect 10 2 35 5;
#X connect 10 2 37 0;
#X connect 11 0 12 0;
#X connect 11 0 15 0;
#X connect 11 0 19 0;
#X connect 11 0 24 1;
#X connect 11 0 31 1;
#X connect 11 0 39 0;
#X connect 12 0 13 1;
#X connect 13 0 14 0;
#X connect 13 0 18 0;
#X connect 13 0 22 0;
#X connect 20 0 23 0;
#X connect 20 1 13 0;
#X connect 20 2 11 0;
#X connect 21 0 24 0;
#X connect 22 0 21 1;
#X connect 23 0 21 0;
#X connect 24 0 25 0;
#X connect 24 0 26 0;
#X connect 26 0 27 0;
#X connect 28 0 29 0;
#X connect 29 0 30 0;
#X connect 29 2 31 0;
#X connect 30 0 32 0;
#X connect 31 0 35 3;
#X connect 32 0 35 0;
#X connect 32 1 34 0;
#X connect 34 0 35 4;
#X connect 35 0 33 0;
#X connect 36 0 5 0;
#X connect 37 0 38 0;
#X connect 39 0 40 0;
#X connect 40 0 43 0;
#X connect 43 0 42 0;
#X restore 93 316 pd symbol-size;
#N canvas 364 92 625 587 record 1;
#X obj 321 373 receive 54y3g%%Thhg;
#X obj 321 400 t b a;
#X obj 335 447 ctxfiles/recompile \$0;
#X obj 205 461 cyclone/zl iter 1;
#X obj 119 20 receive \$0-profile;
#X obj 158 65 s \$0-roff;
#X obj 119 86 s \$0-roff2;
#X obj 366 33 loadbang;
#X msg 366 56 read record-profiles.txt;
#X obj 366 79 text define \$0-rec;
#X obj 157 178 text search \$0-rec;
#X obj 157 201 sel -1;
#X msg 157 224 profile not found;
#X obj 157 247 print :r;
#X obj 230 270 text get \$0-rec;
#X obj 230 293 list split 1;
#X obj 205 483 ctxfiles/br2 route 1 \; -source tf \$0 #f \; -delay
tf \$0 #f \; -trigger tf \$0 #f \; -output tf \$0 #f \; -prepend tf
\$0 #f \; -append tf \$0 #f \; -stop tf \$0 #f \; -first tf \$0 #f
\; -playback tf \$0 #f \; -toggleprep tf \$0 #f \; -exclude tf \$0
#f \; -floats tf \$0 #f \; -lock tf \$0 #f \; -floatprep tf \$0 #f
\; -pattern tf \$0 #f \; -messages tf \$0 #f \; -messprep tf \$0 #f
\; bang t \; -interrupt tf \$0 #f \; -profile tf \$0 #f \; ## s \$0-othr
;
#X obj 335 470 ctxfiles/br2 demux 2 \; #f t \; #f gs r-source \; #f
gs r-delay \; #f gs r-trigger \; #f gs r-output \; #f gs r-prepend
\; #f gs r-append \; #f gs r-stop \; #f gs r-first \; #f gs r-playback
\; #f gs r-toggleprep \; #f gs r-exclude \; #f gs r-floats \; #f gs
r-lock \; #f gs r-floatprep \; #f gs r-pattern \; #f gs r-messages
\; #f gs r-messprep \; #f gs r-bang \; #f t \; #f s \$0-profile \;
;
#X obj 402 240 t f;
#X obj 138 109 spigot 1;
#X obj 138 132 t b a b;
#X obj 200 109 t f;
#X obj 200 132 f 1;
#X obj 264 316 cyclone/substitute;
#X obj 157 155 list split 1;
#X msg 369 287 %% \$1;
#X obj 369 263 list 0;
#X obj 230 247 t f b;
#X obj 119 43 t b a b;
#X connect 0 0 1 0;
#X connect 1 0 2 0;
#X connect 1 1 3 0;
#X connect 2 0 17 0;
#X connect 2 1 17 1;
#X connect 3 0 16 0;
#X connect 4 0 28 0;
#X connect 7 0 8 0;
#X connect 8 0 9 0;
#X connect 10 0 11 0;
#X connect 11 0 12 0;
#X connect 11 1 27 0;
#X connect 12 0 13 0;
#X connect 14 0 15 0;
#X connect 15 1 23 0;
#X connect 18 0 26 1;
#X connect 19 0 20 0;
#X connect 20 0 22 0;
#X connect 20 1 24 0;
#X connect 20 2 21 0;
#X connect 21 0 19 1;
#X connect 22 0 19 1;
#X connect 23 0 1 0;
#X connect 23 1 1 0;
#X connect 24 0 10 0;
#X connect 24 1 18 0;
#X connect 25 0 23 1;
#X connect 26 0 25 0;
#X connect 27 0 14 0;
#X connect 27 1 26 0;
#X connect 28 0 6 0;
#X connect 28 1 19 0;
#X connect 28 2 5 0;
#X restore 93 339 pd record language;
#X connect 6 0 7 0;
#X connect 7 0 8 0;
