#N canvas 413 197 635 300 10;
#N canvas 531 256 555 365 sub 1;
#X obj 345 2 loadbang;
#X obj 345 46 t b b;
#X obj 345 91 v \$1-v;
#X msg 345 68 1;
#X obj 345 113 sel 0;
#X obj 425 248 list trim;
#X obj 425 224 list prepend obj 100 100;
#X obj 105 252 list;
#X obj 119 221 f;
#X obj 133 192 s \$1-share;
#X obj 105 97 spigot \$2;
#X obj 189 122 array size \$1;
#X obj 175 144 array get \$1;
#X obj 105 274 array set \$1;
#X obj 345 167 list split 2;
#X obj 91 300 s \$1-cb;
#X obj 425 272 outlet;
#X obj 63 4 inlet;
#X obj 446 145 outlet;
#X obj 345 146 inlet;
#X msg 161 168 delete 4;
#X msg 237 35 1;
#X obj 63 26 spigot;
#X obj 345 24 spigot 1;
#X obj 379 214 t f;
#X obj 63 50 t b b b b b b f b b b b;
#X obj 201 85 s \$0-bc;
#X obj 402 22 receive \$1-share;
#X obj 231 281 iemguts/canvasdelete;
#X obj 379 188 t b b a;
#X msg 355 244 loadbang;
#X connect 0 0 23 0;
#X connect 1 0 3 0;
#X connect 1 1 2 0;
#X connect 2 0 4 0;
#X connect 3 0 2 0;
#X connect 4 0 18 0;
#X connect 4 0 21 0;
#X connect 5 0 16 0;
#X connect 6 0 5 0;
#X connect 7 0 13 0;
#X connect 8 0 11 0;
#X connect 10 0 7 0;
#X connect 11 0 8 1;
#X connect 12 0 7 1;
#X connect 14 1 29 0;
#X connect 17 0 22 0;
#X connect 19 0 14 0;
#X connect 20 0 16 0;
#X connect 21 0 22 1;
#X connect 22 0 25 0;
#X connect 23 0 1 0;
#X connect 24 0 23 1;
#X connect 25 2 15 0;
#X connect 25 3 10 0;
#X connect 25 4 8 0;
#X connect 25 5 9 0;
#X connect 25 6 2 0;
#X connect 25 7 20 0;
#X connect 25 8 12 0;
#X connect 25 9 11 0;
#X connect 25 10 26 0;
#X connect 27 0 1 0;
#X connect 29 0 24 0;
#X connect 29 2 6 0;
#X connect 30 0 16 0;
#X restore 313 120 pd sub;
#X obj 313 145 iemguts/sendcanvas;
#X obj 313 96 iemguts/closebang;
#X obj 361 120 iemguts/canvasargs;
#X connect 0 0 1 0;
#X connect 0 1 3 0;
#X connect 2 0 0 0;
#X connect 3 0 0 1;
