#N canvas 348 293 635 446 10;
#X obj 338 100 symbol \$0-nope;
#X obj 368 148 receive \$0-nope;
#X obj 315 171 spigot 1;
#X msg 251 308 vis 1;
#X obj 315 31 myinit 2;
#X obj 315 399 s pd-\$0-tmp;
#X msg 259 259 vis 0;
#X obj 315 8 inlet;
#X obj 315 213 t f b b;
#X obj 338 146 s;
#X obj 315 57 t f b f;
#X obj 315 316 list append \$1;
#X msg 315 348 obj 100 100 \$2 \$1;
#X obj 361 123 makefilename \$1-%doij0zB;
#X obj 217 8 receive Rf&Nm<>;
#X obj 417 287 pack s \$0;
#X msg 417 310 \; pd menunew \$2-tmp \$1;
#X obj 417 260 ggee/getdir 1;
#X obj 145 118 iemguts/closebang;
#X obj 145 221 f 1;
#X obj 100 248 spigot 1;
#X obj 162 188 s \$1-dd;
#X obj 76 188 receive \$1-dd;
#X obj 145 141 t b b f b;
#X obj 196 164 s \$1-d;
#X obj 100 271 s \$1-c;
#X connect 0 0 9 0;
#X connect 1 0 2 1;
#X connect 2 0 8 0;
#X connect 3 0 5 0;
#X connect 4 0 10 0;
#X connect 6 0 5 0;
#X connect 7 0 4 0;
#X connect 8 0 11 0;
#X connect 8 1 6 0;
#X connect 8 2 17 0;
#X connect 10 0 2 0;
#X connect 10 1 0 0;
#X connect 10 2 13 0;
#X connect 11 0 12 0;
#X connect 12 0 5 0;
#X connect 13 0 9 1;
#X connect 14 0 4 0;
#X connect 15 0 16 0;
#X connect 17 0 15 0;
#X connect 18 0 23 0;
#X connect 19 0 20 1;
#X connect 20 0 25 0;
#X connect 22 0 20 0;
#X connect 23 0 19 0;
#X connect 23 1 21 0;
#X connect 23 2 20 1;
#X connect 23 3 24 0;
