#N canvas 217 294 450 300 10;
#N canvas 103 298 1260 359 params 0;
#X obj 85 65 receive paraquery";
#X obj 85 87 unpack;
#X obj 85 131 - 3;
#X obj 85 153 * 4;
#X obj 85 109 moses 12;
#X obj 278 170 spigot 1;
#X obj 278 192 t b f;
#X obj 250 145 t f b;
#X msg 278 214 read params.txt;
#X obj 85 175 array get params£ 0 4;
#X obj 138 205 - 5;
#X obj 85 286 send;
#X obj 250 264 makefilename %d-paramy;
#X obj 555 41 receive ^&*allcurs;
#X obj 555 63 change;
#X obj 555 115 sel 1 2 3;
#X obj 555 85 pipe 50;
#X obj 475 64 r onn;
#X obj 475 86 metro 1000;
#X obj 475 108 f;
#X obj 475 130 + 1;
#X obj 475 152 mod 4;
#X obj 905 135 sel 1 2 3;
#X obj 900 280 t;
#X msg 905 163 set ::cursor_runmode_nothing "left_side";
#X msg 922 190 set ::cursor_runmode_nothing "top_side";
#X msg 956 216 set ::cursor_runmode_nothing "arrow";
#X msg 787 74 runmode_nothing left_side \, \$1 configure -c $cursor_runmode_nothing
;
#X obj 922 249 hcs/sys_gui;
#X obj 697 100 bng 15 250 50 0 empty empty empty 17 7 0 10 -262144
-1 -1;
#X obj 697 120 del 1000;
#X msg 588 176 set ::cursor_runmode_nothing "left_side" \, \$1 configure
-cursor $cursor_runmode_nothing;
#X obj 266 88 array get params£ 0 1;
#X obj 266 20 receive fadequer^^;
#X obj 266 42 unpack;
#X obj 299 64 t f b;
#X obj 299 110 makefilename %d-fadeq;
#X obj 278 236 array define params£ 42;
#X obj 557 225 symbol hcs/sys_gui;
#X obj 555 141 symbol hcs/canvas_name;
#X msg 138 230 138 5 \$1 101;
#X text -199 231 change this value if text size changes again-->;
#X connect 0 0 1 0;
#X connect 1 0 4 0;
#X connect 1 1 7 0;
#X connect 2 0 3 0;
#X connect 3 0 9 0;
#X connect 4 0 2 0;
#X connect 4 1 10 0;
#X connect 5 0 6 0;
#X connect 6 0 8 0;
#X connect 6 1 5 1;
#X connect 7 0 12 0;
#X connect 7 1 5 0;
#X connect 8 0 37 0;
#X connect 9 0 11 0;
#X connect 10 0 40 0;
#X connect 12 0 11 1;
#X connect 13 0 14 0;
#X connect 14 0 16 0;
#X connect 15 0 39 0;
#X connect 15 2 39 0;
#X connect 16 0 15 0;
#X connect 17 0 18 0;
#X connect 18 0 19 0;
#X connect 19 0 20 0;
#X connect 20 0 21 0;
#X connect 21 0 19 1;
#X connect 21 0 15 0;
#X connect 22 0 24 0;
#X connect 22 1 25 0;
#X connect 22 2 24 0;
#X connect 22 3 26 0;
#X connect 24 0 23 0;
#X connect 24 0 28 0;
#X connect 25 0 23 0;
#X connect 25 0 28 0;
#X connect 26 0 23 0;
#X connect 26 0 28 0;
#X connect 29 0 30 0;
#X connect 30 0 39 0;
#X connect 32 0 11 0;
#X connect 33 0 34 0;
#X connect 34 0 32 0;
#X connect 34 1 35 0;
#X connect 35 0 36 0;
#X connect 35 1 5 0;
#X connect 36 0 11 1;
#X connect 39 0 31 0;
#X connect 40 0 11 0;
#X restore 93 109 pd params;
#N canvas 65 81 602 687 colours 0;
#X obj 126 48 unpack f f;
#X obj 126 70 moses;
#X obj 212 657 send;
#X msg 318 56 read colours.txt;
#X obj 318 79 array define colours£ 30;
#X obj 158 112 array get colours£ 0 1;
#X obj 170 216 / -65536;
#X obj 247 217 / -256;
#X obj 170 238 mod 256;
#X obj 247 239 mod 256;
#X obj 313 239 mod 256;
#X obj 313 324 mod 256;
#X obj 247 324 mod 256;
#X obj 170 324 mod 256;
#X obj 170 302 + 128;
#X obj 247 302 + 128;
#X obj 313 302 + 128;
#X obj 170 346 * -65536;
#X obj 247 347 * -256;
#X obj 313 347 * -1;
#X obj 153 162 moses 0;
#X obj 313 261 t f f;
#X obj 247 261 t f f;
#X obj 170 260 t f f;
#X obj 419 433 >= 2;
#X obj 419 456 - 1;
#X obj 419 478 t f f;
#X obj 247 389 +;
#X obj 232 415 +;
#X obj 493 371 +;
#X obj 478 397 +;
#X obj 446 499 + 1;
#X obj 446 521 * -1;
#X obj 313 217 * -1;
#X obj 153 186 t f f f f;
#X obj 293 507 demux;
#X obj 232 474 t f f;
#X obj 212 606 pack f f f f f f;
#X msg 303 425 1;
#X obj 232 445 demux;
#X obj 126 136 t f f b;
#X msg 297 395 0;
#X obj 293 557 t f f b;
#X obj 324 531 + 64;
#X obj 293 531 - 64;
#X obj 533 327 < 128;
#X obj 493 327 < 128;
#X obj 453 327 < 128;
#X obj 146 574 receive \$1-colobang;
#X obj 126 5 receive colourquery";
#X obj 318 10 spigot 1;
#X obj 126 27 t l b;
#X obj 158 91 mod 30;
#X obj 237 634 makefilename %d-primary-col;
#X obj 318 32 t b b f;
#X msg 357 109 read tog-col-key.txt;
#X obj 357 131 text define col-key#^&;
#X connect 0 0 1 0;
#X connect 0 1 53 0;
#X connect 1 0 40 0;
#X connect 1 1 52 0;
#X connect 3 0 4 0;
#X connect 5 0 40 0;
#X connect 6 0 8 0;
#X connect 7 0 9 0;
#X connect 8 0 23 0;
#X connect 9 0 22 0;
#X connect 10 0 21 0;
#X connect 11 0 19 0;
#X connect 12 0 18 0;
#X connect 13 0 17 0;
#X connect 14 0 13 0;
#X connect 15 0 12 0;
#X connect 16 0 11 0;
#X connect 17 0 28 0;
#X connect 18 0 27 0;
#X connect 19 0 27 1;
#X connect 20 0 34 0;
#X connect 21 0 16 0;
#X connect 21 1 45 0;
#X connect 22 0 15 0;
#X connect 22 1 46 0;
#X connect 23 0 14 0;
#X connect 23 1 47 0;
#X connect 24 0 25 0;
#X connect 25 0 26 0;
#X connect 26 0 37 2;
#X connect 26 1 31 0;
#X connect 27 0 28 1;
#X connect 28 0 39 0;
#X connect 29 0 30 1;
#X connect 30 0 24 0;
#X connect 31 0 32 0;
#X connect 32 0 37 3;
#X connect 33 0 10 0;
#X connect 34 0 6 0;
#X connect 34 1 7 0;
#X connect 34 3 33 0;
#X connect 35 0 44 0;
#X connect 35 1 43 0;
#X connect 36 0 37 1;
#X connect 36 1 35 0;
#X connect 37 0 2 0;
#X connect 38 0 39 1;
#X connect 39 0 36 0;
#X connect 39 1 37 5;
#X connect 40 0 37 0;
#X connect 40 1 20 0;
#X connect 40 2 41 0;
#X connect 41 0 39 1;
#X connect 42 0 37 4;
#X connect 42 1 34 0;
#X connect 42 2 38 0;
#X connect 43 0 42 0;
#X connect 44 0 42 0;
#X connect 45 0 29 1;
#X connect 45 0 35 1;
#X connect 46 0 29 0;
#X connect 47 0 30 0;
#X connect 48 0 37 0;
#X connect 49 0 51 0;
#X connect 50 0 54 0;
#X connect 51 0 0 0;
#X connect 51 1 50 0;
#X connect 52 0 5 0;
#X connect 53 0 2 1;
#X connect 54 0 3 0;
#X connect 54 1 55 0;
#X connect 54 2 50 1;
#X connect 55 0 56 0;
#X restore 93 132 pd colours;
#N canvas 65 81 880 466 burstline 0;
#X obj 266 334 - 1;
#X obj 183 138 moses;
#X obj 210 91 max;
#X obj 210 113 t f f;
#X obj 210 160 change;
#X obj 210 212 -;
#X obj 210 234 until;
#X obj 210 256 f;
#X obj 210 278 + 1;
#X obj 210 305 t f f f;
#X obj 183 59 t f f;
#X obj 211 357 array set burstline;
#X obj 337 356 array define burstline 1;
#X msg 337 334 resize \$1;
#X obj 210 183 t f f f f;
#X obj 95 237 f;
#X obj 95 259 s linesize%%;
#X obj 183 33 receive linesize%%;
#X obj 95 211 receive ls-cb;
#X obj 303 160 text define #%^dif^%;
#X text 433 159 overlay file;
#X obj 303 91 spigot 1;
#X msg 303 136 read overlay-0.pd;
#X obj 342 231 text define *(presets@#;
#X msg 354 271 read helptext.txt;
#X obj 354 294 text define @(prefs@(;
#X obj 542 231 text define *(shortcuts@#;
#X obj 303 113 t b b b b b f;
#X obj 542 281 text define ^&bpresets();
#X msg 542 259 read ../burst-presets.txt;
#X msg 342 209 read ../load-presets.txt;
#X msg 542 209 read ../menu-shortcuts.txt;
#X obj 303 69 iemguts/initbang;
#X obj 473 106 array define -k 160aassaa 21;
#A 0 160 160 160 160 160 160 160 160 160 160 160 160 160 160 160 160
160 160 160 160 160;
#X connect 0 0 11 1;
#X connect 1 1 4 0;
#X connect 2 0 3 0;
#X connect 3 0 1 1;
#X connect 3 1 2 1;
#X connect 4 0 14 0;
#X connect 5 0 6 0;
#X connect 6 0 7 0;
#X connect 7 0 8 0;
#X connect 8 0 9 0;
#X connect 9 0 11 0;
#X connect 9 1 0 0;
#X connect 9 2 7 1;
#X connect 10 0 1 0;
#X connect 10 1 2 0;
#X connect 13 0 12 0;
#X connect 14 0 5 1;
#X connect 14 1 5 0;
#X connect 14 2 13 0;
#X connect 14 3 15 1;
#X connect 15 0 16 0;
#X connect 17 0 10 0;
#X connect 18 0 15 0;
#X connect 21 0 27 0;
#X connect 22 0 19 0;
#X connect 24 0 25 0;
#X connect 27 0 22 0;
#X connect 27 1 30 0;
#X connect 27 2 24 0;
#X connect 27 3 31 0;
#X connect 27 4 29 0;
#X connect 27 5 21 1;
#X connect 29 0 28 0;
#X connect 30 0 23 0;
#X connect 31 0 26 0;
#X connect 32 0 21 0;
#X restore 93 155 pd burstline;
#X obj 86 71 shared ctxfiles/shareables;
#N canvas 500 305 377 300 license 0;
#X obj 133 13 receive license;
#X obj 165 80 text define license;
#X obj 133 35 t b b;
#X msg 133 107 line 0 \, bang;
#X obj 133 129 text sequence license;
#X obj 108 9 bng 15 250 50 0 empty empty empty 17 7 0 10 -262144 -1
-1;
#X obj 133 151 route bang;
#X msg 133 173  ;
#X obj 200 188 list trim;
#X obj 200 210 print -n;
#X msg 165 58 read -c License.txt;
#X connect 0 0 2 0;
#X connect 2 0 3 0;
#X connect 2 1 10 0;
#X connect 3 0 4 0;
#X connect 4 0 6 0;
#X connect 5 0 2 0;
#X connect 6 0 7 0;
#X connect 6 1 8 0;
#X connect 7 0 9 0;
#X connect 8 0 9 0;
#X connect 10 0 1 0;
#X restore 93 178 pd license;
