#N canvas 65 113 450 289 10;
#X obj 150 68 t b s;
#X obj 150 92 t f;
#X obj 150 116 send;
#X obj 150 44 receive \$1-\$2oij0zB;
#X connect 0 0 1 0;
#X connect 0 1 2 1;
#X connect 1 0 2 0;
#X connect 3 0 0 0;
