#N canvas 185 456 450 300 10;
#N canvas 65 388 1301 359 params 0;
#X obj 85 65 receive paraquery";
#X obj 85 87 unpack;
#X obj 85 131 - 3;
#X obj 85 153 * 4;
#X obj 85 109 moses 12;
#X obj 278 170 spigot 1;
#X obj 278 192 t b f;
#X obj 250 145 t f b;
#X msg 278 234 read params.txt;
#X obj 85 175 array get params£ 0 4;
#X obj 138 205 - 5;
#X obj 85 286 send;
#X obj 250 284 makefilename %d-paramy;
#X obj 599 33 receive ^&*allcurs;
#X obj 266 88 array get params£ 0 1;
#X obj 266 20 receive fadequer^^;
#X obj 266 42 unpack;
#X obj 299 64 t f b;
#X obj 299 110 makefilename %d-fadeq;
#X obj 278 256 array define params£ 42;
#X msg 138 230 138 5 \$1 101;
#X text -199 231 change this value if text size changes again-->;
#X obj 350 179 ../config;
#X msg 377 211 read params-thin.txt;
#X obj 599 56 route 1 2 0 3 4;
#X obj 599 81 list;
#X obj 619 149 list;
#X obj 639 81 list;
#X obj 680 82 list;
#X obj 593 321 hcs/sys_gui;
#X msg 1099 108 set ::cursor_runmode_nothing "left_side" \, \$1 configure
-cursor $cursor_runmode_nothing;
#X msg 1119 178 set ::cursor_runmode_nothing "top_side" \, \$1 configure
-cursor $cursor_runmode_nothing;
#X msg 1139 218 set ::cursor_runmode_nothing "arrow" \, \$1 configure
-cursor $cursor_runmode_nothing;
#X msg 1159 258 set ::cursor_runmode_nothing "dot" \, \$1 configure
-cursor $cursor_runmode_nothing;
#X obj 108 21 hcs/cursor;
#X msg 599 108 set ::cursor_runmode_nothing "left_side" \, \$1 configure
-cursor $cursor_runmode_nothing;
#X msg 619 178 set ::cursor_runmode_nothing "top_side" \, \$1 configure
-cursor $cursor_runmode_nothing;
#X msg 639 218 set ::cursor_runmode_nothing "arrow" \, \$1 configure
-cursor $cursor_runmode_nothing;
#X msg 659 258 set ::cursor_runmode_nothing "dot" \, \$1 configure
-cursor $cursor_runmode_nothing;
#X connect 0 0 1 0;
#X connect 1 0 4 0;
#X connect 1 1 7 0;
#X connect 2 0 3 0;
#X connect 3 0 9 0;
#X connect 4 0 2 0;
#X connect 4 1 10 0;
#X connect 5 0 6 0;
#X connect 6 0 22 2;
#X connect 6 1 5 1;
#X connect 7 0 12 0;
#X connect 7 1 5 0;
#X connect 8 0 19 0;
#X connect 9 0 11 0;
#X connect 10 0 20 0;
#X connect 12 0 11 1;
#X connect 14 0 11 0;
#X connect 15 0 16 0;
#X connect 16 0 14 0;
#X connect 16 1 17 0;
#X connect 17 0 18 0;
#X connect 17 1 5 0;
#X connect 18 0 11 1;
#X connect 20 0 11 0;
#X connect 22 5 8 0;
#X connect 22 6 23 0;
#X connect 23 0 19 0;
#X connect 24 0 25 0;
#X connect 24 1 26 0;
#X connect 24 2 27 0;
#X connect 24 3 25 0;
#X connect 24 4 28 0;
#X connect 25 0 35 0;
#X connect 26 0 36 0;
#X connect 27 0 37 0;
#X connect 28 0 38 0;
#X connect 35 0 29 0;
#X connect 36 0 29 0;
#X connect 37 0 29 0;
#X connect 38 0 29 0;
#X restore 93 109 pd params;
#N canvas 65 89 602 687 colours 0;
#X obj 126 48 unpack f f;
#X obj 126 70 moses;
#X obj 212 657 send;
#X msg 318 56 read colours.txt;
#X obj 318 79 array define colours£ 30;
#X obj 158 112 array get colours£ 0 1;
#X obj 170 216 / -65536;
#X obj 247 217 / -256;
#X obj 170 238 mod 256;
#X obj 247 239 mod 256;
#X obj 313 239 mod 256;
#X obj 313 324 mod 256;
#X obj 247 324 mod 256;
#X obj 170 324 mod 256;
#X obj 170 302 + 128;
#X obj 247 302 + 128;
#X obj 313 302 + 128;
#X obj 170 346 * -65536;
#X obj 247 347 * -256;
#X obj 313 347 * -1;
#X obj 153 162 moses 0;
#X obj 313 261 t f f;
#X obj 247 261 t f f;
#X obj 170 260 t f f;
#X obj 419 433 >= 2;
#X obj 419 456 - 1;
#X obj 419 478 t f f;
#X obj 247 389 +;
#X obj 232 415 +;
#X obj 493 371 +;
#X obj 478 397 +;
#X obj 446 499 + 1;
#X obj 446 521 * -1;
#X obj 313 217 * -1;
#X obj 153 186 t f f f f;
#X obj 293 507 demux;
#X obj 232 474 t f f;
#X obj 212 606 pack f f f f f f;
#X msg 303 425 1;
#X obj 232 445 demux;
#X obj 126 136 t f f b;
#X msg 297 395 0;
#X obj 293 557 t f f b;
#X obj 324 531 + 64;
#X obj 293 531 - 64;
#X obj 533 327 < 128;
#X obj 493 327 < 128;
#X obj 453 327 < 128;
#X obj 146 574 receive \$1-colobang;
#X obj 126 5 receive colourquery";
#X obj 318 10 spigot 1;
#X obj 126 27 t l b;
#X obj 158 91 mod 30;
#X obj 237 634 makefilename %d-primary-col;
#X obj 318 32 t b b f;
#X msg 357 109 read tog-col-key.txt;
#X obj 357 131 text define col-key#^&;
#X obj 72 376 pack f f f;
#X obj 72 426 spigot;
#X obj 72 461 s back-col;
#X connect 0 0 1 0;
#X connect 0 1 53 0;
#X connect 1 0 40 0;
#X connect 1 1 52 0;
#X connect 3 0 4 0;
#X connect 5 0 40 0;
#X connect 6 0 8 0;
#X connect 7 0 9 0;
#X connect 8 0 23 0;
#X connect 9 0 22 0;
#X connect 10 0 21 0;
#X connect 11 0 19 0;
#X connect 11 0 57 2;
#X connect 12 0 18 0;
#X connect 12 0 57 1;
#X connect 13 0 57 0;
#X connect 13 0 17 0;
#X connect 14 0 13 0;
#X connect 15 0 12 0;
#X connect 16 0 11 0;
#X connect 17 0 28 0;
#X connect 18 0 27 0;
#X connect 19 0 27 1;
#X connect 20 0 34 0;
#X connect 21 0 16 0;
#X connect 21 1 45 0;
#X connect 22 0 15 0;
#X connect 22 1 46 0;
#X connect 23 0 14 0;
#X connect 23 1 47 0;
#X connect 24 0 25 0;
#X connect 25 0 26 0;
#X connect 26 0 37 2;
#X connect 26 1 31 0;
#X connect 27 0 28 1;
#X connect 28 0 39 0;
#X connect 29 0 30 1;
#X connect 30 0 24 0;
#X connect 31 0 32 0;
#X connect 32 0 37 3;
#X connect 33 0 10 0;
#X connect 34 0 6 0;
#X connect 34 1 7 0;
#X connect 34 3 33 0;
#X connect 35 0 44 0;
#X connect 35 1 43 0;
#X connect 36 0 37 1;
#X connect 36 1 35 0;
#X connect 37 0 2 0;
#X connect 38 0 39 1;
#X connect 38 0 58 1;
#X connect 39 0 36 0;
#X connect 39 1 37 5;
#X connect 40 0 37 0;
#X connect 40 1 20 0;
#X connect 40 2 41 0;
#X connect 41 0 39 1;
#X connect 41 0 58 1;
#X connect 42 0 37 4;
#X connect 42 1 34 0;
#X connect 42 2 38 0;
#X connect 43 0 42 0;
#X connect 44 0 42 0;
#X connect 45 0 29 1;
#X connect 45 0 35 1;
#X connect 46 0 29 0;
#X connect 47 0 30 0;
#X connect 48 0 37 0;
#X connect 49 0 51 0;
#X connect 50 0 54 0;
#X connect 51 0 0 0;
#X connect 51 1 50 0;
#X connect 52 0 5 0;
#X connect 53 0 2 1;
#X connect 54 0 3 0;
#X connect 54 1 55 0;
#X connect 54 2 50 1;
#X connect 55 0 56 0;
#X connect 57 0 58 0;
#X connect 58 0 59 0;
#X restore 93 132 pd colours;
#N canvas 65 81 880 466 burstline 0;
#X obj 266 334 - 1;
#X obj 183 138 moses;
#X obj 210 91 max;
#X obj 210 113 t f f;
#X obj 210 160 change;
#X obj 210 212 -;
#X obj 210 234 until;
#X obj 210 256 f;
#X obj 210 278 + 1;
#X obj 210 305 t f f f;
#X obj 183 59 t f f;
#X obj 211 357 array set burstline;
#X obj 337 356 array define burstline 1;
#X msg 337 334 resize \$1;
#X obj 210 183 t f f f f;
#X obj 95 237 f;
#X obj 95 259 s linesize%%;
#X obj 183 33 receive linesize%%;
#X obj 95 211 receive ls-cb;
#X obj 303 160 text define #%^dif^%;
#X text 433 159 overlay file;
#X obj 303 91 spigot 1;
#X msg 303 136 read overlay-0.pd;
#X obj 342 231 text define *(presets@#;
#X msg 354 271 read helptext.txt;
#X obj 354 294 text define @(prefs@(;
#X obj 542 231 text define *(shortcuts@#;
#X obj 303 113 t b b b b b f;
#X obj 542 281 text define ^&bpresets();
#X msg 542 259 read ../burst-presets.txt;
#X msg 342 209 read ../load-presets.txt;
#X msg 542 209 read ../menu-shortcuts.txt;
#X obj 303 69 iemguts/initbang;
#X obj 473 106 array define -k 160aassaa 21;
#A 0 160 160 160 160 160 160 160 160 160 160 160 160 160 160 160 160
160 160 160 160 160;
#X connect 0 0 11 1;
#X connect 1 1 4 0;
#X connect 2 0 3 0;
#X connect 3 0 1 1;
#X connect 3 1 2 1;
#X connect 4 0 14 0;
#X connect 5 0 6 0;
#X connect 6 0 7 0;
#X connect 7 0 8 0;
#X connect 8 0 9 0;
#X connect 9 0 11 0;
#X connect 9 1 0 0;
#X connect 9 2 7 1;
#X connect 10 0 1 0;
#X connect 10 1 2 0;
#X connect 13 0 12 0;
#X connect 14 0 5 1;
#X connect 14 1 5 0;
#X connect 14 2 13 0;
#X connect 14 3 15 1;
#X connect 15 0 16 0;
#X connect 17 0 10 0;
#X connect 18 0 15 0;
#X connect 21 0 27 0;
#X connect 22 0 19 0;
#X connect 24 0 25 0;
#X connect 27 0 22 0;
#X connect 27 1 30 0;
#X connect 27 2 24 0;
#X connect 27 3 31 0;
#X connect 27 4 29 0;
#X connect 27 5 21 1;
#X connect 29 0 28 0;
#X connect 30 0 23 0;
#X connect 31 0 26 0;
#X connect 32 0 21 0;
#X restore 93 155 pd burstline;
#X obj 86 71 shared ctxfiles/shareables;
#N canvas 500 305 377 300 license 0;
#X obj 133 13 receive license;
#X obj 165 80 text define license;
#X obj 133 35 t b b;
#X msg 133 107 line 0 \, bang;
#X obj 133 129 text sequence license;
#X obj 108 9 bng 15 250 50 0 empty empty empty 17 7 0 10 -262144 -1
-1;
#X obj 133 151 route bang;
#X msg 133 173  ;
#X obj 200 188 list trim;
#X obj 200 210 print -n;
#X msg 165 58 read -c License.txt;
#X connect 0 0 2 0;
#X connect 2 0 3 0;
#X connect 2 1 10 0;
#X connect 3 0 4 0;
#X connect 4 0 6 0;
#X connect 5 0 2 0;
#X connect 6 0 7 0;
#X connect 6 1 8 0;
#X connect 7 0 9 0;
#X connect 8 0 9 0;
#X connect 10 0 1 0;
#X restore 93 178 pd license;
#N canvas 393 93 721 687 repack 0;
#X obj 343 37 receive repack%g&hk(;
#X obj 193 451 text get \$0n;
#X obj 193 319 moses;
#X obj 193 341 min;
#X obj 248 364 f;
#X obj 193 384 - 1;
#X obj 193 473 cyclone/iter;
#X obj 193 495 spigot;
#X obj 260 543 sel = ? ~ ! @ # % _ ^;
#X obj 193 517 route bang;
#X obj 291 453 f 1;
#X obj 260 568 t b f;
#X obj 260 590 f 1;
#X obj 324 590 f 2;
#X obj 149 667 -;
#X obj 260 617 t f f;
#X obj 117 616 t f f;
#X obj 149 724 demux 0 1 2;
#X obj 452 90 sel x y;
#X obj 475 112 f 1;
#X obj 424 176 demux;
#X text 48 178 0: xsize-2 \; 1: ysize-2 \; 2: parent \; 3: x-limit
\; 4: y-limit;
#X obj 225 273 array get \$0n 0 1;
#X obj 452 152 t f f;
#X obj 225 229 f;
#X obj 225 251 t f f;
#X obj 257 298 + 3;
#X obj 257 322 array get \$0n 0 1;
#X obj 225 384 array get \$0n 1 1;
#X obj 294 120 makefilename %i-init;
#X obj 424 200 makefilename %i-pattern-st;
#X obj 341 225 makefilename %i-settings;
#X obj 456 260 makefilename %i-burst-st;
#X text 523 149 1: retrieve relevant settings from Context;
#X text 27 443 3: retrieve message;
#X text -130 333 2: check toggle number against message limit;
#X text -34 510 4: check for special characters;
#X text 113 160 5: initialize number;
#X text -12 601 6: send new value;
#X obj 178 143 array get \$0n 0 1;
#X obj 117 581 receive r&&u*imn<;
#X text 48 11 gbang number \, finder \$0 \, toggle number \, ID number
\, context \$0 \, x/y;
#X obj 193 429 t f f;
#X obj 149 695 pack f f f s s f f;
#X obj 343 65 unpack f f f f f s;
#X obj 193 203 t f b b b b;
#X obj 424 627 array get \$0n 2 1;
#X obj 272 654 + 1;
#X obj 475 485 list append a i;
#X obj 505 505 list append b j;
#X obj 472 554 unpack s s;
#X text 243 718 new value \, toggle number \, ID number \, i/j \, a/b
\, parent \$0 \, clipped toggle number;
#X obj 255 756 receive ffshift5t6y2;
#X obj 223 781 demux;
#X msg 223 803 It is not recommended to alter database terms which
contain special characters. To alter anyway hold Shift.;
#X obj 223 838 print Warning;
#X obj 225 342 t b b b;
#X obj 225 407 t f f f;
#X obj 236 429 - 1;
#X msg 149 915 \; \$6-c\$3 :\$5 + \$1 1 \$7;
#X msg 186 863 \$6-c\$3 :\$4 + \$1 \$2 \; \$6-c\$3 :\$4 + \$1 \$2;
#X connect 0 0 44 0;
#X connect 1 0 6 0;
#X connect 2 0 3 0;
#X connect 2 1 56 0;
#X connect 3 0 5 0;
#X connect 4 0 32 0;
#X connect 5 0 42 0;
#X connect 6 0 7 0;
#X connect 7 0 9 0;
#X connect 8 0 11 0;
#X connect 8 1 13 0;
#X connect 8 2 13 0;
#X connect 8 3 13 0;
#X connect 8 4 13 0;
#X connect 8 5 13 0;
#X connect 8 6 13 0;
#X connect 8 7 13 0;
#X connect 8 8 13 0;
#X connect 9 1 8 0;
#X connect 10 0 7 1;
#X connect 11 0 12 0;
#X connect 11 1 7 1;
#X connect 12 0 15 0;
#X connect 13 0 15 0;
#X connect 14 0 43 0;
#X connect 15 0 17 1;
#X connect 16 0 14 1;
#X connect 16 1 14 0;
#X connect 17 0 59 0;
#X connect 17 1 60 0;
#X connect 17 2 53 0;
#X connect 18 0 23 0;
#X connect 18 0 48 0;
#X connect 18 1 19 0;
#X connect 18 1 49 0;
#X connect 19 0 23 0;
#X connect 20 0 30 0;
#X connect 20 1 32 0;
#X connect 22 0 2 1;
#X connect 23 0 20 1;
#X connect 23 1 24 1;
#X connect 24 0 25 0;
#X connect 25 0 22 0;
#X connect 25 1 26 0;
#X connect 26 0 27 0;
#X connect 27 0 3 1;
#X connect 28 0 57 0;
#X connect 29 0 39 2;
#X connect 30 0 1 3;
#X connect 31 0 22 2;
#X connect 31 0 27 2;
#X connect 31 0 28 2;
#X connect 31 0 46 2;
#X connect 32 0 1 3;
#X connect 39 0 14 1;
#X connect 40 0 16 0;
#X connect 42 0 1 0;
#X connect 42 1 47 0;
#X connect 43 0 17 0;
#X connect 44 0 39 0;
#X connect 44 1 29 0;
#X connect 44 2 45 0;
#X connect 44 2 43 1;
#X connect 44 3 43 2;
#X connect 44 4 20 0;
#X connect 44 4 4 1;
#X connect 44 4 31 0;
#X connect 44 5 18 0;
#X connect 45 0 2 0;
#X connect 45 1 24 0;
#X connect 45 2 10 0;
#X connect 45 3 15 0;
#X connect 45 4 46 0;
#X connect 46 0 43 5;
#X connect 47 0 43 6;
#X connect 48 0 50 0;
#X connect 49 0 50 0;
#X connect 50 0 43 4;
#X connect 50 1 43 3;
#X connect 52 0 53 1;
#X connect 53 0 54 0;
#X connect 53 1 59 0;
#X connect 54 0 55 0;
#X connect 56 0 28 0;
#X connect 56 1 4 0;
#X connect 56 2 48 0;
#X connect 57 0 58 0;
#X connect 57 1 43 6;
#X connect 58 0 1 0;
#X connect 58 0 43 1;
#X restore 138 219 pd repack;
#N canvas 587 380 671 300 finder 0;
#X obj 46 34 receive tyhjr(jK@;
#X obj 46 56 t b a;
#X obj 78 91 cyclone/zl iter 1;
#X obj 204 84 ctxfiles/recompile \$0;
#X obj 204 106 ctxfiles/br2 demux 2 \; #f t \; #f gs :x \; #f gs :y
\; #f gs :n \; #f gs :s \; #f gs :l \; #f gs :m \; #f gs :k \; #f gs
:start;
#X obj 46 119 ctxfiles/br2 route 1 \; :x gtfs \$0 #f :x 300 \; :y gtfs
\$0 #f :y 200 \; :n gtfs \$0 #f :n 10 \; :s gtfs \$0 #f :s 50 \; :l
gtfs \$0 #f :l bang \; :m gtfs \$0 #f :m 33 \; :k gtfs \$0 #f :k 33
\; :start tf \$0 #f \; ## s \$0-othr;
#X connect 0 0 1 0;
#X connect 1 0 3 0;
#X connect 1 1 2 0;
#X connect 2 0 5 0;
#X connect 3 0 4 0;
#X connect 3 1 4 1;
#X restore 194 120 pd finder commands;
#X obj 288 22 receive share;
#X msg 288 44 vis 1;
#X obj 288 66 iemguts/sendcanvas;
#X connect 7 0 8 0;
#X connect 8 0 9 0;
