#N canvas 590 231 635 537 10;
#X obj 342 99 symbol \$0-nope;
#X obj 360 145 receive \$0-nope;
#X obj 315 77 t b b;
#X obj 315 348 iemguts/canvasargs;
#X obj 315 397 list trim;
#X obj 315 171 spigot 1;
#X msg 251 308 vis 1;
#X obj 315 51 myinit 2;
#X obj 315 419 s pd-\$0-tmp;
#X msg 259 259 vis 0;
#X obj 315 9 loadbang;
#X obj 315 370 list prepend obj 100 100;
#X obj 342 121 s \$1-\$2oij0zB;
#X obj 214 9 receive Rf&Nm<>;
#X obj 412 289 pack s \$0;
#X msg 412 312 \; pd menunew \$2-tmp \$1;
#X obj 315 213 t b b b b f;
#X msg 295 311 loadbang;
#X obj 412 260 ggee/getdir 1;
#X obj 373 9 inlet;
#X obj 145 118 iemguts/closebang;
#X obj 145 221 f 1;
#X obj 100 248 spigot 1;
#X obj 162 188 s \$1-dd;
#X obj 76 188 receive \$1-dd;
#X obj 145 141 t b b f b;
#X obj 196 164 s \$1-d;
#X obj 100 271 s \$1-c;
#X connect 0 0 12 0;
#X connect 1 0 5 1;
#X connect 2 0 5 0;
#X connect 2 1 0 0;
#X connect 3 0 11 0;
#X connect 4 0 8 0;
#X connect 5 0 16 0;
#X connect 6 0 8 0;
#X connect 7 0 2 0;
#X connect 9 0 8 0;
#X connect 10 0 7 0;
#X connect 11 0 4 0;
#X connect 13 0 7 0;
#X connect 14 0 15 0;
#X connect 16 0 17 0;
#X connect 16 1 3 0;
#X connect 16 2 9 0;
#X connect 16 3 18 0;
#X connect 16 4 5 1;
#X connect 17 0 8 0;
#X connect 18 0 14 0;
#X connect 19 0 7 0;
#X connect 20 0 25 0;
#X connect 21 0 22 1;
#X connect 22 0 27 0;
#X connect 24 0 22 0;
#X connect 25 0 21 0;
#X connect 25 1 23 0;
#X connect 25 2 22 1;
#X connect 25 3 26 0;
