#N canvas 496 286 635 446 10;
#X obj 342 99 symbol \$0-nope;
#X obj 360 145 receive \$0-nope;
#X obj 315 77 t b b;
#X obj 315 377 list trim;
#X obj 354 236 f \$0;
#X obj 388 179 bng 15 250 50 0 empty empty empty 17 7 0 10 -262144
-1 -1;
#X obj 315 171 spigot 1;
#X msg 251 308 vis 1;
#X obj 315 51 myinit 2;
#X obj 315 213 t b b b f;
#X obj 315 399 s pd-\$0-tmp;
#X msg 259 259 vis 0;
#X obj 315 9 loadbang;
#X msg 354 259 \; pd menunew \$1-tmp ~/;
#X obj 315 293 iemguts/canvasargs 1;
#X obj 315 315 list prepend obj 100 100 ctxfiles/cr;
#X obj 342 121 s \$1-\$2oij0zB;
#X connect 0 0 16 0;
#X connect 1 0 6 1;
#X connect 2 0 6 0;
#X connect 2 1 0 0;
#X connect 3 0 10 0;
#X connect 4 0 13 0;
#X connect 5 0 4 0;
#X connect 6 0 9 0;
#X connect 7 0 10 0;
#X connect 8 0 2 0;
#X connect 9 0 14 0;
#X connect 9 1 11 0;
#X connect 9 2 4 0;
#X connect 9 3 6 1;
#X connect 11 0 10 0;
#X connect 12 0 8 0;
#X connect 14 0 15 0;
#X connect 15 0 3 0;
