#N canvas 67 113 450 289 10;
#X obj 150 68 t b s;
#X obj 150 92 t f;
#X obj 150 116 send;
#X obj 150 44 receive \$1-\$2oij0zB;
#X obj 275 110 receive \$1-d;
#X obj 275 134 del 1000;
#X obj 275 157 iemguts/canvasdelete 3;
#X msg 298 83 stop;
#X obj 298 60 receive \$1-c;
#X connect 0 0 1 0;
#X connect 0 1 2 1;
#X connect 1 0 2 0;
#X connect 3 0 0 0;
#X connect 4 0 5 0;
#X connect 5 0 6 0;
#X connect 7 0 5 0;
#X connect 8 0 7 0;
