#N canvas 251 278 635 446 10;
#X obj 342 99 symbol \$0-nope;
#X obj 360 145 receive \$0-nope;
#X obj 315 77 t b b;
#X obj 315 397 list trim;
#X obj 315 171 spigot 1;
#X msg 251 308 vis 1;
#X obj 315 51 myinit 2;
#X obj 315 213 t b b b f;
#X obj 315 419 s pd-\$0-tmp;
#X msg 259 259 vis 0;
#X obj 315 9 loadbang;
#X obj 315 352 iemguts/canvasargs 1;
#X obj 342 121 s \$1-\$2oij0zB;
#X obj 216 9 receive Rf&Nm<>;
#X obj 412 288 pack s \$0;
#X msg 412 311 \; pd menunew \$2-tmp \$1;
#X obj 412 260 ggee/getdir 1;
#X obj 315 374 list prepend obj 100 100 cr;
#X obj 145 118 iemguts/closebang;
#X obj 145 221 f 1;
#X obj 100 248 spigot 1;
#X obj 162 188 s \$1-dd;
#X obj 76 188 receive \$1-dd;
#X obj 145 141 t b b f b;
#X obj 196 164 s \$1-d;
#X obj 100 271 s \$1-c;
#X connect 0 0 12 0;
#X connect 1 0 4 1;
#X connect 2 0 4 0;
#X connect 2 1 0 0;
#X connect 3 0 8 0;
#X connect 4 0 7 0;
#X connect 5 0 8 0;
#X connect 6 0 2 0;
#X connect 7 0 11 0;
#X connect 7 1 9 0;
#X connect 7 2 16 0;
#X connect 7 3 4 1;
#X connect 9 0 8 0;
#X connect 10 0 6 0;
#X connect 11 0 17 0;
#X connect 13 0 6 0;
#X connect 14 0 15 0;
#X connect 16 0 14 0;
#X connect 17 0 3 0;
#X connect 18 0 23 0;
#X connect 19 0 20 1;
#X connect 20 0 25 0;
#X connect 22 0 20 0;
#X connect 23 0 19 0;
#X connect 23 1 21 0;
#X connect 23 2 20 1;
#X connect 23 3 24 0;
