#N canvas 499 301 635 446 10;
#X obj 338 100 symbol \$0-nope;
#X obj 368 148 receive \$0-nope;
#X obj 361 247 f \$0;
#X obj 315 171 spigot 1;
#X msg 251 308 vis 1;
#X obj 315 31 myinit 2;
#X obj 315 399 s pd-\$0-tmp;
#X msg 259 259 vis 0;
#X msg 361 270 \; pd menunew \$1-tmp ~/;
#X obj 315 8 inlet;
#X obj 315 213 t f b b;
#X obj 338 146 s;
#X obj 315 57 t f b f;
#X obj 315 316 list append \$1;
#X msg 315 348 obj 100 100 \$2 \$1;
#X obj 361 123 makefilename \$1-%doij0zB;
#X obj 217 8 receive Rf&Nm<>;
#X connect 0 0 11 0;
#X connect 1 0 3 1;
#X connect 2 0 8 0;
#X connect 3 0 10 0;
#X connect 4 0 6 0;
#X connect 5 0 12 0;
#X connect 7 0 6 0;
#X connect 9 0 5 0;
#X connect 10 0 13 0;
#X connect 10 1 7 0;
#X connect 10 2 2 0;
#X connect 12 0 3 0;
#X connect 12 1 0 0;
#X connect 12 2 15 0;
#X connect 13 0 14 0;
#X connect 14 0 6 0;
#X connect 15 0 11 1;
#X connect 16 0 5 0;
