#N canvas 309 89 895 679 10;
#X obj 432 315 t f;
#X obj 676 577 + 1;
#X obj 87 74 receive \$1-\$2-messon;
#X obj 398 440 text get \$1-\$4-st;
#X obj 425 529 outlet;
#X obj 186 431 text set \$1-\$4-st;
#X obj 147 641 s \$1-mess:\$7;
#X obj 147 384 spigot \$8;
#X obj 639 622 outlet;
#X obj 639 598 zexy/pack f 1 \$2 \$1;
#X obj 497 416 receive \$1-\$2rest;
#X obj 335 214 - 1;
#X obj 335 238 demux;
#X obj 362 214 receive \$1-rlson;
#X obj 316 309 s \$1-\$2symhere;
#X obj 78 52 receive \$1-:\$7newmon;
#X obj 147 360 inlet symbol;
#X obj 639 467 inlet mouseover;
#X obj 393 540 f \$8;
#X obj 393 581 receive \$1moffxy;
#X obj 393 560 s \$1moffxy;
#X obj 393 604 == \$8;
#X text 80 341 assign symbol text to proper text line;
#X text 442 609 determine which pair is on;
#X text 112 229 adapt sequence input to clip setting;
#X text 464 463 fetch text;
#X text 700 576 turn toggle tracking on and off;
#X obj 335 145 inlet sequnce;
#X obj 87 97 demux;
#X obj 666 555 receive \$1-rson;
#X obj 639 577 demux;
#X obj 166 611 s \$1-\$2smd;
#X obj 147 408 t b a a;
#X obj 166 479 l2s;
#X obj 398 462 route bang;
#X obj 455 484 l2s;
#X obj 455 506 t s s;
#X obj 482 529 outlet;
#X obj 264 611 s \$1-\$2smu;
#X text 44 515 send to label morph;
#X obj 264 501 list append;
#X obj 398 484 t b b;
#X obj 433 28 receive \$1-tab;
#X obj 433 51 spigot;
#X obj 433 73 t b;
#X text 279 53 bang toggles on tab press;
#X obj 639 490 sel 1;
#X obj 433 95 v \$1-\$2symhere;
#X obj 335 260 switch-\$10 \$1;
#X obj 166 501 list prepend 0;
#X obj 166 523 list split 1;
#X obj 166 545 change;
#X obj 166 567 list append;
#X obj 264 523 list split 1;
#X obj 264 545 change;
#X obj 264 567 list append;
#X msg 216 546 set -1;
#X obj 282 382 receive \$1-imoff;
#X obj 335 192 clip 1 1;
#X obj 78 151 t f f;
#X obj 105 175 pack f \$8;
#X obj 105 197 s \$1-sreset;
#X obj 282 404 t f f;
#X obj 260 168 receive \$1-\$8resymg;
#X text 140 145 send list...and receive for reseting, f 23;
#X obj 393 628 t f f;
#X obj 420 654 f \$8;
#X obj 420 680 change;
#X obj 335 285 t f f f f f b f b b;
#X obj 404 371 f 1;
#X obj 87 125 - 1;
#X obj 49 545 receive \$1-mscroll;
#X obj 166 589 demux;
#X obj 264 589 demux;
#X obj 380 168 receive \$1-\$2max;
#X obj 19 591 receive \$1-imon;
#X obj 19 610 ||;
#X obj 49 567 t b f;
#X obj 166 455 spigot;
#X obj 264 479 spigot;
#X obj 270 361 receive \$1-savestart;
#X obj 420 706 t f f b;
#X connect 0 0 9 0;
#X connect 1 0 9 1;
#X connect 2 0 28 0;
#X connect 3 0 34 0;
#X connect 7 0 32 0;
#X connect 9 0 8 0;
#X connect 10 0 3 3;
#X connect 11 0 12 0;
#X connect 12 0 48 0;
#X connect 13 0 12 1;
#X connect 15 0 59 0;
#X connect 16 0 7 0;
#X connect 17 0 46 0;
#X connect 18 0 20 0;
#X connect 19 0 21 0;
#X connect 21 0 65 0;
#X connect 27 0 58 0;
#X connect 28 0 70 0;
#X connect 29 0 28 1;
#X connect 29 0 30 1;
#X connect 30 0 9 0;
#X connect 32 0 6 0;
#X connect 32 1 78 0;
#X connect 32 2 5 0;
#X connect 33 0 49 0;
#X connect 34 0 41 0;
#X connect 34 1 35 0;
#X connect 35 0 36 0;
#X connect 36 0 40 1;
#X connect 36 1 37 0;
#X connect 40 0 53 0;
#X connect 41 0 40 1;
#X connect 41 1 4 0;
#X connect 42 0 43 0;
#X connect 43 0 44 0;
#X connect 44 0 47 0;
#X connect 46 0 66 0;
#X connect 46 1 67 0;
#X connect 47 0 48 1;
#X connect 48 0 68 0;
#X connect 48 1 58 0;
#X connect 49 0 50 0;
#X connect 50 0 51 0;
#X connect 50 1 52 1;
#X connect 51 0 52 0;
#X connect 52 0 72 0;
#X connect 53 0 54 0;
#X connect 53 1 55 1;
#X connect 54 0 55 0;
#X connect 55 0 73 0;
#X connect 56 0 54 0;
#X connect 56 0 51 0;
#X connect 57 0 62 0;
#X connect 58 0 11 0;
#X connect 59 0 12 0;
#X connect 59 1 60 0;
#X connect 60 0 61 0;
#X connect 62 0 78 1;
#X connect 62 1 79 1;
#X connect 63 0 12 0;
#X connect 65 0 7 1;
#X connect 65 1 66 0;
#X connect 66 0 67 0;
#X connect 67 0 81 0;
#X connect 68 0 5 1;
#X connect 68 1 14 0;
#X connect 68 2 49 1;
#X connect 68 3 79 0;
#X connect 68 4 3 0;
#X connect 68 5 69 0;
#X connect 68 6 1 0;
#X connect 68 7 0 0;
#X connect 68 8 18 0;
#X connect 69 0 9 0;
#X connect 70 0 59 0;
#X connect 71 0 77 0;
#X connect 72 0 31 0;
#X connect 73 0 38 0;
#X connect 74 0 58 2;
#X connect 75 0 76 0;
#X connect 76 0 72 1;
#X connect 76 0 73 1;
#X connect 77 0 76 0;
#X connect 77 1 76 1;
#X connect 78 0 33 0;
#X connect 79 0 40 0;
#X connect 80 0 62 0;
#X connect 81 0 9 0;
#X connect 81 1 43 1;
#X connect 81 2 56 0;
