#N canvas 727 185 536 455 10;
#X obj 265 172 div \$4;
#X obj 265 114 - \$1;
#X obj 233 331 +;
#X obj 233 271 mod \$4;
#X obj 265 197 + 13;
#X obj 332 182 div \$4;
#X obj 242 90 t f f f;
#X obj 332 204 + 12;
#X obj 332 226 * \$5;
#X obj 233 302 clip 0 \$5;
#X obj 265 246 outlet;
#X obj 233 398 outlet;
#X obj 233 353 + \$6;
#X obj 356 117 f \$1;
#X obj 331 78 t f b;
#X obj 105 49 t f f f;
#X obj 105 27 receive \$2-\$3size-22;
#X obj 242 27 receive \$2-\$3zoom;
#X obj 331 56 receive \$2-\$3zoom\$1;
#X obj 61 130 receive \$2-\$3-\$1wiggle;
#X obj 61 152 t b b;
#X obj 88 220 metro 80;
#X obj 88 242 cyclone/togedge;
#X msg 88 264 2;
#X msg 175 264 -2;
#X obj 88 298 + \$7;
#X obj 61 196 t f f;
#X obj 88 320 t b f;
#X obj 61 174 del 400;
#X obj 233 375 pack \$8 \$7;
#X obj 339 405 list \$8 \$7;
#X obj 339 377 receive \$2-\$3\$1-blab;
#X obj 339 427 s \$2-lmar;
#X connect 0 0 4 0;
#X connect 1 0 0 0;
#X connect 2 0 12 0;
#X connect 3 0 9 0;
#X connect 4 0 10 0;
#X connect 5 0 7 0;
#X connect 6 0 3 0;
#X connect 6 1 1 0;
#X connect 6 2 5 0;
#X connect 7 0 8 0;
#X connect 8 0 2 1;
#X connect 9 0 2 0;
#X connect 12 0 29 0;
#X connect 13 0 5 1;
#X connect 13 0 0 1;
#X connect 13 0 3 1;
#X connect 14 0 6 0;
#X connect 14 1 13 0;
#X connect 15 0 3 1;
#X connect 15 1 0 1;
#X connect 15 2 5 1;
#X connect 16 0 15 0;
#X connect 17 0 6 0;
#X connect 18 0 14 0;
#X connect 19 0 20 0;
#X connect 20 0 28 0;
#X connect 20 1 21 0;
#X connect 21 0 22 0;
#X connect 22 0 23 0;
#X connect 22 1 24 0;
#X connect 23 0 25 0;
#X connect 24 0 25 0;
#X connect 25 0 27 0;
#X connect 26 0 25 0;
#X connect 26 1 21 0;
#X connect 27 0 29 0;
#X connect 27 1 29 1;
#X connect 28 0 26 0;
#X connect 29 0 11 0;
#X connect 29 0 30 1;
#X connect 30 0 32 0;
#X connect 31 0 30 0;
