#N canvas 345 355 610 300 10;
#X obj 115 34 ctxfiles/shared ctxfiles/slideshare;
#X obj 402 26 receive sshare;
#X msg 402 49 vis 1;
#X obj 402 72 iemguts/sendcanvas;
#N canvas 318 190 467 381 key 0;
#X obj 151 20 keyname;
#X obj 151 67 list prepend;
#X obj 151 90 list trim;
#X obj 190 259 spigot;
#X obj 190 282 change;
#X obj 151 209 sel 1;
#X obj 151 175 t f f;
#X obj 190 305 s slidemodeRR&&B;
#X obj 220 41 s2l;
#X obj 151 117 route Alt_L Alt_R;
#X obj 250 146 relay 1 2;
#X obj 178 233 t b f;
#X obj 107 282 s \$0-check;
#X connect 0 0 1 0;
#X connect 0 1 8 0;
#X connect 1 0 2 0;
#X connect 2 0 9 0;
#X connect 3 0 4 0;
#X connect 4 0 7 0;
#X connect 5 1 11 0;
#X connect 6 0 5 0;
#X connect 6 1 3 1;
#X connect 8 0 1 1;
#X connect 9 0 6 0;
#X connect 9 1 6 0;
#X connect 9 2 10 0;
#X connect 10 0 3 0;
#X connect 10 1 3 0;
#X connect 11 0 12 0;
#X connect 11 1 4 0;
#X restore 278 119 pd key;
#N canvas 319 113 450 463 ID 1;
#X obj 156 35 receive slideID())));
#X msg 156 58 resize \$1;
#X obj 156 81 array define slideID())))( 1;
#X obj 130 133 receive \$0-check;
#X obj 130 180 until;
#X obj 130 250 array get slideID())))( 0 1;
#X obj 130 273 route bang;
#X obj 130 203 f;
#X obj 181 226 + 1;
#X obj 130 226 t f f f;
#X obj 130 156 t b f;
#X obj 200 392 send;
#X obj 200 319 !=;
#X obj 221 367 makefilename %d-slideon((*));
#X obj 200 342 makefilename LFOline(((-%d;
#X connect 0 0 1 0;
#X connect 1 0 2 0;
#X connect 3 0 10 0;
#X connect 4 0 7 0;
#X connect 5 0 6 0;
#X connect 6 0 4 1;
#X connect 6 1 12 0;
#X connect 7 0 9 0;
#X connect 8 0 7 1;
#X connect 9 0 5 0;
#X connect 9 1 13 0;
#X connect 9 2 8 0;
#X connect 10 0 4 0;
#X connect 10 1 7 1;
#X connect 12 0 14 0;
#X connect 13 0 11 1;
#X connect 14 0 11 0;
#X restore 286 145 pd ID;
#X connect 1 0 2 0;
#X connect 2 0 3 0;
