#N canvas 67 204 450 300 10;
#X obj 164 49 inlet;
#X obj 164 71 l2s;
#X obj 164 93 list fromsymbol;
#X obj 164 116 t b a;
#X obj 164 138 list;
#X obj 164 182 list tosymbol;
#X msg 164 204 label \$1;
#X obj 164 226 outlet;
#X obj 265 71 inlet;
#X obj 265 93 t b f;
#X obj 164 160 list split \$1;
#X obj 307 67 loadbang;
#X obj 307 90 del 1;
#X obj 292 136 / 5;
#X obj 307 113 v -(labsize);
#X obj 292 159 - \$2;
#X connect 0 0 1 0;
#X connect 1 0 2 0;
#X connect 2 0 3 0;
#X connect 3 0 4 0;
#X connect 3 1 4 1;
#X connect 4 0 10 0;
#X connect 5 0 6 0;
#X connect 6 0 7 0;
#X connect 8 0 9 0;
#X connect 9 0 4 0;
#X connect 9 1 13 0;
#X connect 10 0 5 0;
#X connect 10 2 5 0;
#X connect 11 0 12 0;
#X connect 12 0 14 0;
#X connect 13 0 15 0;
#X connect 14 0 13 1;
#X connect 15 0 10 1;
