#N canvas 65 81 450 300 10;
#X obj 86 90 inlet;
#X obj 137 90 inlet;
#X obj 176 90 inlet;
#X obj 86 154 outlet;
#X msg 176 112 1;
#X obj 137 111 t f;
#X obj 86 132 spigot \$1;
#X connect 0 0 6 0;
#X connect 1 0 5 0;
#X connect 2 0 4 0;
#X connect 4 0 6 1;
#X connect 5 0 6 1;
#X connect 6 0 3 0;
