#N canvas 83 290 523 478 10;
#X obj 156 71 s \$1-;
#X obj 257 136 receive \$1;
#X obj 367 134 receive \$1-dddEEE&;
#X obj 257 162 s \$3-anymessage;
#X obj 156 46 receive \$3-channels;
#X obj 144 132 receive \$2-\$1;
#X obj 27 216 receive \$3-xffind;
#X obj 159 216 receive \$3-yffind;
#X obj 27 238 t f b;
#X obj 159 238 t f b;
#X obj 27 429 s \$1-find;
#X obj 59 262 symbol x;
#X obj 191 263 symbol y;
#X obj 68 340 receive \$3nnumber;
#X obj -15 317 loadbang;
#X obj -15 340 v \$3nnumber;
#X obj 27 407 pack f f \$3 s;
#X obj 204 102 receive \$2-context;
#X obj 114 102 receive \$2\$1;
#X obj 324 102 receive \$2context;
#X obj 367 156 s \$3-stbc;
#X obj 70 71 s \$2-context-;
#X obj 198 73 s \$2-\$1-;
#X obj 254 74 share cr all&&;
#X connect 1 0 3 0;
#X connect 2 0 20 0;
#X connect 4 0 0 0;
#X connect 4 0 21 0;
#X connect 4 0 22 0;
#X connect 5 0 3 0;
#X connect 6 0 8 0;
#X connect 7 0 9 0;
#X connect 8 0 16 0;
#X connect 8 1 11 0;
#X connect 9 0 16 0;
#X connect 9 1 12 0;
#X connect 11 0 16 3;
#X connect 12 0 16 3;
#X connect 13 0 16 1;
#X connect 14 0 15 0;
#X connect 15 0 16 1;
#X connect 16 0 10 0;
#X connect 17 0 3 0;
#X connect 18 0 3 0;
#X connect 19 0 3 0;
