#N canvas 228 228 523 350 10;
#X obj 156 71 s \$1-;
#X obj 257 136 receive \$1;
#X obj 367 134 receive \$1-dddEEE&;
#X obj 367 156 s \$2-stbc;
#X obj 254 74 share ctxfiles/cr all&&;
#X obj 257 162 s \$3-anymessage;
#X obj 156 46 receive \$3-channels;
#X obj 144 132 receive \$2-\$1;
#X obj 27 216 receive \$3-xffind;
#X obj 159 216 receive \$3-yffind;
#X obj 27 238 t f b;
#X obj 159 238 t f b;
#X obj 27 319 s \$1-find;
#X obj 27 297 pack f s f;
#X obj 59 262 symbol x;
#X obj 191 263 symbol y;
#X obj 158 303 receive \$3nnumber;
#X connect 1 0 5 0;
#X connect 2 0 3 0;
#X connect 6 0 0 0;
#X connect 7 0 5 0;
#X connect 8 0 10 0;
#X connect 9 0 11 0;
#X connect 10 0 13 0;
#X connect 10 1 14 0;
#X connect 11 0 13 0;
#X connect 11 1 15 0;
#X connect 13 0 12 0;
#X connect 14 0 13 1;
#X connect 15 0 13 1;
#X connect 16 0 13 2;
