#N canvas 719 249 450 519 10;
#X obj 58 64 receive \$3-und-n;
#X obj 58 86 s \$1-und-n;
#X obj 58 114 receive \$3-und-l;
#X obj 58 196 s \$1-und-l;
#X obj 58 166 list append;
#X obj 46 139 receive \$3nnumber;
#X obj 187 108 s \$1-;
#X obj 186 135 receive \$1;
#X obj 220 202 receive \$1-dddEEE&;
#X obj 220 224 s \$3-stbc;
#X obj 187 64 receive \$3-channels;
#X obj 186 161 s \$3-anymessage;
#X obj 94 283 t f b;
#X obj 226 283 t f b;
#X obj 94 474 s \$1-find;
#X obj 126 307 symbol x;
#X obj 258 308 symbol y;
#X obj 94 261 receive \$3-xffind;
#X obj 226 261 receive \$3-yffind;
#X obj 135 385 receive \$3nnumber;
#X obj 55 338 v \$3nnumber;
#X obj 55 315 loadbang;
#X obj 94 452 pack f f \$3 s;
#X obj 226 96 receive \$2-\$1;
#X obj 147 88 s \$2-\$1-;
#X obj 277 125 share2 cr \$1;
#X connect 0 0 1 0;
#X connect 2 0 4 0;
#X connect 4 0 3 0;
#X connect 5 0 4 1;
#X connect 7 0 11 0;
#X connect 8 0 9 0;
#X connect 10 0 6 0;
#X connect 10 0 24 0;
#X connect 12 0 22 0;
#X connect 12 1 15 0;
#X connect 13 0 22 0;
#X connect 13 1 16 0;
#X connect 15 0 22 3;
#X connect 16 0 22 3;
#X connect 17 0 12 0;
#X connect 18 0 13 0;
#X connect 19 0 22 1;
#X connect 20 0 22 1;
#X connect 21 0 20 0;
#X connect 22 0 14 0;
#X connect 23 0 11 0;
