#N canvas 376 310 450 300 10;
#X obj 180 78 symbol \$3;
#X obj 42 57 inlet;
#X obj 42 80 s \$1-\$4;
#X obj 180 102 s \$1-everything;
#X obj 180 56 receive \$1-\$2;
#X connect 0 0 3 0;
#X connect 1 0 2 0;
#X connect 4 0 0 0;
