#N canvas 270 259 450 300 10;
#X obj 165 184 until;
#X obj 144 44 receive \$1-lb;
#X obj 144 113 change;
#X obj 165 159 -;
#X obj 165 206 s \$1-\$2ibang;
#X obj 191 159 s \$1-\$2incr;
#X obj 156 65 receive \$1-\$2start;
#X obj 144 91 max 4;
#X obj 156 23 receive \$1-\$3;
#X obj 144 135 t b f f f f;
#X obj 144 228 s \$1-\$2idone;
#X connect 0 0 4 0;
#X connect 1 0 7 0;
#X connect 2 0 9 0;
#X connect 3 0 0 0;
#X connect 6 0 7 0;
#X connect 7 0 2 0;
#X connect 8 0 7 0;
#X connect 9 0 10 0;
#X connect 9 1 3 1;
#X connect 9 2 3 0;
#X connect 9 3 5 0;
#X connect 9 4 7 1;
