#N canvas 204 257 593 459 10;
#X obj 309 3 inlet;
#X obj 114 207 / \$3;
#X obj 75 255 collect;
#X obj 75 277 outlet;
#X obj 75 3 inlet;
#X msg 222 179 resize \$1;
#X obj 266 3 inlet;
#X obj 221 3 inlet;
#X msg 221 125 const -1;
#X obj 266 28 array get \$1-\$2-1-\$4;
#X obj 266 51 array set \$1-\$2-2-\$4;
#X obj 222 202 array define \$1-\$2-1-\$4 1;
#X obj 201 230 array define \$1-\$2-2-\$4 1;
#X obj 222 157 receive \$1-nsize\$4;
#X obj 87 102 moses;
#X obj 114 124 moses \$3;
#X obj 159 168 f 1;
#X obj 77 124 t b;
#X obj 159 146 t b;
#X obj 178 271 * \$3;
#X obj 408 317 receive \$1-pointer\$4;
#X obj 222 340 element \$1-big\$4 \$1-array\$4;
#X obj 222 317 v \$1-rescue;
#X obj 222 385 get ^&*-dsmall\$4 \$5;
#X obj 222 362 t p p;
#X obj 147 410 set ^&*-dsmall\$4 \$2 \$5;
#X text 212 279 if coordinate is outside the boundary \, place it back
inside;
#X obj 114 231 switch-\$2id;
#X obj 135 102 receive \$1-:\$2;
#X obj 159 190 t f f;
#X obj 77 146 t f f;
#X obj 147 382 - \$6;
#X obj 87 78 + \$6;
#X obj 114 176 - \$6;
#X obj 178 293 t b f b;
#X obj 120 329 s \$1-\$4-regot;
#X connect 0 0 32 0;
#X connect 1 0 27 0;
#X connect 2 0 3 0;
#X connect 4 0 2 0;
#X connect 5 0 11 0;
#X connect 5 0 12 0;
#X connect 6 0 9 0;
#X connect 7 0 8 0;
#X connect 8 0 12 0;
#X connect 9 0 10 0;
#X connect 13 0 5 0;
#X connect 14 0 17 0;
#X connect 14 1 15 0;
#X connect 15 0 33 0;
#X connect 15 1 18 0;
#X connect 16 0 29 0;
#X connect 17 0 30 0;
#X connect 18 0 16 0;
#X connect 19 0 34 0;
#X connect 20 0 21 1;
#X connect 21 0 24 0;
#X connect 22 0 21 0;
#X connect 23 0 25 1;
#X connect 24 0 23 0;
#X connect 24 1 25 2;
#X connect 27 0 2 1;
#X connect 28 0 1 1;
#X connect 28 0 15 1;
#X connect 28 0 19 1;
#X connect 29 0 27 0;
#X connect 29 1 19 0;
#X connect 30 0 27 0;
#X connect 30 1 34 0;
#X connect 31 0 25 0;
#X connect 32 0 14 0;
#X connect 33 0 1 0;
#X connect 34 0 35 0;
#X connect 34 1 31 0;
#X connect 34 2 22 0;
