#N canvas 276 204 699 481 10;
#X obj 309 3 inlet;
#X obj 33 235 outlet;
#X obj 33 166 inlet;
#X msg 409 165 resize \$1;
#X obj 266 3 inlet;
#X obj 221 3 inlet;
#X msg 382 111 const -1;
#X obj 266 28 array get \$1-\$2-1-\$4;
#X obj 266 51 array set \$1-\$2-2-\$4;
#X obj 409 188 array define \$1-\$2-1-\$4 1;
#X obj 382 210 array define \$1-\$2-2-\$4 1;
#X obj 409 143 receive \$1-nsize\$4;
#X obj 184 229 * \$3;
#X obj 414 275 receive \$1-pointer\$4;
#X obj 228 298 element \$1-big\$4 \$1-array\$4;
#X obj 228 275 v \$1-rescue;
#X obj 228 343 get ^&*-dsmall\$4 \$5;
#X obj 228 320 t p p;
#X obj 153 368 set ^&*-dsmall\$4 \$2 \$5;
#X text 218 237 if coordinate is outside the boundary \, place it back
inside;
#X obj 209 205 receive \$1-:\$2;
#X obj 153 340 - \$6;
#X obj 184 182 + \$6;
#X obj 184 251 t f b;
#X obj 33 204 switch-\$2id\$4 \$3 \$1 \$4;
#X connect 0 0 22 0;
#X connect 2 0 24 0;
#X connect 3 0 9 0;
#X connect 3 0 10 0;
#X connect 4 0 7 0;
#X connect 5 0 6 0;
#X connect 6 0 10 0;
#X connect 7 0 8 0;
#X connect 11 0 3 0;
#X connect 12 0 23 0;
#X connect 13 0 14 1;
#X connect 14 0 17 0;
#X connect 15 0 14 0;
#X connect 16 0 18 1;
#X connect 17 0 16 0;
#X connect 17 1 18 2;
#X connect 20 0 12 1;
#X connect 21 0 18 0;
#X connect 22 0 24 1;
#X connect 23 0 21 0;
#X connect 23 1 15 0;
#X connect 24 0 1 0;
#X connect 24 1 12 0;
