#N canvas 819 287 450 300 10;
#X obj 126 87 inlet;
#X obj 179 106 inlet;
#X obj 126 198 outlet;
#X obj 179 175 outlet;
#X obj 136 167 * -1;
#X connect 1 0 3 0;
#X connect 1 0 4 0;
#X connect 4 0 2 0;
