#N canvas 343 253 831 515 10;
#X obj 162 53 inlet;
#X obj 162 190 outlet;
#X obj 162 135 demux;
#X obj 194 109 receive \$1-eon;
#X obj 299 97 receive \$1-:name;
#X obj 267 188 demux;
#X obj 299 164 f 1;
#X text 303 48 1: intercept save message if -e is turned on (ie. if
the main creation argument starts with -e).;
#X text 360 145 2: error message unless sketch is named.;
#X obj 267 523 iemguts/canvaserror;
#X msg 267 472 settings not saved because sketch has no name., f 19
;
#X obj 299 233 list prepend;
#X obj 299 255 list prepend -sketch;
#X obj 299 277 list append ';
#X obj 299 210 t a b;
#X obj 299 438 send;
#X obj 331 390 iemguts/canvasdollarzero 4;
#X obj 331 412 makefilename %s-fromsketch;
#X text 437 249 3: package save list;
#X text 530 330 4: send to psave in parent canvas;
#X obj 331 325 t f b;
#X obj 331 364 spigot 1;
#X obj 35 324 iemguts/oreceive \$0nop;
#X obj 35 301 makefilename %s-tosketch;
#X obj 299 142 t b s s;
#X obj 299 119 list;
#X obj 35 486 s \$1-reintegrate;
#X obj 35 346 t a b b;
#X obj 74 369 iemguts/canvasdollarzero 4;
#X obj 42 369 f \$0;
#X obj 42 411 send;
#X obj 74 391 makefilename %s-amirite;
#X obj 86 442 receive \$0-imrite;
#X obj 35 464 route d\$0;
#X connect 0 0 2 0;
#X connect 2 0 1 0;
#X connect 2 1 5 0;
#X connect 3 0 2 1;
#X connect 4 0 25 0;
#X connect 5 0 10 0;
#X connect 5 1 14 0;
#X connect 6 0 5 1;
#X connect 10 0 9 0;
#X connect 11 0 12 0;
#X connect 12 0 13 0;
#X connect 13 0 15 0;
#X connect 14 0 11 0;
#X connect 14 1 20 0;
#X connect 16 0 17 0;
#X connect 17 0 15 1;
#X connect 20 0 21 1;
#X connect 20 1 21 0;
#X connect 21 0 16 0;
#X connect 22 0 27 0;
#X connect 23 0 22 0;
#X connect 24 0 6 0;
#X connect 24 1 11 1;
#X connect 24 2 23 0;
#X connect 25 0 24 0;
#X connect 27 0 33 0;
#X connect 27 1 29 0;
#X connect 27 2 28 0;
#X connect 28 0 31 0;
#X connect 29 0 30 0;
#X connect 31 0 30 1;
#X connect 32 0 33 1;
#X connect 33 0 26 0;
