#N canvas 431 165 450 589 10;
#X obj 98 12 inlet;
#X obj 147 533 outlet;
#X obj 354 363 outlet;
#X obj 163 129 cyclone/iter;
#X msg 179 80 const 0;
#X obj 98 34 list split 1;
#X obj 182 177 - 1;
#X obj 147 509 switch-\$2 \$1 tog;
#X obj 179 102 array define \$1-\$4pre \$3;
#X obj 147 482 array get \$1-\$4pre;
#X obj 163 458 array set \$1-\$4pre;
#X obj 235 327 f 1;
#X obj 182 428 array set \$1-\$4pro;
#X obj 235 222 demux;
#X obj 242 153 receive \$1-rev;
#X obj 262 267 -;
#X obj 243 129 array define \$1-\$4pro \$5;
#X obj 28 264 t b f b f;
#X obj 79 288 - 1;
#X obj 62 309 t f;
#X obj 28 220 v \$1-\$4size-2;
#X obj 132 57 t b b a b a;
#X obj 132 100 list;
#X obj 235 350 spigot;
#X obj 268 327 >=;
#X obj 242 175 t b b f b;
#X obj 28 286 f 1;
#X obj 28 242 * 2;
#X obj 235 296 t b f b f f;
#X obj 282 350 + \$3;
#X obj 202 198 sel \$3;
#X obj 163 153 t f f f;
#X obj 282 372 - 2;
#X obj 250 372 - 1;
#X obj 262 245 swap \$3;
#X obj 307 211 receive \$1-\$4size-2;
#X connect 0 0 5 0;
#X connect 3 0 31 0;
#X connect 4 0 8 0;
#X connect 4 0 16 0;
#X connect 5 1 21 0;
#X connect 6 0 10 1;
#X connect 7 0 1 0;
#X connect 9 0 7 0;
#X connect 11 0 23 0;
#X connect 13 0 28 0;
#X connect 13 1 34 0;
#X connect 14 0 25 0;
#X connect 15 0 28 0;
#X connect 17 0 26 0;
#X connect 17 1 12 1;
#X connect 17 2 19 0;
#X connect 17 3 18 0;
#X connect 18 0 12 1;
#X connect 19 0 12 0;
#X connect 20 0 27 0;
#X connect 21 1 9 0;
#X connect 21 2 3 0;
#X connect 21 3 4 0;
#X connect 21 4 22 1;
#X connect 22 0 3 0;
#X connect 23 0 12 0;
#X connect 24 0 23 1;
#X connect 25 1 22 0;
#X connect 25 2 13 1;
#X connect 25 3 4 0;
#X connect 26 0 12 0;
#X connect 27 0 17 0;
#X connect 28 0 11 0;
#X connect 28 1 33 0;
#X connect 28 2 11 0;
#X connect 28 3 29 0;
#X connect 28 4 24 0;
#X connect 29 0 32 0;
#X connect 30 1 13 0;
#X connect 31 0 10 0;
#X connect 31 1 6 0;
#X connect 31 2 30 0;
#X connect 32 0 12 1;
#X connect 33 0 12 1;
#X connect 34 0 15 0;
#X connect 34 1 15 1;
#X connect 35 0 29 1;
#X connect 35 0 30 1;
#X connect 35 0 34 1;
