#N canvas 65 101 450 360 10;
#X obj 153 89 text get \$1-calc;
#X obj 153 191 t a b;
#X obj 126 273 spigot;
#X obj 180 243 f 1;
#X obj 126 38 t f f;
#X obj 180 266 inlet;
#X obj 126 15 inlet;
#X obj 126 299 outlet;
#X obj 153 213 outlet;
#X obj 153 65 - \$2;
#X obj 198 136 spigot \$4;
#X obj 153 112 route \$3;
#X msg 198 158 ?;
#X connect 0 0 11 0;
#X connect 1 0 8 0;
#X connect 1 1 3 0;
#X connect 2 0 7 0;
#X connect 3 0 2 1;
#X connect 4 0 2 0;
#X connect 4 1 9 0;
#X connect 5 0 2 1;
#X connect 6 0 4 0;
#X connect 9 0 0 0;
#X connect 10 0 12 0;
#X connect 11 0 1 0;
#X connect 11 1 10 0;
#X connect 12 0 1 0;
