#N canvas 408 343 450 300 10;
#X obj 111 45 inlet;
#X obj 174 121 outlet;
#X obj 279 121 s \$1-\$2e;
#X obj 174 97 cyclone/zl ecils 1;
#X obj 279 154 outlet;
#X obj 111 67 route clear;
#X msg 111 89 const 0;
#X connect 0 0 5 0;
#X connect 3 0 1 0;
#X connect 3 1 2 0;
#X connect 5 0 6 0;
#X connect 5 1 3 0;
#X connect 6 0 4 0;
