#N canvas 843 310 456 300 10;
#X obj 29 73 inlet;
#X obj 29 138 outlet n1;
#X obj 100 138 outlet n2;
#X obj 100 111 receive \$1-valref;
#X obj 210 35 inlet tab-bang;
#X obj 256 80 == 3;
#X obj 277 57 receive \$1-ycor;
#X obj 229 103 demux;
#X obj 229 147 + 1;
#X obj 210 57 t b f f;
#X obj 229 191 makefilename \$1-y%dr;
#X obj 210 213 send;
#X obj 256 147 v \$1-xsize-2;
#X obj 256 169 makefilename \$1-x%dr;
#X text 196 237 tab bang last toggle exception;
#X obj 256 125 t b;
#X connect 0 0 1 0;
#X connect 3 0 2 0;
#X connect 4 0 9 0;
#X connect 5 0 7 1;
#X connect 6 0 5 1;
#X connect 7 0 8 0;
#X connect 7 1 15 0;
#X connect 8 0 10 0;
#X connect 9 0 11 0;
#X connect 9 1 7 0;
#X connect 9 2 5 0;
#X connect 10 0 11 1;
#X connect 12 0 13 0;
#X connect 13 0 11 1;
#X connect 15 0 12 0;
