#N canvas 739 254 450 300 10;
#X obj 126 87 inlet;
#X obj 179 106 inlet;
#X obj 126 198 outlet;
#X obj 158 174 outlet;
#X obj 158 151 -;
#X obj 158 131 swap;
#X obj 126 109 t f f;
#X obj 126 131 * -1;
#X obj 126 153 + 1;
#X connect 0 0 6 0;
#X connect 1 0 5 1;
#X connect 4 0 3 0;
#X connect 5 0 4 0;
#X connect 5 1 4 1;
#X connect 6 0 7 0;
#X connect 6 1 5 0;
#X connect 7 0 8 0;
#X connect 8 0 2 0;
