#N canvas 185 313 450 300 10;
#X obj 41 22 inlet;
#X obj 104 140 outlet;
#X obj 164 52 inlet;
#X obj 163 139 outlet;
#X obj 104 74 route 2;
#X obj 104 96 route 2;
#X obj 104 118 t b;
#X obj 143 116 list prepend 2;
#X obj 41 44 route float;
#X connect 0 0 8 0;
#X connect 4 0 5 0;
#X connect 4 1 3 0;
#X connect 5 0 6 0;
#X connect 5 1 7 0;
#X connect 6 0 1 0;
#X connect 7 0 3 0;
#X connect 8 0 3 0;
#X connect 8 1 4 0;
