#N canvas 881 435 450 300 10;
#X msg 196 203 1;
#X obj 271 203 t f;
#X obj 196 93 inlet;
#X msg 241 203 2;
#X obj 196 246 outlet;
#X obj 256 246 outlet;
#X obj 307 246 outlet;
#X obj 196 120 t b a b b a b;
#X msg 256 146 :u \$2;
#X msg 211 146 :y \$2;
#X connect 0 0 4 0;
#X connect 1 0 4 0;
#X connect 2 0 7 0;
#X connect 3 0 4 0;
#X connect 7 0 0 0;
#X connect 7 1 9 0;
#X connect 7 2 6 0;
#X connect 7 3 3 0;
#X connect 7 4 8 0;
#X connect 7 5 1 0;
#X connect 8 0 5 0;
#X connect 9 0 5 0;
