#N canvas 507 176 701 589 10;
#X obj 98 -28 inlet;
#X obj 147 533 outlet;
#X obj 354 363 outlet;
#X obj 163 129 cyclone/iter;
#X msg 179 80 const 0;
#X obj 98 -6 list split 1;
#X obj 182 177 - 1;
#X obj 147 509 switch-\$2 \$1 tog;
#X obj 179 102 array define \$1-\$4pre \$3;
#X obj 147 482 array get \$1-\$4pre;
#X obj 163 458 array set \$1-\$4pre;
#X obj 235 327 f 1;
#X obj 182 428 array set \$1-\$4pro;
#X obj 235 222 demux;
#X obj 242 153 receive \$1-rev;
#X obj 262 267 -;
#X obj 243 129 array define \$1-\$4pro \$5;
#X obj 28 415 t b f b f;
#X obj 79 439 - 1;
#X obj 62 460 t f;
#X obj 28 371 v \$1-\$4size-2;
#X obj 132 100 list;
#X obj 235 350 spigot;
#X obj 268 327 >=;
#X obj 242 175 t b b f b;
#X obj 28 437 f 1;
#X obj 28 393 * 2;
#X obj 235 296 t b f b f f;
#X obj 282 350 + \$3;
#X obj 202 198 sel \$3;
#X obj 163 153 t f f f;
#X obj 282 372 - 2;
#X obj 250 372 - 1;
#X obj 262 245 swap \$3;
#X obj 340 185 receive \$1-\$4size-2;
#X obj 340 209 t b b f f f;
#X obj 132 17 t b b a b a b;
#X obj 524 178 array sum \$1-\$4pre;
#X obj 509 222 array sum \$1-\$4pre;
#X obj 509 244 -;
#X obj 509 266 abs;
#X obj 528 377 zexy/pack 0 \$1 \$4;
#X msg 528 399 \; \$2-notsafe :\$3 = \$1;
#X obj 335 15 receive \$1-ses\$4;
#X obj 524 157 spigot;
#X obj 509 200 spigot;
#X obj 600 326 t f;
#X obj 335 39 f;
#X obj 295 -7 receive \$1-savestart;
#X obj 295 15 t b f;
#X obj 335 61 spigot;
#X obj 509 289 t b f;
#X obj 509 311 del 0;
#X obj 509 333 f;
#X obj 509 355 t b f b;
#X connect 0 0 5 0;
#X connect 3 0 30 0;
#X connect 4 0 8 0;
#X connect 4 0 16 0;
#X connect 5 1 36 0;
#X connect 6 0 10 1;
#X connect 7 0 1 0;
#X connect 9 0 7 0;
#X connect 11 0 22 0;
#X connect 13 0 27 0;
#X connect 13 1 33 0;
#X connect 14 0 24 0;
#X connect 15 0 27 0;
#X connect 17 0 25 0;
#X connect 17 1 12 1;
#X connect 17 2 19 0;
#X connect 17 3 18 0;
#X connect 18 0 12 1;
#X connect 19 0 12 0;
#X connect 20 0 26 0;
#X connect 21 0 3 0;
#X connect 22 0 12 0;
#X connect 23 0 22 1;
#X connect 24 1 21 0;
#X connect 24 2 13 1;
#X connect 24 3 4 0;
#X connect 25 0 12 0;
#X connect 26 0 17 0;
#X connect 27 0 11 0;
#X connect 27 1 32 0;
#X connect 27 2 11 0;
#X connect 27 3 28 0;
#X connect 27 4 23 0;
#X connect 28 0 31 0;
#X connect 29 1 13 0;
#X connect 30 0 10 0;
#X connect 30 1 6 0;
#X connect 30 2 29 0;
#X connect 31 0 12 1;
#X connect 32 0 12 1;
#X connect 33 0 15 0;
#X connect 33 1 15 1;
#X connect 34 0 35 0;
#X connect 35 0 21 0;
#X connect 35 1 4 0;
#X connect 35 2 29 1;
#X connect 35 3 33 1;
#X connect 35 4 28 1;
#X connect 36 0 45 0;
#X connect 36 1 9 0;
#X connect 36 2 3 0;
#X connect 36 3 4 0;
#X connect 36 4 21 1;
#X connect 36 5 44 0;
#X connect 37 0 39 1;
#X connect 38 0 39 0;
#X connect 39 0 40 0;
#X connect 40 0 51 0;
#X connect 41 0 42 0;
#X connect 43 0 47 0;
#X connect 44 0 37 0;
#X connect 45 0 38 0;
#X connect 46 0 45 1;
#X connect 47 0 50 0;
#X connect 48 0 49 0;
#X connect 49 0 47 0;
#X connect 49 1 50 1;
#X connect 50 0 44 1;
#X connect 50 0 45 1;
#X connect 51 0 52 0;
#X connect 51 1 53 1;
#X connect 52 0 53 0;
#X connect 53 0 54 0;
#X connect 54 0 47 0;
#X connect 54 1 41 0;
#X connect 54 2 46 0;
