#N canvas 190 306 662 438 10;
#X obj 241 67 inlet;
#X obj 268 184 outlet;
#X obj 331 56 moses 1;
#X obj 348 222 outlet;
#X msg 422 98 2;
#X obj 268 126 demux 0 1 2;
#X obj 331 79 t f b b b;
#X obj 348 146 list;
#X obj 348 168 t b a;
#X msg 348 194 1;
#X obj 457 57 t f b b b;
#X obj 491 82 s \$1-togsoff\$3;
#X obj 299 270 switch-\$5 \$1;
#X obj 474 144 list \$6;
#X obj 331 33 receive \$1-\$2;
#X obj 513 119 receive \$1-\$4;
#X obj 369 123 receive \$1-\$3flt;
#X obj 126 219 s \$1-\$3-thead;
#X obj 241 100 t a a a;
#X obj 207 164 route 0;
#X obj 54 142 route 0;
#X obj 93 164 unpack;
#X obj 126 194 cyclone/funnel;
#X obj 474 247 s \$1-notsafe;
#X obj 474 225 list prepend :\$3;
#X connect 0 0 18 0;
#X connect 2 0 6 0;
#X connect 2 1 10 0;
#X connect 4 0 5 1;
#X connect 5 0 1 0;
#X connect 5 1 12 0;
#X connect 6 0 5 1;
#X connect 6 1 7 0;
#X connect 6 2 11 0;
#X connect 6 3 4 0;
#X connect 7 0 8 0;
#X connect 8 0 9 0;
#X connect 8 1 24 0;
#X connect 9 0 3 0;
#X connect 10 0 5 1;
#X connect 10 1 13 0;
#X connect 10 2 11 0;
#X connect 10 3 4 0;
#X connect 12 0 5 1;
#X connect 12 1 23 0;
#X connect 12 2 11 0;
#X connect 13 0 24 0;
#X connect 14 0 2 0;
#X connect 15 0 13 1;
#X connect 16 0 7 1;
#X connect 18 0 20 0;
#X connect 18 1 5 0;
#X connect 18 2 19 0;
#X connect 19 0 22 1;
#X connect 20 1 21 0;
#X connect 21 1 22 0;
#X connect 22 0 17 0;
#X connect 24 0 23 0;
