#N canvas 432 81 570 687 10;
#X obj 148 20 inlet;
#X obj 148 340 moses;
#X obj 233 516 f 1;
#X obj 148 494 t b;
#X obj 233 494 t b;
#X obj 148 516 f 0;
#X obj 180 554 t f f;
#X obj 134 612 outlet;
#X obj 212 582 outlet;
#X obj 180 392 moses \$1;
#X obj 180 427 / \$1;
#X obj 134 554 inlet;
#X obj 134 583 collect;
#X obj 395 175 sel 0;
#X obj 427 223 f 1;
#X obj 148 42 t f b;
#X obj 180 65 spigot;
#X obj 180 87 v \$2-rescue;
#X obj 196 262 tabread \$2-x-1-\$3;
#X obj 180 109 sel 0;
#X obj 212 133 sel;
#X obj 212 239 tabread \$2-x-1-\$3;
#X obj 258 286 receive \$2-:x;
#X text 431 154 turn locking on or off;
#X obj 212 179 f;
#X obj 212 155 t b b;
#X obj 244 179 f 1;
#X obj 281 182 t f f;
#X obj 281 204 - 1;
#X obj 313 204 + 1;
#X obj 180 286 t f f;
#X obj 233 334 t f f;
#X obj 180 313 * \$1;
#X obj 233 356 * \$1;
#X obj 363 152 t f f;
#X obj 395 198 t f b;
#X obj 230 109 - 1;
#X obj 273 67 receive \$2-nsize\$3;
#X obj 273 109 - 2;
#X obj 180 213 t f f;
#X obj 363 130 receive \$2-:lock;
#X connect 0 0 15 0;
#X connect 1 0 3 0;
#X connect 1 1 9 0;
#X connect 2 0 6 0;
#X connect 3 0 5 0;
#X connect 4 0 2 0;
#X connect 5 0 6 0;
#X connect 6 0 12 1;
#X connect 6 1 8 0;
#X connect 9 0 10 0;
#X connect 9 1 4 0;
#X connect 10 0 6 0;
#X connect 11 0 12 0;
#X connect 12 0 7 0;
#X connect 13 0 35 0;
#X connect 14 0 31 0;
#X connect 15 0 1 0;
#X connect 15 1 16 0;
#X connect 16 0 17 0;
#X connect 17 0 19 0;
#X connect 18 0 30 0;
#X connect 19 0 39 0;
#X connect 19 1 20 0;
#X connect 20 0 25 0;
#X connect 20 1 27 0;
#X connect 21 0 31 0;
#X connect 22 0 10 1;
#X connect 22 0 33 1;
#X connect 22 0 32 1;
#X connect 22 0 9 1;
#X connect 24 0 18 0;
#X connect 25 0 24 0;
#X connect 25 1 26 0;
#X connect 26 0 31 0;
#X connect 27 0 28 0;
#X connect 27 1 29 0;
#X connect 28 0 18 0;
#X connect 29 0 21 0;
#X connect 30 0 32 0;
#X connect 30 1 5 1;
#X connect 31 0 33 0;
#X connect 31 1 2 1;
#X connect 32 0 1 1;
#X connect 33 0 9 1;
#X connect 34 0 16 1;
#X connect 34 1 13 0;
#X connect 35 0 30 0;
#X connect 35 1 14 0;
#X connect 36 0 20 1;
#X connect 37 0 36 0;
#X connect 37 0 38 0;
#X connect 38 0 24 1;
#X connect 39 0 30 0;
#X connect 39 1 29 0;
#X connect 40 0 34 0;
