#N canvas 723 345 493 355 10;
#X obj 138 77 inlet;
#X obj 138 184 outlet;
#X obj 212 325 outlet;
#X obj 270 178 - 1;
#X obj 201 156 list 0 0 0;
#X obj 201 200 list split 3;
#X obj 270 223 list append 0;
#X obj 220 130 t b a;
#X obj 201 246 list prepend :\$4;
#X obj 250 100 s \$1-\$5;
#X obj 182 33 receive \$1-\$2;
#X obj 270 156 receive \$1-\$3size-2;
#X obj 258 130 receive \$1-:\$4;
#X obj 201 268 s \$1-notsafe;
#X obj 231 78 t b b b;
#X obj 138 126 sp01 1;
#X obj 182 78 t b b b;
#X obj 182 56 sel 0;
#X connect 0 0 15 0;
#X connect 3 0 5 1;
#X connect 4 0 5 0;
#X connect 5 0 8 0;
#X connect 5 2 6 0;
#X connect 6 0 7 0;
#X connect 7 0 4 0;
#X connect 7 1 4 1;
#X connect 8 0 13 0;
#X connect 10 0 17 0;
#X connect 11 0 3 0;
#X connect 12 0 4 1;
#X connect 14 0 15 2;
#X connect 14 1 9 0;
#X connect 14 2 15 1;
#X connect 15 0 1 0;
#X connect 16 0 15 2;
#X connect 16 1 4 0;
#X connect 16 2 15 1;
#X connect 17 0 16 0;
#X connect 17 1 14 0;
