#N canvas 71 430 522 300 10;
#X obj 136 62 inlet;
#X obj 136 127 outlet n1;
#X obj 207 127 outlet n2;
#X obj 136 89 sel 4;
#X obj 237 197 s \$1-valref;
#X obj 237 172 v \$1-ysize-2;
#X obj 173 62 receive \$1-xsize-21;
#X obj 350 64 inlet tab-bang;
#X obj 350 96 t b f;
#X obj 350 162 send;
#X obj 377 118 + 1;
#X obj 377 140 makefilename \$1-x%dr;
#X connect 0 0 3 0;
#X connect 3 0 5 0;
#X connect 3 1 1 0;
#X connect 5 0 4 0;
#X connect 6 0 3 1;
#X connect 7 0 8 0;
#X connect 8 0 9 0;
#X connect 8 1 10 0;
#X connect 10 0 11 0;
#X connect 11 0 9 1;
