#N canvas 259 250 450 300 10;
#X obj 169 55 inlet;
#X obj 169 207 outlet;
#X obj 216 207 outlet;
#X obj 267 207 outlet;
#X msg 216 124 2;
#X msg 169 124 1;
#X obj 169 77 t b a b;
#X obj 186 169 s \$1-concol;
#X connect 0 0 6 0;
#X connect 4 0 1 0;
#X connect 5 0 1 0;
#X connect 6 0 5 0;
#X connect 6 1 7 0;
#X connect 6 2 4 0;
