#N canvas 295 177 662 578 10;
#X obj 241 67 inlet;
#X obj 268 184 outlet;
#X obj 331 56 moses 1;
#X obj 348 222 outlet;
#X msg 422 98 2;
#X obj 268 126 demux 0 1 2;
#X obj 331 79 t f b b b;
#X obj 348 146 list;
#X obj 348 168 t b a;
#X msg 348 194 1;
#X obj 457 57 t f b b b;
#X obj 299 270 switch-\$5 \$1;
#X obj 474 164 list \$6;
#X obj 331 33 receive \$1-\$2;
#X obj 513 139 receive \$1-\$4;
#X obj 369 123 receive \$1-\$3flt;
#X obj 126 219 s \$1-\$3-thead;
#X obj 207 164 route 0;
#X obj 54 142 route 0;
#X obj 93 164 unpack;
#X obj 126 194 cyclone/funnel;
#X obj 474 247 s \$1-notsafe;
#X obj 474 225 list prepend :\$3;
#X obj 241 100 t a a a a;
#X obj 503 336 receive moveon&&u*;
#X obj 470 360 spigot;
#X text 523 361 if [mover] is on \, reset toggles;
#X obj 470 385 route 0;
#X obj 470 408 t f f;
#X obj 470 481 pack;
#X obj 509 408 unpack;
#X obj 509 431 t b;
#X obj 509 454 t f;
#X obj 470 504 t b l b;
#X obj 509 530 t f;
#X obj 470 527 f 1;
#X obj 491 82 t f;
#X obj 491 105 s \$1-togsoff\$3;
#X connect 0 0 23 0;
#X connect 2 0 6 0;
#X connect 2 1 10 0;
#X connect 4 0 5 1;
#X connect 5 0 1 0;
#X connect 5 1 11 0;
#X connect 6 0 5 1;
#X connect 6 1 7 0;
#X connect 6 2 36 0;
#X connect 6 3 4 0;
#X connect 7 0 8 0;
#X connect 8 0 9 0;
#X connect 8 1 22 0;
#X connect 9 0 3 0;
#X connect 10 0 5 1;
#X connect 10 1 12 0;
#X connect 10 2 36 0;
#X connect 10 3 4 0;
#X connect 11 0 5 1;
#X connect 11 1 21 0;
#X connect 11 2 36 0;
#X connect 12 0 22 0;
#X connect 13 0 2 0;
#X connect 14 0 12 1;
#X connect 15 0 7 1;
#X connect 17 0 20 1;
#X connect 18 1 19 0;
#X connect 19 1 20 0;
#X connect 20 0 16 0;
#X connect 22 0 21 0;
#X connect 23 0 18 0;
#X connect 23 1 5 0;
#X connect 23 2 17 0;
#X connect 23 3 25 0;
#X connect 24 0 25 1;
#X connect 25 0 27 0;
#X connect 27 0 28 0;
#X connect 27 1 30 0;
#X connect 28 0 29 0;
#X connect 28 1 29 1;
#X connect 29 0 33 0;
#X connect 30 0 31 0;
#X connect 30 1 29 1;
#X connect 31 0 32 0;
#X connect 32 0 29 0;
#X connect 33 0 35 0;
#X connect 33 1 22 0;
#X connect 33 2 34 0;
#X connect 34 0 25 1;
#X connect 35 0 25 1;
#X connect 36 0 37 0;
