#N canvas 381 197 575 549 10;
#X msg 151 482 \; \$4-\$5-\$1-point \$2 \$3;
#X obj 151 295 pack f f f \$1 \$2;
#X obj 174 267 * 128;
#X obj 151 317 t l b;
#X obj 183 343 outlet;
#X obj 169 57 - 1;
#X obj 151 177 spigot;
#X obj 169 79 t f f f;
#X text 198 56 6: read arrays in synch;
#X text 227 191 7: send new data only if there is a change;
#X obj 106 29 cyclone/uzi;
#X obj 169 5 receive \$1-nsize1;
#X obj 208 110 xread \$1 y 79 1;
#X obj 188 138 xread \$1 x 128 1;
#X obj 106 6 inlet;
#X obj 201 241 receive \$1-:x;
#X obj 151 379 demux 0 1 2;
#X msg 188 443 \; \$4-\$5-\$1-point x \$3;
#X msg 225 405 \; \$4-\$5-\$1-point y \$2;
#X obj 235 343 receive r%gJN3-x;
#X obj 281 169 ||;
#X connect 1 0 3 0;
#X connect 2 0 1 1;
#X connect 3 0 16 0;
#X connect 3 1 4 0;
#X connect 5 0 7 0;
#X connect 6 0 1 0;
#X connect 7 0 6 0;
#X connect 7 1 13 0;
#X connect 7 2 12 0;
#X connect 10 2 5 0;
#X connect 11 0 10 1;
#X connect 12 0 1 2;
#X connect 12 1 20 1;
#X connect 13 0 2 0;
#X connect 13 1 20 0;
#X connect 14 0 10 0;
#X connect 15 0 2 1;
#X connect 16 0 0 0;
#X connect 16 1 17 0;
#X connect 16 2 18 0;
#X connect 19 0 16 1;
#X connect 20 0 6 1;
