#N canvas 309 220 450 300 10;
#X obj 102 10 inlet;
#X obj 136 241 outlet n1;
#X obj 207 241 outlet n2;
#X obj 207 32 inlet;
#X obj 136 55 t b a b;
#X obj 155 127 cyclone/iter;
#X obj 155 153 t f f;
#X obj 175 100 array define \$1-ypre \$3;
#X obj 155 195 array set \$1-ypre;
#X obj 136 219 array get \$1-ypre;
#X msg 175 78 const 0;
#X obj 102 32 list split 1;
#X obj 182 174 - 1;
#X connect 0 0 11 0;
#X connect 4 0 9 0;
#X connect 4 1 5 0;
#X connect 4 2 10 0;
#X connect 5 0 6 0;
#X connect 6 0 8 0;
#X connect 6 1 12 0;
#X connect 9 0 1 0;
#X connect 10 0 7 0;
#X connect 11 1 4 0;
#X connect 12 0 8 1;
