#N canvas 672 317 450 404 10;
#X obj 148 20 inlet;
#X obj 148 60 moses;
#X obj 233 126 f 1;
#X obj 233 104 t b;
#X obj 180 204 t f f;
#X obj 134 257 outlet;
#X obj 212 232 outlet;
#X obj 180 82 moses \$1;
#X obj 180 147 / \$1;
#X obj 88 19 inlet;
#X obj 134 234 collect;
#X obj 148 104 t b;
#X obj 148 126 t f;
#X obj 205 20 receive \$2-:x;
#X connect 0 0 1 0;
#X connect 1 0 11 0;
#X connect 1 1 7 0;
#X connect 2 0 4 0;
#X connect 3 0 2 0;
#X connect 4 0 10 1;
#X connect 4 1 6 0;
#X connect 7 0 8 0;
#X connect 7 1 3 0;
#X connect 8 0 4 0;
#X connect 9 0 10 0;
#X connect 10 0 5 0;
#X connect 11 0 12 0;
#X connect 12 0 4 0;
#X connect 13 0 7 1;
#X connect 13 0 8 1;
