#N canvas 726 385 450 300 10;
#X obj 261 100 text get \$1-save;
#X obj 261 122 list trim;
#X obj 261 144 route %^;
#X obj 261 34 receive \$1-carg1;
#X obj 261 56 f \$2;
#X obj 261 78 + \$3;
#X obj 45 171 s \$1-tomess;
#X obj 45 149 list prepend :\$4\$2;
#X obj 261 211 text set \$5-mysym \$6;
#X obj 45 60 receive \$1-savelists;
#X obj 261 188 list;
#X obj 261 166 route :\$4\$2;
#X obj 45 105 text get \$5-mysym;
#X obj 45 82 f \$6;
#X obj 45 127 l2s;
#X connect 0 0 1 0;
#X connect 1 0 2 0;
#X connect 2 0 11 0;
#X connect 2 1 11 0;
#X connect 3 0 4 0;
#X connect 4 0 5 0;
#X connect 5 0 0 0;
#X connect 7 0 6 0;
#X connect 9 0 13 0;
#X connect 10 0 8 0;
#X connect 11 0 10 0;
#X connect 11 1 10 0;
#X connect 12 0 14 0;
#X connect 13 0 12 0;
#X connect 14 0 7 0;
