#N canvas 555 250 450 444 10;
#X obj 261 100 text get \$1-save;
#X obj 261 122 list trim;
#X obj 261 144 route %^;
#X obj 261 34 receive \$1-carg1;
#X obj 261 56 f \$2;
#X obj 261 78 + \$3;
#X obj 108 334 s \$1-tomess;
#X obj 108 312 list prepend :\$4\$2;
#X obj 261 211 text set \$5-mysym \$6;
#X obj 45 60 receive \$1-savelists;
#X obj 261 188 list;
#X obj 261 166 route :\$4\$2;
#X obj 45 105 text get \$5-mysym;
#X obj 45 82 f \$6;
#X obj 108 151 t b a;
#X obj 135 174 else/fromany;
#X obj 135 197 cyclone/iter;
#X obj 135 220 sel 32;
#X obj 135 243 pack 194 160;
#X obj 108 266 collect;
#X obj 108 289 list tosymbol;
#X obj 45 128 route float;
#X obj 322 289 receive \$1-:\$4\$2;
#X obj 322 335 s \$1-\$2-newsymbol;
#X obj 322 312 t b a;
#X connect 0 0 1 0;
#X connect 1 0 2 0;
#X connect 2 0 11 0;
#X connect 2 1 11 0;
#X connect 3 0 4 0;
#X connect 4 0 5 0;
#X connect 5 0 0 0;
#X connect 7 0 6 0;
#X connect 9 0 13 0;
#X connect 10 0 8 0;
#X connect 11 0 10 0;
#X connect 11 1 10 0;
#X connect 12 0 21 0;
#X connect 13 0 12 0;
#X connect 14 0 19 0;
#X connect 14 1 15 0;
#X connect 15 0 16 0;
#X connect 16 0 17 0;
#X connect 17 0 18 0;
#X connect 17 1 19 1;
#X connect 18 0 19 1;
#X connect 19 0 20 0;
#X connect 20 0 7 0;
#X connect 21 0 7 0;
#X connect 21 1 14 0;
#X connect 22 0 24 0;
#X connect 24 0 23 0;
#X connect 24 1 10 0;
