#N canvas 595 87 552 681 10;
#X obj 184 287 +;
#X obj 180 107 t f f;
#X obj 184 242 +;
#X obj 184 354 change;
#X obj 184 331 == 7;
#X obj 299 658 sel 0 1;
#X obj 322 682 f \$2;
#X obj 180 84 demux;
#X obj 322 710 s \$3-\$1;
#X obj 180 152 == \$4;
#X obj 35 486 moses \$5;
#X obj 287 682 f \$4;
#X obj 199 219 t b f;
#X obj 151 424 spigot;
#X obj 80 508 t f f;
#X obj 80 599 moses 0;
#X obj 119 622 t f b;
#X obj 80 622 t f b;
#X obj 119 715 + 1;
#X obj 80 642 abs;
#X obj 106 542 abs;
#X obj 80 542 abs;
#X obj 80 565 - \$4;
#X obj 119 693 f \$4;
#X obj 119 747 demux;
#X obj 146 793 s \$3-\$1-3;
#X obj 119 770 t f f;
#X obj 98 805 f \$4;
#X obj -1 716 t b b;
#X obj 169 878 f;
#X obj 169 901 s \$3-\$1-4;
#X obj 112 877 s \$3-bif;
#X obj 121 508 s \$3-:\$6;
#X obj 141 1052 s \$3-\$1-2;
#X obj 178 609 s \$3-block;
#X msg 307 527 label;
#X obj 299 587 t f f f;
#X obj 311 634 demux;
#X obj 329 807 f;
#X obj 344 783 t f b;
#X obj 329 831 pipe 710;
#X obj 329 738 spigot;
#X obj 329 760 t b f;
#X obj 98 829 t b b f f f f f;
#X obj 127 1025 s \$3-\$1-22;
#X obj 127 927 list prepend \$6;
#X obj 127 949 list trim;
#X obj 127 971 route Y;
#X obj 127 993 - 1;
#X obj 166 993 list split 1;
#X obj 199 197 * 2;
#X obj 291 129 * 4;
#X obj 324 272 change;
#X obj 324 249 == 11;
#X obj 324 339 s \$3-\$6E;
#X obj 324 317 t f f;
#X obj 351 361 sel 1;
#X obj 324 295 spigot 1;
#X obj 342 204 sel 0;
#X obj 342 226 t f b;
#X obj 291 153 t b b f f;
#X obj 178 565 list append \$6;
#X obj 203 423 sel 1 0;
#X obj 183 521 f \$4;
#X obj 390 501 s otheroff@#;
#X obj 222 479 t f;
#X obj 222 501 s \$3-notme;
#X obj 351 383 t f b b;
#X obj 151 455 demux;
#X obj 119 669 until;
#X obj 180 62 receive \$3-\$1-in;
#X obj 207 12 receive \$3-entryon;
#X obj 207 -10 receive \$3-rson;
#X obj 207 34 receive \$3-lson;
#X obj 291 107 receive \$3-click2;
#X obj 207 129 receive \$3-\$1;
#X obj 253 423 receive \$3-xyprot;
#X obj 35 424 receive \$3-\$1-init;
#X obj -1 693 receive \$3-argstart;
#X obj 169 851 receive \$3-colobang;
#X obj 184 377 t f f f;
#X obj 223 400 s \$3-move-disable;
#X obj 299 564 receive \$3-morphon;
#X obj 311 610 receive \$3-\$1-2-in;
#X obj 199 175 receive \$3-eitherkey;
#X obj 203 454 t b b b;
#X obj 223 330 s \$3-\$6curs;
#X obj 184 264 t f f;
#X obj 184 308 t f f;
#X obj 369 272 f 1;
#X obj 390 479 f 1;
#X obj 146 643 f 1;
#X obj 107 642 f -1;
#X obj 384 784 f 1;
#X obj 26 743 f 1;
#X obj 151 484 t f f b;
#X obj 190 635 s \$3-lbll;
#X msg 178 587 label :\$2 \$1;
#X obj 183 543 - 1;
#X obj 98 854 s \$3-all\$7s;
#X connect 0 0 88 0;
#X connect 1 0 9 0;
#X connect 1 1 13 0;
#X connect 2 0 87 0;
#X connect 3 0 80 0;
#X connect 4 0 3 0;
#X connect 5 0 11 0;
#X connect 5 0 41 0;
#X connect 5 1 6 0;
#X connect 6 0 8 0;
#X connect 7 0 1 0;
#X connect 9 0 2 0;
#X connect 10 1 14 0;
#X connect 11 0 8 0;
#X connect 12 0 2 0;
#X connect 12 1 2 1;
#X connect 13 0 68 0;
#X connect 14 0 20 0;
#X connect 14 1 21 0;
#X connect 15 0 17 0;
#X connect 15 1 16 0;
#X connect 16 0 69 0;
#X connect 16 1 91 0;
#X connect 17 0 19 0;
#X connect 17 1 92 0;
#X connect 18 0 23 1;
#X connect 18 0 24 0;
#X connect 19 0 69 0;
#X connect 20 0 22 1;
#X connect 21 0 22 0;
#X connect 22 0 15 0;
#X connect 23 0 18 0;
#X connect 24 0 26 0;
#X connect 24 1 43 0;
#X connect 26 0 27 1;
#X connect 26 1 25 0;
#X connect 27 0 43 0;
#X connect 28 0 27 0;
#X connect 28 1 94 0;
#X connect 29 0 30 0;
#X connect 35 0 34 0;
#X connect 36 0 5 0;
#X connect 36 1 7 1;
#X connect 36 2 37 1;
#X connect 37 0 10 0;
#X connect 37 1 39 0;
#X connect 38 0 40 0;
#X connect 39 0 38 1;
#X connect 39 1 93 0;
#X connect 40 0 10 0;
#X connect 41 0 42 0;
#X connect 42 0 38 0;
#X connect 42 1 41 1;
#X connect 43 0 99 0;
#X connect 43 1 31 0;
#X connect 43 2 45 0;
#X connect 43 3 33 0;
#X connect 43 4 8 0;
#X connect 43 5 11 1;
#X connect 43 6 29 1;
#X connect 45 0 46 0;
#X connect 46 0 47 0;
#X connect 47 0 48 0;
#X connect 47 1 49 0;
#X connect 48 0 44 0;
#X connect 49 1 44 0;
#X connect 50 0 12 0;
#X connect 51 0 60 0;
#X connect 52 0 57 0;
#X connect 53 0 52 0;
#X connect 55 0 54 0;
#X connect 55 1 56 0;
#X connect 56 0 67 0;
#X connect 57 0 55 0;
#X connect 58 0 59 0;
#X connect 59 0 54 0;
#X connect 59 1 89 0;
#X connect 60 0 2 0;
#X connect 60 2 0 1;
#X connect 60 3 58 0;
#X connect 61 0 97 0;
#X connect 62 0 85 0;
#X connect 62 1 35 0;
#X connect 63 0 98 0;
#X connect 65 0 66 0;
#X connect 67 0 57 1;
#X connect 67 1 65 0;
#X connect 67 2 90 0;
#X connect 68 0 95 0;
#X connect 69 0 23 0;
#X connect 70 0 7 0;
#X connect 71 0 7 1;
#X connect 72 0 7 1;
#X connect 73 0 7 1;
#X connect 74 0 51 0;
#X connect 75 0 9 1;
#X connect 76 0 68 1;
#X connect 77 0 10 0;
#X connect 77 0 63 1;
#X connect 78 0 28 0;
#X connect 79 0 29 0;
#X connect 80 0 13 1;
#X connect 80 1 62 0;
#X connect 80 2 81 0;
#X connect 82 0 36 0;
#X connect 83 0 37 0;
#X connect 84 0 50 0;
#X connect 85 0 63 0;
#X connect 85 1 65 0;
#X connect 85 2 90 0;
#X connect 87 0 0 0;
#X connect 87 1 86 0;
#X connect 88 0 4 0;
#X connect 88 1 53 0;
#X connect 89 0 57 1;
#X connect 90 0 64 0;
#X connect 91 0 18 1;
#X connect 92 0 18 1;
#X connect 93 0 41 1;
#X connect 94 0 24 1;
#X connect 95 0 32 0;
#X connect 95 1 63 0;
#X connect 95 2 96 0;
#X connect 97 0 34 0;
#X connect 98 0 61 0;
