#N canvas 530 376 450 336 10;
#X obj 152 117 cyclone/zl rev;
#X obj 242 187 cyclone/zl rev;
#X obj 152 92 text tolist \$1-\$2;
#X obj 133 23 inlet;
#X obj 242 245 send \$1-\$3;
#X obj 242 209 cyclone/substitute \; |;
#X obj 185 166 route bang;
#X obj 152 141 route \;;
#X obj 98 141 t b a;
#X obj 172 69 v \$1-\$4size-21;
#X obj 98 165 f;
#X obj 127 165 - 1;
#X obj 133 46 t b b b;
#X obj 83 189 f;
#X text -126 174 calculate last position in database;
#X obj 83 212 print last;
#X obj 224 18 inlet;
#X connect 0 0 7 0;
#X connect 1 0 5 0;
#X connect 2 0 0 0;
#X connect 3 0 12 0;
#X connect 5 0 4 0;
#X connect 5 1 4 0;
#X connect 6 0 4 0;
#X connect 6 1 1 0;
#X connect 7 0 8 0;
#X connect 7 1 6 0;
#X connect 8 0 10 0;
#X connect 8 1 7 0;
#X connect 9 0 10 1;
#X connect 10 0 11 0;
#X connect 10 0 13 1;
#X connect 11 0 10 1;
#X connect 12 0 13 0;
#X connect 12 1 2 0;
#X connect 12 2 9 0;
#X connect 13 0 15 0;
