#N canvas 453 203 623 387 10;
#X obj 152 197 cyclone/zl rev;
#X obj 242 267 cyclone/zl rev;
#X obj 152 172 text tolist \$1-\$2;
#X obj 242 325 send \$1-\$3;
#X obj 242 289 cyclone/substitute \; |;
#X obj 185 246 route bang;
#X obj 152 221 route \;;
#X obj 98 221 t b a;
#X obj 172 149 v \$1-\$4size-21;
#X obj 98 245 f;
#X obj 127 245 - 1;
#X obj 133 126 t b b b;
#X obj 83 269 f;
#X text -126 254 calculate last position in database;
#X obj 83 292 print last;
#X obj 178 19 inlet zero;
#X obj 249 -4 inlet one;
#X obj 133 73 receive \$1-savelists;
#X obj 133 96 spigot 1;
#X obj 178 42 t f;
#X obj 249 19 t b b;
#X obj 249 42 f 1;
#X obj 267 76 print chan;
#X connect 0 0 6 0;
#X connect 1 0 4 0;
#X connect 2 0 0 0;
#X connect 4 0 3 0;
#X connect 4 1 3 0;
#X connect 5 0 3 0;
#X connect 5 1 1 0;
#X connect 6 0 7 0;
#X connect 6 1 5 0;
#X connect 7 0 9 0;
#X connect 7 1 6 0;
#X connect 8 0 9 1;
#X connect 9 0 10 0;
#X connect 9 0 12 1;
#X connect 10 0 9 1;
#X connect 11 0 12 0;
#X connect 11 1 2 0;
#X connect 11 2 8 0;
#X connect 12 0 14 0;
#X connect 15 0 19 0;
#X connect 16 0 20 0;
#X connect 17 0 18 0;
#X connect 18 0 11 0;
#X connect 19 0 18 1;
#X connect 20 0 21 0;
#X connect 20 1 22 0;
#X connect 21 0 18 1;
