#N canvas 67 203 623 505 10;
#X obj 100 178 text tolist \$1-\$2;
#X obj 190 335 send \$1-\$3;
#X obj 276 83 v \$1-\$4size-21;
#X obj 145 75 inlet zero;
#X obj 249 14 inlet one;
#X obj 100 129 receive \$1-savelists;
#X obj 100 152 spigot 1;
#X obj 145 98 t f;
#X obj 249 60 f 1;
#X obj 249 37 t b b;
#X obj 276 129 until;
#X obj 276 152 f;
#X obj 276 175 - 1;
#X obj 276 222 text get \$1-\$2;
#X obj 276 245 route bang;
#X obj 276 198 t f f f;
#X obj 333 292 f;
#X obj 333 268 t b b;
#X obj 276 106 t f f;
#X obj 100 202 cyclone/zl rev;
#X obj 190 274 cyclone/zl rev;
#X obj 190 298 cyclone/substitute \; |;
#X obj 100 226 route \;;
#X obj 133 251 route bang;
#X obj 445 153 receive \$1-\$4limit-p;
#X obj 472 201 s \$1-\$4limit;
#X obj 276 60 spigot 1;
#X obj 445 176 t f f;
#X obj 445 201 ==;
#X obj 333 316 moses 1;
#X obj 372 340 + 2;
#X connect 0 0 19 0;
#X connect 2 0 18 0;
#X connect 3 0 7 0;
#X connect 4 0 9 0;
#X connect 5 0 6 0;
#X connect 6 0 0 0;
#X connect 7 0 6 1;
#X connect 8 0 6 1;
#X connect 9 0 8 0;
#X connect 9 1 26 0;
#X connect 10 0 11 0;
#X connect 11 0 12 0;
#X connect 12 0 15 0;
#X connect 13 0 14 0;
#X connect 14 1 17 0;
#X connect 15 0 13 0;
#X connect 15 1 16 1;
#X connect 15 2 11 1;
#X connect 16 0 29 0;
#X connect 17 0 16 0;
#X connect 17 1 10 1;
#X connect 18 0 10 0;
#X connect 18 1 11 1;
#X connect 19 0 22 0;
#X connect 20 0 21 0;
#X connect 21 0 1 0;
#X connect 21 1 1 0;
#X connect 22 0 22 0;
#X connect 22 1 23 0;
#X connect 23 1 20 0;
#X connect 24 0 27 0;
#X connect 26 0 2 0;
#X connect 27 0 28 0;
#X connect 27 1 25 0;
#X connect 28 0 26 1;
#X connect 29 0 25 0;
#X connect 29 1 30 0;
#X connect 30 0 25 0;
