#N canvas 350 121 450 300 10;
#X obj 152 95 cyclone/zl rev;
#X obj 242 165 cyclone/zl rev;
#X obj 152 70 text tolist \$1-\$2;
#X obj 152 49 inlet;
#X obj 242 223 send \$1-\$3;
#X obj 242 187 cyclone/substitute \; |;
#X obj 152 119 route \;;
#X obj 185 144 route bang;
#X connect 0 0 6 0;
#X connect 1 0 5 0;
#X connect 2 0 0 0;
#X connect 3 0 2 0;
#X connect 5 0 4 0;
#X connect 5 1 4 0;
#X connect 6 0 6 0;
#X connect 6 1 7 0;
#X connect 7 0 4 0;
#X connect 7 1 1 0;
