#N canvas 439 335 450 300 10;
#X obj 119 90 cyclone/zl rev;
#X obj 152 136 cyclone/zl rev;
#X obj 62 43 text tolist \$1-\$2;
#X obj 119 114 route \;;
#X obj 152 158 cyclone/substitute \; ||;
#X obj 62 19 inlet tosave;
#X obj 260 38 receive \$1-\$4;
#X obj 287 81 cyclone/substitute || \;;
#X obj 287 104 list append \;;
#X obj 287 128 text fromlist \$1-\$2;
#X obj 260 60 t b a;
#X obj 244 81 outlet;
#X obj 152 194 cyclone/substitute ' [%^[;
#X obj 152 216 cyclone/substitute " ';
#X obj 152 238 cyclone/substitute [%^[ ";
#X obj 152 260 send \$1-\$3;
#X obj 62 67 route bang;
#X connect 0 0 3 0;
#X connect 1 0 4 0;
#X connect 2 0 16 0;
#X connect 3 0 3 0;
#X connect 3 1 1 0;
#X connect 4 0 12 0;
#X connect 4 1 12 0;
#X connect 5 0 2 0;
#X connect 6 0 10 0;
#X connect 7 0 8 0;
#X connect 7 1 8 0;
#X connect 8 0 9 0;
#X connect 10 0 11 0;
#X connect 10 1 7 0;
#X connect 12 0 13 0;
#X connect 12 1 13 0;
#X connect 13 0 14 0;
#X connect 13 1 14 0;
#X connect 14 0 15 0;
#X connect 14 1 15 0;
#X connect 16 0 15 0;
#X connect 16 1 0 0;
