#N canvas 368 246 511 442 10;
#X obj 77 287 inlet;
#X obj 77 331 s \$1-rnum;
#X obj 77 309 f \$2;
#X obj 215 189 f \$2;
#X obj 215 211 s \$1-savenum;
#X obj 353 178 f \$2;
#X obj 188 237 relay \$4;
#X obj 188 165 t a b;
#X obj 233 313 t a a;
#X obj 260 337 s \$1-saveset;
#X obj 233 383 s \$1-everything;
#X obj 353 156 t b s;
#X obj 353 200 pack f s;
#X obj 188 259 list prepend %^ :\$3;
#X obj 233 284 list prepend :\$3;
#X obj 116 92 receive \$1-:\$3;
#X obj 353 134 receive \$1-\$3-fetch;
#X obj 353 222 s \$1-fetchno2;
#X obj 116 116 route -o;
#X obj 116 139 t b f;
#X obj 116 162 f 1;
#X obj 28 140 spigot;
#X obj 28 163 t b f;
#X obj 11 116 receive \$1-ended;
#X obj 161 139 t f f;
#X obj 143 337 list prepend :\$3;
#X obj 146 268 f 1;
#X connect 0 0 2 0;
#X connect 2 0 1 0;
#X connect 3 0 4 0;
#X connect 5 0 12 0;
#X connect 6 0 13 0;
#X connect 6 1 14 0;
#X connect 7 0 6 0;
#X connect 7 1 3 0;
#X connect 8 0 10 0;
#X connect 8 1 9 0;
#X connect 11 0 5 0;
#X connect 11 1 12 1;
#X connect 12 0 17 0;
#X connect 13 0 8 0;
#X connect 14 0 8 0;
#X connect 15 0 18 0;
#X connect 16 0 11 0;
#X connect 18 0 19 0;
#X connect 18 1 24 0;
#X connect 19 0 20 0;
#X connect 19 1 25 0;
#X connect 20 0 21 1;
#X connect 21 0 22 0;
#X connect 22 0 26 0;
#X connect 22 1 21 1;
#X connect 23 0 21 0;
#X connect 24 0 26 1;
#X connect 24 1 7 0;
#X connect 25 0 10 0;
#X connect 26 0 25 0;
