#N canvas 378 223 536 423 10;
#X obj 99 41 inlet;
#X obj 99 85 s \$1-rnum;
#X obj 99 63 f \$2;
#X obj 239 89 f \$2;
#X obj 239 111 s \$1-savenum;
#X obj 205 140 route 0;
#X obj 215 194 t f;
#X msg 244 164 1;
#X obj 188 218 demux;
#X obj 188 65 t a a b b;
#X obj 188 240 t b;
#X obj 215 313 t a a;
#X obj 215 360 s \$1-saveset;
#X obj 242 337 s \$1-everything;
#X obj 215 290 list prepend :\$3;
#X obj 188 262 list append %^ :\$3 clear;
#X obj 188 41 receive \$1-:\$3;
#X obj 353 108 f \$2;
#X obj 353 86 t b s;
#X obj 353 130 pack f s;
#X obj 353 64 receive \$1-\$3-fetch;
#X obj 353 152 s \$1-fetchno2;
#X connect 0 0 2 0;
#X connect 2 0 1 0;
#X connect 3 0 4 0;
#X connect 5 0 5 0;
#X connect 5 1 7 0;
#X connect 6 0 8 1;
#X connect 7 0 8 1;
#X connect 8 0 10 0;
#X connect 8 1 14 0;
#X connect 9 0 8 0;
#X connect 9 1 5 0;
#X connect 9 2 6 0;
#X connect 9 3 3 0;
#X connect 10 0 15 0;
#X connect 11 0 13 0;
#X connect 11 1 12 0;
#X connect 14 0 11 0;
#X connect 15 0 11 0;
#X connect 16 0 9 0;
#X connect 17 0 19 0;
#X connect 18 0 17 0;
#X connect 18 1 19 1;
#X connect 19 0 21 0;
#X connect 20 0 18 0;
