#N canvas 196 303 577 374 10;
#X obj 99 71 inlet;
#X obj 99 115 s \$1-rnum;
#X obj 99 93 f \$2;
#X obj 207 119 f \$2;
#X obj 207 141 s \$1-savenum;
#X obj 412 59 f \$2;
#X obj 188 167 relay \$4;
#X obj 233 242 t a a;
#X obj 233 310 s \$1-saveset;
#X obj 260 287 s \$1-everything;
#X obj 412 37 t b s;
#X obj 412 81 pack f s;
#X obj 188 189 list prepend %^ :\$3;
#X obj 233 219 list prepend :\$3;
#X obj 188 71 receive \$1-:\$3;
#X obj 412 15 receive \$1-\$3-fetch;
#X obj 412 103 s \$1-fetchno2;
#X obj 281 71 receive \$1-:\$3-n;
#X msg 293 241 1;
#X obj 326 241 t f;
#X obj 260 264 spigot;
#X obj 188 95 t a b b a;
#X obj 281 93 t a b b a;
#X obj 332 133 route float;
#X obj 332 155 v \$1-:\$3-v;
#X connect 0 0 2 0;
#X connect 2 0 1 0;
#X connect 3 0 4 0;
#X connect 5 0 11 0;
#X connect 6 0 12 0;
#X connect 6 1 13 0;
#X connect 7 0 20 0;
#X connect 7 1 8 0;
#X connect 10 0 5 0;
#X connect 10 1 11 1;
#X connect 11 0 16 0;
#X connect 12 0 7 0;
#X connect 13 0 7 0;
#X connect 14 0 21 0;
#X connect 15 0 10 0;
#X connect 17 0 22 0;
#X connect 18 0 20 1;
#X connect 19 0 20 1;
#X connect 20 0 9 0;
#X connect 21 0 6 0;
#X connect 21 1 3 0;
#X connect 21 2 18 0;
#X connect 21 3 23 0;
#X connect 22 0 6 0;
#X connect 22 1 3 0;
#X connect 22 2 19 0;
#X connect 22 3 23 0;
#X connect 23 0 24 0;
