#N canvas 94 246 503 352 10;
#X obj 99 41 inlet;
#X obj 99 85 s \$1-rnum;
#X obj 99 63 f \$2;
#X obj 188 65 t a b;
#X obj 215 89 f \$2;
#X obj 215 111 s \$1-savenum;
#X obj 233 252 list append ';
#X obj 233 274 list prepend ';
#X obj 233 320 s \$1-saveset;
#X obj 188 41 receive \$1-:\$3;
#X obj 353 108 f \$2;
#X obj 353 86 t b s;
#X obj 353 130 pack f s;
#X obj 353 64 receive \$1-\$3-fetch;
#X obj 353 152 s \$1-fetchno2;
#X obj 233 296 list prepend :\$3;
#X obj 188 229 route \$4;
#X obj 112 277 list prepend %^ :\$3;
#X obj 188 138 t a a;
#X obj 215 183 list prepend :\$3;
#X obj 215 160 spigot \$5;
#X obj 215 205 s \$1-everything;
#X connect 0 0 2 0;
#X connect 2 0 1 0;
#X connect 3 0 18 0;
#X connect 3 1 4 0;
#X connect 4 0 5 0;
#X connect 6 0 7 0;
#X connect 7 0 15 0;
#X connect 9 0 3 0;
#X connect 10 0 12 0;
#X connect 11 0 10 0;
#X connect 11 1 12 1;
#X connect 12 0 14 0;
#X connect 13 0 11 0;
#X connect 15 0 8 0;
#X connect 16 0 17 0;
#X connect 16 1 6 0;
#X connect 17 0 8 0;
#X connect 18 0 20 0;
#X connect 18 1 16 0;
#X connect 19 0 21 0;
#X connect 20 0 19 0;
