#N canvas 205 291 511 323 10;
#X obj 27 160 inlet;
#X obj 27 204 s \$1-rnum;
#X obj 27 182 f \$2;
#X obj 158 81 f \$2;
#X obj 158 103 s \$1-savenum;
#X obj 353 108 f \$2;
#X obj 131 57 t a b;
#X obj 263 242 t a a;
#X obj 263 287 s \$1-saveset;
#X obj 290 264 s \$1-everything;
#X obj 353 86 t b s;
#X obj 353 130 pack f s;
#X obj 188 189 list prepend %^ :\$3;
#X obj 263 219 list prepend :\$3;
#X obj 131 33 receive \$1-:\$3;
#X obj 353 64 receive \$1-\$3-fetch;
#X obj 353 152 s \$1-fetchno2;
#X msg 131 157 *tog*;
#X obj 188 157 relay \$4;
#X obj 131 126 route bang;
#X connect 0 0 2 0;
#X connect 2 0 1 0;
#X connect 3 0 4 0;
#X connect 5 0 11 0;
#X connect 6 0 19 0;
#X connect 6 1 3 0;
#X connect 7 0 9 0;
#X connect 7 1 8 0;
#X connect 10 0 5 0;
#X connect 10 1 11 1;
#X connect 11 0 16 0;
#X connect 12 0 7 0;
#X connect 13 0 7 0;
#X connect 14 0 6 0;
#X connect 15 0 10 0;
#X connect 17 0 8 0;
#X connect 18 0 12 0;
#X connect 18 1 13 0;
#X connect 19 0 17 0;
#X connect 19 1 18 0;
