#N canvas 303 326 658 415 10;
#X obj 69 71 inlet;
#X obj 69 115 s \$1-rnum;
#X obj 69 93 f \$2;
#X obj 227 117 f \$2;
#X obj 227 140 s \$1-savenum;
#X obj 181 95 cyclone/iter;
#X obj 181 117 sel 0;
#X obj 169 140 collect;
#X obj 236 259 list prepend =;
#X obj 169 165 route bang;
#X obj 196 357 s \$1-everything;
#X obj 236 307 list prepend :\$3;
#X obj 169 282 list append %^ :\$3 =;
#X obj 169 49 receive \$1-:\$3;
#X obj 443 118 f \$2;
#X obj 443 96 t b s;
#X obj 443 140 pack f s;
#X obj 443 74 receive \$1-\$3-fetch;
#X obj 443 162 s \$1-fetchno2;
#X obj 236 216 t a a;
#X obj 268 237 s \$1-\$3flt;
#X obj 169 386 s \$1-saveset;
#X obj 169 334 t a a;
#X obj 169 73 t b a b;
#X obj 236 194 cyclone/zl rev;
#X text -115 197 try out rev to help with :o init problem -->;
#X obj 169 187 t b b;
#X connect 0 0 2 0;
#X connect 2 0 1 0;
#X connect 3 0 4 0;
#X connect 5 0 6 0;
#X connect 6 1 7 1;
#X connect 7 0 9 0;
#X connect 8 0 11 0;
#X connect 9 0 26 0;
#X connect 9 1 24 0;
#X connect 11 0 22 0;
#X connect 12 0 22 0;
#X connect 13 0 23 0;
#X connect 14 0 16 0;
#X connect 15 0 14 0;
#X connect 15 1 16 1;
#X connect 16 0 18 0;
#X connect 17 0 15 0;
#X connect 19 0 8 0;
#X connect 19 1 20 0;
#X connect 22 0 10 0;
#X connect 22 1 21 0;
#X connect 23 0 7 0;
#X connect 23 1 5 0;
#X connect 23 2 3 0;
#X connect 24 0 19 0;
#X connect 26 0 12 0;
#X connect 26 1 20 0;
