#N canvas 727 289 461 452 10;
#X obj 134 57 inlet;
#X obj 241 338 s \$1-\$2;
#X obj 261 314 outlet;
#X obj 219 85 receive \$3-retime;
#X obj 222 236 t f f;
#X obj 222 208 *;
#X obj 238 155 ==;
#X obj 134 187 demux;
#X obj 249 262 t b;
#X obj 222 180 demux;
#X obj 238 133 * 1;
#X obj 222 289 t f f f;
#X text 297 127 process retime;
#X text 311 319 distribute new time;
#X obj 222 362 s \$1-:\$4-n;
#X obj 134 86 t f f;
#X obj 219 110 t f b f;
#X connect 0 0 15 0;
#X connect 3 0 16 0;
#X connect 4 0 11 0;
#X connect 4 1 5 1;
#X connect 5 0 4 0;
#X connect 6 0 9 1;
#X connect 6 0 7 1;
#X connect 7 0 4 0;
#X connect 7 1 8 0;
#X connect 8 0 11 0;
#X connect 9 0 5 0;
#X connect 9 1 8 0;
#X connect 10 0 6 0;
#X connect 11 0 14 0;
#X connect 11 1 1 0;
#X connect 11 2 2 0;
#X connect 15 0 7 0;
#X connect 15 1 10 0;
#X connect 16 0 9 0;
#X connect 16 1 10 0;
#X connect 16 2 10 1;
