#N canvas 236 215 721 440 10;
#X obj 219 140 f;
#X obj 199 293 send;
#X obj 239 93 outlet;
#X obj 237 117 inlet;
#X obj 179 44 inlet;
#X obj 224 265 makefilename \$1-%d-togsel\$2;
#X obj 321 30 receive \$1-mouseone;
#X obj 288 8 receive \$1-\$2dir;
#X obj 288 52 spigot;
#X obj 348 365 f \$3;
#X obj 348 390 s \$1-messb;
#X obj 383 101 receive \$1-eitherkey;
#X obj 288 74 +;
#X obj 288 239 clip 1 1;
#X obj 333 75 receive \$1-\$2max;
#X obj 333 97 f 1;
#X obj 383 123 sel 1;
#X obj 410 148 t b;
#X obj 383 171 v \$1-\$2size-2;
#X obj 63 106 receive \$1-scroll;
#X obj 179 68 t f f b f;
#X obj 63 179 spigot;
#X obj 88 209 makefilename \$1-%d-togscrol\$2;
#X obj 63 231 send;
#X obj 304 209 send \$1-\$2-messone;
#X obj 288 293 t f f b;
#X obj 540 288 s typesel^Y&Y;
#X obj 540 316 s togtype&&**(;
#X obj 540 341 s \$1-togtype;
#X obj 219 170 t f f f f f b b b f;
#X text 650 295 for toggle key-in;
#X obj 540 260 list append \$1 \$4;
#X obj 90 130 receive moveon&&u*;
#X obj 63 155 demux;
#X obj 288 342 send \$1-messonpre;
#X obj 288 318 cyclone/prepend cursor-\$2;
#X connect 0 0 29 0;
#X connect 3 0 0 1;
#X connect 4 0 20 0;
#X connect 5 0 1 1;
#X connect 6 0 8 1;
#X connect 7 0 8 0;
#X connect 8 0 12 0;
#X connect 9 0 10 0;
#X connect 11 0 16 0;
#X connect 12 0 13 0;
#X connect 13 0 25 0;
#X connect 14 0 15 0;
#X connect 15 0 13 2;
#X connect 16 0 18 0;
#X connect 16 1 17 0;
#X connect 17 0 15 0;
#X connect 18 0 13 2;
#X connect 19 0 33 0;
#X connect 20 0 21 1;
#X connect 20 1 1 0;
#X connect 20 2 0 0;
#X connect 20 3 2 0;
#X connect 21 0 23 0;
#X connect 22 0 23 1;
#X connect 25 0 35 0;
#X connect 25 1 12 1;
#X connect 25 2 9 0;
#X connect 29 0 5 0;
#X connect 29 1 13 0;
#X connect 29 2 12 1;
#X connect 29 3 22 0;
#X connect 29 4 24 0;
#X connect 29 5 9 0;
#X connect 29 6 28 0;
#X connect 29 7 27 0;
#X connect 29 8 31 0;
#X connect 31 0 26 0;
#X connect 32 0 33 1;
#X connect 33 0 21 0;
#X connect 35 0 34 0;
