#N canvas 806 263 557 440 10;
#X obj 213 140 f;
#X obj 196 289 send;
#X obj 230 93 outlet;
#X obj 228 117 inlet;
#X obj 152 22 inlet;
#X obj 213 265 makefilename \$1-%d-togsel\$2;
#X obj 152 44 sel 1;
#X obj 228 243 send \$1-\$2-messon;
#X obj 321 30 receive \$1-mouseone;
#X obj 288 8 receive \$1-\$2dir;
#X obj 288 52 spigot;
#X obj 288 195 f \$3;
#X obj 288 220 s \$1-messb;
#X obj 383 101 receive \$1-eitherkey;
#X obj 288 74 +;
#X obj 288 119 clip 1 1;
#X obj 333 75 receive \$1-\$2max;
#X obj 333 97 f 1;
#X obj 383 123 sel 1;
#X obj 410 148 t b;
#X obj 383 171 v \$1-\$2size-2;
#X obj 388 257 s \$1-selme;
#X obj 288 146 t f f f b;
#X obj 63 148 receive \$1-scroll;
#X obj 179 68 t f f b f;
#X obj 63 179 spigot;
#X obj 213 170 t f f f f f b;
#X obj 84 209 makefilename \$1-%d-togscrol\$2;
#X obj 63 231 send;
#X connect 0 0 26 0;
#X connect 3 0 0 1;
#X connect 4 0 6 0;
#X connect 5 0 1 1;
#X connect 6 1 24 0;
#X connect 8 0 10 1;
#X connect 9 0 10 0;
#X connect 10 0 14 0;
#X connect 11 0 12 0;
#X connect 13 0 18 0;
#X connect 14 0 15 0;
#X connect 15 0 22 0;
#X connect 16 0 17 0;
#X connect 17 0 15 2;
#X connect 18 0 20 0;
#X connect 18 1 19 0;
#X connect 19 0 17 0;
#X connect 20 0 15 2;
#X connect 22 0 7 0;
#X connect 22 1 14 1;
#X connect 22 2 21 0;
#X connect 22 3 11 0;
#X connect 23 0 25 0;
#X connect 24 0 25 1;
#X connect 24 1 1 0;
#X connect 24 2 0 0;
#X connect 24 3 2 0;
#X connect 25 0 28 0;
#X connect 26 0 5 0;
#X connect 26 1 7 0;
#X connect 26 2 14 1;
#X connect 26 3 21 0;
#X connect 26 4 27 0;
#X connect 26 5 11 0;
#X connect 27 0 28 1;
