#N canvas 458 143 450 508 10;
#X obj 161 288 inlet;
#X obj 195 373 f \$1;
#X obj 229 373 f \$2;
#X obj 195 425 s \$3-owhich;
#X obj 229 395 s \$3-osome;
#X obj 178 448 s \$3-ovalue;
#X obj 161 119 receive \$5-:\$4;
#X obj 282 297 inlet;
#X obj 282 319 t a b b;
#X text 79 119 command input;
#X text 91 287 mover input;
#X text 319 297 reposition input;
#X obj 161 319 t b a b b b;
#X obj 262 373 s \$3-dort;
#X obj 200 194 demux;
#X obj 200 216 t f b;
#X obj 185 238 f;
#X obj 251 95 f 1;
#X obj 205 94 spigot;
#X obj 205 48 t b b;
#X obj 232 72 f 1;
#X text 107 76 load exception;
#X obj 205 26 iemguts/oreceive \$3-st2 \$6;
#X obj 185 262 cyclone/prepend s;
#X obj 161 142 route %;
#X obj 161 166 expr $f1 / 100 * yourtime\$3;
#X obj 132 373 s \$5-dirt;
#X connect 0 0 12 0;
#X connect 1 0 3 0;
#X connect 2 0 4 0;
#X connect 6 0 24 0;
#X connect 7 0 8 0;
#X connect 8 0 5 0;
#X connect 8 1 1 0;
#X connect 8 2 2 0;
#X connect 12 0 26 0;
#X connect 12 1 5 0;
#X connect 12 2 1 0;
#X connect 12 3 2 0;
#X connect 12 4 13 0;
#X connect 14 0 15 0;
#X connect 14 1 23 0;
#X connect 15 0 16 1;
#X connect 15 1 17 0;
#X connect 16 0 23 0;
#X connect 17 0 18 1;
#X connect 18 0 16 0;
#X connect 19 0 18 0;
#X connect 19 1 20 0;
#X connect 20 0 14 1;
#X connect 22 0 19 0;
#X connect 23 0 12 0;
#X connect 24 0 25 0;
#X connect 24 1 14 0;
#X connect 25 0 14 0;
