#N canvas 287 157 450 342 10;
#X obj 39 82 outlet~;
#X obj 39 60 receive~ \$1-o&)&;
#X obj 205 33 receive \$1-delmed;
#X obj 205 55 t b b;
#X obj 205 189 s \$1-ricashay;
#X obj 205 143 iemguts/canvasindex;
#X msg 237 76 outlet 0;
#X obj 205 166 pack;
#X obj 237 98 iemguts/canvasconnections;
#N canvas 217 449 543 300 connect 1;
#X obj 307 85 t f f;
#X obj 307 132 pack;
#X obj 337 110 - 1;
#X obj 276 21 receive \$1-conme;
#X obj 276 43 t b b;
#X obj 307 181 iemguts/sendcanvas 2;
#X obj 16 43 t b b b;
#X obj 62 131 receive \$0-reflexs;
#X obj 62 87 symbol \$0-reflexs;
#X obj 62 109 s \$2-reflexr;
#X obj 307 63 iemguts/canvasindex 1;
#X obj 39 156 pack;
#X obj 39 66 iemguts/canvasindex 1;
#X msg 307 158 connect \$1 0 \$2 0 \, vis 0;
#X obj 102 43 iemguts/canvasdelete 1;
#X obj 16 21 receive \$1-conme2;
#X obj 386 13 receive \$1-conme3;
#X obj 386 35 del 100;
#X connect 0 0 1 0;
#X connect 0 1 2 0;
#X connect 1 0 13 0;
#X connect 2 0 1 1;
#X connect 3 0 4 0;
#X connect 4 0 14 0;
#X connect 4 1 10 0;
#X connect 6 0 14 0;
#X connect 6 1 12 0;
#X connect 6 2 8 0;
#X connect 7 0 11 1;
#X connect 8 0 9 0;
#X connect 10 0 0 0;
#X connect 11 0 13 0;
#X connect 12 0 11 0;
#X connect 13 0 5 0;
#X connect 15 0 6 0;
#X connect 16 0 17 0;
#X connect 17 0 4 0;
#X restore 222 262 pd connect;
#X obj 237 120 list split 2;
#X connect 1 0 0 0;
#X connect 2 0 3 0;
#X connect 3 0 5 0;
#X connect 3 1 6 0;
#X connect 5 0 7 0;
#X connect 6 0 8 0;
#X connect 7 0 4 0;
#X connect 8 0 10 0;
#X connect 10 1 7 1;
