#N canvas 519 201 450 300 10;
#X obj 48 33 inlet~;
#X obj 48 61 send~ \$1-i&)&;
#X obj 235 55 receive \$1-delmed;
#X obj 235 77 t b b;
#X obj 235 219 s \$1-ricashay;
#X obj 235 173 iemguts/canvasindex;
#X obj 235 195 pack;
#X obj 267 120 iemguts/canvasconnections;
#X msg 267 98 inlet 0;
#N canvas 172 303 543 300 connect 1;
#X obj 307 165 t f f;
#X obj 307 212 pack;
#X obj 337 190 - 1;
#X msg 307 238 connect \$2 0 \$1 0 \, vis 0;
#X obj 276 101 receive \$1-conme;
#X obj 276 123 t b b;
#X obj 307 261 iemguts/sendcanvas 2;
#X obj 16 123 t b b b;
#X obj 62 211 receive \$0-reflexs;
#X obj 62 167 symbol \$0-reflexs;
#X obj 62 189 s \$2-reflexr;
#X obj 307 143 iemguts/canvasindex 1;
#X obj 39 256 pack;
#X obj 39 146 iemguts/canvasindex 1;
#X obj 100 123 iemguts/canvasdelete 1;
#X obj 16 101 receive \$1-conme2;
#X obj 154 9 receive \$1-conme3;
#X obj 154 31 t b b;
#X obj 181 54 array get \$2-settings 0 1;
#X obj 181 77 - 5;
#X obj 181 100 * 3;
#X obj 62 234 +;
#X connect 0 0 1 0;
#X connect 0 1 2 0;
#X connect 1 0 3 0;
#X connect 2 0 1 1;
#X connect 3 0 6 0;
#X connect 4 0 5 0;
#X connect 5 0 14 0;
#X connect 5 1 11 0;
#X connect 7 0 14 0;
#X connect 7 1 13 0;
#X connect 7 2 9 0;
#X connect 8 0 21 0;
#X connect 9 0 10 0;
#X connect 11 0 0 0;
#X connect 12 0 3 0;
#X connect 13 0 12 0;
#X connect 15 0 7 0;
#X connect 16 0 17 0;
#X connect 17 0 7 0;
#X connect 17 1 18 0;
#X connect 18 0 19 0;
#X connect 19 0 20 0;
#X connect 20 0 21 1;
#X connect 21 0 12 1;
#X restore 222 262 pd connect;
#X obj 267 142 list split 2;
#X connect 0 0 1 0;
#X connect 2 0 3 0;
#X connect 3 0 5 0;
#X connect 3 1 8 0;
#X connect 5 0 6 0;
#X connect 6 0 4 0;
#X connect 7 0 10 0;
#X connect 8 0 7 0;
#X connect 10 1 6 1;
