#N canvas 477 273 450 300 10;
#X obj 238 84 - 1;
#X obj 187 84 t f f;
#X obj 188 148 change;
#X obj 187 58 switch-\$2;
#X obj 227 192 t f b;
#X msg 254 215 1;
#X obj 97 61 spigot 1;
#X obj 69 126 s \$1-\$2zoom;
#X obj 95 192 s \$1-\$2zoommod;
#X obj 227 215 + 12;
#X obj 142 126 mod \$3;
#X obj 188 126 div \$3;
#X obj 227 240 s \$1-\$2zoomdiv;
#X obj 97 37 t f f;
#X obj 97 83 t f f;
#X msg 188 192 0;
#X obj 188 170 moses -5;
#X obj 97 15 receive \$1-\$2zoomp;
#X obj 187 33 receive \$1-\$2size;
#X obj 249 171 receive \$1-backsplash;
#X connect 0 0 1 0;
#X connect 1 0 10 1;
#X connect 1 1 11 1;
#X connect 2 0 16 0;
#X connect 3 0 1 0;
#X connect 3 1 0 0;
#X connect 4 0 9 0;
#X connect 4 1 5 0;
#X connect 5 0 6 1;
#X connect 6 0 14 0;
#X connect 9 0 12 0;
#X connect 10 0 8 0;
#X connect 11 0 2 0;
#X connect 13 0 6 0;
#X connect 13 1 11 0;
#X connect 14 0 7 0;
#X connect 14 1 10 0;
#X connect 15 0 6 1;
#X connect 16 0 15 0;
#X connect 16 1 4 0;
#X connect 17 0 13 0;
#X connect 18 0 3 0;
#X connect 19 0 9 0;
