#N canvas 581 262 607 470 10;
#X obj 105 38 route mouse key;
#X obj 156 64 cyclone/zl rev;
#X obj 156 86 list split 1;
#X obj 196 109 list trim;
#X obj 157 219 spigot;
#X obj 305 58 loadbang;
#X obj 305 80 iemguts/canvasargs;
#X msg 157 241 obj \$1 \$2;
#X obj 157 263 list append;
#X obj 157 285 list trim;
#X obj 189 331 iemguts/sendcanvas 1;
#X obj 105 16 iemguts/receivecanvas 1;
#X obj 157 354 s Rf&Nm<>;
#X obj 157 307 t b a;
#X obj 196 131 route Shift_L Shift_R Control_L Control_R;
#X obj 204 195 &&;
#X obj 212 160 t b f;
#X obj 279 180 del 10;
#X obj 279 202 t f;
#X connect 0 0 4 0;
#X connect 0 1 1 0;
#X connect 1 0 2 0;
#X connect 2 1 3 0;
#X connect 3 0 14 0;
#X connect 4 0 7 0;
#X connect 5 0 6 0;
#X connect 5 0 17 0;
#X connect 6 0 8 1;
#X connect 7 0 8 0;
#X connect 8 0 9 0;
#X connect 9 0 13 0;
#X connect 11 0 0 0;
#X connect 13 0 12 0;
#X connect 13 1 10 0;
#X connect 14 0 15 0;
#X connect 14 1 15 0;
#X connect 14 2 16 0;
#X connect 14 3 16 0;
#X connect 15 0 4 1;
#X connect 16 0 15 0;
#X connect 16 1 15 1;
#X connect 17 0 18 0;
#X connect 18 0 4 1;
