#N canvas 528 136 607 632 10;
#X declare -lib zexy -path zexy -path ./;
#X obj 105 38 route mouse key;
#X obj 156 64 cyclone/zl rev;
#X obj 156 86 list split 1;
#X obj 196 109 list trim;
#X obj 157 219 spigot;
#X obj 305 58 loadbang;
#X obj 305 80 iemguts/canvasargs;
#X msg 157 241 obj \$1 \$2;
#X obj 157 263 list append;
#X obj 184 535 iemguts/sendcanvas 1;
#X obj 105 16 iemguts/receivecanvas 1;
#X obj 157 558 s Rf&Nm<>;
#X obj 157 511 t b a;
#X obj 204 195 &&;
#X obj 212 160 t b f;
#X obj 279 180 del 10;
#X obj 279 202 t f;
#X obj 184 307 l2s;
#X obj 184 329 s2l;
#X msg 305 342 symbol;
#X obj 157 445 l2s;
#X obj 184 351 cyclone/iter;
#X obj 157 285 t b a;
#X obj 157 423 ctxfiles/collect;
#X obj 184 373 sel %;
#X obj 184 395 f;
#X obj 210 395 + 1;
#X obj 157 467 s2l;
#X obj 157 489 list trim;
#X obj 196 131 route Shift_L Shift_R Control_L Control_R Meta_L Meta_R
;
#X obj 344 210 ctxfiles/license;
#X obj 344 273 declare -lib zexy -path zexy -path ./;
#X connect 0 0 4 0;
#X connect 0 1 1 0;
#X connect 1 0 2 0;
#X connect 2 1 3 0;
#X connect 3 0 29 0;
#X connect 4 0 7 0;
#X connect 5 0 6 0;
#X connect 5 0 15 0;
#X connect 5 0 19 0;
#X connect 6 0 8 1;
#X connect 7 0 8 0;
#X connect 8 0 22 0;
#X connect 10 0 0 0;
#X connect 12 0 11 0;
#X connect 12 1 9 0;
#X connect 13 0 4 1;
#X connect 14 0 13 0;
#X connect 14 1 13 1;
#X connect 15 0 16 0;
#X connect 16 0 4 1;
#X connect 17 0 18 0;
#X connect 18 0 21 0;
#X connect 19 0 18 1;
#X connect 19 0 20 1;
#X connect 20 0 27 0;
#X connect 21 0 24 0;
#X connect 22 0 23 0;
#X connect 22 1 17 0;
#X connect 23 0 20 0;
#X connect 24 0 25 0;
#X connect 24 1 23 1;
#X connect 25 0 26 0;
#X connect 25 0 23 1;
#X connect 26 0 25 1;
#X connect 27 0 28 0;
#X connect 28 0 12 0;
#X connect 29 0 13 0;
#X connect 29 1 13 0;
#X connect 29 2 14 0;
#X connect 29 3 14 0;
#X connect 29 4 14 0;
#X connect 29 5 14 0;
