#N canvas 377 184 450 491 10;
#X declare -lib zexy -path zexy -path ./;
#X obj 150 21 loadbang;
#X obj 189 65 iemguts/canvasdollarzero 2;
#X obj 169 111 iemguts/canvasargs;
#X obj 169 133 cyclone/iter;
#X obj 169 155 list fromsymbol;
#X obj 169 177 route 58;
#X obj 169 199 list prepend 58;
#X obj 169 221 list tosymbol;
#X obj 150 43 t b b b;
#X obj 150 405 ctxfiles/collect;
#X obj 189 87 makefilename %s-save;
#X obj 196 287 sel -1;
#X obj 196 265 text search \$0n 0;
#X obj 169 354 text search \$0n 1;
#X obj 169 376 sel -1;
#X obj 169 243 t s s;
#X obj 196 309 f 1;
#X obj 169 331 spigot;
#X obj 229 309 t b f;
#X obj 229 331 t f;
#X obj 150 432 send;
#X obj 253 405 makefilename %s-bplist;
#X obj -53 78 ctxfiles/license;
#X obj -53 141 declare -lib zexy -path zexy -path ./;
#X connect 0 0 8 0;
#X connect 1 0 10 0;
#X connect 1 0 21 0;
#X connect 2 0 3 0;
#X connect 3 0 4 0;
#X connect 4 0 5 0;
#X connect 5 0 6 0;
#X connect 5 1 6 0;
#X connect 6 0 7 0;
#X connect 7 0 15 0;
#X connect 8 0 9 0;
#X connect 8 1 2 0;
#X connect 8 2 1 0;
#X connect 9 0 20 0;
#X connect 10 0 12 1;
#X connect 10 0 13 1;
#X connect 11 0 16 0;
#X connect 11 1 18 0;
#X connect 12 0 11 0;
#X connect 13 0 14 0;
#X connect 14 1 9 1;
#X connect 15 0 17 0;
#X connect 15 1 12 0;
#X connect 16 0 17 1;
#X connect 17 0 13 0;
#X connect 18 0 19 0;
#X connect 18 1 9 1;
#X connect 19 0 17 1;
#X connect 21 0 20 1;
