#N canvas 416 136 607 632 10;
#X declare -lib zexy -path zexy -path ./;
#X obj 156 64 cyclone/zl rev;
#X obj 156 86 list split 1;
#X obj 196 109 list trim;
#X obj 157 228 spigot;
#X obj 305 58 loadbang;
#X obj 305 80 iemguts/canvasargs;
#X obj 157 273 list append;
#X obj 105 16 iemguts/receivecanvas 1;
#X obj 204 195 &&;
#X obj 212 160 t b f;
#X obj 279 180 del 10;
#X obj 279 202 t f;
#X obj 184 317 l2s;
#X obj 184 339 s2l;
#X msg 305 352 symbol;
#X obj 157 455 l2s;
#X obj 184 361 cyclone/iter;
#X obj 157 295 t b a;
#X obj 157 433 ctxfiles/collect;
#X obj 184 383 sel %;
#X obj 184 405 f;
#X obj 210 405 + 1;
#X obj 157 477 s2l;
#X obj 157 250 list split 2;
#X obj 336 322 iemguts/canvasposition;
#X obj 105 38 route mouse key motion;
#X obj 204 217 t f f;
#X obj 336 234 spigot;
#X obj 157 521 s autoclick&&&*;
#X obj 336 256 unpack;
#X obj 336 278 + 1;
#X obj 369 278 + 1;
#X obj 336 300 pack;
#X obj 375 375 iemguts/canvasdollarzero 1;
#X obj 375 397 s2l;
#X obj 157 499 list prepend;
#X obj 196 131 route Shift_L Shift_R Control_L Control_R Meta_L Meta_R
;
#X obj 398 192 ctxfiles/license;
#X obj 398 255 declare -lib zexy -path zexy -path ./;
#X connect 0 0 1 0;
#X connect 1 1 2 0;
#X connect 2 0 36 0;
#X connect 3 0 23 0;
#X connect 4 0 5 0;
#X connect 4 0 10 0;
#X connect 4 0 14 0;
#X connect 4 0 33 0;
#X connect 5 0 6 1;
#X connect 6 0 17 0;
#X connect 7 0 25 0;
#X connect 8 0 26 0;
#X connect 9 0 8 0;
#X connect 9 1 8 1;
#X connect 10 0 11 0;
#X connect 11 0 26 0;
#X connect 12 0 13 0;
#X connect 13 0 16 0;
#X connect 14 0 13 1;
#X connect 14 0 15 1;
#X connect 15 0 22 0;
#X connect 16 0 19 0;
#X connect 17 0 18 0;
#X connect 17 1 12 0;
#X connect 18 0 15 0;
#X connect 19 0 20 0;
#X connect 19 1 18 1;
#X connect 20 0 21 0;
#X connect 20 0 18 1;
#X connect 21 0 20 1;
#X connect 22 0 35 0;
#X connect 23 0 6 0;
#X connect 25 0 3 0;
#X connect 25 1 0 0;
#X connect 25 2 27 0;
#X connect 26 0 3 1;
#X connect 26 1 27 1;
#X connect 27 0 29 0;
#X connect 29 0 30 0;
#X connect 29 1 31 0;
#X connect 30 0 32 0;
#X connect 31 0 32 1;
#X connect 32 0 24 0;
#X connect 33 0 34 0;
#X connect 34 0 35 1;
#X connect 35 0 28 0;
#X connect 36 0 8 0;
#X connect 36 1 8 0;
#X connect 36 2 9 0;
#X connect 36 3 9 0;
#X connect 36 4 9 0;
#X connect 36 5 9 0;
