#N canvas 67 206 1273 300 10;
#X obj 157 57 inlet DISTRO;
#X obj 489 59 inlet OS;
#X obj 91 188 outlet VANILLA;
#X obj 206 188 outlet L2ORK;
#X obj 411 188 outlet LINUX;
#X obj 506 188 outlet WINDOWS;
#X obj 614 188 outlet IOS;
#X text 487 84 NOT WORKING YET! Select Windows., f 21;
#X text 159 78 NOT WORKING YET! select Vanilla., f 17;
#X obj 792 53 inlet FONT SIZE;
#X obj 792 183 outlet BOLD;
#X obj 880 183 outlet REGULAR;
#X obj 1024 53 inlet PD VERSION;
#X obj 1024 183 outlet 0-47;
#X obj 1104 183 outlet 0-48;
#X connect 0 0 2 0;
#X connect 1 0 4 0;
#X connect 9 0 10 0;
#X connect 12 0 13 0;
