#N canvas 213 257 609 327 10;
#X declare -lib zexy -path zexy -path ./;
#X obj 18 212 inlet;
#X obj 101 160 cnv 15 283 42 ss rr empty 30 30 0 14 -191407 -66577
0;
#N canvas 434 89 608 679 connect 0;
#X obj 172 71 l2s;
#X obj 172 93 s \$0-fsymr;
#X obj 372 131 l2s;
#X obj 372 153 s \$0-tsymr;
#X obj 172 145 s2l;
#X obj 172 167 t a a;
#X obj 199 190 list length;
#X obj 50 535 mod;
#X obj 50 470 f;
#X obj 50 492 + 1;
#X obj 119 212 t b b;
#X msg 146 246 0;
#X obj 199 212 t f f f;
#X obj 238 244 == 1;
#X obj 170 439 demux;
#X obj 197 465 f;
#X obj 170 465 f;
#X obj 197 488 + 1;
#X obj 197 510 - 1;
#X obj 249 621 pack f f f f;
#X obj 372 205 s2l;
#X obj 372 227 t a a;
#X obj 399 250 list length;
#X obj 399 272 t f f f;
#X obj 438 301 == 1;
#X obj 184 348 moses 0;
#X obj 197 532 +;
#X obj 223 393 t b b b b b b;
#X obj 330 480 f;
#X obj 330 502 + 1;
#X obj 430 450 demux;
#X obj 457 475 f;
#X obj 430 478 f;
#X obj 457 498 + 1;
#X obj 457 520 - 1;
#X obj 457 542 +;
#X obj 223 372 until;
#X obj 50 514 - 1;
#X obj 50 557 + 1;
#X obj 330 545 mod;
#X obj 330 524 - 1;
#X obj 330 567 + 1;
#X obj 199 262 max;
#X obj 199 236 t b f;
#X obj 184 328 f;
#X obj 59 104 t b b;
#X obj 42 164 t b b;
#X msg 33 209 0;
#X msg 80 211 1;
#X obj 217 662 demux;
#X msg 217 689 connect \$1 \$2 \$3 \$4;
#X msg 244 711 disconnect \$1 \$2 \$3 \$4;
#X obj 199 284 s \$0-nor;
#X obj 172 49 iemguts/canvasselect 2;
#X obj 372 109 iemguts/canvasselect 2;
#X obj 217 732 iemguts/sendcanvas 2;
#X obj 17 580 cyclone/zl nth;
#X obj 297 594 cyclone/zl nth;
#X obj 297 517 list;
#X obj 17 508 list;
#X obj 59 82 receive \$0connect;
#X obj 172 24 receive \$0from;
#X obj 372 84 receive \$0to;
#X obj 42 142 receive \$0disconnect;
#X obj 372 183 receive \$0-tsyms;
#X obj 472 451 receive \$0-con2;
#X obj 233 438 receive \$0-con1;
#X obj 199 304 receive \$0-nos;
#X obj 172 123 receive \$0-fsyms;
#X connect 0 0 1 0;
#X connect 2 0 3 0;
#X connect 4 0 5 0;
#X connect 5 0 59 1;
#X connect 5 1 6 0;
#X connect 6 0 12 0;
#X connect 7 0 38 0;
#X connect 8 0 9 0;
#X connect 9 0 8 1;
#X connect 9 0 37 0;
#X connect 10 0 44 0;
#X connect 10 1 11 0;
#X connect 11 0 8 1;
#X connect 11 0 15 1;
#X connect 11 0 28 1;
#X connect 11 0 31 1;
#X connect 12 0 42 0;
#X connect 12 1 7 1;
#X connect 12 2 13 0;
#X connect 13 0 14 1;
#X connect 14 0 16 0;
#X connect 14 1 15 0;
#X connect 15 0 17 0;
#X connect 16 0 19 1;
#X connect 17 0 15 1;
#X connect 17 0 18 0;
#X connect 18 0 26 0;
#X connect 19 0 49 0;
#X connect 20 0 21 0;
#X connect 21 0 58 1;
#X connect 21 1 22 0;
#X connect 22 0 23 0;
#X connect 23 0 43 0;
#X connect 23 1 39 1;
#X connect 23 2 24 0;
#X connect 24 0 30 1;
#X connect 25 1 36 0;
#X connect 26 0 19 1;
#X connect 27 0 59 0;
#X connect 27 1 8 0;
#X connect 27 2 14 0;
#X connect 27 3 58 0;
#X connect 27 4 28 0;
#X connect 27 5 30 0;
#X connect 28 0 29 0;
#X connect 29 0 28 1;
#X connect 29 0 40 0;
#X connect 30 0 32 0;
#X connect 30 1 31 0;
#X connect 31 0 33 0;
#X connect 32 0 19 3;
#X connect 33 0 31 1;
#X connect 33 0 34 0;
#X connect 34 0 35 0;
#X connect 35 0 19 3;
#X connect 36 0 27 0;
#X connect 37 0 7 0;
#X connect 38 0 56 1;
#X connect 39 0 41 0;
#X connect 40 0 39 0;
#X connect 41 0 57 1;
#X connect 42 0 52 0;
#X connect 43 0 42 0;
#X connect 43 1 42 1;
#X connect 44 0 25 0;
#X connect 45 0 10 0;
#X connect 45 1 47 0;
#X connect 46 0 10 0;
#X connect 46 1 48 0;
#X connect 47 0 49 1;
#X connect 48 0 49 1;
#X connect 49 0 50 0;
#X connect 49 1 51 0;
#X connect 50 0 55 0;
#X connect 51 0 55 0;
#X connect 53 0 0 0;
#X connect 54 0 2 0;
#X connect 56 0 19 0;
#X connect 57 0 19 2;
#X connect 58 0 57 0;
#X connect 59 0 56 0;
#X connect 60 0 45 0;
#X connect 61 0 53 0;
#X connect 62 0 54 0;
#X connect 63 0 46 0;
#X connect 64 0 20 0;
#X connect 65 0 32 1;
#X connect 65 0 35 1;
#X connect 66 0 16 1;
#X connect 66 0 26 1;
#X connect 67 0 44 1;
#X connect 68 0 4 0;
#X restore 55 212 pd connect;
#N canvas 402 155 833 529 control 0;
#X obj 113 78 route key;
#X obj 113 152 list split 1;
#X obj 147 174 list trim;
#X obj 140 233 spigot;
#X obj 113 99 t a a;
#X obj 147 197 route Shift_L Shift_R;
#X obj 377 105 l2s;
#X obj 377 127 s \$0-fsymr;
#X obj 407 155 l2s;
#X obj 407 177 s \$0-tsymr;
#X obj 504 107 s \$0connectr;
#X obj 536 129 s \$0disconnectr;
#X obj 437 106 s \$0-con1r;
#X obj 470 128 s \$0-con2r;
#X obj 559 153 s \$0-nor;
#X obj 140 377 s \$0fromr;
#X obj 210 377 s \$0connectr;
#X obj 203 468 s \$0disconnectr;
#X obj 175 426 s \$0tor;
#X obj 377 59 inlet;
#X obj 140 258 route 1;
#X obj 140 282 route list;
#X obj 208 222 t f;
#X obj 260 32 loadbang;
#X obj 260 54 t b f;
#X obj 287 80 s alloff;
#X msg 256 80 1;
#X obj 113 56 spigot;
#X obj 230 337 s \$0-<r;
#X obj 252 357 s \$0->r;
#X obj 587 186 s \$0->s;
#X text 233 285 F T C D \, . V ^;
#X obj 282 336 s \$0-^vr;
#X obj 335 399 s \$0-?r;
#X obj 113 32 iemguts/receivecanvas 2;
#X obj 140 308 route 70 84 67 68 60 62 86 94 63;
#X obj 560 214 s \$0-<s;
#X obj 308 374 demux;
#X obj 308 419 s \$0-??r;
#X obj 113 130 cyclone/zl rev;
#X msg 606 256 1;
#X obj 636 256 t f;
#X obj 614 287 s \$0-^vc;
#X obj 377 83 route f t c1 c2 connect disconnect n < > v ^;
#X obj 337 336 receive \$0-mode2;
#X obj 171 55 receive alloff;
#X connect 0 0 4 0;
#X connect 1 1 2 0;
#X connect 2 0 5 0;
#X connect 3 0 20 0;
#X connect 4 0 39 0;
#X connect 4 1 3 0;
#X connect 5 0 22 0;
#X connect 5 1 22 0;
#X connect 6 0 7 0;
#X connect 8 0 9 0;
#X connect 19 0 43 0;
#X connect 20 0 21 0;
#X connect 21 0 35 0;
#X connect 22 0 3 1;
#X connect 23 0 24 0;
#X connect 24 0 26 0;
#X connect 24 1 25 0;
#X connect 26 0 27 1;
#X connect 27 0 0 0;
#X connect 34 0 27 0;
#X connect 35 0 15 0;
#X connect 35 1 18 0;
#X connect 35 2 16 0;
#X connect 35 3 17 0;
#X connect 35 4 28 0;
#X connect 35 5 29 0;
#X connect 35 6 32 0;
#X connect 35 7 32 0;
#X connect 35 8 37 0;
#X connect 37 0 38 0;
#X connect 37 1 33 0;
#X connect 39 0 1 0;
#X connect 40 0 42 0;
#X connect 41 0 42 0;
#X connect 43 0 6 0;
#X connect 43 1 8 0;
#X connect 43 2 12 0;
#X connect 43 3 13 0;
#X connect 43 4 10 0;
#X connect 43 5 11 0;
#X connect 43 6 14 0;
#X connect 43 7 36 0;
#X connect 43 8 30 0;
#X connect 43 9 40 0;
#X connect 43 10 41 0;
#X connect 44 0 37 1;
#X connect 45 0 27 1;
#X restore 18 235 pd control;
#X obj 101 117 cnv 15 283 42 ss rr empty 30 30 0 14 -228856 -66577
0;
#X obj 534 102 bng 17 250 50 0 \$0-<s \$0-<r < 6 8 0 10 -262144 -1
-1;
#N canvas 510 89 570 679 shift 0;
#X msg 23 320 outlets;
#X obj 144 421 iemguts/canvasconnections 1;
#X obj 165 252 f;
#X obj 165 276 until;
#X obj 165 298 f;
#X obj 191 298 + 1;
#X msg 101 371 outconnect \$1;
#X msg 179 225 1;
#X msg 151 225 1;
#X obj 144 445 list split 1;
#X obj 178 468 demux;
#X obj 205 671 pack f f f f;
#X obj 205 567 t a a;
#X obj 205 592 unpack f f f f;
#X obj 359 631 list prepend disconnect;
#X obj 359 653 list trim;
#X obj 359 675 iemguts/sendcanvas 2;
#X obj 317 296 unpack f f f;
#X obj 205 693 list prepend connect;
#X obj 205 514 spigot;
#X obj 97 201 t b b b b b b b b f f f f;
#X obj 317 228 route bang;
#X msg 317 252 1;
#X obj 317 320 demux;
#X msg 111 158 1;
#X obj 344 345 * -1;
#X obj 393 228 loadbang;
#X msg 393 253 0 0 0;
#X obj 169 499 -;
#X obj 165 320 +;
#X obj 351 371 t f f;
#X obj 386 318 t f f;
#X obj 158 530 == 0;
#X obj 125 554 spigot;
#X msg 191 158 0;
#X obj 313 641 +;
#X obj 286 618 demux;
#X msg 50 341 inlets;
#X msg 192 370 inconnect \$1;
#X obj 165 348 demux;
#X obj 23 295 demux;
#X obj 77 86 t b a b;
#X obj 157 86 t b a b;
#X obj 398 484 t f f f f;
#X obj 449 531 == 3;
#X obj 432 510 == 2;
#X obj 415 531 == 1;
#X obj 398 510 == 0;
#X obj 263 641 +;
#X obj 236 618 demux;
#X obj 213 641 +;
#X obj 186 618 demux;
#X obj 163 641 +;
#X obj 136 618 demux;
#X obj 314 447 t f f f f;
#X obj 317 274 list-abs/list-pad;
#X obj 205 492 list-abs/list-extend;
#X obj 205 539 cyclone/zl iter 4;
#X obj 156 35 receive \$0->s;
#X obj 79 7 receive \$0-<s;
#X obj 50 235 receive \$0-inout;
#X obj 398 460 receive \$0-poss;
#X connect 0 0 1 0;
#X connect 1 0 9 0;
#X connect 2 0 3 0;
#X connect 3 0 4 0;
#X connect 4 0 5 0;
#X connect 4 0 29 0;
#X connect 5 0 4 1;
#X connect 6 0 1 0;
#X connect 7 0 10 1;
#X connect 8 0 19 1;
#X connect 9 1 10 0;
#X connect 10 0 28 0;
#X connect 10 1 56 0;
#X connect 11 0 18 0;
#X connect 12 0 13 0;
#X connect 12 1 14 0;
#X connect 13 0 53 0;
#X connect 13 1 51 0;
#X connect 13 2 49 0;
#X connect 13 3 36 0;
#X connect 14 0 15 0;
#X connect 15 0 16 0;
#X connect 17 0 23 0;
#X connect 17 1 30 0;
#X connect 17 2 31 0;
#X connect 18 0 15 0;
#X connect 19 0 57 0;
#X connect 20 2 56 1;
#X connect 20 3 56 0;
#X connect 20 4 8 0;
#X connect 20 5 2 0;
#X connect 20 6 7 0;
#X connect 20 7 40 0;
#X connect 20 8 10 1;
#X connect 20 10 4 1;
#X connect 20 11 19 1;
#X connect 21 0 22 0;
#X connect 21 1 55 0;
#X connect 22 0 55 0;
#X connect 23 0 54 0;
#X connect 23 1 25 0;
#X connect 24 0 23 1;
#X connect 25 0 54 0;
#X connect 26 0 27 0;
#X connect 27 0 55 1;
#X connect 28 0 33 0;
#X connect 29 0 39 0;
#X connect 30 0 28 1;
#X connect 30 1 29 1;
#X connect 31 0 2 1;
#X connect 31 1 32 0;
#X connect 32 0 33 1;
#X connect 33 0 2 1;
#X connect 34 0 23 1;
#X connect 35 0 11 3;
#X connect 36 0 11 3;
#X connect 36 1 35 0;
#X connect 37 0 1 0;
#X connect 38 0 1 0;
#X connect 39 0 6 0;
#X connect 39 1 38 0;
#X connect 40 0 0 0;
#X connect 40 1 37 0;
#X connect 41 0 20 0;
#X connect 41 1 21 0;
#X connect 41 2 24 0;
#X connect 42 0 20 0;
#X connect 42 1 21 0;
#X connect 42 2 34 0;
#X connect 43 0 47 0;
#X connect 43 1 46 0;
#X connect 43 2 45 0;
#X connect 43 3 44 0;
#X connect 44 0 36 1;
#X connect 45 0 49 1;
#X connect 46 0 51 1;
#X connect 47 0 53 1;
#X connect 48 0 11 2;
#X connect 49 0 11 2;
#X connect 49 1 48 0;
#X connect 50 0 11 1;
#X connect 51 0 11 1;
#X connect 51 1 50 0;
#X connect 52 0 11 0;
#X connect 53 0 11 0;
#X connect 53 1 52 0;
#X connect 54 0 52 1;
#X connect 54 1 50 1;
#X connect 54 2 48 1;
#X connect 54 3 35 1;
#X connect 55 0 17 0;
#X connect 56 0 19 0;
#X connect 57 0 12 0;
#X connect 58 0 42 0;
#X connect 59 0 41 0;
#X connect 60 0 40 1;
#X connect 60 0 39 1;
#X connect 61 0 43 0;
#X restore 125 212 pd shift;
#X floatatom 520 102 2 0 3 0 - #0-posr #0-poss, f 2;
#X obj 503 102 bng 17 250 50 0 \$0-^vs \$0-^vr v 6 8 0 10 -262144 -1
-1;
#X obj 486 102 bng 17 250 50 0 \$0-?s \$0-?r ? 6 9 0 10 -262144 -1
-1;
#X obj 551 102 bng 17 250 50 0 \$0->s \$0->r > 6 8 0 10 -262144 -1
-1;
#N canvas 272 132 554 524 help 0;
#X obj 70 10 receive \$0-?s;
#X obj 134 274 receive \$0-??s;
#X msg 134 310 FROM: a list of object numbers you want to connect.
Select them with the mouse and hit the "from" button or type them directly
into the symbol box. \, TO: a list of object numbers you want to connect
to. Works the same as "from". \, CONNECTION: the connection number
you want to use (0 being the first). \, # CABLES: the number of connections
you want to make (this calculates itself). \, CONNECT: perform connection.
DISCONNECT: perform fisconnection. \, See the help-file for further
instructions.;
#X obj 134 437 t b a;
#X obj 161 497 print -n;
#X msg 134 460  ;
#X obj 70 37 f;
#X obj 70 60 ==;
#X obj 70 83 sel 1;
#X msg 97 108 0: the object number of the connecting object \, 1: the
outlet number of the connecting object \, 2: the object number of the
connected object \, 3: the outlet number of the connected object \,
Not all of these will work in every situation. Stick to presets for
the most reliable results. See the help file for further instructions.
;
#X msg 70 209 ^ OR v: Select inlets or outlets. \, <: move connections
one place left. \, >: move connections one place right. \, FLOAT ATOM
(advanced): select which position in connection list to shift (press
help again for more info).;
#X connect 0 0 6 0;
#X connect 1 0 2 0;
#X connect 2 0 3 0;
#X connect 3 0 5 0;
#X connect 3 1 4 0;
#X connect 5 0 4 0;
#X connect 6 0 7 0;
#X connect 7 0 6 1;
#X connect 7 0 8 0;
#X connect 8 0 10 0;
#X connect 8 1 9 0;
#X connect 9 0 3 0;
#X connect 10 0 3 0;
#X restore 86 235 pd help;
#N canvas 470 89 545 679 mode 0;
#X obj 244 50 t b b;
#X obj 191 118 route 0;
#X obj 271 118 route 0;
#X obj 191 74 f \$1;
#X obj 271 74 f \$2;
#X obj 66 293 iemguts/sendcanvas 1;
#X obj 230 144 t f b;
#X msg 257 167 1;
#X obj 47 187 spigot;
#X obj 47 211 t b b b;
#X msg 86 237 menu-open;
#X msg 34 238 vis 0;
#X obj 310 308 until;
#X obj 310 330 f;
#X obj 310 352 + 20;
#X obj 310 374 demux;
#X msg 310 406 obj \$1 300 outlet;
#X msg 336 436 obj \$1 400 inlet;
#X obj 230 167 - 1;
#X obj 201 215 s \$0-mode2;
#X obj 47 163 loadbang;
#X obj 95 423 f;
#X obj 95 448 sel 1;
#X obj 95 472 t f;
#X msg 122 472 1;
#X msg 43 472 label v;
#X msg 153 472 label ^;
#X obj 119 546 s \$0-^vr;
#X obj 107 502 s \$0-inout;
#X msg 224 534 1;
#X obj 224 558 s \$0-posr;
#X msg 255 535 3;
#X obj 244 28 inlet;
#X obj 95 394 receive \$0-^vs;
#X obj 33 355 receive \$0-^vc;
#X msg 66 266 donecanvasdialog 1 1 1 0 -1 1 1 178 21 390 100 \, dirty
0;
#X connect 0 0 3 0;
#X connect 0 1 4 0;
#X connect 1 1 6 0;
#X connect 2 1 12 0;
#X connect 3 0 1 0;
#X connect 4 0 2 0;
#X connect 6 0 18 0;
#X connect 6 1 7 0;
#X connect 7 0 8 1;
#X connect 7 0 15 1;
#X connect 7 0 19 0;
#X connect 8 0 9 0;
#X connect 9 0 11 0;
#X connect 9 1 35 0;
#X connect 9 2 10 0;
#X connect 10 0 5 0;
#X connect 11 0 5 0;
#X connect 12 0 13 0;
#X connect 13 0 14 0;
#X connect 14 0 13 1;
#X connect 14 0 15 0;
#X connect 15 0 16 0;
#X connect 15 1 17 0;
#X connect 16 0 5 0;
#X connect 17 0 5 0;
#X connect 18 0 12 0;
#X connect 20 0 8 0;
#X connect 20 0 29 0;
#X connect 21 0 22 0;
#X connect 22 0 23 0;
#X connect 22 0 25 0;
#X connect 22 0 29 0;
#X connect 22 1 24 0;
#X connect 22 1 26 0;
#X connect 22 1 31 0;
#X connect 23 0 21 1;
#X connect 23 0 28 0;
#X connect 24 0 21 1;
#X connect 24 0 28 0;
#X connect 25 0 27 0;
#X connect 26 0 27 0;
#X connect 29 0 30 0;
#X connect 31 0 30 0;
#X connect 32 0 0 0;
#X connect 33 0 21 0;
#X connect 34 0 21 0;
#X connect 35 0 5 0;
#X restore 136 235 pd mode;
#X obj 179 212 iemguts/initbang;
#X obj 101 77 declare -lib zexy -path zexy -path ./;
#X obj 101 18 ctxfiles/license;
#X symbolatom 148 119 0 0 0 0 - #0-fsymr #0-fsyms;
#X floatatom 148 140 3 0 0 0 outlet #0-con1r #0-con1, f 3;
#X obj 105 121 bng 15 250 50 0 \$0from \$0fromr f 5 7 0 10 -262144
-1 -1;
#X text 119 119 rom;
#X obj 105 162 bng 15 250 50 0 \$0to \$0tor t 5 7 0 10 -262144 -1 -1
;
#X symbolatom 149 161 0 0 0 0 - #0-tsymr #0-tsyms;
#X floatatom 150 182 3 0 0 0 inlet #0-con2r #0-con2, f 3;
#X obj 173 181 cnv 15 211 21 ss rr empty 30 30 0 14 -158120 -66577
0;
#X text 249 182 isconnect;
#X text 120 160 o;
#X obj 369 101 bng 15 250 50 0 \$0-??s \$0-??r ? 5 7 0 10 -262144 -1
-1;
#X obj 176 184 bng 15 250 50 0 \$0connect \$0connectr c 5 7 0 10 -262144
-1 -1;
#X floatatom 311 182 3 0 0 0 - #0-nor #0-nos, f 3;
#X text 190 182 onnect;
#X obj 236 184 bng 15 250 50 0 \$0disconnect \$0disconnectr d 5 7 0
10 -262144 -1 -1;
#X text 331 183 # cables;
#X connect 0 0 3 0;
#X connect 13 0 12 0;
#X coords 0 -1 1 1 285 103 1 100 100;
