#N canvas 105 210 677 503 10;
#X declare -lib zexy -path zexy -path ./;
#X obj 0 3 cnv 2 2 2 empty \$0-block empty 7 -10 1 14 -233017 -66577
0;
#X obj 1 4 cnv 3 47 21 empty \$0-block3 empty 2 3 0 8 -203904 -1 0
;
#N canvas 83 85 1280 687 (subpatch) 0;
#X array c\$0 100 float 2;
#X obj 485 229 receive \$0-arrsize;
#X obj 485 251 iemguts/sendcanvas;
#X connect 1 0 2 0;
#X coords 0 0.954545 100 -0.954545 48 22 1 0 0;
#X restore 0 3 graph;
#X obj 0 -117 outlet~;
#X obj 171 -313 inlet;
#N canvas 241 252 720 202 message 0;
#X obj 343 53 inlet;
#X obj 414 99 ctxfiles/recompile \$0;
#X obj 137 114 cyclone/zl iter 1;
#X obj 343 75 t b a;
#X obj 393 53 receive \$0-anyin;
#X obj 176 53 iemguts/oreceive nop;
#X obj 176 30 receive \$0-myname;
#N canvas 67 89 450 300 identify 0;
#X obj 6 16 inlet;
#X obj 6 40 route :lo load :x1 :x2 :y1 :y2 :c color colour :s1 :s2
:nm normalize :li line :br bitrate :p1 :p2 :p3 :p4 :ed edit :as print
savelist set save clear size;
#X obj 6 120 ctxfiles/tfs \$0 1 lo clear;
#X obj 36 140 ctxfiles/tfsn \$0 2 x1 0;
#X obj 66 160 ctxfiles/tfsn \$0 3 x2 0;
#X obj 96 180 ctxfiles/tfsn \$0 4 y1 0;
#X obj 126 200 ctxfiles/tfsn \$0 5 y2 0;
#X obj 156 220 ctxfiles/tfs \$0 6 c 17;
#X obj 186 240 ctxfiles/tfs \$0 7 s1 1;
#X obj 216 260 ctxfiles/tfs \$0 8 s2 -1;
#X obj 246 280 ctxfiles/tfs \$0 9 nm 1;
#X obj 276 300 ctxfiles/tfs \$0 10 li 0;
#X obj 306 320 ctxfiles/tfs \$0 11 br 44100;
#X obj 336 340 ctxfiles/tfs \$0 12 p1 0;
#X obj 366 360 ctxfiles/tfs \$0 13 p2 0;
#X obj 396 380 ctxfiles/tfs \$0 14 p3 0;
#X obj 426 400 ctxfiles/tfs \$0 15 p4 0;
#X obj 456 420 ctxfiles/tfst \$0 16 ed 1;
#X obj 486 440 ctxfiles/tfst \$0 17 as 1;
#X obj 516 460 ctxfiles/tf \$0 18;
#X obj 546 480 ctxfiles/tf \$0 19;
#X obj 576 500 ctxfiles/tf \$0 20;
#X obj 606 520 ctxfiles/tf \$0 21;
#X obj 636 540 ctxfiles/tf \$0 22;
#X obj 666 560 ctxfiles/tf \$0 23;
#X obj 696 580 s \$0-othr;
#X connect 0 0 1 0;
#X connect 1 0 2 0;
#X connect 1 1 2 0;
#X connect 1 2 3 0;
#X connect 1 3 4 0;
#X connect 1 4 5 0;
#X connect 1 5 6 0;
#X connect 1 6 7 0;
#X connect 1 7 7 0;
#X connect 1 8 7 0;
#X connect 1 9 8 0;
#X connect 1 10 9 0;
#X connect 1 11 10 0;
#X connect 1 12 10 0;
#X connect 1 13 11 0;
#X connect 1 14 11 0;
#X connect 1 15 12 0;
#X connect 1 16 12 0;
#X connect 1 17 13 0;
#X connect 1 18 14 0;
#X connect 1 19 15 0;
#X connect 1 20 16 0;
#X connect 1 21 17 0;
#X connect 1 22 17 0;
#X connect 1 23 18 0;
#X connect 1 24 19 0;
#X connect 1 25 20 0;
#X connect 1 26 21 0;
#X connect 1 27 22 0;
#X connect 1 28 23 0;
#X connect 1 29 24 0;
#X connect 1 30 25 0;
#X restore 137 138 pd identify;
#N canvas 67 89 450 300 distribute 0;
#X obj 0 25 inlet;
#X obj 0 50 demux #f #f #f #f #f #f #f #f #f #f #f #f #f #f #f #f #f
#f #f #f #f #f #f #f;
#X obj 351 28 inlet;
#X obj 30 150 ctxfiles/ll \$0;
#X obj 60 170 s \$0-:x1;
#X obj 90 190 s \$0-:x2;
#X obj 120 210 s \$0-:y1;
#X obj 150 230 s \$0-:y2;
#X obj 180 250 s \$0-:cs;
#X obj 210 270 s \$0-:s1s;
#X obj 240 290 s \$0-:s2s;
#X obj 270 310 s \$0-:ns;
#X obj 300 330 s \$0-:lis;
#X obj 330 350 s \$0-:bs;
#X obj 360 370 s \$0-:p1;
#X obj 390 390 s \$0-:p2;
#X obj 420 410 s \$0-:p3;
#X obj 450 430 s \$0-:p4;
#X obj 480 450 s \$0-:eds;
#X obj 510 470 s \$0-:ass;
#X obj 540 490 s \$0-printall;
#X obj 570 510 s \$0-savelist;
#X obj 600 530 s \$0-setme;
#X obj 630 550 s \$0-savem;
#X obj 660 570 s \$0-clearme;
#X obj 690 590 s \$0-sizer;
#X connect 0 0 1 0;
#X connect 1 1 3 0;
#X connect 1 2 4 0;
#X connect 1 3 5 0;
#X connect 1 4 6 0;
#X connect 1 5 7 0;
#X connect 1 6 8 0;
#X connect 1 7 9 0;
#X connect 1 8 10 0;
#X connect 1 9 11 0;
#X connect 1 10 12 0;
#X connect 1 11 13 0;
#X connect 1 12 14 0;
#X connect 1 13 15 0;
#X connect 1 14 16 0;
#X connect 1 15 17 0;
#X connect 1 16 18 0;
#X connect 1 17 19 0;
#X connect 1 18 20 0;
#X connect 1 19 21 0;
#X connect 1 20 22 0;
#X connect 1 21 23 0;
#X connect 1 22 24 0;
#X connect 1 23 25 0;
#X connect 2 0 1 1;
#X restore 414 123 pd distribute;
#X connect 0 0 3 0;
#X connect 1 0 8 0;
#X connect 1 1 8 1;
#X connect 2 0 7 0;
#X connect 3 0 1 0;
#X connect 3 1 2 0;
#X connect 4 0 3 0;
#X connect 5 0 3 0;
#X connect 6 0 5 0;
#X restore 214 -291 pd message;
#X obj 0 -143 r~ \$0-too;
#X obj 1 -232 iemguts/canvasargs;
#N canvas 653 207 450 444 loadbang 0;
#X obj 184 165 s \$0-lb;
#X obj 152 66 ctxfiles/myinit 3;
#X obj 152 41 ctxfiles/dvi \$0 4;
#X obj 152 19 bng 15 250 50 0 empty empty empty 17 7 0 10 -262144 -1
-1;
#X obj 60 155 del 1000;
#X obj 249 259 s \$0-lb1;
#X obj 32 255 spigot 1;
#X obj 52 356 s \$0-created;
#X obj 60 198 s \$0-savestart;
#X obj 217 210 s \$0-iemargr;
#X obj 233 236 s \$0-lb2;
#X obj 32 378 s \$0-lbang;
#X obj 32 232 receive \$0-cbee;
#X obj 265 144 makefilename \$0-cbee;
#X text 14 -143 firest when created newly in the overlay (ie. not loaded
from the patch). lbang fires early if content is created and late (by
context) if not.;
#X obj 200 187 s \$0-iemarg1;
#X obj 92 303 s \$0-created1;
#X obj 64 331 s \$0-ncreated;
#X obj 32 277 t b b b b;
#X obj 64 303 f 1;
#X obj 60 177 f 1;
#X obj 14 -97;
#X obj 233 348 receive \$0-lbang;
#X obj 233 370 f 1;
#X obj 233 392 s \$0-lbang1;
#X obj -7 32 loadbang;
#X obj 152 88 spigot 1;
#X obj 152 119 t f b b b b b b f f;
#X obj -7 78 + 1;
#X obj 29 78 t f;
#X obj -7 54 f 1;
#X obj 39 122 s \$0-notloaded;
#X obj -7 100 moses 3;
#X obj 265 284 ctxfiles/dvs \$0 cbeep;
#X connect 1 0 26 0;
#X connect 2 0 1 0;
#X connect 3 0 2 0;
#X connect 4 0 20 0;
#X connect 6 0 18 0;
#X connect 12 0 6 0;
#X connect 13 0 33 0;
#X connect 18 0 11 0;
#X connect 18 1 7 0;
#X connect 18 2 19 0;
#X connect 18 3 16 0;
#X connect 19 0 17 0;
#X connect 19 0 28 0;
#X connect 20 0 8 0;
#X connect 22 0 23 0;
#X connect 23 0 24 0;
#X connect 25 0 30 0;
#X connect 26 0 27 0;
#X connect 27 0 6 1;
#X connect 27 1 4 0;
#X connect 27 2 0 0;
#X connect 27 3 15 0;
#X connect 27 4 9 0;
#X connect 27 5 10 0;
#X connect 27 6 5 0;
#X connect 27 7 13 0;
#X connect 27 8 26 1;
#X connect 28 0 29 0;
#X connect 28 0 32 0;
#X connect 29 0 28 1;
#X connect 30 0 28 0;
#X connect 32 1 31 0;
#X restore 214 -335 pd loadbang;
#X obj 1 -210 s \$0-canvass;
#N canvas 67 164 801 582 tabload 0;
#X obj 401 433 soundfiler;
#X obj 7 396 ctxfiles/sp 13;
#X obj 401 456 s \$0-sizer;
#X obj 102 373 receive \$0-pixsize;
#X obj 503 364 receive \$0-name;
#X obj 280 224 receive \$0-tname;
#X obj 342 325 s \$0-myname;
#X obj 401 185 s2l /;
#X obj 401 207 cyclone/zl rev;
#X obj 401 229 unpack s;
#X obj 401 251 s2l .;
#X obj 401 273 t a a;
#X obj 433 296 list length;
#X obj 433 318 > 1;
#X obj 369 355 demux;
#X obj 342 301 unpack s;
#X obj 7 313 receive \$0-myname;
#X obj 401 386 list append c\$0;
#X msg 401 409 read -resize \$1 \$2;
#X obj 282 395 t s b s;
#X obj 305 423 array size;
#X obj 527 437 symbol;
#X obj 451 363 sel 1;
#X msg 527 459 set \$1;
#X obj 527 481 s \$0-sname;
#X obj 433 340 t f f f;
#X obj 489 340 s \$0-tabmode;
#X obj 401 500 t f f f;
#X obj 348 561 s \$0-size;
#X obj 447 572 s \$0-size2;
#X obj 550 406 receive \$0-snamep;
#X obj 314 25 receive \$0-:l;
#X obj 369 72 makefilename %.1s;
#X msg 401 117 1;
#X obj 369 117 t f;
#X obj 337 140 demux;
#X obj 156 206 s2l;
#X obj 156 228 list split 1;
#X obj 196 251 s \$0-anyin;
#X obj 156 251 t b;
#X obj 156 274 symbol;
#X msg 156 296 set \$1;
#X obj 156 318 s \$0-:loo;
#X obj 7 419 s \$0-block3;
#X obj 280 273 makefilename ~%d;
#X obj 369 94 sel .;
#X obj 369 163 t s s s b;
#X obj 123 75 spigot;
#X msg 123 144 menusave;
#X obj 123 166 iemguts/sendcanvas 2;
#X obj 123 121 del 10;
#X msg 697 128 normalize \$1;
#X obj 697 180 send;
#X obj 722 155 receive \$0-name;
#X obj 529 83 receive \$0-clearme;
#X msg 575 128 const 0;
#X obj 123 99 t b;
#X obj 162 52 receive \$0-notloaded;
#X obj 536 271 s \$0-:ass;
#X obj 536 229 t f f;
#X obj 568 250 s \$0-:eds;
#X msg 552 151 clear;
#X obj 552 173 s \$0-:lo;
#X obj 401 478 receive \$0-size;
#X obj 280 246 f;
#X obj 529 105 t b b b;
#X obj 492 33 spigot 1;
#X obj 537 11 receive \$0-symboff;
#X obj 314 50 t b s s s;
#X obj 492 55 s \$0-:lo;
#X obj 697 106 receive \$0-:nm;
#X obj 476 539 s \$0-:bs;
#X obj 476 516 t f;
#X connect 0 0 2 0;
#X connect 0 1 72 0;
#X connect 1 0 43 0;
#X connect 3 0 1 1;
#X connect 4 0 17 1;
#X connect 5 0 64 0;
#X connect 7 0 8 0;
#X connect 8 0 9 0;
#X connect 9 0 10 0;
#X connect 10 0 11 0;
#X connect 11 0 15 0;
#X connect 11 1 12 0;
#X connect 12 0 13 0;
#X connect 13 0 25 0;
#X connect 14 0 19 0;
#X connect 14 1 17 0;
#X connect 15 0 6 0;
#X connect 16 0 1 0;
#X connect 17 0 18 0;
#X connect 18 0 0 0;
#X connect 19 0 23 0;
#X connect 19 1 20 0;
#X connect 19 2 20 1;
#X connect 20 0 2 0;
#X connect 21 0 23 0;
#X connect 22 0 21 0;
#X connect 23 0 24 0;
#X connect 25 0 14 1;
#X connect 25 1 22 0;
#X connect 25 2 26 0;
#X connect 27 1 28 0;
#X connect 27 2 29 0;
#X connect 30 0 21 0;
#X connect 31 0 68 0;
#X connect 32 0 45 0;
#X connect 33 0 35 1;
#X connect 34 0 35 1;
#X connect 35 0 36 0;
#X connect 35 1 46 0;
#X connect 36 0 37 0;
#X connect 37 0 39 0;
#X connect 37 1 38 0;
#X connect 39 0 40 0;
#X connect 40 0 41 0;
#X connect 41 0 42 0;
#X connect 44 0 6 0;
#X connect 45 0 34 0;
#X connect 45 1 33 0;
#X connect 46 0 14 0;
#X connect 46 1 7 0;
#X connect 46 2 40 1;
#X connect 46 3 59 0;
#X connect 47 0 56 0;
#X connect 48 0 49 0;
#X connect 50 0 48 0;
#X connect 51 0 52 0;
#X connect 53 0 52 1;
#X connect 54 0 65 0;
#X connect 55 0 52 0;
#X connect 56 0 50 0;
#X connect 57 0 47 1;
#X connect 59 0 58 0;
#X connect 59 1 60 0;
#X connect 61 0 62 0;
#X connect 64 0 44 0;
#X connect 65 0 64 0;
#X connect 65 1 61 0;
#X connect 65 2 55 0;
#X connect 66 0 69 0;
#X connect 67 0 66 1;
#X connect 68 0 47 0;
#X connect 68 1 35 0;
#X connect 68 2 32 0;
#X connect 68 3 66 0;
#X connect 70 0 51 0;
#X connect 72 0 71 0;
#X restore 215 -114 pd tabload;
#N canvas 752 267 466 381 tablelable 0;
#X msg 239 308 rename \$1;
#X obj 207 284 s \$0-name;
#X obj 160 76 + 1;
#X obj 160 54 v cntnt;
#X obj 192 239 l2s;
#X msg 210 217 symbol;
#X msg 191 145 symbol  ;
#X obj 191 122 until;
#X obj 160 169 list-abs/list-extend;
#X obj 239 354 send;
#X obj 255 330 symbol c\$0;
#X obj 160 191 ctxfiles/sp01;
#X obj 192 261 t s s s s b;
#X obj 160 30 receive \$0-lb1;
#X obj 160 99 t b b f b f f;
#X obj 310 169 s \$0-tname;
#X obj 152 354 s \$0-snamep;
#X connect 0 0 9 0;
#X connect 2 0 14 0;
#X connect 3 0 2 0;
#X connect 4 0 12 0;
#X connect 5 0 4 1;
#X connect 6 0 8 0;
#X connect 7 0 6 0;
#X connect 8 0 11 0;
#X connect 10 0 9 1;
#X connect 11 0 4 0;
#X connect 12 0 16 0;
#X connect 12 1 1 0;
#X connect 12 2 10 1;
#X connect 12 3 0 0;
#X connect 12 4 10 0;
#X connect 13 0 3 0;
#X connect 14 0 8 0;
#X connect 14 1 11 2;
#X connect 14 2 7 0;
#X connect 14 3 5 0;
#X connect 14 4 3 0;
#X connect 14 5 15 0;
#X restore 214 -136 pd tablelable;
#N canvas 790 297 450 300 colour 0;
#X obj 161 57 pack f \$0;
#X msg 161 125 color \$1 \$4 \$4;
#X obj 161 35 receive \$0-:c;
#X obj 161 79 s colourquery";
#X obj 161 103 receive \$0-primary-col;
#X obj 161 147 s \$0-block3;
#X connect 0 0 3 0;
#X connect 1 0 5 0;
#X connect 2 0 0 0;
#X connect 4 0 1 0;
#X restore 216 -48 pd colour;
#N canvas 146 227 475 460 creation 0;
#X obj 189 199 list;
#X obj 214 174 demux;
#X obj 161 77 demux;
#X obj 189 234 t a a;
#X obj 221 266 list split 2;
#X obj 134 343 list split 1000;
#X obj 134 381 outlet;
#X obj 185 368 s \$0-myvals;
#X obj 101 318 list split;
#X obj 221 292 list trim;
#X msg 168 294 2;
#X obj 221 318 route :H;
#X obj 214 150 receive \$0-canvass;
#X obj 78 149 s \$0-lbang;
#X obj 149 101 t b b b b;
#X obj 209 127 s \$0-splbc;
#X obj 246 87 receive \$0-ncreated;
#X obj 161 55 ctxfiles/dvr \$0 cntstrt;
#X connect 0 0 3 0;
#X connect 1 0 0 1;
#X connect 1 1 3 0;
#X connect 2 0 14 0;
#X connect 3 0 8 0;
#X connect 3 1 4 0;
#X connect 4 0 9 0;
#X connect 5 0 6 0;
#X connect 5 1 7 0;
#X connect 5 2 6 0;
#X connect 8 1 5 0;
#X connect 9 0 11 0;
#X connect 10 0 8 1;
#X connect 11 0 5 1;
#X connect 11 0 10 0;
#X connect 12 0 1 0;
#X connect 14 0 13 0;
#X connect 14 1 0 1;
#X connect 14 2 0 0;
#X connect 14 3 15 0;
#X connect 16 0 1 1;
#X connect 16 0 2 1;
#X connect 17 0 2 0;
#X restore 214 -313 pd creation;
#N canvas 108 311 797 457 face 0;
#X obj 101 125 cnv 15 219 70 empty \$0-cbox ARRAY 100 10 0 11 -204800
-258113 0;
#X obj 353 347 t b;
#X obj 301 151 bng 14 250 50 0 \$0-savem \$0-colorme save now -51
8 0 10 -262144 -1 -1;
#X obj 301 105 bng 14 250 50 0 \$0-done empty ^ 3 10 0 15 -262144 -1
-1;
#X obj 401 210 iemguts/sendcanvas;
#X obj 353 302 iemguts/receivecanvas 2;
#X text 388 250 ctxfiles/menu \$0 :ts :t 40 15 points polygon curve
;
#X obj 471 124 tgl 15 0 empty empty empty 17 7 0 10 -262144 -1 -1 0
1;
#X obj 301 171 bng 14 250 50 0 \$0-clearme \$0-colorme clear -34 8
0 10 -262144 -1 -1;
#X obj 401 149 receive \$0-face;
#X obj 435 347 route 1;
#X obj 353 369 s \$0-mup;
#X obj 353 325 route mouseup done-popup;
#X obj 435 369 s \$0-openup;
#X obj 104 105 bng 14 250 50 0 \$0-obang \$0-obangr empty 17 7 0 10
-262144 -1 -1;
#X obj 109 7 receive \$0-:lo;
#X floatatom 108 150 6 0 0 1 normalize #0-:ns #0-:nm, f 6;
#X floatatom 108 131 8 0 0 1 size #0-sizer #0-size, f 8;
#X floatatom 108 170 7 0 0 1 bit-rate #0-:bs #0-:br, f 7;
#X symbolatom 152 105 21 0 0 0 file #0-:loo #0-:l, f 21;
#X obj 301 131 tgl 14 1 \$0-:as \$0-:ass auto save -56 7 0 10 -262144
-1 -1 1 1;
#X obj 122 342 tgl 14 0 \$0-snapl \$0-:p1 left -24 7 0 10 -262144 -1
-1 0 1;
#X obj 150 342 tgl 14 0 \$0-snapr \$0-:p2 right 15 7 0 10 -262144 -1
-1 0 1;
#X obj 136 328 tgl 14 0 \$0-snapt \$0-:p3 top -2 -7 0 10 -262144 -1
-1 0 1;
#X obj 136 356 tgl 14 0 \$0-snapb \$0-:p4 bottom -10 21 0 10 -262144
-1 -1 0 1;
#X text 99 313 SNAP:;
#X obj 518 369 s \$0-cpr;
#X obj 518 347 ctxfiles/deb 700;
#X obj 101 199 cnv 15 219 50 empty \$0-cbox CANVAS 95 6 0 11 -204800
-258113 0;
#X obj 132 209 tgl 15 1 \$0-:ed \$0-:eds edit -27 8 0 10 -262144 -1
-1 1 1;
#X floatatom 280 209 5 0 0 0 y-bottom #0-:s2s #0-:s2, f 5;
#X floatatom 280 228 5 0 0 0 y-top #0-:s1s #0-:s1, f 5;
#X floatatom 151 228 8 0 0 0 colour #0-:cs #0-:c, f 8;
#X msg 401 174 coords 0 -1 1 1 221 150 \$1 100 100;
#X text 521 194 185;
#X obj 356 -18 receive \$0-lb1;
#X msg 356 4 100 sizer 1 :ns 44100 :bs 17 :cs -1 :s2s 1 :s1s;
#X obj 356 26 cyclone/zl iter 2;
#X obj 356 48 unpack f s;
#X obj 413 69 makefilename \$0-%s;
#X msg 356 70 set \$1;
#X obj 356 92 send;
#X obj 323 -13 bng 15 250 50 0 empty empty empty 17 7 0 10 -262144
-1 -1;
#X obj 149 209 ctxfiles/menu \$0 :li :lis   points polygon curve;
#X obj 109 29 route clear;
#X msg 109 51 set symbol;
#X obj 219 11 t b a b;
#X obj 238 84 s \$0-:loo;
#X obj 258 33 t f;
#X obj 219 33 f 1;
#X obj 219 55 s \$0-symboff;
#X connect 1 0 11 0;
#X connect 5 0 12 0;
#X connect 7 0 33 0;
#X connect 9 0 33 0;
#X connect 10 0 13 0;
#X connect 12 0 1 0;
#X connect 12 1 10 0;
#X connect 12 2 27 0;
#X connect 15 0 44 0;
#X connect 27 0 26 0;
#X connect 33 0 4 0;
#X connect 35 0 36 0;
#X connect 36 0 37 0;
#X connect 37 0 38 0;
#X connect 38 0 40 0;
#X connect 38 1 39 0;
#X connect 39 0 41 1;
#X connect 40 0 41 0;
#X connect 42 0 36 0;
#X connect 44 0 45 0;
#X connect 44 1 46 0;
#X connect 45 0 46 0;
#X connect 46 0 49 0;
#X connect 46 1 47 0;
#X connect 46 2 48 0;
#X connect 48 0 50 0;
#X connect 49 0 50 0;
#X coords 0 -1 1 1 221 185 0;
#X restore 0 79 pd face;
#X obj 1 -188 iemguts/propertybang;
#X obj 1 -166 s \$0-prop;
#X obj 1 -254 receive \$0-iemargr;
#N canvas 481 192 450 300 set 0;
#X obj 140 56 receive \$0-setme;
#X obj 140 78 route *;
#X obj 186 100 cyclone/zl iter 2;
#X obj 140 190 array set c\$0;
#X obj 140 100 t a b;
#X obj 186 122 unpack;
#X obj 172 144 t f;
#X obj 228 164 receive \$0-name;
#X connect 0 0 1 0;
#X connect 1 0 4 0;
#X connect 1 1 2 0;
#X connect 2 0 5 0;
#X connect 4 0 3 0;
#X connect 4 1 6 0;
#X connect 5 0 3 0;
#X connect 5 1 3 1;
#X connect 6 0 3 1;
#X connect 7 0 3 2;
#X restore 214 -158 pd set;
#X obj -2 -86 ctxfiles/license;
#N canvas 375 164 799 411 audio 0;
#N canvas 543 436 536 300 receive 0;
#X obj 225 111 iemguts/sendcanvas;
#X obj 225 65 ctxfiles/myinit 4;
#X msg 225 90 obj 0 100 receive~ \$1-myline \, connect 5 0 4 0;
#X obj 225 37 receive \$0-dvstart;
#X obj 82 156 outlet~;
#X connect 1 0 2 0;
#X connect 2 0 0 0;
#X connect 3 0 1 0;
#X restore 14 73 pd receive;
#X obj 13 118 -~;
#X obj 626 95 unpack f f f;
#X obj 666 147 * 44100;
#X obj 626 117 * 44100;
#X obj 626 239 /;
#X obj 626 174 -;
#X obj 672 306 /;
#X obj 626 261 route 0;
#X obj 626 196 * -1;
#X obj 672 330 *;
#X obj 672 353 s \$0-xer;
#X obj 138 148 pack f f;
#X obj 138 170 -;
#X obj 138 212 swap 100;
#X obj 138 256 /;
#X obj 13 224 *~ 1;
#X obj 14 312 s~ \$0-too;
#X obj 14 290 tabread4~ c\$0;
#X obj 626 218 t f f;
#X obj 626 73 receive \$0-relpos;
#X obj 114 67 receive \$0-xend;
#X obj 151 101 receive \$0-xstart;
#X obj 173 166 receive \$0-size;
#X obj -27 250 receive \$0-sname;
#X obj 412 108 makefilename ~get-%s;
#X obj 412 84 receive \$0-myname;
#X obj 412 156 unpack f f;
#X obj 412 200 -;
#X obj 412 178 * 44.1;
#X obj 444 322 * 1;
#X obj 444 344 tabread c\$0;
#X obj 444 366 send;
#X obj 469 292 makefilename %d-fetch;
#X obj 412 223 moses;
#X obj 444 246 moses;
#X msg 412 272 0;
#X obj 173 188 t b f;
#X obj 14 95 *~ 44.1;
#X obj 660 173 receive \$0-size;
#X obj 412 132 iemguts/oreceive \$0noo;
#X obj 672 283 swap 1;
#X obj 13 201 *~;
#X obj 31 175 cyclone/lessthan~;
#X obj 13 140 max~;
#X obj 138 234 spigot;
#X obj 151 123 t b f f f;
#X obj 712 120 receive \$0-:br;
#X obj 138 43 t b f;
#X obj 138 21 receive \$0-lbang1;
#X obj 376 62 ctxfiles/dvr \$0 intget;
#X connect 0 0 38 0;
#X connect 1 0 44 0;
#X connect 2 0 4 0;
#X connect 2 1 3 0;
#X connect 3 0 6 1;
#X connect 4 0 6 0;
#X connect 5 0 8 0;
#X connect 6 0 9 0;
#X connect 7 0 10 0;
#X connect 8 1 41 0;
#X connect 9 0 19 0;
#X connect 10 0 11 0;
#X connect 12 0 13 0;
#X connect 13 0 14 0;
#X connect 14 0 45 0;
#X connect 14 1 15 1;
#X connect 15 0 16 1;
#X connect 15 0 30 1;
#X connect 16 0 18 0;
#X connect 18 0 17 0;
#X connect 19 0 5 0;
#X connect 19 1 10 1;
#X connect 20 0 2 0;
#X connect 21 0 12 0;
#X connect 21 0 35 1;
#X connect 21 0 43 1;
#X connect 22 0 46 0;
#X connect 23 0 37 0;
#X connect 24 0 18 0;
#X connect 24 0 31 0;
#X connect 25 0 40 0;
#X connect 26 0 25 0;
#X connect 27 0 29 0;
#X connect 27 1 33 0;
#X connect 28 0 34 0;
#X connect 29 0 28 0;
#X connect 30 0 31 0;
#X connect 31 0 32 0;
#X connect 33 0 32 1;
#X connect 34 0 36 0;
#X connect 34 1 35 0;
#X connect 35 0 30 0;
#X connect 35 1 36 0;
#X connect 36 0 32 0;
#X connect 37 0 14 0;
#X connect 37 1 14 1;
#X connect 38 0 1 0;
#X connect 39 0 5 1;
#X connect 40 0 27 0;
#X connect 41 0 7 0;
#X connect 41 1 7 1;
#X connect 42 0 16 0;
#X connect 43 0 42 1;
#X connect 44 0 42 0;
#X connect 44 0 43 0;
#X connect 45 0 15 0;
#X connect 46 0 12 0;
#X connect 46 1 1 1;
#X connect 46 2 12 1;
#X connect 46 3 28 1;
#X connect 47 0 3 1;
#X connect 47 0 4 1;
#X connect 48 0 12 0;
#X connect 48 1 45 1;
#X connect 49 0 48 0;
#X connect 50 0 27 0;
#X restore 214 -224 pd audio;
#N canvas 551 169 450 300 curve 0;
#X obj 214 102 * 2;
#X obj 214 124 pack f 100 s;
#X msg 214 147 arraydialog \$3 \$2 \$1 0;
#X obj 214 169 send;
#X obj 295 55 receive \$0-name;
#X obj 182 77 t b f;
#X obj 131 120 s \$0-dirty;
#X obj 254 102 receive \$0-size;
#X obj 182 55 receive \$0-:li;
#X connect 0 0 1 0;
#X connect 1 0 2 0;
#X connect 2 0 3 0;
#X connect 4 0 1 2;
#X connect 4 0 3 1;
#X connect 5 0 6 0;
#X connect 5 1 0 0;
#X connect 7 0 1 1;
#X connect 8 0 5 0;
#X restore 214 -202 pd curve;
#N canvas 370 233 596 471 morph 0;
#X obj 212 66 demux;
#X obj 212 111 t f f f;
#X obj 176 89 t f;
#X obj 212 160 sel 0 1;
#X obj 235 137 s \$0-cmorphon;
#X obj 214 323 s \$0-face;
#X obj 302 343 sin;
#X msg 302 297 0 \, 1.5708 700;
#X obj 302 320 line 0 50;
#X obj 302 365 t f f;
#X obj 121 352 unpack f f;
#X obj 427 226 unpack f f;
#X obj 235 231 del 701;
#X obj 104 223 del 701;
#X obj 302 424 pack f f;
#X obj 302 446 s \$0-cnvmorph;
#X obj 235 206 t b b b f;
#X obj 166 417 s \$0-arrayoff;
#X obj 38 279 s \$0-cmdone;
#X obj 176 21 receive \$0-done;
#X obj 212 44 receive \$0-prop;
#X obj 427 161 receive \$0-pixsize;
#X obj 235 253 t b b b;
#X obj 77 427 s \$0-reface;
#X obj 104 201 t b b b f f f;
#X obj 302 274 s \$0-dirty;
#X obj 121 304 list 48 22;
#X obj 302 398 ctxfiles/sf 48;
#X obj 427 398 ctxfiles/sf 22;
#X msg 121 327 221 226;
#X obj 136 270 f 1;
#X obj 104 245 t b b;
#X obj 230 346 f 1;
#X obj 229 283 f 2;
#X obj 212 89 f 1;
#X obj 230 368 t f f;
#X connect 0 0 34 0;
#X connect 0 1 2 0;
#X connect 1 0 3 0;
#X connect 1 1 4 0;
#X connect 1 2 0 1;
#X connect 2 0 1 0;
#X connect 3 0 24 0;
#X connect 3 1 16 0;
#X connect 6 0 9 0;
#X connect 7 0 8 0;
#X connect 8 0 6 0;
#X connect 9 0 27 0;
#X connect 9 1 28 0;
#X connect 10 0 27 1;
#X connect 10 1 28 1;
#X connect 11 0 27 2;
#X connect 11 1 28 2;
#X connect 12 0 22 0;
#X connect 13 0 31 0;
#X connect 14 0 15 0;
#X connect 16 0 12 0;
#X connect 16 1 7 0;
#X connect 16 2 29 0;
#X connect 16 3 17 0;
#X connect 19 0 2 0;
#X connect 20 0 0 0;
#X connect 21 0 11 0;
#X connect 21 0 26 1;
#X connect 22 0 33 0;
#X connect 22 1 32 0;
#X connect 22 2 25 0;
#X connect 24 0 13 0;
#X connect 24 1 7 0;
#X connect 24 2 26 0;
#X connect 24 3 5 0;
#X connect 24 4 23 0;
#X connect 24 5 17 0;
#X connect 26 0 10 0;
#X connect 27 0 14 0;
#X connect 28 0 14 1;
#X connect 29 0 10 0;
#X connect 30 0 17 0;
#X connect 31 0 18 0;
#X connect 31 1 30 0;
#X connect 32 0 35 0;
#X connect 33 0 5 0;
#X connect 34 0 1 0;
#X connect 35 0 17 0;
#X connect 35 1 23 0;
#X restore 214 -180 pd morph;
#N canvas 347 349 538 362 clicks 0;
#X obj 117 108 del 100;
#X obj 117 130 s \$0-obang;
#X obj 45 200 unpack;
#X obj 45 222 s \$0-x-otherpos;
#X obj 84 245 s \$0-y-otherpos;
#X obj 303 251 del 100;
#X msg 303 273 stop;
#X obj 303 108 t b b;
#X msg 335 203 mouseup 0 0 1;
#X obj 335 131 demux;
#X obj 362 107 receive \$0-:ed;
#X obj 117 86 ctxfiles/ou \$0 48 22 2 my c;
#X obj 45 178 ctxfiles/dvr \$0 cpos;
#X obj 303 296 ctxfiles/dvs \$0 nostop;
#X obj 117 47 ctxfiles/dvr \$0 cclick;
#X obj 335 225 iemguts/sendcanvas 4;
#X obj 395 130 receive moveon&&u*;
#X obj 362 155 spigot;
#X obj 335 181 del;
#X connect 0 0 1 0;
#X connect 2 0 3 0;
#X connect 2 1 4 0;
#X connect 5 0 6 0;
#X connect 6 0 13 0;
#X connect 7 0 5 0;
#X connect 7 1 9 0;
#X connect 8 0 15 0;
#X connect 9 0 18 0;
#X connect 9 1 17 0;
#X connect 10 0 9 1;
#X connect 11 0 0 0;
#X connect 11 1 7 0;
#X connect 12 0 2 0;
#X connect 14 0 11 0;
#X connect 16 0 17 1;
#X connect 17 0 18 0;
#X connect 18 0 8 0;
#X restore 214 -246 pd clicks;
#N canvas 65 93 450 300 print 0;
#X obj 216 100 receive \$0-myname;
#X obj 135 144 list prepend;
#X obj 216 122 list append :;
#X obj 135 73 receive \$0-printyou;
#X obj 135 188 print -n;
#X obj 135 166 list trim;
#X connect 0 0 2 0;
#X connect 1 0 5 0;
#X connect 2 0 1 1;
#X connect 3 0 1 0;
#X connect 5 0 4 0;
#X restore 214 -269 pd print;
#N canvas 469 211 510 392 canvas 0;
#N canvas 282 178 1011 548 c-movement 0;
#X obj 331 -7 inlet height;
#X obj 256 -9 inlet;
#X obj 183 411 pack f f;
#X obj 235 352 iemguts/canvasindex 2;
#X obj 376 442 s \$0-arrsize;
#X msg 786 413 vis_size \$1 \$2;
#X obj 843 368 - 1;
#X obj 786 390 pack 61 15;
#X obj 786 368 - 1;
#X obj 240 283 loadbang;
#X obj 306 233 -;
#X obj 297 285 moses 1;
#X obj 256 21 demux 0 1 2 3;
#N canvas 625 161 606 528 protector 0;
#X obj 33 238 -;
#X obj 14 167 t b f f;
#X obj 53 214 s \$0-xlay100;
#X obj 64 109 ctxfiles/lm \$0 x;
#X obj 313 165 -;
#X obj 367 179 t b b b;
#N canvas 547 426 579 321 plusminus 0;
#X obj 141 24 inlet;
#X obj 231 14 inlet;
#X obj 140 137 -;
#X obj 184 182 s \$0-ylay100;
#X obj 231 67 t f f;
#X obj 251 139 + 1;
#X obj 184 159 * -0.5;
#X obj 111 280 outlet;
#X obj 167 280 outlet;
#X obj 141 76 t b b f;
#X obj 94 54 inlet;
#X obj 121 104 t f f f;
#X obj 278 139 + -1;
#X obj 421 14 receive \$0-savestart;
#X obj 355 179 outlet;
#X obj 388 93 t b b f;
#X obj 296 93 t b b f;
#X obj 296 40 receive \$0-:s1;
#X obj 388 40 receive \$0-:s2;
#X obj 111 258 / 1;
#X obj 167 258 / 1;
#X obj 125 169 / 1;
#X connect 0 0 9 0;
#X connect 1 0 4 0;
#X connect 2 0 21 1;
#X connect 4 0 5 0;
#X connect 4 1 12 0;
#X connect 5 0 19 0;
#X connect 6 0 3 0;
#X connect 9 0 21 0;
#X connect 9 1 2 0;
#X connect 9 2 2 1;
#X connect 10 0 11 0;
#X connect 11 0 21 0;
#X connect 11 1 2 0;
#X connect 11 2 6 0;
#X connect 12 0 20 0;
#X connect 15 0 14 0;
#X connect 15 1 12 0;
#X connect 15 2 12 1;
#X connect 16 0 14 0;
#X connect 16 1 5 0;
#X connect 16 2 5 1;
#X connect 17 0 16 0;
#X connect 18 0 15 0;
#X connect 19 0 7 0;
#X connect 20 0 8 0;
#X connect 21 0 20 1;
#X connect 21 0 19 1;
#X restore 474 255 pd plusminus;
#X obj 434 220 t b f f;
#X obj 436 268 -;
#X obj 513 134 abs;
#X obj 14 136 inlet x;
#X obj 64 70 inlet l;
#X obj 220 86 inlet r;
#X obj 467 73 inlet top;
#X obj 434 153 inlet y;
#X obj 144 451 outlet;
#X msg 415 428 resize \$1;
#X obj 386 406 moses 1;
#X msg 386 428 1;
#X obj 415 450 send;
#X obj 313 143 swap 100;
#X obj 53 192 / 100;
#X obj 367 381 t b f f f f;
#X obj 205 198 - 1;
#X obj 144 428 spigot;
#X msg 198 446 1;
#X obj 162 241 receive \$0-arrayoff;
#X obj 220 120 ctxfiles/lm \$0 x;
#X obj 467 106 ctxfiles/lm \$0 y;
#X obj 480 406 receive \$0-name;
#X obj 198 424 receive \$0-lb2;
#X obj 162 263 t b f;
#X obj 227 446 receive \$0-nomove;
#X obj 144 392 pack 48 22 100 1 -1 0 1;
#X obj 367 357 receive \$0-size;
#X connect 0 0 33 0;
#X connect 1 0 33 0;
#X connect 1 1 0 0;
#X connect 1 2 21 0;
#X connect 3 0 0 0;
#X connect 3 1 0 1;
#X connect 3 2 23 0;
#X connect 4 0 33 2;
#X connect 5 0 33 0;
#X connect 5 2 8 0;
#X connect 6 0 33 3;
#X connect 6 1 33 4;
#X connect 6 2 33 0;
#X connect 7 0 33 0;
#X connect 7 1 8 0;
#X connect 7 2 6 0;
#X connect 8 0 33 1;
#X connect 9 0 8 1;
#X connect 9 0 6 1;
#X connect 10 0 1 0;
#X connect 11 0 3 0;
#X connect 12 0 27 0;
#X connect 13 0 28 0;
#X connect 14 0 7 0;
#X connect 16 0 19 0;
#X connect 17 0 18 0;
#X connect 17 1 33 2;
#X connect 18 0 33 2;
#X connect 20 0 4 0;
#X connect 20 1 4 1;
#X connect 21 0 2 0;
#X connect 22 0 33 0;
#X connect 22 1 17 0;
#X connect 22 2 16 0;
#X connect 22 3 20 1;
#X connect 22 4 21 1;
#X connect 23 0 33 5;
#X connect 24 0 15 0;
#X connect 25 0 24 1;
#X connect 26 0 31 0;
#X connect 27 0 0 0;
#X connect 27 1 0 1;
#X connect 27 2 20 0;
#X connect 28 0 5 0;
#X connect 28 1 9 0;
#X connect 28 2 6 2;
#X connect 29 0 19 1;
#X connect 30 0 25 0;
#X connect 31 0 33 0;
#X connect 31 1 33 6;
#X connect 32 0 24 1;
#X connect 33 0 24 0;
#X connect 34 0 22 0;
#X restore 376 328 pd protector;
#X obj 316 76 -;
#X obj 251 165 t f;
#X obj 119 140 t b f;
#X obj 307 199 t f f f;
#X obj 197 293 t b f;
#X msg 559 138 0;
#X obj 521 363 list split 2;
#X obj 786 344 unpack f f;
#X obj 200 140 t f f f b;
#X obj 234 208 +;
#X obj 389 192 +;
#X obj 608 161 * -1;
#X obj 281 168 t b f;
#X obj 362 169 t f f;
#X obj 281 44 t f f;
#X obj 331 44 t f f;
#X obj 316 98 moses 1;
#X obj 524 449 s \$0-pixsize;
#X obj 557 57 unpack;
#X obj 76 307 unpack;
#X obj 355 120 t f f f;
#X obj 637 262 receive \$0-cnvmorph;
#X msg 376 418 coords \$6 \$4 \$3 \$5 \$1 \$2 \$7 0 0;
#X obj 521 385 t b a a a;
#X msg 417 469 dirty 0;
#X msg 457 493 donecanvasdialog 0 0 2 1 -1 1 1 \$1 \$2 0 3;
#X obj 498 470 receive \$0-dirty;
#X obj 351 494 receive \$0-com;
#X obj 376 351 demux;
#X obj 469 328 receive \$0-reface;
#X text 545 216 xfrom yfrom xto yto xsize ysize GOP xmargin ymargin
;
#X obj 457 516 iemguts/sendcanvas 2;
#X obj 182 525 iemguts/canvasobjectposition 3;
#X obj 786 437 s \$0-block3;
#X obj 76 285 receive \$0-mypos;
#X msg 297 397 coords \$6 \$4 \$3 \$5 221 76 \$7 0 0;
#X obj 169 227 change;
#X obj 233 258 change;
#X obj 164 322 t f b;
#X obj 648 65 t b b;
#X obj 590 82 t f f f;
#X obj 541 80 t f f f;
#X obj 345 259 - 48;
#X obj 345 234 max 48;
#X obj 608 139 - 36;
#X obj 563 116 moses 36;
#X obj 119 116 ctxfiles/mp 47;
#X obj 281 146 ctxfiles/mp 35;
#X obj 240 305 spigot 1;
#X obj 240 327 t b f;
#X obj 557 15 ctxfiles/dvr \$0 cursorsz;
#X obj 648 87 ctxfiles/dv \$0 xszz;
#X obj 675 110 ctxfiles/dv \$0 yszz;
#X obj 648 43 receive \$0-lb1;
#X connect 0 0 12 1;
#X connect 1 0 12 0;
#X connect 2 0 46 0;
#X connect 3 0 46 1;
#X connect 5 0 47 0;
#X connect 6 0 7 1;
#X connect 7 0 5 0;
#X connect 8 0 7 0;
#X connect 9 0 62 0;
#X connect 10 0 11 0;
#X connect 10 0 23 1;
#X connect 10 0 60 1;
#X connect 11 1 13 0;
#X connect 12 0 60 0;
#X connect 12 1 28 0;
#X connect 12 2 17 0;
#X connect 12 3 29 0;
#X connect 13 0 42 0;
#X connect 14 0 30 0;
#X connect 15 0 13 1;
#X connect 16 0 52 0;
#X connect 16 1 13 1;
#X connect 17 0 10 0;
#X connect 17 2 57 0;
#X connect 18 0 2 0;
#X connect 18 1 2 1;
#X connect 19 0 13 4;
#X connect 20 0 37 0;
#X connect 21 0 8 0;
#X connect 21 1 6 0;
#X connect 22 0 50 0;
#X connect 22 1 10 1;
#X connect 22 2 23 0;
#X connect 22 3 15 0;
#X connect 23 0 57 0;
#X connect 24 0 59 0;
#X connect 25 0 13 4;
#X connect 26 0 18 0;
#X connect 26 1 13 4;
#X connect 27 0 51 0;
#X connect 27 1 24 0;
#X connect 28 0 61 0;
#X connect 28 1 14 1;
#X connect 29 0 14 0;
#X connect 29 1 59 0;
#X connect 30 1 34 0;
#X connect 32 0 55 0;
#X connect 32 1 54 0;
#X connect 33 1 2 1;
#X connect 34 0 61 1;
#X connect 34 1 24 1;
#X connect 34 2 13 3;
#X connect 35 0 39 0;
#X connect 35 0 21 0;
#X connect 36 0 4 0;
#X connect 37 0 38 0;
#X connect 37 1 21 0;
#X connect 37 2 31 0;
#X connect 37 3 39 0;
#X connect 38 0 45 0;
#X connect 39 0 45 0;
#X connect 40 0 38 0;
#X connect 41 0 45 0;
#X connect 42 0 36 0;
#X connect 42 0 20 0;
#X connect 42 1 49 0;
#X connect 43 0 42 1;
#X connect 48 0 33 0;
#X connect 49 0 4 0;
#X connect 50 0 52 0;
#X connect 51 0 18 0;
#X connect 52 0 2 0;
#X connect 52 1 3 0;
#X connect 53 0 65 0;
#X connect 53 1 66 0;
#X connect 54 0 61 2;
#X connect 54 1 59 1;
#X connect 54 2 58 1;
#X connect 55 0 60 2;
#X connect 55 1 57 1;
#X connect 55 2 56 1;
#X connect 56 0 13 2;
#X connect 57 0 56 0;
#X connect 58 0 25 0;
#X connect 59 0 19 0;
#X connect 59 1 58 0;
#X connect 60 0 16 0;
#X connect 60 1 22 0;
#X connect 61 0 26 0;
#X connect 61 1 27 0;
#X connect 62 0 63 0;
#X connect 63 0 3 0;
#X connect 63 1 62 1;
#X connect 64 0 32 0;
#X connect 65 0 55 0;
#X connect 66 0 54 0;
#X connect 67 0 53 0;
#X restore 93 216 pd c-movement;
#X text 109 267 name: the actual array name;
#X text 95 281 myname: my tag;
#X text 82 297 tname: number count;
#X text 86 315 sname: the right table to read (prepd by snamep);
#X obj 93 162 iemguts/canvasposition 1;
#X obj 93 140 receive \$0-cpr;
#X obj 68 119 receive \$0-created;
#X obj 93 190 ctxfiles/m-interface \$0 2 56 30 3 48 22;
#X connect 5 0 8 0;
#X connect 6 0 5 0;
#X connect 7 0 5 0;
#X connect 8 0 0 0;
#X connect 8 1 0 1;
#X connect 8 2 8 1;
#X restore 216 -70 pd canvas;
#N canvas 806 123 450 300 saving 0;
#X obj 129 92 receive \$0-savelist;
#X msg 129 114 click;
#X obj 129 136 text define -k \$0-save;
#A set \; %^ :lo bang \; %^ :x1 0 \; %^ :x2 0 \; %^ :y1 0 \; %^ :y2
0 \; %^ :c 17 \; %^ :s1 1 \; %^ :s2 -1 \; %^ :nm 1 \; %^ :li 0 \; %^
:br 44100 \; %^ :p1 0 \; %^ :p2 0 \; %^ :p3 0 \; %^ :p4 0 \; %^ :ed
1 \; %^ :as 1 \;;
#X obj 128 70 ctxfiles/saver \$0 lapp 3;
#X connect 0 0 1 0;
#X connect 1 0 2 0;
#X restore 215 -92 pd saving;
#X text 330 -335 start loadbang sequence;
#X text 330 -313 read and distribute creation arguments;
#X text 331 -291 interpret command prompts;
#X text 331 -269 print command;
#X text 331 -246 sense mouse clicks;
#X text 330 -224 receive line and read array;
#X text 331 -202 set curve type;
#X text 331 -180 create menu GUI morph;
#X text 331 -158 set array values;
#X text 331 -136 set array lable;
#X text 330 -114 load file into array;
#X text 330 -92 save commands to creation arguments;
#X text 329 -70 control canvas;
#X text 330 -48 set colour;
#X obj -15 -335 declare -lib zexy -path zexy -path ./;
#X connect 4 0 5 0;
#X connect 6 0 3 0;
#X connect 7 0 9 0;
#X connect 13 0 5 0;
#X connect 15 0 16 0;
#X connect 17 0 7 0;
#X coords 0 -1 1 1 48 22 2 0 3;
