#N canvas 67 89 430 679 10;
#X declare -path ./;
#N canvas 67 128 721 600 load 0;
#N canvas 67 216 990 532 start 0;
#X obj 361 121 sel 0;
#X obj 375 145 f;
#X obj 446 42 text define \$0-help;
#X obj 321 45 t b b b b;
#X obj 200 68 text size \$0-help;
#X obj 289 17 bng 15 250 50 0 empty empty empty 17 7 0 10 -262144 -1
-1;
#X obj 232 113 * 0.5;
#X obj 232 135 until;
#X obj 232 157 f;
#X obj 420 212 + 1;
#X obj 232 201 * 2;
#X obj 272 256 + 1;
#X obj 272 279 text get \$0-help;
#X obj 143 272 text get \$0-help;
#X obj 291 42 t f;
#X obj 143 525 list prepend;
#X obj 232 227 t f f f f;
#X obj 143 547 list trim;
#X obj 252 413 * 15;
#X obj 292 412 * 15;
#X obj 183 118 * 15;
#X obj 292 434 + 20;
#X obj 252 435 + 10;
#X obj 518 505 list prepend;
#X obj 518 461 list append;
#X obj 232 250 +;
#X obj 298 169 t b f;
#X obj 298 191 f 1;
#X obj 298 133 sel 0;
#X obj 143 342 list prepend 0;
#X obj 143 382 route 0 1;
#X obj 272 370 list prepend 0;
#X obj 272 392 route 0 1;
#X obj 252 515 list prepend 0;
#X obj 252 537 route 0 1;
#X obj 143 569 s \$0-can;
#X obj 183 140 + 10;
#X msg 446 20 read helpfiles/docfiles/TOC.txt;
#X obj 200 90 t f f f;
#X obj 509 166 * 15;
#X obj 509 215 t f f f f, f 12;
#X obj 590 241 + 8;
#X obj 563 264 + 6;
#X obj 536 241 + 4;
#X obj 509 264 + 2;
#X obj 742 225 cnv 15 100 60 empty me empty 20 12 0 14 -262144 -66577
0;
#X obj 609 461 list prepend obj 35;
#X obj 224 559 list prepend text 35;
#X obj 252 488 t f f f;
#X obj 56 156 cnv 15 20 20 empty empty 10: -1 10 0 13 -168020 -262144
0;
#X obj 232 179 t f f;
#X obj 423 371 pack f f f 4;
#X obj 420 234 t f f f;
#X obj 443 260 sel 10;
#X obj 443 282 t f;
#X obj 361 99 iemguts/classtest;
#X obj 423 349 - 1;
#X msg 423 395 obj 10 \$1 cnv 15 21 21 empty empty empty 0 10 0 13
-1 0 0 \, obj 11 \$2 cnv 15 19 19 empty empty \$3: \$4 10 0 12 -1764
0 0 \,;
#X obj 321 23 loadbang;
#X obj 584 142 else/openfile;
#X msg 361 77 symbol else/openfile \, symbol openfile;
#X obj 592 432 list prepend -h;
#X obj 518 483 list prepend else/openfile;
#X msg 32 446 coords 0 0 1 1 390 \$1 2 0 0;
#X obj 272 325 route -space;
#X obj 272 302 list trim;
#X obj 210 383 f;
#X obj 154 406 + 10;
#X obj 210 454 + 20;
#X obj 509 189 +;
#X msg 509 311 \; \$5-cr1 vis_size 388 \$4 \; \$5-cr2 vis_size 386
\$3 \; \$5-cr3 vis_size 384 \$2 \; \$5-cr4 vis_size 382 \$1;
#X obj 509 286 pack f f f f \$0;
#X obj 272 348 t b f;
#X obj 341 347 t a b;
#X obj 368 377 f 1;
#X obj 384 279 t f f;
#X obj 143 315 spigot;
#X obj 210 407 - 15;
#X obj 461 134 t b;
#X obj 461 157 f;
#X obj 461 180 - 1;
#X obj 469 349 +;
#X obj 584 117 declare -path ./;
#X obj 398 328 route 0 1;
#X obj 398 306 list prepend 0;
#X connect 0 1 1 1;
#X connect 1 0 28 0;
#X connect 1 0 29 1;
#X connect 1 0 31 1;
#X connect 1 0 33 1;
#X connect 3 0 4 0;
#X connect 3 1 1 0;
#X connect 3 2 60 0;
#X connect 3 3 37 0;
#X connect 4 0 38 0;
#X connect 5 0 14 0;
#X connect 5 0 3 0;
#X connect 6 0 7 0;
#X connect 7 0 8 0;
#X connect 8 0 50 0;
#X connect 9 0 52 0;
#X connect 10 0 16 0;
#X connect 11 0 12 0;
#X connect 12 0 65 0;
#X connect 13 0 76 0;
#X connect 14 0 8 1;
#X connect 14 0 1 1;
#X connect 15 0 17 0;
#X connect 16 0 25 0;
#X connect 16 1 18 0;
#X connect 16 2 11 0;
#X connect 16 3 19 0;
#X connect 17 0 35 0;
#X connect 18 0 22 0;
#X connect 19 0 21 0;
#X connect 20 0 36 0;
#X connect 21 0 47 0;
#X connect 22 0 48 0;
#X connect 23 0 17 0;
#X connect 24 0 62 0;
#X connect 25 0 13 0;
#X connect 26 0 27 0;
#X connect 26 1 11 1;
#X connect 27 0 25 1;
#X connect 28 0 26 0;
#X connect 29 0 30 0;
#X connect 30 0 15 0;
#X connect 30 1 24 0;
#X connect 31 0 32 0;
#X connect 32 0 15 0;
#X connect 32 1 61 0;
#X connect 33 0 34 0;
#X connect 34 0 47 0;
#X connect 34 1 46 0;
#X connect 36 0 63 0;
#X connect 37 0 2 0;
#X connect 38 0 20 0;
#X connect 38 1 39 0;
#X connect 38 2 6 0;
#X connect 39 0 69 0;
#X connect 40 0 44 0;
#X connect 40 1 43 0;
#X connect 40 2 42 0;
#X connect 40 3 41 0;
#X connect 41 0 71 3;
#X connect 42 0 71 2;
#X connect 43 0 71 1;
#X connect 44 0 71 0;
#X connect 46 0 23 1;
#X connect 47 0 15 1;
#X connect 48 0 33 0;
#X connect 48 1 84 0;
#X connect 48 2 51 1;
#X connect 50 0 10 0;
#X connect 50 1 9 0;
#X connect 51 0 57 0;
#X connect 52 0 81 0;
#X connect 52 1 53 0;
#X connect 52 2 8 1;
#X connect 53 0 54 0;
#X connect 54 0 51 3;
#X connect 55 0 0 0;
#X connect 56 0 51 0;
#X connect 57 0 35 0;
#X connect 58 0 3 0;
#X connect 60 0 55 0;
#X connect 61 0 24 1;
#X connect 62 0 23 0;
#X connect 63 0 35 0;
#X connect 64 0 72 0;
#X connect 64 1 73 0;
#X connect 65 0 64 0;
#X connect 66 0 77 0;
#X connect 67 0 22 1;
#X connect 67 0 36 1;
#X connect 68 0 21 1;
#X connect 69 0 40 0;
#X connect 71 0 70 0;
#X connect 72 0 66 0;
#X connect 72 1 75 0;
#X connect 73 0 31 0;
#X connect 73 1 74 0;
#X connect 74 0 75 0;
#X connect 75 0 76 1;
#X connect 75 1 84 1;
#X connect 76 0 29 0;
#X connect 77 0 67 0;
#X connect 77 0 68 0;
#X connect 77 0 69 1;
#X connect 77 0 66 1;
#X connect 78 0 79 0;
#X connect 79 0 80 0;
#X connect 80 0 79 1;
#X connect 80 0 81 1;
#X connect 81 0 51 2;
#X connect 83 0 78 0;
#X connect 83 1 56 0;
#X connect 84 0 83 0;
#X restore 516 16 pd start;
#X obj 581 16 namecanvas \$0-can;
#X obj 1 1 cnv 15 388 23 empty \$0-cr1 empty 6 28 0 60 -241291 -1 1
;
#X obj 2 2 cnv 15 386 21 empty \$0-cr2 empty 6 28 0 60 -258699 -1 1
;
#X obj 3 3 cnv 15 384 19 empty \$0-cr3 empty 6 28 0 60 -1 -1 1;
#X obj 4 4 cnv 15 382 17 empty \$0-cr4 empty 6 28 0 60 -262144 -1 1
;
#X coords 0 600 1 599 450 520 0;
#X restore 12 95 pd load;
#N canvas 508 89 591 679 title 0;
#X obj 200 -13 del 400;
#X obj 114 37 bng 15 250 50 0 empty empty empty 17 7 0 10 -262144 -1
-1;
#X obj 114 57 t b f;
#X obj 200 154 line 0 1;
#X msg 200 199 \; \$2-\$1-c color \$3;
#X obj 200 109 t b b;
#X obj 274 153 * -1;
#X obj 274 132 random 1e+08;
#X obj 87 223 f \$0;
#X obj 87 201 del 600;
#X obj 79 156 bng 15 250 50 0 empty empty empty 17 7 0 10 -262144 -1
-1;
#X obj 200 177 pack f \$0 0;
#X obj 55 78 bng 15 250 50 0 empty empty reset 17 7 0 10 -262144 -1
-1;
#X obj 55 98 t b b f f;
#X obj -42 -25 f \$0;
#X obj 200 31 ==;
#X obj 200 53 t f f;
#X obj 200 75 sel 1 0;
#X msg 200 132 0 \, 521 521;
#X obj 356 39 line 0 4;
#X obj 356 61 pack f \$0;
#X obj 338 392 unpack f f f;
#X obj 338 444 t f b f;
#X obj 361 494 f 404;
#X obj 361 528 pack f f \$0;
#X obj 384 468 pack f f \$0;
#X msg 361 582 \$3-\$1-c color \$2 \; \$3-\$1-c color \$2;
#X obj 277 -14 bng 15 250 50 0 empty empty empty 17 7 0 10 -262144
-1 -1;
#X obj 200 9 metro 30000;
#X obj 338 414 sel 0;
#X obj 421 445 * 64;
#X msg 87 245 \; \$1-ba color -1 -1 -1 \; \$1-cu color -1 \; \$1-cw
color 0 0 -1;
#X msg -42 -3 \; \$1-ba color 0 0 0 \; \$1-cu color 0 \; \$1-cw color
0 0 0;
#X floatatom 313 63 5 0 0 0 - - -, f 5;
#X obj 200 -35 loadbang;
#X obj 338 199 route 0 1 2 3 4 5 6 7;
#X obj 338 175 list prepend 0;
#X msg 356 17 10 \, 400 1560;
#X msg 356 83 \; \$2-cu pos \$1 10;
#X obj 351 134 sel 46;
#X msg 482 377 0 46 0;
#X msg 338 222 421 94 1;
#X msg 358 244 439 134 2;
#X msg 379 266 474 194 3;
#X msg 399 288 517 238 4;
#X msg 420 310 62 286 5;
#X msg 440 332 152 350 6;
#X msg 461 354 342 400 7;
#X connect 0 0 9 0;
#X connect 0 0 28 0;
#X connect 1 0 2 0;
#X connect 2 0 5 0;
#X connect 3 0 11 0;
#X connect 5 0 18 0;
#X connect 5 1 7 0;
#X connect 6 0 11 2;
#X connect 6 0 24 1;
#X connect 6 0 30 0;
#X connect 7 0 6 0;
#X connect 8 0 31 0;
#X connect 9 0 8 0;
#X connect 10 0 9 0;
#X connect 11 0 4 0;
#X connect 12 0 13 0;
#X connect 13 0 14 0;
#X connect 13 1 18 0;
#X connect 13 2 3 0;
#X connect 13 3 11 2;
#X connect 14 0 32 0;
#X connect 15 0 16 0;
#X connect 16 0 17 0;
#X connect 16 1 15 1;
#X connect 17 0 5 0;
#X connect 17 1 37 0;
#X connect 18 0 3 0;
#X connect 19 0 20 0;
#X connect 19 0 39 0;
#X connect 20 0 38 0;
#X connect 21 0 29 0;
#X connect 21 1 39 1;
#X connect 21 2 36 1;
#X connect 22 0 23 1;
#X connect 22 1 23 0;
#X connect 22 2 25 0;
#X connect 23 0 24 0;
#X connect 24 0 26 0;
#X connect 25 0 26 0;
#X connect 27 0 28 0;
#X connect 28 0 15 0;
#X connect 29 0 23 0;
#X connect 29 1 22 0;
#X connect 30 0 25 1;
#X connect 33 0 20 0;
#X connect 34 0 0 0;
#X connect 35 0 41 0;
#X connect 35 1 42 0;
#X connect 35 2 43 0;
#X connect 35 3 44 0;
#X connect 35 4 45 0;
#X connect 35 5 46 0;
#X connect 35 6 47 0;
#X connect 35 7 40 0;
#X connect 36 0 35 0;
#X connect 37 0 19 0;
#X connect 39 0 36 0;
#X connect 40 0 21 0;
#X connect 41 0 21 0;
#X connect 42 0 21 0;
#X connect 43 0 21 0;
#X connect 44 0 21 0;
#X connect 45 0 21 0;
#X connect 46 0 21 0;
#X connect 47 0 21 0;
#X restore 253 39 pd title;
#X obj 12 5 cnv 15 390 85 empty \$0-ba empty 160 100 0 14 -262144 -262144
0;
#X obj 15 8 cnv 15 384 79 empty empty empty 20 12 0 14 -262144 -66577
0;
#X obj 17 10 cnv 15 380 75 empty \$0-ba empty 20 12 0 14 -262144 -262144
0;
#X obj 18 11 cnv 15 378 73 empty \$0-cw an advanced sequencer for pd          version 4.0
15 65 0 11 -262144 -262144 0;
#X obj 46 19 cnv 2 2 2 empty \$0-144-c empty 20 12 0 14 -262144 -262144
0;
#X obj 50 19 cnv 2 2 2 empty \$0-22-c empty 20 12 0 14 -262144 -262144
0;
#X obj 54 19 cnv 2 2 2 empty \$0-129-c empty 20 12 0 14 -262144 -262144
0;
#X obj 58 19 cnv 2 2 2 empty \$0-408-c empty 20 12 0 14 -262144 -262144
0;
#X obj 66 19 cnv 2 2 2 empty \$0-510-c empty 20 12 0 14 -262144 -262144
0;
#X obj 70 19 cnv 2 2 2 empty \$0-501-c empty 20 12 0 14 -262144 -262144
0;
#X obj 94 19 cnv 2 2 2 empty \$0-115-c empty 20 12 0 14 -262144 -262144
0;
#X obj 98 19 cnv 2 2 2 empty \$0-114-c empty 20 12 0 14 -262144 -262144
0;
#X obj 102 19 cnv 2 2 2 empty \$0-76-c empty 20 12 0 14 -262144 -262144
0;
#X obj 106 19 cnv 2 2 2 empty \$0-462-c empty 20 12 0 14 -262144 -262144
0;
#X obj 110 19 cnv 2 2 2 empty \$0-185-c empty 20 12 0 14 -262144 -262144
0;
#X obj 134 19 cnv 2 2 2 empty \$0-244-c empty 20 12 0 14 -262144 -262144
0;
#X obj 138 19 cnv 2 2 2 empty \$0-472-c empty 20 12 0 14 -262144 -262144
0;
#X obj 142 19 cnv 2 2 2 empty \$0-365-c empty 20 12 0 14 -262144 -262144
0;
#X obj 158 19 cnv 2 2 2 empty \$0-310-c empty 20 12 0 14 -262144 -262144
0;
#X obj 162 19 cnv 2 2 2 empty \$0-416-c empty 20 12 0 14 -262144 -262144
0;
#X obj 166 19 cnv 2 2 2 empty \$0-8-c empty 20 12 0 14 -262144 -262144
0;
#X obj 170 19 cnv 2 2 2 empty \$0-16-c empty 20 12 0 14 -262144 -262144
0;
#X obj 174 19 cnv 2 2 2 empty \$0-201-c empty 20 12 0 14 -262144 -262144
0;
#X obj 186 19 cnv 2 2 2 empty \$0-339-c empty 20 12 0 14 -262144 -262144
0;
#X obj 190 19 cnv 2 2 2 empty \$0-361-c empty 20 12 0 14 -262144 -262144
0;
#X obj 194 19 cnv 2 2 2 empty \$0-77-c empty 20 12 0 14 -262144 -262144
0;
#X obj 198 19 cnv 2 2 2 empty \$0-438-c empty 20 12 0 14 -262144 -262144
0;
#X obj 202 19 cnv 2 2 2 empty \$0-128-c empty 20 12 0 14 -262144 -262144
0;
#X obj 206 19 cnv 2 2 2 empty \$0-126-c empty 20 12 0 14 -262144 -262144
0;
#X obj 210 19 cnv 2 2 2 empty \$0-10-c empty 20 12 0 14 -262144 -262144
0;
#X obj 214 19 cnv 2 2 2 empty \$0-311-c empty 20 12 0 14 -262144 -262144
0;
#X obj 218 19 cnv 2 2 2 empty \$0-45-c empty 20 12 0 14 -262144 -262144
0;
#X obj 222 19 cnv 2 2 2 empty \$0-95-c empty 20 12 0 14 -262144 -262144
0;
#X obj 226 19 cnv 2 2 2 empty \$0-256-c empty 20 12 0 14 -262144 -262144
0;
#X obj 238 19 cnv 2 2 2 empty \$0-54-c empty 20 12 0 14 -262144 -262144
0;
#X obj 242 19 cnv 2 2 2 empty \$0-150-c empty 20 12 0 14 -262144 -262144
0;
#X obj 246 19 cnv 2 2 2 empty \$0-242-c empty 20 12 0 14 -262144 -262144
0;
#X obj 250 19 cnv 2 2 2 empty \$0-384-c empty 20 12 0 14 -262144 -262144
0;
#X obj 254 19 cnv 2 2 2 empty \$0-210-c empty 20 12 0 14 -262144 -262144
0;
#X obj 258 19 cnv 2 2 2 empty \$0-308-c empty 20 12 0 14 -262144 -262144
0;
#X obj 262 19 cnv 2 2 2 empty \$0-88-c empty 20 12 0 14 -262144 -262144
0;
#X obj 266 19 cnv 2 2 2 empty \$0-371-c empty 20 12 0 14 -262144 -262144
0;
#X obj 270 19 cnv 2 2 2 empty \$0-521-c empty 20 12 0 14 -262144 -262144
0;
#X obj 274 19 cnv 2 2 2 empty \$0-192-c empty 20 12 0 14 -262144 -262144
0;
#X obj 278 19 cnv 2 2 2 empty \$0-209-c empty 20 12 0 14 -262144 -262144
0;
#X obj 286 19 cnv 2 2 2 empty \$0-444-c empty 20 12 0 14 -262144 -262144
0;
#X obj 290 19 cnv 2 2 2 empty \$0-276-c empty 20 12 0 14 -262144 -262144
0;
#X obj 294 19 cnv 2 2 2 empty \$0-374-c empty 20 12 0 14 -262144 -262144
0;
#X obj 298 19 cnv 2 2 2 empty \$0-380-c empty 20 12 0 14 -262144 -262144
0;
#X obj 302 19 cnv 2 2 2 empty \$0-353-c empty 20 12 0 14 -262144 -262144
0;
#X obj 318 19 cnv 2 2 2 empty \$0-154-c empty 20 12 0 14 -262144 -262144
0;
#X obj 322 19 cnv 2 2 2 empty \$0-368-c empty 20 12 0 14 -262144 -262144
0;
#X obj 326 19 cnv 2 2 2 empty \$0-457-c empty 20 12 0 14 -262144 -262144
0;
#X obj 330 19 cnv 2 2 2 empty \$0-98-c empty 20 12 0 14 -262144 -262144
0;
#X obj 334 19 cnv 2 2 2 empty \$0-197-c empty 20 12 0 14 -262144 -262144
0;
#X obj 342 19 cnv 2 2 2 empty \$0-249-c empty 20 12 0 14 -262144 -262144
0;
#X obj 346 19 cnv 2 2 2 empty \$0-452-c empty 20 12 0 14 -262144 -262144
0;
#X obj 350 19 cnv 2 2 2 empty \$0-275-c empty 20 12 0 14 -262144 -262144
0;
#X obj 354 19 cnv 2 2 2 empty \$0-497-c empty 20 12 0 14 -262144 -262144
0;
#X obj 358 19 cnv 2 2 2 empty \$0-496-c empty 20 12 0 14 -262144 -262144
0;
#X obj 362 19 cnv 2 2 2 empty \$0-392-c empty 20 12 0 14 -262144 -262144
0;
#X obj 366 19 cnv 2 2 2 empty \$0-318-c empty 20 12 0 14 -262144 -262144
0;
#X obj 370 19 cnv 2 2 2 empty \$0-354-c empty 20 12 0 14 -262144 -262144
0;
#X obj 374 19 cnv 2 2 2 empty \$0-294-c empty 20 12 0 14 -262144 -262144
0;
#X obj 378 19 cnv 2 2 2 empty \$0-455-c empty 20 12 0 14 -262144 -262144
0;
#X obj 382 19 cnv 2 2 2 empty \$0-179-c empty 20 12 0 14 -262144 -262144
0;
#X obj 38 23 cnv 2 2 2 empty \$0-296-c empty 20 12 0 14 -262144 -262144
0;
#X obj 42 23 cnv 2 2 2 empty \$0-159-c empty 20 12 0 14 -262144 -262144
0;
#X obj 46 23 cnv 2 2 2 empty \$0-355-c empty 20 12 0 14 -262144 -262144
0;
#X obj 50 23 cnv 2 2 2 empty \$0-193-c empty 20 12 0 14 -262144 -262144
0;
#X obj 54 23 cnv 2 2 2 empty \$0-465-c empty 20 12 0 14 -262144 -262144
0;
#X obj 58 23 cnv 2 2 2 empty \$0-1-c empty 20 12 0 14 -262144 -262144
0;
#X obj 62 23 cnv 2 2 2 empty \$0-519-c empty 20 12 0 14 -262144 -262144
0;
#X obj 66 23 cnv 2 2 2 empty \$0-341-c empty 20 12 0 14 -262144 -262144
0;
#X obj 70 23 cnv 2 2 2 empty \$0-57-c empty 20 12 0 14 -262144 -262144
0;
#X obj 86 23 cnv 2 2 2 empty \$0-470-c empty 20 12 0 14 -262144 -262144
0;
#X obj 90 23 cnv 2 2 2 empty \$0-475-c empty 20 12 0 14 -262144 -262144
0;
#X obj 94 23 cnv 2 2 2 empty \$0-27-c empty 20 12 0 14 -262144 -262144
0;
#X obj 98 23 cnv 2 2 2 empty \$0-30-c empty 20 12 0 14 -262144 -262144
0;
#X obj 102 23 cnv 2 2 2 empty \$0-303-c empty 20 12 0 14 -262144 -262144
0;
#X obj 106 23 cnv 2 2 2 empty \$0-124-c empty 20 12 0 14 -262144 -262144
0;
#X obj 110 23 cnv 2 2 2 empty \$0-346-c empty 20 12 0 14 -262144 -262144
0;
#X obj 114 23 cnv 2 2 2 empty \$0-32-c empty 20 12 0 14 -262144 -262144
0;
#X obj 118 23 cnv 2 2 2 empty \$0-473-c empty 20 12 0 14 -262144 -262144
0;
#X obj 134 23 cnv 2 2 2 empty \$0-87-c empty 20 12 0 14 -262144 -262144
0;
#X obj 138 23 cnv 2 2 2 empty \$0-217-c empty 20 12 0 14 -262144 -262144
0;
#X obj 142 23 cnv 2 2 2 empty \$0-267-c empty 20 12 0 14 -262144 -262144
0;
#X obj 146 23 cnv 2 2 2 empty \$0-413-c empty 20 12 0 14 -262144 -262144
0;
#X obj 162 23 cnv 2 2 2 empty \$0-212-c empty 20 12 0 14 -262144 -262144
0;
#X obj 166 23 cnv 2 2 2 empty \$0-130-c empty 20 12 0 14 -262144 -262144
0;
#X obj 170 23 cnv 2 2 2 empty \$0-107-c empty 20 12 0 14 -262144 -262144
0;
#X obj 174 23 cnv 2 2 2 empty \$0-170-c empty 20 12 0 14 -262144 -262144
0;
#X obj 186 23 cnv 2 2 2 empty \$0-469-c empty 20 12 0 14 -262144 -262144
0;
#X obj 190 23 cnv 2 2 2 empty \$0-301-c empty 20 12 0 14 -262144 -262144
0;
#X obj 194 23 cnv 2 2 2 empty \$0-386-c empty 20 12 0 14 -262144 -262144
0;
#X obj 198 23 cnv 2 2 2 empty \$0-509-c empty 20 12 0 14 -262144 -262144
0;
#X obj 202 23 cnv 2 2 2 empty \$0-448-c empty 20 12 0 14 -262144 -262144
0;
#X obj 206 23 cnv 2 2 2 empty \$0-4-c empty 20 12 0 14 -262144 -262144
0;
#X obj 210 23 cnv 2 2 2 empty \$0-156-c empty 20 12 0 14 -262144 -262144
0;
#X obj 214 23 cnv 2 2 2 empty \$0-330-c empty 20 12 0 14 -262144 -262144
0;
#X obj 218 23 cnv 2 2 2 empty \$0-403-c empty 20 12 0 14 -262144 -262144
0;
#X obj 222 23 cnv 2 2 2 empty \$0-69-c empty 20 12 0 14 -262144 -262144
0;
#X obj 226 23 cnv 2 2 2 empty \$0-290-c empty 20 12 0 14 -262144 -262144
0;
#X obj 238 23 cnv 2 2 2 empty \$0-362-c empty 20 12 0 14 -262144 -262144
0;
#X obj 242 23 cnv 2 2 2 empty \$0-109-c empty 20 12 0 14 -262144 -262144
0;
#X obj 246 23 cnv 2 2 2 empty \$0-405-c empty 20 12 0 14 -262144 -262144
0;
#X obj 250 23 cnv 2 2 2 empty \$0-26-c empty 20 12 0 14 -262144 -262144
0;
#X obj 254 23 cnv 2 2 2 empty \$0-224-c empty 20 12 0 14 -262144 -262144
0;
#X obj 258 23 cnv 2 2 2 empty \$0-304-c empty 20 12 0 14 -262144 -262144
0;
#X obj 262 23 cnv 2 2 2 empty \$0-139-c empty 20 12 0 14 -262144 -262144
0;
#X obj 266 23 cnv 2 2 2 empty \$0-72-c empty 20 12 0 14 -262144 -262144
0;
#X obj 270 23 cnv 2 2 2 empty \$0-293-c empty 20 12 0 14 -262144 -262144
0;
#X obj 274 23 cnv 2 2 2 empty \$0-511-c empty 20 12 0 14 -262144 -262144
0;
#X obj 278 23 cnv 2 2 2 empty \$0-493-c empty 20 12 0 14 -262144 -262144
0;
#X obj 286 23 cnv 2 2 2 empty \$0-226-c empty 20 12 0 14 -262144 -262144
0;
#X obj 290 23 cnv 2 2 2 empty \$0-351-c empty 20 12 0 14 -262144 -262144
0;
#X obj 294 23 cnv 2 2 2 empty \$0-300-c empty 20 12 0 14 -262144 -262144
0;
#X obj 298 23 cnv 2 2 2 empty \$0-379-c empty 20 12 0 14 -262144 -262144
0;
#X obj 302 23 cnv 2 2 2 empty \$0-429-c empty 20 12 0 14 -262144 -262144
0;
#X obj 318 23 cnv 2 2 2 empty \$0-451-c empty 20 12 0 14 -262144 -262144
0;
#X obj 322 23 cnv 2 2 2 empty \$0-178-c empty 20 12 0 14 -262144 -262144
0;
#X obj 326 23 cnv 2 2 2 empty \$0-422-c empty 20 12 0 14 -262144 -262144
0;
#X obj 330 23 cnv 2 2 2 empty \$0-183-c empty 20 12 0 14 -262144 -262144
0;
#X obj 334 23 cnv 2 2 2 empty \$0-60-c empty 20 12 0 14 -262144 -262144
0;
#X obj 342 23 cnv 2 2 2 empty \$0-245-c empty 20 12 0 14 -262144 -262144
0;
#X obj 346 23 cnv 2 2 2 empty \$0-9-c empty 20 12 0 14 -262144 -262144
0;
#X obj 350 23 cnv 2 2 2 empty \$0-309-c empty 20 12 0 14 -262144 -262144
0;
#X obj 354 23 cnv 2 2 2 empty \$0-243-c empty 20 12 0 14 -262144 -262144
0;
#X obj 358 23 cnv 2 2 2 empty \$0-297-c empty 20 12 0 14 -262144 -262144
0;
#X obj 362 23 cnv 2 2 2 empty \$0-103-c empty 20 12 0 14 -262144 -262144
0;
#X obj 366 23 cnv 2 2 2 empty \$0-282-c empty 20 12 0 14 -262144 -262144
0;
#X obj 370 23 cnv 2 2 2 empty \$0-222-c empty 20 12 0 14 -262144 -262144
0;
#X obj 374 23 cnv 2 2 2 empty \$0-461-c empty 20 12 0 14 -262144 -262144
0;
#X obj 378 23 cnv 2 2 2 empty \$0-302-c empty 20 12 0 14 -262144 -262144
0;
#X obj 382 23 cnv 2 2 2 empty \$0-265-c empty 20 12 0 14 -262144 -262144
0;
#X obj 34 27 cnv 2 2 2 empty \$0-383-c empty 20 12 0 14 -262144 -262144
0;
#X obj 38 27 cnv 2 2 2 empty \$0-270-c empty 20 12 0 14 -262144 -262144
0;
#X obj 42 27 cnv 2 2 2 empty \$0-506-c empty 20 12 0 14 -262144 -262144
0;
#X obj 46 27 cnv 2 2 2 empty \$0-53-c empty 20 12 0 14 -262144 -262144
0;
#X obj 62 27 cnv 2 2 2 empty \$0-487-c empty 20 12 0 14 -262144 -262144
0;
#X obj 66 27 cnv 2 2 2 empty \$0-409-c empty 20 12 0 14 -262144 -262144
0;
#X obj 70 27 cnv 2 2 2 empty \$0-328-c empty 20 12 0 14 -262144 -262144
0;
#X obj 86 27 cnv 2 2 2 empty \$0-261-c empty 20 12 0 14 -262144 -262144
0;
#X obj 90 27 cnv 2 2 2 empty \$0-251-c empty 20 12 0 14 -262144 -262144
0;
#X obj 94 27 cnv 2 2 2 empty \$0-188-c empty 20 12 0 14 -262144 -262144
0;
#X obj 110 27 cnv 2 2 2 empty \$0-255-c empty 20 12 0 14 -262144 -262144
0;
#X obj 114 27 cnv 2 2 2 empty \$0-228-c empty 20 12 0 14 -262144 -262144
0;
#X obj 118 27 cnv 2 2 2 empty \$0-289-c empty 20 12 0 14 -262144 -262144
0;
#X obj 122 27 cnv 2 2 2 empty \$0-441-c empty 20 12 0 14 -262144 -262144
0;
#X obj 138 27 cnv 2 2 2 empty \$0-153-c empty 20 12 0 14 -262144 -262144
0;
#X obj 142 27 cnv 2 2 2 empty \$0-194-c empty 20 12 0 14 -262144 -262144
0;
#X obj 146 27 cnv 2 2 2 empty \$0-378-c empty 20 12 0 14 -262144 -262144
0;
#X obj 150 27 cnv 2 2 2 empty \$0-28-c empty 20 12 0 14 -262144 -262144
0;
#X obj 166 27 cnv 2 2 2 empty \$0-258-c empty 20 12 0 14 -262144 -262144
0;
#X obj 170 27 cnv 2 2 2 empty \$0-325-c empty 20 12 0 14 -262144 -262144
0;
#X obj 186 27 cnv 2 2 2 empty \$0-151-c empty 20 12 0 14 -262144 -262144
0;
#X obj 190 27 cnv 2 2 2 empty \$0-97-c empty 20 12 0 14 -262144 -262144
0;
#X obj 202 27 cnv 2 2 2 empty \$0-388-c empty 20 12 0 14 -262144 -262144
0;
#X obj 206 27 cnv 2 2 2 empty \$0-171-c empty 20 12 0 14 -262144 -262144
0;
#X obj 222 27 cnv 2 2 2 empty \$0-366-c empty 20 12 0 14 -262144 -262144
0;
#X obj 226 27 cnv 2 2 2 empty \$0-427-c empty 20 12 0 14 -262144 -262144
0;
#X obj 242 27 cnv 2 2 2 empty \$0-425-c empty 20 12 0 14 -262144 -262144
0;
#X obj 246 27 cnv 2 2 2 empty \$0-86-c empty 20 12 0 14 -262144 -262144
0;
#X obj 274 27 cnv 2 2 2 empty \$0-108-c empty 20 12 0 14 -262144 -262144
0;
#X obj 278 27 cnv 2 2 2 empty \$0-104-c empty 20 12 0 14 -262144 -262144
0;
#X obj 294 27 cnv 2 2 2 empty \$0-12-c empty 20 12 0 14 -262144 -262144
0;
#X obj 298 27 cnv 2 2 2 empty \$0-268-c empty 20 12 0 14 -262144 -262144
0;
#X obj 322 27 cnv 2 2 2 empty \$0-5-c empty 20 12 0 14 -262144 -262144
0;
#X obj 326 27 cnv 2 2 2 empty \$0-274-c empty 20 12 0 14 -262144 -262144
0;
#X obj 342 27 cnv 2 2 2 empty \$0-445-c empty 20 12 0 14 -262144 -262144
0;
#X obj 346 27 cnv 2 2 2 empty \$0-486-c empty 20 12 0 14 -262144 -262144
0;
#X obj 358 27 cnv 2 2 2 empty \$0-252-c empty 20 12 0 14 -262144 -262144
0;
#X obj 362 27 cnv 2 2 2 empty \$0-187-c empty 20 12 0 14 -262144 -262144
0;
#X obj 378 27 cnv 2 2 2 empty \$0-230-c empty 20 12 0 14 -262144 -262144
0;
#X obj 382 27 cnv 2 2 2 empty \$0-288-c empty 20 12 0 14 -262144 -262144
0;
#X obj 34 31 cnv 2 2 2 empty \$0-14-c empty 20 12 0 14 -262144 -262144
0;
#X obj 38 31 cnv 2 2 2 empty \$0-3-c empty 20 12 0 14 -262144 -262144
0;
#X obj 66 31 cnv 2 2 2 empty \$0-514-c empty 20 12 0 14 -262144 -262144
0;
#X obj 70 31 cnv 2 2 2 empty \$0-412-c empty 20 12 0 14 -262144 -262144
0;
#X obj 82 31 cnv 2 2 2 empty \$0-447-c empty 20 12 0 14 -262144 -262144
0;
#X obj 86 31 cnv 2 2 2 empty \$0-101-c empty 20 12 0 14 -262144 -262144
0;
#X obj 118 31 cnv 2 2 2 empty \$0-402-c empty 20 12 0 14 -262144 -262144
0;
#X obj 122 31 cnv 2 2 2 empty \$0-312-c empty 20 12 0 14 -262144 -262144
0;
#X obj 138 31 cnv 2 2 2 empty \$0-204-c empty 20 12 0 14 -262144 -262144
0;
#X obj 142 31 cnv 2 2 2 empty \$0-63-c empty 20 12 0 14 -262144 -262144
0;
#X obj 146 31 cnv 2 2 2 empty \$0-7-c empty 20 12 0 14 -262144 -262144
0;
#X obj 150 31 cnv 2 2 2 empty \$0-81-c empty 20 12 0 14 -262144 -262144
0;
#X obj 166 31 cnv 2 2 2 empty \$0-395-c empty 20 12 0 14 -262144 -262144
0;
#X obj 170 31 cnv 2 2 2 empty \$0-287-c empty 20 12 0 14 -262144 -262144
0;
#X obj 186 31 cnv 2 2 2 empty \$0-236-c empty 20 12 0 14 -262144 -262144
0;
#X obj 190 31 cnv 2 2 2 empty \$0-250-c empty 20 12 0 14 -262144 -262144
0;
#X obj 202 31 cnv 2 2 2 empty \$0-195-c empty 20 12 0 14 -262144 -262144
0;
#X obj 206 31 cnv 2 2 2 empty \$0-415-c empty 20 12 0 14 -262144 -262144
0;
#X obj 222 31 cnv 2 2 2 empty \$0-350-c empty 20 12 0 14 -262144 -262144
0;
#X obj 226 31 cnv 2 2 2 empty \$0-440-c empty 20 12 0 14 -262144 -262144
0;
#X obj 242 31 cnv 2 2 2 empty \$0-426-c empty 20 12 0 14 -262144 -262144
0;
#X obj 246 31 cnv 2 2 2 empty \$0-96-c empty 20 12 0 14 -262144 -262144
0;
#X obj 274 31 cnv 2 2 2 empty \$0-423-c empty 20 12 0 14 -262144 -262144
0;
#X obj 278 31 cnv 2 2 2 empty \$0-456-c empty 20 12 0 14 -262144 -262144
0;
#X obj 294 31 cnv 2 2 2 empty \$0-102-c empty 20 12 0 14 -262144 -262144
0;
#X obj 298 31 cnv 2 2 2 empty \$0-39-c empty 20 12 0 14 -262144 -262144
0;
#X obj 302 31 cnv 2 2 2 empty \$0-495-c empty 20 12 0 14 -262144 -262144
0;
#X obj 318 31 cnv 2 2 2 empty \$0-491-c empty 20 12 0 14 -262144 -262144
0;
#X obj 322 31 cnv 2 2 2 empty \$0-134-c empty 20 12 0 14 -262144 -262144
0;
#X obj 326 31 cnv 2 2 2 empty \$0-485-c empty 20 12 0 14 -262144 -262144
0;
#X obj 342 31 cnv 2 2 2 empty \$0-480-c empty 20 12 0 14 -262144 -262144
0;
#X obj 346 31 cnv 2 2 2 empty \$0-6-c empty 20 12 0 14 -262144 -262144
0;
#X obj 358 31 cnv 2 2 2 empty \$0-118-c empty 20 12 0 14 -262144 -262144
0;
#X obj 362 31 cnv 2 2 2 empty \$0-321-c empty 20 12 0 14 -262144 -262144
0;
#X obj 378 31 cnv 2 2 2 empty \$0-518-c empty 20 12 0 14 -262144 -262144
0;
#X obj 382 31 cnv 2 2 2 empty \$0-329-c empty 20 12 0 14 -262144 -262144
0;
#X obj 30 35 cnv 2 2 2 empty \$0-363-c empty 20 12 0 14 -262144 -262144
0;
#X obj 34 35 cnv 2 2 2 empty \$0-295-c empty 20 12 0 14 -262144 -262144
0;
#X obj 70 35 cnv 2 2 2 empty \$0-417-c empty 20 12 0 14 -262144 -262144
0;
#X obj 78 35 cnv 2 2 2 empty \$0-191-c empty 20 12 0 14 -262144 -262144
0;
#X obj 82 35 cnv 2 2 2 empty \$0-460-c empty 20 12 0 14 -262144 -262144
0;
#X obj 86 35 cnv 2 2 2 empty \$0-399-c empty 20 12 0 14 -262144 -262144
0;
#X obj 118 35 cnv 2 2 2 empty \$0-119-c empty 20 12 0 14 -262144 -262144
0;
#X obj 122 35 cnv 2 2 2 empty \$0-454-c empty 20 12 0 14 -262144 -262144
0;
#X obj 126 35 cnv 2 2 2 empty \$0-44-c empty 20 12 0 14 -262144 -262144
0;
#X obj 138 35 cnv 2 2 2 empty \$0-94-c empty 20 12 0 14 -262144 -262144
0;
#X obj 142 35 cnv 2 2 2 empty \$0-471-c empty 20 12 0 14 -262144 -262144
0;
#X obj 146 35 cnv 2 2 2 empty \$0-42-c empty 20 12 0 14 -262144 -262144
0;
#X obj 150 35 cnv 2 2 2 empty \$0-138-c empty 20 12 0 14 -262144 -262144
0;
#X obj 154 35 cnv 2 2 2 empty \$0-137-c empty 20 12 0 14 -262144 -262144
0;
#X obj 166 35 cnv 2 2 2 empty \$0-203-c empty 20 12 0 14 -262144 -262144
0;
#X obj 170 35 cnv 2 2 2 empty \$0-142-c empty 20 12 0 14 -262144 -262144
0;
#X obj 186 35 cnv 2 2 2 empty \$0-214-c empty 20 12 0 14 -262144 -262144
0;
#X obj 190 35 cnv 2 2 2 empty \$0-364-c empty 20 12 0 14 -262144 -262144
0;
#X obj 202 35 cnv 2 2 2 empty \$0-345-c empty 20 12 0 14 -262144 -262144
0;
#X obj 206 35 cnv 2 2 2 empty \$0-158-c empty 20 12 0 14 -262144 -262144
0;
#X obj 222 35 cnv 2 2 2 empty \$0-411-c empty 20 12 0 14 -262144 -262144
0;
#X obj 226 35 cnv 2 2 2 empty \$0-232-c empty 20 12 0 14 -262144 -262144
0;
#X obj 242 35 cnv 2 2 2 empty \$0-512-c empty 20 12 0 14 -262144 -262144
0;
#X obj 246 35 cnv 2 2 2 empty \$0-305-c empty 20 12 0 14 -262144 -262144
0;
#X obj 258 35 cnv 2 2 2 empty \$0-219-c empty 20 12 0 14 -262144 -262144
0;
#X obj 262 35 cnv 2 2 2 empty \$0-315-c empty 20 12 0 14 -262144 -262144
0;
#X obj 278 35 cnv 2 2 2 empty \$0-247-c empty 20 12 0 14 -262144 -262144
0;
#X obj 298 35 cnv 2 2 2 empty \$0-20-c empty 20 12 0 14 -262144 -262144
0;
#X obj 302 35 cnv 2 2 2 empty \$0-235-c empty 20 12 0 14 -262144 -262144
0;
#X obj 306 35 cnv 2 2 2 empty \$0-78-c empty 20 12 0 14 -262144 -262144
0;
#X obj 314 35 cnv 2 2 2 empty \$0-463-c empty 20 12 0 14 -262144 -262144
0;
#X obj 318 35 cnv 2 2 2 empty \$0-110-c empty 20 12 0 14 -262144 -262144
0;
#X obj 322 35 cnv 2 2 2 empty \$0-356-c empty 20 12 0 14 -262144 -262144
0;
#X obj 342 35 cnv 2 2 2 empty \$0-322-c empty 20 12 0 14 -262144 -262144
0;
#X obj 346 35 cnv 2 2 2 empty \$0-59-c empty 20 12 0 14 -262144 -262144
0;
#X obj 358 35 cnv 2 2 2 empty \$0-298-c empty 20 12 0 14 -262144 -262144
0;
#X obj 362 35 cnv 2 2 2 empty \$0-376-c empty 20 12 0 14 -262144 -262144
0;
#X obj 378 35 cnv 2 2 2 empty \$0-227-c empty 20 12 0 14 -262144 -262144
0;
#X obj 382 35 cnv 2 2 2 empty \$0-56-c empty 20 12 0 14 -262144 -262144
0;
#X obj 30 39 cnv 2 2 2 empty \$0-146-c empty 20 12 0 14 -262144 -262144
0;
#X obj 34 39 cnv 2 2 2 empty \$0-324-c empty 20 12 0 14 -262144 -262144
0;
#X obj 78 39 cnv 2 2 2 empty \$0-359-c empty 20 12 0 14 -262144 -262144
0;
#X obj 82 39 cnv 2 2 2 empty \$0-499-c empty 20 12 0 14 -262144 -262144
0;
#X obj 122 39 cnv 2 2 2 empty \$0-479-c empty 20 12 0 14 -262144 -262144
0;
#X obj 126 39 cnv 2 2 2 empty \$0-401-c empty 20 12 0 14 -262144 -262144
0;
#X obj 138 39 cnv 2 2 2 empty \$0-418-c empty 20 12 0 14 -262144 -262144
0;
#X obj 142 39 cnv 2 2 2 empty \$0-515-c empty 20 12 0 14 -262144 -262144
0;
#X obj 150 39 cnv 2 2 2 empty \$0-120-c empty 20 12 0 14 -262144 -262144
0;
#X obj 154 39 cnv 2 2 2 empty \$0-43-c empty 20 12 0 14 -262144 -262144
0;
#X obj 166 39 cnv 2 2 2 empty \$0-48-c empty 20 12 0 14 -262144 -262144
0;
#X obj 170 39 cnv 2 2 2 empty \$0-278-c empty 20 12 0 14 -262144 -262144
0;
#X obj 202 39 cnv 2 2 2 empty \$0-464-c empty 20 12 0 14 -262144 -262144
0;
#X obj 206 39 cnv 2 2 2 empty \$0-484-c empty 20 12 0 14 -262144 -262144
0;
#X obj 242 39 cnv 2 2 2 empty \$0-373-c empty 20 12 0 14 -262144 -262144
0;
#X obj 246 39 cnv 2 2 2 empty \$0-279-c empty 20 12 0 14 -262144 -262144
0;
#X obj 258 39 cnv 2 2 2 empty \$0-131-c empty 20 12 0 14 -262144 -262144
0;
#X obj 262 39 cnv 2 2 2 empty \$0-327-c empty 20 12 0 14 -262144 -262144
0;
#X obj 302 39 cnv 2 2 2 empty \$0-84-c empty 20 12 0 14 -262144 -262144
0;
#X obj 306 39 cnv 2 2 2 empty \$0-174-c empty 20 12 0 14 -262144 -262144
0;
#X obj 314 39 cnv 2 2 2 empty \$0-143-c empty 20 12 0 14 -262144 -262144
0;
#X obj 318 39 cnv 2 2 2 empty \$0-41-c empty 20 12 0 14 -262144 -262144
0;
#X obj 358 39 cnv 2 2 2 empty \$0-127-c empty 20 12 0 14 -262144 -262144
0;
#X obj 362 39 cnv 2 2 2 empty \$0-280-c empty 20 12 0 14 -262144 -262144
0;
#X obj 30 43 cnv 2 2 2 empty \$0-17-c empty 20 12 0 14 -262144 -262144
0;
#X obj 34 43 cnv 2 2 2 empty \$0-85-c empty 20 12 0 14 -262144 -262144
0;
#X obj 78 43 cnv 2 2 2 empty \$0-0-c empty 20 12 0 14 -262144 -262144
0;
#X obj 82 43 cnv 2 2 2 empty \$0-58-c empty 20 12 0 14 -262144 -262144
0;
#X obj 122 43 cnv 2 2 2 empty \$0-433-c empty 20 12 0 14 -262144 -262144
0;
#X obj 126 43 cnv 2 2 2 empty \$0-184-c empty 20 12 0 14 -262144 -262144
0;
#X obj 138 43 cnv 2 2 2 empty \$0-208-c empty 20 12 0 14 -262144 -262144
0;
#X obj 142 43 cnv 2 2 2 empty \$0-180-c empty 20 12 0 14 -262144 -262144
0;
#X obj 154 43 cnv 2 2 2 empty \$0-231-c empty 20 12 0 14 -262144 -262144
0;
#X obj 158 43 cnv 2 2 2 empty \$0-190-c empty 20 12 0 14 -262144 -262144
0;
#X obj 166 43 cnv 2 2 2 empty \$0-338-c empty 20 12 0 14 -262144 -262144
0;
#X obj 170 43 cnv 2 2 2 empty \$0-262-c empty 20 12 0 14 -262144 -262144
0;
#X obj 202 43 cnv 2 2 2 empty \$0-349-c empty 20 12 0 14 -262144 -262144
0;
#X obj 206 43 cnv 2 2 2 empty \$0-407-c empty 20 12 0 14 -262144 -262144
0;
#X obj 242 43 cnv 2 2 2 empty \$0-176-c empty 20 12 0 14 -262144 -262144
0;
#X obj 246 43 cnv 2 2 2 empty \$0-31-c empty 20 12 0 14 -262144 -262144
0;
#X obj 250 43 cnv 2 2 2 empty \$0-292-c empty 20 12 0 14 -262144 -262144
0;
#X obj 254 43 cnv 2 2 2 empty \$0-435-c empty 20 12 0 14 -262144 -262144
0;
#X obj 258 43 cnv 2 2 2 empty \$0-216-c empty 20 12 0 14 -262144 -262144
0;
#X obj 262 43 cnv 2 2 2 empty \$0-396-c empty 20 12 0 14 -262144 -262144
0;
#X obj 306 43 cnv 2 2 2 empty \$0-503-c empty 20 12 0 14 -262144 -262144
0;
#X obj 310 43 cnv 2 2 2 empty \$0-71-c empty 20 12 0 14 -262144 -262144
0;
#X obj 314 43 cnv 2 2 2 empty \$0-67-c empty 20 12 0 14 -262144 -262144
0;
#X obj 358 43 cnv 2 2 2 empty \$0-466-c empty 20 12 0 14 -262144 -262144
0;
#X obj 362 43 cnv 2 2 2 empty \$0-164-c empty 20 12 0 14 -262144 -262144
0;
#X obj 30 47 cnv 2 2 2 empty \$0-172-c empty 20 12 0 14 -262144 -262144
0;
#X obj 34 47 cnv 2 2 2 empty \$0-502-c empty 20 12 0 14 -262144 -262144
0;
#X obj 78 47 cnv 2 2 2 empty \$0-314-c empty 20 12 0 14 -262144 -262144
0;
#X obj 82 47 cnv 2 2 2 empty \$0-481-c empty 20 12 0 14 -262144 -262144
0;
#X obj 122 47 cnv 2 2 2 empty \$0-385-c empty 20 12 0 14 -262144 -262144
0;
#X obj 126 47 cnv 2 2 2 empty \$0-123-c empty 20 12 0 14 -262144 -262144
0;
#X obj 138 47 cnv 2 2 2 empty \$0-263-c empty 20 12 0 14 -262144 -262144
0;
#X obj 142 47 cnv 2 2 2 empty \$0-326-c empty 20 12 0 14 -262144 -262144
0;
#X obj 154 47 cnv 2 2 2 empty \$0-483-c empty 20 12 0 14 -262144 -262144
0;
#X obj 158 47 cnv 2 2 2 empty \$0-13-c empty 20 12 0 14 -262144 -262144
0;
#X obj 166 47 cnv 2 2 2 empty \$0-80-c empty 20 12 0 14 -262144 -262144
0;
#X obj 170 47 cnv 2 2 2 empty \$0-437-c empty 20 12 0 14 -262144 -262144
0;
#X obj 202 47 cnv 2 2 2 empty \$0-11-c empty 20 12 0 14 -262144 -262144
0;
#X obj 206 47 cnv 2 2 2 empty \$0-34-c empty 20 12 0 14 -262144 -262144
0;
#X obj 242 47 cnv 2 2 2 empty \$0-316-c empty 20 12 0 14 -262144 -262144
0;
#X obj 246 47 cnv 2 2 2 empty \$0-200-c empty 20 12 0 14 -262144 -262144
0;
#X obj 250 47 cnv 2 2 2 empty \$0-253-c empty 20 12 0 14 -262144 -262144
0;
#X obj 254 47 cnv 2 2 2 empty \$0-266-c empty 20 12 0 14 -262144 -262144
0;
#X obj 258 47 cnv 2 2 2 empty \$0-169-c empty 20 12 0 14 -262144 -262144
0;
#X obj 262 47 cnv 2 2 2 empty \$0-246-c empty 20 12 0 14 -262144 -262144
0;
#X obj 302 47 cnv 2 2 2 empty \$0-424-c empty 20 12 0 14 -262144 -262144
0;
#X obj 306 47 cnv 2 2 2 empty \$0-68-c empty 20 12 0 14 -262144 -262144
0;
#X obj 310 47 cnv 2 2 2 empty \$0-160-c empty 20 12 0 14 -262144 -262144
0;
#X obj 314 47 cnv 2 2 2 empty \$0-177-c empty 20 12 0 14 -262144 -262144
0;
#X obj 318 47 cnv 2 2 2 empty \$0-19-c empty 20 12 0 14 -262144 -262144
0;
#X obj 358 47 cnv 2 2 2 empty \$0-189-c empty 20 12 0 14 -262144 -262144
0;
#X obj 362 47 cnv 2 2 2 empty \$0-175-c empty 20 12 0 14 -262144 -262144
0;
#X obj 30 51 cnv 2 2 2 empty \$0-221-c empty 20 12 0 14 -262144 -262144
0;
#X obj 34 51 cnv 2 2 2 empty \$0-513-c empty 20 12 0 14 -262144 -262144
0;
#X obj 78 51 cnv 2 2 2 empty \$0-83-c empty 20 12 0 14 -262144 -262144
0;
#X obj 82 51 cnv 2 2 2 empty \$0-145-c empty 20 12 0 14 -262144 -262144
0;
#X obj 86 51 cnv 2 2 2 empty \$0-490-c empty 20 12 0 14 -262144 -262144
0;
#X obj 118 51 cnv 2 2 2 empty \$0-323-c empty 20 12 0 14 -262144 -262144
0;
#X obj 122 51 cnv 2 2 2 empty \$0-161-c empty 20 12 0 14 -262144 -262144
0;
#X obj 126 51 cnv 2 2 2 empty \$0-307-c empty 20 12 0 14 -262144 -262144
0;
#X obj 138 51 cnv 2 2 2 empty \$0-23-c empty 20 12 0 14 -262144 -262144
0;
#X obj 142 51 cnv 2 2 2 empty \$0-291-c empty 20 12 0 14 -262144 -262144
0;
#X obj 158 51 cnv 2 2 2 empty \$0-254-c empty 20 12 0 14 -262144 -262144
0;
#X obj 162 51 cnv 2 2 2 empty \$0-89-c empty 20 12 0 14 -262144 -262144
0;
#X obj 166 51 cnv 2 2 2 empty \$0-430-c empty 20 12 0 14 -262144 -262144
0;
#X obj 170 51 cnv 2 2 2 empty \$0-286-c empty 20 12 0 14 -262144 -262144
0;
#X obj 202 51 cnv 2 2 2 empty \$0-500-c empty 20 12 0 14 -262144 -262144
0;
#X obj 206 51 cnv 2 2 2 empty \$0-317-c empty 20 12 0 14 -262144 -262144
0;
#X obj 242 51 cnv 2 2 2 empty \$0-136-c empty 20 12 0 14 -262144 -262144
0;
#X obj 246 51 cnv 2 2 2 empty \$0-173-c empty 20 12 0 14 -262144 -262144
0;
#X obj 258 51 cnv 2 2 2 empty \$0-394-c empty 20 12 0 14 -262144 -262144
0;
#X obj 262 51 cnv 2 2 2 empty \$0-337-c empty 20 12 0 14 -262144 -262144
0;
#X obj 278 51 cnv 2 2 2 empty \$0-372-c empty 20 12 0 14 -262144 -262144
0;
#X obj 298 51 cnv 2 2 2 empty \$0-51-c empty 20 12 0 14 -262144 -262144
0;
#X obj 302 51 cnv 2 2 2 empty \$0-390-c empty 20 12 0 14 -262144 -262144
0;
#X obj 306 51 cnv 2 2 2 empty \$0-406-c empty 20 12 0 14 -262144 -262144
0;
#X obj 314 51 cnv 2 2 2 empty \$0-122-c empty 20 12 0 14 -262144 -262144
0;
#X obj 318 51 cnv 2 2 2 empty \$0-162-c empty 20 12 0 14 -262144 -262144
0;
#X obj 322 51 cnv 2 2 2 empty \$0-391-c empty 20 12 0 14 -262144 -262144
0;
#X obj 358 51 cnv 2 2 2 empty \$0-125-c empty 20 12 0 14 -262144 -262144
0;
#X obj 362 51 cnv 2 2 2 empty \$0-428-c empty 20 12 0 14 -262144 -262144
0;
#X obj 30 55 cnv 2 2 2 empty \$0-382-c empty 20 12 0 14 -262144 -262144
0;
#X obj 34 55 cnv 2 2 2 empty \$0-488-c empty 20 12 0 14 -262144 -262144
0;
#X obj 38 55 cnv 2 2 2 empty \$0-389-c empty 20 12 0 14 -262144 -262144
0;
#X obj 82 55 cnv 2 2 2 empty \$0-442-c empty 20 12 0 14 -262144 -262144
0;
#X obj 86 55 cnv 2 2 2 empty \$0-375-c empty 20 12 0 14 -262144 -262144
0;
#X obj 118 55 cnv 2 2 2 empty \$0-367-c empty 20 12 0 14 -262144 -262144
0;
#X obj 122 55 cnv 2 2 2 empty \$0-205-c empty 20 12 0 14 -262144 -262144
0;
#X obj 138 55 cnv 2 2 2 empty \$0-273-c empty 20 12 0 14 -262144 -262144
0;
#X obj 142 55 cnv 2 2 2 empty \$0-207-c empty 20 12 0 14 -262144 -262144
0;
#X obj 158 55 cnv 2 2 2 empty \$0-218-c empty 20 12 0 14 -262144 -262144
0;
#X obj 162 55 cnv 2 2 2 empty \$0-453-c empty 20 12 0 14 -262144 -262144
0;
#X obj 166 55 cnv 2 2 2 empty \$0-281-c empty 20 12 0 14 -262144 -262144
0;
#X obj 170 55 cnv 2 2 2 empty \$0-99-c empty 20 12 0 14 -262144 -262144
0;
#X obj 202 55 cnv 2 2 2 empty \$0-52-c empty 20 12 0 14 -262144 -262144
0;
#X obj 206 55 cnv 2 2 2 empty \$0-29-c empty 20 12 0 14 -262144 -262144
0;
#X obj 242 55 cnv 2 2 2 empty \$0-494-c empty 20 12 0 14 -262144 -262144
0;
#X obj 246 55 cnv 2 2 2 empty \$0-49-c empty 20 12 0 14 -262144 -262144
0;
#X obj 274 55 cnv 2 2 2 empty \$0-196-c empty 20 12 0 14 -262144 -262144
0;
#X obj 278 55 cnv 2 2 2 empty \$0-35-c empty 20 12 0 14 -262144 -262144
0;
#X obj 294 55 cnv 2 2 2 empty \$0-410-c empty 20 12 0 14 -262144 -262144
0;
#X obj 298 55 cnv 2 2 2 empty \$0-223-c empty 20 12 0 14 -262144 -262144
0;
#X obj 302 55 cnv 2 2 2 empty \$0-239-c empty 20 12 0 14 -262144 -262144
0;
#X obj 318 55 cnv 2 2 2 empty \$0-229-c empty 20 12 0 14 -262144 -262144
0;
#X obj 322 55 cnv 2 2 2 empty \$0-400-c empty 20 12 0 14 -262144 -262144
0;
#X obj 326 55 cnv 2 2 2 empty \$0-482-c empty 20 12 0 14 -262144 -262144
0;
#X obj 358 55 cnv 2 2 2 empty \$0-370-c empty 20 12 0 14 -262144 -262144
0;
#X obj 362 55 cnv 2 2 2 empty \$0-116-c empty 20 12 0 14 -262144 -262144
0;
#X obj 34 59 cnv 2 2 2 empty \$0-398-c empty 20 12 0 14 -262144 -262144
0;
#X obj 38 59 cnv 2 2 2 empty \$0-73-c empty 20 12 0 14 -262144 -262144
0;
#X obj 42 59 cnv 2 2 2 empty \$0-135-c empty 20 12 0 14 -262144 -262144
0;
#X obj 46 59 cnv 2 2 2 empty \$0-434-c empty 20 12 0 14 -262144 -262144
0;
#X obj 66 59 cnv 2 2 2 empty \$0-206-c empty 20 12 0 14 -262144 -262144
0;
#X obj 70 59 cnv 2 2 2 empty \$0-340-c empty 20 12 0 14 -262144 -262144
0;
#X obj 82 59 cnv 2 2 2 empty \$0-520-c empty 20 12 0 14 -262144 -262144
0;
#X obj 86 59 cnv 2 2 2 empty \$0-443-c empty 20 12 0 14 -262144 -262144
0;
#X obj 90 59 cnv 2 2 2 empty \$0-343-c empty 20 12 0 14 -262144 -262144
0;
#X obj 94 59 cnv 2 2 2 empty \$0-508-c empty 20 12 0 14 -262144 -262144
0;
#X obj 110 59 cnv 2 2 2 empty \$0-24-c empty 20 12 0 14 -262144 -262144
0;
#X obj 114 59 cnv 2 2 2 empty \$0-220-c empty 20 12 0 14 -262144 -262144
0;
#X obj 118 59 cnv 2 2 2 empty \$0-105-c empty 20 12 0 14 -262144 -262144
0;
#X obj 122 59 cnv 2 2 2 empty \$0-186-c empty 20 12 0 14 -262144 -262144
0;
#X obj 138 59 cnv 2 2 2 empty \$0-15-c empty 20 12 0 14 -262144 -262144
0;
#X obj 142 59 cnv 2 2 2 empty \$0-272-c empty 20 12 0 14 -262144 -262144
0;
#X obj 146 59 cnv 2 2 2 empty \$0-75-c empty 20 12 0 14 -262144 -262144
0;
#X obj 162 59 cnv 2 2 2 empty \$0-18-c empty 20 12 0 14 -262144 -262144
0;
#X obj 166 59 cnv 2 2 2 empty \$0-93-c empty 20 12 0 14 -262144 -262144
0;
#X obj 170 59 cnv 2 2 2 empty \$0-369-c empty 20 12 0 14 -262144 -262144
0;
#X obj 202 59 cnv 2 2 2 empty \$0-264-c empty 20 12 0 14 -262144 -262144
0;
#X obj 206 59 cnv 2 2 2 empty \$0-360-c empty 20 12 0 14 -262144 -262144
0;
#X obj 242 59 cnv 2 2 2 empty \$0-225-c empty 20 12 0 14 -262144 -262144
0;
#X obj 246 59 cnv 2 2 2 empty \$0-477-c empty 20 12 0 14 -262144 -262144
0;
#X obj 274 59 cnv 2 2 2 empty \$0-432-c empty 20 12 0 14 -262144 -262144
0;
#X obj 278 59 cnv 2 2 2 empty \$0-106-c empty 20 12 0 14 -262144 -262144
0;
#X obj 290 59 cnv 2 2 2 empty \$0-449-c empty 20 12 0 14 -262144 -262144
0;
#X obj 294 59 cnv 2 2 2 empty \$0-198-c empty 20 12 0 14 -262144 -262144
0;
#X obj 298 59 cnv 2 2 2 empty \$0-25-c empty 20 12 0 14 -262144 -262144
0;
#X obj 290 27 cnv 2 2 2 empty \$0-271-c empty 20 12 0 14 -262144 -262144
0;
#X obj 322 59 cnv 2 2 2 empty \$0-269-c empty 20 12 0 14 -262144 -262144
0;
#X obj 326 59 cnv 2 2 2 empty \$0-414-c empty 20 12 0 14 -262144 -262144
0;
#X obj 330 59 cnv 2 2 2 empty \$0-260-c empty 20 12 0 14 -262144 -262144
0;
#X obj 358 59 cnv 2 2 2 empty \$0-121-c empty 20 12 0 14 -262144 -262144
0;
#X obj 362 59 cnv 2 2 2 empty \$0-331-c empty 20 12 0 14 -262144 -262144
0;
#X obj 38 63 cnv 2 2 2 empty \$0-507-c empty 20 12 0 14 -262144 -262144
0;
#X obj 42 63 cnv 2 2 2 empty \$0-168-c empty 20 12 0 14 -262144 -262144
0;
#X obj 46 63 cnv 2 2 2 empty \$0-431-c empty 20 12 0 14 -262144 -262144
0;
#X obj 50 63 cnv 2 2 2 empty \$0-213-c empty 20 12 0 14 -262144 -262144
0;
#X obj 54 63 cnv 2 2 2 empty \$0-61-c empty 20 12 0 14 -262144 -262144
0;
#X obj 58 63 cnv 2 2 2 empty \$0-259-c empty 20 12 0 14 -262144 -262144
0;
#X obj 62 63 cnv 2 2 2 empty \$0-155-c empty 20 12 0 14 -262144 -262144
0;
#X obj 66 63 cnv 2 2 2 empty \$0-320-c empty 20 12 0 14 -262144 -262144
0;
#X obj 70 63 cnv 2 2 2 empty \$0-333-c empty 20 12 0 14 -262144 -262144
0;
#X obj 90 63 cnv 2 2 2 empty \$0-21-c empty 20 12 0 14 -262144 -262144
0;
#X obj 94 63 cnv 2 2 2 empty \$0-436-c empty 20 12 0 14 -262144 -262144
0;
#X obj 98 63 cnv 2 2 2 empty \$0-112-c empty 20 12 0 14 -262144 -262144
0;
#X obj 102 63 cnv 2 2 2 empty \$0-149-c empty 20 12 0 14 -262144 -262144
0;
#X obj 106 63 cnv 2 2 2 empty \$0-313-c empty 20 12 0 14 -262144 -262144
0;
#X obj 110 63 cnv 2 2 2 empty \$0-450-c empty 20 12 0 14 -262144 -262144
0;
#X obj 114 63 cnv 2 2 2 empty \$0-504-c empty 20 12 0 14 -262144 -262144
0;
#X obj 118 63 cnv 2 2 2 empty \$0-347-c empty 20 12 0 14 -262144 -262144
0;
#X obj 134 63 cnv 2 2 2 empty \$0-306-c empty 20 12 0 14 -262144 -262144
0;
#X obj 138 63 cnv 2 2 2 empty \$0-284-c empty 20 12 0 14 -262144 -262144
0;
#X obj 142 63 cnv 2 2 2 empty \$0-498-c empty 20 12 0 14 -262144 -262144
0;
#X obj 146 63 cnv 2 2 2 empty \$0-33-c empty 20 12 0 14 -262144 -262144
0;
#X obj 150 63 cnv 2 2 2 empty \$0-478-c empty 20 12 0 14 -262144 -262144
0;
#X obj 162 63 cnv 2 2 2 empty \$0-446-c empty 20 12 0 14 -262144 -262144
0;
#X obj 166 63 cnv 2 2 2 empty \$0-476-c empty 20 12 0 14 -262144 -262144
0;
#X obj 170 63 cnv 2 2 2 empty \$0-148-c empty 20 12 0 14 -262144 -262144
0;
#X obj 194 63 cnv 2 2 2 empty \$0-157-c empty 20 12 0 14 -262144 -262144
0;
#X obj 198 63 cnv 2 2 2 empty \$0-358-c empty 20 12 0 14 -262144 -262144
0;
#X obj 202 63 cnv 2 2 2 empty \$0-90-c empty 20 12 0 14 -262144 -262144
0;
#X obj 206 63 cnv 2 2 2 empty \$0-66-c empty 20 12 0 14 -262144 -262144
0;
#X obj 210 63 cnv 2 2 2 empty \$0-335-c empty 20 12 0 14 -262144 -262144
0;
#X obj 214 63 cnv 2 2 2 empty \$0-257-c empty 20 12 0 14 -262144 -262144
0;
#X obj 238 63 cnv 2 2 2 empty \$0-181-c empty 20 12 0 14 -262144 -262144
0;
#X obj 242 63 cnv 2 2 2 empty \$0-202-c empty 20 12 0 14 -262144 -262144
0;
#X obj 246 63 cnv 2 2 2 empty \$0-64-c empty 20 12 0 14 -262144 -262144
0;
#X obj 250 63 cnv 2 2 2 empty \$0-352-c empty 20 12 0 14 -262144 -262144
0;
#X obj 254 63 cnv 2 2 2 empty \$0-467-c empty 20 12 0 14 -262144 -262144
0;
#X obj 258 63 cnv 2 2 2 empty \$0-65-c empty 20 12 0 14 -262144 -262144
0;
#X obj 262 63 cnv 2 2 2 empty \$0-91-c empty 20 12 0 14 -262144 -262144
0;
#X obj 266 63 cnv 2 2 2 empty \$0-283-c empty 20 12 0 14 -262144 -262144
0;
#X obj 270 63 cnv 2 2 2 empty \$0-132-c empty 20 12 0 14 -262144 -262144
0;
#X obj 274 63 cnv 2 2 2 empty \$0-344-c empty 20 12 0 14 -262144 -262144
0;
#X obj 278 63 cnv 2 2 2 empty \$0-141-c empty 20 12 0 14 -262144 -262144
0;
#X obj 286 63 cnv 2 2 2 empty \$0-240-c empty 20 12 0 14 -262144 -262144
0;
#X obj 290 63 cnv 2 2 2 empty \$0-113-c empty 20 12 0 14 -262144 -262144
0;
#X obj 294 63 cnv 2 2 2 empty \$0-167-c empty 20 12 0 14 -262144 -262144
0;
#X obj 298 63 cnv 2 2 2 empty \$0-285-c empty 20 12 0 14 -262144 -262144
0;
#X obj 302 63 cnv 2 2 2 empty \$0-492-c empty 20 12 0 14 -262144 -262144
0;
#X obj 318 63 cnv 2 2 2 empty \$0-277-c empty 20 12 0 14 -262144 -262144
0;
#X obj 322 63 cnv 2 2 2 empty \$0-111-c empty 20 12 0 14 -262144 -262144
0;
#X obj 326 63 cnv 2 2 2 empty \$0-334-c empty 20 12 0 14 -262144 -262144
0;
#X obj 330 63 cnv 2 2 2 empty \$0-248-c empty 20 12 0 14 -262144 -262144
0;
#X obj 334 63 cnv 2 2 2 empty \$0-2-c empty 20 12 0 14 -262144 -262144
0;
#X obj 350 63 cnv 2 2 2 empty \$0-163-c empty 20 12 0 14 -262144 -262144
0;
#X obj 354 63 cnv 2 2 2 empty \$0-505-c empty 20 12 0 14 -262144 -262144
0;
#X obj 358 63 cnv 2 2 2 empty \$0-166-c empty 20 12 0 14 -262144 -262144
0;
#X obj 362 63 cnv 2 2 2 empty \$0-46-c empty 20 12 0 14 -262144 -262144
0;
#X obj 46 67 cnv 2 2 2 empty \$0-421-c empty 20 12 0 14 -262144 -262144
0;
#X obj 50 67 cnv 2 2 2 empty \$0-419-c empty 20 12 0 14 -262144 -262144
0;
#X obj 54 67 cnv 2 2 2 empty \$0-47-c empty 20 12 0 14 -262144 -262144
0;
#X obj 58 67 cnv 2 2 2 empty \$0-393-c empty 20 12 0 14 -262144 -262144
0;
#X obj 62 67 cnv 2 2 2 empty \$0-117-c empty 20 12 0 14 -262144 -262144
0;
#X obj 94 67 cnv 2 2 2 empty \$0-439-c empty 20 12 0 14 -262144 -262144
0;
#X obj 98 67 cnv 2 2 2 empty \$0-381-c empty 20 12 0 14 -262144 -262144
0;
#X obj 102 67 cnv 2 2 2 empty \$0-336-c empty 20 12 0 14 -262144 -262144
0;
#X obj 106 67 cnv 2 2 2 empty \$0-100-c empty 20 12 0 14 -262144 -262144
0;
#X obj 110 67 cnv 2 2 2 empty \$0-147-c empty 20 12 0 14 -262144 -262144
0;
#X obj 134 67 cnv 2 2 2 empty \$0-474-c empty 20 12 0 14 -262144 -262144
0;
#X obj 138 67 cnv 2 2 2 empty \$0-319-c empty 20 12 0 14 -262144 -262144
0;
#X obj 142 67 cnv 2 2 2 empty \$0-377-c empty 20 12 0 14 -262144 -262144
0;
#X obj 146 67 cnv 2 2 2 empty \$0-348-c empty 20 12 0 14 -262144 -262144
0;
#X obj 150 67 cnv 2 2 2 empty \$0-55-c empty 20 12 0 14 -262144 -262144
0;
#X obj 166 67 cnv 2 2 2 empty \$0-332-c empty 20 12 0 14 -262144 -262144
0;
#X obj 170 67 cnv 2 2 2 empty \$0-397-c empty 20 12 0 14 -262144 -262144
0;
#X obj 194 67 cnv 2 2 2 empty \$0-517-c empty 20 12 0 14 -262144 -262144
0;
#X obj 198 67 cnv 2 2 2 empty \$0-199-c empty 20 12 0 14 -262144 -262144
0;
#X obj 202 67 cnv 2 2 2 empty \$0-82-c empty 20 12 0 14 -262144 -262144
0;
#X obj 206 67 cnv 2 2 2 empty \$0-211-c empty 20 12 0 14 -262144 -262144
0;
#X obj 210 67 cnv 2 2 2 empty \$0-238-c empty 20 12 0 14 -262144 -262144
0;
#X obj 214 67 cnv 2 2 2 empty \$0-50-c empty 20 12 0 14 -262144 -262144
0;
#X obj 238 67 cnv 2 2 2 empty \$0-62-c empty 20 12 0 14 -262144 -262144
0;
#X obj 242 67 cnv 2 2 2 empty \$0-516-c empty 20 12 0 14 -262144 -262144
0;
#X obj 246 67 cnv 2 2 2 empty \$0-40-c empty 20 12 0 14 -262144 -262144
0;
#X obj 250 67 cnv 2 2 2 empty \$0-74-c empty 20 12 0 14 -262144 -262144
0;
#X obj 254 67 cnv 2 2 2 empty \$0-92-c empty 20 12 0 14 -262144 -262144
0;
#X obj 258 67 cnv 2 2 2 empty \$0-215-c empty 20 12 0 14 -262144 -262144
0;
#X obj 262 67 cnv 2 2 2 empty \$0-38-c empty 20 12 0 14 -262144 -262144
0;
#X obj 266 67 cnv 2 2 2 empty \$0-36-c empty 20 12 0 14 -262144 -262144
0;
#X obj 270 67 cnv 2 2 2 empty \$0-237-c empty 20 12 0 14 -262144 -262144
0;
#X obj 274 67 cnv 2 2 2 empty \$0-37-c empty 20 12 0 14 -262144 -262144
0;
#X obj 278 67 cnv 2 2 2 empty \$0-182-c empty 20 12 0 14 -262144 -262144
0;
#X obj 286 67 cnv 2 2 2 empty \$0-152-c empty 20 12 0 14 -262144 -262144
0;
#X obj 290 67 cnv 2 2 2 empty \$0-458-c empty 20 12 0 14 -262144 -262144
0;
#X obj 294 67 cnv 2 2 2 empty \$0-299-c empty 20 12 0 14 -262144 -262144
0;
#X obj 298 67 cnv 2 2 2 empty \$0-489-c empty 20 12 0 14 -262144 -262144
0;
#X obj 302 67 cnv 2 2 2 empty \$0-70-c empty 20 12 0 14 -262144 -262144
0;
#X obj 318 67 cnv 2 2 2 empty \$0-468-c empty 20 12 0 14 -262144 -262144
0;
#X obj 322 67 cnv 2 2 2 empty \$0-420-c empty 20 12 0 14 -262144 -262144
0;
#X obj 326 67 cnv 2 2 2 empty \$0-387-c empty 20 12 0 14 -262144 -262144
0;
#X obj 330 67 cnv 2 2 2 empty \$0-79-c empty 20 12 0 14 -262144 -262144
0;
#X obj 334 67 cnv 2 2 2 empty \$0-357-c empty 20 12 0 14 -262144 -262144
0;
#X obj 350 67 cnv 2 2 2 empty \$0-342-c empty 20 12 0 14 -262144 -262144
0;
#X obj 354 67 cnv 2 2 2 empty \$0-404-c empty 20 12 0 14 -262144 -262144
0;
#X obj 358 67 cnv 2 2 2 empty \$0-233-c empty 20 12 0 14 -262144 -262144
0;
#X obj 362 67 cnv 2 2 2 empty \$0-140-c empty 20 12 0 14 -262144 -262144
0;
#X obj 366 67 cnv 2 2 2 empty \$0-234-c empty 20 12 0 14 -262144 -262144
0;
#X obj 370 67 cnv 2 2 2 empty \$0-143-c empty 20 12 0 14 -262144 -262144
0;
#X obj 310 39 cnv 2 2 2 empty \$0-133-c empty 20 12 0 14 -262144 -262144
0;
#X obj 178 19 cnv 2 2 2 empty \$0-459-c empty 20 12 0 14 -262144 -262144
0;
#X obj 330 27 cnv 2 2 2 empty \$0-271-c empty 20 12 0 14 -262144 -262144
0;
#X obj 400 10 cnv 2 2 75 empty \$0-cu empty 20 12 0 14 -262144 -66577
0;
#X obj 189 98 ctxfiles/license;
#X obj 366 63 cnv 2 2 2 empty \$0-165-c empty 20 12 0 14 -262144 -262144
0;
#X obj 370 63 cnv 2 2 2 empty \$0-241-c empty 20 12 0 14 -262144 -262144
0;
