#N canvas 408 232 621 299 10;
#X obj 0 3 cnv 2 2 2 empty \$0-block empty 7 -10 1 14 -233017 -66577
0;
#X obj 1 4 cnv 3 47 21 empty \$0-block3 empty 2 3 0 8 -203904 -1 0
;
#N canvas 147 126 1280 687 (subpatch) 0;
#X array c\$0 100 float 2;
#X obj 485 229 receive \$0-arrsize;
#X obj 485 251 iemguts/sendcanvas;
#X connect 1 0 2 0;
#X coords 0 0.954545 100 -0.954545 48 22 1 0 0;
#X restore 0 3 graph;
#X obj 506 193 iemguts/canvasselect;
#X obj 506 219 print fo;
#X obj 506 170 bng 15 250 50 0 empty empty empty 17 7 0 10 -262144
-1 -1;
#N canvas 471 239 657 392 workings 1;
#X msg 127 27 vis 1;
#X obj 127 49 iemguts/sendcanvas;
#X obj 127 5 r cntent;
#N canvas 319 212 1011 548 c-movement 0;
#X obj 331 -7 inlet height;
#X obj 256 -9 inlet;
#X obj 183 411 pack f f;
#X obj 235 352 iemguts/canvasindex 2;
#X obj 376 442 s \$0-arrsize;
#X msg 786 413 vis_size \$1 \$2;
#X obj 843 368 - 1;
#X obj 786 390 pack 61 15;
#X obj 786 368 - 1;
#X obj 240 283 loadbang;
#X obj 306 233 -;
#X obj 297 285 moses 1;
#X obj 256 21 demux 0 1 2 3;
#N canvas 637 145 606 528 protector 0;
#X obj 33 238 -;
#X obj 14 167 t b f f;
#X obj 53 214 s \$0-xlay100;
#X obj 64 109 ctxfiles/lm \$0 x;
#X obj 313 165 -;
#X obj 367 179 t b b b;
#N canvas 547 426 579 321 plusminus 0;
#X obj 141 24 inlet;
#X obj 231 14 inlet;
#X obj 140 137 -;
#X obj 184 182 s \$0-ylay100;
#X obj 231 67 t f f;
#X obj 251 139 + 1;
#X obj 184 159 * -0.5;
#X obj 111 280 outlet;
#X obj 167 280 outlet;
#X obj 141 76 t b b f;
#X obj 94 54 inlet;
#X obj 121 104 t f f f;
#X obj 278 139 + -1;
#X obj 421 14 receive \$0-savestart;
#X obj 355 179 outlet;
#X obj 388 93 t b b f;
#X obj 296 93 t b b f;
#X obj 296 40 receive \$0-:s1;
#X obj 388 40 receive \$0-:s2;
#X obj 111 258 / 1;
#X obj 167 258 / 1;
#X obj 125 169 / 1;
#X connect 0 0 9 0;
#X connect 1 0 4 0;
#X connect 2 0 21 1;
#X connect 4 0 5 0;
#X connect 4 1 12 0;
#X connect 5 0 19 0;
#X connect 6 0 3 0;
#X connect 9 0 21 0;
#X connect 9 1 2 0;
#X connect 9 2 2 1;
#X connect 10 0 11 0;
#X connect 11 0 21 0;
#X connect 11 1 2 0;
#X connect 11 2 6 0;
#X connect 12 0 20 0;
#X connect 15 0 14 0;
#X connect 15 1 12 0;
#X connect 15 2 12 1;
#X connect 16 0 14 0;
#X connect 16 1 5 0;
#X connect 16 2 5 1;
#X connect 17 0 16 0;
#X connect 18 0 15 0;
#X connect 19 0 7 0;
#X connect 20 0 8 0;
#X connect 21 0 20 1;
#X connect 21 0 19 1;
#X restore 474 255 pd plusminus;
#X obj 434 220 t b f f;
#X obj 436 268 -;
#X obj 513 134 abs;
#X obj 14 136 inlet x;
#X obj 64 70 inlet l;
#X obj 220 86 inlet r;
#X obj 467 73 inlet top;
#X obj 434 153 inlet y;
#X obj 144 451 outlet;
#X msg 415 428 resize \$1;
#X obj 386 406 moses 1;
#X msg 386 428 1;
#X obj 415 450 send;
#X obj 313 143 swap 100;
#X obj 53 192 / 100;
#X obj 367 381 t b f f f f;
#X obj 205 198 - 1;
#X obj 144 428 spigot;
#X msg 198 446 1;
#X obj 162 241 receive \$0-arrayoff;
#X obj 220 120 ctxfiles/lm \$0 x;
#X obj 467 106 ctxfiles/lm \$0 y;
#X obj 480 406 receive \$0-name;
#X obj 198 424 receive \$0-lb2;
#X obj 162 263 t b f;
#X obj 367 357 receive \$0-size2;
#X obj 227 446 receive \$0-nomove;
#X obj 144 392 pack 48 22 100 1 -1 0 1;
#X connect 0 0 34 0;
#X connect 1 0 34 0;
#X connect 1 1 0 0;
#X connect 1 2 21 0;
#X connect 3 0 0 0;
#X connect 3 1 0 1;
#X connect 3 2 23 0;
#X connect 4 0 34 2;
#X connect 5 0 34 0;
#X connect 5 2 8 0;
#X connect 6 0 34 3;
#X connect 6 1 34 4;
#X connect 6 2 34 0;
#X connect 7 0 34 0;
#X connect 7 1 8 0;
#X connect 7 2 6 0;
#X connect 8 0 34 1;
#X connect 9 0 8 1;
#X connect 9 0 6 1;
#X connect 10 0 1 0;
#X connect 11 0 3 0;
#X connect 12 0 27 0;
#X connect 13 0 28 0;
#X connect 14 0 7 0;
#X connect 16 0 19 0;
#X connect 17 0 18 0;
#X connect 17 1 34 2;
#X connect 18 0 34 2;
#X connect 20 0 4 0;
#X connect 20 1 4 1;
#X connect 21 0 2 0;
#X connect 22 0 34 0;
#X connect 22 1 17 0;
#X connect 22 2 16 0;
#X connect 22 3 20 1;
#X connect 22 4 21 1;
#X connect 23 0 34 5;
#X connect 24 0 15 0;
#X connect 25 0 24 1;
#X connect 26 0 31 0;
#X connect 27 0 0 0;
#X connect 27 1 0 1;
#X connect 27 2 20 0;
#X connect 28 0 5 0;
#X connect 28 1 9 0;
#X connect 28 2 6 2;
#X connect 29 0 19 1;
#X connect 30 0 25 0;
#X connect 31 0 34 0;
#X connect 31 1 34 6;
#X connect 32 0 22 0;
#X connect 33 0 24 1;
#X connect 34 0 24 0;
#X restore 376 328 pd protector;
#X obj 316 76 -;
#X obj 251 165 t f;
#X obj 119 140 t b f;
#X obj 307 199 t f f f;
#X obj 197 293 t b f;
#X msg 559 138 0;
#X obj 521 363 list split 2;
#X obj 786 344 unpack f f;
#X obj 200 140 t f f f b;
#X obj 234 208 +;
#X obj 389 192 +;
#X obj 608 161 * -1;
#X obj 281 168 t b f;
#X obj 362 169 t f f;
#X obj 281 44 t f f;
#X obj 331 44 t f f;
#X obj 316 98 moses 1;
#X obj 524 449 s \$0-pixsize;
#X obj 557 57 unpack;
#X obj 76 307 unpack;
#X obj 355 120 t f f f;
#X obj 637 262 receive \$0-cnvmorph;
#X msg 376 418 coords \$6 \$4 \$3 \$5 \$1 \$2 \$7 0 0;
#X obj 521 385 t b a a a;
#X msg 417 469 dirty 0;
#X msg 457 493 donecanvasdialog 0 0 2 1 -1 1 1 \$1 \$2 0 3;
#X obj 498 470 receive \$0-dirty;
#X obj 351 494 receive \$0-com;
#X obj 376 351 demux;
#X obj 469 328 receive \$0-reface;
#X text 545 216 xfrom yfrom xto yto xsize ysize GOP xmargin ymargin
;
#X obj 457 516 iemguts/sendcanvas 2;
#X obj 182 525 iemguts/canvasobjectposition 3;
#X obj 786 437 s \$0-block3;
#X obj 76 285 receive \$0-mypos;
#X msg 297 397 coords \$6 \$4 \$3 \$5 221 76 \$7 0 0;
#X obj 557 15 ctxfiles/dv \$0 receive cursorsz;
#X obj 169 227 change;
#X obj 233 258 change;
#X obj 164 322 t f b;
#X obj 648 43 receive \$0-created;
#X obj 648 87 ctxfiles/dv \$0 v xszz;
#X obj 675 110 ctxfiles/dv \$0 v yszz;
#X obj 648 65 t b b;
#X obj 590 82 t f f f;
#X obj 541 80 t f f f;
#X obj 345 259 - 48;
#X obj 345 234 max 48;
#X obj 608 139 - 36;
#X obj 563 116 moses 36;
#X obj 119 116 ctxfiles/mp 47;
#X obj 281 146 ctxfiles/mp 35;
#X obj 240 305 spigot 1;
#X obj 240 327 t b f;
#X connect 0 0 12 1;
#X connect 1 0 12 0;
#X connect 2 0 46 0;
#X connect 3 0 46 1;
#X connect 5 0 47 0;
#X connect 6 0 7 1;
#X connect 7 0 5 0;
#X connect 8 0 7 0;
#X connect 9 0 66 0;
#X connect 10 0 11 0;
#X connect 10 0 23 1;
#X connect 10 0 64 1;
#X connect 11 1 13 0;
#X connect 12 0 64 0;
#X connect 12 1 28 0;
#X connect 12 2 17 0;
#X connect 12 3 29 0;
#X connect 13 0 42 0;
#X connect 14 0 30 0;
#X connect 15 0 13 1;
#X connect 16 0 53 0;
#X connect 16 1 13 1;
#X connect 17 0 10 0;
#X connect 17 2 61 0;
#X connect 18 0 2 0;
#X connect 18 1 2 1;
#X connect 19 0 13 4;
#X connect 20 0 37 0;
#X connect 21 0 8 0;
#X connect 21 1 6 0;
#X connect 22 0 51 0;
#X connect 22 1 10 1;
#X connect 22 2 23 0;
#X connect 22 3 15 0;
#X connect 23 0 61 0;
#X connect 24 0 63 0;
#X connect 25 0 13 4;
#X connect 26 0 18 0;
#X connect 26 1 13 4;
#X connect 27 0 52 0;
#X connect 27 1 24 0;
#X connect 28 0 65 0;
#X connect 28 1 14 1;
#X connect 29 0 14 0;
#X connect 29 1 63 0;
#X connect 30 1 34 0;
#X connect 32 0 59 0;
#X connect 32 1 58 0;
#X connect 33 1 2 1;
#X connect 34 0 65 1;
#X connect 34 1 24 1;
#X connect 34 2 13 3;
#X connect 35 0 39 0;
#X connect 35 0 21 0;
#X connect 36 0 4 0;
#X connect 37 0 38 0;
#X connect 37 1 21 0;
#X connect 37 2 31 0;
#X connect 37 3 39 0;
#X connect 38 0 45 0;
#X connect 39 0 45 0;
#X connect 40 0 38 0;
#X connect 41 0 45 0;
#X connect 42 0 36 0;
#X connect 42 0 20 0;
#X connect 42 1 49 0;
#X connect 43 0 42 1;
#X connect 48 0 33 0;
#X connect 49 0 4 0;
#X connect 50 0 32 0;
#X connect 51 0 53 0;
#X connect 52 0 18 0;
#X connect 53 0 2 0;
#X connect 53 1 3 0;
#X connect 54 0 57 0;
#X connect 55 0 59 0;
#X connect 56 0 58 0;
#X connect 57 0 55 0;
#X connect 57 1 56 0;
#X connect 58 0 65 2;
#X connect 58 1 63 1;
#X connect 58 2 62 1;
#X connect 59 0 64 2;
#X connect 59 1 61 1;
#X connect 59 2 60 1;
#X connect 60 0 13 2;
#X connect 61 0 60 0;
#X connect 62 0 25 0;
#X connect 63 0 19 0;
#X connect 63 1 62 0;
#X connect 64 0 16 0;
#X connect 64 1 22 0;
#X connect 65 0 26 0;
#X connect 65 1 27 0;
#X connect 66 0 67 0;
#X connect 67 0 3 0;
#X connect 67 1 66 1;
#X restore 93 258 pd c-movement;
#N canvas 570 337 701 411 audio 0;
#N canvas 543 436 536 300 receive 0;
#X obj 225 111 iemguts/sendcanvas;
#X obj 225 65 ctxfiles/myinit 4;
#X msg 225 90 obj 0 100 receive~ \$1-myline \, connect 5 0 4 0;
#X obj 225 37 receive \$0-dvstart;
#X obj 82 156 outlet~;
#X connect 1 0 2 0;
#X connect 2 0 0 0;
#X connect 3 0 1 0;
#X restore 54 48 pd receive;
#X obj 53 118 -~;
#X obj 530 124 unpack f f f;
#X obj 578 146 * 44100;
#X obj 530 146 * 44100;
#X obj 530 238 /;
#X obj 530 173 -;
#X obj 569 305 /;
#X obj 530 260 route 0;
#X obj 530 195 * -1;
#X obj 569 329 *;
#X obj 569 352 s \$0-xer;
#X obj 117 137 pack f f;
#X obj 117 159 -;
#X obj 117 201 swap 100;
#X obj 117 245 /;
#X obj 53 224 *~ 1;
#X obj 54 312 s~ \$0-too;
#X obj 54 290 tabread4~ c\$0;
#X obj 530 217 t f f;
#X obj 530 102 receive \$0-relpos;
#X obj 135 54 receive \$0-xend;
#X obj 228 10 receive \$0-xstart;
#X obj 152 155 receive \$0-size;
#X obj 13 250 receive \$0-sname;
#X obj 315 104 makefilename ~get-%s;
#X obj 315 80 receive \$0-myname;
#X obj 279 58 ctxfiles/dv \$0 r intget;
#X obj 315 152 unpack f f;
#X obj 315 196 -;
#X obj 315 174 * 44.1;
#X obj 342 268 * 1;
#X obj 342 290 tabread c\$0;
#X obj 342 312 send;
#X obj 372 268 makefilename %d-fetch;
#X obj 315 219 moses;
#X obj 342 242 moses;
#X msg 313 268 0;
#X obj 200 88 r gio;
#X msg 200 110 vis 1;
#X obj 200 132 iemguts/sendcanvas;
#X obj 152 177 t b f;
#X obj 54 70 *~ 44.1;
#X obj 554 173 receive \$0-size;
#X obj 315 128 iemguts/oreceive \$0noo;
#X obj 569 282 swap 1;
#X obj 53 201 *~;
#X obj 69 175 <~;
#X obj 53 140 max~;
#X obj 125 10 receive \$0-lbang;
#X obj 117 223 spigot;
#X obj 125 32 t b b;
#X msg 189 177 1;
#X obj 228 32 t b f f f;
#X connect 0 0 42 0;
#X connect 1 0 48 0;
#X connect 2 0 4 0;
#X connect 2 1 3 0;
#X connect 3 0 6 1;
#X connect 4 0 6 0;
#X connect 5 0 8 0;
#X connect 6 0 9 0;
#X connect 7 0 10 0;
#X connect 8 1 45 0;
#X connect 9 0 19 0;
#X connect 10 0 11 0;
#X connect 12 0 13 0;
#X connect 13 0 14 0;
#X connect 14 0 50 0;
#X connect 14 1 15 1;
#X connect 15 0 16 1;
#X connect 15 0 31 1;
#X connect 16 0 18 0;
#X connect 18 0 17 0;
#X connect 19 0 5 0;
#X connect 19 1 10 1;
#X connect 20 0 2 0;
#X connect 21 0 12 0;
#X connect 21 0 36 1;
#X connect 21 0 47 1;
#X connect 22 0 53 0;
#X connect 23 0 41 0;
#X connect 24 0 18 0;
#X connect 24 0 32 0;
#X connect 25 0 44 0;
#X connect 26 0 25 0;
#X connect 27 0 28 0;
#X connect 28 0 30 0;
#X connect 28 1 34 0;
#X connect 29 0 35 0;
#X connect 30 0 29 0;
#X connect 31 0 32 0;
#X connect 32 0 33 0;
#X connect 34 0 33 1;
#X connect 35 0 37 0;
#X connect 35 1 36 0;
#X connect 36 0 31 0;
#X connect 36 1 37 0;
#X connect 37 0 33 0;
#X connect 38 0 39 0;
#X connect 39 0 40 0;
#X connect 41 0 14 0;
#X connect 41 1 14 1;
#X connect 42 0 1 0;
#X connect 43 0 5 1;
#X connect 44 0 28 0;
#X connect 45 0 7 0;
#X connect 45 1 7 1;
#X connect 46 0 16 0;
#X connect 47 0 46 1;
#X connect 48 0 46 0;
#X connect 48 0 47 0;
#X connect 49 0 51 0;
#X connect 50 0 15 0;
#X connect 51 0 12 0;
#X connect 51 1 52 0;
#X connect 52 0 50 1;
#X connect 53 0 12 0;
#X connect 53 1 1 1;
#X connect 53 2 12 1;
#X connect 53 3 29 1;
#X restore 225 249 pd audio;
#X msg 258 41 normalize \$1;
#X obj 258 63 send;
#N canvas 572 141 450 300 curve 0;
#X obj 209 102 * 2;
#X obj 209 124 pack f 100 s;
#X msg 209 147 arraydialog \$3 \$2 \$1 0;
#X obj 209 169 send;
#X obj 290 56 receive \$0-name;
#X obj 243 102 receive \$0-size2;
#X obj 182 55 receive \$0-:ts;
#X obj 182 77 t b f;
#X obj 141 114 s \$0-dirty;
#X connect 0 0 1 0;
#X connect 1 0 2 0;
#X connect 2 0 3 0;
#X connect 4 0 1 2;
#X connect 4 0 3 1;
#X connect 5 0 1 1;
#X connect 6 0 7 0;
#X connect 7 0 8 0;
#X connect 7 1 0 0;
#X restore 280 157 pd curve;
#X obj 258 19 receive \$0-:n;
#X obj 290 63 receive \$0-name;
#N canvas 385 213 596 471 morph 0;
#X obj 216 66 demux;
#X msg 216 89 1;
#X obj 216 111 t f f f;
#X obj 190 89 t f;
#X obj 216 160 sel 0 1;
#X obj 235 137 s \$0-cmorphon;
#X obj 214 323 s \$0-face;
#X obj 302 343 sin;
#X msg 302 297 0 \, 1.5708 700;
#X obj 302 320 line 0 50;
#X obj 302 365 t f f;
#X obj 121 352 unpack f f;
#X obj 382 226 unpack f f;
#X obj 235 231 del 701;
#X obj 104 223 del 701;
#X obj 302 424 pack f f;
#X obj 302 446 s \$0-cnvmorph;
#X obj 235 206 t b b b f;
#X msg 214 300 2;
#X obj 166 417 s \$0-arrayoff;
#X msg 124 270 1;
#X obj 38 279 s \$0-cmdone;
#X obj 152 24 receive \$0-done;
#X obj 216 44 receive \$0-prop;
#X obj 382 161 receive \$0-pixsize;
#X obj 104 245 t b b b f;
#X obj 235 253 t b b b;
#X msg 258 291 1;
#X obj 77 427 s \$0-reface;
#X obj 104 201 t b b b f f f;
#X obj 302 274 s \$0-dirty;
#X obj 121 304 list 48 22;
#X obj 302 398 ctxfiles/sf 48;
#X obj 397 398 ctxfiles/sf 22;
#X msg 121 327 221 226;
#X connect 0 0 1 0;
#X connect 0 1 3 0;
#X connect 1 0 2 0;
#X connect 2 0 4 0;
#X connect 2 1 5 0;
#X connect 2 2 0 1;
#X connect 3 0 2 0;
#X connect 4 0 29 0;
#X connect 4 1 17 0;
#X connect 7 0 10 0;
#X connect 8 0 9 0;
#X connect 9 0 7 0;
#X connect 10 0 32 0;
#X connect 10 1 33 0;
#X connect 11 0 32 1;
#X connect 11 1 33 1;
#X connect 12 0 32 2;
#X connect 12 1 33 2;
#X connect 13 0 26 0;
#X connect 14 0 25 0;
#X connect 15 0 16 0;
#X connect 17 0 13 0;
#X connect 17 1 8 0;
#X connect 17 2 34 0;
#X connect 17 3 19 0;
#X connect 18 0 6 0;
#X connect 20 0 19 0;
#X connect 22 0 3 0;
#X connect 23 0 0 0;
#X connect 24 0 12 0;
#X connect 24 0 31 1;
#X connect 25 0 21 0;
#X connect 25 1 20 0;
#X connect 26 0 18 0;
#X connect 26 1 27 0;
#X connect 26 2 30 0;
#X connect 27 0 28 0;
#X connect 27 0 19 0;
#X connect 29 0 14 0;
#X connect 29 1 8 0;
#X connect 29 2 31 0;
#X connect 29 3 6 0;
#X connect 29 4 28 0;
#X connect 29 5 19 0;
#X connect 31 0 11 0;
#X connect 32 0 15 0;
#X connect 33 0 15 1;
#X connect 34 0 11 0;
#X restore 291 122 pd morph;
#X text 197 304 name: the actual array name;
#X text 183 318 myname: my tag;
#X text 170 334 tname: number count;
#X text 174 352 sname: the right table to read (prepd by snamep);
#N canvas 688 450 538 300 clicks 0;
#X obj 117 108 del 100;
#X obj 117 130 s \$0-obang;
#X obj 117 47 ctxfiles/dv \$0 receive cclick;
#X obj 45 178 ctxfiles/dv \$0 receive cpos;
#X obj 45 200 unpack;
#X obj 45 222 s \$0-x-otherpos;
#X obj 78 245 s \$0-y-otherpos;
#X obj 276 246 ctxfiles/dv \$0 s nostop;
#X obj 276 201 del 100;
#X msg 276 223 stop;
#X obj 303 175 iemguts/sendcanvas 5;
#X obj 325 49 iemguts/receivecanvas 5;
#X obj 325 71 route mouse;
#X obj 276 108 t b b;
#X msg 303 153 mouseup 0 0 1;
#X obj 303 131 demux;
#X obj 117 86 ctxfiles/ou \$0 48 22 3 my c;
#X obj 330 108 receive \$0-:ed;
#X connect 0 0 1 0;
#X connect 2 0 16 0;
#X connect 3 0 4 0;
#X connect 4 0 5 0;
#X connect 4 1 6 0;
#X connect 8 0 9 0;
#X connect 9 0 7 0;
#X connect 11 0 12 0;
#X connect 13 0 8 0;
#X connect 13 1 15 0;
#X connect 14 0 10 0;
#X connect 15 0 14 0;
#X connect 16 0 0 0;
#X connect 16 1 13 0;
#X connect 17 0 15 1;
#X restore 305 220 pd clicks;
#X obj 93 162 iemguts/canvasposition 1;
#X obj 93 140 receive \$0-cpr;
#X obj 68 119 receive \$0-created;
#X obj 93 190 ctxfiles/m-interface \$0 2 56 30 3 48 22;
#X obj 347 16 receive \$0-clearme;
#X msg 347 38 const 0;
#X obj 484 118 receive \$0-myname;
#X obj 415 165 list prepend;
#X obj 484 140 list append :;
#X obj 415 94 receive \$0-printyou;
#X obj 415 209 print -n;
#X obj 415 187 list trim;
#X connect 0 0 1 0;
#X connect 2 0 0 0;
#X connect 5 0 6 0;
#X connect 8 0 5 0;
#X connect 9 0 6 1;
#X connect 16 0 19 0;
#X connect 17 0 16 0;
#X connect 18 0 16 0;
#X connect 19 0 3 0;
#X connect 19 1 3 1;
#X connect 19 2 19 1;
#X connect 20 0 21 0;
#X connect 21 0 6 0;
#X connect 22 0 24 0;
#X connect 23 0 27 0;
#X connect 24 0 23 1;
#X connect 25 0 23 0;
#X connect 27 0 26 0;
#X restore 406 71 pd workings;
#X obj 406 126 outlet~;
#X obj 261 27 inlet;
#N canvas 537 125 793 440 message 0;
#X obj 343 17 inlet;
#X obj 407 63 ctxfiles/recompile \$0;
#X obj 151 78 cyclone/zl iter 1;
#X obj 343 39 t b a;
#X obj 43 128 cnv 13 500 1 empty \$0-datagrid load 18 -5 0 10 -13330
-66577 0;
#X obj 43 141 cnv 13 500 1 empty \$0-datagrid x_start_pos 18 -5 0 10
-13330 -66577 0;
#X obj 43 154 cnv 13 500 1 empty \$0-datagrid x_end_pos 18 -5 0 10
-13330 -66577 0;
#X obj 43 193 cnv 13 500 1 empty \$0-datagrid colour 18 -5 0 10 -13330
-66577 0;
#X obj 43 206 cnv 13 500 1 empty \$0-datagrid y-top 18 -5 0 10 -13330
-66577 0;
#X obj 43 167 cnv 13 500 1 empty \$0-datagrid y_start_pos 18 -5 0 10
-13330 -66577 0;
#X obj 43 180 cnv 13 500 1 empty \$0-datagrid y_end_pos 18 -5 0 10
-13330 -66577 0;
#X obj 43 232 cnv 13 500 1 empty \$0-datagrid normalize 18 -5 0 10
-13330 -66577 0;
#X obj 43 245 cnv 13 500 1 empty \$0-datagrid curve 18 -5 0 10 -13330
-66577 0;
#X obj 43 258 cnv 13 500 1 empty \$0-datagrid bitrate 18 -5 0 10 -13330
-66577 0;
#X obj 548 16 tgl 15 0 empty empty empty 17 7 0 10 -262144 -1 -1 0
500;
#X msg 548 38 vis_size \$1 1;
#X obj 548 60 s \$0-datagrid;
#X obj 43 219 cnv 13 500 1 empty \$0-datagrid y-bottom 18 -5 0 10 -13330
-66577 0;
#X obj 43 271 cnv 13 500 1 empty \$0-datagrid left_snap 18 -5 0 10
-13330 -66577 0;
#X obj 43 284 cnv 13 500 1 empty \$0-datagrid right_snap 18 -5 0 10
-13330 -66577 0;
#X obj 43 297 cnv 13 500 1 empty \$0-datagrid top_snap 18 -5 0 10 -13330
-66577 0;
#X obj 43 310 cnv 13 500 1 empty \$0-datagrid bottom_snap 18 -5 0 10
-13330 -66577 0;
#X obj 43 349 cnv 13 500 1 empty \$0-datagrid print 18 -5 0 10 -13330
-66577 0;
#X obj 43 362 cnv 13 500 1 empty \$0-datagrid save-list 18 -5 0 10
-13330 -66577 0;
#X obj 383 17 receive \$0-anyin;
#X obj 43 323 cnv 13 500 1 empty \$0-datagrid editable 18 -5 0 10 -13330
-66577 0;
#X obj 216 17 iemguts/oreceive nop;
#X obj 216 -6 receive \$0-myname;
#X obj 43 375 cnv 13 500 1 empty \$0-datagrid set 18 -5 0 10 -13330
-66577 0;
#X obj 43 388 cnv 13 500 1 empty \$0-datagrid save 18 -5 0 10 -13330
-66577 0;
#X obj 43 336 cnv 13 500 1 empty \$0-datagrid saveable 18 -5 0 10 -13330
-66577 0;
#X obj 151 102 ctxfiles/br route \; :lo " tfs \$0 ##f lo clear " load
#l \; :x1 " tfsn \$0 ##f x1 0 " \; :x2 " tfsn \$0 ##f x2 0 " \; :y1
" tfsn \$0 ##f y1 0 " \; :y2 " tfsn \$0 ##f y2 0 " \; :c " tfs \$0
##f c 17 " color #l colour #l \; :s1 " tfs \$0 ##f s1 1 " \; :s2 "
tfs \$0 ##f s2 -1 " \; :nm " tfs \$0 ##f nm 1 " normalize #l \; :li
" tfs \$0 ##f li 0 " line #l \; :br " tfs \$0 ##f br 44100 " bitrate
#l \; :p1 " tfs \$0 ##f p1 0 " \; :p2 " tfs \$0 ##f p2 0 " \; :p3 "
tfs \$0 ##f p3 0 " \; :p4 " tfs \$0 ##f p4 0 " \; :ed " tfst \$0 ##f
ed 1 " edit #l \; :as " tfst \$0 ##f as 1 " \; print " tf \$0 ##f "
\; savelist " tf \$0 ##f " \; set " tf \$0 ##f " \; save " tf \$0 ##f
" \; clear " tf \$0 ##f " \; #n " s \$0-othr ";
#X obj 43 401 cnv 13 500 1 empty \$0-datagrid clear 18 -5 0 10 -13330
-66577 0;
#X obj 407 89 ctxfiles/br demux \; #f t \; #f " ctxfiles/ll \$0 " \;
#f " s \$0-:x1 " \; #f " s \$0-:x2 " \; #f " s \$0-:y1 " \; #f " s
\$0-:y2 " \; #f " s \$0-:cs " \; #f " s \$0-:s1s " \; #f " s \$0-:s2s
" \; #f " s \$0-:ns " \; #f " s \$0-:lis " \; #f " s \$0-:bs " \; #f
" s \$0-:p1 " \; #f " s \$0-:p2 " \; #f " s \$0-:p3 " \; #f " s \$0-:p4
" \; #f " s \$0-:eds " \; #f " s \$0-:ass " \; #f " s \$0-printall
" \; #f " s \$0-savelist " \; #f " s \$0-setme " \; #f " s \$0-savem
" \; #f " s \$0-clearme " \;;
#X connect 0 0 3 0;
#X connect 1 0 33 0;
#X connect 1 1 33 1;
#X connect 2 0 31 0;
#X connect 3 0 1 0;
#X connect 3 1 2 0;
#X connect 14 0 15 0;
#X connect 15 0 16 0;
#X connect 24 0 3 0;
#X connect 26 0 3 0;
#X connect 27 0 26 0;
#X restore 261 52 pd message;
#X obj 406 100 r~ \$0-too;
#X obj 108 39 iemguts/canvasargs;
#N canvas 710 224 450 444 loadbang 0;
#X obj 179 165 s \$0-lb;
#X obj 152 66 ctxfiles/myinit 3;
#X obj 152 41 ctxfiles/dvi \$0 4;
#X obj 152 19 bng 15 250 50 0 empty empty empty 17 7 0 10 -262144 -1
-1;
#X obj 249 284 ctxfiles/dv \$0 s cbeep;
#X obj 60 155 del 1000;
#X obj 235 259 s \$0-lb1;
#X obj 32 255 spigot 1;
#X obj 51 326 s \$0-created;
#X obj 152 88 spigot 1;
#X msg 60 177 1;
#X obj 60 198 s \$0-savestart;
#X obj 207 210 s \$0-iemargr;
#X obj 221 236 s \$0-lb2;
#X obj 32 348 s \$0-lbang;
#X obj 32 232 receive \$0-cbee;
#X obj 249 144 makefilename \$0-cbee;
#X text 14 -143 firest when created newly in the overlay (ie. not loaded
from the patch). lbang fires early if content is created and late (by
context) if not.;
#X obj 32 277 t b b b;
#X obj 83 277 receive \$0-splbc;
#X obj 152 119 t f b b b b b b f f;
#X obj 193 187 s \$0-iemarg1;
#X obj 71 303 s \$0-created1;
#X text 32 386 A part of the Context library \, licensed under the
GPL. See license.txt. Copyright Liam Goodacre 2017;
#X connect 1 0 9 0;
#X connect 2 0 1 0;
#X connect 3 0 2 0;
#X connect 5 0 10 0;
#X connect 7 0 18 0;
#X connect 9 0 20 0;
#X connect 10 0 11 0;
#X connect 15 0 7 0;
#X connect 16 0 4 0;
#X connect 18 0 14 0;
#X connect 18 1 8 0;
#X connect 18 2 22 0;
#X connect 20 0 7 1;
#X connect 20 1 5 0;
#X connect 20 2 0 0;
#X connect 20 3 21 0;
#X connect 20 4 12 0;
#X connect 20 5 13 0;
#X connect 20 6 6 0;
#X connect 20 7 16 0;
#X connect 20 8 9 1;
#X restore 491 10 pd loadbang;
#X obj 108 61 s \$0-canvass;
#N canvas 364 113 801 582 tabload 0;
#X obj 401 433 soundfiler;
#X obj 7 396 ctxfiles/sp 13;
#X obj 401 501 s \$0-sizer;
#X obj 88 373 receive \$0-pixsize;
#X obj 503 364 receive \$0-name;
#X obj 280 251 receive \$0-tname;
#X obj 342 325 s \$0-myname;
#X obj 401 185 s2l /;
#X obj 401 207 cyclone/zl rev;
#X obj 401 229 unpack s;
#X obj 401 251 s2l .;
#X obj 401 273 t a a;
#X obj 433 296 list length;
#X obj 433 318 > 1;
#X obj 369 355 demux;
#X obj 342 301 unpack s;
#X obj 7 313 receive \$0-myname;
#X msg 401 479 set \$1;
#X obj 401 386 list append c\$0;
#X msg 401 409 read -resize \$1 \$2;
#X obj 282 395 t s b s;
#X obj 305 423 array size;
#X obj 527 437 symbol;
#X obj 451 363 sel 1;
#X msg 527 459 set \$1;
#X obj 527 481 s \$0-sname;
#X obj 433 340 t f f f;
#X obj 489 340 s \$0-tabmode;
#X obj 401 455 t f f f;
#X obj 424 525 s \$0-size;
#X obj 447 547 s \$0-size2;
#X obj 305 445 t f f b;
#X msg 345 471 15;
#X obj 550 406 receive \$0-snamep;
#X obj 342 28 receive \$0-:l;
#X obj 369 72 makefilename %.1s;
#X msg 396 117 1;
#X obj 369 117 t f;
#X obj 342 140 demux;
#X obj 176 206 s2l;
#X obj 176 228 list split 1;
#X obj 210 251 s \$0-anyin;
#X obj 342 50 t s s;
#X obj 176 251 t b;
#X obj 176 274 symbol;
#X msg 176 296 set \$1;
#X obj 176 318 s \$0-:loo;
#X obj 7 419 s \$0-block3;
#X obj 280 273 makefilename ~%d;
#X obj 369 94 sel .;
#X obj 369 163 t s s s b;
#X obj 499 242 t f;
#X obj 499 264 s \$0-asave;
#X connect 0 0 28 0;
#X connect 1 0 47 0;
#X connect 3 0 1 1;
#X connect 4 0 18 1;
#X connect 5 0 48 0;
#X connect 7 0 8 0;
#X connect 8 0 9 0;
#X connect 9 0 10 0;
#X connect 10 0 11 0;
#X connect 11 0 15 0;
#X connect 11 1 12 0;
#X connect 12 0 13 0;
#X connect 13 0 26 0;
#X connect 14 0 20 0;
#X connect 14 1 18 0;
#X connect 15 0 6 0;
#X connect 16 0 1 0;
#X connect 17 0 2 0;
#X connect 18 0 19 0;
#X connect 19 0 0 0;
#X connect 20 0 24 0;
#X connect 20 1 21 0;
#X connect 20 2 21 1;
#X connect 21 0 31 0;
#X connect 22 0 24 0;
#X connect 23 0 22 0;
#X connect 24 0 25 0;
#X connect 26 0 14 1;
#X connect 26 1 23 0;
#X connect 26 2 27 0;
#X connect 28 0 17 0;
#X connect 28 1 29 0;
#X connect 28 2 30 0;
#X connect 31 0 17 0;
#X connect 31 1 29 0;
#X connect 31 2 32 0;
#X connect 32 0 30 0;
#X connect 33 0 22 0;
#X connect 34 0 42 0;
#X connect 35 0 49 0;
#X connect 36 0 38 1;
#X connect 37 0 38 1;
#X connect 38 0 39 0;
#X connect 38 1 50 0;
#X connect 39 0 40 0;
#X connect 40 0 43 0;
#X connect 40 1 41 0;
#X connect 42 0 38 0;
#X connect 42 1 35 0;
#X connect 43 0 44 0;
#X connect 44 0 45 0;
#X connect 45 0 46 0;
#X connect 48 0 6 0;
#X connect 49 0 37 0;
#X connect 49 1 36 0;
#X connect 50 0 14 0;
#X connect 50 1 7 0;
#X connect 50 2 44 1;
#X connect 50 3 51 0;
#X connect 51 0 52 0;
#X restore 336 173 pd tabload;
#N canvas 767 247 466 381 tablelable 0;
#X msg 239 308 rename \$1;
#X obj 207 284 s \$0-name;
#X obj 160 76 + 1;
#X obj 160 54 v cntnt;
#X obj 192 239 l2s;
#X msg 207 217 symbol;
#X msg 191 145 symbol  ;
#X obj 191 122 until;
#X obj 160 169 list-abs/list-extend;
#X obj 239 354 send;
#X obj 255 330 symbol c\$0;
#X obj 160 191 ctxfiles/sp01;
#X obj 192 261 t s s s s b;
#X obj 160 30 receive \$0-lb1;
#X obj 160 99 t b b f b f f;
#X obj 310 169 s \$0-tname;
#X obj 152 354 s \$0-snamep;
#X connect 0 0 9 0;
#X connect 2 0 14 0;
#X connect 3 0 2 0;
#X connect 4 0 12 0;
#X connect 5 0 4 1;
#X connect 6 0 8 0;
#X connect 7 0 6 0;
#X connect 8 0 11 0;
#X connect 10 0 9 1;
#X connect 11 0 4 0;
#X connect 12 0 16 0;
#X connect 12 1 1 0;
#X connect 12 2 10 1;
#X connect 12 3 0 0;
#X connect 12 4 10 0;
#X connect 13 0 3 0;
#X connect 14 0 8 0;
#X connect 14 1 11 2;
#X connect 14 2 7 0;
#X connect 14 3 5 0;
#X connect 14 4 3 0;
#X connect 14 5 15 0;
#X restore 335 151 pd tablelable;
#N canvas 794 298 450 300 colour 0;
#X obj 161 57 pack f \$0;
#X msg 161 125 color \$1 \$4 \$4;
#X obj 161 35 receive \$0-:c;
#X obj 161 79 s colourquery";
#X obj 161 103 receive \$0-primary-col;
#X obj 161 147 s \$0-block3;
#X connect 0 0 3 0;
#X connect 1 0 5 0;
#X connect 2 0 0 0;
#X connect 4 0 1 0;
#X restore 398 29 pd colour;
#N canvas 231 173 450 364 creation 0;
#X obj 150 145 list;
#X obj 171 117 demux;
#X msg 276 43 1;
#X obj 123 93 demux;
#X obj 150 170 t a a;
#X obj 177 192 list split 2;
#X obj 90 269 list split 1000;
#X obj 90 307 outlet;
#X obj 133 307 s \$0-myvals;
#X obj 62 244 list split;
#X obj 177 218 list trim;
#X msg 119 221 2;
#X obj 276 21 receive \$0-created;
#X obj 177 244 route :H;
#X obj 171 93 receive \$0-canvass;
#X obj 83 145 s \$0-lbang;
#X obj 111 117 t b b b b;
#X obj 182 145 s \$0-splbc;
#X obj 123 71 ctxfiles/dv \$0 receive cntstrt;
#X connect 0 0 4 0;
#X connect 1 0 0 1;
#X connect 1 1 4 0;
#X connect 2 0 1 1;
#X connect 2 0 3 1;
#X connect 3 0 16 0;
#X connect 4 0 9 0;
#X connect 4 1 5 0;
#X connect 5 0 10 0;
#X connect 6 0 7 0;
#X connect 6 1 8 0;
#X connect 6 2 7 0;
#X connect 9 1 6 0;
#X connect 10 0 13 0;
#X connect 11 0 9 1;
#X connect 12 0 2 0;
#X connect 13 0 6 1;
#X connect 13 0 11 0;
#X connect 14 0 1 0;
#X connect 16 0 15 0;
#X connect 16 1 0 1;
#X connect 16 2 0 0;
#X connect 16 3 17 0;
#X connect 18 0 3 0;
#X restore 299 27 pd creation;
#N canvas 441 291 797 457 face 0;
#X obj 101 125 cnv 15 219 70 empty \$0-cbox ARRAY 6 10 0 11 -233017
-66577 0;
#X obj 353 347 t b;
#X obj 301 151 bng 14 250 50 0 \$0-savem \$0-colorme save now -51
8 0 10 -262144 -1 -1;
#X obj 301 105 bng 14 250 50 0 \$0-done empty ^ 3 10 0 15 -262144 -1
-1;
#X obj 401 210 iemguts/sendcanvas;
#X obj 353 302 iemguts/receivecanvas 2;
#X text 388 250 ctxfiles/menu \$0 :ts :t 40 15 points polygon curve
;
#X obj 471 124 tgl 15 0 empty empty empty 17 7 0 10 -262144 -1 -1 0
1;
#X obj 301 171 bng 14 250 50 0 \$0-clearme \$0-colorme clear -34 8
0 10 -262144 -1 -1;
#X obj 401 149 receive \$0-face;
#X obj 423 381 route 1;
#X obj 353 369 s \$0-mup;
#X obj 353 325 route mouseup done-popup;
#X obj 423 403 s \$0-openup;
#X obj 104 105 bng 14 250 50 0 \$0-obang \$0-obangr empty 17 7 0 10
-262144 -1 -1;
#X obj 183 35 receive \$0-:lo;
#X obj 183 57 s \$0-:loo;
#X floatatom 148 151 6 0 0 1 normalize #0-:ns #0-:nm, f 6;
#X floatatom 148 131 8 0 0 1 size #0-sizer #0-size, f 8;
#X floatatom 148 171 7 0 0 1 bit-rate #0-:bs #0-:br, f 7;
#X symbolatom 151 105 24 0 0 0 file #0-:loo #0-:l, f 24;
#X obj 301 131 tgl 14 1 \$0-:as \$0-:ass auto save -56 7 0 10 -262144
-1 -1 1 1;
#X obj 122 342 tgl 14 0 \$0-snapl \$0-:p1 left -24 7 0 10 -262144 -1
-1 0 1;
#X obj 150 342 tgl 14 0 \$0-snapr \$0-:p2 right 15 7 0 10 -262144 -1
-1 0 1;
#X obj 136 328 tgl 14 0 \$0-snapt \$0-:p3 top -2 -7 0 10 -262144 -1
-1 0 1;
#X obj 136 356 tgl 14 0 \$0-snapb \$0-:p4 bottom -10 21 0 10 -262144
-1 -1 0 1;
#X text 99 313 SNAP:;
#X obj 494 369 s \$0-cpr;
#X obj 494 347 ctxfiles/deb 700;
#X obj 101 199 cnv 15 219 50 empty \$0-cbox CANVAS 6 10 0 11 -233017
-66577 0;
#X obj 206 205 tgl 14 1 \$0-:ed \$0-:eds editable -50 8 0 10 -262144
-1 -1 1 1;
#X floatatom 283 205 5 0 0 0 y-bottom #0-:s2s #0-:s2, f 5;
#X floatatom 283 225 5 0 0 0 y-top #0-:s1s #0-:s1, f 5;
#X floatatom 195 224 8 0 0 0 colour #0-:cs #0-:c, f 8;
#X msg 401 174 coords 0 -1 1 1 221 150 \$1 100 100;
#X text 521 194 185;
#X obj 356 -18 receive \$0-lb1;
#X msg 356 4 100 sizer 1 :ns 44100 :bs 17 :cs -1 :s2s 1 :s1s;
#X obj 356 26 cyclone/zl iter 2;
#X obj 356 48 unpack f s;
#X obj 413 69 makefilename \$0-%s;
#X msg 356 70 set \$1;
#X obj 356 92 send;
#X obj 323 -13 bng 15 250 50 0 empty empty empty 17 7 0 10 -262144
-1 -1;
#X obj 107 223 ctxfiles/menu \$0 :li :lis   points polygon curve;
#X connect 1 0 11 0;
#X connect 5 0 12 0;
#X connect 7 0 34 0;
#X connect 9 0 34 0;
#X connect 10 0 13 0;
#X connect 12 0 1 0;
#X connect 12 1 10 0;
#X connect 12 2 28 0;
#X connect 15 0 16 0;
#X connect 28 0 27 0;
#X connect 34 0 4 0;
#X connect 36 0 37 0;
#X connect 37 0 38 0;
#X connect 38 0 39 0;
#X connect 39 0 41 0;
#X connect 39 1 40 0;
#X connect 40 0 42 1;
#X connect 41 0 42 0;
#X connect 43 0 37 0;
#X coords 0 -1 1 1 221 185 0;
#X restore 0 79 pd face;
#X obj 339 206 iemguts/propertybang;
#X obj 339 228 s \$0-prop;
#X obj 227 85 ctxfiles/saver \$0 lapp 2;
#X obj 161 155 receive \$0-savelist;
#X msg 161 177 click;
#X obj 161 199 text define -k \$0-save;
#A set \; %^ :lo bang \; %^ :x1 0 \; %^ :x2 0 \; %^ :y1 0 \; %^ :y2
0 \; %^ :c 17 \; %^ :s1 1 \; %^ :s2 -1 \; %^ :nm 1 \; %^ :li 0 \; %^
:br 44100 \; %^ :p1 0 \; %^ :p2 0 \; %^ :p3 0 \; %^ :p4 0 \; %^ :ed
1 \; %^ :as 1 \;;
#X obj 108 17 receive \$0-iemargr;
#N canvas 484 188 450 300 set 0;
#X obj 105 20 receive \$0-setme;
#X obj 105 42 route *;
#X obj 144 64 cyclone/zl iter 2;
#X obj 109 154 array set c\$0;
#X obj 105 64 t a b;
#X obj 144 86 unpack;
#X obj 132 108 t f;
#X obj 184 128 receive \$0-name;
#X connect 0 0 1 0;
#X connect 1 0 4 0;
#X connect 1 1 2 0;
#X connect 2 0 5 0;
#X connect 4 0 3 0;
#X connect 4 1 6 0;
#X connect 5 0 3 0;
#X connect 5 1 3 1;
#X connect 6 0 3 1;
#X connect 7 0 3 2;
#X restore 498 114 pd set;
#X connect 3 0 4 0;
#X connect 5 0 3 0;
#X connect 8 0 9 0;
#X connect 10 0 7 0;
#X connect 11 0 13 0;
#X connect 17 0 9 0;
#X connect 19 0 20 0;
#X connect 22 0 23 0;
#X connect 23 0 24 0;
#X connect 25 0 11 0;
#X coords 0 -1 1 1 48 22 2 0 3;
