#N canvas 222 201 963 415 10;
#X declare -lib zexy -path zexy -path ./;
#N canvas 67 225 974 495 move 0;
#X obj 117 100 bng 17 250 50 0 \$0v empty ▼ 6 8 0 10 -262144 -1 -1
;
#X obj 100 100 bng 17 250 50 0 \$0^ empty ▲ 6 7 0 10 -262144 -1 -1
;
#X obj 151 100 bng 17 250 50 0 \$0> empty ▶ 6 8 0 11 -262144 -1 -1
;
#X obj 134 100 bng 17 250 50 0 \$0< empty ◀ 4 8 0 11 -262144 -1 -1
;
#X text 155 466 14: call 8 rows of the matrix;
#X obj 147 509 +;
#X obj 59 409 t b f;
#X text 177 506 14.1: offset for up-down control;
#X text 199 725 15: split 8 rows of the matrix and offset for right-left
control, f 34;
#X obj 622 471 unpack;
#X obj 622 516 - 8;
#X obj 661 516 - 8;
#X obj 343 790 route 0;
#X obj 168 100 hradio 17 1 0 4 \$0-mode \$0-moder empty 0 -8 0 10 -262144
-1 -1 1;
#X obj 170 623 pack f \$0 0.5 1;
#X obj 193 652 pack f \$0 0 0;
#X obj 656 391 receive \$0-mmax-b;
#X obj 622 369 receive \$0-mmax-a;
#X obj 622 391 pack;
#X obj 656 413 pack;
#X obj 88 382 s \$0-ushift-1;
#X obj 661 494 max 8;
#X obj 622 494 max 8;
#X msg 389 814 \; \$4-\$3-\$2-on bang;
#X msg 343 851 \; \$3-\$2-\$1-off bang;
#X obj 308 382 s \$0-lshift-1;
#X obj 86 297 s \$0-ushift;
#X obj 306 294 s \$0-lshift;
#X obj 751 299 receive \$0-mmax-c;
#X obj 751 321 t b f;
#X obj 751 343 pack 100 f;
#X obj 352 431 f -100;
#X obj 928 269 s \$0-midon;
#X obj 117 360 s \$0-ushift-2;
#X obj 337 361 s \$0-lshift-2;
#X obj -39 -171 f;
#X obj -39 -216 sel 127;
#X obj -39 -308 ctlin;
#X text 431 473 reset y limit on mode 2;
#X obj 722 -226 + 108;
#X obj 722 -61 ctlout;
#X obj 752 -177 f;
#X obj 722 -203 t f f b;
#X obj 752 -155 swap 0;
#X text 739 -266 colour mode toggles;
#X obj 529 570 receive \$0-ushift;
#X obj 529 592 t f f;
#X obj 529 642 t f b;
#X obj 573 642 t f b;
#X obj 561 664 f 104;
#X obj 605 664 f 105;
#X obj 529 685 * 87;
#X obj 610 766 ctlout;
#X obj 573 620 <;
#X obj 385 473 t f f;
#X obj 529 620 >;
#X obj 658 592 t f f;
#X obj 658 642 t f b;
#X obj 702 642 t f b;
#X obj 658 685 * 87;
#X obj 702 620 <;
#X obj 658 620 >;
#X obj 658 570 receive \$0-lshift;
#X obj 690 664 f 106;
#X obj 734 664 f 107;
#X text 580 785 color arrow keys;
#X obj 575 164 receive \$0-calcend;
#X msg 193 688 \; \$2-tomatrix-\$3 \$2-rset-\$4 row \$1;
#X obj 152 763 ctxfiles/gmp \$0 rset-1;
#X obj 343 765 ctxfiles/gmp \$0 rset-0;
#X obj 181 418 t b f f f;
#X obj 147 536 t f f f;
#X obj 147 573 pack f \$0 0.6 2;
#X obj 56 833 ctxfiles/gmp \$0 rset-2;
#X obj 147 487 t f f f f;
#X msg 56 857 \; \$4-\$3-\$2-dollarz \$1;
#X obj 853 245 s \$0-gridon;
#X obj 622 304 s \$0-mode0;
#X obj 640 283 s \$0-mode1;
#X obj 659 262 s \$0-mode2;
#X obj 400 452 receive \$0-mode0;
#X obj 400 431 receive \$0-mode1;
#X obj 352 410 receive \$0-mode2;
#X obj 661 538 t f b f;
#X obj 594 538 t f b f;
#X obj 997 245 s \$0-righton;
#X obj -12 -38 sel 104 105 106 107;
#X obj 147 339 s \$0-ushift-3;
#X obj 367 340 s \$0-lshift-3;
#X obj 780 -177 tabread \$0-mode;
#X obj 722 -131 swap 87;
#X obj 892 162 s \$0-mixon;
#X obj 454 -82 receive \$0-mode;
#X obj 974 140 s \$0-firstmode;
#X obj -39 -239 spigot;
#X obj 33 -231 receive \$0-turnmeons;
#X obj 722 -86 spigot;
#X obj 761 -108 receive \$0-turnmeons;
#X obj 610 743 spigot;
#X obj 649 721 receive \$0-turnmeons;
#X obj 892 140 change;
#X obj 677 241 s \$0-mode3;
#X text 824 433 <these were banged \, but I think it was because of
incorrect trigger order in the big trigger above. If theres a problem
with the movement thresholds \, return the bang.;
#X obj 796 371 receive \$0-mmax-d;
#X obj 796 393 t b f;
#X obj 423 -108 receive \$0-review;
#X msg 361 -87 stop;
#X obj 361 -40 f 1;
#X obj 328 -16 spigot;
#X obj 361 -62 del 300;
#X obj 299 -16 f;
#X obj 328 13 f 104;
#X obj 377 58 s \$0-stopdub;
#X obj 328 35 t f f b;
#X obj -12 -103 demux;
#X obj 15 -125 receive \$0-shifton;
#X obj 15 -82 s \$0-topshift;
#X obj 527 74 s \$0-modestop;
#X msg 527 50 stop;
#X obj 59 453 + 1;
#X obj 86 518 t f f;
#X obj 59 497 sel 9;
#X obj 59 431 t f;
#X obj 322 -186 >= 108;
#X obj 295 -164 demux;
#X msg 232 -111 stop;
#X obj 255 -79 del 500;
#X obj -84 -12 moses 108;
#X obj -12 -61 t f f b;
#X obj 244 7 f;
#X obj 272 7 + 1;
#X obj -39 -194 t b b;
#X obj 255 -57 metro 142;
#X obj 853 223 == 1;
#X obj 928 223 == 2;
#X obj 997 223 == 3;
#X obj 892 118 == 4;
#X obj 622 220 sel 0 1 2 3 4;
#X obj 622 443 mux 0 1 2 3 4;
#X obj 279 319 demux 0 1 2 3 4;
#X obj 59 318 demux 0 1 2 3 4;
#X obj 423 -83 f 1;
#X obj 238 599 - 0.5;
#X obj 330 569 - 1;
#X obj 213 541 - 0.4;
#X obj 778 223 ==;
#X obj 778 245 s \$0-overon;
#X obj 602 324 s \$0-mode-1;
#X obj 572 371 pack;
#X obj 572 349 receive \$0-mmax-z;
#X obj 589 -14 sel 0;
#X obj 551 -105 receive \$0-force4;
#X obj 796 416 pack 100 f;
#X obj 28 359 s \$0-ushift-0;
#X obj 549 131 s \$0-mafter;
#X obj 99 -14 moses 108;
#X obj 150 9 moses 112;
#X obj 921 18 receive \$0-imoff;
#X msg 921 40 set -1;
#X obj 244 34 moses 6;
#X obj 295 57 t b;
#X obj 59 475 pipe 20;
#X obj -26 -284 spigot;
#X obj 928 246 change;
#X obj 1059 41 sel 1;
#X obj 1086 65 t f f f f;
#X msg 152 787 \; \$4-\$3-\$2-s \$1;
#X text 94 801 color -->;
#X obj 59 275 t f f;
#X obj 575 188 t b f;
#X obj 279 268 t f f;
#X obj 435 302 demux 0 1 2 3 4;
#X msg 435 278 clear;
#X obj 478 325 s \$0-interr-1;
#X obj 240 -134 t b f b;
#X obj -32 12 t f;
#X obj -84 10 t b f;
#X obj -26 -261 t f f;
#X obj -39 -148 t f f;
#X obj -12 -125 f;
#X obj 255 -35 t b b b;
#X obj -57 35 change;
#X obj 296 147 f 1;
#X obj 345 147 f 1;
#X obj 246 146 t f f;
#X obj 59 198 ctxfiles/db updub###;
#X obj 279 243 ctxfiles/db downdub###;
#X obj 247 117 sel 0 104 105 106 107;
#X obj 322 -111 t f b b f;
#X text 335 -132 snap back function;
#X text 173 -44 roll function;
#X obj 150 56 - 108;
#X obj 189 56 ==;
#X obj 187 79 spigot;
#X obj 454 9 t b b f f f f f b f f f f f f f f f f f f;
#X obj 204 33 + 108;
#X obj 150 79 t f f;
#X obj 150 33 t f f f;
#X obj 706 -288 t f f;
#X obj 454 -59 t f f f;
#N canvas 67 87 450 506 double-clicks 0;
#X obj 69 15 inlet;
#X obj 117 188 s \$0-calc;
#X obj 146 251 s \$0-1xy;
#X obj 109 90 f -1;
#X obj 69 40 t f f b f;
#X text 136 117 process double clicks on mode switch;
#X obj 146 229 t b b;
#X obj 178 272 f;
#X obj 178 294 ==;
#X obj 178 362 s \$0-1xym;
#X obj 178 316 t f f b f;
#X obj 236 229 t b b;
#X obj 268 272 f;
#X obj 268 294 ==;
#X obj 268 316 t f f b f;
#X obj 326 229 t b b;
#X obj 358 272 f;
#X obj 358 294 ==;
#X obj 358 316 t f f b f;
#X obj 236 251 s \$0-2xy;
#X obj 268 362 s \$0-2xym;
#X obj 358 362 s \$0-3xym;
#X obj 326 251 s \$0-3xy;
#X obj 195 440 tabwrite \$0-mode;
#X obj 129 18 receive \$0-stopdub;
#X obj 117 165 demux 0 1 2 3 4;
#X obj 218 339 f 2;
#X obj 308 339 f 3;
#X obj 398 339 f 4;
#X obj 90 118 sel 1;
#X obj 109 68 del 300;
#X obj 90 141 t b b;
#X obj 90 164 del;
#X obj 195 392 * -6;
#X obj 195 415 + 87;
#X obj 191 56 array define -k \$0-mode 5;
#A 0 87 87 87 87 87;
#X connect 0 0 4 0;
#X connect 3 0 29 1;
#X connect 4 0 29 1;
#X connect 4 1 29 0;
#X connect 4 2 30 0;
#X connect 4 3 25 1;
#X connect 6 0 2 0;
#X connect 6 1 7 0;
#X connect 7 0 8 0;
#X connect 8 0 10 0;
#X connect 10 0 9 0;
#X connect 10 1 33 0;
#X connect 10 2 26 0;
#X connect 10 3 7 1;
#X connect 11 0 19 0;
#X connect 11 1 12 0;
#X connect 12 0 13 0;
#X connect 13 0 14 0;
#X connect 14 0 20 0;
#X connect 14 1 33 0;
#X connect 14 2 27 0;
#X connect 14 3 12 1;
#X connect 15 0 22 0;
#X connect 15 1 16 0;
#X connect 16 0 17 0;
#X connect 17 0 18 0;
#X connect 18 0 21 0;
#X connect 18 1 33 0;
#X connect 18 2 28 0;
#X connect 18 3 16 1;
#X connect 24 0 3 0;
#X connect 25 1 1 0;
#X connect 25 2 6 0;
#X connect 25 3 11 0;
#X connect 25 4 15 0;
#X connect 26 0 23 1;
#X connect 27 0 23 1;
#X connect 28 0 23 1;
#X connect 29 0 31 0;
#X connect 30 0 3 0;
#X connect 31 0 32 0;
#X connect 31 1 25 0;
#X connect 32 0 3 0;
#X connect 33 0 34 0;
#X connect 34 0 23 0;
#X restore 493 -35 pd double-clicks;
#X obj 416 -59 t f f;
#X obj 551 -82 t f f;
#N canvas 551 185 569 523 :N 0;
#X obj 43 22 inlet;
#X obj 166 16 inlet;
#X obj 62 69 f 1;
#X obj 62 116 s \$0-stealside;
#X obj 72 161 receive \$0-stoleside;
#X obj 111 342 -;
#X obj 111 365 list prepend :N;
#X obj 166 39 spigot;
#X obj 231 62 t f;
#X obj 111 319 swap 8;
#X obj 62 92 t f f;
#X obj 111 388 send;
#X obj 156 331 makefilename \$0-npref-%i;
#X obj 303 101 receive \$0-insertN;
#X obj 324 149 receive \$0-npref-2;
#X obj 303 172 list;
#X obj 303 124 t b f;
#X obj 303 195 route bang;
#X obj 381 195 makefilename %i-notsafe;
#X obj 360 218 send;
#X obj 344 124 receive \$0-npref-3;
#X obj 43 45 t b b f;
#X obj 12 94 f 3;
#X obj 12 139 s \$0-stealside3;
#X obj 166 62 t f f b b;
#X obj 111 293 t f b;
#X obj 41 167 t f;
#X obj 106 208 del 250;
#X obj 106 231 f -1;
#X obj 78 258 sel -1;
#X text 147 248 identify double clicks of stolen function key;
#X obj 68 293 t b b;
#X obj 101 418 receive \$0-midon;
#X obj 68 443 spigot;
#X obj 72 184 t f f b f;
#X obj 68 466 f;
#X obj 68 490 s \$0-vselr;
#X connect 0 0 21 0;
#X connect 1 0 7 0;
#X connect 2 0 10 0;
#X connect 4 0 34 0;
#X connect 5 0 6 0;
#X connect 6 0 11 0;
#X connect 7 0 24 0;
#X connect 8 0 7 1;
#X connect 9 0 5 0;
#X connect 9 1 5 1;
#X connect 10 0 3 0;
#X connect 10 1 7 1;
#X connect 12 0 11 1;
#X connect 13 0 16 0;
#X connect 14 0 15 1;
#X connect 15 0 17 0;
#X connect 16 0 15 0;
#X connect 16 1 18 0;
#X connect 17 1 19 0;
#X connect 18 0 19 1;
#X connect 20 0 15 1;
#X connect 21 0 22 0;
#X connect 21 1 2 0;
#X connect 21 2 12 0;
#X connect 22 0 23 0;
#X connect 24 0 23 0;
#X connect 24 1 3 0;
#X connect 24 2 11 0;
#X connect 24 3 8 0;
#X connect 25 0 9 0;
#X connect 25 1 26 0;
#X connect 26 0 23 0;
#X connect 27 0 28 0;
#X connect 28 0 29 1;
#X connect 29 0 31 0;
#X connect 29 1 25 0;
#X connect 31 0 33 0;
#X connect 31 1 11 0;
#X connect 32 0 33 1;
#X connect 33 0 35 0;
#X connect 34 0 29 1;
#X connect 34 1 29 0;
#X connect 34 2 27 0;
#X connect 34 3 35 1;
#X connect 35 0 36 0;
#X restore 239 86 pd :N function;
#X obj 328 58 sel 104;
#X obj 179 -295 receive \$0-mode3fromB;
#X obj 179 -272 t b b;
#X obj 179 -249 f 3;
#X obj 206 -249 f 111;
#X obj 414 -233 receive \$0-sstart2;
#X obj 181 394 spigot;
#X obj 214 361 receive \$0-sstart3;
#X obj 512 -196 receive \$0-resetm0;
#X msg 512 -173 set -1;
#X obj 454 -14 change -1;
#X connect 0 0 185 0;
#X connect 1 0 185 1;
#X connect 2 0 186 0;
#X connect 3 0 186 1;
#X connect 5 0 71 0;
#X connect 6 0 122 0;
#X connect 6 1 5 1;
#X connect 9 0 22 0;
#X connect 9 1 21 0;
#X connect 10 0 84 0;
#X connect 11 0 83 0;
#X connect 12 0 24 0;
#X connect 12 1 23 0;
#X connect 14 0 67 0;
#X connect 15 0 67 0;
#X connect 16 0 19 0;
#X connect 17 0 18 0;
#X connect 18 0 138 1;
#X connect 19 0 138 2;
#X connect 21 0 11 0;
#X connect 22 0 10 0;
#X connect 28 0 29 0;
#X connect 29 0 30 0;
#X connect 29 1 30 1;
#X connect 30 0 138 3;
#X connect 31 0 54 0;
#X connect 35 0 178 0;
#X connect 36 0 131 0;
#X connect 36 1 124 0;
#X connect 37 0 94 0;
#X connect 37 1 162 0;
#X connect 39 0 42 0;
#X connect 41 0 43 0;
#X connect 42 0 90 0;
#X connect 42 1 41 1;
#X connect 42 2 41 0;
#X connect 43 0 96 0;
#X connect 43 1 40 1;
#X connect 45 0 46 0;
#X connect 46 0 55 0;
#X connect 46 1 53 0;
#X connect 47 0 51 0;
#X connect 47 1 49 0;
#X connect 48 0 51 0;
#X connect 48 1 50 0;
#X connect 49 0 52 1;
#X connect 50 0 52 1;
#X connect 51 0 98 0;
#X connect 53 0 48 0;
#X connect 54 0 185 2;
#X connect 54 1 55 1;
#X connect 55 0 47 0;
#X connect 56 0 61 0;
#X connect 56 1 60 0;
#X connect 57 0 59 0;
#X connect 57 1 63 0;
#X connect 58 0 59 0;
#X connect 58 1 64 0;
#X connect 59 0 98 0;
#X connect 60 0 58 0;
#X connect 61 0 57 0;
#X connect 62 0 56 0;
#X connect 63 0 52 1;
#X connect 64 0 52 1;
#X connect 66 0 169 0;
#X connect 68 0 166 0;
#X connect 69 0 12 0;
#X connect 70 0 122 0;
#X connect 70 1 69 0;
#X connect 70 2 68 0;
#X connect 70 3 73 0;
#X connect 71 0 72 0;
#X connect 71 1 14 0;
#X connect 71 2 15 0;
#X connect 72 0 67 0;
#X connect 73 0 75 0;
#X connect 74 0 5 0;
#X connect 74 1 68 1;
#X connect 74 2 69 1;
#X connect 74 3 73 1;
#X connect 80 0 54 0;
#X connect 81 0 54 0;
#X connect 82 0 31 0;
#X connect 83 0 186 3;
#X connect 83 1 60 0;
#X connect 83 2 60 1;
#X connect 84 0 185 3;
#X connect 84 1 53 0;
#X connect 84 2 53 1;
#X connect 86 0 1 0;
#X connect 86 1 0 0;
#X connect 86 2 3 0;
#X connect 86 3 2 0;
#X connect 86 4 155 0;
#X connect 89 0 90 1;
#X connect 90 0 96 0;
#X connect 90 1 40 1;
#X connect 92 0 199 0;
#X connect 94 0 36 0;
#X connect 95 0 94 1;
#X connect 95 0 162 1;
#X connect 95 0 164 0;
#X connect 96 0 40 0;
#X connect 97 0 96 1;
#X connect 98 0 52 0;
#X connect 99 0 98 1;
#X connect 100 0 91 0;
#X connect 103 0 104 0;
#X connect 104 0 152 0;
#X connect 104 1 152 1;
#X connect 105 0 141 0;
#X connect 106 0 109 0;
#X connect 107 0 108 1;
#X connect 108 0 111 0;
#X connect 109 0 107 0;
#X connect 110 0 111 1;
#X connect 111 0 113 0;
#X connect 113 0 204 0;
#X connect 113 1 110 0;
#X connect 113 2 112 0;
#X connect 114 0 128 0;
#X connect 114 1 116 0;
#X connect 115 0 114 1;
#X connect 118 0 117 0;
#X connect 119 0 161 0;
#X connect 120 0 119 0;
#X connect 120 1 74 0;
#X connect 121 1 120 0;
#X connect 122 0 119 0;
#X connect 123 0 124 1;
#X connect 124 0 174 0;
#X connect 124 1 188 0;
#X connect 125 0 126 0;
#X connect 125 0 132 0;
#X connect 126 0 132 0;
#X connect 127 0 176 0;
#X connect 128 0 86 0;
#X connect 128 1 110 1;
#X connect 128 2 110 0;
#X connect 129 0 130 0;
#X connect 129 0 159 0;
#X connect 130 0 129 1;
#X connect 131 0 35 0;
#X connect 131 1 109 0;
#X connect 132 0 180 0;
#X connect 133 0 76 0;
#X connect 134 0 163 0;
#X connect 135 0 85 0;
#X connect 136 0 100 0;
#X connect 137 0 147 0;
#X connect 137 1 77 0;
#X connect 137 1 18 0;
#X connect 137 2 78 0;
#X connect 137 3 79 0;
#X connect 137 4 101 0;
#X connect 138 0 9 0;
#X connect 139 1 210 0;
#X connect 139 2 25 0;
#X connect 139 3 34 0;
#X connect 139 4 88 0;
#X connect 140 0 153 0;
#X connect 140 1 6 0;
#X connect 140 2 20 0;
#X connect 140 3 33 0;
#X connect 140 4 87 0;
#X connect 141 0 201 0;
#X connect 142 0 14 2;
#X connect 143 0 15 2;
#X connect 144 0 72 2;
#X connect 145 0 146 0;
#X connect 148 0 138 0;
#X connect 149 0 148 0;
#X connect 150 1 141 1;
#X connect 151 0 202 0;
#X connect 152 0 138 4;
#X connect 155 1 156 0;
#X connect 156 0 197 0;
#X connect 157 0 158 0;
#X connect 158 0 100 0;
#X connect 159 1 160 0;
#X connect 160 0 174 0;
#X connect 161 0 121 0;
#X connect 162 0 177 0;
#X connect 163 0 32 0;
#X connect 164 1 165 0;
#X connect 165 0 146 0;
#X connect 165 1 76 0;
#X connect 165 2 163 0;
#X connect 165 3 85 0;
#X connect 168 0 140 0;
#X connect 168 1 26 0;
#X connect 169 0 186 4;
#X connect 169 1 5 1;
#X connect 170 0 139 0;
#X connect 170 1 27 0;
#X connect 171 1 161 0;
#X connect 171 2 173 0;
#X connect 172 0 171 0;
#X connect 174 0 125 0;
#X connect 174 1 129 1;
#X connect 174 2 175 0;
#X connect 175 0 181 0;
#X connect 176 0 126 0;
#X connect 176 1 181 0;
#X connect 177 0 35 1;
#X connect 177 1 123 0;
#X connect 178 0 127 0;
#X connect 178 1 179 0;
#X connect 179 0 114 0;
#X connect 180 0 179 0;
#X connect 180 1 129 0;
#X connect 180 2 175 0;
#X connect 181 0 187 0;
#X connect 182 0 185 5;
#X connect 183 0 186 5;
#X connect 184 0 185 5;
#X connect 184 1 186 5;
#X connect 185 0 168 0;
#X connect 185 1 172 0;
#X connect 186 0 170 0;
#X connect 186 1 172 0;
#X connect 187 0 184 0;
#X connect 187 1 182 0;
#X connect 187 2 182 0;
#X connect 187 3 183 0;
#X connect 187 4 183 0;
#X connect 188 0 108 1;
#X connect 188 1 108 0;
#X connect 188 2 106 0;
#X connect 188 3 203 1;
#X connect 191 0 196 0;
#X connect 192 0 193 1;
#X connect 193 0 203 0;
#X connect 194 0 186 4;
#X connect 194 1 185 4;
#X connect 194 4 142 0;
#X connect 194 5 143 0;
#X connect 194 6 150 0;
#X connect 194 7 118 0;
#X connect 194 8 154 0;
#X connect 194 9 145 0;
#X connect 194 10 140 1;
#X connect 194 10 171 1;
#X connect 194 11 139 1;
#X connect 194 12 137 0;
#X connect 194 13 134 0;
#X connect 194 13 135 0;
#X connect 194 14 136 0;
#X connect 194 15 144 0;
#X connect 194 16 133 0;
#X connect 194 17 93 0;
#X connect 194 18 138 5;
#X connect 194 19 195 0;
#X connect 195 0 192 1;
#X connect 196 0 13 0;
#X connect 196 1 193 0;
#X connect 197 0 191 0;
#X connect 197 1 204 1;
#X connect 197 2 192 0;
#X connect 198 0 39 0;
#X connect 198 1 89 0;
#X connect 199 0 198 0;
#X connect 199 1 214 0;
#X connect 199 2 200 0;
#X connect 201 0 198 0;
#X connect 201 1 194 0;
#X connect 202 0 198 0;
#X connect 202 1 194 0;
#X connect 204 1 86 0;
#X connect 205 0 206 0;
#X connect 206 0 207 0;
#X connect 206 1 208 0;
#X connect 207 0 13 0;
#X connect 208 0 110 1;
#X connect 209 0 141 0;
#X connect 210 0 70 0;
#X connect 211 0 210 1;
#X connect 212 0 213 0;
#X connect 213 0 214 0;
#X connect 214 0 194 0;
#X coords 0 -1 1 1 136 17 2 100 100;
#X restore 100 100 pd move;
#X obj 826 18 bng 15 250 50 0 empty empty empty 17 7 0 10 -262144 -1
-1;
#X obj 826 38 s \$0-clear;
#X obj 102 27 ctxfiles/license;
#X obj 429 18 ctxfiles/share ctxfiles/launch-share;
#N canvas 191 256 794 372 loadbang 0;
#X obj 145 9 loadbang;
#X obj 145 31 ctxfiles/myinit 3;
#X obj 179 95 s \$0-lb;
#X obj 196 212 pack f f f f f f f f f f f f f f f f;
#X obj 196 236 send \$0-padd;
#X obj 213 74 s \$0-alloff;
#X obj 162 121 s \$0-carg;
#X obj 145 259 s \$0-carg1;
#X obj 230 145 del 1000;
#X obj 230 189 s \$0-savestart;
#X obj 230 167 f 1;
#X obj 425 152 s \$0-myID;
#X obj 568 30 symbol grd%;
#X obj 463 98 ctxfiles/idcontrol;
#X obj 515 53 receive \$0-Cbang;
#X obj 431 307 array set grd%-colshare;
#X obj 463 120 t f f;
#X obj 490 141 - 1;
#X obj 490 163 t f f;
#X obj 490 186 >=;
#X obj 431 238 spigot;
#X obj 431 213 receive \$0-toid;
#X obj 515 75 t b f;
#X obj 145 53 t b b b b b b b b b;
#X obj 48 158 del 200;
#X obj 82 224 s \$0-sstart2;
#X obj 99 203 s \$0-sstart1;
#X obj 48 181 t b b b b;
#X obj 48 297 s \$0-calc;
#X obj 65 246 f 1;
#X obj 65 269 s \$0-sstart3;
#X obj 431 261 sel 0;
#X obj 431 284 f 0.5;
#X connect 0 0 1 0;
#X connect 1 0 23 0;
#X connect 3 0 4 0;
#X connect 8 0 10 0;
#X connect 10 0 9 0;
#X connect 12 0 13 2;
#X connect 13 0 16 0;
#X connect 14 0 22 0;
#X connect 16 0 11 0;
#X connect 16 1 17 0;
#X connect 17 0 18 0;
#X connect 18 0 19 0;
#X connect 18 1 15 1;
#X connect 19 0 20 1;
#X connect 20 0 31 0;
#X connect 21 0 20 0;
#X connect 22 0 13 1;
#X connect 22 1 20 0;
#X connect 23 0 24 0;
#X connect 23 1 7 0;
#X connect 23 2 6 0;
#X connect 23 3 2 0;
#X connect 23 4 3 0;
#X connect 23 5 5 0;
#X connect 23 6 8 0;
#X connect 23 7 13 0;
#X connect 23 8 12 0;
#X connect 24 0 27 0;
#X connect 27 0 28 0;
#X connect 27 1 29 0;
#X connect 27 2 25 0;
#X connect 27 3 26 0;
#X connect 29 0 30 0;
#X connect 31 0 32 0;
#X connect 31 1 15 0;
#X connect 32 0 15 0;
#X restore 429 38 pd loadbang;
#N canvas 436 89 835 639 print 0;
#X obj 469 452 midiout;
#X msg 469 426 240 \, 0 \, 32 \, 41 \, 2 \, 24 \, 14 \, 0 \, 247;
#X text 523 452 turn off all lights on close;
#X obj 385 44 receive \$0-gprint;
#X obj 385 90 route bang;
#X obj 442 304 list append 247;
#X text 539 66 print right hand symbols;
#X obj 442 346 cyclone/iter;
#X obj 442 282 list prepend 240 0 32 41 2 24 20 1 0 6;
#X obj 385 66 spigot;
#X obj 496 44 del 1000;
#X obj 496 66 f 1;
#X obj 496 22 receive \$0-lb;
#X obj 554 304 receive \$0-tomidi;
#X obj 367 451 v \$0-myID;
#X obj 367 473 s off^^hUUji;
#X text 452 479 to launch-share;
#X obj 573 474 s \$0-Cbang;
#X obj 450 394 t b b b;
#X obj 450 370 inlet;
#X msg 221 207 240 0 32 41 2 24 20 47 0 247;
#X msg 66 309 240 0 32 41 2 24 20 47 0 7 67 79 78 84 69 88 84 247;
#X obj 461 159 list length;
#X obj 461 206 del;
#X obj 461 182 * 500;
#X obj 442 112 t l l b;
#X obj 461 229 t f;
#X obj 461 252 s \$0-stempoff;
#X obj 481 135 f 2;
#X obj 221 151 receive \$0-interrupt;
#X obj 221 174 t b b;
#X connect 1 0 0 0;
#X connect 3 0 9 0;
#X connect 4 1 25 0;
#X connect 5 0 7 0;
#X connect 7 0 0 0;
#X connect 8 0 5 0;
#X connect 9 0 4 0;
#X connect 10 0 11 0;
#X connect 11 0 9 1;
#X connect 12 0 10 0;
#X connect 13 0 7 0;
#X connect 14 0 15 0;
#X connect 18 0 14 0;
#X connect 18 1 1 0;
#X connect 18 2 17 0;
#X connect 19 0 18 0;
#X connect 20 0 7 0;
#X connect 21 0 7 0;
#X connect 22 0 24 0;
#X connect 23 0 26 0;
#X connect 24 0 23 0;
#X connect 25 0 8 0;
#X connect 25 1 22 0;
#X connect 25 2 28 0;
#X connect 26 0 27 0;
#X connect 28 0 27 0;
#X connect 29 0 30 0;
#X connect 30 0 20 0;
#X connect 30 1 26 0;
#X restore 560 297 pd print;
#X obj 100 120 ctxfiles/p3 1 \$0 8;
#N canvas 67 135 860 567 right-column 0;
#X obj 187 -147 receive \$0-8-9-inn;
#X obj 216 -125 receive \$0-7-9-inn;
#X obj 245 -103 receive \$0-6-9-inn;
#X obj 274 -81 receive \$0-5-9-inn;
#X obj 322 -147 receive \$0-4-9-inn;
#X obj 351 -125 receive \$0-3-9-inn;
#X obj 380 -103 receive \$0-2-9-inn;
#X obj 409 -81 receive \$0-1-9-inn;
#X obj 210 -40 cyclone/funnel 8;
#X obj 280 302 f;
#X obj 350 360 -;
#X obj 264 362 -;
#X obj 264 340 swap 8;
#X obj 350 338 swap 8;
#X obj 264 571 noteout 1;
#X obj 264 384 t f b;
#X obj 350 384 t f b;
#X obj 382 406 t f;
#X obj 296 406 f 59;
#X obj 264 545 + 9;
#X obj 210 189 t f f;
#X obj 241 276 t f f b;
#X obj 181 -81 receive \$0-lb;
#X obj 47 205 receive \$0-vsels;
#X obj 47 174 s \$0-vselr;
#X obj 479 114 receive \$0-mode0;
#X obj 688 115 receive \$0-mode2;
#X obj 498 309 s \$0-tomidi;
#X text 595 234 switch between different color options for last toggle
;
#X obj 584 115 receive \$0-mode1;
#X msg 498 287 240 0 32 41 2 24 12 8 0 247;
#X obj 479 164 f \$0;
#X msg 479 186 send \$1-revsel;
#X obj 126 98 receive \$0-revsel;
#X obj 78 282 receive \$0-firstmode;
#X obj 425 362 receive \$0-reright;
#X obj 368 158 cyclone/uzi 8;
#X obj 435 491 s \$0-vselpre;
#X obj 210 166 t f b;
#X obj 431 458 f 1;
#X obj 297 445 receive \$0-turnmeons;
#N canvas 265 193 450 339 fake-fader 0;
#X obj 123 37 inlet;
#X obj 123 84 t b f;
#X obj 123 107 cyclone/uzi 8;
#X obj 257 166 t f b;
#X obj 211 166 t f b;
#X obj 243 201 t f;
#X obj 289 201 f 59;
#X obj 289 228 outlet;
#X obj 211 227 swap 8;
#X obj 211 249 -;
#X obj 211 294 outlet;
#X obj 166 84 receive \$0-mode3;
#X obj 211 271 + 1;
#X obj 123 59 + 1;
#X obj 211 129 moses 8;
#X connect 0 0 13 0;
#X connect 1 0 2 0;
#X connect 1 1 14 1;
#X connect 2 2 14 0;
#X connect 3 0 8 0;
#X connect 3 1 6 0;
#X connect 4 0 8 0;
#X connect 4 1 5 0;
#X connect 5 0 7 0;
#X connect 6 0 7 0;
#X connect 8 0 9 0;
#X connect 8 1 9 1;
#X connect 9 0 12 0;
#X connect 11 0 2 0;
#X connect 12 0 10 0;
#X connect 13 0 1 0;
#X connect 14 0 4 0;
#X connect 14 1 3 0;
#X restore 330 234 pd fake-fader;
#X obj 210 -18 unpack;
#X obj 210 4 spigot;
#X text 258 -17 filter out up-clicks here (can easily be reclaimed
if needed);
#X obj 210 122 demux;
#X obj 237 98 receive \$0-shifton;
#X obj 237 145 s \$0-rightshift;
#X obj 243 211 demux 0 1 2 3 4;
#X obj 368 114 receive \$0-mode-1;
#X obj 368 136 t b b;
#X obj 47 307 pack f f \$0;
#X msg 47 331 \; \$3-\$1-vsel \$2;
#X obj 74 72 receive \$0-midon;
#X obj 47 98 demux;
#X obj 479 138 t b b f;
#X obj 347 302 f;
#X obj 308 276 t f f b;
#X obj 688 137 t b b f;
#X obj 689 164 f \$0;
#X msg 689 186 send \$1-revsel;
#X obj 210 49 demux;
#X obj 237 26 receive \$0-stealside;
#X obj 237 73 s \$0-stoleside;
#X obj 59 149 f;
#X obj 584 138 t b f b b;
#X obj 47 228 t f f;
#X obj 74 256 spigot;
#X obj 264 469 spigot;
#X obj 264 519 * 10;
#X obj 264 492 t f b;
#X obj 315 541 f 1;
#X obj 147 415 receive \$0-funcflash;
#X obj 147 438 spigot;
#X obj 147 461 unpack f f f;
#X connect 0 0 8 0;
#X connect 1 0 8 1;
#X connect 2 0 8 2;
#X connect 3 0 8 3;
#X connect 4 0 8 4;
#X connect 5 0 8 5;
#X connect 6 0 8 6;
#X connect 7 0 8 7;
#X connect 8 0 42 0;
#X connect 9 0 13 0;
#X connect 10 0 16 0;
#X connect 11 0 15 0;
#X connect 12 0 11 0;
#X connect 12 1 11 1;
#X connect 13 0 10 0;
#X connect 13 1 10 1;
#X connect 15 0 68 0;
#X connect 15 1 18 0;
#X connect 16 0 68 0;
#X connect 16 1 17 0;
#X connect 17 0 14 1;
#X connect 18 0 14 1;
#X connect 19 0 14 0;
#X connect 20 0 54 0;
#X connect 20 1 48 0;
#X connect 21 0 12 0;
#X connect 21 1 9 1;
#X connect 21 2 9 0;
#X connect 22 0 8 0;
#X connect 23 0 66 0;
#X connect 25 0 55 0;
#X connect 26 0 58 0;
#X connect 29 0 65 0;
#X connect 30 0 27 0;
#X connect 31 0 32 0;
#X connect 32 0 9 0;
#X connect 33 0 20 0;
#X connect 34 0 48 1;
#X connect 34 0 51 1;
#X connect 35 0 68 0;
#X connect 36 2 68 0;
#X connect 38 0 20 0;
#X connect 38 1 39 0;
#X connect 39 0 37 0;
#X connect 40 0 68 1;
#X connect 40 0 73 1;
#X connect 41 0 68 0;
#X connect 41 1 14 1;
#X connect 42 0 43 0;
#X connect 42 1 43 1;
#X connect 43 0 61 0;
#X connect 45 0 38 0;
#X connect 45 1 47 0;
#X connect 46 0 45 1;
#X connect 48 1 21 0;
#X connect 48 3 57 0;
#X connect 48 4 41 0;
#X connect 49 0 50 0;
#X connect 50 0 36 0;
#X connect 50 1 17 0;
#X connect 51 0 52 0;
#X connect 53 0 54 1;
#X connect 53 0 67 1;
#X connect 54 0 24 0;
#X connect 55 0 31 0;
#X connect 55 1 30 0;
#X connect 55 2 37 0;
#X connect 56 0 13 0;
#X connect 57 0 12 0;
#X connect 57 1 56 1;
#X connect 57 2 56 0;
#X connect 58 0 59 0;
#X connect 58 1 30 0;
#X connect 58 2 37 0;
#X connect 59 0 60 0;
#X connect 60 0 56 0;
#X connect 61 0 45 0;
#X connect 61 1 63 0;
#X connect 62 0 61 1;
#X connect 64 0 24 0;
#X connect 65 0 64 0;
#X connect 65 1 37 0;
#X connect 65 2 30 0;
#X connect 65 3 18 0;
#X connect 66 0 51 0;
#X connect 66 1 67 0;
#X connect 67 0 64 1;
#X connect 68 0 70 0;
#X connect 69 0 19 0;
#X connect 70 0 69 0;
#X connect 70 1 71 0;
#X connect 71 0 14 2;
#X connect 72 0 73 0;
#X connect 73 0 74 0;
#X connect 74 0 14 0;
#X connect 74 1 14 1;
#X connect 74 2 14 2;
#X restore 433 157 pd right-column;
#N canvas 379 168 888 567 interpret-button 0;
#X obj 226 -113 receive \$0-press;
#X obj 251 287 route 1;
#X obj 251 355 pack f f \$0;
#X text 406 -86 receive button press;
#X msg 251 377 \; \$3-tomatrix-0 \$3-op element \$1 \$2;
#X obj 275 83 receive \$0-ushift;
#X obj 311 106 receive \$0-lshift;
#X obj 260 128 +;
#X obj 295 128 +;
#X text 246 421 send lights to right side buttons;
#X obj 251 309 list split 2;
#X obj 301 237 s \$0-m2click;
#X obj 25 152 spigot;
#X obj 25 107 notein 1;
#X obj 48 241 div 10;
#X obj 59 217 mod 10;
#X obj 48 267 pack f f \$0;
#X msg 48 289 symbol \$3-\$1-\$2-inn;
#X obj 25 318 send;
#X obj 467 2 receive \$0-turnmeons;
#X text 19 347 send to individual pp abstractions \, then to top of
next column, f 22;
#X obj 715 80 receive \$0-mixon;
#X obj 676 104 spigot;
#X obj 676 156 >= 21;
#X obj 719 156 <= 28;
#X obj 676 178 &&;
#X obj 621 202 spigot;
#X obj 676 134 t f f f;
#X obj 722 198 - 21;
#X text 664 308 identify fader messages;
#X obj 621 104 spigot;
#X obj 722 224 makefilename \$0-%d-m3c;
#X obj 621 265 send;
#X obj 621 50 ctlin;
#X obj 621 77 spigot;
#X obj 25 259 f;
#X obj 226 9 unpack f f f f;
#X obj 226 150 pack f f f f f f;
#X obj 251 213 spigot;
#X obj 301 214 spigot;
#X obj 307 35 !=;
#X obj 331 264 list append \$0;
#X msg 331 318 \; \$7-\$4-press-\$6 \$5;
#X text 384 226 send up or down message to correct [asynch] patch,
f 28;
#X obj 289 -90 receive \$0-shifton;
#N canvas 456 218 450 300 shift-hold 0;
#X obj 155 8 inlet;
#X obj 66 249 outlet;
#X obj 155 30 t l l;
#X obj 182 55 list split 1;
#X obj 216 103 == -1;
#X obj 155 103 spigot;
#X obj 216 79 text search \$0-buffer 1 2 3;
#X obj 66 225 text sequence \$0-buffer;
#X msg 66 201 line 0 \, bang;
#X obj 46 273 text delete \$0-buffer;
#X obj 46 171 f -1;
#X obj 155 170 text set \$0-buffer 1e+07;
#X obj 27 103 receive \$0-shifton;
#X obj 27 125 sel 0;
#X obj 19 60 receive \$0-shiftcancel;
#X obj 27 148 t b b b;
#X obj 19 82 t b b;
#X obj 251 131 text define -k \$0-buffer;
#A set \;;
#X connect 0 0 2 0;
#X connect 2 0 5 0;
#X connect 2 1 3 0;
#X connect 3 1 6 0;
#X connect 4 0 5 1;
#X connect 5 0 11 0;
#X connect 6 0 4 0;
#X connect 7 0 1 0;
#X connect 8 0 7 0;
#X connect 10 0 9 0;
#X connect 12 0 13 0;
#X connect 13 0 15 0;
#X connect 14 0 16 0;
#X connect 15 0 11 0;
#X connect 15 1 10 0;
#X connect 15 2 8 0;
#X connect 16 0 11 0;
#X connect 16 1 10 0;
#X restore 257 -15 pd shift-hold;
#X obj 330 -113 receive \$0-stempoff;
#X obj 481 250 receive \$0-lb;
#X obj 481 272 f 1;
#X obj 94 445 s \$0-modeallgot;
#X obj 94 422 demux;
#X obj 313 170 receive \$0-firstmode;
#X obj 226 191 demux 0 1 2 3 4;
#X obj 331 287 t l l;
#X obj 507 298 receive \$0-stealside;
#X obj 474 321 spigot;
#X obj 474 344 t l l;
#X obj 474 388 spigot;
#X obj 501 366 cyclone/zl nth 6;
#X msg 474 412 \; \$7-\$4-prepress send \$7-insertN;
#X obj 307 59 t f f f f;
#X obj 25 174 t b f f f;
#X obj 76 195 v \$0-last;
#X obj 226 -67 demux 0 1 2;
#X obj 289 -43 s \$0-interrupt;
#X connect 0 0 63 0;
#X connect 1 0 10 0;
#X connect 2 0 4 0;
#X connect 5 0 7 1;
#X connect 6 0 8 1;
#X connect 7 0 37 1;
#X connect 8 0 37 2;
#X connect 10 0 2 0;
#X connect 12 0 61 0;
#X connect 13 0 12 0;
#X connect 13 1 35 1;
#X connect 14 0 16 0;
#X connect 15 0 16 1;
#X connect 16 0 17 0;
#X connect 17 0 18 1;
#X connect 19 0 12 1;
#X connect 19 0 34 1;
#X connect 21 0 22 1;
#X connect 21 0 30 1;
#X connect 22 0 27 0;
#X connect 23 0 25 0;
#X connect 24 0 25 1;
#X connect 25 0 26 1;
#X connect 26 0 32 0;
#X connect 27 0 23 0;
#X connect 27 1 24 0;
#X connect 27 2 28 0;
#X connect 28 0 31 0;
#X connect 30 0 26 0;
#X connect 31 0 32 1;
#X connect 33 0 34 0;
#X connect 33 1 22 0;
#X connect 34 0 30 0;
#X connect 35 0 18 0;
#X connect 36 0 37 0;
#X connect 36 1 7 0;
#X connect 36 1 37 3;
#X connect 36 2 8 0;
#X connect 36 2 37 4;
#X connect 36 3 40 0;
#X connect 37 0 52 0;
#X connect 38 0 1 0;
#X connect 39 0 11 0;
#X connect 40 0 60 0;
#X connect 41 0 53 0;
#X connect 44 0 63 1;
#X connect 45 0 36 0;
#X connect 46 0 63 1;
#X connect 47 0 48 0;
#X connect 48 0 52 1;
#X connect 50 0 49 0;
#X connect 51 0 52 1;
#X connect 52 0 50 0;
#X connect 52 1 38 0;
#X connect 52 2 41 0;
#X connect 52 3 39 0;
#X connect 53 0 42 0;
#X connect 53 1 55 0;
#X connect 54 0 55 1;
#X connect 55 0 56 0;
#X connect 56 0 57 0;
#X connect 56 1 58 0;
#X connect 57 0 59 0;
#X connect 58 0 57 1;
#X connect 60 0 37 5;
#X connect 60 1 38 1;
#X connect 60 2 39 1;
#X connect 60 3 50 1;
#X connect 61 0 35 0;
#X connect 61 1 14 0;
#X connect 61 2 15 0;
#X connect 61 3 62 0;
#X connect 63 0 36 0;
#X connect 63 1 45 0;
#X connect 63 2 64 0;
#X restore 433 137 pd interpret-button;
#N canvas 267 149 974 526 mode-1 0;
#X obj 536 238 t f b;
#X obj 598 301 array min \$0-twos;
#X obj 566 443 array set \$0-twos;
#X obj 536 212 f;
#X obj 413 207 t b f;
#X obj 413 229 t f;
#X obj 598 323 sel 0;
#X obj 630 371 array size \$0-twos;
#X obj 630 347 t b;
#X obj 662 420 + 1;
#X obj 707 413 array define \$0-twos 8;
#X obj 630 395 t f f;
#X obj 53 294 receive \$0-1xy;
#X text 313 187 2: search for it;
#X text 265 208 2.1: if match \, delete it;
#X text 710 302 3: if no match \, calculate array min;
#X text 684 352 3.1 if array min is not 0 \, add a new space to the
array;
#X text 621 470 5: add new ID number to the array;
#X text 351 385 6: get whole array;
#X text 614 654 9.1: send max size to list pad so the matrix is written
correctly;
#X obj 146 286 receive \$0-ushift-1;
#X obj 873 497 sel 0 1;
#X obj 873 566 s \$0-xyt;
#X obj 518 557 receive \$0-maxf;
#X obj 518 626 t f f;
#X obj 518 604 max;
#X obj 536 582 t f;
#X obj 501 694 s \$0-mmax-b;
#X obj 209 341 s \$0-clear;
#X obj 461 650 pack f 8 f;
#X obj 461 672 list split 1;
#X obj 873 472 receive \$0-1xym;
#X obj 892 521 list append Y y 1 j;
#X obj 873 544 list append X x 0 i;
#X obj 92 546 ctxfiles/asynch \$0 1 8 2 8;
#X obj 71 388 + 1;
#X obj 46 388 t f;
#X obj 92 499 array get \$0-twos 0 1;
#X obj 92 477 +;
#X obj 73 454 t f f f;
#X obj 92 521 demux 0 1 2 3 4 5 6 7;
#X obj 46 433 sel 8;
#X obj 446 299 receive \$0-:m1;
#X obj 446 345 t l l;
#X obj 473 367 list length;
#X obj 5 627 s \$0-1offy;
#X obj 5 604 t f;
#X obj 46 411 pipe 20;
#X obj 146 318 t b b f b b b;
#X obj 29 604 f 1;
#X obj 413 185 ctxfiles/af \$0-twos 1;
#X obj 446 322 spigot 1;
#X obj 658 114 array get \$0-twos;
#X obj 658 229 list prepend :m1;
#X obj 658 136 cyclone/zl rev;
#X obj 697 204 cyclone/zl rev;
#X obj 658 159 route 0;
#X obj 658 182 route bang;
#X obj 413 161 t f f;
#X obj 639 66 t b b f;
#X obj 639 89 f 1;
#X obj 658 252 s \$0-tomess;
#X obj 639 43 receive \$0-savelists;
#X obj 6 365 receive \$0-interr-1;
#X obj 6 388 t b a;
#X obj 113 566 ctxfiles/asynch \$0 2 7 3 1;
#X obj 135 586 ctxfiles/asynch \$0 3 6 4 2;
#X obj 156 606 ctxfiles/asynch \$0 4 5 5 3;
#X obj 178 626 ctxfiles/asynch \$0 5 4 6 4;
#X obj 199 646 ctxfiles/asynch \$0 6 3 7 5;
#X obj 221 666 ctxfiles/asynch \$0 7 2 8 6;
#X obj 243 686 ctxfiles/asynch \$0 8 1 1 7;
#X obj 413 137 receive \$0-mode3fromA;
#X connect 0 0 2 0;
#X connect 0 1 1 0;
#X connect 1 0 6 0;
#X connect 1 1 2 1;
#X connect 3 0 0 0;
#X connect 4 0 5 0;
#X connect 4 1 2 1;
#X connect 5 0 2 0;
#X connect 6 1 8 0;
#X connect 7 0 11 0;
#X connect 8 0 7 0;
#X connect 9 0 7 0;
#X connect 9 0 29 1;
#X connect 11 0 2 1;
#X connect 11 1 9 0;
#X connect 12 0 48 0;
#X connect 20 0 48 0;
#X connect 21 0 33 0;
#X connect 21 1 32 0;
#X connect 23 0 25 0;
#X connect 24 0 29 2;
#X connect 24 1 25 1;
#X connect 25 0 24 0;
#X connect 26 0 25 1;
#X connect 29 0 30 0;
#X connect 30 1 27 0;
#X connect 31 0 21 0;
#X connect 32 0 22 0;
#X connect 33 0 22 0;
#X connect 35 0 47 0;
#X connect 36 0 47 0;
#X connect 37 0 40 0;
#X connect 38 0 37 0;
#X connect 39 0 35 0;
#X connect 39 1 38 0;
#X connect 39 2 40 1;
#X connect 40 0 34 0;
#X connect 40 1 65 0;
#X connect 40 2 66 0;
#X connect 40 3 67 0;
#X connect 40 4 68 0;
#X connect 40 5 69 0;
#X connect 40 6 70 0;
#X connect 40 7 71 0;
#X connect 41 0 46 0;
#X connect 41 1 39 0;
#X connect 42 0 51 0;
#X connect 43 0 2 0;
#X connect 43 1 44 0;
#X connect 44 0 9 0;
#X connect 46 0 45 0;
#X connect 47 0 41 0;
#X connect 48 0 29 0;
#X connect 48 1 36 0;
#X connect 48 2 38 1;
#X connect 48 3 26 0;
#X connect 48 4 28 0;
#X connect 48 5 49 0;
#X connect 49 0 45 0;
#X connect 50 0 4 0;
#X connect 50 1 3 0;
#X connect 51 0 43 0;
#X connect 52 0 54 0;
#X connect 53 0 61 0;
#X connect 54 0 56 0;
#X connect 55 0 53 0;
#X connect 56 0 57 0;
#X connect 56 1 55 0;
#X connect 57 0 53 0;
#X connect 57 1 56 0;
#X connect 58 0 50 0;
#X connect 58 1 3 1;
#X connect 59 0 60 0;
#X connect 59 1 52 0;
#X connect 59 2 51 1;
#X connect 60 0 51 1;
#X connect 62 0 59 0;
#X connect 63 0 64 0;
#X connect 64 0 46 0;
#X connect 64 1 47 0;
#X connect 72 0 58 0;
#X restore 433 217 pd mode-1;
#N canvas 67 87 1299 681 mode-2 0;
#X obj 326 229 send;
#X obj 327 258 receive \$0-bsync;
#X obj 326 138 symbol \$0-bsync;
#X obj 379 449 iemguts/oreceive \$0n;
#X obj 585 250 unpack s s s;
#X msg 219 444 symbol \$1-\$2arry;
#X msg 318 681 symbol \$1-\$3arry;
#X obj 21 254 receive \$0-ijsize;
#X obj 21 276 list split 1;
#X obj 68 392 - 1;
#X obj 135 630 sel 0;
#X obj 278 47 f;
#X obj 376 114 s \$0-clear;
#X obj -20 338 cyclone/uzi 5;
#X obj 61 297 - 1;
#X obj 167 988 int;
#X obj 167 1032 * -1;
#X obj 167 1010 - 8;
#X obj 68 444 t f f;
#X obj 68 360 t f f;
#X obj 585 175 sel 0 1;
#X obj 227 2 receive \$0-2xy;
#X obj 608 199 list append Y y j;
#X obj 585 222 list append X x i;
#X obj 395 547 route 1 0;
#X obj 395 570 unpack;
#X obj 418 1027 symbol off;
#X obj 269 1249 zexy/pack f f f \$0 on;
#X obj 428 823 f;
#X obj 659 562 unpack;
#X obj 659 585 - 8;
#X obj 659 618 * -1;
#X obj 114 360 receive \$0-lshift-2;
#X obj 177 335 t f;
#X obj 93 297 s \$0-mmax-c;
#X obj 68 419 +;
#X obj 61 317 min 8;
#X obj 68 601 route bang;
#X obj 698 612 -;
#X obj 698 585 t f f;
#X obj 554 804 -;
#X obj 167 1055 -;
#X obj 200 594 receive \$0-ushift-2;
#X obj 167 1077 moses 1;
#X obj 206 1099 moses 9;
#X msg 344 206 symbol \$2-\$1-dfetch;
#X obj 397 159 receive \$0-parentdollar;
#X obj 274 -107 receive \$0-preID;
#X obj 379 427 makefilename %d-colours;
#X obj 547 528 unpack s f;
#X obj 727 266 iemguts/oreceive \$0n;
#X obj 727 312 spigot;
#X obj 727 335 route bang;
#X obj 794 358 t f b f;
#X obj 840 380 -;
#X obj 776 429 -;
#X obj 776 483 moses 1;
#X obj 822 506 moses 9;
#X obj 840 403 moses 1;
#X obj 886 426 moses 9;
#X obj 776 392 f;
#X obj 727 357 del 0;
#X obj 766 289 receive \$0-righton;
#X obj 822 531 pack f \$0;
#X obj 886 449 pack f \$0;
#X msg 886 472 \; \$2-8-\$1-conon bang;
#X msg 822 553 \; \$2-8-\$1-conoff bang;
#X obj 858 358 receive \$0-lshift-2;
#X obj 711 -83 makefilename %d-togri;
#X obj 768 -35 iemguts/oreceive \$0n;
#X obj 711 -152 demux;
#X obj 711 -197 pack;
#X obj 711 -106 unpack;
#X obj 743 -129 swap;
#X obj 768 -58 makefilename %d-bu-n;
#X obj 842 192 f 1;
#X obj 805 242 demux;
#X obj 786 192 t f;
#X obj 823 217 cyclone/iter;
#X obj 768 32 del 200;
#X obj -54 511 array get dummy@%G;
#X obj 439 406 makefilename %d-toge;
#X obj -54 583 sel 0;
#X obj -27 627 array get dummy@%G;
#X obj 179 554 makefilename %d-floate;
#X obj 69 678 f;
#X obj -15 418 -;
#X obj 114 382 t b f b f f f;
#X obj -15 440 >= -8;
#X obj -54 463 spigot;
#X obj 69 700 * -1;
#X obj 120 659 t b f;
#X obj 167 659 t b b;
#X obj -54 485 del;
#X obj 768 8 t b b b b b;
#X obj 768 54 t b b;
#X obj 805 98 sel 0;
#X obj 805 144 t f;
#X obj 837 122 t b;
#X obj 837 144 f;
#X obj 866 122 receive \$0-mmax-c;
#X obj 585 152 receive \$0-2xym;
#X obj 278 69 sel 0;
#X obj 114 321 spigot;
#X obj 200 638 spigot;
#X obj 676 -314 unpack s f;
#X obj 743 -240 -;
#X obj 743 -218 abs;
#X obj 743 -262 swap;
#X obj 743 -292 t b f;
#X obj 740 -384 iemguts/oreceive \$0n;
#X obj 740 -409 makefilename %d-:M;
#X obj 740 -362 t b f;
#X obj 676 -336 receive \$0-MmM;
#X obj 274 -85 sel 0;
#X text 328 -77 <--this might be shadowing a larger problem...;
#X obj 711 -175 spigot;
#X obj 278 23 receive \$0-mode2;
#X obj 750 -197 receive \$0-righton;
#X obj -20 232 spigot;
#X obj -77 168 receive \$0-righton;
#X obj 395 471 receive \$0-m2click;
#X obj 395 601 -;
#X obj 200 616 t b f b f;
#X obj 68 486 array get dummy@%G 0 1;
#X obj 823 169 array get dummy@%G;
#X obj 167 703 array get dummy@%G 0 1;
#X obj 805 76 array get dummy@%G;
#X obj 637 836 zexy/pack 0 0 0 x i \$0 0 0;
#X obj 327 315 zexy/pack 0 x i X \$0 f 0 0;
#X msg 513 334 \; \$8-c\$6 fetch \$5-ijsize \$4 \; \$8-c\$6 fetch \$5-ijcol
c \; \$8-c\$6 fetch \$5-MmM M;
#X obj 494 644 zexy/pack 0 0 x 0;
#X msg 494 668 \; \$4-c\$2 :\$3 - \$1;
#X obj 344 182 pack;
#X obj 768 -13 spigot;
#X obj 646 7 receive \$0-modestop;
#X obj 680 757 receive \$0-ckey;
#X obj 680 779 * 0.5;
#X obj 395 382 v \$0-m2id;
#X obj 596 909 receive \$0-2-vselgot;
#X obj 675 1023 s RRfBB%6;
#X obj 648 1023 s2l;
#X obj 648 1045 text search gridscales%%;
#X obj 648 1067 text get gridscales%%;
#X msg 695 1179 resize \$1;
#X obj 695 1201 array define -k \$0-gridscale 12;
#A 0 0 1 2 3 4 5 6 7 8 9 10 11;
#X obj 674 1318 array set \$0-gridscale;
#X obj 648 1089 cyclone/iter;
#X obj 648 1111 route float;
#X obj 648 1133 demux;
#X obj 750 1156 f 1;
#X obj 713 1271 f;
#X obj 763 1270 + 1;
#X obj 723 1111 t f f;
#X obj 631 1001 t b a b b;
#X obj 167 725 t f f f;
#X obj 206 750 int;
#X obj 186 772 -;
#X obj 186 794 ==;
#X obj 167 817 demux;
#X obj 659 671 t f f;
#X obj 637 737 tabread \$0-gridscale;
#X obj 637 759 +;
#X obj 638 1223 array define -k \$0-invscale 12;
#A 0 1 2 3 4 5 6 7 8 9 10 11 12;
#X msg 638 1201 const 0;
#X obj 674 1248 t f f b;
#X obj 693 1343 swap;
#X obj 713 1293 t f f;
#X obj 763 1292 t f f;
#X obj 693 1368 array set \$0-invscale;
#X obj 194 918 tabread \$0-invscale;
#X obj 194 940 sel 0;
#X obj 684 693 div 12;
#X obj 637 693 mod 12;
#X obj 194 857 t f f;
#X obj 238 872 div 12;
#X obj 648 1156 t f f f f b f b;
#X obj 221 964 - 1;
#X obj 194 894 mod 12;
#X obj 221 987 +;
#X obj 238 894 * 12;
#X obj 684 715 * 12;
#X obj 637 781 sel 0;
#X msg 637 803 -0;
#X obj 161 1157 t b f;
#X obj 95 465 v \$0-uzif;
#X obj 167 681 v \$0-uzif;
#X obj 148 1186 v \$0-uzif;
#X obj 596 932 l2s;
#X obj 245 1129 t b;
#X obj 148 1209 sel 0;
#X obj 596 954 t s s;
#X obj 598 978 sel --;
#X text 817 1039 search for scale if function selector calls it;
#X text 822 1174 create array and inverse array;
#X text -59 920 cross reference y value with scale array;
#X obj 494 1076 spigot;
#X obj 494 1098 s \$0-m3bang;
#X obj 527 1053 receive \$0-vselpre;
#X obj 968 222 iemguts/oreceive;
#X obj 968 244 spigot;
#X text 814 255 flash from crossreference;
#X text 887 383 if pattern \, flash individually;
#X obj 327 343 t l l l l f f f f f l l;
#X msg 968 200 symbol \$8-\$6-\$2-crossconnect;
#X obj 968 267 t f f;
#X obj 968 289 pipe 200;
#X obj -27 605 t b b;
#X obj -67 605 t b f;
#X obj -54 533 t f b;
#X obj -54 558 spigot;
#X obj 69 722 t f f;
#X obj 69 745 moses 1;
#X obj 108 767 moses 9;
#X obj 69 781 t b;
#X obj 69 804 t f;
#X obj 547 506 receive \$0-ijcol;
#X msg 269 1271 \; \$4-\$2-vclear bang \; \$4-\$1-\$2-s \$3 \; \$4-\$1-\$2-\$5
bang;
#X obj 452 718 sel 0;
#X obj 452 741 f 0.5;
#X obj 328 -51 receive \$0-stealside;
#X obj 301 -27 demux;
#X obj 395 494 spigot;
#X obj 310 91 t b b f f b f f b f f f;
#X obj 395 517 t l b;
#X obj 962 640 receive \$0-stealside;
#X obj 929 666 spigot;
#X obj 929 689 v \$0-m2id;
#X obj 929 712 s \$0-insertN;
#X obj 54 142 iemguts/oreceive \$0n;
#X msg 54 120 symbol \$1-\$2doned;
#X obj 54 165 del;
#X obj 665 803 +;
#X obj 659 644 demux;
#X msg 637 860 \; \$8-c\$3 :\$5 \$4 \$7 \$1;
#X obj 392 1118 spigot 1;
#X obj 392 1142 symbol on;
#X obj 428 591 t f b b f;
#X obj 468 777 t f f;
#X obj -20 304 t b b b b;
#X obj -46 338 f 1;
#X connect 1 0 129 0;
#X connect 2 0 0 0;
#X connect 3 0 218 0;
#X connect 4 0 129 3;
#X connect 4 1 128 3;
#X connect 4 1 129 1;
#X connect 4 1 131 2;
#X connect 4 2 128 4;
#X connect 4 2 129 2;
#X connect 5 0 124 2;
#X connect 5 0 125 2;
#X connect 6 0 126 2;
#X connect 7 0 8 0;
#X connect 8 1 14 0;
#X connect 8 1 34 0;
#X connect 8 1 86 1;
#X connect 9 0 35 0;
#X connect 10 0 91 0;
#X connect 10 1 92 0;
#X connect 11 0 102 0;
#X connect 13 1 89 0;
#X connect 13 2 19 0;
#X connect 14 0 36 0;
#X connect 15 0 17 0;
#X connect 16 0 41 0;
#X connect 17 0 16 0;
#X connect 18 0 124 0;
#X connect 18 1 185 0;
#X connect 19 0 9 0;
#X connect 19 1 27 1;
#X connect 20 0 23 0;
#X connect 20 1 22 0;
#X connect 21 0 11 0;
#X connect 22 0 4 0;
#X connect 23 0 4 0;
#X connect 24 0 25 0;
#X connect 24 1 29 0;
#X connect 25 0 122 0;
#X connect 25 1 237 0;
#X connect 26 0 27 4;
#X connect 27 0 217 0;
#X connect 28 0 27 2;
#X connect 29 0 30 0;
#X connect 29 1 39 0;
#X connect 30 0 31 0;
#X connect 31 0 233 0;
#X connect 32 0 87 0;
#X connect 33 0 35 1;
#X connect 35 0 18 0;
#X connect 36 0 13 1;
#X connect 37 1 10 0;
#X connect 38 0 128 1;
#X connect 39 0 38 0;
#X connect 39 1 128 6;
#X connect 40 0 27 1;
#X connect 41 0 43 0;
#X connect 42 0 123 0;
#X connect 43 0 189 0;
#X connect 43 1 44 0;
#X connect 44 0 27 0;
#X connect 44 1 189 0;
#X connect 45 0 0 1;
#X connect 46 0 128 7;
#X connect 46 0 129 7;
#X connect 46 0 131 3;
#X connect 46 0 133 1;
#X connect 47 0 114 0;
#X connect 48 0 3 0;
#X connect 49 1 218 0;
#X connect 50 0 51 0;
#X connect 51 0 52 0;
#X connect 52 0 61 0;
#X connect 52 1 53 0;
#X connect 53 0 60 1;
#X connect 53 1 60 0;
#X connect 53 2 54 0;
#X connect 54 0 58 0;
#X connect 55 0 56 0;
#X connect 56 1 57 0;
#X connect 57 0 63 0;
#X connect 58 1 59 0;
#X connect 59 0 64 0;
#X connect 60 0 55 0;
#X connect 61 0 60 0;
#X connect 62 0 51 1;
#X connect 62 0 134 1;
#X connect 62 0 200 1;
#X connect 63 0 66 0;
#X connect 64 0 65 0;
#X connect 67 0 54 1;
#X connect 67 0 55 1;
#X connect 68 0 50 0;
#X connect 69 0 134 0;
#X connect 70 0 72 0;
#X connect 70 1 73 0;
#X connect 71 0 116 0;
#X connect 72 0 68 0;
#X connect 72 1 74 0;
#X connect 73 0 68 0;
#X connect 73 1 74 0;
#X connect 74 0 69 0;
#X connect 75 0 76 1;
#X connect 76 0 55 0;
#X connect 76 1 54 0;
#X connect 77 0 76 1;
#X connect 78 0 76 0;
#X connect 79 0 95 0;
#X connect 80 0 209 0;
#X connect 81 0 80 2;
#X connect 81 0 127 2;
#X connect 82 0 208 0;
#X connect 82 1 207 0;
#X connect 83 0 155 0;
#X connect 84 0 83 2;
#X connect 85 0 90 0;
#X connect 86 0 88 0;
#X connect 86 0 85 1;
#X connect 87 0 103 0;
#X connect 87 1 35 1;
#X connect 87 2 12 0;
#X connect 87 3 40 1;
#X connect 87 4 38 1;
#X connect 87 5 86 0;
#X connect 88 0 89 1;
#X connect 89 0 93 0;
#X connect 90 0 211 0;
#X connect 91 0 186 0;
#X connect 91 1 27 2;
#X connect 92 0 186 0;
#X connect 92 1 28 0;
#X connect 93 0 80 0;
#X connect 94 0 79 0;
#X connect 94 1 77 0;
#X connect 94 2 127 0;
#X connect 94 3 125 0;
#X connect 94 4 75 0;
#X connect 95 0 127 0;
#X connect 95 1 125 0;
#X connect 96 0 97 0;
#X connect 96 1 98 0;
#X connect 97 0 76 0;
#X connect 98 0 99 0;
#X connect 99 0 76 0;
#X connect 100 0 99 1;
#X connect 101 0 20 0;
#X connect 101 0 108 0;
#X connect 101 0 129 6;
#X connect 102 1 223 0;
#X connect 103 0 239 0;
#X connect 104 0 13 0;
#X connect 105 1 109 0;
#X connect 106 0 107 0;
#X connect 107 0 70 1;
#X connect 108 0 106 0;
#X connect 108 1 106 1;
#X connect 109 0 108 0;
#X connect 109 1 108 1;
#X connect 110 0 112 0;
#X connect 111 0 110 0;
#X connect 112 0 71 0;
#X connect 112 1 109 0;
#X connect 113 0 105 0;
#X connect 114 1 221 0;
#X connect 116 0 70 0;
#X connect 117 0 11 0;
#X connect 118 0 116 1;
#X connect 119 0 239 0;
#X connect 120 0 119 1;
#X connect 121 0 222 0;
#X connect 122 0 27 0;
#X connect 123 0 104 0;
#X connect 123 1 41 1;
#X connect 123 2 12 0;
#X connect 123 3 122 1;
#X connect 124 0 37 0;
#X connect 125 0 78 0;
#X connect 126 0 155 0;
#X connect 127 0 96 0;
#X connect 128 0 234 0;
#X connect 129 0 203 0;
#X connect 131 0 132 0;
#X connect 133 0 45 0;
#X connect 134 0 94 0;
#X connect 135 0 79 0;
#X connect 136 0 137 0;
#X connect 136 0 233 1;
#X connect 137 0 232 1;
#X connect 139 0 188 0;
#X connect 141 0 142 0;
#X connect 142 0 143 0;
#X connect 143 0 147 0;
#X connect 144 0 145 0;
#X connect 147 0 148 0;
#X connect 148 0 149 0;
#X connect 149 0 176 0;
#X connect 149 1 165 0;
#X connect 150 0 149 1;
#X connect 151 0 167 0;
#X connect 152 0 168 0;
#X connect 153 0 149 1;
#X connect 153 1 151 1;
#X connect 154 0 239 0;
#X connect 154 1 141 0;
#X connect 154 2 140 0;
#X connect 154 3 153 0;
#X connect 155 0 159 0;
#X connect 155 1 157 0;
#X connect 155 2 156 0;
#X connect 156 0 157 1;
#X connect 157 0 158 0;
#X connect 158 0 159 1;
#X connect 159 0 15 0;
#X connect 159 1 174 0;
#X connect 160 0 173 0;
#X connect 160 1 172 0;
#X connect 161 0 162 0;
#X connect 162 0 182 0;
#X connect 164 0 163 0;
#X connect 165 0 146 0;
#X connect 165 1 166 0;
#X connect 165 2 151 0;
#X connect 166 0 169 0;
#X connect 166 1 169 1;
#X connect 167 0 146 1;
#X connect 167 1 152 0;
#X connect 168 0 166 1;
#X connect 168 1 151 1;
#X connect 170 0 171 0;
#X connect 171 0 184 0;
#X connect 171 1 177 0;
#X connect 172 0 181 0;
#X connect 173 0 161 0;
#X connect 174 0 178 0;
#X connect 174 1 175 0;
#X connect 175 0 180 0;
#X connect 176 1 180 1;
#X connect 176 2 173 1;
#X connect 176 3 172 1;
#X connect 176 4 164 0;
#X connect 176 5 144 0;
#X connect 176 6 150 0;
#X connect 177 0 179 0;
#X connect 178 0 170 0;
#X connect 179 0 17 0;
#X connect 180 0 179 1;
#X connect 181 0 162 1;
#X connect 182 0 183 0;
#X connect 182 1 232 0;
#X connect 183 0 128 0;
#X connect 184 0 187 0;
#X connect 184 1 27 2;
#X connect 186 0 126 0;
#X connect 187 0 190 0;
#X connect 188 0 191 0;
#X connect 189 0 184 0;
#X connect 190 1 27 0;
#X connect 191 0 192 1;
#X connect 191 1 192 0;
#X connect 192 0 196 0;
#X connect 192 1 154 0;
#X connect 196 0 197 0;
#X connect 198 0 196 1;
#X connect 199 0 200 0;
#X connect 200 0 205 0;
#X connect 203 1 230 0;
#X connect 203 2 5 0;
#X connect 203 3 6 0;
#X connect 203 4 48 0;
#X connect 203 5 138 0;
#X connect 203 6 71 0;
#X connect 203 7 81 0;
#X connect 203 7 111 0;
#X connect 203 8 84 0;
#X connect 203 9 130 0;
#X connect 203 10 204 0;
#X connect 204 0 199 0;
#X connect 205 0 206 0;
#X connect 205 1 54 0;
#X connect 206 0 55 0;
#X connect 207 0 83 0;
#X connect 207 1 28 0;
#X connect 208 0 83 0;
#X connect 208 1 27 2;
#X connect 209 0 210 0;
#X connect 209 1 85 0;
#X connect 210 0 82 0;
#X connect 211 0 212 0;
#X connect 211 1 27 1;
#X connect 212 0 214 0;
#X connect 212 1 213 0;
#X connect 213 0 210 1;
#X connect 213 1 214 0;
#X connect 214 0 215 0;
#X connect 215 0 210 1;
#X connect 216 0 49 0;
#X connect 218 0 219 0;
#X connect 218 1 28 0;
#X connect 219 0 28 0;
#X connect 220 0 221 1;
#X connect 221 0 11 1;
#X connect 222 0 224 0;
#X connect 223 0 239 0;
#X connect 223 1 2 0;
#X connect 223 2 133 0;
#X connect 223 3 129 5;
#X connect 223 4 12 0;
#X connect 223 5 131 1;
#X connect 223 6 128 2;
#X connect 223 7 33 0;
#X connect 223 8 103 1;
#X connect 223 9 104 1;
#X connect 223 10 222 1;
#X connect 224 0 24 0;
#X connect 224 1 226 0;
#X connect 225 0 226 1;
#X connect 226 0 227 0;
#X connect 227 0 228 0;
#X connect 229 0 231 0;
#X connect 230 0 229 0;
#X connect 231 0 119 0;
#X connect 232 0 128 0;
#X connect 233 0 160 0;
#X connect 233 1 182 0;
#X connect 235 0 236 0;
#X connect 236 0 27 4;
#X connect 237 0 40 0;
#X connect 237 1 26 0;
#X connect 237 2 238 0;
#X connect 237 3 131 0;
#X connect 238 0 27 2;
#X connect 238 1 235 1;
#X connect 239 0 13 0;
#X connect 239 1 240 0;
#X connect 239 2 235 0;
#X connect 239 3 28 0;
#X connect 240 0 235 1;
#X restore 433 237 pd mode-2;
#N canvas 67 85 1299 683 mode-0 0;
#X obj 74 252 t f f;
#X obj 679 316 t l b;
#X obj 706 339 f;
#X obj 741 339 + 1;
#X obj 529 326 cyclone/uzi;
#X obj 603 370 t f f f;
#X obj 603 348 - 1;
#N canvas 141 213 932 300 IDs 0;
#X obj 93 63 inlet;
#X msg 552 118 resize \$1;
#X obj 552 140 array define \$0-id;
#X obj 258 72 inlet;
#X obj 258 117 array set \$0-id;
#X obj 93 163 outlet;
#X text 555 49 1.1: receive total number of contexts and resize array
;
#X text 210 49 3.1: set array with all x/y values;
#X text 52 185 5.1: iterate arrays;
#X obj 552 73 receive \$0-arrsize;
#X obj 309 72 receive \$0-allcount;
#X obj 144 164 outlet;
#X obj 194 164 outlet;
#X obj 552 95 * 3;
#X text 539 170 this array temporarily stores IDs and colours and \$0's
;
#X obj 93 111 array get \$0-id 0 3;
#X obj 93 133 unpack f f f;
#X obj 309 94 * 3;
#X obj 93 85 * 3;
#X connect 0 0 18 0;
#X connect 1 0 2 0;
#X connect 3 0 4 0;
#X connect 9 0 13 0;
#X connect 10 0 17 0;
#X connect 13 0 1 0;
#X connect 15 0 16 0;
#X connect 16 0 5 0;
#X connect 16 1 11 0;
#X connect 16 2 12 0;
#X connect 17 0 4 1;
#X connect 18 0 15 0;
#X restore 697 429 pd IDs;
#X msg 837 315 clear;
#X obj 837 337 text define \$0pos;
#X obj 621 535 text set \$0pos 1e+06;
#X text 780 242 1: find total array size based on number of open contexts
;
#X text 774 277 2: query position of every context based on creation
order;
#X text 788 392 3: send context info to abstractions;
#X text 727 458 4: calculate min and max;
#X text 508 390 5: iterate arrays;
#X text 704 488 6: send to text object;
#X obj 74 277 text get \$0pos;
#X obj 113 342 text delete \$0pos;
#X obj 827 359 text define \$0pos2;
#X obj 101 395 text search \$0pos2;
#X obj 99 491 demux;
#X obj 41 229 sel -1;
#X obj 128 559 text set \$0pos2 1e+06;
#X obj 113 320 f;
#X obj 101 371 list split 2;
#X obj 101 417 sel -1;
#X obj 101 439 f 1;
#X obj 134 439 t b f;
#X obj 138 463 t f;
#N canvas 267 115 750 639 decide 0;
#X obj 341 113 text get \$0pos2;
#X obj 341 47 inlet old;
#X obj 341 138 unpack f f f f;
#X obj 322 189 -;
#X obj 355 189 -;
#X obj 322 211 abs;
#X obj 355 211 abs;
#X obj 322 236 >;
#X text 352 238 1 = x \, 0 = y;
#X obj 295 328 >;
#X obj 322 328 >;
#X obj 295 292 demux;
#X obj 295 267 mux;
#X obj 322 354 + 2;
#X obj 386 0 inlet reset;
#X obj 341 69 spigot 1;
#X obj 341 91 t f b;
#X obj 408 84 t f;
#X obj 238 88 spigot 1;
#X obj 257 138 unpack f f;
#X obj 238 161 unpack f f;
#X obj 238 112 t l l b;
#X obj 292 112 t f;
#X obj 192 553 +;
#X obj 215 553 +;
#X obj 295 382 sel 0 1 2 3;
#X obj 295 496 unpack;
#X obj 295 404 pack 0 -1;
#X obj 310 426 pack 0 1;
#X obj 326 448 pack -1 0;
#X obj 341 471 pack 1 0;
#X obj 192 607 outlet;
#X text 443 94 10.1: retrieve matching coordinates;
#X text 36 88 10.2: retrive matched coordinates;
#X text -24 190 10.3: decide whether the x or the y difference is greater
;
#X text 117 292 10.4: select data accordingly;
#X text -39 329 10.5: determine whether positive or negative difference
;
#X text 354 407 10.6: decide how to alter coordinates;
#X text 399 67 10.0: switch off after first shot;
#X text 50 553 10.7: alter coordinates;
#X obj 192 -3 inlet new;
#X obj 238 63 pack;
#X obj 238 41 t f f;
#X text 404 320 above origin: 0 \; below origin: 1 \; left of origin:
2 \; right of origin: 3;
#X obj 192 19 unpack f f f f f f f;
#X obj 192 584 pack f f f f f f f;
#X connect 0 0 2 0;
#X connect 1 0 15 0;
#X connect 2 2 3 1;
#X connect 2 2 10 1;
#X connect 2 3 4 1;
#X connect 2 3 9 1;
#X connect 3 0 5 0;
#X connect 4 0 6 0;
#X connect 5 0 7 0;
#X connect 6 0 7 1;
#X connect 7 0 11 1;
#X connect 7 0 12 2;
#X connect 9 0 25 0;
#X connect 10 0 13 0;
#X connect 11 0 9 0;
#X connect 11 1 10 0;
#X connect 12 0 11 0;
#X connect 13 0 25 0;
#X connect 14 0 15 1;
#X connect 14 0 18 1;
#X connect 15 0 16 0;
#X connect 16 0 0 0;
#X connect 16 1 17 0;
#X connect 17 0 15 1;
#X connect 18 0 21 0;
#X connect 19 0 3 0;
#X connect 19 1 4 0;
#X connect 20 0 12 1;
#X connect 20 1 12 0;
#X connect 21 0 20 0;
#X connect 21 1 19 0;
#X connect 21 2 22 0;
#X connect 22 0 18 1;
#X connect 23 0 45 0;
#X connect 24 0 45 1;
#X connect 25 0 27 0;
#X connect 25 1 28 0;
#X connect 25 2 29 0;
#X connect 25 3 30 0;
#X connect 26 0 23 1;
#X connect 26 1 24 1;
#X connect 27 0 26 0;
#X connect 28 0 26 0;
#X connect 29 0 26 0;
#X connect 30 0 26 0;
#X connect 40 0 44 0;
#X connect 41 0 18 0;
#X connect 42 0 41 0;
#X connect 42 1 45 2;
#X connect 44 0 23 0;
#X connect 44 1 24 0;
#X connect 44 2 42 0;
#X connect 44 3 41 1;
#X connect 44 3 45 3;
#X connect 44 4 45 4;
#X connect 44 5 45 5;
#X connect 44 6 45 6;
#X connect 45 0 31 0;
#X restore 74 586 pd decide;
#X obj 101 463 t f f;
#X text 134 226 7: search for mid-point of grid;
#X obj 41 185 pack 4.5 4.5;
#X text -68 250 7.1: if no result \, end;
#X text 126 299 8: retrieve nearest match and delete;
#X text 187 373 9: search for same coordinates in pos2;
#X text 153 419 10: if match found \, go to decide;
#X text -37 463 9.1 else write to pos2;
#X text 56 560 11: goto 7;
#X obj 389 210 text sequence \$0pos2;
#X msg 389 187 line 0 \, bang;
#X obj 680 268 send;
#X obj 679 292 iemguts/oreceive \$0jj;
#X obj 898 152 bng 15 250 50 0 empty empty empty 17 7 0 10 -262144
-1 -1;
#X obj 706 361 s \$0-allcount;
#X obj 694 242 s \$0-arrsize;
#X obj 679 381 list split 2;
#X obj 679 405 unpack;
#X obj 74 329 t l l;
#X obj 74 299 t l b;
#X obj 586 535 pack;
#X obj 365 332 text sequence \$0pos2;
#X msg 365 310 line 0 \, bang;
#X obj 389 233 t l l b;
#X obj 461 -12 receive \$0-calc;
#X msg 388 269 \; \$2-\$1 label c\$5 \, color \$6;
#X obj 588 81 s \$0-clear;
#X obj 586 559 s \$0-mmax-a;
#X obj 101 514 t b l;
#X obj 41 207 text search \$0pos near 1 near 0;
#X text 383 165 12: iterate text;
#X text 450 230 13: send x-y coords back into arrays;
#X text 356 456 14: set dimensions of matrix;
#X msg 388 400 \$2 \$1 \$5;
#X obj 511 514 pack;
#X obj 1131 211 s \$0-parentdollar;
#X obj 684 23 bng 15 250 50 0 empty empty empty 17 7 0 10 -262144 -1
-1;
#X obj 291 179 s \$0-calcend;
#X obj 932 139 iemguts/canvasdollarzero 2;
#X obj 932 117 receive \$0-lb;
#X obj 580 475 ctxfiles/bp \$0;
#X text 840 295 x \, y \, ID \, color \, \$0;
#X obj 621 513 pack f f f f f f f;
#X msg 411 640 \$2 \$1 \$7;
#X obj 221 456 receive \$0-resetcol;
#X text 350 432 ID>>;
#X text 310 610 color>>;
#X text 325 667 \$0 matrix>>;
#X obj 932 162 s2l;
#X obj 932 191 makefilename %d-getposs;
#X obj 952 211 makefilename %d-sendposs;
#X obj 694 64 v \$0-parentdollar;
#X obj 766 86 makefilename %d-IDshare;
#X obj 714 130 f;
#X obj 744 130 + 1;
#X obj 714 174 route 0 bang;
#X obj 795 196 t b b;
#X obj 827 217 f;
#X obj 827 239 + 1;
#X obj 694 204 f;
#X obj 694 87 t b b b f;
#X obj 714 152 array get dummy@%G 0 1;
#X obj 734 107 t f f;
#X obj 365 355 t a a a a;
#X obj 174 651 pow 2;
#X obj 209 651 pow 2;
#X obj 174 673 +;
#X obj 174 695 pow 0.5;
#X obj 219 742 t b;
#X obj 174 742 t b f;
#X obj 174 764 f 1;
#X obj 490 9 t b b b b b b f b b b;
#X obj 140 806 spigot;
#X obj 174 718 moses 12;
#X text 307 797 find the distance from the top left corner and calculate
the minumum of all contexts on the array. Send it to [launchshare].
;
#X obj 286 745 f 12;
#X msg 140 602 \$6 \$1 \$2;
#X obj 140 626 unpack f f f;
#X obj 219 765 t f;
#X obj 125 834 f;
#X obj 286 723 t b f;
#X obj 125 858 s \$0-toid;
#X msg 365 483 \$6 \$1 \$2;
#X obj 365 506 route 0;
#X obj 365 529 list prepend 0.5;
#X obj 365 552 cyclone/zl rev;
#X text 237 501 swap 0 for 0.5 so that it is not confused with blank
, f 19;
#X text 506 584 grid x pos \, grid y pos \, grid x accuracy \, grid
y accuracy \, ID \, colour \, \$0, f 77;
#X obj 365 610 ctxfiles/gm \$0 0.5 a;
#X obj 559 445 ctxfiles/bp \$0;
#X obj 511 539 s \$0-goffs;
#X obj 388 427 ctxfiles/gm \$0 0 a;
#X obj 411 667 ctxfiles/gm \$0 0.6 a;
#X obj 365 584 demux;
#X obj 329 137 t b b b b b b f f;
#X obj 221 479 t l b;
#X obj 402 584 f 1;
#X connect 0 0 17 0;
#X connect 0 1 24 1;
#X connect 1 0 47 0;
#X connect 1 1 2 0;
#X connect 2 0 3 0;
#X connect 2 0 45 0;
#X connect 3 0 2 1;
#X connect 4 2 6 0;
#X connect 5 0 71 1;
#X connect 5 1 120 1;
#X connect 5 2 7 0;
#X connect 6 0 5 0;
#X connect 7 0 73 4;
#X connect 7 1 73 5;
#X connect 7 2 73 6;
#X connect 8 0 9 0;
#X connect 8 0 19 0;
#X connect 17 0 50 0;
#X connect 20 0 26 0;
#X connect 21 0 30 0;
#X connect 21 1 59 0;
#X connect 22 0 125 0;
#X connect 22 1 0 0;
#X connect 24 0 18 0;
#X connect 25 0 20 0;
#X connect 26 0 27 0;
#X connect 26 1 28 0;
#X connect 27 0 31 0;
#X connect 28 0 29 0;
#X connect 28 1 30 1;
#X connect 29 0 21 1;
#X connect 30 0 49 0;
#X connect 31 0 21 1;
#X connect 31 1 30 2;
#X connect 33 0 60 0;
#X connect 40 0 54 0;
#X connect 41 0 40 0;
#X connect 43 0 1 0;
#X connect 44 0 69 0;
#X connect 47 0 48 0;
#X connect 47 1 7 1;
#X connect 48 0 71 3;
#X connect 48 1 120 3;
#X connect 49 0 21 0;
#X connect 49 1 25 0;
#X connect 50 0 49 0;
#X connect 50 1 24 0;
#X connect 51 0 58 0;
#X connect 52 0 94 0;
#X connect 53 0 52 0;
#X connect 54 1 48 0;
#X connect 54 2 2 0;
#X connect 55 0 102 0;
#X connect 59 0 33 0;
#X connect 59 1 23 0;
#X connect 60 0 22 0;
#X connect 64 0 122 0;
#X connect 65 0 121 0;
#X connect 67 0 102 0;
#X connect 69 0 79 0;
#X connect 70 0 69 0;
#X connect 71 0 65 1;
#X connect 71 1 51 1;
#X connect 71 2 73 0;
#X connect 71 3 73 2;
#X connect 73 0 10 0;
#X connect 74 0 123 0;
#X connect 75 0 126 0;
#X connect 79 0 66 0;
#X connect 79 0 80 0;
#X connect 79 0 81 0;
#X connect 80 0 42 1;
#X connect 81 0 43 0;
#X connect 82 0 91 0;
#X connect 83 0 92 2;
#X connect 84 0 85 0;
#X connect 84 0 92 0;
#X connect 85 0 84 1;
#X connect 86 0 84 0;
#X connect 86 2 87 0;
#X connect 87 0 84 0;
#X connect 87 1 88 0;
#X connect 88 0 89 0;
#X connect 89 0 88 1;
#X connect 89 0 90 1;
#X connect 90 0 4 1;
#X connect 90 0 46 0;
#X connect 91 0 90 0;
#X connect 91 1 84 0;
#X connect 91 2 93 0;
#X connect 91 3 83 0;
#X connect 92 0 86 0;
#X connect 93 0 84 1;
#X connect 93 1 88 1;
#X connect 94 0 107 0;
#X connect 94 1 113 0;
#X connect 94 2 64 0;
#X connect 94 3 74 0;
#X connect 95 0 97 0;
#X connect 96 0 97 1;
#X connect 97 0 98 0;
#X connect 98 0 104 0;
#X connect 99 0 109 0;
#X connect 100 0 101 0;
#X connect 100 1 104 1;
#X connect 101 0 103 1;
#X connect 102 0 33 0;
#X connect 102 1 4 0;
#X connect 102 2 71 2;
#X connect 102 3 120 2;
#X connect 102 4 42 0;
#X connect 102 5 82 0;
#X connect 102 6 2 1;
#X connect 102 7 8 0;
#X connect 102 8 111 0;
#X connect 102 9 57 0;
#X connect 103 0 110 1;
#X connect 104 0 100 0;
#X connect 104 1 99 0;
#X connect 106 0 104 1;
#X connect 107 0 108 0;
#X connect 108 0 103 0;
#X connect 108 1 95 0;
#X connect 108 2 96 0;
#X connect 109 0 103 1;
#X connect 110 0 112 0;
#X connect 111 0 106 0;
#X connect 111 1 110 1;
#X connect 113 0 114 0;
#X connect 114 0 115 0;
#X connect 114 1 116 0;
#X connect 115 0 116 0;
#X connect 116 0 124 0;
#X connect 120 0 65 0;
#X connect 120 1 51 0;
#X connect 120 2 73 1;
#X connect 120 3 73 3;
#X connect 124 0 119 0;
#X connect 124 1 119 1;
#X connect 125 0 68 0;
#X connect 125 1 110 0;
#X connect 125 2 53 0;
#X connect 125 3 120 0;
#X connect 125 4 71 0;
#X connect 125 5 41 0;
#X connect 125 6 2 1;
#X connect 125 7 124 1;
#X connect 126 0 114 0;
#X connect 126 1 127 0;
#X connect 127 0 124 1;
#X restore 433 197 pd mode-0;
#X obj 239 120 vradio 17 1 0 8 \$0-vsels \$0-vselr empty 0 -8 0 10
-262144 -1 -1 0;
#X obj 256 120 ctxfiles/s1 \$0 0;
#X text -121 101 lots more in this subpatch -->;
#X obj 361 100 tgl 17 0 \$0-preons \$0-preonr on 3 8 0 10 -261154 -1
-1 0 1;
#N canvas 488 255 575 495 on-off 0;
#X obj 30 395 s \$0-alloff;
#X obj 183 3 receive \$0-myID;
#X obj 183 25 makefilename %i-masteron&&;
#X obj 183 47 iemguts/oreceive \$0n;
#X obj 201 421 s \$0-preonr;
#X obj 206 113 receive \$0-preons;
#X obj 238 158 sel 1;
#X obj 183 69 t b f b;
#X obj 238 206 ctxfiles/sp01 1;
#X obj 238 250 s masteronto&&;
#X obj 206 135 t f f;
#X obj 238 228 v \$0-myID;
#X obj 49 229 send \$0-turnmeons;
#X obj 30 323 sel 0 1;
#X obj 49 374 s \$0-review;
#X obj 30 301 spigot;
#X obj 63 257 receive \$0-savestart;
#X obj 298 273 receive \$0-:ac;
#X obj 241 364 spigot;
#X obj 376 361 spigot;
#X obj 30 205 t f f f;
#X obj 63 279 t f b;
#X obj 376 383 sel 1;
#X msg 376 426 vis 1;
#X obj 376 448 iemguts/sendcanvas 2;
#X obj 283 342 f;
#X obj 135 294 receive \$0-masteron;
#X obj 14 5 iemguts/oreceive \$0n;
#X obj 14 -17 makefilename %i-masteron&&2;
#X obj 53 50 t f;
#X obj 49 347 del 150;
#X obj 70 139 receive panic;
#X msg 70 161 0;
#X obj 190 337 else/window 2;
#X obj 298 316 demux;
#X obj 325 295 receive \$0-savestart;
#X obj 172 181 receive \$0-sstart1;
#X obj 14 27 t b f b;
#X connect 1 0 2 0;
#X connect 1 0 28 0;
#X connect 2 0 3 0;
#X connect 3 0 7 0;
#X connect 5 0 10 0;
#X connect 6 0 8 0;
#X connect 7 0 8 2;
#X connect 7 1 4 0;
#X connect 7 2 8 1;
#X connect 8 0 11 0;
#X connect 10 0 20 0;
#X connect 10 1 6 0;
#X connect 11 0 9 0;
#X connect 13 0 0 0;
#X connect 13 1 30 0;
#X connect 15 0 13 0;
#X connect 16 0 21 0;
#X connect 17 0 34 0;
#X connect 18 0 4 0;
#X connect 19 0 22 0;
#X connect 20 0 15 0;
#X connect 20 1 12 0;
#X connect 20 2 19 0;
#X connect 21 0 15 1;
#X connect 21 1 25 0;
#X connect 22 0 23 0;
#X connect 23 0 24 0;
#X connect 25 0 18 1;
#X connect 25 0 19 1;
#X connect 26 0 4 0;
#X connect 27 0 37 0;
#X connect 28 0 27 0;
#X connect 29 0 19 1;
#X connect 30 0 14 0;
#X connect 31 0 32 0;
#X connect 32 0 20 0;
#X connect 33 0 18 0;
#X connect 34 0 25 1;
#X connect 34 1 25 0;
#X connect 35 0 34 1;
#X connect 36 0 11 0;
#X connect 37 0 25 0;
#X connect 37 1 7 0;
#X connect 37 2 29 0;
#X restore 560 237 pd on-off;
#N canvas 447 146 847 606 mode-3 0;
#X obj 185 13 receive \$0-mixon;
#X obj 185 35 * 4;
#X obj 108 137 receive \$0-lshift-3;
#X obj 108 267 * 2;
#X obj 108 311 list split 16;
#X obj 312 309 receive \$0-padd;
#X obj 196 334 list-abs/list-pad;
#X obj 108 368 unpack f f f f f f f f f f f f f f f f;
#X obj 185 80 s \$0-tomidi;
#X msg 185 58 240 0 32 41 2 24 34 \$1 247;
#X obj 446 -37 receive \$0-mxback;
#X text 625 35 ^ color;
#X obj 59 35 t f;
#X msg 446 8 240 0 32 41 2 24 43 \$2 0 \$3 \$1 247;
#X obj 108 392 ctxfiles/mx \$0 0 2;
#X obj 140 245 * 0.5;
#X obj 140 267 s \$0-mmax-d;
#X obj 311 516 array define \$0-gridfader 1;
#X obj 140 223 array size \$0-gridfader;
#X obj 108 289 array get \$0-gridfader;
#X obj 525 361 f \$0;
#X obj 505 66 receive \$0-turnmeons;
#X obj 466 90 spigot;
#X obj 59 13 receive \$0-alloff;
#X obj 525 245 mod;
#X obj 525 384 send;
#X obj 545 341 makefilename %d-gridon^^;
#X obj 595 312 makefilename %d-gridoff^^;
#X obj 595 290 f -1;
#X obj 466 43 receive pgsendbang&&;
#X obj 708 460 s \$0-fadetime;
#X obj 674 397 t f f;
#X obj 675 430 sel -1;
#X obj 178 435 ctxfiles/mx \$0 2 2;
#X obj 248 392 ctxfiles/mx \$0 4 2;
#X obj 318 435 ctxfiles/mx \$0 6 2;
#X obj 143 414 ctxfiles/mx \$0 1 31;
#X obj 213 457 ctxfiles/mx \$0 3 31;
#X obj 283 414 ctxfiles/mx \$0 5 31;
#X obj 353 457 ctxfiles/mx \$0 7 31;
#X obj 562 463 v \$0-keepslide;
#X text 738 412 identify double click on right-hand colmn and send
back to mx;
#X obj 562 485 pack f \$0;
#X msg 562 507 \; \$2-\$1-backslide bang;
#X obj 427 193 f 4;
#X obj 427 215 s \$0-force4;
#X obj 525 154 receive \$0-ushift-3;
#X obj 466 136 t b f b b;
#X obj 108 181 t f b;
#X obj 108 159 t f b;
#X obj 525 267 t b f f b b;
#X obj 525 179 t b f b;
#X obj 466 112 unpack;
#X msg 526 109 \; \$1-pgdone 0;
#X obj 674 375 receive \$0-3-vselgot;
#X obj 446 -15 spigot;
#X obj 564 201 v pgmax**i(;
#X connect 0 0 1 0;
#X connect 0 0 55 1;
#X connect 1 0 9 0;
#X connect 2 0 49 0;
#X connect 3 0 19 0;
#X connect 4 0 7 0;
#X connect 4 2 6 0;
#X connect 5 0 6 1;
#X connect 6 0 7 0;
#X connect 7 0 14 0;
#X connect 7 1 14 1;
#X connect 7 2 36 0;
#X connect 7 3 36 1;
#X connect 7 4 33 0;
#X connect 7 5 33 1;
#X connect 7 6 37 0;
#X connect 7 7 37 1;
#X connect 7 8 34 0;
#X connect 7 9 34 1;
#X connect 7 10 38 0;
#X connect 7 11 38 1;
#X connect 7 12 35 0;
#X connect 7 13 35 1;
#X connect 7 14 39 0;
#X connect 7 15 39 1;
#X connect 9 0 8 0;
#X connect 10 0 55 0;
#X connect 12 0 9 0;
#X connect 13 0 8 0;
#X connect 15 0 16 0;
#X connect 18 0 15 0;
#X connect 19 0 4 0;
#X connect 20 0 25 0;
#X connect 21 0 22 1;
#X connect 22 0 52 0;
#X connect 23 0 12 0;
#X connect 24 0 50 0;
#X connect 26 0 25 1;
#X connect 27 0 25 1;
#X connect 28 0 27 0;
#X connect 29 0 22 0;
#X connect 31 0 32 1;
#X connect 31 1 32 0;
#X connect 32 0 40 0;
#X connect 32 1 30 0;
#X connect 40 0 42 0;
#X connect 42 0 43 0;
#X connect 44 0 45 0;
#X connect 46 0 51 0;
#X connect 47 0 48 0;
#X connect 47 1 24 0;
#X connect 47 2 44 0;
#X connect 47 3 56 0;
#X connect 48 0 3 0;
#X connect 48 1 18 0;
#X connect 49 0 48 0;
#X connect 49 1 24 0;
#X connect 50 0 20 0;
#X connect 50 1 26 0;
#X connect 50 2 28 1;
#X connect 50 3 25 0;
#X connect 50 4 28 0;
#X connect 51 0 48 0;
#X connect 51 1 24 0;
#X connect 51 2 56 0;
#X connect 52 0 47 0;
#X connect 52 1 53 0;
#X connect 54 0 31 0;
#X connect 55 0 13 0;
#X connect 56 0 24 1;
#X restore 433 257 pd mode-3;
#N canvas 354 271 605 300 input 0;
#X obj 122 15 inlet;
#X obj 122 119 s YYh&&8(v;
#X obj 141 90 v (dollarzero);
#X obj 64 157 receive \$0-:sp;
#X obj 141 62 f \$0;
#X obj 164 15 receive \$0-tomess;
#X obj 64 179 sel global local;
#X obj 64 201 t f;
#X obj 118 201 f 1;
#X obj 173 201 t b s;
#X obj 173 223 f 2;
#X obj 64 252 s \$0-inmode;
#X obj 205 223 s \$0-insym;
#X obj 122 37 t a b a;
#X obj 259 74 spigot;
#X obj 292 47 receive \$0-savestart;
#X obj 259 97 l2s;
#X msg 259 120 set \$1;
#X obj 259 143 s \$0-symreceive;
#X obj 82 -10 receive \$0-symsend;
#X obj 82 13 s2l;
#X msg 320 91 symbol  ;
#X connect 0 0 13 0;
#X connect 3 0 6 0;
#X connect 4 0 2 0;
#X connect 5 0 13 0;
#X connect 6 0 7 0;
#X connect 6 1 8 0;
#X connect 6 2 9 0;
#X connect 7 0 11 0;
#X connect 8 0 11 0;
#X connect 9 0 10 0;
#X connect 9 1 12 0;
#X connect 10 0 11 0;
#X connect 13 0 1 0;
#X connect 13 1 4 0;
#X connect 13 2 14 0;
#X connect 14 0 16 0;
#X connect 15 0 14 1;
#X connect 15 0 21 0;
#X connect 16 0 17 0;
#X connect 17 0 18 0;
#X connect 19 0 20 0;
#X connect 20 0 13 0;
#X connect 21 0 17 0;
#X restore 630 89 pd input;
#X obj 630 67 iemguts/canvasargs;
#X obj 630 45 receive \$0-carg;
#N canvas 660 124 523 300 gui 0;
#X obj 145 270 iemguts/sendcanvas 1;
#X obj 163 54 receive \$0-:gui;
#X obj 145 106 f;
#X obj 145 31 receive \$0-carg1;
#X obj 163 77 demux;
#X obj 201 78 receive \$0-savestart;
#X obj 145 222 relay coords;
#X obj 214 245 spigot;
#X obj 145 129 sel 0 1 -1;
#X msg 184 198 menu-open \, coords 0 -1 1 1 260 138 0 100 100 \, vis
0;
#X msg 145 151 menu-open \, coords 0 -1 1 1 278 156 2 100 100 \, vis
0;
#X msg 168 174 menu-open \, coords 0 -1 1 1 139 156 2 239 100 \, vis
0;
#X connect 1 0 4 0;
#X connect 2 0 8 0;
#X connect 3 0 2 0;
#X connect 4 0 2 1;
#X connect 4 1 8 0;
#X connect 5 0 4 1;
#X connect 5 0 7 1;
#X connect 6 0 0 0;
#X connect 6 1 7 0;
#X connect 7 0 0 0;
#X connect 8 0 10 0;
#X connect 8 1 11 0;
#X connect 8 2 9 0;
#X connect 9 0 6 0;
#X connect 10 0 6 0;
#X connect 11 0 6 0;
#X restore 560 197 pd gui;
#N canvas 390 382 450 300 saving 0;
#X obj 141 69 ctxfiles/saver \$0 switch-x 3 t;
#X obj 140 106 receive \$0-savelist;
#X msg 140 128 click;
#X obj 140 150 text define -k \$0-save;
#A set \; %^ :1f0 :s \; %^ :1f1 :ss \; %^ :1f2 -send 2 \; %^ :1f3 -send
3 \; %^ :1f4 :u \; %^ :1f5 find \; %^ :1f6 :r \; %^ :1f7 copy ~ ID
\; %^ :2f0 :s \; %^ :2f1 :ss \; %^ :2f2 :i << \; %^ :2f3 :i >> \; %^
:2f4 :u \; %^ :2f5 find \; %^ :2f6 :r \; %^ :2f7 -n :x clear :i clear
:r -source c % -messages 1 -prepend <i -floats -c % -floatprep 1 -trigger
1 -first 1 \; %^ :3f0 chromatic \; %^ :3f1 major \; %^ :3f2 minor \;
%^ :3f3 pentatonic major \; %^ :3f4 pentatonic minor \; %^ :3f5 blues
major \; %^ :3f6 blues minor \; %^ :3f7 custom1 \; %^ :4f0 120000 \;
%^ :4f1 60000 \; %^ :4f2 30000 \; %^ :4f3 10000 \; %^ :4f4 3000 \;
%^ :4f5 1000 \; %^ :4f6 500 \; %^ :4f7 1 \; %^ :qu 0 \; %^ :gui 0 \;
%^ :sa 1 \; %^ :ac 0 \; %^ :m1 bang \; %^ :tx 0 \; %^ :ty :s p \; %^
:tz bang;
#X obj 151 227 receive \$0-:sa;
#X obj 151 249 s \$0-saveme;
#X connect 1 0 2 0;
#X connect 2 0 3 0;
#X connect 4 0 5 0;
#X restore 630 111 pd saving;
#X obj 688 18 receive \$0-iemargr;
#X obj 560 45 inlet;
#N canvas 391 329 450 415 quantize 0;
#X obj 255 43 inlet;
#X obj 255 111 timer;
#X obj 255 133 change;
#X obj 255 155 * 0.5;
#X obj 255 65 spigot;
#X obj 47 30 receive \$0-toquan;
#X obj 127 367 s \$0-fromquan;
#X obj 47 52 list trim;
#X obj 255 87 t b b b;
#X obj 47 120 t a b;
#X obj 79 146 timer;
#X obj 111 189 >;
#X obj 79 168 t f f;
#X obj 79 210 demux;
#X obj 47 74 relay :s :ss;
#X obj 79 297 list prepend s;
#X obj 111 232 -;
#X obj 111 254 abs;
#X obj 111 276 list prepend d;
#X obj 47 319 list append;
#X obj 299 43 receive \$0-:qu;
#X connect 0 0 4 0;
#X connect 1 0 2 0;
#X connect 2 0 3 0;
#X connect 2 0 16 1;
#X connect 3 0 11 1;
#X connect 4 0 8 0;
#X connect 5 0 7 0;
#X connect 7 0 14 0;
#X connect 8 0 1 0;
#X connect 8 1 1 1;
#X connect 8 2 10 0;
#X connect 9 0 19 0;
#X connect 9 1 10 1;
#X connect 10 0 12 0;
#X connect 11 0 13 1;
#X connect 12 0 13 0;
#X connect 12 1 11 0;
#X connect 13 0 15 0;
#X connect 13 1 16 0;
#X connect 14 0 9 0;
#X connect 14 1 9 0;
#X connect 14 2 6 0;
#X connect 15 0 19 1;
#X connect 16 0 17 0;
#X connect 17 0 18 0;
#X connect 18 0 19 1;
#X connect 19 0 6 0;
#X connect 20 0 4 1;
#X restore 560 137 pd quantize;
#N canvas 161 177 1017 515 shift-function 0;
#X obj 113 -4 keyname;
#X obj 113 40 list prepend;
#X obj 113 62 list trim;
#X obj 140 132 s \$0-shifton;
#X obj 113 132 ==;
#X obj 113 154 s \$0-rshifton;
#X obj 423 77 f 8;
#X obj 423 121 until;
#X obj 423 143 f 8;
#X obj 450 143 - 1;
#X obj 423 99 t f f;
#X obj 423 167 pack f f \$0;
#X obj 454 78 - 103;
#X msg 423 190 \; \$3-\$1-\$2-inn 127 \; \$3-\$1-\$2-inn 0;
#X obj 631 -7 receive \$0-rightshift;
#X obj 646 68 swap 8;
#X obj 646 90 -;
#X obj 646 134 f 8;
#X obj 646 156 t f f;
#X obj 646 178 until;
#X obj 673 222 f 8;
#X obj 703 222 - 1;
#X obj 646 112 t b f;
#X obj 646 200 t b b;
#X obj 646 222 f;
#X obj 408 31 receive \$0-topshift;
#X obj 565 139 t f;
#X obj 539 139 f 1;
#X obj 539 161 s \$0-stempoff;
#X obj 229 129 sel 1;
#X obj 229 151 s \$0-shiftcancel;
#X obj 229 107 spigot;
#X obj 113 109 t f f f;
#X obj 113 18 spigot;
#X obj 163 -4 receive \$0-turnmeons;
#X obj 631 15 t b f b f f;
#X obj 408 53 t b b f b f f;
#X obj 742 246 change;
#X obj 742 192 f 1;
#X obj 742 276 spigot;
#X obj 742 298 s \$0-dobang;
#X obj 788 246 receive \$0-midon;
#X obj 113 84 route Shift_L Shift_R Control_L Control_R c C;
#X obj 335 107 t b f;
#X obj 335 129 del 100;
#X obj 335 151 f;
#X obj 335 173 s \$0-ckey;
#X obj 797 158 del 250;
#X obj 797 203 f -1;
#X obj 646 39 demux;
#X obj 838 114 t b b b;
#X obj 742 218 demux;
#X obj 742 133 t b b f;
#X obj 877 141 f 1;
#X text 899 175 Sense double shift-clicks on control buttons and isolate
y-axis clicks in mode1.;
#X obj 739 345 + 1;
#X obj 742 91 sel -1;
#X obj 838 91 sel -1;
#X obj 739 321 t f b b;
#X obj 778 368 t f f;
#X obj 778 345 ==;
#X obj 758 392 demux;
#X obj 739 465 zexy/pack f \$0 clear;
#X obj 785 415 symbol clear;
#X obj 758 438 symbol all;
#X msg 739 488 \; \$2-\$1-rshiftrow \$3;
#X obj 797 180 t b f f f;
#X obj 797 135 t b b;
#X obj 793 321 t f;
#X connect 0 0 33 0;
#X connect 0 1 1 1;
#X connect 1 0 2 0;
#X connect 2 0 42 0;
#X connect 4 0 5 0;
#X connect 6 0 10 0;
#X connect 7 0 8 0;
#X connect 8 0 9 0;
#X connect 8 0 11 0;
#X connect 9 0 8 1;
#X connect 10 0 7 0;
#X connect 10 1 8 1;
#X connect 11 0 13 0;
#X connect 12 0 11 1;
#X connect 14 0 35 0;
#X connect 15 0 16 0;
#X connect 15 1 16 1;
#X connect 16 0 22 0;
#X connect 17 0 18 0;
#X connect 18 0 19 0;
#X connect 18 1 20 1;
#X connect 19 0 23 0;
#X connect 20 0 21 0;
#X connect 20 0 11 1;
#X connect 21 0 20 1;
#X connect 22 0 17 0;
#X connect 22 1 24 1;
#X connect 23 0 24 0;
#X connect 23 1 20 0;
#X connect 24 0 11 0;
#X connect 25 0 36 0;
#X connect 26 0 28 0;
#X connect 27 0 28 0;
#X connect 29 0 30 0;
#X connect 31 0 29 0;
#X connect 32 0 4 0;
#X connect 32 1 3 0;
#X connect 32 2 31 1;
#X connect 33 0 1 0;
#X connect 34 0 33 1;
#X connect 35 0 27 0;
#X connect 35 1 49 0;
#X connect 35 2 26 0;
#X connect 35 3 57 1;
#X connect 35 4 57 0;
#X connect 36 0 27 0;
#X connect 36 1 6 0;
#X connect 36 2 12 0;
#X connect 36 3 26 0;
#X connect 36 4 56 1;
#X connect 36 5 56 0;
#X connect 37 0 39 0;
#X connect 38 0 51 0;
#X connect 39 0 40 0;
#X connect 41 0 39 1;
#X connect 42 0 32 0;
#X connect 42 1 32 0;
#X connect 42 2 31 0;
#X connect 42 3 31 0;
#X connect 42 4 43 0;
#X connect 42 5 43 0;
#X connect 43 0 44 0;
#X connect 43 1 45 1;
#X connect 44 0 45 0;
#X connect 45 0 46 0;
#X connect 47 0 66 0;
#X connect 48 0 56 1;
#X connect 48 0 57 1;
#X connect 49 0 15 0;
#X connect 49 1 58 0;
#X connect 50 0 38 0;
#X connect 50 1 47 0;
#X connect 50 2 53 0;
#X connect 51 0 37 0;
#X connect 51 1 49 1;
#X connect 52 0 38 0;
#X connect 52 1 47 0;
#X connect 52 2 51 1;
#X connect 53 0 51 1;
#X connect 55 0 62 0;
#X connect 56 0 52 0;
#X connect 56 1 67 0;
#X connect 57 0 50 0;
#X connect 57 1 67 0;
#X connect 58 0 55 0;
#X connect 58 1 61 0;
#X connect 58 2 60 0;
#X connect 59 0 61 1;
#X connect 59 1 60 1;
#X connect 60 0 59 0;
#X connect 61 0 64 0;
#X connect 61 1 63 0;
#X connect 62 0 65 0;
#X connect 63 0 62 2;
#X connect 64 0 62 2;
#X connect 66 0 48 0;
#X connect 66 1 37 0;
#X connect 66 2 51 1;
#X connect 66 3 49 1;
#X connect 67 0 47 0;
#X connect 67 1 68 0;
#X connect 68 0 60 1;
#X restore 560 177 pd shift-function;
#N canvas 67 91 450 661 mode-n1 0;
#X obj 223 20 receive \$0-mode-1;
#X obj 250 66 s \$0-clear;
#X obj 250 133 - 64;
#X obj 250 155 div 8;
#X obj 250 198 max 8;
#X obj 250 176 + 9;
#X obj 250 220 s \$0-mmax-z;
#X obj 157 29 bng 15 250 50 0 empty empty empty 17 7 0 10 -262144 -1
-1;
#X obj 218 197 + 1;
#X obj 193 220 pipe 10;
#X obj 193 242 sel;
#X obj 208 265 t f f f f;
#X obj 225 331 div 8;
#X obj 242 287 mod 8;
#X obj 208 419 pack f f f \$0;
#X obj 225 353 + 1;
#X obj 242 309 + 1;
#X text 294 295 read allgrid array from [launch-share] and populate
colors;
#X obj 43 347 receive \$0-modeallgot;
#X obj 43 369 unpack f f f;
#X obj 77 413 - 1;
#X obj 112 413 - 1;
#X obj 77 435 * 8;
#X obj 77 457 +;
#X obj 77 525 route bang;
#X obj 94 599 s \$0-review;
#X obj 92 74 receive \$0-ushift-0;
#X obj 208 163 +;
#X obj 92 96 * 8;
#X obj 223 42 t b b;
#X obj 223 111 t f f;
#X obj 77 391 +;
#X obj 225 375 -;
#X obj 92 118 t f f f f;
#X obj 134 577 sel \$0 0;
#X obj 179 641 f;
#X obj 179 620 del 0;
#X obj 77 503 array get grd%-IDshare 0 1;
#X obj 223 89 array size grd%-colshare;
#X obj 208 397 tabread grd%-colshare;
#X msg 179 663 \; \$1-masteron&& 1;
#X msg 208 441 \; \$4-\$2-\$3-s \$1;
#X obj -102 316 receive \$0-updub;
#X obj -84 389 receive \$0-downdub;
#X obj -65 506 +;
#X obj -65 435 f -1;
#X obj -83 362 f 1;
#X obj -25 422 v IDshare%%size;
#X obj -65 529 mod;
#X obj -102 339 t b b b;
#X obj -84 412 t b b b;
#X obj -8 479 t f;
#X obj -10 526 demux;
#X obj -65 459 t f f;
#X obj -65 482 f 1;
#X obj 17 479 abs;
#X obj 179 598 t b f;
#X obj 77 480 t f f;
#X obj -25 445 - 1;
#X obj 134 550 t f b;
#X obj 173 550 s \$0-resetm0;
#X connect 0 0 29 0;
#X connect 2 0 3 0;
#X connect 3 0 5 0;
#X connect 4 0 6 0;
#X connect 5 0 4 0;
#X connect 7 0 29 0;
#X connect 8 0 9 0;
#X connect 9 0 10 0;
#X connect 10 1 11 0;
#X connect 11 0 39 0;
#X connect 11 1 12 0;
#X connect 11 2 13 0;
#X connect 11 3 8 0;
#X connect 12 0 15 0;
#X connect 13 0 16 0;
#X connect 14 0 41 0;
#X connect 15 0 32 0;
#X connect 16 0 14 2;
#X connect 18 0 19 0;
#X connect 19 1 31 0;
#X connect 19 2 21 0;
#X connect 20 0 22 0;
#X connect 21 0 23 1;
#X connect 22 0 23 0;
#X connect 23 0 57 0;
#X connect 24 1 59 0;
#X connect 26 0 28 0;
#X connect 27 0 10 1;
#X connect 28 0 33 0;
#X connect 29 0 38 0;
#X connect 29 1 1 0;
#X connect 30 0 27 1;
#X connect 30 1 2 0;
#X connect 31 0 20 0;
#X connect 32 0 14 1;
#X connect 33 0 31 1;
#X connect 33 1 9 0;
#X connect 33 2 27 0;
#X connect 33 3 32 1;
#X connect 34 0 25 0;
#X connect 34 1 52 0;
#X connect 34 2 56 0;
#X connect 35 0 40 0;
#X connect 36 0 35 0;
#X connect 37 0 24 0;
#X connect 38 0 30 0;
#X connect 39 0 14 0;
#X connect 42 0 49 0;
#X connect 43 0 50 0;
#X connect 44 0 48 0;
#X connect 45 0 53 0;
#X connect 46 0 53 0;
#X connect 47 0 58 0;
#X connect 48 0 57 0;
#X connect 49 0 51 0;
#X connect 49 1 46 0;
#X connect 49 2 47 0;
#X connect 50 0 51 0;
#X connect 50 1 45 0;
#X connect 50 2 47 0;
#X connect 51 0 52 1;
#X connect 52 1 54 0;
#X connect 53 0 54 0;
#X connect 53 1 55 0;
#X connect 54 0 44 0;
#X connect 55 0 52 1;
#X connect 56 0 36 0;
#X connect 56 1 35 1;
#X connect 57 0 37 0;
#X connect 57 1 44 1;
#X connect 58 0 48 1;
#X connect 59 0 34 0;
#X connect 59 1 60 0;
#X restore 433 177 pd mode-n1;
#N canvas 531 222 450 461 label 0;
#X obj 215 19 receive \$0-turnmeons;
#X obj 103 239 v \$0-arrsize;
#X obj 86 204 t b b;
#X obj 118 287 f 1;
#X obj 103 261 cyclone/uzi 1 1;
#X obj 190 283 * 3;
#X obj 190 327 tabread \$0-id;
#X obj 190 305 - 1;
#X obj 190 349 makefilename %d-gridlabel;
#X obj 131 396 send;
#X obj 221 250 f 1;
#X obj 248 250 t f;
#X obj 205 132 * -1;
#X obj 205 110 f;
#X obj 215 41 sel 1 0;
#X obj 343 257 v \$0-m2id;
#X obj 316 234 t b b;
#X obj 316 257 f 1;
#X obj 333 213 t f b;
#X obj 166 156 sel 1 -1 2 -2 3 -3;
#X obj 103 313 f;
#X obj 166 88 t f f b;
#X obj 166 110 f;
#X obj 125 204 t b f;
#X obj 166 66 receive \$0-mafter;
#X obj 221 272 v \$0-m1label;
#X obj 294 105 s \$0-imoff;
#X connect 0 0 14 0;
#X connect 1 0 4 0;
#X connect 2 0 1 0;
#X connect 2 1 3 0;
#X connect 3 0 20 1;
#X connect 4 0 20 0;
#X connect 4 2 5 0;
#X connect 5 0 7 0;
#X connect 6 0 8 0;
#X connect 7 0 6 0;
#X connect 8 0 9 1;
#X connect 10 0 25 0;
#X connect 11 0 25 0;
#X connect 12 0 19 0;
#X connect 13 0 12 0;
#X connect 14 0 22 0;
#X connect 14 1 12 0;
#X connect 14 1 26 0;
#X connect 15 0 8 0;
#X connect 16 0 17 0;
#X connect 16 1 15 0;
#X connect 17 0 9 0;
#X connect 18 0 9 0;
#X connect 18 1 15 0;
#X connect 19 0 2 0;
#X connect 19 1 23 0;
#X connect 19 2 10 0;
#X connect 19 3 11 0;
#X connect 19 4 16 0;
#X connect 19 5 18 0;
#X connect 20 0 9 0;
#X connect 21 0 22 0;
#X connect 21 1 13 1;
#X connect 21 2 13 0;
#X connect 22 0 19 0;
#X connect 23 0 1 0;
#X connect 23 1 20 1;
#X connect 24 0 21 0;
#X restore 560 217 pd label;
#X obj 560 67 route bang;
#X obj 560 277 iemguts/closebang;
#X obj 36 279 iemguts/propertybang;
#N canvas 312 87 933 681 color 0;
#X obj 143 58 receive \$0-getcolor;
#X obj 143 80 unpack;
#X obj 147 672 send;
#X obj 192 102 makefilename %d-gotcolor;
#X obj 245 149 cyclone/uzi 128 0;
#X obj 361 221 t f f f;
#X obj 361 195 * 3;
#X obj 384 245 + 1;
#X obj 411 245 + 2;
#X obj 165 545 t f f;
#X obj 165 567 change;
#X obj 361 173 t f f;
#X obj 165 615 f;
#X obj 147 648 f;
#X obj 165 589 t b;
#X obj 165 523 min 1e+06;
#X obj 498 242 f 1e+08;
#X obj 165 357 +;
#X obj 252 343 t f f;
#X obj 165 379 * 0.5;
#X obj 284 375 -;
#X obj 333 374 -;
#X obj 411 368 -;
#X text 152 337 r = $f1;
#X text 263 356 R = $f2;
#X text 327 349 G = $f3;
#X text 420 351 B = $f4;
#X obj 165 401 t f f;
#X obj 197 424 expr 2 + (255 - $f1)/256;
#X obj 165 486 expr (2 + $f1 / 256) * $f2 * $f2 + 4 * $f3 * $f3 + $f4
* $f4 * $f5;
#X text 215 407 $f5;
#X obj 143 102 t f f;
#X obj 147 132 sel;
#X text 467 399 formula take from https://en.wikipedia.org/wiki/Color_difference#Euclidean
\, but it doesn't work very well at all.;
#X obj 479 219 mod 256;
#X obj 479 197 * -1;
#X obj 461 170 mod 256;
#X obj 442 121 mod 256;
#X obj 411 268 tabread novcolors##;
#X obj 384 293 tabread novcolors##;
#X obj 252 321 tabread novcolors##;
#X obj 424 51 * -1;
#X obj 461 148 div -256;
#X obj 442 99 div -65536;
#X obj 424 73 t b f f f b;
#X connect 0 0 1 0;
#X connect 1 0 31 0;
#X connect 1 1 3 0;
#X connect 3 0 2 1;
#X connect 4 1 13 0;
#X connect 4 2 11 0;
#X connect 5 0 40 0;
#X connect 5 1 7 0;
#X connect 5 2 8 0;
#X connect 6 0 5 0;
#X connect 7 0 39 0;
#X connect 8 0 38 0;
#X connect 9 0 10 0;
#X connect 9 1 15 1;
#X connect 10 0 14 0;
#X connect 11 0 6 0;
#X connect 11 1 12 1;
#X connect 12 0 13 1;
#X connect 13 0 2 0;
#X connect 14 0 12 0;
#X connect 15 0 9 0;
#X connect 16 0 15 1;
#X connect 17 0 19 0;
#X connect 18 0 17 0;
#X connect 18 1 20 0;
#X connect 19 0 27 0;
#X connect 20 0 29 1;
#X connect 21 0 29 2;
#X connect 22 0 29 3;
#X connect 27 0 29 0;
#X connect 27 1 28 0;
#X connect 28 0 29 4;
#X connect 29 0 15 0;
#X connect 31 0 32 1;
#X connect 31 1 32 0;
#X connect 32 0 13 0;
#X connect 32 1 41 0;
#X connect 34 0 22 1;
#X connect 35 0 34 0;
#X connect 36 0 21 1;
#X connect 37 0 20 1;
#X connect 37 0 17 1;
#X connect 38 0 22 0;
#X connect 39 0 21 0;
#X connect 40 0 18 0;
#X connect 41 0 44 0;
#X connect 42 0 36 0;
#X connect 43 0 37 0;
#X connect 44 0 4 0;
#X connect 44 1 43 0;
#X connect 44 2 42 0;
#X connect 44 3 35 0;
#X connect 44 4 16 0;
#X restore 433 277 pd color;
#X obj 324 65 declare -lib zexy -path zexy -path ./;
#X obj 100 137 ctxfiles/p3 2 \$0 7;
#X obj 100 154 ctxfiles/p3 3 \$0 6;
#X obj 100 171 ctxfiles/p3 4 \$0 5;
#X obj 100 188 ctxfiles/p3 5 \$0 4;
#X obj 100 205 ctxfiles/p3 6 \$0 3;
#X obj 100 222 ctxfiles/p3 7 \$0 2;
#X obj 100 239 ctxfiles/p3 8 \$0 1;
#X symbolatom 239 100 20 0 0 0 - #0-symreceive #0-symsend, f 20;
#X obj 36 301 ctxfiles/get-properties \$0 ctxfiles/gridcontrol-properties
97;
#X obj 256 137 ctxfiles/s1 \$0 1;
#X obj 256 154 ctxfiles/s1 \$0 2;
#X obj 256 171 ctxfiles/s1 \$0 3;
#X obj 256 205 ctxfiles/s1 \$0 5;
#X obj 256 222 ctxfiles/s1 \$0 6;
#X obj 256 188 ctxfiles/s1 \$0 4;
#X obj 256 239 ctxfiles/s1 \$0 7;
#N canvas 626 335 583 300 flash 0;
#X obj 175 20 receive \$0-vsel2wait;
#X obj 175 43 sel 1;
#X text 237 40 flash mode2 with function hold;
#X obj 175 116 v \$0-last;
#X obj 175 267 s \$0-funcflash;
#X obj 175 139 t f f;
#X obj 187 171 f;
#X obj 202 66 t b b;
#X obj 202 89 t f;
#X obj 187 194 sel 0;
#X obj 214 217 pack f 59 1;
#X obj 175 244 pack f 0 2;
#X connect 0 0 1 0;
#X connect 1 0 3 0;
#X connect 1 1 7 0;
#X connect 3 0 5 0;
#X connect 5 0 11 0;
#X connect 5 1 6 1;
#X connect 6 0 9 0;
#X connect 7 0 8 0;
#X connect 7 1 6 0;
#X connect 8 0 6 1;
#X connect 9 1 10 0;
#X connect 10 0 4 0;
#X connect 11 0 4 0;
#X restore 560 157 pd flash;
#N canvas 138 89 973 582 function 0;
#X obj 325 18 receive \$0-op;
#X obj 325 634 send;
#X obj 331 272 t f b;
#X obj 325 65 demux;
#X obj 358 295 f 1;
#X text 360 618 send custom message to context;
#X obj 672 304 demux;
#X text 722 231 SET MEDIUM VIEW;
#X text 713 306 1: receive ID number;
#X obj 726 349 s \$0-preID;
#X obj 144 165 receive \$0-m2out;
#X obj 412 272 t a b;
#X obj 699 327 t b f;
#X obj 132 143 v \$0-preID;
#X obj 346 88 receive \$0-parentdollar;
#X msg 346 604 symbol \$2-c\$1;
#X obj 325 115 pack;
#X obj 144 251 pack;
#X obj 325 491 demux;
#X obj 352 513 s \$0-toquan;
#X obj 335 536 receive \$0-fromquan;
#X obj 352 469 receive \$0-:qu;
#X obj 699 281 - 2;
#X obj 331 152 receive \$0-0-vselgot;
#X obj 359 177 receive \$0-1-vselgot;
#X obj 105 121 t b b;
#X msg 105 143 :s;
#X obj 105 49 receive \$0-m3bang;
#X obj 331 227 list trim;
#X obj 132 72 receive \$0-stealside;
#X obj 105 96 demux;
#X obj 144 188 demux;
#X obj 699 371 s \$0-mode3fromB;
#X obj 325 41 t f f;
#X obj 325 323 list prepend;
#X obj 325 563 cyclone/zl ecils 2;
#X obj 144 211 t f f;
#X obj 672 396 s \$0-mode3fromA;
#X text 581 178 ACCOUNT FOR \; 1: npref-1 \; 2: route -n;
#N canvas 541 186 376 540 re-space 0;
#X obj 59 40 inlet;
#X obj 59 504 outlet;
#X obj 59 63 else/fromany;
#X obj 59 388 ctxfiles/collect;
#X obj 86 134 cyclone/iter;
#X obj 86 357 else/fromany;
#X obj 86 334 v \$0-parentdollar;
#X obj 59 411 else/toany;
#X obj 86 158 demux;
#X obj 111 276 f 1;
#X obj 113 205 t b f;
#X obj 113 228 f 32;
#X obj 126 157 t f;
#X obj 152 205 t f b b;
#X obj 171 228 f 196;
#X text 185 319 substitute special characters;
#X obj 113 182 sel 160;
#X obj 195 351 t b b;
#X obj 59 434 demux;
#X obj 195 374 f 1;
#X obj 112 504 s \$0-tylist;
#X obj 59 86 t b l b b;
#X obj 195 303 spigot;
#X obj 228 277 receive \$0-midon;
#X obj 86 251 sel 36 194 47;
#X msg 86 480 set \$1;
#X obj 86 458 l2s  ;
#X msg 112 435 set :s p %i;
#X connect 0 0 2 0;
#X connect 2 0 21 0;
#X connect 3 0 7 0;
#X connect 4 0 8 0;
#X connect 5 0 3 1;
#X connect 6 0 5 0;
#X connect 7 0 18 0;
#X connect 8 0 24 0;
#X connect 8 1 16 0;
#X connect 9 0 8 1;
#X connect 10 0 11 0;
#X connect 10 1 8 1;
#X connect 11 0 3 1;
#X connect 12 0 8 1;
#X connect 12 0 18 1;
#X connect 13 0 3 1;
#X connect 13 1 14 0;
#X connect 13 2 12 0;
#X connect 14 0 3 1;
#X connect 16 0 10 0;
#X connect 16 1 13 0;
#X connect 17 0 19 0;
#X connect 17 1 3 0;
#X connect 18 0 1 0;
#X connect 18 1 26 0;
#X connect 19 0 18 1;
#X connect 21 0 3 0;
#X connect 21 1 4 0;
#X connect 21 2 12 0;
#X connect 21 3 27 0;
#X connect 22 0 17 0;
#X connect 23 0 22 1;
#X connect 24 0 6 0;
#X connect 24 1 9 0;
#X connect 24 2 22 0;
#X connect 24 3 3 1;
#X connect 25 0 20 0;
#X connect 26 0 25 0;
#X connect 27 0 20 0;
#X restore 331 202 pd re-space;
#X obj 407 323 receive \$0-npref-1;
#X obj 325 347 list prepend;
#X obj 145 496 list;
#X obj 145 519 route bang;
#X obj 40 413 receive \$0-befcell;
#X obj 40 466 t b f;
#X obj 398 295 f 1;
#X obj 40 436 spigot;
#X obj 106 460 t f f;
#X obj 147 436 receive \$0-mode;
#X obj 133 547 demux 0 1 2 3;
#X obj 183 570 s \$0-vsel2wait;
#X obj 147 460 t f b b;
#X obj 371 272 t a b;
#X text 53 385 function buffer;
#X obj 325 419 t a b b;
#X obj 331 249 route -send -n;
#X obj 325 444 cyclone/substitute;
#X msg 430 419 % \$1;
#X obj 325 371 demux;
#X obj 439 295 t f f;
#X obj 352 393 t a b;
#X obj 106 436 f 1;
#X connect 0 0 33 0;
#X connect 2 0 22 0;
#X connect 2 1 4 0;
#X connect 3 0 16 0;
#X connect 3 1 6 0;
#X connect 4 0 3 1;
#X connect 6 0 37 0;
#X connect 6 1 12 0;
#X connect 10 0 31 0;
#X connect 11 0 34 1;
#X connect 11 1 60 0;
#X connect 12 0 32 0;
#X connect 12 1 9 0;
#X connect 13 0 17 0;
#X connect 14 0 16 1;
#X connect 14 0 17 1;
#X connect 15 0 1 1;
#X connect 16 0 34 0;
#X connect 17 0 34 0;
#X connect 18 0 35 0;
#X connect 18 1 19 0;
#X connect 20 0 35 0;
#X connect 21 0 18 1;
#X connect 22 0 6 1;
#X connect 23 0 39 0;
#X connect 24 0 39 0;
#X connect 25 0 26 0;
#X connect 25 1 13 0;
#X connect 26 0 34 0;
#X connect 27 0 30 0;
#X connect 28 0 56 0;
#X connect 29 0 30 1;
#X connect 29 0 31 1;
#X connect 30 0 25 0;
#X connect 31 0 36 0;
#X connect 33 0 3 0;
#X connect 33 1 58 0;
#X connect 34 0 41 0;
#X connect 35 0 1 0;
#X connect 35 1 15 0;
#X connect 36 0 17 0;
#X connect 36 1 58 0;
#X connect 39 0 28 0;
#X connect 40 0 41 1;
#X connect 41 0 59 0;
#X connect 42 0 43 0;
#X connect 43 1 55 0;
#X connect 44 0 47 0;
#X connect 45 0 42 0;
#X connect 45 1 58 0;
#X connect 46 0 59 1;
#X connect 47 0 45 0;
#X connect 48 0 47 1;
#X connect 48 1 50 0;
#X connect 49 0 52 0;
#X connect 50 2 51 0;
#X connect 52 0 50 1;
#X connect 52 1 42 1;
#X connect 52 2 48 0;
#X connect 53 0 34 1;
#X connect 53 1 46 0;
#X connect 55 0 57 0;
#X connect 55 1 48 0;
#X connect 55 2 42 1;
#X connect 56 0 2 0;
#X connect 56 1 53 0;
#X connect 56 2 11 0;
#X connect 57 0 18 0;
#X connect 57 1 18 0;
#X connect 58 0 57 1;
#X connect 59 0 55 0;
#X connect 59 1 61 0;
#X connect 60 0 3 1;
#X connect 60 1 59 1;
#X connect 61 0 42 1;
#X connect 61 1 62 0;
#X connect 62 0 48 0;
#X restore 560 257 pd function send;
#X connect 1 0 2 0;
#X connect 20 0 19 0;
#X connect 21 0 20 0;
#X connect 24 0 20 0;
#X connect 25 0 30 0;
#X connect 30 0 26 0;
#X connect 30 1 19 0;
#X connect 31 0 6 0;
#X connect 32 0 43 0;
#X coords 0 -1 1 1 278 156 2 100 100;
