#N canvas 67 281 605 425 10;
#X declare -lib zexy -path zexy -path ./;
#X obj 1 1 cnv 15 126 77 empty \$0-canvas empty 20 12 0 14 -232534
-66577 0;
#N canvas 65 327 292 163 \$0-paint 0;
#X coords 0 0 128 79 128 79 2 0 0;
#X restore 0 0 pd \$0-paint;
#N canvas 65 93 919 560 (subpatch) 0;
#X array \$0-array 128 float 0;
#X obj 202 54 receive \$0-arraysize;
#X obj 202 76 iemguts/sendcanvas;
#X connect 1 0 2 0;
#X coords 0 1 1 0.987342 1 1 2 0 0;
#X restore 0 1 graph;
#X obj -60 -200 inlet;
#X obj -60 -166 outlet;
#X obj -314 -165 iemguts/initbang;
#N canvas 198 241 883 527 commands 0;
#X obj 141 72 inlet;
#X obj -133 175 cyclone/zl iter 1;
#X obj 68 48 iemguts/oreceive \$0-array-;
#X obj 68 24 makefilename %s-;
#X obj 68 2 receive \$0-aname;
#X obj 387 2 receive \$0-rey;
#X obj 387 24 t b b;
#X obj 387 90 spigot;
#X obj 431 90 spigot;
#X obj 431 112 s \$0-rey1;
#X obj 387 132 s \$0-rey2;
#X obj 420 45 receive \$0-nsize2;
#X obj 464 66 receive \$0-nsize1;
#X obj 625 18 receive \$0-newpoint1;
#X obj 682 86 f;
#X obj 682 108 s \$0-duplicate;
#X obj 645 182 f;
#X obj 625 292 f;
#X obj 625 316 sel 0;
#X msg 625 338 1;
#X msg 652 338 -1;
#X obj 647 442 * 2;
#X obj 647 464 s \$0-size*2;
#X obj 633 135 receive \$0-:mirror-y;
#X obj 636 238 receive \$0-:mirror-x;
#X obj 645 204 s \$0-:mirror-y;
#X obj 625 360 s \$0-:mirror-xx;
#X obj 670 40 receive \$0-:duplicate;
#X obj 620 396 receive \$0-:size;
#X obj 185 72 receive \$0-reintegrate;
#X obj 141 96 t a b;
#X obj 141 168 s *ujK9)erD;
#X obj 173 120 f \$0;
#X obj 173 142 v (dollarzero);
#X obj 670 63 t b f;
#X obj 633 158 t b f;
#X obj 636 261 t b f;
#X obj 620 419 t b f;
#X obj 480 2 receive \$0-:x;
#X obj 369 285 makefilename %s-getdim;
#X obj 369 375 send;
#X obj 369 330 t b s;
#X obj 369 352 f \$0;
#X text 408 336 interface with [grab];
#X obj 369 308 iemguts/oreceive \$0-getdim;
#X obj 111 204 makefilename sketch-%s;
#X obj 111 227 s \$0-sendname;
#X connect 0 0 30 0;
#X connect 2 0 30 0;
#X connect 3 0 2 0;
#X connect 4 0 3 0;
#X connect 4 0 39 0;
#X connect 4 0 45 0;
#X connect 5 0 6 0;
#X connect 6 0 7 0;
#X connect 6 1 8 0;
#X connect 7 0 10 0;
#X connect 8 0 9 0;
#X connect 11 0 7 1;
#X connect 12 0 8 1;
#X connect 13 0 14 0;
#X connect 13 0 16 0;
#X connect 13 0 17 0;
#X connect 14 0 15 0;
#X connect 16 0 25 0;
#X connect 17 0 18 0;
#X connect 18 0 19 0;
#X connect 18 1 20 0;
#X connect 19 0 26 0;
#X connect 20 0 26 0;
#X connect 21 0 22 0;
#X connect 23 0 35 0;
#X connect 24 0 36 0;
#X connect 27 0 34 0;
#X connect 28 0 37 0;
#X connect 29 0 30 0;
#X connect 30 0 31 0;
#X connect 30 1 32 0;
#X connect 32 0 33 0;
#X connect 34 0 6 0;
#X connect 34 1 14 1;
#X connect 35 0 6 0;
#X connect 35 1 16 1;
#X connect 36 0 6 0;
#X connect 36 1 17 0;
#X connect 37 0 6 0;
#X connect 37 1 21 0;
#X connect 38 0 6 0;
#X connect 39 0 44 0;
#X connect 41 0 42 0;
#X connect 41 1 40 1;
#X connect 42 0 40 0;
#X connect 44 0 41 0;
#X connect 45 0 46 0;
#X restore -327 -88 pd commands;
#X obj -384 -135 inlet;
#X obj -384 -111 route bang;
#X obj -314 -111 iemguts/canvasargs;
#X obj -301 -188 receive \$0-iemargr;
#N canvas 67 276 1090 472 canvas 0;
#X text 53 47 coords xfrom yfrom xto yto xsize ysize type xmargin ymargin
;
#X obj 110 416 iemguts/sendcanvas 1;
#X obj 256 220 /;
#X obj 304 197 swap 128;
#X obj 304 221 /;
#X floatatom 49 92 5 0 0 0 - - -, f 5;
#X floatatom 99 73 5 0 0 0 - - -, f 5;
#X obj 256 198 swap 1;
#X obj 256 242 swap 1;
#X obj 256 262 -;
#X obj 186 124 t b f f f;
#X obj 139 197 - 2;
#X obj 217 206 - 2;
#X obj 578 287 s \$0-aname;
#X obj 731 59 symbol \$0-array;
#X msg 644 216 \; \$2 rename \$1;
#X obj 731 34 receive \$0-lb;
#X obj 256 152 f 79;
#X obj 431 67 sel 0;
#X obj 449 105 -;
#X obj 449 127 sel 0;
#X obj 644 187 zexy/pack symbol \$0-array;
#X obj 476 158 s \$0-y1y2;
#X obj 371 24 t b b f b f f;
#X obj 412 240 spigot;
#X obj 445 215 receive \$0-savestart;
#X obj 412 262 s \$0-rey;
#X obj 578 41 receive \$0-coff;
#X obj 463 46 t b b b b f f;
#X obj 534 81 f;
#X obj 534 103 s \$0-y22;
#X obj 578 255 symbol \$0-array;
#X obj 886 109 f 128;
#X obj 886 131 / 128;
#X obj 900 87 t b f;
#X obj 886 153 t b f;
#X obj 886 205 s \$0-lob;
#X obj 139 174 * 1;
#X obj 100 124 t f f f;
#X obj 139 152 f 128;
#X obj 110 283 pack 128 79 128 \$0 0.987342 1 126 77 1;
#X obj 270 79 f 128;
#X obj 270 101 * 1;
#X obj 17 64 t b b f b f;
#X obj 494 337 zexy/pack 128 \$0-array;
#X obj 617 152 t s s;
#X obj 590 125 t s s s;
#X msg 494 366 \; \$2 resize \$1;
#X obj 953 130 f 1;
#X obj 990 177 v c\$0sbyy;
#X obj 953 108 receive \$0-vload;
#X obj 913 177 s c\$0sbyx;
#X msg 804 292 color \$1;
#X obj 804 314 s \$0-canvas;
#X msg 137 330 \; \$4-canvas vis_size \$7 \$8 \; \$4-arraysize coords
0 \$9 \$6 \$5 1 1 2 0 0 \; pd-\$4-paint coords 0 0 \$1 \$2 \$1 \$2
2 0 0;
#X msg 110 393 coords 0 0 \$1 \$2 \$1 \$2 2 0 0;
#X obj 110 305 t l l;
#X obj 17 12 sel 0;
#X obj 17 34 f 1;
#X msg 44 34 2;
#X obj 217 -38 sel 0;
#X obj 217 -16 f 1;
#X msg 244 -16 2;
#X obj 218 156 * 1;
#X obj 217 -60 spigot;
#X obj 217 6 t b b f;
#X obj 270 124 t b f b f f f;
#X obj 345 155 s \$0-redub;
#X obj 217 -90 receive \$0-:mirror-x;
#X obj 17 -30 receive \$0-:duplicate;
#X obj 804 270 receive \$0-:color;
#X obj 590 -44 receive \$0-:name;
#X obj 186 102 receive \$0-:y;
#X obj 100 102 receive \$0-:x;
#X obj 463 24 receive \$0-:y2;
#X obj 371 2 receive \$0-:y1;
#X obj 886 40 receive \$0-:size;
#X obj 900 65 receive \$0-:x;
#X obj 590 93 l2s;
#X obj 622 70 receive \$0-lb;
#X obj 622 92 symbol -;
#X obj 590 8 list prepend;
#X obj 710 -44 sel 0;
#X obj 740 -4 iemguts/canvasdollarzero 2;
#X obj 740 -24 t b;
#X obj 590 -16 symbol \$0-array;
#X obj 678 -88 receive \$0-:name2;
#X obj 678 -66 t b f;
#X obj 270 57 receive \$0-:size;
#X obj 304 171 f 128;
#X connect 2 0 8 0;
#X connect 3 0 4 0;
#X connect 3 1 4 1;
#X connect 4 0 40 5;
#X connect 5 0 38 0;
#X connect 6 0 10 0;
#X connect 7 0 2 0;
#X connect 7 1 2 1;
#X connect 8 0 9 0;
#X connect 8 1 9 1;
#X connect 9 0 40 4;
#X connect 10 0 40 0;
#X connect 10 1 40 1;
#X connect 10 2 17 0;
#X connect 11 0 40 6;
#X connect 12 0 40 7;
#X connect 14 0 45 0;
#X connect 16 0 14 0;
#X connect 17 0 63 0;
#X connect 17 0 7 0;
#X connect 18 1 8 1;
#X connect 19 0 20 0;
#X connect 20 1 7 1;
#X connect 20 1 22 0;
#X connect 21 0 15 0;
#X connect 23 0 24 0;
#X connect 23 1 40 0;
#X connect 23 2 40 8;
#X connect 23 3 17 0;
#X connect 23 4 18 0;
#X connect 23 5 19 0;
#X connect 24 0 26 0;
#X connect 25 0 24 1;
#X connect 27 0 19 0;
#X connect 27 0 29 0;
#X connect 27 0 31 0;
#X connect 28 0 24 0;
#X connect 28 1 40 0;
#X connect 28 2 17 0;
#X connect 28 3 19 0;
#X connect 28 4 19 1;
#X connect 28 5 29 0;
#X connect 29 0 30 0;
#X connect 31 0 13 0;
#X connect 32 0 33 0;
#X connect 33 0 35 0;
#X connect 34 0 32 0;
#X connect 34 1 33 1;
#X connect 35 0 36 0;
#X connect 35 1 51 0;
#X connect 37 0 11 0;
#X connect 37 0 89 0;
#X connect 38 0 40 0;
#X connect 38 2 39 0;
#X connect 39 0 37 0;
#X connect 40 0 56 0;
#X connect 41 0 42 0;
#X connect 42 0 66 0;
#X connect 43 0 40 0;
#X connect 43 1 39 0;
#X connect 43 2 37 1;
#X connect 43 3 41 0;
#X connect 43 4 42 1;
#X connect 44 0 47 0;
#X connect 45 0 21 1;
#X connect 45 1 21 0;
#X connect 46 0 31 0;
#X connect 46 1 45 0;
#X connect 46 2 44 1;
#X connect 48 0 49 0;
#X connect 48 0 51 0;
#X connect 50 0 48 0;
#X connect 52 0 53 0;
#X connect 55 0 1 0;
#X connect 56 0 55 0;
#X connect 56 1 54 0;
#X connect 57 0 58 0;
#X connect 57 0 61 0;
#X connect 57 1 59 0;
#X connect 58 0 43 0;
#X connect 59 0 43 0;
#X connect 60 0 61 0;
#X connect 60 1 62 0;
#X connect 61 0 65 0;
#X connect 62 0 65 0;
#X connect 63 0 12 0;
#X connect 64 0 60 0;
#X connect 65 0 40 0;
#X connect 65 1 17 0;
#X connect 65 2 63 1;
#X connect 66 0 40 0;
#X connect 66 1 40 2;
#X connect 66 2 89 0;
#X connect 66 3 3 1;
#X connect 66 4 44 0;
#X connect 66 5 67 0;
#X connect 68 0 64 0;
#X connect 69 0 57 0;
#X connect 69 0 64 1;
#X connect 70 0 52 0;
#X connect 71 0 85 0;
#X connect 72 0 10 0;
#X connect 73 0 38 0;
#X connect 74 0 28 0;
#X connect 75 0 23 0;
#X connect 76 0 32 0;
#X connect 77 0 34 0;
#X connect 78 0 46 0;
#X connect 79 0 80 0;
#X connect 80 0 78 1;
#X connect 81 0 78 0;
#X connect 82 0 81 1;
#X connect 82 1 84 0;
#X connect 83 0 81 1;
#X connect 84 0 83 0;
#X connect 85 0 81 0;
#X connect 86 0 87 0;
#X connect 87 0 85 0;
#X connect 87 1 82 0;
#X connect 88 0 41 0;
#X connect 89 0 3 0;
#X restore -384 132 pd canvas;
#X obj -233 -20 namecanvas \$0-maincanvas;
#X obj -233 -43 declare -lib zexy -stdlib zexy -path ./;
#N canvas 466 163 708 471 inlets 0;
#X obj 165 110 -;
#X obj 165 132 until;
#X obj 165 154 f;
#X obj 192 154 + 1;
#X obj 165 384 iemguts/sendcanvas 1;
#X obj 185 200 * 100;
#X obj 205 226 * 3;
#X obj 205 248 t f f f;
#X obj 165 178 t f f f f, f 10;
#X obj 288 302 + 1;
#X obj 318 166 pack f 128 \$0;
#X obj 318 142 t b f;
#X obj 318 188 route 0;
#X msg 357 212 \; \$3-\$1-head \$2 \;;
#X obj 96 124 s \$0-coff;
#X obj 91 21 receive \$0-nsize1;
#X obj 118 77 t b b f f f f;
#X obj 63 146 s \$0-lob;
#X obj 91 46 moses;
#X obj 61 77 t f f f;
#X obj 207 301 + 29;
#X obj 227 278 + 30;
#X obj 249 301 + 31;
#X msg 165 349 obj \$2 -200 inlet \, obj \$2 -183 ctxfiles/io \$6 \$1
\$7 \$8 \, obj \$2 -166 outlet \, connect \$3 0 \$4 0 \, connect \$4
0 \$5 0;
#X obj 165 327 pack f f f f f \$0 f 128, f 25;
#X obj 312 302 receive \$0-:size;
#X obj 318 120 receive \$0-:size;
#X connect 0 0 1 0;
#X connect 1 0 2 0;
#X connect 2 0 3 0;
#X connect 2 0 8 0;
#X connect 3 0 2 1;
#X connect 5 0 24 1;
#X connect 6 0 7 0;
#X connect 7 0 20 0;
#X connect 7 1 21 0;
#X connect 7 2 22 0;
#X connect 8 0 24 0;
#X connect 8 1 5 0;
#X connect 8 2 6 0;
#X connect 8 3 9 0;
#X connect 9 0 24 6;
#X connect 10 0 12 0;
#X connect 11 0 10 0;
#X connect 11 1 10 1;
#X connect 12 1 13 0;
#X connect 15 0 18 0;
#X connect 16 0 17 0;
#X connect 16 1 14 0;
#X connect 16 2 10 0;
#X connect 16 3 0 1;
#X connect 16 4 0 0;
#X connect 16 5 18 1;
#X connect 18 0 19 0;
#X connect 18 1 16 0;
#X connect 19 0 18 1;
#X connect 19 1 2 1;
#X connect 19 2 0 1;
#X connect 20 0 24 2;
#X connect 21 0 24 3;
#X connect 22 0 24 4;
#X connect 23 0 4 0;
#X connect 24 0 23 0;
#X connect 25 0 24 7;
#X connect 26 0 11 0;
#X restore -385 -44 pd inlets;
#X obj -384 -66 outlet~;
#N canvas 67 381 585 365 init 0;
#X obj 157 20 inlet;
#X obj 200 118 outlet;
#X obj 157 42 ctxfiles/myinit 3;
#X obj 244 133 f \$0;
#X obj 244 200 pointer;
#X text 337 195 1: send pointer at init;
#X msg 244 157 traverse pd-\$1-paint \, bang \; pd-\$1-paint clear
;
#X obj 44 300 iemguts/sendcanvas 1;
#X obj 130 197 s \$0-savestart;
#X obj 130 168 f 1;
#X obj 22 17 receive \$0-aname;
#X obj 44 190 del 300;
#X obj 215 89 s \$0-lb;
#X obj 171 153 s \$0-lb1;
#X msg 44 278 menu-open \, vis 0;
#X obj 244 223 send \$0-ppoint;
#X obj 44 212 t b b b;
#X obj 63 256 s \$0-lbb2;
#X obj 83 234 s \$0-lbb1;
#X obj 229 250 s \$0-vload;
#X obj 170 131 del 1;
#X obj 321 97 ctxfiles/share3 ctxfiles/cushare;
#X obj 157 64 t b b b b b b b f;
#X obj 22 39 t b;
#X obj 22 61 del 0;
#X connect 0 0 2 0;
#X connect 2 0 22 0;
#X connect 3 0 6 0;
#X connect 4 0 15 0;
#X connect 6 0 4 0;
#X connect 9 0 8 0;
#X connect 10 0 23 0;
#X connect 11 0 16 0;
#X connect 14 0 7 0;
#X connect 16 0 14 0;
#X connect 16 1 17 0;
#X connect 16 2 18 0;
#X connect 20 0 13 0;
#X connect 22 0 11 0;
#X connect 22 1 20 0;
#X connect 22 2 9 0;
#X connect 22 3 1 0;
#X connect 22 4 12 0;
#X connect 22 5 19 0;
#X connect 22 6 3 0;
#X connect 22 7 21 0;
#X connect 23 0 24 0;
#X connect 24 0 14 0;
#X restore -314 -138 pd init;
#N canvas 235 121 557 359 saving 0;
#X obj 85 136 text define -k \$0-save;
#A set \; %^ :x 128 \; %^ :y 79 \; %^ :size 128 \; %^ :y1 1 \; %^ :y2
0 \; %^ :points bang \; %^ :bpoints bang \; %^ :name bang \; %^ :color
-1.47303e+07 \; %^ :speed 10 \; %^ :time 1000 \; %^ :duplicate 0 \;
%^ :mirror-x 0 \; %^ :mirror-y 0 \; %^ :scale 1 \; %^ :ec 0 \; %^ :name2
0 \; %^ :lock 0 \;;
#X obj 85 91 receive \$0-savelist;
#X msg 85 113 click;
#X obj 216 27 ctxfiles/saver \$0 switch-ee 3 switch-fe;
#X connect 1 0 2 0;
#X connect 2 0 0 0;
#X restore -384 -22 pd saving;
#N canvas 297 91 450 300 play 0;
#X obj 138 57 inlet;
#X obj 189 223 outlet~;
#X obj 189 149 vline~;
#X obj 189 201 tabread4~ \$0-array;
#X msg 231 171 set \$1;
#X obj 155 104 pack 0 128 1000;
#X obj 155 126 list split 1;
#X obj 231 149 receive \$0-aname;
#X obj 138 79 t b b f b;
#X obj 81 181 del 1000;
#X obj 138 181 f 1;
#X obj 81 203 t f;
#X obj 81 225 switch~;
#X obj 198 57 receive \$0-redub;
#X obj 242 81 receive \$0-:time;
#X connect 0 0 8 0;
#X connect 2 0 3 0;
#X connect 3 0 1 0;
#X connect 4 0 3 0;
#X connect 5 0 6 0;
#X connect 6 1 2 0;
#X connect 7 0 4 0;
#X connect 8 0 9 0;
#X connect 8 1 5 0;
#X connect 8 2 2 0;
#X connect 8 3 10 0;
#X connect 9 0 11 0;
#X connect 10 0 12 0;
#X connect 11 0 12 0;
#X connect 13 0 5 1;
#X connect 14 0 5 2;
#X connect 14 0 9 1;
#X restore -384 -88 pd play;
#N canvas 250 110 503 273 \$0-big2 0;
#X obj 24 37 t b;
#X obj 24 105 plot \$0-array2 500 0 -5 5;
#X obj 24 59 s \$0-sstart2;
#X obj 24 15 struct \$0-big2 float x float y array \$0-array2 ^&*-dsmall2
;
#X obj 24 82 receive \$0-zero2;
#X connect 0 0 2 0;
#X connect 3 0 0 0;
#X connect 4 0 1 0;
#X restore -384 66 pd \$0-big2;
#N canvas 250 110 503 273 \$0-big1 0;
#X obj 24 37 t b;
#X obj 24 105 plot \$0-array1 500 0 -5 5;
#X obj 24 59 s \$0-sstart1;
#X obj 24 15 struct \$0-big1 float x float y array \$0-array1 ^&*-dsmall1
;
#X obj 24 82 receive \$0-zero1;
#X connect 0 0 2 0;
#X connect 3 0 0 0;
#X connect 4 0 1 0;
#X restore -384 44 pd \$0-big1;
#X obj -60 -183 ctxfiles/io \$0 -1 0 128;
#X obj -384 88 ctxfiles/gget \$0 1 6;
#X obj -384 154 iemguts/propertybang;
#X obj -257 4 ctxfiles/license;
#X obj -384 0 ctxfiles/points \$0 1;
#X obj -384 22 ctxfiles/points \$0 2;
#X obj -384 176 ctxfiles/get-properties \$0 ctxfiles/sketch-properties
130;
#X obj -384 110 ctxfiles/gget \$0 2 7;
#X connect 3 0 21 0;
#X connect 5 0 16 0;
#X connect 7 0 8 0;
#X connect 8 0 18 0;
#X connect 8 1 6 0;
#X connect 9 0 6 0;
#X connect 10 0 9 0;
#X connect 16 0 9 0;
#X connect 18 0 15 0;
#X connect 21 0 4 0;
#X connect 23 0 27 0;
#X coords 0 0 128 79 128 79 2 0 0;
