#N canvas 205 318 703 300 10;
#X declare -lib zexy -path zexy -path ./;
#X floatatom 100 100 2 0 0 0 - #0-r #0-s, f 2;
#X obj 268 136 t b b;
#X obj 268 236 list append;
#X obj 268 190 iemguts/canvasargs;
#X obj 372 144 f \$4;
#X obj 157 85 iemguts/savebangs 1;
#X obj 295 161 v \$0-s;
#X obj 372 169 s \$0-r;
#X obj 557 28 receive \$0-s;
#X obj 584 74 s \$1-\$2-grabn;
#X obj 440 25 loadbang;
#X obj 291 45 receive \$1-\$2-toindex;
#X obj 291 68 t f f;
#X msg 318 92 set \$1;
#X obj 372 97 list append \$3;
#X obj 372 120 sel 0;
#X obj 268 112 spigot;
#X obj 337 119 f 1;
#X obj 530 113 value v\$3;
#X obj 530 136 t f f f;
#X obj 581 136 + 1;
#X obj 538 184 pack;
#X obj 538 207 s \$3-*;
#X obj 557 51 t f f;
#X text 29 10 CREATION ARGS: array name \, label \, group name \$1
(psave) \, init;
#X obj 499 238 makefilename \$3-%d;
#X obj 499 261 iemguts/oreceive \$0n;
#X obj 268 213 list split 3;
#X obj 341 236 list append 0;
#X obj 440 48 t b b b;
#X obj 479 73 s \$1-plb;
#X obj 25 161 ctxfiles/license;
#X obj 25 224 declare -lib zexy -path zexy;
#X connect 1 0 3 0;
#X connect 1 1 6 0;
#X connect 2 0 3 0;
#X connect 3 0 27 0;
#X connect 4 0 7 0;
#X connect 5 1 16 0;
#X connect 6 0 2 1;
#X connect 8 0 23 0;
#X connect 10 0 29 0;
#X connect 11 0 12 0;
#X connect 12 0 6 0;
#X connect 12 1 13 0;
#X connect 13 0 7 0;
#X connect 14 0 15 0;
#X connect 15 0 4 0;
#X connect 15 0 17 0;
#X connect 16 0 1 0;
#X connect 17 0 16 1;
#X connect 18 0 19 0;
#X connect 19 0 25 0;
#X connect 19 1 21 1;
#X connect 19 2 20 0;
#X connect 20 0 18 0;
#X connect 21 0 22 0;
#X connect 23 0 21 0;
#X connect 23 1 9 0;
#X connect 25 0 26 0;
#X connect 26 0 7 0;
#X connect 27 0 2 0;
#X connect 27 2 28 0;
#X connect 28 0 27 0;
#X connect 29 0 14 0;
#X connect 29 1 18 0;
#X connect 29 2 30 0;
#X coords 0 -1 1 1 14 17 2 100 100;
