#N canvas 369 216 666 354 10;
#X obj 319 33 ctxfiles/license;
#X obj 26 37 cnv 15 282 52 empty empty empty 20 12 0 14 -99865 -66577
0;
#X obj 21 32 cnv 15 282 52 empty empty empty 20 12 0 14 -1 -66577 0
;
#X obj 22 33 cnv 15 280 50 empty empty crossreference 24 20 1 35 -90093
-66577 0;
#X obj 26 255 context :H 6 :ID 1 :ol 1 6 obj 186 71 crossreference
1 5;
#X obj 95 255 context :H 6 :ID 2 :ol 1 6 obj 129 69 crossreference
2 5;
#X obj 164 255 context :H 6 :ID 3 :ol 1 6 obj 129 69 crossreference
3 5;
#X obj 235 255 context :H 6 :ID 4 :ol 1 6 obj 129 69 crossreference
4 5;
#X obj 24 185 context :H 6 :ID 5 :ol 1 10 obj 316 55 crossreference
1 \; 1 2 3 4;
#N canvas 67 94 450 300 (subpatch) 0;
#X text 42 127 Additional arguments are \; \; y -- crossreference the
y-axis instead of the x-axis \; \; -n -- prevent the referenced Context
from sending messages \; \; any other symbol -- references a Context
in another patch \, rather than this one (must match the argument of
a [patch] object in another patch).;
#X text 33 18 The first argument for [crossreference] is the toggle
position you wish it to respect in the connected Contexts. Thereafter
\, arguments are ID numbers (optionally separated by a comma or semi-colon
for clarity) . For instance \, if you wanted to connect this Context's
toggles to the 3rd toggles of Contexts 7 8 and 9 \, you would create
an object [crossreference 3 \, 7 8 9] in the overlay.;
#X obj 48 258 else/openfile patch-help.pd -h See: patch-help.pd;
#X restore 404 280 arguments;
#N canvas 193 165 450 300 (subpatch) 0;
#X obj 38 32 context :H 6 :ID 6 :ol 1 9 obj 213 79 crossreference 1
10 11 12 13;
#X obj 38 89 context :H 6 :ID 7 :ol 1 9 obj 213 80 crossreference 2
10 11 12 13;
#X obj 38 146 context :H 6 :ID 8 :ol 1 9 obj 212 80 crossreference
3 10 11 12 13;
#X obj 38 203 context :H 6 :ID 9 :ol 1 9 obj 213 80 crossreference
4 10 11 12 13;
#X obj 104 32 context :H 6 :ID 10 :ol 1 9 obj 263 79 crossreference
1 6 7 8 9;
#X obj 104 89 context :H 6 :ID 11 :ol 1 9 obj 263 79 crossreference
2 6 7 8 9;
#X obj 104 146 context :H 6 :ID 12 :ol 1 9 obj 263 79 crossreference
3 6 7 8 9;
#X obj 104 203 context :H 6 :ID 13 :ol 1 9 obj 263 79 crossreference
4 6 7 8 9;
#X text 243 59 Here \, each Context has [crossreference] object. Accordingly
\, the toggles in c6 are always equal to the first toggles in c10 \,
c11 \, c12 and c13 respectively. The toggles in c7 are always equal
to the second toggles in c10 \, c11 \, c12 \, c13 \, etc., f 28;
#X restore 404 301 example;
#X text 20 97 [crossreference] is an overlay abstraction used to connect
a toggle array with the toggles from a series of other Contexts in
the following way: the host Context's first toggle will be sent to
the first toggle of one Context \, the second toggle will be connected
to the first toggle from the next \, etc. The toggle position and the
Context ID numbers specified in the creation argument., f 80;
#X text 90 224 <-- change toggles and toggle floats to see the effect
of [crossrefernce], f 73;
#X obj 11 7 helpfiles/docfiles/help-display \$0;
#X obj 85 328 else/openfile helpfiles/links/overlay.html -h Context
Manual entry on [overlay];
#X obj 85 315 else/openfile helpfiles/links/ID.html -h Context Manual
entry on [ID];
#X text 25 316 see also:;
