#N canvas 298 304 450 300 10;
#N canvas 689 81 674 687 guts 1;
#X obj 121 79 symbol \$1;
#X obj 184 313 sel inlet~ outlet~;
#X msg 184 336 1;
#X msg 236 336 2;
#X obj 167 654 iemguts/sendcanvas 1;
#X obj 121 57 ctxfiles/myinit 3;
#X obj 136 385 demux 0 1 2;
#X obj 305 359 print ctx invalid tern;
#X obj 221 127 ctxfiles/dvi \$0 4;
#X obj 17 155 ctxfiles/dv \$0 s cbeep;
#X obj 137 127 t f;
#X obj 121 101 t b b s s b b b;
#X obj 43 417 demux;
#X obj 311 402 demux;
#X obj 206 212 ctxfiles/dv \$0 s i/onor;
#X obj 206 187 symbol \$0-nget;
#X obj 206 243 receive \$0-nget;
#X msg 229 431 menu-open;
#X msg 130 498 obj \$3 0 inlet~;
#X obj 351 463 t a b a a b;
#X obj 76 474 t a b a a b;
#X obj 311 424 t a b a b;
#X obj 43 439 t a b a b;
#X obj 136 290 pack s \$0 f f;
#X obj 220 267 receive \$0-dvstart;
#X msg 108 523 obj \$3 20 ctxfiles/vout~ \$2 \$4;
#X msg 394 528 obj \$3 50 ctxfiles/vin~ \$2 \$4;
#X msg 411 506 obj \$3 70 outlet~;
#X obj 242 99 iemguts/canvasdelete 1;
#X obj 121 35 inlet;
#X msg 36 622 obj 0 0 r~ \$2-i&)& \, obj 0 20 outlet~ \, connect 6
0 7 0;
#X msg 292 587 obj 0 0 inlet~ \, obj 0 20 s~ \$2-o&)& \, connect 6
0 7 0;
#X obj 236 683 iemguts/sendcanvas 3;
#X obj 17 132 symbol \$0-ctxbe;
#X obj 17 182 receive \$0-ctxbe;
#X obj 17 208 f 1;
#X obj 229 559 s \$0-conme2;
#X obj 376 559 s \$0-conme;
#X obj 482 656 print rrr-what;
#X obj 44 659 print lll-what;
#X connect 0 0 11 0;
#X connect 1 0 2 0;
#X connect 1 1 3 0;
#X connect 1 2 7 0;
#X connect 2 0 6 1;
#X connect 3 0 6 1;
#X connect 5 0 0 0;
#X connect 6 1 12 0;
#X connect 6 2 13 0;
#X connect 11 0 28 0;
#X connect 11 1 10 0;
#X connect 11 2 23 0;
#X connect 11 3 1 0;
#X connect 11 4 15 0;
#X connect 11 5 33 0;
#X connect 11 6 8 0;
#X connect 12 0 22 0;
#X connect 12 1 20 0;
#X connect 13 0 21 0;
#X connect 13 1 19 0;
#X connect 15 0 14 0;
#X connect 16 0 23 2;
#X connect 17 0 32 0;
#X connect 18 0 32 0;
#X connect 18 0 39 0;
#X connect 19 0 31 0;
#X connect 19 1 37 0;
#X connect 19 2 26 0;
#X connect 19 3 27 0;
#X connect 19 4 17 0;
#X connect 20 0 30 0;
#X connect 20 1 37 0;
#X connect 20 2 25 0;
#X connect 20 3 18 0;
#X connect 20 4 17 0;
#X connect 21 0 31 0;
#X connect 21 1 36 0;
#X connect 21 2 26 0;
#X connect 21 3 17 0;
#X connect 22 0 30 0;
#X connect 22 1 36 0;
#X connect 22 2 25 0;
#X connect 22 3 17 0;
#X connect 23 0 6 0;
#X connect 24 0 23 3;
#X connect 25 0 32 0;
#X connect 26 0 32 0;
#X connect 27 0 32 0;
#X connect 27 0 38 0;
#X connect 29 0 5 0;
#X connect 30 0 4 0;
#X connect 31 0 4 0;
#X connect 33 0 9 0;
#X connect 34 0 35 0;
#X connect 35 0 13 1;
#X connect 35 0 12 1;
#X restore 277 69 pd guts;
#X obj 277 92 iemguts/closebang;
#X obj 277 139 receive \$0-ricashay;
#X obj 277 115 s \$0-delmed;
#X obj 277 161 ctxfiles/dv \$0 s poww;
#X obj 277 45 iemguts/initbang;
#X text 274 216 A part of the Context library \, licensed under the
GPL. See license.txt. Copyright Liam Goodacre 2017;
#X connect 1 0 3 0;
#X connect 2 0 4 0;
#X connect 5 0 0 0;
