#N canvas 72 452 450 300 10;
#X declare -lib zexy -path zexy -path ./;
#N canvas 417 89 716 679 guts 1;
#X obj 184 313 sel inlet~ outlet~;
#X obj 167 654 iemguts/sendcanvas 1;
#X obj 136 33 ctxfiles/myinit 3;
#X obj 136 377 demux 0 1 2;
#X obj 289 335 print ctx invalid term;
#X obj 206 187 symbol \$0-nget;
#X obj 206 243 receive \$0-nget;
#X msg 229 431 menu-open;
#X msg 121 522 obj \$3 0 inlet~;
#X obj 351 463 t a b a a b;
#X obj 74 494 t a b a a b;
#X obj 311 434 t a b a b;
#X obj 43 439 t a b a b;
#X obj 136 290 pack s \$0 f f;
#X obj 220 267 receive \$0-dvstart;
#X msg 105 543 obj \$3 20 ctxfiles/vout~ \$2 \$4;
#X msg 394 528 obj \$3 50 ctxfiles/vin~ \$2 \$4;
#X msg 411 506 obj \$3 70 outlet~;
#X obj 136 11 inlet;
#X obj 17 132 symbol \$0-ctxbe;
#X obj 17 182 receive \$0-ctxbe;
#X obj 17 208 f 1;
#X obj 184 335 f 1;
#X obj 236 335 f 2;
#X obj 136 55 list append \$1 \$2;
#X obj 136 77 t s a;
#X obj 379 128 cyclone/zl rev;
#X obj 379 150 route 1;
#X obj 405 248 outlet;
#X obj 136 101 t s s b b b;
#X msg 36 622 obj 0 0 r~ \$2-i&)& \, obj 0 20 outlet~ \, connect 8
0 9 0;
#X msg 292 597 obj 0 0 inlet~ \, obj 0 20 s~ \$2-o&)& \, connect 8
0 9 0;
#X obj 405 227 list;
#X obj 236 683 iemguts/sendcanvas 3;
#X obj 340 525 demux;
#X obj 173 572 s \$0-conme2;
#X obj 340 577 s \$0-conme;
#X obj 367 556 s \$0-conme3;
#X obj 378 173 t b a;
#X obj 378 197 f 2;
#X obj 43 383 demux 0 1 2;
#X obj 311 392 demux 0 1 2;
#X obj 106 406 t b a a;
#X obj 106 428 del 100;
#X obj 106 450 list;
#X obj 436 386 t b a a;
#X obj 436 408 del 100;
#X obj 436 430 list;
#X obj 436 452 t b a a b b;
#X obj 106 472 t b a a b b;
#X msg 430 202 symbol harry;
#X obj 236 369 t f f;
#X obj 568 364 f;
#X obj 595 408 sel 1 2;
#X msg 595 430 :io i;
#X msg 614 453 :io o;
#X obj 568 386 t b f;
#X msg 547 453 :ol -save;
#X obj 206 212 ctxfiles/dvs \$0 i/onor;
#X obj 17 155 ctxfiles/dvs \$0 cbeep;
#X obj 547 483 ctxfiles/dvs \$0 undone2;
#X obj 457 18 ctxfiles/license;
#X obj 457 81 declare -lib zexy -path zexy -path ./;
#X obj 221 127 ctxfiles/dvi \$0 4 inlet;
#X connect 0 0 22 0;
#X connect 0 1 23 0;
#X connect 0 2 4 0;
#X connect 2 0 24 0;
#X connect 3 1 40 0;
#X connect 3 2 41 0;
#X connect 5 0 58 0;
#X connect 6 0 13 2;
#X connect 7 0 33 0;
#X connect 8 0 33 0;
#X connect 9 0 31 0;
#X connect 9 1 34 0;
#X connect 9 2 16 0;
#X connect 9 3 17 0;
#X connect 9 4 7 0;
#X connect 10 0 30 0;
#X connect 10 1 34 0;
#X connect 10 2 15 0;
#X connect 10 3 8 0;
#X connect 10 4 7 0;
#X connect 11 0 31 0;
#X connect 11 1 35 0;
#X connect 11 2 16 0;
#X connect 11 3 7 0;
#X connect 12 0 30 0;
#X connect 12 1 35 0;
#X connect 12 2 15 0;
#X connect 12 3 7 0;
#X connect 13 0 3 0;
#X connect 14 0 13 3;
#X connect 15 0 33 0;
#X connect 16 0 33 0;
#X connect 17 0 33 0;
#X connect 18 0 2 0;
#X connect 19 0 59 0;
#X connect 20 0 21 0;
#X connect 21 0 40 1;
#X connect 21 0 41 1;
#X connect 22 0 51 0;
#X connect 23 0 51 0;
#X connect 24 0 25 0;
#X connect 25 0 29 0;
#X connect 25 1 26 0;
#X connect 26 0 27 0;
#X connect 27 0 38 0;
#X connect 29 0 13 0;
#X connect 29 1 0 0;
#X connect 29 2 5 0;
#X connect 29 3 19 0;
#X connect 29 4 63 0;
#X connect 30 0 1 0;
#X connect 31 0 1 0;
#X connect 32 0 28 0;
#X connect 34 0 36 0;
#X connect 34 1 37 0;
#X connect 38 0 39 0;
#X connect 38 1 50 0;
#X connect 39 0 21 0;
#X connect 40 0 12 0;
#X connect 40 1 10 0;
#X connect 40 2 42 0;
#X connect 41 0 11 0;
#X connect 41 1 9 0;
#X connect 41 2 45 0;
#X connect 42 0 43 0;
#X connect 42 1 44 1;
#X connect 42 2 30 0;
#X connect 43 0 44 0;
#X connect 44 0 49 0;
#X connect 45 0 46 0;
#X connect 45 1 47 1;
#X connect 45 2 31 0;
#X connect 46 0 47 0;
#X connect 47 0 48 0;
#X connect 48 0 34 0;
#X connect 48 1 16 0;
#X connect 48 3 7 0;
#X connect 48 4 52 0;
#X connect 49 0 34 0;
#X connect 49 1 15 0;
#X connect 49 3 7 0;
#X connect 49 4 52 0;
#X connect 50 0 28 0;
#X connect 51 0 3 1;
#X connect 51 1 52 1;
#X connect 52 0 56 0;
#X connect 53 0 54 0;
#X connect 53 1 55 0;
#X connect 54 0 60 0;
#X connect 55 0 60 0;
#X connect 56 0 57 0;
#X connect 56 1 53 0;
#X connect 57 0 60 0;
#X restore 277 46 pd guts;
#X obj 277 92 iemguts/closebang;
#X obj 277 139 receive \$0-ricashay;
#X obj 277 115 s \$0-delmed;
#X obj 277 22 iemguts/initbang;
#X text 274 216 A part of the Context library \, licensed under the
GPL. See license.txt. Copyright Liam Goodacre 2017;
#X obj 277 68 iemguts/canvasargs;
#X obj 277 161 ctxfiles/dvs \$0 poww;
#X connect 0 0 6 0;
#X connect 1 0 3 0;
#X connect 2 0 7 0;
#X connect 4 0 0 0;
