#N canvas 577 127 592 533 10;
#X obj 38 30 cnv 15 152 52 empty empty empty 20 12 0 14 -99865 -66577
0;
#X obj 33 25 cnv 15 152 52 empty empty empty 20 12 0 14 -1 -66577 0
;
#X obj 34 26 cnv 15 150 50 empty empty finder 21 23 1 40 -6517 -262144
0;
#X obj 207 26 ctxfiles/license;
#X text 22 91 [finder] translates Context events into a linear timeline.
It is there to help locate notes in larger networks \, where the size
and complexity makes tracking them down tricky. [finder] allows for
editing Context notes \, either in the message database or toggle float
array., f 72;
#X obj 40 211 context :a ' a - = ' :d 3 :i 1 1 2 4 2.5 :n ' me ' :x
= 5 3 2 :ID 1;
#X obj 115 211 context :a ' b - 1 | b - 2 | b - 3 | b - 4 ' :d 3 :e
5 :i 0 0 0 0 1.5 :n ' me ' :x = 5 3 2 :ID 2;
#X msg 29 155 start;
#X msg 52 178 stop context;
#X text 45 285 INSTRUCTIONS:;
#N canvas 67 257 535 300 (subpatch) 0;
#X text 110 18 FINDER COMMANDS;
#X text 17 52 [finder] commands are entered (and edited) through creation
arguments. Valid commands are:;
#X text 22 108 :n -- Maximum number of event buttons (default 10) \;
:l -- channel that [finder] will receive from (default 'context-')
\; :x -- x dimension (default 300) \; :y -- y dimension (default 200)
\; :s -- scroll speed (defualt 50) \; :m -- midpoint of canvas (default
33) \; :k --define scale of vertical distribution (default 5) \; :start
-- determine whether [finder] is on by default, f 70;
#X restore 384 276 commands;
#X text 45 312 1: start Context network \; 2: observe pattern in [finder]
timeline \; 3: click on one of the timeline events. Whichever toggle
this note originated from will be located (ie. will shake). \; 4: to
turn that toggle off \, press the space key. \; 5: To change the note
\, scroll the number box up or down. \; --If the original toggle had
a = character \, scrolling the number will change the toggle float.
\; --If the original toggle had no special character \, scrolling the
toggle will edit the first number in the appropriate term of the message
database. \; --If the original toggle has any other special character
\, a warning message will display. You can override the warning by
holding Shift and scrolling.;
#X obj 29 7 helpfiles/docfiles/help-display \$0;
#X obj 218 164 finder :l me- :k 15 :y 100 :start;
#X connect 7 0 5 1;
#X connect 8 0 5 1;
