#N canvas 655 212 450 300 10;
#N canvas 712 418 616 300 load 1;
#X obj 139 57 loadbang;
#X text 20 39 coords xfrom yfrom xto yto xsize ysize type xmargin ymargin
;
#X obj 139 254 iemguts/sendcanvas 1;
#X obj 357 94 receive \$0-num;
#X obj 389 138 until;
#X obj 389 160 f;
#X obj 419 160 + 1;
#X obj 500 153 - 15;
#X obj 500 132 receive \$0-x;
#X obj 389 182 pack f \$0 f;
#X obj 357 116 t b f;
#X obj 195 292 receive \$0-y;
#X msg 389 203 obj \$3 0 ctxfiles/gbang \$2 \$1;
#X obj 87 294 receive \$0-lab;
#X obj 139 99 list append \$1 \$2 \$3 \$4 \$5 \$0;
#X obj 139 79 ctxfiles/myinit 3;
#X obj 485 100 v \$0-x;
#X obj 357 246 pack;
#X obj 357 173 f \$0;
#X msg 357 269 obj \$2 0 tgl 15 0 \$1-onoff \$1-nop empty 17 7 0 10
-262144 -1 -1 0 1, f 68;
#X obj 33 138 f 1;
#X obj 33 160 v findon)()(;
#X obj 43 184 s findon)()(;
#X msg 139 122 coords 0 0 1 1 \$1 \$2 1 0 0 \; \$6-x \$1 \; \$6-num
\$3 \; \$6-y \$2 \; \$6-speed \$5 \; \$6-lab \$4 \; \$6-start bang
;
#X connect 0 0 15 0;
#X connect 0 0 20 0;
#X connect 3 0 10 0;
#X connect 4 0 5 0;
#X connect 5 0 6 0;
#X connect 5 0 9 0;
#X connect 6 0 5 1;
#X connect 7 0 9 2;
#X connect 7 0 17 1;
#X connect 8 0 7 0;
#X connect 9 0 12 0;
#X connect 10 0 18 0;
#X connect 10 1 4 0;
#X connect 12 0 2 0;
#X connect 14 0 23 0;
#X connect 15 0 14 0;
#X connect 17 0 19 0;
#X connect 18 0 17 0;
#X connect 19 0 2 0;
#X connect 20 0 21 0;
#X connect 20 0 22 0;
#X connect 23 0 2 0;
#X restore 106 -72 pd load;
#N canvas 458 130 731 475 move 1;
#X obj 179 15 receive \$0-lab;
#X obj 179 60 iemguts/oreceive \$0-noo;
#X obj 179 37 list;
#X obj 59 154 receive \$0-speed;
#X obj 199 138 f;
#X obj 199 160 + 1;
#X obj 199 182 mod;
#X obj 227 160 receive \$0-num;
#X obj 199 204 makefilename \$0-%i-go;
#X obj 179 232 send;
#X obj 52 198 metro 50;
#X obj 59 176 moses 1;
#X obj 52 220 s \$0-count-1;
#X obj 52 106 receive \$0-onoff;
#X obj 179 82 spigot;
#X obj 372 107 iemguts/oreceive \$0-noo;
#X obj 372 81 makefilename %sfind;
#X obj 397 136 makefilename \$0-%i-gon;
#X obj 372 158 send;
#X text 143 331 0: float and benign symbols \; 1: bang or problematic
symbols \; 2: = symbol;
#X obj 360 247 t f;
#X obj 389 225 cyclone/iter;
#X obj 389 247 route float;
#X obj 389 291 t f b;
#X obj 439 269 f 1;
#X obj 389 269 spigot;
#X obj 439 291 t f;
#X obj 389 339 send;
#X obj 414 317 makefilename \$0-%i-god;
#X obj 179 112 t a b a b b;
#X connect 0 0 2 0;
#X connect 1 0 14 0;
#X connect 2 0 1 0;
#X connect 2 0 16 0;
#X connect 3 0 11 0;
#X connect 4 0 5 0;
#X connect 5 0 4 1;
#X connect 5 0 6 0;
#X connect 6 0 8 0;
#X connect 6 0 17 0;
#X connect 6 0 28 0;
#X connect 7 0 6 1;
#X connect 8 0 9 1;
#X connect 10 0 12 0;
#X connect 11 1 10 1;
#X connect 13 0 10 0;
#X connect 13 0 14 1;
#X connect 14 0 29 0;
#X connect 15 0 18 0;
#X connect 16 0 15 0;
#X connect 17 0 18 1;
#X connect 20 0 25 0;
#X connect 21 0 22 0;
#X connect 22 0 25 0;
#X connect 23 0 27 0;
#X connect 23 1 26 0;
#X connect 24 0 25 1;
#X connect 25 0 23 0;
#X connect 26 0 25 1;
#X connect 28 0 27 1;
#X connect 29 0 9 0;
#X connect 29 1 20 0;
#X connect 29 2 21 0;
#X connect 29 3 24 0;
#X connect 29 4 4 0;
#X restore 164 -72 pd move;
#X obj -15 0 tgl 15 0 23763-onoff 23763-nop empty 17 7 0 10 -262144
-1 -1 0 1;
#X coords 0 300 1 299 200 140 0;
