#N canvas 228 286 450 482 10;
#N canvas 599 91 636 677 create 0;
#X obj 194 73 symbol \$1-getdim;
#X obj 174 123 send;
#X obj 174 147 receive \$0-gotdim;
#X obj 174 98 symbol \$0-gotdim;
#X obj 53 128 sel x y;
#X obj 53 104 symbol \$2;
#X obj 72 151 f 1;
#X obj 155 50 t b b b;
#X obj 53 232 + 1;
#X obj 174 262 makefilename %d-save;
#X obj 53 255 text get \$0n;
#X obj 53 278 list trim;
#X obj 53 301 route %^;
#X obj 53 324 unpack s f;
#X msg 201 216 symbol \$1-:\$2;
#X obj 201 239 iemguts/oreceive \$0n;
#X obj 150 528 demux;
#X obj 220 379 demux;
#X obj 155 6 loadbang;
#X obj 155 28 ctxfiles/myinit 3;
#X obj 150 623 iemguts/sendcanvas 1;
#X obj 201 193 list append \$2;
#X obj 150 457 t f f;
#X obj 150 480 - 5;
#X obj 201 285 t f f;
#X obj 201 308 - 5;
#X obj 201 332 pack f \$0 f;
#X msg 247 403 coords 0 -1 1 1 15 \$3 2 0 -2 \; \$2-receive size 15
\$1;
#X msg 220 440 coords 0 -1 1 1 \$3 15 2 -3 0 \; \$2-receive size \$1
15;
#X obj 201 355 t b l b;
#X msg 277 380 menu-open;
#X msg 201 403 vis 0;
#X obj 357 206 s \$0-dollarzero;
#X obj 98 226 s \$0-xy;
#X obj 110 347 demux;
#X obj 137 324 f 1;
#X obj 128 197 f 9;
#X obj 53 173 t f f f f b b;
#X obj 150 503 pack f \$0 f f;
#X msg 177 551 obj 0 0 vsl 15 \$1 0 1 0 0 \$2-send \$2-receive empty
0 -9 0 10 \$4 -1 -1 0 1 \, coords 0 -1 1 1 15 \$3 2 0 -2;
#X msg 150 587 obj 0 0 hsl \$1 15 0 1 0 0 \$2-send \$2-receive empty
0 -9 0 10 \$4 -1 -1 0 1 \, coords 0 -1 1 1 \$3 15 2 -3 0;
#X obj 174 170 t f f f f;
#X obj 443 271 makefilename %d-:color;
#X obj 443 294 iemguts/oreceive \$0n;
#X obj 443 317 pack f \$0;
#X msg 443 340 \; \$2-receive color \$1;
#X connect 0 0 1 1;
#X connect 2 0 41 0;
#X connect 3 0 1 0;
#X connect 4 0 37 0;
#X connect 4 1 6 0;
#X connect 5 0 4 0;
#X connect 6 0 37 0;
#X connect 7 0 5 0;
#X connect 7 1 3 0;
#X connect 7 2 0 0;
#X connect 8 0 10 0;
#X connect 9 0 10 3;
#X connect 10 0 11 0;
#X connect 11 0 12 0;
#X connect 12 0 13 0;
#X connect 12 1 13 0;
#X connect 13 1 34 0;
#X connect 14 0 15 0;
#X connect 15 0 24 0;
#X connect 16 0 40 0;
#X connect 16 1 39 0;
#X connect 17 0 28 0;
#X connect 17 1 27 0;
#X connect 18 0 19 0;
#X connect 19 0 7 0;
#X connect 21 0 14 0;
#X connect 22 0 23 0;
#X connect 22 1 38 2;
#X connect 23 0 38 0;
#X connect 24 0 25 0;
#X connect 24 1 26 2;
#X connect 25 0 26 0;
#X connect 26 0 29 0;
#X connect 27 0 20 0;
#X connect 28 0 20 0;
#X connect 29 0 31 0;
#X connect 29 1 17 0;
#X connect 29 2 30 0;
#X connect 30 0 20 0;
#X connect 31 0 20 0;
#X connect 34 0 38 3;
#X connect 34 1 22 0;
#X connect 35 0 34 1;
#X connect 36 0 10 0;
#X connect 37 0 8 0;
#X connect 37 1 16 1;
#X connect 37 2 17 1;
#X connect 37 3 33 0;
#X connect 37 4 35 0;
#X connect 37 5 36 0;
#X connect 38 0 16 0;
#X connect 39 0 20 0;
#X connect 40 0 20 0;
#X connect 41 0 9 0;
#X connect 41 1 21 0;
#X connect 41 2 42 0;
#X connect 41 3 32 0;
#X connect 42 0 43 0;
#X connect 43 0 44 0;
#X connect 44 0 45 0;
#X restore 267 -42 pd create;
#N canvas 401 198 450 487 move 1;
#X obj 225 178 receive \$0-send;
#X obj 225 201 print go;
#X obj 53 32 keyname;
#X obj 53 54 pack f s;
#X obj 53 77 cyclone/zl rev;
#X obj 53 100 route Control_L Control_R Meta_L Meta_R;
#X obj 53 136 t f f;
#X obj 119 208 v \$0-dollarzero;
#X obj 92 231 pack f f \$0;
#X msg 92 254 \; \$2-stealarray \$1 \$3-stolearray;
#X obj 79 354 receive \$0-stolearray-1;
#X obj 79 377 print 11;
#X obj 229 354 receive \$0-stolearray-2;
#X obj 229 377 print 22;
#X obj 53 161 moses 1;
#X obj 92 184 t f b;
#X obj 131 184 receive \$0-xy;
#X obj 92 208 +;
#X connect 0 0 1 0;
#X connect 2 0 3 0;
#X connect 2 1 3 1;
#X connect 3 0 4 0;
#X connect 4 0 5 0;
#X connect 5 0 6 0;
#X connect 5 1 6 0;
#X connect 5 2 6 0;
#X connect 5 3 6 0;
#X connect 6 0 14 0;
#X connect 7 0 8 1;
#X connect 8 0 9 0;
#X connect 10 0 11 0;
#X connect 12 0 13 0;
#X connect 14 1 15 0;
#X connect 15 0 17 0;
#X connect 15 1 7 0;
#X connect 16 0 17 1;
#X connect 17 0 8 0;
#X restore 283 5 pd move;
#X coords 0 482 1 481 85 60 0;
