#N canvas 67 327 450 300 10;
#X floatatom 100 100 2 0 0 0 - #0-r #0-s, f 2;
#X text 21 24 CREATION ARGS: array name \, label \, \$1 (psave) \,
init;
#X obj 268 136 t b b;
#X obj 268 236 list append;
#X obj 268 190 iemguts/canvasargs;
#X obj 268 213 list split 3;
#X obj 372 133 f \$4;
#X obj 157 105 iemguts/savebangs 1;
#X obj 295 161 v \$0-s;
#X obj 372 156 s \$0-r;
#X obj 150 201 receive \$0-s;
#X obj 150 224 s \$1-\$2-grabn;
#X obj 372 109 loadbang;
#X obj 291 45 receive \$1-\$2-toindex;
#X obj 291 68 t f f;
#X msg 318 92 set \$1;
#X connect 2 0 4 0;
#X connect 2 1 8 0;
#X connect 3 0 4 0;
#X connect 4 0 5 0;
#X connect 5 0 3 0;
#X connect 6 0 9 0;
#X connect 7 1 2 0;
#X connect 8 0 3 1;
#X connect 10 0 11 0;
#X connect 12 0 6 0;
#X connect 13 0 14 0;
#X connect 14 0 8 0;
#X connect 14 1 15 0;
#X connect 15 0 9 0;
#X coords 0 -1 1 1 14 17 2 100 100;
