#N canvas 67 242 450 482 10;
#N canvas 67 91 636 677 create 0;
#X obj 194 73 symbol \$1-getdim;
#X obj 174 123 send;
#X obj 174 147 receive \$0-gotdim;
#X obj 174 98 symbol \$0-gotdim;
#X obj 53 128 sel x y;
#X obj 53 104 symbol \$2;
#X obj 72 151 f 1;
#X obj 53 232 + 1;
#X obj 174 262 makefilename %d-save;
#X obj 53 255 text get \$0n;
#X obj 53 278 list trim;
#X obj 53 301 route %^;
#X obj 53 324 unpack s f;
#X msg 201 216 symbol \$1-:\$2;
#X obj 201 239 iemguts/oreceive \$0n;
#X obj 150 528 demux;
#X obj 220 379 demux;
#X obj 155 28 ctxfiles/myinit 3;
#X obj 150 663 iemguts/sendcanvas 1;
#X obj 201 193 list append \$2;
#X obj 150 480 - 5;
#X obj 201 308 - 5;
#X obj 201 332 pack f \$0 f;
#X msg 247 403 coords 0 -1 1 1 15 \$3 2 0 -2 \; \$2-receive size 15
\$1;
#X msg 220 440 coords 0 -1 1 1 \$3 15 2 -3 0 \; \$2-receive size \$1
15;
#X obj 201 355 t b l b;
#X msg 277 380 menu-open;
#X msg 201 403 vis 0;
#X obj 357 206 s \$0-dollarzero;
#X obj 98 226 s \$0-xy;
#X obj 110 347 demux;
#X obj 137 324 f 1;
#X obj 128 197 f 9;
#X obj 53 173 t f f f f b b;
#X obj 174 170 t f f f f;
#X obj 443 271 makefilename %d-:color;
#X obj 443 294 iemguts/oreceive \$0n;
#X obj 443 362 pack f \$0;
#X msg 443 385 \; \$2-receive color \$1;
#X obj 443 339 -;
#X obj 383 233 receive \$0-ctrl;
#X obj 383 256 t b f;
#X obj 410 281 * 64;
#X obj 443 317 f;
#X obj 150 457 t f f f;
#X obj 350 513 s \$0-sizee;
#X obj 201 285 t f f f;
#X text 272 37 CREATION ARGS: array name \, x/y \, label \, \$1 (psave)
\, init;
#X obj 150 503 zexy/pack 0 \$0 0 0 \$3;
#X obj 155 6 loadbang;
#X msg 177 551 obj 0 0 vsl 15 \$1 0 1 0 0 \$2-send \$2-receive empty
0 -9 0 10 -1 -1 -1 0 1 \, text 3 4 \$5-y \, f 1 \, coords 0 -1 1 1
15 \$3 2 0 -2 \; \$2-receive color \$4;
#X msg 150 606 obj 0 0 hsl \$1 15 0 1 0 0 \$2-send \$2-receive empty
0 -9 0 10 -1 -1 -1 0 1 \, text 4 -1 \$5-x \, coords 0 -1 1 1 \$3 15
2 -3 0 \; \$2-receive color \$4;
#X obj 155 50 t b b b b;
#X obj 77 53 s \$0-lb;
#X connect 0 0 1 1;
#X connect 2 0 34 0;
#X connect 3 0 1 0;
#X connect 4 0 33 0;
#X connect 4 1 6 0;
#X connect 5 0 4 0;
#X connect 6 0 33 0;
#X connect 7 0 9 0;
#X connect 8 0 9 3;
#X connect 9 0 10 0;
#X connect 10 0 11 0;
#X connect 11 0 12 0;
#X connect 11 1 12 0;
#X connect 12 1 30 0;
#X connect 13 0 14 0;
#X connect 14 0 46 0;
#X connect 15 0 51 0;
#X connect 15 1 50 0;
#X connect 16 0 24 0;
#X connect 16 1 23 0;
#X connect 17 0 52 0;
#X connect 19 0 13 0;
#X connect 20 0 48 0;
#X connect 21 0 22 0;
#X connect 22 0 25 0;
#X connect 23 0 18 0;
#X connect 24 0 18 0;
#X connect 25 0 27 0;
#X connect 25 1 16 0;
#X connect 25 2 26 0;
#X connect 26 0 18 0;
#X connect 27 0 18 0;
#X connect 30 0 43 1;
#X connect 30 0 48 3;
#X connect 30 1 44 0;
#X connect 31 0 30 1;
#X connect 32 0 9 0;
#X connect 33 0 7 0;
#X connect 33 1 15 1;
#X connect 33 2 16 1;
#X connect 33 3 29 0;
#X connect 33 4 31 0;
#X connect 33 5 32 0;
#X connect 34 0 8 0;
#X connect 34 1 19 0;
#X connect 34 2 35 0;
#X connect 34 3 28 0;
#X connect 35 0 36 0;
#X connect 36 0 43 0;
#X connect 37 0 38 0;
#X connect 39 0 37 0;
#X connect 40 0 41 0;
#X connect 41 0 43 0;
#X connect 41 1 42 0;
#X connect 42 0 39 1;
#X connect 43 0 39 0;
#X connect 44 0 20 0;
#X connect 44 1 48 2;
#X connect 44 2 45 0;
#X connect 46 0 21 0;
#X connect 46 1 22 2;
#X connect 46 2 45 0;
#X connect 48 0 15 0;
#X connect 49 0 17 0;
#X connect 50 0 18 0;
#X connect 51 0 18 0;
#X connect 52 0 53 0;
#X connect 52 1 5 0;
#X connect 52 2 3 0;
#X connect 52 3 0 0;
#X restore 283 13 pd create;
#N canvas 67 87 873 680 move 1;
#X obj 53 32 keyname;
#X obj 53 54 pack f s;
#X obj 53 77 cyclone/zl rev;
#X obj 53 100 route Control_L Control_R Meta_L Meta_R;
#X obj 123 278 v \$0-dollarzero;
#X obj 92 301 pack f f \$0;
#X msg 92 324 \; \$2-stealarray \$1 \$3-stolearray;
#X obj 178 359 receive \$0-stolearray-1;
#X obj 279 381 receive \$0-stolearray-2;
#X obj 53 161 moses 1;
#X obj 107 255 receive \$0-xy;
#X obj 92 278 +;
#X obj 92 184 t f b b;
#X obj 131 230 text define \$0-points;
#X msg 131 207 clear;
#X obj 279 405 t l l;
#X obj 306 427 list length;
#X obj 178 450 cyclone/iter;
#X obj 178 473 text set \$0-points 1e+10;
#X obj 31 449 receive \$0-send;
#X obj 31 472 spigot;
#X obj 31 495 text search \$0-points near 0;
#X obj 31 518 moses;
#X obj 58 542 -;
#X text 219 208 on control \, steal array list from [gget];
#X text 278 455 set to text object;
#X text 113 537 find closest match between slider and point;
#X obj 53 136 t f f f;
#X obj 102 161 s \$0-ctrl;
#X obj 31 590 t f b;
#X obj 92 590 t f b;
#X msg 58 613 set -1;
#X msg 119 613 set -1;
#X obj 31 567 change -1;
#X obj 92 567 change -1;
#X obj 31 688 s \$0-which;
#X msg 604 236 \; \$3-symon-\$2 list + \$1;
#X msg 549 287 \; \$3-symon-\$2 list   \$1;
#X obj 549 240 list;
#X obj 549 263 spigot;
#X obj 580 241 f 1;
#X obj 541 189 receive \$0-which;
#X obj 541 355 list prepend \$2;
#X obj 541 448 route \$2;
#X text 129 664 2 = point 2 (beginning of list);
#X obj 647 553 +;
#X obj 647 576 text get \$0-points;
#X msg 647 599 set \$1;
#X obj 647 622 s \$0-receive;
#X obj 541 425 list trim;
#X obj 538 627 s \$0-setme;
#X obj 586 473 list split 1;
#X obj 647 524 unpack f f f f;
#X obj 620 498 t l l;
#X text 688 287 when selection changes \, label new selection and unlabel
old;
#X text 610 450 set other [grab] to the same point;
#X obj 91 637 pack f 1 f 1;
#X obj 31 662 pack f 2 f 0;
#X obj 541 379 send \$1-\$3-sett;
#X obj 541 402 receive \$1-\$3-sett;
#X obj 8 358 receive \$1-\$3-grabn;
#X obj 661 332 receive \$0-lb;
#X obj 661 355 f 1;
#X obj 8 402 t f b;
#X obj 184 162 f 1;
#X obj 184 139 receive \$1-\$3-allload;
#X obj 178 382 t l l;
#X obj 205 404 list length;
#X obj 205 427 +;
#X obj 8 381 mod 9999;
#X obj 35 425 s \$1-\$3-allload;
#X obj 541 213 t l b l b l f;
#X obj 736 162 print vv;
#X connect 0 0 1 0;
#X connect 0 1 1 1;
#X connect 1 0 2 0;
#X connect 2 0 3 0;
#X connect 3 0 27 0;
#X connect 3 1 27 0;
#X connect 3 2 27 0;
#X connect 3 3 27 0;
#X connect 4 0 5 1;
#X connect 4 0 56 2;
#X connect 4 0 57 2;
#X connect 5 0 6 0;
#X connect 7 0 66 0;
#X connect 8 0 15 0;
#X connect 9 1 12 0;
#X connect 10 0 11 1;
#X connect 11 0 5 0;
#X connect 12 0 11 0;
#X connect 12 1 4 0;
#X connect 12 2 14 0;
#X connect 14 0 13 0;
#X connect 15 0 17 0;
#X connect 15 1 16 0;
#X connect 16 0 22 1;
#X connect 16 0 23 1;
#X connect 16 0 56 3;
#X connect 16 0 68 1;
#X connect 17 0 18 0;
#X connect 19 0 20 0;
#X connect 20 0 21 0;
#X connect 21 0 22 0;
#X connect 22 0 33 0;
#X connect 22 1 23 0;
#X connect 23 0 34 0;
#X connect 27 0 9 0;
#X connect 27 1 20 1;
#X connect 27 2 28 0;
#X connect 29 0 57 0;
#X connect 29 1 31 0;
#X connect 30 0 56 0;
#X connect 30 1 32 0;
#X connect 31 0 34 0;
#X connect 32 0 33 0;
#X connect 33 0 29 0;
#X connect 34 0 30 0;
#X connect 38 0 39 0;
#X connect 39 0 37 0;
#X connect 40 0 39 1;
#X connect 41 0 71 0;
#X connect 42 0 58 0;
#X connect 43 1 51 0;
#X connect 45 0 46 0;
#X connect 46 0 47 0;
#X connect 47 0 48 0;
#X connect 49 0 43 0;
#X connect 51 1 53 0;
#X connect 52 0 45 0;
#X connect 52 3 45 1;
#X connect 53 0 50 0;
#X connect 53 1 52 0;
#X connect 56 0 35 0;
#X connect 57 0 35 0;
#X connect 59 0 49 0;
#X connect 60 0 69 0;
#X connect 61 0 62 0;
#X connect 63 0 22 0;
#X connect 63 1 70 0;
#X connect 64 0 12 0;
#X connect 65 0 64 0;
#X connect 66 0 17 0;
#X connect 66 1 67 0;
#X connect 67 0 68 0;
#X connect 68 0 69 1;
#X connect 69 0 63 0;
#X connect 71 0 42 0;
#X connect 71 1 40 0;
#X connect 71 2 38 1;
#X connect 71 3 38 0;
#X connect 71 4 36 0;
#X connect 71 5 72 0;
#X restore 283 35 pd move;
#N canvas 67 198 450 475 set 0;
#X obj 146 36 receive \$0-which;
#X obj 107 13 receive \$0-setme;
#X obj 38 84 receive \$0-send;
#X obj 65 128 receive \$0-ctrl;
#X obj 38 151 demux;
#X obj 107 36 t l b;
#X obj 38 107 spigot;
#X obj 134 59 f 1;
#X obj 38 345 list prepend;
#X obj 170 128 receive \$0-xy;
#X obj 107 151 list append;
#X text 275 80 1: point # \; 2: point 1/2 \; 3: \$0 \; 4: offset \;
5: x/y (appended) \; 6: value (appended);
#X obj 53 274 receive \$0-sizee;
#X obj 38 298 *;
#X obj 38 321 + 5;
#X obj 182 153 sel 1;
#X obj 182 176 f -5;
#X msg 38 369 \; \$3-setme-\$2 \$6 \$1 \$5 \; \$3-lbb\$2 bang;
#X obj 65 178 receive \$0-xy;
#X obj 38 202 demux;
#X obj 65 226 swap 1;
#X obj 65 249 -;
#X connect 0 0 5 0;
#X connect 1 0 5 0;
#X connect 2 0 6 0;
#X connect 3 0 4 1;
#X connect 4 0 19 0;
#X connect 5 0 10 0;
#X connect 5 1 7 0;
#X connect 6 0 4 0;
#X connect 7 0 6 1;
#X connect 8 0 17 0;
#X connect 9 0 10 1;
#X connect 9 0 15 0;
#X connect 10 0 8 1;
#X connect 12 0 13 1;
#X connect 13 0 14 0;
#X connect 14 0 8 0;
#X connect 15 0 16 0;
#X connect 16 0 14 1;
#X connect 18 0 19 1;
#X connect 19 0 13 0;
#X connect 19 1 20 0;
#X connect 20 0 21 0;
#X connect 20 1 21 1;
#X connect 21 0 13 0;
#X restore 283 58 pd set;
#X obj 24 -101 inlet;
#X obj 24 -78 s \$0-receive;
#X connect 3 0 4 0;
#X coords 0 482 1 481 85 60 0;
