#N canvas 205 145 737 392 10;
#X declare -stdlib iemmatrix -lib iemmatrix;
#X declare -stdlib zexy -lib zexy;
#N canvas 65 93 1301 687 move 0;
#X obj 115 100 bng 15 250 50 0 \$0v empty v 5 7 0 10 -262144 -1 -1
;
#X obj 100 100 bng 15 250 50 0 \$0^ empty ^ 5 10 0 10 -262144 -1 -1
;
#X obj 145 100 bng 15 250 50 0 \$0> empty > 5 7 0 10 -262144 -1 -1
;
#X obj 130 100 bng 15 250 50 0 \$0< empty < 5 7 0 10 -262144 -1 -1
;
#X obj 59 135 t b b;
#X obj 100 135 t b b;
#X obj 59 159 f;
#X obj 91 183 f 1;
#X obj 132 183 f -1;
#X obj 59 207 +;
#X obj 279 125 t b b;
#X obj 318 125 t b b;
#X obj 279 149 f;
#X obj 311 173 f 1;
#X obj 350 173 f -1;
#X obj 279 201 +;
#X obj 59 461 cyclone/uzi 8;
#X text 155 466 14: call 8 rows of the matrix;
#X obj 147 509 +;
#X obj 59 409 t b f;
#X obj 228 152 t f f;
#X text 177 506 14.1: offset for up-down control;
#X text 199 725 15: split 8 rows of the matrix and offset for right-left
control, f 34;
#X obj 622 471 unpack;
#X obj 279 223 clip 0 0;
#X obj 622 516 - 8;
#X obj 661 516 - 8;
#X obj 59 229 clip 0 0;
#X obj 59 251 change;
#X obj 279 246 change;
#X msg 343 895;
#X obj 343 790 route 0;
#X obj 160 100 hradio 15 1 0 4 \$0-mode \$0-moder empty 0 -8 0 10 -262144
-1 -1 0;
#X msg 152 787 \; \$4-\$3-\$2-s color \$1;
#X obj 238 599 + 0.5;
#X obj 170 623 pack f \$0 0.5 1;
#X obj 193 652 pack f \$0 0 0;
#X obj 656 391 receive \$0-mmax-b;
#X obj 622 369 receive \$0-mmax-a;
#X obj 622 391 pack;
#X obj 656 413 pack;
#X obj 88 382 s \$0-ushift-1;
#X obj 661 494 max 8;
#X obj 622 494 max 8;
#X msg 213 187 set 0;
#X msg 389 814 \; \$4-\$3-\$2-on bang;
#X msg 343 851 \; \$3-\$2-\$1-off bang;
#X obj 308 382 s \$0-lshift-1;
#X obj 279 268 t f f f;
#X obj 105 297 s \$0-ushift;
#X obj 325 294 s \$0-lshift;
#X obj 751 299 receive \$0-mmax-c;
#X obj 751 321 t b f;
#X obj 751 343 pack 100 f;
#X obj 352 431 f -100;
#X obj 636 79 == 1;
#X obj 636 101 s \$0-midon;
#X obj 117 360 s \$0-ushift-2;
#X obj 337 361 s \$0-lshift-2;
#X obj 43 -7 f;
#X obj 43 -32 sel 127;
#X obj 43 -77 ctlin;
#N canvas 647 157 450 451 double 0;
#X obj 96 35 inlet;
#X obj 117 188 s \$0-calc;
#X obj 146 251 s \$0-1xy;
#X obj 117 138 sel;
#X obj 136 88 del 400;
#X obj 136 110 f -1;
#X obj 96 60 t f f b f;
#X text 163 137 process double clicks on mode switch;
#X obj 146 229 t b b;
#X obj 178 272 f;
#X obj 178 294 ==;
#X obj 178 362 s \$0-1xym;
#X obj 117 165 demux 0 1 2 3;
#X obj 178 316 t f f b f;
#X obj 218 76 array define \$0-mode 4;
#X obj 218 339 f 1;
#X obj 236 229 t b b;
#X obj 268 272 f;
#X obj 268 294 ==;
#X obj 268 316 t f f b f;
#X obj 326 229 t b b;
#X obj 358 272 f;
#X obj 358 294 ==;
#X obj 358 316 t f f b f;
#X obj 236 251 s \$0-2xy;
#X obj 268 362 s \$0-2xym;
#X obj 308 339 f 2;
#X obj 398 339 f 3;
#X obj 358 362 s \$0-3xym;
#X obj 326 251 s \$0-3xy;
#X obj 198 400 tabwrite \$0-mode;
#X connect 0 0 6 0;
#X connect 3 0 12 0;
#X connect 4 0 5 0;
#X connect 5 0 3 1;
#X connect 6 0 3 1;
#X connect 6 1 3 0;
#X connect 6 2 4 0;
#X connect 6 3 12 1;
#X connect 8 0 2 0;
#X connect 8 1 9 0;
#X connect 9 0 10 0;
#X connect 10 0 13 0;
#X connect 12 0 1 0;
#X connect 12 1 8 0;
#X connect 12 2 16 0;
#X connect 12 3 20 0;
#X connect 13 0 11 0;
#X connect 13 1 30 0;
#X connect 13 2 15 0;
#X connect 13 3 9 1;
#X connect 15 0 30 1;
#X connect 16 0 24 0;
#X connect 16 1 17 0;
#X connect 17 0 18 0;
#X connect 18 0 19 0;
#X connect 19 0 25 0;
#X connect 19 1 30 0;
#X connect 19 2 26 0;
#X connect 19 3 17 1;
#X connect 20 0 29 0;
#X connect 20 1 21 0;
#X connect 21 0 22 0;
#X connect 22 0 23 0;
#X connect 23 0 28 0;
#X connect 23 1 30 0;
#X connect 23 2 27 0;
#X connect 23 3 21 1;
#X connect 26 0 30 1;
#X connect 27 0 30 1;
#X restore 665 35 pd double clicks;
#X text 431 473 reset y limit on mode 2;
#X obj 812 602 + 108;
#X obj 828 817 ctlout;
#X obj 858 701 f;
#X obj 812 625 t f f b;
#X obj 858 723 swap 0;
#X text 829 542 colour mode toggles;
#X obj 59 275 t f f f;
#X obj 529 570 receive \$0-ushift;
#X obj 529 592 t f f;
#X obj 529 642 t f b;
#X obj 573 642 t f b;
#X obj 561 664 f 104;
#X obj 605 664 f 105;
#X obj 529 685 * 87;
#X obj 610 766 ctlout;
#X obj 573 620 <;
#X obj 385 473 t f f;
#X obj 529 620 >;
#X obj 658 592 t f f;
#X obj 658 642 t f b;
#X obj 702 642 t f b;
#X obj 658 685 * 87;
#X obj 702 620 <;
#X obj 658 620 >;
#X obj 658 570 receive \$0-lshift;
#X obj 690 664 f 106;
#X obj 734 664 f 107;
#X text 580 785 color arrow keys;
#X obj 228 90 receive \$0-calcend;
#X msg 193 688 \; \$2-tomatrix-\$3 \$2-rset-\$4 row \$1;
#X obj 454 47 t f f f;
#X obj 812 575 receive \$0-lb;
#X obj 152 763 ctxfiles/gmp \$0 rset-1;
#X obj 343 765 ctxfiles/gmp \$0 rset-0;
#X obj 181 418 t b f f f;
#X obj 147 536 t f f f;
#X obj 215 549 + 0.6;
#X obj 147 573 pack f \$0 0.6 2;
#X obj 56 833 ctxfiles/gmp \$0 rset-2;
#X obj 147 487 t f f f f;
#X msg 56 857 \; \$4-\$3-\$2-dollarz \$1;
#X obj 682 59 ==;
#X obj 682 81 s \$0-gridon;
#X obj 622 304 s \$0-mode0;
#X obj 640 283 s \$0-mode1;
#X obj 659 262 s \$0-mode2;
#X obj 400 452 receive \$0-mode0;
#X obj 400 431 receive \$0-mode1;
#X obj 352 410 receive \$0-mode2;
#X obj 661 538 t f b f;
#X obj 594 538 t f b f;
#X obj 782 118 == 2;
#X obj 782 140 s \$0-righton;
#X obj 43 20 sel 104 105 106 107;
#X obj 233 67 - 108;
#X obj 279 319 demux 0 1 2 3;
#X obj 147 339 s \$0-ushift-3;
#X obj 367 340 s \$0-lshift-3;
#X obj 916 575 tabread \$0-mode;
#X obj 916 597 sel 0 1;
#X obj 916 619 f 87;
#X obj 952 619 f 81;
#X obj 828 747 swap 87;
#X obj 892 162 s \$0-mixon;
#X obj 892 118 == 3;
#X obj 454 -13 receive \$0-mode;
#X obj 974 140 s \$0-firstmode;
#X obj 43 -55 spigot;
#X obj 82 -77 receive \$0-turnmeons;
#X obj 828 792 spigot;
#X obj 867 770 receive \$0-turnmeons;
#X obj 610 743 spigot;
#X obj 649 721 receive \$0-turnmeons;
#X obj 892 140 change;
#X obj 622 220 sel 0 1 2 3;
#X obj 677 241 s \$0-mode3;
#X obj 173 43 moses 108;
#X obj 454 9 t b b f f f f b b b f f f f f f f f f f;
#X obj 622 443 mux 0 1 2 3;
#X obj 59 318 demux 0 1 2 3;
#X text 824 433 <these were banged \, but I think it was because of
incorrect trigger order in the big trigger above. If theres a problem
with the movement thresholds \, return the bang.;
#X obj 796 416 pack;
#X obj 796 371 receive \$0-mmax-d;
#X obj 796 393 t b f;
#X connect 0 0 4 0;
#X connect 1 0 5 0;
#X connect 2 0 10 0;
#X connect 3 0 11 0;
#X connect 4 0 6 0;
#X connect 4 1 7 0;
#X connect 5 0 6 0;
#X connect 5 1 8 0;
#X connect 6 0 9 0;
#X connect 7 0 9 1;
#X connect 8 0 9 1;
#X connect 9 0 27 0;
#X connect 10 0 12 0;
#X connect 10 1 13 0;
#X connect 11 0 12 0;
#X connect 11 1 14 0;
#X connect 12 0 15 0;
#X connect 13 0 15 1;
#X connect 14 0 15 1;
#X connect 15 0 24 0;
#X connect 16 2 103 0;
#X connect 18 0 99 0;
#X connect 19 0 16 0;
#X connect 19 1 18 1;
#X connect 20 0 48 0;
#X connect 20 1 18 1;
#X connect 23 0 43 0;
#X connect 23 1 42 0;
#X connect 24 0 29 0;
#X connect 25 0 114 0;
#X connect 26 0 113 0;
#X connect 27 0 28 0;
#X connect 28 0 70 0;
#X connect 29 0 48 0;
#X connect 31 0 46 0;
#X connect 31 1 45 0;
#X connect 34 0 35 2;
#X connect 35 0 93 0;
#X connect 36 0 93 0;
#X connect 37 0 40 0;
#X connect 38 0 39 0;
#X connect 39 0 142 0;
#X connect 40 0 142 1;
#X connect 42 0 26 0;
#X connect 43 0 25 0;
#X connect 44 0 29 0;
#X connect 44 0 28 0;
#X connect 48 0 119 0;
#X connect 48 1 12 1;
#X connect 48 2 50 0;
#X connect 51 0 52 0;
#X connect 52 0 53 0;
#X connect 52 1 53 1;
#X connect 53 0 142 2;
#X connect 54 0 80 0;
#X connect 55 0 56 0;
#X connect 59 0 117 0;
#X connect 60 0 59 0;
#X connect 61 0 131 0;
#X connect 61 1 59 1;
#X connect 64 0 67 0;
#X connect 66 0 68 0;
#X connect 67 0 126 0;
#X connect 67 1 66 1;
#X connect 67 2 66 0;
#X connect 68 0 133 0;
#X connect 68 1 65 1;
#X connect 70 0 143 0;
#X connect 70 1 6 1;
#X connect 70 2 49 0;
#X connect 71 0 72 0;
#X connect 72 0 81 0;
#X connect 72 1 79 0;
#X connect 73 0 77 0;
#X connect 73 1 75 0;
#X connect 74 0 77 0;
#X connect 74 1 76 0;
#X connect 75 0 78 1;
#X connect 76 0 78 1;
#X connect 77 0 135 0;
#X connect 79 0 74 0;
#X connect 80 0 27 1;
#X connect 80 1 81 1;
#X connect 81 0 73 0;
#X connect 82 0 87 0;
#X connect 82 1 86 0;
#X connect 83 0 85 0;
#X connect 83 1 89 0;
#X connect 84 0 85 0;
#X connect 84 1 90 0;
#X connect 85 0 135 0;
#X connect 86 0 84 0;
#X connect 87 0 83 0;
#X connect 88 0 82 0;
#X connect 89 0 78 1;
#X connect 90 0 78 1;
#X connect 92 0 20 0;
#X connect 94 0 70 0;
#X connect 94 1 48 0;
#X connect 94 2 6 1;
#X connect 95 0 64 0;
#X connect 96 0 33 0;
#X connect 97 0 31 0;
#X connect 98 0 16 0;
#X connect 98 1 97 0;
#X connect 98 2 96 0;
#X connect 98 3 102 0;
#X connect 99 0 101 0;
#X connect 99 1 35 0;
#X connect 99 2 36 0;
#X connect 100 0 101 2;
#X connect 101 0 93 0;
#X connect 102 0 104 0;
#X connect 103 0 18 0;
#X connect 103 1 96 1;
#X connect 103 2 97 1;
#X connect 103 3 102 1;
#X connect 105 0 106 0;
#X connect 110 0 80 0;
#X connect 111 0 80 0;
#X connect 112 0 54 0;
#X connect 113 0 24 2;
#X connect 113 1 86 0;
#X connect 113 2 86 1;
#X connect 114 0 27 2;
#X connect 114 1 79 0;
#X connect 114 2 79 1;
#X connect 115 0 116 0;
#X connect 117 0 1 0;
#X connect 117 1 0 0;
#X connect 117 2 3 0;
#X connect 117 3 2 0;
#X connect 117 4 140 0;
#X connect 118 0 32 0;
#X connect 119 0 98 0;
#X connect 119 1 47 0;
#X connect 119 2 58 0;
#X connect 119 3 121 0;
#X connect 122 0 123 0;
#X connect 123 0 124 0;
#X connect 123 1 125 0;
#X connect 124 0 126 1;
#X connect 125 0 126 1;
#X connect 126 0 133 0;
#X connect 126 1 65 1;
#X connect 128 0 137 0;
#X connect 129 0 141 0;
#X connect 131 0 60 0;
#X connect 132 0 131 1;
#X connect 133 0 65 0;
#X connect 134 0 133 1;
#X connect 135 0 78 0;
#X connect 136 0 135 1;
#X connect 137 0 127 0;
#X connect 138 0 107 0;
#X connect 138 1 108 0;
#X connect 138 2 109 0;
#X connect 138 3 139 0;
#X connect 140 1 118 0;
#X connect 141 0 94 0;
#X connect 141 1 44 0;
#X connect 141 2 64 0;
#X connect 141 3 122 0;
#X connect 141 4 34 0;
#X connect 141 5 36 2;
#X connect 141 10 143 1;
#X connect 141 11 119 1;
#X connect 141 12 138 0;
#X connect 141 13 55 0;
#X connect 141 13 115 0;
#X connect 141 13 128 0;
#X connect 141 14 62 0;
#X connect 141 15 100 0;
#X connect 141 16 105 0;
#X connect 141 17 130 0;
#X connect 141 18 142 4;
#X connect 142 0 23 0;
#X connect 143 0 19 0;
#X connect 143 1 41 0;
#X connect 143 2 57 0;
#X connect 143 3 120 0;
#X connect 145 0 142 3;
#X connect 146 0 147 0;
#X connect 147 0 145 0;
#X connect 147 1 145 1;
#X coords 0 -1 1 1 120 15 2 100 100;
#X restore 100 100 pd move;
#X obj 572 224 bng 15 250 50 0 empty empty empty 17 7 0 10 -262144
-1 -1;
#X obj 572 244 s \$0-clear;
#N canvas 65 109 450 300 notein 0;
#X restore 430 79 pd notein;
#X obj 102 27 ctxfiles/license;
#N canvas 372 203 720 300 color 0;
#X obj 143 58 receive \$0-getcolor;
#X obj 143 80 unpack;
#X obj 143 124 send;
#X obj 182 102 makefilename %d-gotcolor;
#X msg 143 102 51;
#X connect 0 0 1 0;
#X connect 1 0 4 0;
#X connect 1 1 3 0;
#X connect 3 0 2 1;
#X connect 4 0 2 0;
#X restore 430 259 pd color;
#X obj 429 18 ctxfiles/share ctxfiles/launch-share;
#N canvas 473 289 450 300 loadbang 0;
#X obj 145 59 loadbang;
#X obj 145 81 ctxfiles/myinit 3;
#X obj 145 145 s \$0-lb;
#X obj 168 209 pack f f f f f f f f f f f f f f f f;
#X obj 168 233 send \$0-padd;
#X obj 145 103 t b b b;
#X obj 191 124 s \$0-alloff;
#X connect 0 0 1 0;
#X connect 1 0 5 0;
#X connect 3 0 4 0;
#X connect 5 0 2 0;
#X connect 5 1 3 0;
#X connect 5 2 6 0;
#X restore 429 38 pd loadbang;
#N canvas 65 89 835 300 print 0;
#X obj 479 252 midiout;
#X msg 479 226 240 \, 0 \, 32 \, 41 \, 2 \, 24 \, 14 \, 0 \, 247;
#X obj 479 203 iemguts/closebang;
#X text 533 252 turn off all lights on close;
#X obj 385 54 receive \$0-gprint;
#X obj 385 100 route bang;
#X obj 452 144 list append 247;
#X text 554 98 print right hand symbols;
#X obj 452 166 cyclone/iter;
#X msg 77 130 240 0 32 41 2 24 20 47 0 5 67 79 78 84 69 88 84 247;
#X obj 452 122 list prepend 240 0 32 41 2 24 20 1 0 6;
#X obj 385 76 spigot;
#X obj 511 76 del 1000;
#X obj 511 98 f 1;
#X obj 511 54 receive \$0-lb;
#X obj 564 144 receive \$0-tomidi;
#X connect 1 0 0 0;
#X connect 2 0 1 0;
#X connect 4 0 11 0;
#X connect 5 1 10 0;
#X connect 6 0 8 0;
#X connect 8 0 0 0;
#X connect 9 0 8 0;
#X connect 10 0 6 0;
#X connect 11 0 5 0;
#X connect 12 0 13 0;
#X connect 13 0 11 1;
#X connect 14 0 12 0;
#X connect 15 0 8 0;
#X restore 430 279 pd print;
#X floatatom 281 102 5 0 0 0 quantize - -, f 5;
#X obj 100 118 ctxfiles/p3 1 \$0 8;
#X obj 100 133 ctxfiles/p3 2 \$0 7;
#X obj 100 148 ctxfiles/p3 3 \$0 6;
#X obj 100 163 ctxfiles/p3 4 \$0 5;
#X obj 100 178 ctxfiles/p3 5 \$0 4;
#X obj 100 193 ctxfiles/p3 6 \$0 3;
#X obj 100 208 ctxfiles/p3 7 \$0 2;
#X obj 100 223 ctxfiles/p3 8 \$0 1;
#N canvas 396 201 776 567 right-column 0;
#X obj 187 9 receive \$0-8-9-inn;
#X obj 216 31 receive \$0-7-9-inn;
#X obj 245 53 receive \$0-6-9-inn;
#X obj 274 75 receive \$0-5-9-inn;
#X obj 322 9 receive \$0-4-9-inn;
#X obj 351 31 receive \$0-3-9-inn;
#X obj 380 53 receive \$0-2-9-inn;
#X obj 409 75 receive \$0-1-9-inn;
#X obj 210 144 cyclone/funnel 8;
#X obj 288 280 f;
#X obj 328 330 -;
#X obj 242 332 -;
#X obj 242 310 swap 8;
#X obj 328 308 swap 8;
#X obj 242 234 change -1;
#X obj 242 477 noteout 1;
#X obj 242 354 t f b;
#X obj 328 354 t f b;
#X obj 360 376 t f;
#X obj 274 376 f 59;
#X obj 242 399 * 10;
#X obj 242 421 + 9;
#X obj 210 189 t f f;
#X obj 242 254 t f f b;
#X obj 181 103 receive \$0-lb;
#X obj 50 457 s \$0-vsel;
#X obj 79 393 s \$0-vmid;
#X obj 50 436 receive \$0-vsels;
#X obj 50 415 s \$0-vselr;
#X obj 406 168 receive \$0-mode0;
#X obj 42 183 receive \$0-mode2;
#X obj 498 309 s \$0-tomidi;
#X text 595 234 switch between different color options for last toggle
;
#X obj 509 190 receive \$0-mode1;
#X msg 498 287 240 0 32 41 2 24 12 8 0 247;
#X obj 242 211 demux 0 1 2 3;
#X obj 50 313 demux 0 1 2 3;
#X obj 383 267 f \$0;
#X msg 383 289 send \$1-revsel;
#X obj 64 76 receive \$0-revsel;
#X obj 138 289 receive \$0-firstmode;
#X obj 425 362 receive \$0-reright;
#X obj 42 205 cyclone/uzi 8;
#X obj 108 335 pack f \$0;
#X msg 108 357 \; \$2-\$1-revv bang;
#X obj 435 491 s \$0-vselpre;
#X obj 406 190 t b b b f;
#X obj 509 213 t f f b;
#X obj 210 166 t f b;
#X obj 414 460 f 1;
#X obj 242 450 spigot;
#X obj 281 428 receive \$0-turnmeons;
#X connect 0 0 8 0;
#X connect 1 0 8 1;
#X connect 2 0 8 2;
#X connect 3 0 8 3;
#X connect 4 0 8 4;
#X connect 5 0 8 5;
#X connect 6 0 8 6;
#X connect 7 0 8 7;
#X connect 8 0 48 0;
#X connect 9 0 13 0;
#X connect 10 0 17 0;
#X connect 11 0 16 0;
#X connect 12 0 11 0;
#X connect 12 1 11 1;
#X connect 13 0 10 0;
#X connect 13 1 10 1;
#X connect 14 0 23 0;
#X connect 16 0 20 0;
#X connect 16 1 19 0;
#X connect 17 0 20 0;
#X connect 17 1 18 0;
#X connect 18 0 15 1;
#X connect 19 0 15 1;
#X connect 20 0 21 0;
#X connect 21 0 50 0;
#X connect 22 0 36 0;
#X connect 22 1 35 0;
#X connect 23 0 12 0;
#X connect 23 1 9 1;
#X connect 23 2 9 0;
#X connect 24 0 8 0;
#X connect 27 0 25 0;
#X connect 29 0 46 0;
#X connect 30 0 42 0;
#X connect 33 0 47 0;
#X connect 34 0 31 0;
#X connect 35 0 14 0;
#X connect 36 0 28 0;
#X connect 36 1 26 0;
#X connect 36 2 43 0;
#X connect 37 0 38 0;
#X connect 38 0 9 0;
#X connect 39 0 22 0;
#X connect 40 0 35 1;
#X connect 40 0 36 1;
#X connect 41 0 20 0;
#X connect 42 2 20 0;
#X connect 43 0 44 0;
#X connect 46 0 12 0;
#X connect 46 1 37 0;
#X connect 46 2 34 0;
#X connect 46 3 45 0;
#X connect 47 0 28 0;
#X connect 47 1 45 0;
#X connect 47 2 34 0;
#X connect 48 0 22 0;
#X connect 48 1 49 0;
#X connect 49 0 45 0;
#X connect 50 0 15 0;
#X connect 51 0 50 1;
#X restore 430 119 pd right-column;
#N canvas 430 222 888 530 interpret-button 0;
#X obj 226 29 receive \$0-press;
#X obj 300 170 receive \$0-mode;
#X obj 226 257 route 1;
#X obj 226 325 pack f f \$0;
#X text 324 321 receive button press;
#X msg 226 347 \; \$3-tomatrix-0 \$3-op element \$1 \$2;
#X obj 303 258 swap;
#X obj 328 281 makefilename \$0-%d-press;
#X obj 303 304 send;
#X obj 278 80 receive \$0-ushift;
#X obj 313 103 receive \$0-lshift;
#X obj 226 53 unpack f f f;
#X obj 260 126 +;
#X obj 295 126 +;
#X text 374 253 send lights to right side buttons;
#X obj 226 148 pack f f f f f;
#X obj 226 279 list split 2;
#X obj 263 235 list split 3;
#X obj 300 213 s \$0-m2click;
#X obj 226 191 demux 0 1 2;
#X obj 25 152 spigot;
#X obj 25 107 notein 1;
#X obj 48 241 div 10;
#X obj 71 217 mod 10;
#X obj 25 194 t b f f;
#X obj 48 267 pack f f \$0;
#X msg 48 289 symbol \$3-\$1-\$2-inn;
#X obj 25 318 send;
#X obj 25 174 spigot;
#X obj 467 2 receive \$0-turnmeons;
#X text 19 347 send to individual pp abstractions \, then to top of
next column, f 22;
#X obj 715 80 receive \$0-mixon;
#X obj 676 104 spigot;
#X obj 676 156 >= 21;
#X obj 719 156 <= 28;
#X obj 676 178 &&;
#X obj 621 202 spigot;
#X obj 676 134 t f f f;
#X obj 722 198 - 21;
#X text 664 308 identify fader messages;
#X obj 621 104 spigot;
#X obj 722 224 makefilename \$0-%d-m3c;
#X obj 621 265 send;
#X obj 621 50 ctlin;
#X obj 621 77 spigot;
#X connect 0 0 11 0;
#X connect 1 0 19 1;
#X connect 2 0 16 0;
#X connect 3 0 5 0;
#X connect 6 0 8 0;
#X connect 6 1 7 0;
#X connect 7 0 8 1;
#X connect 9 0 12 1;
#X connect 10 0 13 1;
#X connect 11 0 15 0;
#X connect 11 1 12 0;
#X connect 11 1 15 3;
#X connect 11 2 13 0;
#X connect 11 2 15 4;
#X connect 12 0 15 1;
#X connect 13 0 15 2;
#X connect 15 0 19 0;
#X connect 16 0 3 0;
#X connect 17 1 6 0;
#X connect 19 0 2 0;
#X connect 19 1 17 0;
#X connect 19 2 18 0;
#X connect 20 0 28 0;
#X connect 21 0 20 0;
#X connect 21 1 28 1;
#X connect 22 0 25 0;
#X connect 23 0 25 1;
#X connect 24 0 27 0;
#X connect 24 1 22 0;
#X connect 24 2 23 0;
#X connect 25 0 26 0;
#X connect 26 0 27 1;
#X connect 28 0 24 0;
#X connect 29 0 20 1;
#X connect 29 0 44 1;
#X connect 31 0 32 1;
#X connect 31 0 40 1;
#X connect 32 0 37 0;
#X connect 33 0 35 0;
#X connect 34 0 35 1;
#X connect 35 0 36 1;
#X connect 36 0 42 0;
#X connect 37 0 33 0;
#X connect 37 1 34 0;
#X connect 37 2 38 0;
#X connect 38 0 41 0;
#X connect 40 0 36 0;
#X connect 41 0 42 1;
#X connect 43 0 44 0;
#X connect 43 1 32 0;
#X connect 44 0 40 0;
#X restore 430 99 pd interpret-button;
#N canvas 181 101 1162 687 mode-1 0;
#X obj 75 45 receive \$0-op;
#X obj 75 89 makefilename c%d;
#X obj 116 112 receive \$0-sy-out;
#X obj 116 134 s2l;
#X obj 95 236 list;
#X obj 95 258 send;
#X obj 75 112 t b s;
#X obj 116 156 list trim;
#X obj 116 178 route -send;
#X obj 116 200 t f b;
#X obj 75 67 demux;
#X obj 211 224 t f;
#X obj 143 224 f 1;
#X text 134 259 send custom message to context;
#X obj 413 69 demux;
#X obj 566 238 t f b;
#X obj 598 301 array min \$0-twos;
#X obj 566 443 array set \$0-twos;
#X obj 436 185 ctxfiles/af \$0-twos;
#X obj 566 212 f;
#X obj 436 207 t b f;
#X obj 436 229 t f;
#X obj 598 323 sel 0;
#X obj 630 371 array size \$0-twos;
#X obj 630 347 t b;
#X obj 662 420 + 1;
#X obj 707 413 array define \$0-twos 8;
#X obj 413 161 t b f f;
#X obj 630 395 t f f;
#X obj 40 286 receive \$0-1xy;
#X text 399 34 SET MEDIUM VIEW;
#X text 454 71 1: receive ID number;
#X text 314 187 2: search for it;
#X text 266 208 2.1: if match \, delete it;
#X text 710 302 3: if no match \, calculate array min;
#X text 684 352 3.1 if array min is not 0 \, add a new space to the
array;
#X text 621 470 5: add new ID number to the array;
#X text 423 298 6: get whole array;
#X text 614 654 9.1: send max size to list pad so the matrix is written
correctly;
#X obj 146 286 receive \$0-ushift-1;
#X obj 166 365 array get \$0-twos;
#X obj 166 436 unpack f f f f f f f f;
#X obj 474 441 sel 0 1;
#X obj 474 510 s \$0-xyt;
#X obj 518 557 receive \$0-maxf;
#X obj 518 626 t f f;
#X obj 518 604 max;
#X obj 536 582 t f;
#X obj 501 694 s \$0-mmax-b;
#X obj 146 318 t b f b b;
#X obj 206 341 s \$0-clear;
#X obj 461 650 pack f 8 f;
#X obj 461 672 list split 1;
#X obj 445 48 - 1;
#X obj 445 113 f 2;
#X obj 445 135 s \$0-moder;
#X obj 166 387 list split 8;
#X obj 247 410 list-abs/list-pad;
#X obj 477 113 s \$0-preID;
#X obj 497 465 list append Y y 1;
#X obj 474 488 list append X x 0;
#X obj 166 461 ctxfiles/asynch \$0 1 8;
#X obj 474 413 receive \$0-1xym;
#X obj -35 160 receive \$0-m2out;
#X obj 179 201 t a b;
#X obj -35 182 t b f;
#X obj -3 204 makefilename c%d;
#X obj 317 601 ctxfiles/asynch \$0 8 1;
#X obj 187 481 ctxfiles/asynch \$0 2 7;
#X obj 209 501 ctxfiles/asynch \$0 3 6;
#X obj 230 521 ctxfiles/asynch \$0 4 5;
#X obj 252 541 ctxfiles/asynch \$0 5 4;
#X obj 273 561 ctxfiles/asynch \$0 6 3;
#X obj 295 581 ctxfiles/asynch \$0 7 2;
#X obj 445 91 t b f;
#X obj -74 45 receive \$0-sy-steal;
#X obj -74 67 t s b;
#X obj -74 89 s2l;
#X obj -74 111 list trim;
#X obj -42 89 v \$0-preID;
#X obj 363 365 receive \$0-padd;
#X obj 363 387 list split 8;
#X connect 0 0 10 0;
#X connect 1 0 6 0;
#X connect 2 0 3 0;
#X connect 3 0 7 0;
#X connect 4 0 5 0;
#X connect 6 0 4 0;
#X connect 6 1 5 1;
#X connect 7 0 8 0;
#X connect 8 0 9 0;
#X connect 8 1 64 0;
#X connect 9 0 53 0;
#X connect 9 1 12 0;
#X connect 10 0 1 0;
#X connect 10 1 14 0;
#X connect 11 0 10 1;
#X connect 12 0 10 1;
#X connect 14 0 27 0;
#X connect 14 1 74 0;
#X connect 15 0 17 0;
#X connect 15 1 16 0;
#X connect 16 0 22 0;
#X connect 16 1 17 1;
#X connect 18 0 20 0;
#X connect 18 1 19 0;
#X connect 19 0 15 0;
#X connect 20 0 21 0;
#X connect 20 1 17 1;
#X connect 21 0 17 0;
#X connect 22 1 24 0;
#X connect 23 0 28 0;
#X connect 24 0 23 0;
#X connect 25 0 23 0;
#X connect 25 0 51 1;
#X connect 27 1 18 0;
#X connect 27 2 19 1;
#X connect 28 0 17 1;
#X connect 28 1 25 0;
#X connect 29 0 49 0;
#X connect 39 0 49 0;
#X connect 40 0 56 0;
#X connect 41 0 61 0;
#X connect 41 1 68 0;
#X connect 41 2 69 0;
#X connect 41 3 70 0;
#X connect 41 4 71 0;
#X connect 41 5 72 0;
#X connect 41 6 73 0;
#X connect 41 7 67 0;
#X connect 42 0 60 0;
#X connect 42 1 59 0;
#X connect 44 0 46 0;
#X connect 45 0 51 2;
#X connect 45 1 46 1;
#X connect 46 0 45 0;
#X connect 47 0 46 1;
#X connect 49 0 51 0;
#X connect 49 1 40 0;
#X connect 49 2 47 0;
#X connect 49 3 50 0;
#X connect 51 0 52 0;
#X connect 52 1 48 0;
#X connect 53 0 14 1;
#X connect 54 0 55 0;
#X connect 56 0 41 0;
#X connect 56 2 57 0;
#X connect 57 0 41 0;
#X connect 59 0 43 0;
#X connect 60 0 43 0;
#X connect 62 0 42 0;
#X connect 63 0 65 0;
#X connect 64 0 4 1;
#X connect 64 1 11 0;
#X connect 65 0 4 0;
#X connect 65 1 66 0;
#X connect 66 0 5 1;
#X connect 74 0 54 0;
#X connect 74 1 58 0;
#X connect 75 0 76 0;
#X connect 76 0 77 0;
#X connect 76 1 79 0;
#X connect 77 0 78 0;
#X connect 78 0 5 0;
#X connect 79 0 66 0;
#X connect 80 0 81 0;
#X connect 81 0 57 1;
#X restore 430 179 pd mode-1;
#N canvas 65 89 1301 687 mode-2 0;
#X obj 326 229 send;
#X obj 327 258 receive \$0-bsync;
#X obj 326 138 symbol \$0-bsync;
#X obj 379 479 iemguts/oreceive \$0n;
#X obj 585 250 unpack s s s;
#X obj -20 146 iemguts/oreceive \$0n;
#X obj 54 206 iemguts/oreceive \$0n;
#X msg 54 184 symbol \$1-\$2doned;
#X msg 177 444 symbol \$1-\$2arry;
#X msg 276 681 symbol \$1-\$3arry;
#X obj 21 254 receive \$0-ijsize;
#X obj 21 276 list split 1;
#X obj 68 392 - 1;
#X obj 135 630 sel 0;
#X obj 167 681 f;
#X obj 278 47 f;
#X obj 376 114 s \$0-clear;
#X obj 68 466 array get ar 0 1;
#X obj 167 703 array get ar 0 1;
#X obj -20 338 cyclone/uzi 5;
#X obj 61 297 - 1;
#X obj 167 724 int;
#X obj 167 768 * -1;
#X obj 167 746 - 8;
#X obj 68 444 t f f;
#X obj 68 360 t f f;
#X obj 585 175 sel 0 1;
#X obj 227 2 receive \$0-2xy;
#X obj 608 199 list append Y y j;
#X obj 585 222 list append X x i;
#X obj 395 524 route 1 0;
#X obj 395 547 unpack;
#X obj 316 738 symbol off;
#X obj 290 760 symbol on;
#X obj 167 870 zexy/pack f f f \$0 on;
#X obj 434 578 t f b b f;
#X obj 461 601 t f;
#X obj 239 756 f;
#X obj -20 294 t b b b;
#X obj 607 578 unpack;
#X obj 607 601 - 8;
#X obj 607 638 * -1;
#X obj 494 601 zexy/pack 0 0 x;
#X obj 114 360 receive \$0-lshift-2;
#X obj 177 335 t f;
#X obj 93 297 s \$0-mmax-c;
#X obj 68 419 +;
#X obj 61 317 min 8;
#X obj 68 601 route bang;
#X obj 646 638 -;
#X obj 646 601 t f f;
#X obj 607 674 zexy/pack 0 0 0 x i \$0 0;
#X obj 434 639 -;
#X obj 167 791 -;
#X obj 200 594 receive \$0-ushift-2;
#X obj 167 813 moses 1;
#X obj 167 840 moses 9;
#X obj 344 182 pack f s;
#X msg 344 206 symbol \$2-\$1-dfetch;
#X obj 397 159 receive \$0-parentdollar;
#X obj 274 -107 receive \$0-preID;
#X obj 547 506 receive \$0-ijcol;
#X obj 379 457 makefilename %d-colours;
#X obj 547 528 unpack s f;
#X msg 167 892 \; \$4-\$2-vclear bang \; \$4-\$1-\$2-s color \$3 \;
\$4-\$1-\$2-\$5 bang;
#X obj 727 266 iemguts/oreceive \$0n;
#X obj 727 312 spigot;
#X obj 727 335 route bang;
#X obj 794 358 t f b f;
#X obj 840 380 -;
#X obj 776 429 -;
#X obj 776 483 moses 1;
#X obj 822 506 moses 9;
#X obj 840 403 moses 1;
#X obj 886 426 moses 9;
#X obj 776 392 f;
#X obj 727 357 del 0;
#X text 887 383 if pattern \, fash individually;
#X obj 766 289 receive \$0-righton;
#X obj 822 531 pack f \$0;
#X obj 886 449 pack f \$0;
#X msg 886 472 \; \$2-8-\$1-conon bang;
#X msg 822 553 \; \$2-8-\$1-conoff bang;
#X obj 858 358 receive \$0-lshift-2;
#X obj 711 -63 makefilename %d-togri;
#X obj 768 -15 iemguts/oreceive \$0n;
#X obj 711 -132 demux;
#X obj 711 -177 pack;
#X obj 711 -86 unpack;
#X obj 743 -109 swap;
#X obj 768 -38 makefilename %d-bu-n;
#X obj 842 192 f 1;
#X obj 805 242 demux;
#X obj 786 192 t f;
#X obj 823 217 cyclone/iter;
#X obj 768 32 del 200;
#X obj 823 169 array get ar;
#X msg 607 698 \; \$6-col-\$2 bang \; c\$3 :\$5 \$4 \$7 \$1;
#X msg 494 625 \; c\$2 :\$3 - \$1;
#X obj -54 511 array get dummy@%G;
#X obj 439 436 makefilename %d-toge;
#X obj -54 533 sel 0;
#X obj -22 577 array get dummy@%G;
#X obj 179 554 makefilename %d-floate;
#X obj 327 343 t l l l l f b f f f l;
#X obj 1 626 f;
#X obj -15 418 -;
#X obj 114 382 t b f b f f f;
#X obj -15 440 >= -8;
#X obj -54 463 spigot;
#X obj 1 648 * -1;
#X obj 129 146 iemguts/oreceive \$0n;
#X msg -20 124 symbol \$1-idoned;
#X msg 129 124 symbol \$1-jdoned;
#X obj 44 51 route 0 1;
#X msg 44 28 \$7 \$1;
#X obj 44 73 t f b;
#X obj 76 95 t f;
#X obj 97 73 t f f;
#X obj 120 659 t b f;
#X obj 167 659 t b b;
#X obj -22 555 t b b b;
#X obj -79 555 t b b f;
#X obj 327 315 zexy/pack 0 x i X \$0 f 0;
#X obj -54 485 del;
#X obj 768 8 t b b b b b;
#X obj 805 76 array get ar;
#X obj 768 54 t b b;
#X obj 805 98 sel 0;
#X obj 805 144 t f;
#X obj 837 122 t b;
#X obj 837 144 f;
#X obj 866 122 receive \$0-mmax-c;
#X obj 585 152 receive \$0-2xym;
#X obj 278 69 sel 0;
#X obj 114 321 spigot;
#X obj 200 638 spigot;
#X obj 310 91 t b b f f b f f b f f;
#X obj 844 -214 unpack s f;
#X obj 743 -220 -;
#X obj 743 -198 abs;
#X obj 743 -242 swap;
#X obj 911 -192 t b f;
#X obj 908 -284 iemguts/oreceive \$0n;
#X obj 908 -309 makefilename %d-:M;
#X obj 908 -262 t b f;
#X msg 471 368 \; c\$6 fetch \$5-ijsize \$4 \; c\$6 fetch \$5-ijcol
c \; c\$6 fetch \$5-MmM M;
#X obj 844 -236 receive \$0-MmM;
#X obj 274 -85 sel 0;
#X text 328 -77 <--this might be shadowing a larger problem...;
#X obj 711 -155 spigot;
#X obj 278 23 receive \$0-mode2;
#X obj 750 -177 receive \$0-righton;
#X obj -20 232 spigot;
#X obj -77 168 receive \$0-righton;
#X obj 395 501 receive \$0-m2click;
#X obj 395 578 -;
#X obj 200 616 t b f b f;
#X connect 1 0 123 0;
#X connect 2 0 0 0;
#X connect 3 0 37 0;
#X connect 4 0 123 3;
#X connect 4 1 42 2;
#X connect 4 1 51 3;
#X connect 4 1 123 1;
#X connect 4 2 51 4;
#X connect 4 2 123 2;
#X connect 5 0 153 0;
#X connect 6 0 153 0;
#X connect 7 0 6 0;
#X connect 8 0 17 2;
#X connect 8 0 96 2;
#X connect 9 0 18 2;
#X connect 10 0 11 0;
#X connect 11 1 20 0;
#X connect 11 1 45 0;
#X connect 11 1 106 1;
#X connect 12 0 46 0;
#X connect 13 0 119 0;
#X connect 13 1 120 0;
#X connect 14 0 18 0;
#X connect 15 0 134 0;
#X connect 17 0 48 0;
#X connect 18 0 21 0;
#X connect 19 1 109 0;
#X connect 19 2 25 0;
#X connect 20 0 47 0;
#X connect 21 0 23 0;
#X connect 22 0 53 0;
#X connect 23 0 22 0;
#X connect 24 0 17 0;
#X connect 24 1 14 1;
#X connect 25 0 12 0;
#X connect 25 1 34 1;
#X connect 26 0 29 0;
#X connect 26 1 28 0;
#X connect 27 0 15 0;
#X connect 28 0 4 0;
#X connect 29 0 4 0;
#X connect 30 0 31 0;
#X connect 30 1 39 0;
#X connect 31 0 156 0;
#X connect 31 1 35 0;
#X connect 32 0 34 4;
#X connect 33 0 34 4;
#X connect 34 0 64 0;
#X connect 35 0 52 0;
#X connect 35 1 32 0;
#X connect 35 2 36 0;
#X connect 35 3 42 0;
#X connect 36 0 34 2;
#X connect 37 0 34 2;
#X connect 38 0 19 0;
#X connect 38 1 33 0;
#X connect 38 2 37 0;
#X connect 39 0 40 0;
#X connect 39 1 50 0;
#X connect 40 0 41 0;
#X connect 41 0 51 0;
#X connect 42 0 98 0;
#X connect 43 0 107 0;
#X connect 44 0 46 1;
#X connect 46 0 24 0;
#X connect 47 0 19 1;
#X connect 48 1 13 0;
#X connect 49 0 51 1;
#X connect 50 0 49 0;
#X connect 50 1 51 6;
#X connect 51 0 97 0;
#X connect 52 0 34 1;
#X connect 53 0 55 0;
#X connect 54 0 157 0;
#X connect 55 1 56 0;
#X connect 56 0 34 0;
#X connect 57 0 58 0;
#X connect 58 0 0 1;
#X connect 59 0 57 1;
#X connect 60 0 148 0;
#X connect 61 0 63 0;
#X connect 62 0 3 0;
#X connect 63 1 37 0;
#X connect 65 0 66 0;
#X connect 66 0 67 0;
#X connect 67 0 76 0;
#X connect 67 1 68 0;
#X connect 68 0 75 1;
#X connect 68 1 75 0;
#X connect 68 2 69 0;
#X connect 69 0 73 0;
#X connect 70 0 71 0;
#X connect 71 1 72 0;
#X connect 72 0 79 0;
#X connect 73 1 74 0;
#X connect 74 0 80 0;
#X connect 75 0 70 0;
#X connect 76 0 75 0;
#X connect 78 0 66 1;
#X connect 79 0 82 0;
#X connect 80 0 81 0;
#X connect 83 0 69 1;
#X connect 83 0 70 1;
#X connect 84 0 65 0;
#X connect 85 0 125 0;
#X connect 86 0 88 0;
#X connect 86 1 89 0;
#X connect 87 0 150 0;
#X connect 88 0 84 0;
#X connect 88 1 90 0;
#X connect 89 0 84 0;
#X connect 89 1 90 0;
#X connect 90 0 85 0;
#X connect 91 0 92 1;
#X connect 92 0 70 0;
#X connect 92 1 69 0;
#X connect 93 0 92 1;
#X connect 94 0 92 0;
#X connect 95 0 127 0;
#X connect 96 0 94 0;
#X connect 99 0 101 0;
#X connect 100 0 99 2;
#X connect 100 0 126 2;
#X connect 101 0 122 0;
#X connect 101 1 121 0;
#X connect 102 0 21 0;
#X connect 103 0 102 2;
#X connect 104 0 115 0;
#X connect 104 1 7 0;
#X connect 104 2 8 0;
#X connect 104 3 9 0;
#X connect 104 4 62 0;
#X connect 104 6 87 0;
#X connect 104 7 100 0;
#X connect 104 7 144 0;
#X connect 104 8 103 0;
#X connect 104 9 146 0;
#X connect 105 0 110 0;
#X connect 106 0 108 0;
#X connect 106 0 105 1;
#X connect 107 0 135 0;
#X connect 107 1 46 1;
#X connect 107 2 16 0;
#X connect 107 3 52 1;
#X connect 107 4 49 1;
#X connect 107 5 106 0;
#X connect 108 0 109 1;
#X connect 109 0 124 0;
#X connect 110 0 34 1;
#X connect 111 0 153 0;
#X connect 112 0 5 0;
#X connect 113 0 111 0;
#X connect 114 0 116 0;
#X connect 114 1 118 0;
#X connect 115 0 114 0;
#X connect 116 0 112 0;
#X connect 116 1 117 0;
#X connect 117 0 113 0;
#X connect 118 0 112 0;
#X connect 118 1 113 0;
#X connect 119 0 14 0;
#X connect 119 1 34 2;
#X connect 120 0 14 0;
#X connect 120 1 37 0;
#X connect 121 0 102 0;
#X connect 121 1 105 0;
#X connect 121 2 37 0;
#X connect 122 0 102 0;
#X connect 122 1 105 0;
#X connect 122 2 34 2;
#X connect 123 0 104 0;
#X connect 124 0 99 0;
#X connect 125 0 95 0;
#X connect 125 1 93 0;
#X connect 125 2 126 0;
#X connect 125 3 96 0;
#X connect 125 4 91 0;
#X connect 126 0 128 0;
#X connect 127 0 126 0;
#X connect 127 1 96 0;
#X connect 128 0 129 0;
#X connect 128 1 130 0;
#X connect 129 0 92 0;
#X connect 130 0 131 0;
#X connect 131 0 92 0;
#X connect 132 0 131 1;
#X connect 133 0 26 0;
#X connect 133 0 123 6;
#X connect 133 0 141 0;
#X connect 134 1 137 0;
#X connect 135 0 38 0;
#X connect 136 0 19 0;
#X connect 137 0 38 0;
#X connect 137 1 2 0;
#X connect 137 2 57 0;
#X connect 137 3 123 5;
#X connect 137 4 16 0;
#X connect 137 5 42 1;
#X connect 137 6 51 2;
#X connect 137 7 44 0;
#X connect 137 8 135 1;
#X connect 137 9 136 1;
#X connect 138 1 142 0;
#X connect 139 0 140 0;
#X connect 140 0 86 1;
#X connect 141 0 139 0;
#X connect 141 1 139 1;
#X connect 142 0 141 0;
#X connect 142 1 141 1;
#X connect 143 0 145 0;
#X connect 144 0 143 0;
#X connect 145 0 87 0;
#X connect 145 1 142 0;
#X connect 147 0 138 0;
#X connect 148 1 15 1;
#X connect 150 0 86 0;
#X connect 151 0 15 0;
#X connect 152 0 150 1;
#X connect 153 0 38 0;
#X connect 154 0 153 1;
#X connect 155 0 30 0;
#X connect 156 0 34 0;
#X connect 157 0 136 0;
#X connect 157 1 53 1;
#X connect 157 2 16 0;
#X connect 157 3 156 1;
#X restore 430 199 pd mode-2;
#N canvas 65 89 1262 662 mode-0 0;
#X obj 74 252 t f f;
#X obj 694 218 array size all&&stor;
#X obj 679 316 t l b;
#X obj 706 339 f;
#X obj 741 339 + 1;
#X obj 529 326 cyclone/uzi;
#X obj 603 370 t f f f;
#X obj 603 348 - 1;
#N canvas 344 190 932 300 IDs 0;
#X obj 93 63 inlet;
#X msg 552 118 resize \$1;
#X obj 552 140 array define \$0-id;
#X obj 258 72 inlet;
#X obj 258 117 array set \$0-id;
#X obj 93 163 outlet;
#X text 555 49 1.1: receive total number of contexts and resize array
;
#X text 210 49 3.1: set array with all x/y values;
#X text 52 185 5.1: iterate arrays;
#X obj 552 73 receive \$0-arrsize;
#X obj 309 72 receive \$0-allcount;
#X obj 144 164 outlet;
#X obj 194 164 outlet;
#X obj 552 95 * 3;
#X text 539 170 this array temporarily stores IDs and colours and \$0's
;
#X obj 93 111 array get \$0-id 0 3;
#X obj 93 133 unpack f f f;
#X obj 309 94 * 3;
#X obj 93 85 * 3;
#X connect 0 0 18 0;
#X connect 1 0 2 0;
#X connect 3 0 4 0;
#X connect 9 0 13 0;
#X connect 10 0 17 0;
#X connect 13 0 1 0;
#X connect 15 0 16 0;
#X connect 16 0 5 0;
#X connect 16 1 11 0;
#X connect 16 2 12 0;
#X connect 17 0 4 1;
#X connect 18 0 15 0;
#X restore 697 429 pd IDs;
#X msg 837 315 clear;
#X obj 837 337 text define \$0pos;
#X obj 621 535 text set \$0pos 1e+06;
#X text 780 242 1: find total array size based on number of open contexts
;
#X text 774 277 2: query position of every context based on creation
order;
#X text 788 392 3: send context info to abstractions;
#X text 727 458 4: calculate min and max;
#X text 508 390 5: iterate arrays;
#X text 704 488 6: send to text object;
#X obj 74 277 text get \$0pos;
#X obj 113 342 text delete \$0pos;
#X obj 827 359 text define \$0pos2;
#X obj 101 395 text search \$0pos2;
#X obj 74 492 demux;
#X obj 41 229 sel -1;
#X obj 128 559 text set \$0pos2 1e+06;
#X obj 113 320 f;
#X obj 101 371 list split 2;
#X obj 101 417 sel -1;
#X obj 101 439 f 1;
#X obj 134 439 t b f;
#X obj 138 463 t f;
#N canvas 504 108 750 639 decide 0;
#X obj 341 113 text get \$0pos2;
#X obj 341 47 inlet old;
#X obj 341 138 unpack f f f f;
#X obj 322 189 -;
#X obj 355 189 -;
#X obj 322 211 abs;
#X obj 355 211 abs;
#X obj 322 236 >;
#X text 352 238 1 = x \, 0 = y;
#X obj 295 328 >;
#X obj 322 328 >;
#X obj 295 292 demux;
#X obj 295 267 mux;
#X obj 322 354 + 2;
#X obj 667 502 cnv 15 20 20 gp1s gp1 1 7 12 0 14 -260097 -66577 0;
#X obj 634 500 cnv 15 20 20 gp2s gp2 2 7 12 0 14 -4032 -66577 0;
#X obj 603 407 tgl 15 0 empty empty empty 17 7 0 10 -262144 -1 -1 0
1;
#X obj 603 427 metro 250;
#X msg 603 449 \; gp1 get_pos \; gp2 get_pos;
#X obj 480 141 receive gp1s;
#X obj 480 163 list prepend 0 0;
#X obj 464 209 list prepend 0 0;
#X obj 464 187 receive gp2s;
#X obj 311 0 inlet reset;
#X obj 341 69 spigot 1;
#X obj 341 91 t f b;
#X obj 408 84 t f;
#X obj 238 88 spigot 1;
#X obj 257 138 unpack f f;
#X obj 238 161 unpack f f;
#X obj 238 112 t l l b;
#X obj 292 112 t f;
#X obj 192 553 +;
#X obj 215 553 +;
#X obj 295 382 sel 0 1 2 3;
#X obj 295 496 unpack;
#X obj 295 404 pack 0 -1;
#X obj 310 426 pack 0 1;
#X obj 326 448 pack -1 0;
#X obj 341 471 pack 1 0;
#X obj 192 607 outlet;
#X text 443 94 10.1: retrieve matching coordinates;
#X text 36 88 10.2: retrive matched coordinates;
#X text -24 190 10.3: decide whether the x or the y difference is greater
;
#X text 117 292 10.4: select data accordingly;
#X text -39 329 10.5: determine whether positive or negative difference
;
#X text 354 407 10.6: decide how to alter coordinates;
#X text 399 67 10.0: switch off after first shot;
#X text 50 553 10.7: alter coordinates;
#X obj 192 -3 inlet new;
#X obj 238 63 pack;
#X obj 238 41 t f f;
#X text 404 320 above origin: 0 \; below origin: 1 \; left of origin:
2 \; right of origin: 3;
#X obj 192 19 unpack f f f f f f;
#X obj 192 584 pack f f f f f f;
#X connect 0 0 2 0;
#X connect 1 0 24 0;
#X connect 2 2 3 1;
#X connect 2 2 10 1;
#X connect 2 3 4 1;
#X connect 2 3 9 1;
#X connect 3 0 5 0;
#X connect 4 0 6 0;
#X connect 5 0 7 0;
#X connect 6 0 7 1;
#X connect 7 0 11 1;
#X connect 7 0 12 2;
#X connect 9 0 34 0;
#X connect 10 0 13 0;
#X connect 11 0 9 0;
#X connect 11 1 10 0;
#X connect 12 0 11 0;
#X connect 13 0 34 0;
#X connect 16 0 17 0;
#X connect 17 0 18 0;
#X connect 19 0 20 0;
#X connect 22 0 21 0;
#X connect 23 0 24 1;
#X connect 23 0 27 1;
#X connect 24 0 25 0;
#X connect 25 0 0 0;
#X connect 25 1 26 0;
#X connect 26 0 24 1;
#X connect 27 0 30 0;
#X connect 28 0 3 0;
#X connect 28 1 4 0;
#X connect 29 0 12 1;
#X connect 29 1 12 0;
#X connect 30 0 29 0;
#X connect 30 1 28 0;
#X connect 30 2 31 0;
#X connect 31 0 27 1;
#X connect 32 0 54 0;
#X connect 33 0 54 1;
#X connect 34 0 36 0;
#X connect 34 1 37 0;
#X connect 34 2 38 0;
#X connect 34 3 39 0;
#X connect 35 0 32 1;
#X connect 35 1 33 1;
#X connect 36 0 35 0;
#X connect 37 0 35 0;
#X connect 38 0 35 0;
#X connect 39 0 35 0;
#X connect 49 0 53 0;
#X connect 50 0 27 0;
#X connect 51 0 50 0;
#X connect 51 1 54 2;
#X connect 53 0 32 0;
#X connect 53 1 33 0;
#X connect 53 2 51 0;
#X connect 53 3 50 1;
#X connect 53 3 54 3;
#X connect 53 4 54 4;
#X connect 53 5 54 5;
#X connect 54 0 40 0;
#X restore 74 586 pd decide;
#X obj 101 463 t f f;
#X text 134 226 7: search for mid-point of grid;
#X obj 41 185 pack 4.5 4.5;
#X text -68 250 7.1: if no result \, end;
#X text 126 299 8: retrieve nearest match and delete;
#X text 187 373 9: search for same coordinates in pos2;
#X text 153 419 10: if match found \, go to decide;
#X text -37 463 9.1 else write to pos2;
#X text 56 560 11: goto 7;
#X obj 389 210 text sequence \$0pos2;
#X msg 389 187 line 0 \, bang;
#X obj 680 268 send;
#X obj 679 292 iemguts/oreceive \$0jj;
#X obj 898 152 bng 15 250 50 0 empty empty empty 17 7 0 10 -262144
-1 -1;
#X obj 932 191 makefilename %s-getposs;
#X obj 952 211 makefilename %s-sendposs;
#X obj 706 361 s \$0-allcount;
#X obj 694 242 s \$0-arrsize;
#X obj 679 381 list split 2;
#X obj 679 405 unpack;
#X obj 74 329 t l l;
#X obj 74 299 t l b;
#X obj 943 444 bng 15 250 50 0 empty empty empty 17 7 0 10 -262144
-1 -1;
#X obj 586 535 pack;
#X obj 365 332 text sequence \$0pos2;
#X msg 365 310 line 0 \, bang;
#X obj 389 233 t l l b;
#X obj 943 509 receive \$0-mprint;
#X obj 943 464 list append \$0-mprint;
#X obj 515 24 receive \$0-calc;
#X obj 329 137 t b b b b b f;
#X msg 375 274 \; \$2-\$1 label c\$5 \, color \$6;
#X obj 801 164 s \$0-clear;
#X obj 586 557 s \$0-mmax-a;
#X obj 943 486 s \$0-tomatrix-1;
#X obj 101 514 t b l;
#X obj 41 207 text search \$0pos near 1 near 0;
#X text 383 165 12: iterate text;
#X text 450 230 13: send x-y coords back into arrays;
#X text 356 456 14: set dimensions of matrix;
#X msg 388 400 \$2 \$1 \$5;
#X msg 365 483 \$2 \$1 \$6;
#X obj 543 473 pack;
#X obj 971 326 declare -stdlib iemmatrix -lib iemmatrix;
#X obj 975 346 declare -stdlib zexy -lib zexy;
#X obj 1131 211 s \$0-parentdollar;
#X obj 942 531 iemmatrix/mtx_print;
#X obj 515 48 t b b b b b b f b b;
#X obj 684 43 bng 15 250 50 0 empty empty empty 17 7 0 10 -262144 -1
-1;
#X obj 291 179 s \$0-calcend;
#X obj 932 169 iemguts/canvasdollarzero 2;
#X obj 932 147 receive \$0-lb;
#X obj 365 510 ctxfiles/gm \$0 0.5 a;
#X obj 543 427 ctxfiles/bp \$0;
#X obj 569 449 ctxfiles/bp \$0;
#X text 840 295 x \, y \, ID \, color \, \$0;
#X obj 621 513 pack f f f f f f f;
#X obj 388 427 ctxfiles/gm \$0 0 a;
#X obj 365 355 t a a a;
#X obj 411 597 ctxfiles/gm \$0 0.6 a;
#X msg 411 570 \$2 \$1 \$7;
#X text 480 570 \$0 matrix;
#X connect 0 0 18 0;
#X connect 0 1 25 1;
#X connect 1 0 5 1;
#X connect 1 0 49 0;
#X connect 2 0 50 0;
#X connect 2 1 3 0;
#X connect 3 0 4 0;
#X connect 3 0 48 0;
#X connect 4 0 3 1;
#X connect 5 2 7 0;
#X connect 6 0 85 1;
#X connect 6 1 86 1;
#X connect 6 2 8 0;
#X connect 7 0 6 0;
#X connect 8 0 88 4;
#X connect 8 1 88 5;
#X connect 8 2 88 6;
#X connect 9 0 10 0;
#X connect 9 0 20 0;
#X connect 18 0 53 0;
#X connect 21 0 27 0;
#X connect 22 0 31 0;
#X connect 22 1 67 0;
#X connect 23 0 62 0;
#X connect 23 1 0 0;
#X connect 25 0 19 0;
#X connect 26 0 21 0;
#X connect 27 0 28 0;
#X connect 27 1 29 0;
#X connect 28 0 32 0;
#X connect 29 0 30 0;
#X connect 29 1 31 2;
#X connect 30 0 22 1;
#X connect 31 0 52 0;
#X connect 32 0 22 1;
#X connect 32 1 31 1;
#X connect 34 0 68 0;
#X connect 41 0 58 0;
#X connect 42 0 41 0;
#X connect 44 0 2 0;
#X connect 45 0 82 0;
#X connect 46 0 43 1;
#X connect 47 0 44 0;
#X connect 50 0 51 0;
#X connect 50 1 8 1;
#X connect 51 0 85 3;
#X connect 51 1 86 3;
#X connect 52 0 22 0;
#X connect 52 1 26 0;
#X connect 53 0 52 0;
#X connect 53 1 25 0;
#X connect 54 0 60 0;
#X connect 55 0 65 0;
#X connect 56 0 90 0;
#X connect 57 0 56 0;
#X connect 58 1 51 0;
#X connect 58 2 3 0;
#X connect 59 0 78 0;
#X connect 60 0 66 0;
#X connect 61 0 79 0;
#X connect 62 0 81 0;
#X connect 62 1 57 0;
#X connect 62 2 86 0;
#X connect 62 3 85 0;
#X connect 62 4 42 0;
#X connect 62 5 3 1;
#X connect 67 0 34 0;
#X connect 67 1 24 0;
#X connect 68 0 23 0;
#X connect 72 0 89 0;
#X connect 73 0 84 0;
#X connect 74 0 84 1;
#X connect 74 0 89 1;
#X connect 74 0 91 1;
#X connect 79 0 34 0;
#X connect 79 1 5 0;
#X connect 79 2 85 2;
#X connect 79 3 86 2;
#X connect 79 4 43 0;
#X connect 79 5 1 0;
#X connect 79 6 3 1;
#X connect 79 7 9 0;
#X connect 79 8 64 0;
#X connect 80 0 79 0;
#X connect 82 0 46 0;
#X connect 82 0 47 0;
#X connect 82 0 77 0;
#X connect 83 0 82 0;
#X connect 85 0 74 0;
#X connect 85 1 55 1;
#X connect 85 2 88 0;
#X connect 85 3 88 2;
#X connect 86 0 74 1;
#X connect 86 1 55 0;
#X connect 86 2 88 1;
#X connect 86 3 88 3;
#X connect 88 0 11 0;
#X connect 90 0 73 0;
#X connect 90 1 72 0;
#X connect 90 2 92 0;
#X connect 92 0 91 0;
#X restore 430 159 pd mode-0;
#X obj 223 118 vradio 15 1 0 8 \$0-vsels \$0-vselr empty 0 -8 0 10
-262144 -1 -1 0;
#X obj 238 118 ctxfiles/s1 \$0 0 :s;
#X text -121 101 lots more in this subpatch -->;
#X obj 238 133 ctxfiles/s1 \$0 1 :ss;
#X obj 238 148 ctxfiles/s1 \$0 2 -send 1;
#X obj 238 163 ctxfiles/s1 \$0 3 -send 2;
#X obj 238 178 ctxfiles/s1 \$0 4 undo;
#X obj 238 193 ctxfiles/s1 \$0 5 find;
#X obj 238 208 ctxfiles/s1 \$0 6;
#X obj 238 223 ctxfiles/s1 \$0 7;
#X obj 344 102 tgl 14 0 \$0-turnmeons \$0-turnmeonr empty 17 7 0 10
-261154 -1 -1 0 1;
#N canvas 546 233 450 300 on-off 0;
#X obj 155 51 receive \$0-turnmeons;
#X obj 155 95 sel 1;
#X obj 195 139 s alloff!q@w;
#X obj 187 191 receive alloff!q@w;
#X obj 187 213 send \$0-turnmeonr;
#X obj 175 169 f 1;
#X obj 155 73 spigot 1;
#X obj 56 95 receive \$0-lb;
#X obj 155 117 t b b f f;
#X obj 155 244 s \$0-alloff;
#X connect 0 0 6 0;
#X connect 1 0 8 0;
#X connect 3 0 4 0;
#X connect 5 0 4 0;
#X connect 5 0 6 1;
#X connect 6 0 1 0;
#X connect 7 0 5 0;
#X connect 8 0 9 0;
#X connect 8 1 5 0;
#X connect 8 2 2 0;
#X connect 8 3 6 1;
#X restore 430 299 pd on-off;
#N canvas 562 208 725 519 mode-3 1;
#X obj 154 175 s ))gridfader((;
#X obj 185 13 receive \$0-mixon;
#X obj 185 35 * 4;
#X obj 108 105 receive \$0-lshift-3;
#X obj 108 267 * 2;
#X obj 108 311 list split 16;
#X obj 312 309 receive \$0-padd;
#X obj 196 334 list-abs/list-pad;
#X obj 108 368 unpack f f f f f f f f f f f f f f f f;
#X obj 185 80 s \$0-tomidi;
#X msg 185 58 240 0 32 41 2 24 34 \$1 247;
#X obj 446 16 receive \$0-mxback;
#X text 625 65 ^ color;
#X obj 59 35 t f;
#X msg 446 38 240 0 32 41 2 24 43 \$2 0 \$3 \$1 247;
#X obj 108 392 ctxfiles/mx \$0 0 2;
#X obj 178 435 ctxfiles/mx \$0 2 2;
#X obj 248 392 ctxfiles/mx \$0 4 2;
#X obj 318 435 ctxfiles/mx \$0 6 2;
#X obj 143 414 ctxfiles/mx \$0 1 31;
#X obj 213 457 ctxfiles/mx \$0 3 31;
#X obj 283 414 ctxfiles/mx \$0 5 31;
#X obj 353 457 ctxfiles/mx \$0 7 31;
#X obj 108 129 t f b b;
#X obj 131 221 * 0.5;
#X obj 131 243 s \$0-mmax-d;
#X obj 426 125 array define \$0-gridfader 1;
#X obj 131 199 array size \$0-gridfader;
#X obj 108 289 array get \$0-gridfader;
#X obj 154 152 f \$0;
#X obj 486 192 receive \$0-turnmeons;
#X obj 447 216 spigot;
#X obj 447 238 spigot;
#X obj 59 13 receive \$0-alloff;
#X obj 447 169 receive Rx*iOl;
#X obj 447 260 s ))gridfader((;
#X connect 1 0 2 0;
#X connect 1 0 32 1;
#X connect 2 0 10 0;
#X connect 3 0 23 0;
#X connect 4 0 28 0;
#X connect 5 0 8 0;
#X connect 5 2 7 0;
#X connect 6 0 7 1;
#X connect 7 0 8 0;
#X connect 8 0 15 0;
#X connect 8 1 15 1;
#X connect 8 2 19 0;
#X connect 8 3 19 1;
#X connect 8 4 16 0;
#X connect 8 5 16 1;
#X connect 8 6 20 0;
#X connect 8 7 20 1;
#X connect 8 8 17 0;
#X connect 8 9 17 1;
#X connect 8 10 21 0;
#X connect 8 11 21 1;
#X connect 8 12 18 0;
#X connect 8 13 18 1;
#X connect 8 14 22 0;
#X connect 8 15 22 1;
#X connect 10 0 9 0;
#X connect 11 0 14 0;
#X connect 13 0 10 0;
#X connect 14 0 9 0;
#X connect 23 0 4 0;
#X connect 23 1 27 0;
#X connect 23 2 29 0;
#X connect 24 0 25 0;
#X connect 27 0 24 0;
#X connect 28 0 5 0;
#X connect 29 0 0 0;
#X connect 30 0 31 1;
#X connect 31 0 32 0;
#X connect 32 0 35 0;
#X connect 33 0 13 0;
#X connect 34 0 31 0;
#X restore 430 219 pd mode-3;
#X connect 1 0 2 0;
#X coords 0 -1 1 1 260 138 2 100 100;
