#N canvas 109 89 684 679 10;
#X declare -lib zexy -path zexy -path ./;
#X obj 395 482 inlet;
#X obj 299 592 list;
#X obj 320 508 list append 0;
#X obj 66 -22 keyname;
#X obj 66 49 pack f s;
#X obj 66 75 cyclone/zl rev;
#X obj 66 143 t a a;
#X obj 93 192 sel 0 1;
#X obj 66 240 ctxfiles/sp01;
#X obj 66 24 change;
#X obj 111 2 sel ff;
#X msg 163 51 set -1;
#X obj 144 26 t s b s;
#X obj 111 433 l2s;
#X msg 153 430 symbol;
#X obj 111 462 t s s;
#X obj 111 490 s2l;
#X obj 111 405 list prepend;
#X obj 111 288 cyclone/zl rev;
#X obj 111 310 route 1;
#X obj 281 19 loadbang;
#X obj 281 41 iemguts/canvasargs;
#X obj 384 172 else/fromany;
#X obj 384 196 cyclone/iter;
#X obj 384 218 sel 36 37;
#X obj 360 307 ctxfiles/collect;
#X msg 384 264 36 50;
#X msg 409 242 36 49;
#X obj 360 146 t b a;
#X obj 360 359 list prepend set;
#X obj 360 381 list trim;
#X obj 360 332 else/toany;
#X obj 281 66 list split 1;
#X obj 66 262 route \$1 Shift_L Shift_R;
#X msg 320 536;
#X obj 415 558 ctxfiles/dvi \$0 3;
#X obj 315 115 route **;
#X obj 315 137 t a b;
#X obj 329 173 f 1;
#X obj 315 90 list trim;
#X obj 66 97 demux;
#X obj 66 120 spigot;
#X obj 434 -1 ctxfiles/license;
#X obj 299 619 ctxfiles/dvs \$0 notsafe;
#X obj 106 97 ctxfiles/dvr \$0 mouseone;
#X obj 434 65 declare -lib zexy -path zexy -path ./;
#X obj 134 214 t b b b;
#X obj 320 559 t a a;
#X obj 76 214 t b b;
#X obj 347 592 ctxfiles/dvs \$0 jlab;
#X obj 93 168 route \$1 Escape;
#X obj 111 380 route float;
#X obj 111 357 s2l;
#X obj 111 333 list;
#X connect 0 0 2 1;
#X connect 1 0 43 0;
#X connect 2 0 34 0;
#X connect 3 0 9 0;
#X connect 3 1 10 0;
#X connect 4 0 5 0;
#X connect 5 0 40 0;
#X connect 6 0 50 0;
#X connect 6 1 8 0;
#X connect 7 0 48 0;
#X connect 7 1 46 0;
#X connect 8 0 33 0;
#X connect 9 0 4 0;
#X connect 10 1 12 0;
#X connect 11 0 9 0;
#X connect 12 0 4 1;
#X connect 12 1 11 0;
#X connect 12 2 10 1;
#X connect 13 0 15 0;
#X connect 14 0 13 1;
#X connect 15 0 16 0;
#X connect 15 1 17 1;
#X connect 16 0 2 0;
#X connect 17 0 13 0;
#X connect 18 0 19 0;
#X connect 19 0 53 0;
#X connect 20 0 21 0;
#X connect 20 0 14 0;
#X connect 21 0 32 0;
#X connect 22 0 23 0;
#X connect 23 0 24 0;
#X connect 24 0 26 0;
#X connect 24 1 27 0;
#X connect 24 2 25 1;
#X connect 25 0 31 0;
#X connect 26 0 25 1;
#X connect 27 0 25 1;
#X connect 28 0 25 0;
#X connect 28 1 22 0;
#X connect 29 0 30 0;
#X connect 30 0 34 0;
#X connect 31 0 29 0;
#X connect 32 1 39 0;
#X connect 33 3 18 0;
#X connect 34 0 47 0;
#X connect 36 0 37 0;
#X connect 36 1 28 0;
#X connect 37 0 28 0;
#X connect 37 1 38 0;
#X connect 38 0 40 1;
#X connect 39 0 36 0;
#X connect 40 0 41 0;
#X connect 40 1 6 0;
#X connect 41 0 6 0;
#X connect 44 0 41 1;
#X connect 46 0 8 2;
#X connect 46 1 17 1;
#X connect 46 2 1 1;
#X connect 47 0 1 1;
#X connect 47 1 49 0;
#X connect 48 0 1 0;
#X connect 48 1 8 1;
#X connect 50 0 7 0;
#X connect 50 1 46 0;
#X connect 51 0 17 0;
#X connect 52 0 51 0;
#X connect 53 0 52 0;
