#N canvas 187 462 621 300 10;
#X obj 170 177 iemguts/canvasselect;
#X obj 170 203 print fo;
#X obj 170 154 bng 15 250 50 0 empty empty empty 17 7 0 10 -262144
-1 -1;
#N canvas 768 294 515 392 workings 1;
#N canvas 596 193 761 546 c-movement 0;
#X obj 300 59 inlet height;
#X obj 225 60 inlet;
#X obj 513 342 iemguts/sendcanvas 2;
#X obj 462 252 ctxfiles/dv \$0 v yszz;
#X obj 462 320 - 2;
#X msg 462 443 vis_size 1 \$1;
#X obj 462 465 s \$0-block;
#X obj 407 228 unpack;
#X obj 65 120 receive \$0-canvass;
#X obj 65 142 route bang;
#X obj 85 264 unpack;
#X obj 85 309 pack;
#X obj 85 286 clip 0;
#X obj 319 284 ctxfiles/dv \$0 v xszz;
#X obj 319 306 - 3;
#X obj 65 164 t a b;
#X obj 65 242 iemguts/canvasobjectposition 3;
#X obj 242 219 iemguts/canvasindex 2;
#X obj 407 206 ctxfiles/dv \$0 receive cursorsz;
#X obj 337 421 s \$0-pixsize;
#X obj 225 84 demux 0 1 2 3;
#X text 317 21 x1 y1 x2 y2;
#X obj 225 200 pack f f;
#X msg 295 129 label_pos 2 \$1;
#X msg 513 320 coords 0 -1 1 1 3 \$1 2 0 3;
#X obj 337 396 pack 3 8;
#X obj 462 227 receive \$0-lbang;
#X obj 225 128 t f b b;
#X obj 558 156 ctxfiles/dv \$0 s order;
#X obj 487 62 del 550;
#X obj 577 134 ctxfiles/dv \$0 s order1;
#X obj 270 151 receive \$0-nomove;
#X obj 225 174 spigot 1;
#X obj 295 107 t f b f;
#X obj 487 39 spigot;
#X obj 520 12 receive \$0-savestart;
#X obj 597 112 ctxfiles/dv \$0 s order0;
#X obj 487 172 s \$0-rea;
#X obj 462 292 t f f;
#X obj 558 65 receive \$0-created0;
#X obj 558 90 t b b f;
#X obj 487 84 t b b;
#X connect 0 0 20 1;
#X connect 1 0 20 0;
#X connect 3 0 38 0;
#X connect 4 0 5 0;
#X connect 5 0 6 0;
#X connect 7 1 38 0;
#X connect 8 0 9 0;
#X connect 9 0 15 0;
#X connect 10 0 12 0;
#X connect 11 0 15 0;
#X connect 12 0 11 0;
#X connect 13 0 14 0;
#X connect 14 0 12 2;
#X connect 15 0 16 0;
#X connect 15 1 17 0;
#X connect 16 0 10 0;
#X connect 17 0 16 1;
#X connect 18 0 7 0;
#X connect 20 0 27 0;
#X connect 20 1 33 0;
#X connect 20 2 27 0;
#X connect 20 3 33 0;
#X connect 22 0 16 0;
#X connect 23 0 6 0;
#X connect 24 0 2 0;
#X connect 25 0 19 0;
#X connect 26 0 3 0;
#X connect 26 0 13 0;
#X connect 27 0 32 0;
#X connect 27 1 17 0;
#X connect 27 2 34 0;
#X connect 29 0 41 0;
#X connect 31 0 32 1;
#X connect 32 0 22 0;
#X connect 33 0 23 0;
#X connect 33 1 25 0;
#X connect 33 2 25 1;
#X connect 34 0 29 0;
#X connect 35 0 34 1;
#X connect 38 0 4 0;
#X connect 38 1 24 0;
#X connect 39 0 40 0;
#X connect 40 0 28 0;
#X connect 40 1 30 0;
#X connect 40 2 36 0;
#X connect 41 0 37 0;
#X connect 41 1 40 0;
#X restore 23 258 pd c-movement;
#N canvas 569 365 634 339 order 0;
#X obj 156 112 receive \$0-xstart;
#X obj 141 136 f;
#X obj 141 226 ctxfiles/dv \$0 s mkord;
#X obj 141 42 ctxfiles/dv \$0 receive order1;
#X obj 174 63 receive \$0-savestart;
#X obj 412 72 receive \$0-mynum;
#X obj 141 158 t f b;
#X obj 168 184 f \$0;
#X obj 168 205 ctxfiles/dv \$0 s mkord0;
#X obj 427 184 receive \$0-mx1;
#X obj 412 209 f;
#X obj 433 94 receive \$0-dvstart;
#X obj 412 117 pack;
#X msg 412 139 symbol \$2-mstart\$1;
#X obj 412 162 iemguts/oreceive;
#X obj 438 209 makefilename %d-mstar;
#X obj 412 231 send;
#X obj 51 63 receive \$0-ncreated;
#X obj 31 89 receive \$0-nstart;
#X obj 48 194 print sss;
#X obj 141 89 spigot 1;
#X connect 0 0 1 1;
#X connect 1 0 6 0;
#X connect 3 0 20 0;
#X connect 4 0 20 1;
#X connect 5 0 12 0;
#X connect 6 0 2 0;
#X connect 6 1 7 0;
#X connect 7 0 8 0;
#X connect 9 0 10 1;
#X connect 10 0 16 0;
#X connect 11 0 12 1;
#X connect 11 0 15 0;
#X connect 12 0 13 0;
#X connect 13 0 14 0;
#X connect 14 0 10 0;
#X connect 15 0 16 1;
#X connect 17 0 1 0;
#X connect 18 0 1 0;
#X connect 20 0 1 0;
#X restore 215 51 pd order;
#X obj 261 164 receive \$0-mynum;
#X obj 23 167 iemguts/canvasposition 1;
#X obj 23 143 receive \$0-created;
#X obj 23 190 ctxfiles/m-interface \$0 2 4 16 3 8 24;
#X obj 261 190 l2s;
#X connect 2 0 6 0;
#X connect 3 0 5 0;
#X connect 4 0 3 0;
#X connect 5 0 0 0;
#X connect 5 1 0 1;
#X connect 5 2 6 0;
#X connect 6 0 5 1;
#X restore 406 71 pd workings;
#X obj 132 24 iemguts/canvasargs;
#N canvas 140 156 450 372 loadbang 0;
#X obj 152 76 ctxfiles/myinit 3;
#X obj 152 51 ctxfiles/dvi \$0 4;
#X obj 152 29 bng 15 250 50 0 empty empty empty 17 7 0 10 -262144 -1
-1;
#X obj 197 188 s \$0-iemargr;
#X obj 167 252 del 1000;
#X obj 167 274 f 1;
#X obj 167 297 s \$0-savestart;
#X obj 212 165 ctxfiles/dv \$0 s cbeep;
#X obj 212 143 makefilename \$0-cbee;
#X obj 152 98 spigot 1;
#X obj 39 206 spigot 1;
#X obj 56 277 s \$0-created;
#X obj 39 299 s \$0-lbang;
#X obj 39 183 receive \$0-cbee;
#X obj -39 156 ctxfiles/dv \$0 receive cntstrt;
#X obj -39 178 spigot 1;
#X obj 73 253 s \$0-created1;
#X obj 182 213 s \$0-lb;
#X obj 152 121 t f b b b f f;
#X obj -39 320 s \$0-ncreated;
#X obj 39 228 t b b b b f;
#X obj 87 328 s \$0-created0;
#X connect 0 0 9 0;
#X connect 1 0 0 0;
#X connect 2 0 1 0;
#X connect 4 0 5 0;
#X connect 5 0 6 0;
#X connect 8 0 7 0;
#X connect 9 0 18 0;
#X connect 10 0 20 0;
#X connect 13 0 10 0;
#X connect 14 0 15 0;
#X connect 15 0 12 0;
#X connect 15 0 19 0;
#X connect 18 0 10 1;
#X connect 18 1 4 0;
#X connect 18 2 17 0;
#X connect 18 3 3 0;
#X connect 18 4 8 0;
#X connect 18 5 9 1;
#X connect 20 0 21 0;
#X connect 20 1 12 0;
#X connect 20 2 11 0;
#X connect 20 3 16 0;
#X connect 20 4 15 1;
#X restore 491 9 pd loadbang;
#X obj 1 4 cnv 1 1 30 empty \$0-block empty 2 3 0 10 -128992 -1 0;
#X obj 253 3 inlet;
#X obj 401 129 ctxfiles/saver \$0 switch-x 2;
#X obj 481 59 receive \$0-savelist;
#X msg 481 81 click;
#X obj 481 103 text define -k \$0-save;
#A set %^ :x1 0 \; %^ :x1 0 \; %^ :a bang \;;
#X obj 132 2 receive \$0-iemargr;
#X obj 132 46 s \$0-canvass;
#N canvas 630 97 575 637 message 0;
#X obj 233 112 route bang;
#X obj 252 160 switch~;
#X obj 54 155 receive~;
#X obj 54 110 receive \$0-dvstart;
#X msg 54 132 set \$1-myline;
#X obj 54 177 *~ 44.1;
#X obj 54 221 -~;
#X obj 54 243 max~;
#X obj 54 265 cyclone/edge~;
#X obj 54 287 list;
#X obj 69 199 receive \$0-xstart;
#X obj 54 511 list trim;
#X obj 324 160 f 1;
#X obj 309 183 cyclone/iter;
#X obj 290 373 ctxfiles/collect;
#X obj 328 327 v \$0-mx1;
#X obj 309 351 v \$0-mynum;
#X obj 54 534 ctxfiles/dv \$0 s msteal1;
#X obj 205 91 list;
#X obj 205 48 receive \$0-rea;
#X obj 318 -26 receive \$0-aa;
#X obj 318 -4 route ';
#X obj 318 18 cyclone/zl rev;
#X obj 318 40 route ';
#X obj 318 62 cyclone/zl rev;
#X obj 309 205 sel @ @@ ~;
#X obj 54 310 demux;
#X obj 81 333 t a b;
#X obj 81 487 cyclone/substitute ~ 0;
#X obj 108 421 ctxfiles/dv \$0 s intget;
#X obj 108 399 pack f \$0;
#X obj 210 444 receive \$0-fetch;
#X obj 347 249 f 1;
#X obj 290 138 t b a b b;
#X obj 233 139 t b f f;
#X obj 349 160 t f;
#X msg 210 466 ~ \$1;
#X obj 347 227 t b b;
#X msg 374 250 ~;
#X obj 108 355 v \$0-mx1;
#X obj 108 377 * 1000;
#X connect 0 0 34 0;
#X connect 0 1 33 0;
#X connect 2 0 5 0;
#X connect 3 0 4 0;
#X connect 4 0 2 0;
#X connect 5 0 6 0;
#X connect 6 0 7 0;
#X connect 7 0 8 0;
#X connect 8 0 9 0;
#X connect 9 0 26 0;
#X connect 10 0 6 1;
#X connect 11 0 17 0;
#X connect 12 0 1 0;
#X connect 13 0 25 0;
#X connect 14 0 9 1;
#X connect 15 0 14 1;
#X connect 16 0 14 1;
#X connect 18 0 0 0;
#X connect 19 0 18 0;
#X connect 20 0 21 0;
#X connect 21 0 22 0;
#X connect 21 1 22 0;
#X connect 22 0 23 0;
#X connect 23 0 24 0;
#X connect 23 1 24 0;
#X connect 24 0 0 0;
#X connect 24 0 18 1;
#X connect 25 0 16 0;
#X connect 25 1 15 0;
#X connect 25 2 37 0;
#X connect 25 3 14 1;
#X connect 26 0 11 0;
#X connect 26 1 27 0;
#X connect 27 0 28 0;
#X connect 27 1 39 0;
#X connect 28 0 11 0;
#X connect 30 0 29 0;
#X connect 31 0 36 0;
#X connect 32 0 26 1;
#X connect 33 0 14 0;
#X connect 33 1 13 0;
#X connect 33 2 12 0;
#X connect 33 3 35 0;
#X connect 34 0 9 1;
#X connect 34 1 1 0;
#X connect 34 2 26 1;
#X connect 35 0 26 1;
#X connect 36 0 28 1;
#X connect 37 0 32 0;
#X connect 37 1 38 0;
#X connect 38 0 14 1;
#X connect 39 0 40 0;
#X connect 40 0 30 0;
#X restore 360 147 pd message;
#N canvas 384 364 793 377 messagein 1;
#X obj 343 87 inlet;
#X obj 407 133 ctxfiles/recompile \$0;
#X obj 241 150 cyclone/zl iter 1;
#X obj 343 109 t b a;
#X obj 548 86 tgl 15 0 empty empty empty 17 7 0 10 -262144 -1 -1 0
500;
#X msg 548 108 vis_size \$1 1;
#X obj 548 130 s \$0-datagrid;
#X obj 383 87 receive \$0-anyin;
#X obj 217 18 receive \$0-dvstart;
#X obj 196 41 pack;
#X obj 196 -7 receive \$0-mynum;
#X msg 196 63 symbol \$2-\$1markr;
#X obj 196 87 iemguts/oreceive \$0nop;
#X obj 241 172 ctxfiles/br2 route 1 \; :x1 tfsn \$0 #f x1 0 \; :y1
tfsn \$0 #f y1 0 \; :a tfspa \$0 #f a bang \; ## s \$0-othr;
#X obj 407 159 ctxfiles/br2 demux 2 \; #f t \; #f s \$0-:x1 \; #f s
\$0-:y1 \; #f s \$0-aa \;;
#X connect 0 0 3 0;
#X connect 1 0 14 0;
#X connect 1 1 14 1;
#X connect 2 0 13 0;
#X connect 3 0 1 0;
#X connect 3 1 2 0;
#X connect 4 0 5 0;
#X connect 5 0 6 0;
#X connect 7 0 3 0;
#X connect 8 0 9 1;
#X connect 9 0 11 0;
#X connect 10 0 9 0;
#X connect 11 0 12 0;
#X connect 12 0 3 0;
#X restore 261 52 pd messagein;
#X text 281 238 A part of the Context library \, licensed under the
GPL. See license.txt. Copyright Liam Goodacre 2017;
#X connect 0 0 1 0;
#X connect 2 0 0 0;
#X connect 4 0 15 0;
#X connect 4 0 13 0;
#X connect 7 0 15 0;
#X connect 9 0 10 0;
#X connect 10 0 11 0;
#X connect 12 0 4 0;
#X coords 0 -1 1 1 19 32 2 0 3;
