#N canvas 182 329 511 321 10;
#N canvas 512 81 671 687 move 0;
#X obj 88 67 spigot;
#X obj 272 709 iemguts/canvasindex 1;
#X obj 95 735 iemguts/canvasobjectposition 2;
#X obj 178 688 t a b;
#X msg 89 417 0 -20;
#N canvas 693 161 497 406 condition 1;
#X obj 176 127 unpack f f;
#X obj 85 22 inlet;
#X obj 195 204 >=;
#X obj 252 204 >=;
#X text 185 63 from mousegrid >>;
#X obj 191 105 unpack f f;
#X obj 176 153 -;
#X obj 233 153 -;
#X obj 233 179 t f f f;
#X obj 176 179 t f f f;
#X obj 215 204 <= 36;
#X obj 272 204 <= 48;
#X obj 252 229 +;
#X obj 195 229 +;
#X obj 195 251 +;
#X obj 195 273 == 4;
#X obj 259 127 unpack f f;
#X obj 176 297 spigot;
#X obj 233 297 spigot;
#X obj 176 350 outlet;
#X obj 85 44 t b a;
#X obj 85 86 list;
#X obj 85 65 ctxfiles/deb 200;
#X obj 176 325 demux;
#X obj 233 325 spigot;
#X obj 233 350 outlet;
#X obj 131 43 sel 0;
#X obj 20 179 ctxfiles/dv \$0 s preview;
#X obj 131 21 ctxfiles/dv \$0 receive key;
#X obj 178 43 ctxfiles/dv \$0 receive mup;
#X obj 259 105 ctxfiles/dv \$0 receive cursorsz;
#X obj 191 81 ctxfiles/dv \$0 receive mycpos;
#X obj 278 298 ctxfiles/dv \$0 receive ymode;
#X obj 85 110 t b a a;
#X obj 85 135 s \$0-anyp;
#X obj 326 127 receive \$0-startsz;
#X connect 0 0 6 0;
#X connect 0 1 7 0;
#X connect 1 0 20 0;
#X connect 2 0 13 0;
#X connect 3 0 12 0;
#X connect 5 0 6 1;
#X connect 5 1 7 1;
#X connect 6 0 9 0;
#X connect 7 0 8 0;
#X connect 8 0 18 0;
#X connect 8 1 3 0;
#X connect 8 2 11 0;
#X connect 9 0 17 0;
#X connect 9 1 2 0;
#X connect 9 2 10 0;
#X connect 10 0 13 1;
#X connect 11 0 12 1;
#X connect 12 0 14 1;
#X connect 13 0 14 0;
#X connect 14 0 15 0;
#X connect 15 0 17 1;
#X connect 15 0 18 1;
#X connect 16 0 10 1;
#X connect 16 1 11 1;
#X connect 17 0 23 0;
#X connect 18 0 24 0;
#X connect 20 0 22 0;
#X connect 20 1 21 1;
#X connect 21 0 33 0;
#X connect 22 0 21 0;
#X connect 23 0 19 0;
#X connect 24 0 25 0;
#X connect 26 0 22 1;
#X connect 28 0 26 0;
#X connect 29 0 22 2;
#X connect 30 0 16 0;
#X connect 31 0 5 0;
#X connect 32 0 23 1;
#X connect 32 0 24 1;
#X connect 33 0 34 0;
#X connect 33 1 0 0;
#X connect 33 2 27 0;
#X connect 35 0 16 0;
#X restore 178 285 pd condition;
#X obj 178 330 pack f 1;
#X msg 247 330 1 \$1;
#X text 105 707 replace: mclick \, ymode \, mup \, click2;
#X obj 88 36 mux;
#X obj 159 189 * 12;
#X obj 216 189 * 12;
#X obj 307 207 unpack f f;
#X obj 159 214 +;
#X obj 216 214 +;
#X obj 128 112 demux 0 1 2;
#X obj 302 8 == 1;
#X obj 352 -41 - 1;
#X obj 302 -41 moses 1;
#X obj 302 -64 mod 4;
#X obj 336 8 == 2;
#X obj 205 360 demux;
#X obj 274 360 demux;
#X msg 232 638 s \$1;
#X obj 178 307 t f f;
#X obj 247 307 t f f;
#X obj 232 660 demux;
#X msg 328 406 1;
#X obj 259 405 t f;
#X obj 232 440 t f b f;
#X obj 247 505 spigot;
#X obj 280 475 t f;
#X obj 232 549 -;
#X obj 302 -15 t f f f f;
#X obj 353 34 sel 2;
#X msg 308 475 1;
#X obj 232 383 t f b b;
#X obj 302 383 t f b b;
#X obj 341 534 *;
#X obj 232 597 +;
#X obj 341 578 ctxfiles/round;
#X obj 232 573 * 0.1;
#X obj 495 350 sel 0;
#X obj 121 35 ctxfiles/dv \$0 r shift;
#X obj 341 432 ctxfiles/dv \$0 v tbyd;
#X obj 225 688 ctxfiles/dv \$0 s mmovex;
#X obj 320 668 ctxfiles/dv \$0 s mmovey;
#X obj 88 89 demux;
#X obj 89 395 receive \$0-posereset;
#X obj 88 -12 ctxfiles/dv \$0 receive motion;
#X obj 95 12 ctxfiles/dv \$0 receive mousegrid;
#X obj 141 57 ctxfiles/dv \$0 receive move-disable;
#X obj 302 -86 ctxfiles/dv \$0 receive click2;
#X obj 308 159 ctxfiles/dv \$0 receive yzoomdiv;
#X obj 307 183 ctxfiles/dv \$0 receive mycpos;
#X obj 180 138 ctxfiles/dv \$0 receive xzoomdiv;
#X obj 392 262 list 0 \$1 \$2;
#X obj 392 284 list split 1;
#X obj 426 306 cyclone/iter;
#X obj 426 328 route symbol;
#X obj 341 556 / 1;
#X obj 341 600 * 1;
#X obj 426 350 s \$0-sarg;
#X obj 392 240 inlet;
#X obj 159 163 unpack;
#X obj 159 241 pack;
#X obj 341 454 * 1000;
#X obj 232 617 * 0.001;
#X connect 0 0 47 0;
#X connect 1 0 2 1;
#X connect 3 0 2 0;
#X connect 3 1 1 0;
#X connect 4 0 3 0;
#X connect 5 0 24 0;
#X connect 5 1 25 0;
#X connect 6 0 3 0;
#X connect 7 0 3 0;
#X connect 9 0 0 0;
#X connect 10 0 13 0;
#X connect 11 0 14 0;
#X connect 12 0 13 1;
#X connect 12 1 14 1;
#X connect 13 0 65 0;
#X connect 14 0 65 1;
#X connect 15 0 5 0;
#X connect 15 1 64 0;
#X connect 15 2 5 0;
#X connect 16 0 9 2;
#X connect 17 0 33 0;
#X connect 18 0 33 0;
#X connect 18 1 17 0;
#X connect 19 0 18 0;
#X connect 20 0 21 1;
#X connect 20 0 22 1;
#X connect 21 0 45 0;
#X connect 21 1 36 0;
#X connect 22 0 46 0;
#X connect 22 1 37 0;
#X connect 23 0 26 0;
#X connect 24 0 6 0;
#X connect 24 1 21 0;
#X connect 25 0 7 0;
#X connect 25 1 22 0;
#X connect 26 0 45 0;
#X connect 26 1 46 0;
#X connect 27 0 26 1;
#X connect 28 0 26 1;
#X connect 29 0 32 0;
#X connect 29 1 31 0;
#X connect 29 2 30 0;
#X connect 30 0 32 1;
#X connect 30 0 38 1;
#X connect 31 0 30 1;
#X connect 32 0 41 0;
#X connect 33 0 16 0;
#X connect 33 1 15 1;
#X connect 33 2 20 0;
#X connect 33 3 34 0;
#X connect 34 0 35 0;
#X connect 35 0 30 1;
#X connect 36 0 29 0;
#X connect 36 1 28 0;
#X connect 36 2 44 0;
#X connect 37 0 29 0;
#X connect 37 1 27 0;
#X connect 37 2 44 0;
#X connect 38 0 60 0;
#X connect 39 0 67 0;
#X connect 40 0 61 0;
#X connect 41 0 39 0;
#X connect 42 1 41 1;
#X connect 42 1 60 1;
#X connect 42 1 61 1;
#X connect 43 0 0 1;
#X connect 44 0 66 0;
#X connect 47 0 15 0;
#X connect 48 0 4 0;
#X connect 49 0 9 0;
#X connect 50 0 9 1;
#X connect 51 0 47 1;
#X connect 52 0 19 0;
#X connect 53 0 11 1;
#X connect 54 0 12 0;
#X connect 55 0 10 1;
#X connect 56 0 57 0;
#X connect 57 1 58 0;
#X connect 58 0 59 0;
#X connect 59 0 62 0;
#X connect 59 1 42 0;
#X connect 60 0 40 0;
#X connect 61 0 39 1;
#X connect 63 0 56 0;
#X connect 64 0 10 0;
#X connect 64 1 11 0;
#X connect 65 0 5 0;
#X connect 66 0 38 0;
#X connect 67 0 23 0;
#X restore 313 95 pd move;
#N canvas 516 281 672 460 size 0;
#X obj 264 162 demux;
#X obj 182 355 iemguts/sendcanvas 1;
#X obj 150 232 * 2;
#X msg 182 276 menu-open;
#X msg 119 303 vis 0;
#X msg 166 254 1;
#X obj 119 206 t b f f b b;
#X obj 134 280 sel 0;
#X obj 91 355 s \$0-posereset;
#X obj 218 308 list prepend;
#X obj 205 100 unpack f f;
#X obj 205 122 - 1;
#X obj 262 122 - 1;
#X obj 205 144 pack f f;
#X obj 310 78 t b f;
#X obj 205 78 list 46 34;
#X obj 205 55 t b a;
#X obj -15 145 sel 1;
#X obj -15 167 t f;
#X msg 218 335 coords 1 -1 1 1 \$1 \$2 \$3 0 3;
#X msg 334 209 \$1 1;
#X msg 291 209 1 \$2;
#X obj 205 13 ctxfiles/dv \$0 receive cursorsz;
#X obj -15 123 ctxfiles/dv \$0 receive move-disable;
#X obj 310 56 ctxfiles/dv \$0 receive ymode;
#X obj 83 175 ctxfiles/dv \$0 receive shift;
#X obj 396 89 ctxfiles/dv \$0 receive mocol;
#X obj 307 184 demux;
#X obj 264 184 demux;
#X msg 264 231 2 \$2;
#X msg 306 231 \$1 2;
#X obj 396 111 change;
#X obj 396 134 t b b f f;
#X msg 411 211 1;
#X obj 478 158 t b b;
#X obj 478 202 ctxfiles/dv \$0 value xszz;
#X obj 478 136 inlet;
#X obj 505 180 ctxfiles/dv \$0 value yszz;
#X obj 478 224 pack;
#X obj 478 247 s \$0-startsz;
#X connect 0 0 28 0;
#X connect 0 1 27 0;
#X connect 2 0 9 0;
#X connect 3 0 1 0;
#X connect 4 0 1 0;
#X connect 5 0 9 0;
#X connect 6 0 4 0;
#X connect 6 1 7 0;
#X connect 6 2 2 0;
#X connect 6 3 5 0;
#X connect 6 4 3 0;
#X connect 7 0 8 0;
#X connect 9 0 19 0;
#X connect 10 0 11 0;
#X connect 10 1 12 0;
#X connect 11 0 13 0;
#X connect 12 0 13 1;
#X connect 13 0 0 0;
#X connect 14 0 15 0;
#X connect 14 1 0 1;
#X connect 15 0 10 0;
#X connect 16 0 15 0;
#X connect 16 1 15 1;
#X connect 17 0 18 0;
#X connect 18 0 6 0;
#X connect 19 0 1 0;
#X connect 20 0 9 1;
#X connect 21 0 9 1;
#X connect 22 0 16 0;
#X connect 23 0 17 0;
#X connect 24 0 14 0;
#X connect 25 0 6 0;
#X connect 26 0 31 0;
#X connect 27 0 30 0;
#X connect 27 1 20 0;
#X connect 28 0 29 0;
#X connect 28 1 21 0;
#X connect 29 0 9 1;
#X connect 30 0 9 1;
#X connect 31 0 32 0;
#X connect 32 0 33 0;
#X connect 32 1 13 0;
#X connect 32 2 28 1;
#X connect 32 3 27 1;
#X connect 33 0 6 0;
#X connect 34 0 35 0;
#X connect 34 1 37 0;
#X connect 35 0 38 0;
#X connect 36 0 34 0;
#X connect 37 0 38 1;
#X connect 38 0 16 0;
#X connect 38 0 39 0;
#X restore 294 141 pd size;
#X obj 83 93 r mover;
#X msg 83 115 vis 1;
#X obj 83 137 iemguts/sendcanvas;
#X obj 294 29 ctxfiles/dvi \$0 3;
#X obj 333 73 ctxfiles/dv \$0 s backsplash;
#N canvas 669 348 450 351 save 1;
#X obj 139 124 ctxfiles/dv \$0 v xyprot;
#X obj 112 56 receive \$0-anyp;
#X obj 112 171 del 1000;
#X obj 112 101 t b b;
#X obj 139 146 sel 0;
#X obj 112 199 f;
#X obj 112 221 t f b;
#X obj 153 221 t f;
#X msg 218 71 1;
#X obj 112 78 spigot;
#X obj 218 48 sel save;
#X text 274 49 switch on given condition;
#X text 41 39 receive any movement;
#X text 180 153 receive any modification;
#X text 184 234 finish and reset;
#X obj 112 243 sel 1;
#X msg 112 265 menusave;
#X obj 112 287 iemguts/sendcanvas 2;
#X obj 218 25 receive \$0-sarg;
#X connect 0 0 4 0;
#X connect 1 0 9 0;
#X connect 2 0 5 0;
#X connect 3 0 2 0;
#X connect 3 1 0 0;
#X connect 4 1 5 1;
#X connect 5 0 6 0;
#X connect 6 0 15 0;
#X connect 6 1 7 0;
#X connect 7 0 5 1;
#X connect 8 0 9 1;
#X connect 9 0 3 0;
#X connect 10 0 8 0;
#X connect 15 0 16 0;
#X connect 16 0 17 0;
#X connect 18 0 10 0;
#X restore 313 118 pd save;
#X obj 294 51 t b b b;
#X text 223 191 A part of the Context library \, licensed under the
GPL. See license.txt. Copyright Liam Goodacre 2017;
#X connect 2 0 3 0;
#X connect 3 0 4 0;
#X connect 5 0 8 0;
#X connect 8 0 1 0;
#X connect 8 1 0 0;
#X connect 8 2 6 0;
#X coords 0 321 1 320 311 2 0;
