#N canvas 622 86 411 300 10;
#X obj 170 48 loadbang;
#X obj 170 92 makefilename %s-patchget;
#X obj 170 114 iemguts/oreceive \$0n;
#X obj 170 136 t b f;
#X obj 170 210 send;
#X obj 202 158 makefilename %d-patchgot;
#X obj 20 114 iemguts/oreceive \$0n;
#X msg 20 136 vis 1;
#X obj 20 158 iemguts/sendcanvas 1;
#X obj 170 70 symbol \$1;
#X obj 170 188 iemguts/canvasdollarzero 1;
#X connect 0 0 9 0;
#X connect 1 0 2 0;
#X connect 2 0 3 0;
#X connect 3 0 10 0;
#X connect 3 1 5 0;
#X connect 5 0 4 1;
#X connect 6 0 7 0;
#X connect 7 0 8 0;
#X connect 9 0 1 0;
#X connect 9 0 6 0;
#X connect 10 0 4 0;
