#N canvas 566 107 411 370 10;
#X declare -lib zexy -path zexy -path ./;
#X obj 143 25 loadbang;
#X obj 221 115 makefilename %s-patchget;
#X obj 221 137 iemguts/oreceive \$0n;
#X obj 221 159 t b f;
#X obj 221 233 send;
#X obj 248 181 makefilename %d-patchgot;
#X obj 58 127 iemguts/oreceive \$0n;
#X msg 58 149 vis 1;
#X obj 58 171 iemguts/sendcanvas 1;
#X obj 170 70 symbol \$1;
#X obj 221 211 iemguts/canvasdollarzero 1;
#X obj 143 47 t b b;
#X obj 54 72 s patchgot&Y*U;
#X obj 204 284 makefilename patch-%s-T6Ty;
#X obj 170 92 t s s s s;
#X obj 187 306 send;
#X obj -30 220 ctxfiles/license;
#X obj -30 283 declare -lib zexy -path zexy -path ./;
#X connect 0 0 11 0;
#X connect 1 0 2 0;
#X connect 2 0 3 0;
#X connect 3 0 10 0;
#X connect 3 1 5 0;
#X connect 5 0 4 1;
#X connect 6 0 7 0;
#X connect 7 0 8 0;
#X connect 9 0 14 0;
#X connect 10 0 4 0;
#X connect 11 0 12 0;
#X connect 11 1 9 0;
#X connect 13 0 15 1;
#X connect 14 0 6 0;
#X connect 14 1 15 0;
#X connect 14 2 13 0;
#X connect 14 3 1 0;
