#N canvas 610 98 682 670 10;
#X declare -lib zexy -path zexy -path ./;
#X obj 100 100 bng 15 250 50 0 \$0-bangs \$0-bangr 1 5 7 0 10 -262144
-1 -1;
#X obj 79 304 iemguts/canvasdollarzero 1;
#X obj 79 326 pack s \$0;
#X obj 79 385 receive \$0-gotslides;
#X msg 79 348 \; \$1-getslides symbol \$2-gotslides;
#X obj 111 430 f;
#X obj 139 430 + 2;
#X obj 79 407 t l b;
#X obj 119 258 makefilename %d-gridfader;
#X obj 139 453 array size \$0n;
#X obj 79 477 array set \$0n;
#X obj 99 280 t f f;
#X obj 149 109 makefilename %d;
#X obj 149 -88 loadbang;
#X msg 149 131 label \$1;
#X obj 79 163 makefilename %s-gridon^^;
#X obj 79 185 iemguts/oreceive \$0n;
#X obj 256 185 iemguts/oreceive \$0n;
#X obj 256 163 makefilename %s-gridoff^^;
#X msg 256 207 color 0;
#X obj 256 229 s \$0-bangr;
#X obj 79 207 t b b f b;
#X msg 151 207 color 20;
#X obj 315 13 receive \$0-bangs;
#X obj 334 89 f;
#X obj 334 134 s pgsendbang&&;
#X obj 498 177 v masteronto&&;
#X obj 334 111 pack f \$0;
#X obj 504 110 receive \$0-pgdone;
#X obj 471 133 spigot;
#X obj 315 35 t b b b;
#X obj 354 57 f 1;
#X text 407 68 send an "on" message to the last used gridcontrol \,
and send then try again with the mode4 message \, unless I recive a
"d0" message from some gridcontrol.;
#X obj 471 155 t b b;
#X msg 498 199 \; \$1-masteron&&2 1;
#X obj 392 361 ctxfiles/share ctxfiles/pgshare;
#X obj 149 10 ctxfiles/idcontrol;
#X obj 149 -66 t b b;
#X obj 176 -43 symbol pgr%;
#X obj 201 -15 iemguts/closebang;
#X obj 149 32 t f f f;
#X obj 168 55 moses 10;
#X msg 125 79 label_pos 3 8 \, label_font 0 9;
#X obj 331 460 ctxfiles/license;
#X obj 331 523 declare -lib zexy -path zexy -path ./;
#X connect 1 0 2 0;
#X connect 2 0 4 0;
#X connect 3 0 7 0;
#X connect 5 0 6 0;
#X connect 5 0 10 1;
#X connect 6 0 5 1;
#X connect 6 0 9 0;
#X connect 7 0 10 0;
#X connect 7 1 5 0;
#X connect 8 0 9 1;
#X connect 8 0 10 2;
#X connect 11 0 10 1;
#X connect 11 1 5 1;
#X connect 12 0 14 0;
#X connect 12 0 15 0;
#X connect 12 0 18 0;
#X connect 13 0 37 0;
#X connect 14 0 0 0;
#X connect 15 0 16 0;
#X connect 16 0 21 0;
#X connect 17 0 19 0;
#X connect 18 0 17 0;
#X connect 19 0 20 0;
#X connect 21 0 1 0;
#X connect 21 1 11 0;
#X connect 21 2 8 0;
#X connect 21 3 22 0;
#X connect 22 0 20 0;
#X connect 23 0 30 0;
#X connect 24 0 27 0;
#X connect 26 0 34 0;
#X connect 27 0 25 0;
#X connect 28 0 29 1;
#X connect 29 0 33 0;
#X connect 30 0 29 0;
#X connect 30 1 24 0;
#X connect 30 2 31 0;
#X connect 31 0 29 1;
#X connect 33 0 24 0;
#X connect 33 1 26 0;
#X connect 36 0 40 0;
#X connect 37 0 36 0;
#X connect 37 1 38 0;
#X connect 38 0 36 2;
#X connect 39 0 36 1;
#X connect 40 0 12 0;
#X connect 40 1 41 0;
#X connect 40 2 24 1;
#X connect 41 1 42 0;
#X connect 42 0 0 0;
#X coords 0 -1 1 1 15 15 2 100 100;
