#N canvas 567 106 682 670 10;
#X obj 100 100 bng 15 250 50 0 \$0-bang RFVgBH6& g 5 7 0 10 -262144
-1 -1;
#X obj 328 310 iemguts/canvasdollarzero 1;
#X obj 328 332 pack s \$0;
#X obj 328 391 receive \$0-gotslides;
#X msg 328 354 \; \$1-getslides symbol \$2-gotslides;
#X obj 360 436 f;
#X obj 319 73 receive \$0-bang;
#X obj 367 195 receive FGHjK*8;
#X obj 339 195 f 1;
#X obj 328 220 spigot;
#X obj 229 144 receive ))gridfader((;
#X obj 388 436 + 2;
#X msg 359 169 color 13;
#X obj 328 413 t l b;
#X obj 328 242 t b b f;
#X obj 374 264 makefilename %d-gridfader;
#X obj 388 459 array size \$0n;
#X obj 328 483 array set \$0n;
#X obj 351 286 t f f;
#X msg 379 118 \; RFVgBH6& color 0 \; FGHjK*8 0;
#X obj 319 95 t b b b b;
#X obj 314 118 s Rx*iOl;
#X connect 1 0 2 0;
#X connect 2 0 4 0;
#X connect 3 0 13 0;
#X connect 5 0 11 0;
#X connect 5 0 17 1;
#X connect 6 0 20 0;
#X connect 7 0 9 1;
#X connect 8 0 9 1;
#X connect 9 0 14 0;
#X connect 10 0 9 0;
#X connect 11 0 5 1;
#X connect 11 0 16 0;
#X connect 12 0 0 0;
#X connect 13 0 17 0;
#X connect 13 1 5 0;
#X connect 14 0 1 0;
#X connect 14 1 18 0;
#X connect 14 2 15 0;
#X connect 15 0 16 1;
#X connect 15 0 17 2;
#X connect 18 0 17 1;
#X connect 18 1 5 1;
#X connect 20 0 21 0;
#X connect 20 1 8 0;
#X connect 20 2 12 0;
#X connect 20 3 19 0;
#X coords 0 -1 1 1 15 15 2 100 100;
