#N canvas 246 290 450 300 10;
#X declare -lib zexy -path zexy -path ./;
#X obj 140 179 iemguts/canvasargs;
#X obj 119 202 list;
#X obj 167 90 iemguts/canvasdollarzero 1;
#X obj 140 46 iemguts/initbang;
#X obj 140 68 t b b;
#X obj 167 134 iemguts/oreceive \$0n;
#X obj 167 112 makefilename %s-gettemp;
#X obj 167 156 t b f;
#X obj 119 224 send;
#X obj 194 201 makefilename %i-gottemp;
#X obj 261 3 ctxfiles/license;
#X obj 261 66 declare -lib zexy -path zexy -path ./;
#X connect 0 0 1 1;
#X connect 1 0 8 0;
#X connect 2 0 6 0;
#X connect 3 0 4 0;
#X connect 4 0 0 0;
#X connect 4 1 2 0;
#X connect 5 0 7 0;
#X connect 6 0 5 0;
#X connect 7 0 1 0;
#X connect 7 1 9 0;
#X connect 9 0 8 1;
