#N canvas 167 136 511 632 10;
#X declare -lib zexy -path zexy -path ./;
#N canvas 595 89 683 679 guts 0;
#X obj 95 168 route symbol;
#X obj 95 146 cyclone/iter;
#X obj 95 124 iemguts/canvasargs 1;
#X obj 95 190 t s s;
#X obj 122 215 s2l;
#X msg 137 190 symbol;
#X obj 122 237 list length;
#X obj 95 292 demux;
#X obj 122 261 <= 2;
#X obj 122 358 unpack s f;
#X obj 199 213 max;
#X obj 291 202 f \$0;
#X obj -93 102 inlet;
#X obj 76 385 ctxfiles/collect;
#X obj 133 429 list;
#X obj 199 237 s \$0-octave;
#X obj 122 313 text search ##scales%%;
#X obj 122 336 text get ##scales%%;
#X obj 133 452 text search ##scales%%;
#X obj 133 474 text get ##scales%%;
#X obj 61 87 t b b b b b b f b b;
#X obj 293 261 s 33scstart%^;
#X obj 289 322 iemguts/sendcanvas 1;
#X msg 209 635 resize \$1;
#X obj 224 709 array set \$0-myscale;
#X obj 209 661 array define \$0-myscale 1;
#X obj 190 684 list split 1;
#X obj 201 385 s \$0-keyy;
#X obj -15 173 t b a;
#X obj 76 407 route bang;
#X obj 217 540 cyclone/iter;
#X obj 217 562 route float;
#X obj 133 496 route bang;
#X obj 190 587 ctxfiles/collect;
#X obj 190 518 t b a;
#X obj 190 611 t l f f;
#X obj 276 635 s \$0-size;
#X obj -66 149 route + -;
#X obj 355 431 +;
#X obj 355 453 mod 12;
#X obj 334 360 * -5;
#X obj 367 360 * 5;
#X obj -114 57 receive -scaler;
#X obj 291 226 ctxfiles/dvs \$0 scalebang;
#X obj 21 499 symbol chromatic;
#X obj -114 79 spigot 1;
#X obj -69 11 receive \$0-scalebong;
#X obj 61 52 spigot;
#X obj 88 -4 route bang;
#X obj 94 26 f 1;
#X obj 88 -26 iemguts/canvasdollarzero 2;
#X obj 145 20 t b s;
#X text 185 12 <-- custom myinit to retrieve \$0 symbol;
#X obj -114 -40 makefilename %s-scaler;
#X obj -114 -18 iemguts/oreceive \$0n;
#X obj 61 -50 t a b;
#X msg 289 300 obj 300 200 ctxfiles/share ctxfiles/hsc 1 \, loadbang
;
#X obj 172 45 outlet;
#X msg -69 33 0;
#X obj -93 126 t b a;
#X obj -93 224 s scalechange(((;
#X obj 35 403 t f;
#X obj 21 474 spigot 1;
#X obj 61 -72 ctxfiles/dvi \$0 4 loadbang;
#X connect 0 0 3 0;
#X connect 0 1 10 0;
#X connect 1 0 0 0;
#X connect 2 0 1 0;
#X connect 3 0 7 0;
#X connect 3 1 4 0;
#X connect 4 0 6 0;
#X connect 5 0 4 1;
#X connect 6 0 8 0;
#X connect 7 0 13 1;
#X connect 7 1 16 0;
#X connect 8 0 7 1;
#X connect 9 1 27 0;
#X connect 9 1 38 1;
#X connect 10 0 15 0;
#X connect 11 0 43 0;
#X connect 12 0 59 0;
#X connect 13 0 29 0;
#X connect 14 0 18 0;
#X connect 16 0 17 0;
#X connect 17 0 9 0;
#X connect 18 0 19 0;
#X connect 19 0 32 0;
#X connect 20 0 61 0;
#X connect 20 1 13 0;
#X connect 20 3 2 0;
#X connect 20 4 21 0;
#X connect 20 5 56 0;
#X connect 20 6 49 0;
#X connect 20 7 5 0;
#X connect 20 8 11 0;
#X connect 23 0 25 0;
#X connect 26 1 24 0;
#X connect 28 0 13 0;
#X connect 28 1 1 0;
#X connect 29 0 62 0;
#X connect 29 1 14 0;
#X connect 30 0 31 0;
#X connect 31 0 33 1;
#X connect 32 1 34 0;
#X connect 33 0 35 0;
#X connect 34 0 33 0;
#X connect 34 1 30 0;
#X connect 35 0 26 0;
#X connect 35 1 23 0;
#X connect 35 2 36 0;
#X connect 37 0 40 0;
#X connect 37 1 41 0;
#X connect 37 2 28 0;
#X connect 38 0 39 0;
#X connect 39 0 27 0;
#X connect 39 0 38 1;
#X connect 40 0 38 0;
#X connect 41 0 38 0;
#X connect 42 0 45 0;
#X connect 44 0 18 0;
#X connect 45 0 59 0;
#X connect 46 0 58 0;
#X connect 47 0 20 0;
#X connect 48 1 51 0;
#X connect 49 0 47 1;
#X connect 50 0 48 0;
#X connect 51 0 49 0;
#X connect 51 1 53 0;
#X connect 51 1 57 0;
#X connect 53 0 54 0;
#X connect 54 0 45 0;
#X connect 55 0 47 0;
#X connect 55 1 50 0;
#X connect 56 0 22 0;
#X connect 58 0 45 1;
#X connect 59 0 60 0;
#X connect 59 1 37 0;
#X connect 61 0 62 1;
#X connect 62 0 44 0;
#X connect 63 0 55 0;
#X restore 289 28 pd guts;
#X obj 56 118 - 1;
#X obj 56 315 mod 7;
#X obj 95 316 div 7;
#X obj 95 360 * 12;
#X obj 95 339 +;
#X obj 56 452 +;
#X obj 56 474 +;
#X obj 179 30 inlet;
#X obj 119 587 outlet;
#X obj 56 519 mtof;
#X obj 56 140 t f f f f;
#X obj 117 140 int;
#X obj 102 166 -;
#X obj 56 496 +;
#X obj 56 96 mux;
#X obj 63 53 receive \$0-scales;
#X obj 87 564 send \$0-scaler;
#X obj 322 149 iemguts/closebang;
#X obj 322 171 f \$0;
#X obj 122 273 receive \$0-size;
#X obj 63 75 t f;
#X obj 56 9 receive allscales##;
#X obj 56 31 unpack f f;
#X obj 56 585 send;
#X obj 113 457 makefilename %d-scaler;
#X obj 119 519 f;
#X obj 56 541 demux 0 1 2;
#X obj 179 52 t b f b;
#X obj 218 75 f 2;
#X obj 289 7 inlet;
#X obj 188 130 receive \$0-octave;
#X obj 56 427 tabread \$0-myscale;
#X obj 212 386 receive \$0-keyy;
#X obj 269 524 ctxfiles/license;
#X obj 322 193 ctxfiles/dvs \$0 scaleback;
#X obj 289 50 makefilename %s-allscales;
#X obj 289 72 iemguts/oreceive \$0n;
#X obj 232 261 receive \$0-scalebong;
#X obj 292 485 declare -lib zexy -path zexy -path ./;
#X connect 0 0 36 0;
#X connect 1 0 11 0;
#X connect 2 0 32 0;
#X connect 3 0 5 0;
#X connect 4 0 6 1;
#X connect 5 0 4 0;
#X connect 6 0 7 0;
#X connect 7 0 14 0;
#X connect 8 0 28 0;
#X connect 10 0 27 0;
#X connect 11 0 2 0;
#X connect 11 1 3 0;
#X connect 11 2 13 0;
#X connect 11 3 12 0;
#X connect 12 0 13 1;
#X connect 13 0 14 1;
#X connect 14 0 10 0;
#X connect 15 0 1 0;
#X connect 16 0 21 0;
#X connect 18 0 19 0;
#X connect 19 0 35 0;
#X connect 20 0 3 1;
#X connect 20 0 2 1;
#X connect 21 0 15 1;
#X connect 22 0 23 0;
#X connect 23 0 15 0;
#X connect 23 1 25 0;
#X connect 25 0 24 1;
#X connect 26 0 27 1;
#X connect 27 0 24 0;
#X connect 27 1 17 0;
#X connect 27 2 9 0;
#X connect 28 0 26 0;
#X connect 28 1 1 0;
#X connect 28 2 29 0;
#X connect 29 0 27 1;
#X connect 30 0 0 0;
#X connect 31 0 5 1;
#X connect 32 0 6 0;
#X connect 33 0 7 1;
#X connect 36 0 37 0;
#X connect 37 0 23 0;
#X connect 38 0 15 2;
#X connect 38 0 26 0;
