#N canvas 153 135 511 632 10;
#N canvas 684 81 683 687 guts 1;
#X obj 95 168 route symbol;
#X obj 61 57 spigot 1;
#X obj 95 146 cyclone/iter;
#X obj 95 124 iemguts/canvasargs 1;
#X obj 95 190 t s s;
#X obj 122 215 s2l;
#X msg 137 190 symbol;
#X obj 122 237 list length;
#X obj 95 292 demux;
#X obj 122 261 <= 2;
#X obj 122 358 unpack s f;
#X obj 199 213 max;
#X obj 291 226 ctxfiles/dv \$0 s scalebang;
#X obj 291 202 f \$0;
#X obj 61 34 ctxfiles/myinit 3;
#X obj 61 11 ctxfiles/dvi \$0 4;
#X obj -33 90 inlet;
#X obj 76 385 ctxfiles/collect;
#X obj 133 429 list;
#X obj 199 237 s \$0-octave;
#X obj 122 313 text search ##scales%%;
#X obj 122 336 text get ##scales%%;
#X obj 133 452 text search ##scales%%;
#X obj 133 474 text get ##scales%%;
#X obj 61 87 t b b b b b b f b b;
#X obj 293 261 s 33scstart%^;
#X obj 289 322 iemguts/sendcanvas 1;
#X msg 209 635 resize \$1;
#X obj 224 709 array set \$0-myscale;
#X obj 209 661 array define \$0-myscale 1;
#X obj 190 684 list split 1;
#X obj 201 385 s \$0-keyy;
#X obj 27 140 t b a;
#X obj 76 407 route bang;
#X obj 217 540 cyclone/iter;
#X obj 217 562 route float;
#X obj 133 496 route bang;
#X obj 190 587 ctxfiles/collect;
#X obj 190 518 t b a;
#X obj 190 611 t l f f;
#X obj 276 635 s \$0-size;
#X msg 289 300 obj 300 200 ctxfiles/share ctxfiles/#sc 1 \, loadbang
;
#X obj -33 112 route + -;
#X obj 355 431 +;
#X obj 355 453 mod 12;
#X obj 334 360 * -5;
#X obj 367 360 * 5;
#X obj -54 50 receive -scaler;
#X connect 0 0 4 0;
#X connect 0 1 11 0;
#X connect 1 0 24 0;
#X connect 2 0 0 0;
#X connect 3 0 2 0;
#X connect 4 0 8 0;
#X connect 4 1 5 0;
#X connect 5 0 7 0;
#X connect 6 0 5 1;
#X connect 7 0 9 0;
#X connect 8 0 17 1;
#X connect 8 1 20 0;
#X connect 9 0 8 1;
#X connect 10 1 31 0;
#X connect 10 1 43 1;
#X connect 11 0 19 0;
#X connect 13 0 12 0;
#X connect 14 0 1 0;
#X connect 15 0 14 0;
#X connect 16 0 42 0;
#X connect 17 0 33 0;
#X connect 18 0 22 0;
#X connect 20 0 21 0;
#X connect 21 0 10 0;
#X connect 22 0 23 0;
#X connect 23 0 36 0;
#X connect 24 1 17 0;
#X connect 24 3 3 0;
#X connect 24 4 25 0;
#X connect 24 5 41 0;
#X connect 24 6 1 1;
#X connect 24 7 6 0;
#X connect 24 8 13 0;
#X connect 27 0 29 0;
#X connect 30 1 28 0;
#X connect 32 0 17 0;
#X connect 32 1 2 0;
#X connect 33 1 18 0;
#X connect 34 0 35 0;
#X connect 35 0 37 1;
#X connect 36 1 38 0;
#X connect 37 0 39 0;
#X connect 38 0 37 0;
#X connect 38 1 34 0;
#X connect 39 0 30 0;
#X connect 39 1 27 0;
#X connect 39 2 40 0;
#X connect 41 0 26 0;
#X connect 42 0 45 0;
#X connect 42 1 46 0;
#X connect 42 2 32 0;
#X connect 43 0 44 0;
#X connect 44 0 31 0;
#X connect 44 0 43 1;
#X connect 45 0 43 0;
#X connect 46 0 43 0;
#X connect 47 0 42 0;
#X restore 290 182 pd guts;
#X obj 56 118 - 1;
#X obj 56 315 mod 7;
#X obj 95 316 div 7;
#X obj 95 360 * 12;
#X obj 95 339 +;
#X obj 56 452 +;
#X obj 56 474 +;
#X obj 179 30 inlet;
#X obj 119 587 outlet;
#X obj 56 519 mtof;
#X obj 56 140 t f f f f;
#X obj 117 140 int;
#X obj 102 166 -;
#X obj 56 496 +;
#X obj 251 255 receive \$0-scalebong;
#X obj 56 96 mux;
#X msg 251 277 1;
#X obj 63 53 receive \$0-scales;
#X obj 87 564 send \$0-scaler;
#X obj 313 68 iemguts/closebang;
#X obj 313 90 f \$0;
#X obj 313 112 ctxfiles/dv \$0 s scaleback;
#X obj 122 273 receive \$0-size;
#X obj 63 75 t f;
#X obj 56 9 receive allscales##;
#X obj 56 31 unpack f f;
#X obj 56 585 send;
#X obj 113 457 makefilename %d-scaler;
#X obj 119 519 f;
#X obj 56 541 demux 0 1 2;
#X obj 179 52 t b f b;
#X obj 218 75 f 2;
#X obj 290 158 inlet;
#X obj 188 130 receive \$0-octave;
#X obj 56 427 tabread \$0-myscale;
#X obj 212 386 receive \$0-keyy;
#X obj 269 524 ctxfiles/license;
#X obj 233 418 print key;
#X connect 1 0 11 0;
#X connect 2 0 35 0;
#X connect 3 0 5 0;
#X connect 4 0 6 1;
#X connect 5 0 4 0;
#X connect 6 0 7 0;
#X connect 7 0 14 0;
#X connect 8 0 31 0;
#X connect 10 0 30 0;
#X connect 11 0 2 0;
#X connect 11 1 3 0;
#X connect 11 2 13 0;
#X connect 11 3 12 0;
#X connect 12 0 13 1;
#X connect 13 0 14 1;
#X connect 14 0 10 0;
#X connect 15 0 17 0;
#X connect 16 0 1 0;
#X connect 17 0 16 2;
#X connect 17 0 29 0;
#X connect 18 0 24 0;
#X connect 20 0 21 0;
#X connect 21 0 22 0;
#X connect 23 0 3 1;
#X connect 23 0 2 1;
#X connect 24 0 16 1;
#X connect 25 0 26 0;
#X connect 26 0 16 0;
#X connect 26 1 28 0;
#X connect 28 0 27 1;
#X connect 29 0 30 1;
#X connect 30 0 27 0;
#X connect 30 1 19 0;
#X connect 30 2 9 0;
#X connect 31 0 29 0;
#X connect 31 1 1 0;
#X connect 31 2 32 0;
#X connect 32 0 30 1;
#X connect 33 0 0 0;
#X connect 34 0 5 1;
#X connect 35 0 6 0;
#X connect 36 0 7 1;
#X connect 36 0 38 0;
