#N canvas 352 267 605 427 10;
#X declare -lib zexy -stdlib zexy;
#X obj 1 1 cnv 15 126 77 empty \$0-canvas empty 20 12 0 14 -232534
-66577 0;
#N canvas 65 327 292 163 \$0-paint 0;
#X coords 0 0 128 79 128 79 2 0 0;
#X restore 0 0 pd \$0-paint;
#N canvas 65 93 919 560 (subpatch) 0;
#X array \$0-array 128 float 0;
#X obj 202 54 receive \$0-arraysize;
#X obj 202 76 iemguts/sendcanvas;
#X connect 1 0 2 0;
#X coords 0 1 1 0.987342 1 1 2 0 0;
#X restore 0 1 graph;
#X obj -60 -200 inlet;
#X obj -60 -166 outlet;
#X obj -241 -234 iemguts/initbang;
#N canvas 340 177 817 527 commands 0;
#X obj 141 72 inlet;
#X obj 141 96 t b a;
#X obj -49 175 cyclone/zl iter 1;
#X obj 68 48 iemguts/oreceive \$0-array-;
#X obj 68 24 makefilename %s-;
#X obj 68 2 receive \$0-aname;
#X obj 387 2 receive \$0-rey;
#X obj 387 24 t b b;
#X obj 387 90 spigot;
#X obj 431 90 spigot;
#X obj 431 112 s \$0-rey1;
#X obj 387 132 s \$0-rey2;
#X obj 420 45 receive \$0-nsize2;
#X obj 464 66 receive \$0-nsize1;
#X obj 628 48 receive \$0-newpoint1;
#X obj 670 90 receive \$0-duplicate;
#X obj 655 112 f;
#X obj 655 134 s \$0-duplicate;
#X obj 645 182 f;
#X obj 625 252 f;
#X obj 625 276 sel 0;
#X msg 625 298 1;
#X msg 652 298 -1;
#X obj 620 358 receive \$0-size;
#X obj 620 380 * 2;
#X obj 620 402 s \$0-size*2;
#X obj 660 160 receive \$0-mirror-y;
#X obj 645 204 s \$0-mirror-y;
#X obj 636 228 receive \$0-mirror-x;
#X obj 625 320 s \$0-mirror-xx;
#X obj -49 198 ctxfiles/br2 route 1 \; x tfs \$0 #f x 128 \; y tfs
\$0 #f y 79 \; size tfs \$0 #f size 128 \; y1 tfs \$0 #f y1 \; y2 tfs
\$0 #f y2 \; point1 tfs \$0 #f point1 bang \, points #l \, point #l
\, end #l \; point2 tfs \$0 #f point2 bang \, bpoints #l \, bpoint
#l \, curve #l \; name tfs \$0 #f name bang \; color tfs \$0 #f color
-232534 \, colour #l \; speed tfs \$0 #f speed 10 \; time tfs \$0 #f
time 1000 \; duplicate tfs \$0 #f duplicate 0 \; mirror-x tfs \$0 #f
mirror-x 0 \; mirror-y tfs \$0 #f mirror-y 0 \; scale tfs \$0 #f scale
1 \; ec tfs \$0 #f ec 0 \; savelist tf \$0 #f \; help tf \$0 #f \;
## s \$0-othr, f 63;
#X obj 396 185 ctxfiles/br2 demux 2 \; #f t \; #f s \$0-x \; #f s \$0-y
\; #f s \$0-size \; #f s \$0-y1 \; #f s \$0-y2 \; #f s \$0-point1 \;
#f s \$0-point2 \; #f s \$0-name \; #f s \$0-color \; #f s \$0-speed
\; #f s \$0-time \; #f s \$0-duplicate \; #f s \$0-mirror-x \; #f s
\$0-mirror-y \; #f s \$0-scale \; #f s \$0-ec \; #f s \$0-savelist
\; #f s £""-help;
#X obj 396 156 ctxfiles/recompile \$0;
#X connect 0 0 1 0;
#X connect 1 0 32 0;
#X connect 1 1 2 0;
#X connect 2 0 30 0;
#X connect 3 0 1 0;
#X connect 4 0 3 0;
#X connect 5 0 4 0;
#X connect 6 0 7 0;
#X connect 7 0 8 0;
#X connect 7 1 9 0;
#X connect 8 0 11 0;
#X connect 9 0 10 0;
#X connect 12 0 8 1;
#X connect 13 0 9 1;
#X connect 14 0 16 0;
#X connect 14 0 18 0;
#X connect 14 0 19 0;
#X connect 15 0 16 1;
#X connect 15 0 7 0;
#X connect 16 0 17 0;
#X connect 18 0 27 0;
#X connect 19 0 20 0;
#X connect 20 0 21 0;
#X connect 20 1 22 0;
#X connect 21 0 29 0;
#X connect 22 0 29 0;
#X connect 23 0 24 0;
#X connect 24 0 25 0;
#X connect 26 0 18 1;
#X connect 26 0 7 0;
#X connect 28 0 19 0;
#X connect 28 0 7 0;
#X connect 32 0 31 0;
#X connect 32 1 31 1;
#X restore -304 -153 pd commands;
#X obj -361 -206 inlet;
#X obj -361 -182 route bang;
#X obj -241 -180 iemguts/canvasargs;
#X obj -228 -257 receive \$0-iemargr;
#N canvas 120 77 1090 472 canvas 0;
#X text 53 47 coords xfrom yfrom xto yto xsize ysize type xmargin ymargin
;
#X obj 100 102 receive \$0-x;
#X obj 186 102 receive \$0-y;
#X obj 270 57 receive \$0-size;
#X obj 110 416 iemguts/sendcanvas 1;
#X obj 256 220 /;
#X obj 304 197 swap 128;
#X obj 304 221 /;
#X floatatom 49 92 5 0 0 0 - - -, f 5;
#X floatatom 99 73 5 0 0 0 - - -, f 5;
#X obj 256 198 swap 1;
#X obj 256 242 swap 1;
#X obj 256 262 -;
#X obj 590 77 receive \$0-name;
#X obj 186 124 t b f f f;
#X obj 139 197 - 2;
#X obj 217 206 - 2;
#X obj 578 287 s \$0-aname;
#X obj 590 103 list;
#X obj 731 59 symbol \$0-array;
#X msg 644 216 \; \$2 rename \$1;
#X obj 731 34 receive \$0-lb;
#X obj 371 2 receive \$0-y1;
#X obj 463 24 receive \$0-y2;
#X obj 256 152 f 79;
#X obj 431 67 sel 0;
#X obj 449 105 -;
#X obj 449 127 sel 0;
#X obj 644 187 zexy/pack symbol \$0-array;
#X obj 476 158 s \$0-y1y2;
#X obj 371 24 t b b f b f f;
#X obj 412 240 spigot;
#X obj 445 215 receive \$0-savestart;
#X obj 412 262 s \$0-rey;
#X obj 578 41 receive \$0-coff;
#X obj 463 46 t b b b b f f;
#X obj 534 81 f;
#X obj 534 103 s \$0-y22;
#X obj 578 255 symbol \$0-array;
#X obj 886 109 f 128;
#X obj 886 131 / 128;
#X obj 900 87 t b f;
#X obj 886 40 receive \$0-size;
#X obj 900 65 receive \$0-x;
#X obj 886 153 t b f;
#X obj 886 205 s \$0-lob;
#X obj 139 174 * 1;
#X obj 100 124 t f f f;
#X obj 17 -30 receive \$0-duplicate;
#X obj 139 152 f 128;
#X obj 110 283 pack 128 79 128 \$0 0.987342 1 126 77 1;
#X obj 270 79 f 128;
#X obj 270 101 * 1;
#X obj 17 64 t b b f b f;
#X obj 494 337 zexy/pack 128 \$0-array;
#X obj 617 152 t s s;
#X obj 590 125 t s s s;
#X msg 494 366 \; \$2 resize \$1;
#X obj 953 130 f 1;
#X obj 990 177 v c\$0sbyy;
#X obj 953 108 receive \$0-vload;
#X obj 913 177 s c\$0sbyx;
#X obj 804 270 receive \$0-color;
#X msg 804 292 color \$1;
#X obj 804 314 s \$0-canvas;
#X msg 137 330 \; \$4-canvas vis_size \$7 \$8 \; \$4-arraysize coords
0 \$9 \$6 \$5 1 1 2 0 0 \; pd-\$4-paint coords 0 0 \$1 \$2 \$1 \$2
2 0 0;
#X msg 110 393 coords 0 0 \$1 \$2 \$1 \$2 2 0 0;
#X obj 110 305 t l l;
#X obj 17 12 sel 0;
#X obj 17 34 f 1;
#X msg 44 34 2;
#X obj 217 -38 sel 0;
#X obj 217 -16 f 1;
#X msg 244 -16 2;
#X obj 218 156 * 1;
#X obj 217 -60 spigot;
#X obj 217 6 t b b f;
#X obj 270 124 t b f b f f f;
#X obj 345 155 s \$0-redub;
#X obj 217 -90 receive \$0-mirror-x;
#X connect 1 0 47 0;
#X connect 2 0 14 0;
#X connect 3 0 51 0;
#X connect 5 0 11 0;
#X connect 6 0 7 0;
#X connect 6 1 7 1;
#X connect 7 0 50 5;
#X connect 8 0 47 0;
#X connect 9 0 14 0;
#X connect 10 0 5 0;
#X connect 10 1 5 1;
#X connect 11 0 12 0;
#X connect 11 1 12 1;
#X connect 12 0 50 4;
#X connect 13 0 18 0;
#X connect 14 0 50 0;
#X connect 14 1 50 1;
#X connect 14 2 24 0;
#X connect 15 0 50 6;
#X connect 16 0 50 7;
#X connect 18 0 56 0;
#X connect 19 0 55 0;
#X connect 21 0 19 0;
#X connect 22 0 30 0;
#X connect 23 0 35 0;
#X connect 24 0 74 0;
#X connect 24 0 10 0;
#X connect 25 1 11 1;
#X connect 26 0 27 0;
#X connect 27 1 10 1;
#X connect 27 1 29 0;
#X connect 28 0 20 0;
#X connect 30 0 31 0;
#X connect 30 1 50 0;
#X connect 30 2 50 8;
#X connect 30 3 24 0;
#X connect 30 4 25 0;
#X connect 30 5 26 0;
#X connect 31 0 33 0;
#X connect 32 0 31 1;
#X connect 34 0 26 0;
#X connect 34 0 36 0;
#X connect 34 0 38 0;
#X connect 35 0 31 0;
#X connect 35 1 50 0;
#X connect 35 2 24 0;
#X connect 35 3 26 0;
#X connect 35 4 26 1;
#X connect 35 5 36 0;
#X connect 36 0 37 0;
#X connect 38 0 17 0;
#X connect 39 0 40 0;
#X connect 40 0 44 0;
#X connect 41 0 39 0;
#X connect 41 1 40 1;
#X connect 42 0 39 0;
#X connect 43 0 41 0;
#X connect 44 0 45 0;
#X connect 44 1 61 0;
#X connect 46 0 15 0;
#X connect 46 0 6 0;
#X connect 47 0 50 0;
#X connect 47 2 49 0;
#X connect 48 0 68 0;
#X connect 48 0 75 1;
#X connect 49 0 46 0;
#X connect 50 0 67 0;
#X connect 51 0 52 0;
#X connect 52 0 77 0;
#X connect 53 0 50 0;
#X connect 53 1 49 0;
#X connect 53 2 46 1;
#X connect 53 3 51 0;
#X connect 53 4 52 1;
#X connect 54 0 57 0;
#X connect 55 0 28 1;
#X connect 55 1 28 0;
#X connect 56 0 38 0;
#X connect 56 1 55 0;
#X connect 56 2 54 1;
#X connect 58 0 59 0;
#X connect 58 0 61 0;
#X connect 60 0 58 0;
#X connect 62 0 63 0;
#X connect 63 0 64 0;
#X connect 66 0 4 0;
#X connect 67 0 66 0;
#X connect 67 1 65 0;
#X connect 68 0 69 0;
#X connect 68 0 72 0;
#X connect 68 1 70 0;
#X connect 69 0 53 0;
#X connect 70 0 53 0;
#X connect 71 0 72 0;
#X connect 71 1 73 0;
#X connect 72 0 76 0;
#X connect 73 0 76 0;
#X connect 74 0 16 0;
#X connect 75 0 71 0;
#X connect 76 0 50 0;
#X connect 76 1 24 0;
#X connect 76 2 74 1;
#X connect 77 0 50 0;
#X connect 77 1 50 2;
#X connect 77 2 6 0;
#X connect 77 3 6 1;
#X connect 77 4 54 0;
#X connect 77 5 78 0;
#X connect 79 0 75 0;
#X restore -304 -129 pd canvas;
#X obj -402 -247 namecanvas \$0-maincanvas;
#X obj -213 -136 declare -lib zexy -stdlib zexy;
#N canvas 575 143 527 471 inlets 0;
#X obj 165 110 -;
#X obj 165 132 until;
#X obj 165 154 f;
#X obj 192 154 + 1;
#X obj 165 384 iemguts/sendcanvas 1;
#X obj 185 200 * 100;
#X obj 205 226 * 3;
#X obj 205 248 t f f f;
#X obj 165 178 t f f f f, f 10;
#X obj 165 327 pack f f f f f \$0 f, f 21;
#X msg 165 349 obj \$2 -200 inlet \, obj \$2 -183 ctxfiles/io \$6 \$1
\$7 \, obj \$2 -166 outlet \, connect \$3 0 \$4 0 \, connect \$4 0
\$5 0;
#X obj 288 302 + 1;
#X obj 318 166 pack f 128 \$0;
#X obj 318 120 receive \$0-x;
#X obj 318 142 t b f;
#X obj 318 188 route 0;
#X msg 357 212 \; \$3-\$1-head \$2 \;;
#X obj 96 124 s \$0-coff;
#X obj 91 21 receive \$0-nsize1;
#X obj 118 77 t b b f f f f;
#X obj 63 146 s \$0-lob;
#X obj 91 46 moses;
#X obj 61 77 t f f f;
#X obj 206 301 + 29;
#X obj 227 278 + 30;
#X obj 247 301 + 31;
#X connect 0 0 1 0;
#X connect 1 0 2 0;
#X connect 2 0 3 0;
#X connect 2 0 8 0;
#X connect 3 0 2 1;
#X connect 5 0 9 1;
#X connect 6 0 7 0;
#X connect 7 0 23 0;
#X connect 7 1 24 0;
#X connect 7 2 25 0;
#X connect 8 0 9 0;
#X connect 8 1 5 0;
#X connect 8 2 6 0;
#X connect 8 3 11 0;
#X connect 9 0 10 0;
#X connect 10 0 4 0;
#X connect 11 0 9 6;
#X connect 12 0 15 0;
#X connect 13 0 14 0;
#X connect 14 0 12 0;
#X connect 14 1 12 1;
#X connect 15 1 16 0;
#X connect 18 0 21 0;
#X connect 19 0 20 0;
#X connect 19 1 17 0;
#X connect 19 2 12 0;
#X connect 19 3 0 1;
#X connect 19 4 0 0;
#X connect 19 5 21 1;
#X connect 21 0 22 0;
#X connect 21 1 19 0;
#X connect 22 0 21 1;
#X connect 22 1 2 1;
#X connect 22 2 0 1;
#X connect 23 0 9 2;
#X connect 24 0 9 3;
#X connect 25 0 9 4;
#X restore -385 -44 pd inlets;
#X obj -361 -128 outlet~;
#N canvas 195 250 585 365 init 1;
#X obj 157 20 inlet;
#X obj 200 118 outlet;
#X obj 157 42 ctxfiles/myinit 3;
#X obj 244 133 f \$0;
#X obj 244 200 pointer;
#X text 337 195 1: send pointer at init;
#X msg 244 157 traverse pd-\$1-paint \, bang \; pd-\$1-paint clear
;
#X obj 44 300 iemguts/sendcanvas 1;
#X obj 130 197 s \$0-savestart;
#X obj 130 168 f 1;
#X obj 22 17 receive \$0-aname;
#X obj 44 190 del 300;
#X obj 215 89 s \$0-lb;
#X obj 171 153 s \$0-lb1;
#X msg 44 278 menu-open \, vis 0;
#X obj 244 223 send \$0-ppoint;
#X obj 44 212 t b b b;
#X obj 63 256 s \$0-lbb2;
#X obj 83 234 s \$0-lbb1;
#X obj 157 64 t b b b b b b b;
#X obj 229 250 s \$0-vload;
#X obj 170 131 del 1;
#X connect 0 0 2 0;
#X connect 2 0 19 0;
#X connect 3 0 6 0;
#X connect 4 0 15 0;
#X connect 6 0 4 0;
#X connect 9 0 8 0;
#X connect 10 0 14 0;
#X connect 11 0 16 0;
#X connect 14 0 7 0;
#X connect 16 0 14 0;
#X connect 16 1 17 0;
#X connect 16 2 18 0;
#X connect 19 0 11 0;
#X connect 19 1 21 0;
#X connect 19 2 9 0;
#X connect 19 3 1 0;
#X connect 19 4 12 0;
#X connect 19 5 20 0;
#X connect 19 6 3 0;
#X connect 21 0 13 0;
#X restore -241 -207 pd init;
#N canvas 350 93 450 359 saving 0;
#X obj 85 136 text define -k \$0-save;
#A set \; %^ x 128 \; %^ y 79 \; %^ size 128 \; %^ y1 1 \; %^ y2 0
\; %^ points bang \; %^ bpoints bang \; %^ name bang \; %^ color -232534
\; %^ speed 10 \; %^ time 1000 \; %^ duplicate 0 \; %^ mirror-x 0 \;
%^ mirror-y 0 \; %^ scale 1 \; %^ ec 0 \;;
#X obj 85 91 receive \$0-savelist;
#X msg 85 113 click;
#X obj 216 27 ctxfiles/saver \$0 3;
#X connect 1 0 2 0;
#X connect 2 0 0 0;
#X restore -354 -22 pd saving;
#N canvas 300 87 450 300 play 0;
#X obj 138 57 inlet;
#X obj 189 223 outlet~;
#X obj 189 149 vline~;
#X obj 189 201 tabread4~ \$0-array;
#X msg 231 171 set \$1;
#X obj 155 104 pack 0 128 1000;
#X obj 155 126 list split 1;
#X obj 242 81 receive \$0-time;
#X obj 231 149 receive \$0-aname;
#X obj 138 79 t b b f b;
#X obj 81 181 del 1000;
#X obj 138 181 f 1;
#X obj 81 203 t f;
#X obj 81 225 switch~;
#X obj 198 57 receive \$0-redub;
#X connect 0 0 9 0;
#X connect 2 0 3 0;
#X connect 3 0 1 0;
#X connect 4 0 3 0;
#X connect 5 0 6 0;
#X connect 6 1 2 0;
#X connect 7 0 5 2;
#X connect 7 0 10 1;
#X connect 8 0 4 0;
#X connect 9 0 10 0;
#X connect 9 1 5 0;
#X connect 9 2 2 0;
#X connect 9 3 11 0;
#X connect 10 0 12 0;
#X connect 11 0 13 0;
#X connect 12 0 13 0;
#X connect 14 0 5 1;
#X restore -361 -153 pd play;
#N canvas 250 110 503 273 \$0-big2 0;
#X obj 24 37 t b;
#X obj 24 105 plot \$0-array2 500 0 -5 5;
#X obj 24 59 s \$0-sstart2;
#X obj 24 15 struct \$0-big2 float x float y array \$0-array2 ^&*-dsmall2
;
#X obj 24 82 receive \$0-zero2;
#X connect 0 0 2 0;
#X connect 3 0 0 0;
#X connect 4 0 1 0;
#X restore -142 -109 pd \$0-big2;
#N canvas 250 110 503 273 \$0-big1 0;
#X obj 24 37 t b;
#X obj 24 105 plot \$0-array1 500 0 -5 5;
#X obj 24 59 s \$0-sstart1;
#X obj 24 15 struct \$0-big1 float x float y array \$0-array1 ^&*-dsmall1
;
#X obj 24 82 receive \$0-zero1;
#X connect 0 0 2 0;
#X connect 3 0 0 0;
#X connect 4 0 1 0;
#X restore -212 -109 pd \$0-big1;
#X obj -333 -109 ctxfiles/points \$0 1;
#X obj -60 -183 ctxfiles/io \$0 -1 0;
#X obj -38 -109 ctxfiles/gget \$0 1 6;
#X obj -38 -82 ctxfiles/gget \$0 2 7;
#N canvas 512 168 450 344 properties 0;
#X obj 132 16 inlet;
#X obj 150 171 iemguts/canvasposition 1;
#X obj 150 193 unpack;
#X obj 150 245 pack f f \$0;
#X obj 150 289 iemguts/sendcanvas 2;
#X obj 132 148 s \$0-pbang;
#X obj 132 126 iemguts/canvasindex 1;
#X obj 132 82 t b b b;
#X obj 132 38 demux;
#X obj 171 104 f 1;
#X obj 159 60 s \$0-done;
#X obj 171 16 receive \$0-gone;
#X obj 183 216 - 130;
#X msg 150 267 obj \$1 \$2 sketch-properties \$3;
#X connect 0 0 8 0;
#X connect 1 0 2 0;
#X connect 2 0 3 0;
#X connect 2 1 12 0;
#X connect 3 0 13 0;
#X connect 6 0 5 0;
#X connect 7 0 6 0;
#X connect 7 1 1 0;
#X connect 7 2 9 0;
#X connect 8 0 7 0;
#X connect 8 1 10 0;
#X connect 9 0 8 1;
#X connect 11 0 8 1;
#X connect 12 0 3 1;
#X connect 13 0 4 0;
#X restore -184 -68 pd properties;
#X obj -184 -89 iemguts/propertybang;
#X obj -333 -82 ctxfiles/points \$0 2;
#X obj -111 -234 ctxfiles/share ctxfiles/cushare;
#X connect 3 0 22 0;
#X connect 5 0 16 0;
#X connect 7 0 8 0;
#X connect 8 0 18 0;
#X connect 8 1 6 0;
#X connect 9 0 6 0;
#X connect 10 0 9 0;
#X connect 16 0 9 0;
#X connect 18 0 15 0;
#X connect 22 0 4 0;
#X connect 26 0 25 0;
#X coords 0 0 128 79 128 79 2 0 0;
