#N canvas 332 211 911 550 10;
#X obj 100 -100 vsl 23 101 0 100 0 0 \$0-ls \$0-lr 0 1 90 1 7 -262144
-1 -1 0 1;
#X obj 275 -67 iemguts/sendcanvas;
#X obj 275 -160 loadbang;
#X obj 460 292 inlet define;
#X obj 515 -38 receive \$0-ls;
#X obj 541 270 l2s;
#X obj 530 317 s \$0-lr;
#X msg 541 292 label \$1;
#X obj 541 249 int;
#X obj 541 180 +;
#X obj 517 -96 swap;
#X obj 517 -73 -;
#X obj 517 -51 * 0.01;
#X obj 541 158 * 1;
#X obj 440 -143 sel 1;
#X msg 440 -121 log;
#X obj 568 259 outlet;
#X obj 101 0 cnv 2 21 2 empty \$0-can empty 20 12 0 14 -99865 -66577
0;
#X msg 676 151 pos 101 \$1;
#X obj 676 173 s \$0-can;
#X obj 676 88 * -1;
#X obj 676 -27 +;
#X obj 736 -113 t f b f;
#X obj 691 -71 t f;
#X obj 703 41 log 10;
#X obj 703 63 * 21.7;
#X obj 676 17 demux;
#X msg 275 -89 text 103 -100 \$1 \, f 1;
#X obj 425 20 + 1;
#X obj 361 42 t f f f;
#X obj 361 20 value v\$3;
#X obj 431 80 pack;
#X obj 305 170 makefilename \$3-%d;
#X obj 305 195 iemguts/oreceive \$0n;
#X obj 275 -137 iemguts/canvasargs;
#X obj 145 51 cnv 23 1 1 empty empty \$2 1 5 0 10 -233017 -66577 0
;
#X obj 810 -189 inlet relative;
#X obj 676 -5 t f f;
#X obj 275 -113 zexy/unpack 1 2 3 4 5 6 7;
#X obj 540 103 demux;
#X obj 540 125 clip 0 100;
#X obj 431 103 send \$3-*;
#X obj 736 -189 receive \$3-;
#X obj 676 118 clip -102 2;
#X obj 625 202 t f;
#X obj 546 79 +;
#X obj 568 229 demux;
#X obj 612 259 outlet;
#X obj 100 4 num \$2 \$3 0 3 2;
#X obj 778 215 line 0 100;
#X obj 587 -143 f \$8;
#X obj 587 -120 moses 1;
#X text 123 -209 ARGS: label & send \, relative receive \, group name
\, min \, max \, lin/exp \, clip override \, line-grain, f 78;
#X obj 777 154 t l b;
#X obj 804 186 f;
#X obj 515 -16 t b f f f b f;
#X obj 736 -86 s \$3-start;
#X obj 736 -166 route \$2;
#X obj 736 -142 route float;
#X obj 540 19 t f b f b;
#X obj 606 41 t b f b;
#X obj 598 201 f 1;
#X obj 710 266 iemguts/canvasdollarzero 1;
#X obj 685 312 send;
#X obj 541 205 t f f f;
#X obj 710 288 makefilename %s-\$1-2;
#X obj 655 372 send;
#X obj 680 348 makefilename %s-\$1-1;
#X connect 2 0 30 0;
#X connect 2 0 34 0;
#X connect 2 0 50 0;
#X connect 2 0 62 0;
#X connect 3 0 6 0;
#X connect 4 0 55 0;
#X connect 5 0 7 0;
#X connect 7 0 6 0;
#X connect 8 0 5 0;
#X connect 9 0 64 0;
#X connect 10 0 11 0;
#X connect 10 1 11 1;
#X connect 11 0 12 0;
#X connect 12 0 13 1;
#X connect 13 0 9 0;
#X connect 14 0 15 0;
#X connect 15 0 6 0;
#X connect 18 0 19 0;
#X connect 20 0 43 0;
#X connect 21 0 37 0;
#X connect 22 0 56 0;
#X connect 22 1 21 0;
#X connect 22 2 21 1;
#X connect 23 0 21 1;
#X connect 24 0 25 0;
#X connect 25 0 20 0;
#X connect 26 0 20 0;
#X connect 26 1 24 0;
#X connect 27 0 1 0;
#X connect 28 0 30 0;
#X connect 29 0 28 0;
#X connect 29 1 31 1;
#X connect 29 2 32 0;
#X connect 30 0 29 0;
#X connect 31 0 41 0;
#X connect 32 0 33 0;
#X connect 33 0 6 0;
#X connect 34 0 38 0;
#X connect 36 0 58 0;
#X connect 37 0 26 0;
#X connect 37 1 59 0;
#X connect 38 0 27 0;
#X connect 38 3 10 0;
#X connect 38 3 9 1;
#X connect 38 4 10 1;
#X connect 38 5 14 0;
#X connect 38 5 26 1;
#X connect 38 6 39 1;
#X connect 39 0 40 0;
#X connect 39 1 13 0;
#X connect 40 0 13 0;
#X connect 42 0 57 0;
#X connect 43 0 18 0;
#X connect 44 0 46 1;
#X connect 45 0 39 0;
#X connect 46 0 16 0;
#X connect 46 0 66 0;
#X connect 46 1 47 0;
#X connect 46 1 63 0;
#X connect 48 0 60 0;
#X connect 49 0 6 0;
#X connect 50 0 51 0;
#X connect 51 1 49 2;
#X connect 53 0 49 0;
#X connect 53 1 54 0;
#X connect 54 0 49 0;
#X connect 55 1 31 0;
#X connect 55 3 21 0;
#X connect 55 4 23 0;
#X connect 55 5 54 1;
#X connect 57 0 58 0;
#X connect 58 0 22 0;
#X connect 58 1 53 0;
#X connect 59 0 39 0;
#X connect 59 1 44 0;
#X connect 59 2 45 0;
#X connect 59 3 61 0;
#X connect 60 0 45 0;
#X connect 60 1 45 1;
#X connect 60 2 61 0;
#X connect 61 0 46 1;
#X connect 62 0 65 0;
#X connect 62 0 67 0;
#X connect 64 0 8 0;
#X connect 64 1 46 0;
#X connect 65 0 63 1;
#X connect 67 0 66 1;
#X coords 0 -1 1 1 23 120 2 100 -102;
