#N canvas 134 257 549 322 10;
#X declare -lib zexy -path zexy -path ./;
#X obj 100 100 tgl 18 0 \$0-ts \$0-tr \$1 21 9 0 10 -262144 -1 -1 0
1;
#X obj 246 61 loadbang;
#X obj 297 105 + 1;
#X obj 246 105 t f f f;
#X obj 319 210 pack;
#X obj 346 138 receive \$0-ts;
#X obj 185 195 iemguts/oreceive \$0n;
#X obj 185 217 s \$0-tr;
#X obj 346 160 t f f f;
#X obj 385 183 outlet;
#X text 118 17 ARGS: label \, group name;
#X obj 246 83 value v\$2;
#X obj 185 170 makefilename \$2-%d;
#X obj 215 83 f \$3;
#X obj 319 232 s \$2-*;
#X obj 145 195 inlet;
#X obj 365 205 send;
#X obj 454 177 iemguts/canvasdollarzero 1;
#X obj 454 199 makefilename %s-\$1;
#X obj 374 35 iemguts/propertybang 1;
#X msg 374 58 menu-open \, coords 0 -1 1 1 1 1 1 0 0 \, coords 0 -1
1 1 1 1 0 0 0 \, vis 0;
#X obj 374 93 iemguts/sendcanvas;
#X obj 167 254 ctxfiles/license;
#X obj 167 317 declare -lib zexy -path zexy -path ./;
#X connect 1 0 11 0;
#X connect 1 0 13 0;
#X connect 1 0 17 0;
#X connect 2 0 11 0;
#X connect 3 0 12 0;
#X connect 3 1 4 1;
#X connect 3 2 2 0;
#X connect 4 0 14 0;
#X connect 5 0 8 0;
#X connect 6 0 7 0;
#X connect 8 0 4 0;
#X connect 8 1 16 0;
#X connect 8 2 9 0;
#X connect 11 0 3 0;
#X connect 12 0 6 0;
#X connect 13 0 0 0;
#X connect 15 0 7 0;
#X connect 17 0 18 0;
#X connect 18 0 16 1;
#X connect 19 0 20 0;
#X connect 20 0 21 0;
#X coords 0 -1 1 1 18 18 2 100 100;
