#N canvas 67 87 1299 681 10;
#X declare -lib zexy -path zexy -path ./;
#X obj 100 100 bng 12 250 50 0 \$0-bang \$0-label empty 14 7 0 8 -262144
-1 -1;
#X msg 359 463 coords 0 -1 1 1 \$1 12 2 100 100;
#X obj 359 485 iemguts/sendcanvas;
#X obj 356 168 t f f;
#X obj 413 191 + 1;
#X obj 393 168 receive \$0-dvstart;
#X obj 356 191 pack;
#X obj 356 235 route 0;
#X msg 395 259 symbol \$1-\$2-uchain;
#X obj 332 441 t f f;
#X obj 245 485 s \$0-label;
#X obj 245 463 ctxfiles/sp 8 3;
#X obj 280 619 list;
#X obj 308 443 t f;
#X obj 280 641 demux;
#X obj 413 213 t f f;
#X obj 320 641 pack;
#X obj 280 693 send;
#X obj 245 357 spigot;
#X obj 395 284 iemguts/oreceive \$0-nop;
#X obj 78 257 iemguts/oreceive \$0-nop;
#X obj 78 234 makefilename %i-undo-next;
#X obj 171 329 makefilename %i-save;
#X obj 78 303 spigot;
#X text 536 171 determine parent \$0;
#X text 534 147 create unique ID no.;
#X text -208 488 interface with Context save list (undo no. 0);
#X text 564 284 receive from undo n + 1 (unless n=0);
#X text 372 444 resize canvas and label;
#X msg 320 663 symbol \$1-\$2-uchain;
#X obj 639 511 receive \$0-bang;
#X obj 78 463 text get \$0-save;
#X obj 639 533 t b b b b;
#X obj 690 556 t f;
#X obj 181 219 f 1;
#X obj 127 144 loadbang;
#X obj 78 507 del 200;
#X text 700 583 turn off input when firing;
#X obj 194 144 t b b;
#X obj 141 188 spigot 1;
#X obj 194 166 t f;
#X obj 127 166 del 1020;
#X obj -22 183 iemguts/canvasposition;
#X msg -73 232 0 \$2;
#X text -77 167 move to left margin on creation;
#X obj 245 398 list trim;
#X obj 639 562 f 1;
#X obj 673 583 f 1;
#X obj 245 422 t a a b b;
#X obj 20 643 ctxfiles/sp01;
#X obj 112 619 s undof^&K;
#X obj 8 619 receive undof^&K;
#X obj 48 718 unpack f f f f;
#X obj 108 768 pack;
#X obj 108 743 t b;
#X msg 108 800 color \$1 -1 \$2;
#X obj 20 667 t f;
#X obj 76 667 f 23;
#X obj 470 26 ctxfiles/license;
#X obj 194 100 ctxfiles/dvr \$0 savestart;
#X obj 340 304 ctxfiles/dvr \$0 undoff;
#X obj 332 419 ctxfiles/dvr \$0 cursorsz;
#X obj 48 696 ctxfiles/dvr \$0 primary-col;
#X obj 639 617 ctxfiles/dvs \$0 undoff;
#X obj 313 693 ctxfiles/dvs \$0 undone2;
#X obj 356 146 ctxfiles/dv \$0 undo-no;
#X obj 318 397 ctxfiles/dv \$0 yszz;
#X obj 269 187 f \$1;
#X obj 269 209 sel 0;
#X msg 642 336 symbol \$2-\$1-undome;
#X obj 642 358 iemguts/oreceive \$0b;
#X obj 642 380 s \$0-label;
#X text 783 345 set receive channel for "undo" message from host context
;
#X obj 356 213 t l l l;
#X obj 220 68 iemguts/oreceive \$0b;
#X obj 78 279 spigot 1;
#X text 180 29 turn on or off from host context;
#X msg 220 46 symbol \$2-undooff;
#X obj 78 553 ctxfiles/collect;
#X obj -147 111 array define \$0-toundo 1;
#X obj 78 212 t f f b;
#X obj 78 374 f 1;
#X obj 78 397 array set \$0-toundo;
#X obj 129 419 tabread \$0-toundo;
#X obj 129 441 ==;
#X obj 78 439 spigot;
#X obj 152 512 route %^;
#X text -99 536 get relevant data \, only once;
#X obj -163 611 array max \$0-toundo;
#X obj -67 690 f;
#X obj -163 633 sel 0;
#X obj -67 734 t f;
#X obj -163 583 until;
#X obj -81 666 t b;
#X obj -67 712 t b f f;
#X obj 78 598 t b b b b a;
#X obj -28 755 text get \$0-save;
#X obj -28 799 route %^;
#X obj -76 822 ctxfiles/collect;
#X obj 227 544 list trim;
#X obj 227 566 t a a;
#X obj 78 350 t b f f f b;
#X obj -28 777 list trim;
#X obj 78 485 list trim;
#X obj 78 325 sel 2 58;
#X text -125 310 filter out :g (2) :ba (58);
#X obj 505 103 declare -lib zexy -path zexy -path ./;
#X obj -76 384 ctxfiles/dvr \$0 recon;
#X msg -49 431 stop;
#X obj 78 576 route bang;
#X obj 78 530 demux;
#X obj -163 656 t b b b;
#X obj -76 407 sel 0;
#X obj -72 14 receive \$0-dvstart;
#X obj -72 37 makefilename %i-save;
#X obj -147 60 text size \$0n;
#X msg -147 85 resize \$1;
#X obj 356 124 ctxfiles/dvi \$0 3 loadbang;
#X connect 1 0 2 0;
#X connect 3 0 6 0;
#X connect 3 1 4 0;
#X connect 4 0 15 0;
#X connect 5 0 6 1;
#X connect 5 0 16 1;
#X connect 6 0 73 0;
#X connect 7 0 80 0;
#X connect 7 1 8 0;
#X connect 8 0 19 0;
#X connect 9 0 11 1;
#X connect 9 1 1 0;
#X connect 11 0 10 0;
#X connect 12 0 14 0;
#X connect 13 0 14 1;
#X connect 14 0 17 0;
#X connect 14 1 64 0;
#X connect 15 0 16 0;
#X connect 15 1 65 0;
#X connect 16 0 29 0;
#X connect 18 0 45 0;
#X connect 19 0 18 0;
#X connect 20 0 75 0;
#X connect 21 0 20 0;
#X connect 22 0 31 3;
#X connect 22 0 96 3;
#X connect 23 0 104 0;
#X connect 29 0 17 1;
#X connect 30 0 32 0;
#X connect 31 0 103 0;
#X connect 32 0 46 0;
#X connect 32 1 12 0;
#X connect 32 2 47 0;
#X connect 32 3 33 0;
#X connect 33 0 63 0;
#X connect 34 0 18 1;
#X connect 34 0 23 1;
#X connect 35 0 41 0;
#X connect 35 0 67 0;
#X connect 36 0 110 0;
#X connect 38 0 40 0;
#X connect 38 1 34 0;
#X connect 39 0 34 0;
#X connect 39 0 42 0;
#X connect 39 0 66 0;
#X connect 40 0 39 1;
#X connect 41 0 39 0;
#X connect 42 0 43 0;
#X connect 43 0 42 0;
#X connect 45 0 48 0;
#X connect 46 0 63 0;
#X connect 47 0 14 1;
#X connect 48 0 11 0;
#X connect 48 1 12 1;
#X connect 48 2 12 0;
#X connect 48 3 13 0;
#X connect 49 0 56 0;
#X connect 51 0 49 0;
#X connect 52 2 54 0;
#X connect 52 3 53 1;
#X connect 53 0 55 0;
#X connect 54 0 53 0;
#X connect 55 0 10 0;
#X connect 56 0 53 0;
#X connect 57 0 53 0;
#X connect 59 0 38 0;
#X connect 60 0 18 1;
#X connect 60 0 23 1;
#X connect 61 0 9 0;
#X connect 62 0 52 0;
#X connect 65 0 3 0;
#X connect 66 0 9 0;
#X connect 67 0 68 0;
#X connect 68 1 36 1;
#X connect 69 0 70 0;
#X connect 70 0 71 0;
#X connect 73 0 7 0;
#X connect 73 1 77 0;
#X connect 73 2 69 0;
#X connect 74 0 75 1;
#X connect 75 0 23 0;
#X connect 77 0 74 0;
#X connect 78 0 109 0;
#X connect 80 0 21 0;
#X connect 80 1 22 0;
#X connect 80 2 115 0;
#X connect 81 0 82 0;
#X connect 83 0 84 0;
#X connect 84 0 85 1;
#X connect 85 0 31 0;
#X connect 86 0 78 1;
#X connect 86 1 78 1;
#X connect 88 0 90 0;
#X connect 88 1 89 1;
#X connect 89 0 94 0;
#X connect 90 0 111 0;
#X connect 90 1 93 0;
#X connect 91 0 82 0;
#X connect 92 0 88 0;
#X connect 93 0 89 0;
#X connect 94 0 91 0;
#X connect 94 1 82 1;
#X connect 94 2 96 0;
#X connect 95 0 57 0;
#X connect 95 1 49 2;
#X connect 95 2 50 0;
#X connect 95 3 92 0;
#X connect 95 4 99 0;
#X connect 96 0 102 0;
#X connect 97 0 98 1;
#X connect 97 1 98 1;
#X connect 98 0 45 0;
#X connect 99 0 100 0;
#X connect 100 0 11 0;
#X connect 100 1 12 1;
#X connect 101 0 81 0;
#X connect 101 1 82 1;
#X connect 101 2 85 0;
#X connect 101 3 83 0;
#X connect 101 4 36 0;
#X connect 102 0 97 0;
#X connect 103 0 86 0;
#X connect 104 2 101 0;
#X connect 107 0 110 1;
#X connect 107 0 112 0;
#X connect 108 0 36 0;
#X connect 109 1 95 0;
#X connect 110 0 78 0;
#X connect 111 0 98 0;
#X connect 111 1 92 1;
#X connect 112 0 78 0;
#X connect 112 1 108 0;
#X connect 113 0 114 0;
#X connect 114 0 115 1;
#X connect 115 0 116 0;
#X connect 116 0 79 0;
#X connect 117 0 65 0;
#X coords 0 -1 1 1 200 12 2 100 100;
