#N canvas 273 89 1051 687 10;
#X obj 100 100 bng 12 250 50 0 \$0-bang \$0-label empty 14 7 0 8 -262144
-1 -1;
#X obj 356 124 ctxfiles/dvi \$0 3;
#X msg 359 463 coords 0 -1 1 1 \$1 12 2 100 100;
#X obj 359 485 iemguts/sendcanvas;
#X obj 356 168 t f f;
#X obj 413 191 + 1;
#X obj 393 168 receive \$0-dvstart;
#X obj 356 191 pack;
#X obj 356 213 route 0;
#X msg 395 259 symbol \$1-\$2-uchain;
#X obj 332 441 t f f;
#X obj 245 485 s \$0-label;
#X obj 245 463 ctxfiles/sp 8 3;
#X obj 280 619 list;
#X obj 308 443 t f;
#X obj 280 641 demux;
#X obj 413 213 t f f;
#X obj 320 641 pack;
#X obj 280 693 send;
#X obj 245 357 spigot;
#X obj 395 284 iemguts/oreceive \$0-nop;
#X obj 78 306 iemguts/oreceive \$0-nop;
#X obj 78 261 t f f;
#X obj 78 283 makefilename %i-undo-next;
#X obj 171 329 makefilename %i-save;
#X obj 78 328 spigot;
#X text 536 171 determine parent \$0;
#X text 534 147 create unique ID no.;
#X text -208 355 interface with Context save list (undo no. 0);
#X text 564 284 receive from undo n + 1 (unless n=0);
#X text 372 444 resize canvas and label;
#X msg 320 663 symbol \$1-\$2-uchain;
#X obj 639 511 receive \$0-bang;
#X obj 78 353 text get \$0-save;
#X obj 639 533 t b b b b;
#X obj 690 556 t f;
#X obj 181 219 f 1;
#X obj 127 144 loadbang;
#X obj 78 375 t b a;
#X obj 78 397 del 200;
#X obj 78 419 list;
#X text 700 583 turn off input when firing;
#X obj 194 144 t b b;
#X obj 141 188 spigot 1;
#X obj 194 166 t f;
#X obj 127 166 del 1020;
#X obj -22 232 iemguts/canvasposition;
#X msg -73 232 0 \$2;
#X text -77 216 move to left margin on creation;
#X obj 245 398 route %^;
#X obj 245 378 list trim;
#X obj 639 562 f 1;
#X obj 673 583 f 1;
#X obj 245 422 t a a b b;
#X obj 78 441 t b b b a;
#X obj 20 488 ctxfiles/sp01;
#X obj 112 464 s undof^&K;
#X obj 8 464 receive undof^&K;
#X obj 48 563 unpack f f f f;
#X obj 108 613 pack;
#X obj 108 588 t b;
#X msg 108 637 color \$1 -1 \$2;
#X obj 20 510 t f;
#X obj 76 512 f 23;
#X obj 470 26 ctxfiles/license;
#X obj 194 100 ctxfiles/dvr \$0 savestart;
#X obj 340 304 ctxfiles/dvr \$0 undoff;
#X obj 332 419 ctxfiles/dvr \$0 cursorsz;
#X obj 48 541 ctxfiles/dvr \$0 primary-col;
#X obj 639 617 ctxfiles/dvs \$0 undoff;
#X obj 313 693 ctxfiles/dvs \$0 undone2;
#X obj 356 146 ctxfiles/dv \$0 undo-no;
#X obj 318 397 ctxfiles/dv \$0 yszz;
#X connect 1 0 71 0;
#X connect 2 0 3 0;
#X connect 4 0 7 0;
#X connect 4 1 5 0;
#X connect 5 0 16 0;
#X connect 6 0 7 1;
#X connect 6 0 17 1;
#X connect 7 0 8 0;
#X connect 8 0 22 0;
#X connect 8 1 9 0;
#X connect 9 0 20 0;
#X connect 10 0 12 1;
#X connect 10 1 2 0;
#X connect 12 0 11 0;
#X connect 13 0 15 0;
#X connect 14 0 15 1;
#X connect 15 0 18 0;
#X connect 15 1 70 0;
#X connect 16 0 17 0;
#X connect 16 1 71 0;
#X connect 17 0 31 0;
#X connect 19 0 50 0;
#X connect 20 0 19 0;
#X connect 21 0 25 0;
#X connect 22 0 23 0;
#X connect 22 1 24 0;
#X connect 23 0 21 0;
#X connect 24 0 33 3;
#X connect 25 0 33 0;
#X connect 31 0 18 1;
#X connect 32 0 34 0;
#X connect 33 0 38 0;
#X connect 34 0 51 0;
#X connect 34 1 13 0;
#X connect 34 2 52 0;
#X connect 34 3 35 0;
#X connect 35 0 69 0;
#X connect 36 0 19 1;
#X connect 36 0 25 1;
#X connect 37 0 45 0;
#X connect 38 0 39 0;
#X connect 38 1 40 1;
#X connect 39 0 40 0;
#X connect 40 0 54 0;
#X connect 42 0 44 0;
#X connect 42 1 36 0;
#X connect 43 0 36 0;
#X connect 43 0 46 0;
#X connect 43 0 72 0;
#X connect 44 0 43 1;
#X connect 45 0 43 0;
#X connect 46 0 47 0;
#X connect 47 0 46 0;
#X connect 49 0 53 0;
#X connect 49 1 53 0;
#X connect 50 0 49 0;
#X connect 51 0 69 0;
#X connect 52 0 15 1;
#X connect 53 0 12 0;
#X connect 53 1 13 1;
#X connect 53 2 13 0;
#X connect 53 3 14 0;
#X connect 54 0 63 0;
#X connect 54 1 55 2;
#X connect 54 2 56 0;
#X connect 54 3 50 0;
#X connect 55 0 62 0;
#X connect 57 0 55 0;
#X connect 58 2 60 0;
#X connect 58 3 59 1;
#X connect 59 0 61 0;
#X connect 60 0 59 0;
#X connect 61 0 11 0;
#X connect 62 0 59 0;
#X connect 63 0 59 0;
#X connect 65 0 42 0;
#X connect 66 0 19 1;
#X connect 66 0 25 1;
#X connect 67 0 10 0;
#X connect 68 0 58 0;
#X connect 71 0 4 0;
#X connect 72 0 10 0;
#X coords 0 -1 1 1 48 12 2 100 100;
