#N canvas 300 81 1051 687 10;
#X obj 100 100 bng 12 250 50 0 \$0-bang \$0-label empty 14 7 0 8 -262144
-1 -1;
#X obj 356 124 ctxfiles/dvi \$0 3;
#X msg 359 463 coords 0 -1 1 1 \$1 12 2 100 100;
#X obj 359 485 iemguts/sendcanvas;
#X obj 332 419 ctxfiles/dv \$0 r cursorsz;
#X obj 356 146 ctxfiles/dv \$0 v undo-no;
#X obj 356 168 t f f;
#X obj 413 191 + 1;
#X obj 393 168 receive \$0-dvstart;
#X obj 356 191 pack;
#X obj 356 213 route 0;
#X msg 395 259 symbol \$1-\$2-uchain;
#X obj 332 441 t f f;
#X obj 245 485 s \$0-label;
#X obj 245 463 ctxfiles/sp 8 3;
#X obj 280 619 list;
#X obj 245 419 t a a b b;
#X obj 296 441 t f;
#X obj 280 641 demux;
#X obj 413 213 t f f;
#X obj 320 641 pack;
#X obj 280 693 send;
#X obj 245 357 spigot;
#X obj 395 284 iemguts/oreceive \$0-nop;
#X obj 78 306 iemguts/oreceive \$0-nop;
#X obj 78 261 t f f;
#X obj 78 283 makefilename %i-undo-next;
#X obj 171 329 makefilename %i-save;
#X obj 78 328 spigot;
#X text 506 171 determine parent \$0;
#X text 504 147 create unique ID no.;
#X text -208 355 interface with Context save list (undo no. 0);
#X text 537 284 receive from undo n + 1 (unless n=0);
#X text 372 444 resize canvas and label;
#X msg 320 663 symbol \$1-\$2-uchain;
#X obj 313 693 ctxfiles/dv \$0 s undone2;
#X obj 639 511 receive \$0-bang;
#X obj 78 353 text get \$0-save;
#X msg 673 585 1;
#X obj 639 533 t b b b b;
#X obj 690 556 t f;
#X msg 639 557 1;
#X obj 181 219 f 1;
#X obj 127 144 loadbang;
#X obj 78 375 t b a;
#X obj 78 397 del 200;
#X obj 78 419 list;
#X obj 639 617 ctxfiles/dv \$0 s undoff;
#X obj 340 304 ctxfiles/dv \$0 r undoff;
#X text 700 583 turn off input when firing;
#X obj 186 122 ctxfiles/dv \$0 r savestart;
#X obj 186 144 t b b;
#X obj 141 188 spigot 1;
#X obj 186 166 t f;
#X obj 127 166 del 1020;
#X obj -22 232 iemguts/canvasposition;
#X msg -73 232 0 \$2;
#X text -77 216 move to left margin on creation;
#X obj 318 397 ctxfiles/dv \$0 v yszz;
#X obj 245 398 route %^;
#X obj 245 378 list trim;
#X text -112 596 A part of the Context library \, licensed under the
GPL. See license.txt. Copyright Liam Goodacre 2017;
#X connect 1 0 5 0;
#X connect 2 0 3 0;
#X connect 4 0 12 0;
#X connect 5 0 6 0;
#X connect 6 0 9 0;
#X connect 6 1 7 0;
#X connect 7 0 19 0;
#X connect 8 0 9 1;
#X connect 8 0 20 1;
#X connect 9 0 10 0;
#X connect 10 0 25 0;
#X connect 10 1 11 0;
#X connect 11 0 23 0;
#X connect 12 0 14 1;
#X connect 12 1 2 0;
#X connect 14 0 13 0;
#X connect 15 0 18 0;
#X connect 16 0 14 0;
#X connect 16 1 15 1;
#X connect 16 2 15 0;
#X connect 16 3 17 0;
#X connect 17 0 18 1;
#X connect 18 0 21 0;
#X connect 18 1 35 0;
#X connect 19 0 20 0;
#X connect 19 1 5 0;
#X connect 20 0 34 0;
#X connect 22 0 60 0;
#X connect 23 0 22 0;
#X connect 24 0 28 0;
#X connect 25 0 26 0;
#X connect 25 1 27 0;
#X connect 26 0 24 0;
#X connect 27 0 37 3;
#X connect 28 0 37 0;
#X connect 34 0 21 1;
#X connect 36 0 39 0;
#X connect 37 0 44 0;
#X connect 38 0 18 1;
#X connect 39 0 41 0;
#X connect 39 1 15 0;
#X connect 39 2 38 0;
#X connect 39 3 40 0;
#X connect 40 0 47 0;
#X connect 41 0 47 0;
#X connect 42 0 22 1;
#X connect 42 0 28 1;
#X connect 43 0 54 0;
#X connect 44 0 45 0;
#X connect 44 1 46 1;
#X connect 45 0 46 0;
#X connect 46 0 60 0;
#X connect 48 0 22 1;
#X connect 48 0 28 1;
#X connect 50 0 51 0;
#X connect 51 0 53 0;
#X connect 51 1 42 0;
#X connect 52 0 42 0;
#X connect 52 0 55 0;
#X connect 52 0 58 0;
#X connect 53 0 52 1;
#X connect 54 0 52 0;
#X connect 55 0 56 0;
#X connect 56 0 55 0;
#X connect 58 0 12 0;
#X connect 59 0 16 0;
#X connect 59 1 16 0;
#X connect 60 0 59 0;
#X coords 0 -1 1 1 48 12 2 100 100;
