#N canvas 496 89 776 613 10;
#X obj 191 520 dac~;
#X obj 197 474 helpfiles/docfiles/glock~ 1;
#X obj 197 413 receive c1-;
#X obj 48 18 cnv 15 352 62 empty empty empty 20 12 0 14 -99865 -66577
0;
#X obj 43 13 cnv 15 352 62 empty empty empty 20 12 0 14 -1 -66577 0
;
#X obj 44 14 cnv 15 350 60 empty empty context lesson 2 7 30 0 34
-225792 -1 0;
#X obj 426 22 helpfiles/docfiles/help-display \$0;
#N canvas 67 89 450 300 follow-ups 0;
#X text 31 241 NOTE: If you want the hyperlinks in this patch to work
\, you need to create a folder inside the main Context folder (ie.
context/lessons) and save this patch there.;
#X text 37 31 1: Change the "beat-slice" pattern.;
#X text 37 52 2: Make the "beat-slice" pattern random;
#X obj 37 72 else/openfile ../helpfiles/starting_and_stopping.pd -h
3: Make the basic melody (c1) play backwards.;
#X text 37 94 4: Add another layer \, so that you have c3 beat-slicing
c2 beat-slicing c1.;
#X restore 545 542 pd follow-ups / challenges;
#X obj 538 41 ctxfiles/license;
#X text 44 96 USING ONE CONTEXT TO CONTROL ANOTHER (BEAT-SLICING);
#X obj 196 378 scaler c 6 blues major;
#X obj 353 225 bng 8 250 50 0 empty empty empty 17 7 0 10 -262144 -1
-1;
#X obj 270 314 bng 8 250 50 0 empty empty empty 17 7 0 10 -262144 -1
-1;
#X obj 260 301 bng 8 250 50 0 empty empty empty 17 7 0 10 -262144 -1
-1;
#X obj 256 222 bng 8 250 50 0 empty empty empty 17 7 0 10 -262144 -1
-1;
#X obj 315 210 bng 8 250 50 0 empty empty empty 17 7 0 10 -262144 -1
-1;
#X obj 253 269 context :X 9 :a ' # = ' :d 1.5 :i 2 1 2 0 5 4 5 2 0
:x = 8 7 6 4 3 2 1 :z 10 :Z 10 :ID 1;
#X obj 253 182 context :X 9 :a ' < c1 :s p = ' :b ' | | | < c1 stop
' :d 3 :i 4 1 2 3 7 5 1 2 0 :x = 8 6 4 2 1 :Z 18 :ID 2;
#X msg 42 131 double click here to hear the "beat-sliced" melody,
f 28;
#X msg 232 134 change these toggle-floats to change the "beat-slice"
pattern;
#X msg 383 210 open the last toggle if you want to force the melody
to end, f 31;
#X msg 73 224 double click here to hear the original melody, f 24
;
#X msg 12 296 change the toggles and toggle floats here to change the
original melody, f 37;
#N canvas 67 89 649 203 what 0;
#X text 42 26 This Context is sending messages to c1 to tell it to
start at specific points. The points are defined by the toggle floats.
, f 86;
#X text 43 95 < : This director tells Context to send the rest of the
message to a specific location \; c1 : This is the location where the
rest of the message will be sent to \; :s : this tells c1 to start
\; p : this tells c1 to start at a specfic location \; = : this reads
the toggle-float to decide which location c1 should start at., f 97
;
#X text 50 68 It has the following :a database message: " < c1 :s p
= ";
#X restore 505 180 pd what is the first Context doing?;
#N canvas 67 89 450 92 what 0;
#X text 46 17 This Context is playing a simple melody. It sends the
message "# =" \, which means \, "read the toggle-float number (=) and
convert it into a note (#).;
#X restore 495 290 pd what is the second Context doing?;
#X text 275 415 See lesson 1 for details about this configuration.
;
#X connect 1 0 0 0;
#X connect 1 0 0 1;
#X connect 2 0 1 0;
#X connect 18 0 15 0;
#X connect 19 0 14 0;
#X connect 20 0 11 0;
#X connect 21 0 13 0;
#X connect 22 0 12 0;
