#N canvas 239 90 776 613 10;
#X obj 191 520 dac~;
#X obj 197 474 helpfiles/docfiles/glock~ 1;
#X obj 197 413 receive c1-;
#X obj 48 18 cnv 15 352 62 empty empty empty 20 12 0 14 -99865 -66577
0;
#X obj 43 13 cnv 15 352 62 empty empty empty 20 12 0 14 -1 -66577 0
;
#X obj 44 14 cnv 15 350 60 empty empty context lesson 1 7 30 0 34
-225792 -1 0;
#X obj 196 378 scaler c 6 blues major;
#X text 273 414 This object receives the messages send from Context
c1. In this case \, the messages are numbers.;
#X text 368 468 This object generates the sound \, based on the frequency
you give it.;
#X text 227 522 This object plays the sound on your speakers.;
#N canvas 385 122 471 468 how 0;
#X text 46 20 THE FAST WAY \; \; create the following object \; \;
[context :X 9 :a ' # = ' :b ' # = ' :d 1 :h 1 :i 0.5 -0 2 4 0 2 2 1
1.5 :j 0 1 3 :x = 7 6 4 3 :y = 3 2 1 :F 61 :G 18 :P 1 :Z 8];
#X text 45 144 THE MANUAL WAY \;;
#X text 38 391 NOTE: If you want the hyperlinks in this patch to work
\, you need to create a folder inside the main Context folder (ie.
context/lessons) and save this patch there.;
#X text 61 225 with the message;
#X text 43 171 1: create an object called [context].;
#X text 56 282 (this can be fiddly).;
#X obj 42 191 else/openfile ../links/resizing.html -h 2: resize it.
;
#X obj 43 209 else/openfile ../links/message_databases.html -h 3: edit
first term of the :a and :b message databases;
#X obj 166 227 else/openfile ../links/message_variables.html -h "#
=".;
#X obj 41 245 else/openfile ../links/scaler.html -h 4: create a [scaler]
object with the scale \, mode and octave you want.;
#X obj 41 267 else/openfile ../links/float_connections.html -h 5: alter
the toggle-floats to the numbers of the melody you want;
#X obj 40 302 else/openfile ../links/burst_basic.html -h 6: Go to Properties
--> Burst --> Presets --> Linear.;
#X obj 40 324 else/openfile ../links/timing.html -h 7: Select the cycle
time you want.;
#X restore 27 575 pd how can I create this for myself?;
#X obj 248 230 bng 8 250 50 0 empty empty empty 17 7 0 10 -262144 -1
-1;
#X obj 381 258 bng 8 250 50 0 empty empty empty 17 7 0 10 -262144 -1
-1;
#X obj 378 292 bng 8 250 50 0 empty empty empty 17 7 0 10 -262144 -1
-1;
#X obj 333 292 bng 8 250 50 0 empty empty empty 17 7 0 10 -262144 -1
-1;
#X obj 249 261 bng 8 250 50 0 empty empty empty 17 7 0 10 -262144 -1
-1;
#X obj 219 224 context :X 9 :a ' # = ' :b ' # = ' :d 1 :h 1 :i 0.5
0 2 4 0 2 2 1 1.5 :j 0 1 3 :x = 7 6 4 3 :y = 3 2 1 :F 61 :G 18 :P 1
:Z 8 :ID 1;
#X msg 269 128 The send message "# =" is using two variables from the
output language. "=" reads the value of the toggle float \, and "#"
turns it into a note on a scale (with the help of the [scaler] object).
;
#X msg 448 221 These numbers are called "toggle floats". Here they
are being used to store the notes of the melody. x means 0, f 40;
#X msg 455 297 Open the last toggle to loop the pattern.;
#X msg 42 218 Double click on the green canvas area to start., f 25
;
#X text 341 367 This object is used to convert numbers to notes on
a scale. Ie. 2 becomes 587.33 \, the 2nd note on the 6th octave of
the C blues-major scale.;
#X obj 426 22 helpfiles/docfiles/help-display \$0;
#N canvas 67 89 450 300 follow-ups 0;
#X text 37 31 1: Change the time \, number of beats in a bar \, and
notes of the melody.;
#X text 36 149 5: Instead of a defined melody followed by a rotating
note \, make a defined melody followed by a rotating melody. Ie. instead
of the Burst holding notes \,;
#X text 31 241 NOTE: If you want the hyperlinks in this patch to work
\, you need to create a folder inside the main Context folder (ie.
context/lessons) and save this patch there.;
#X obj 35 70 else/openfile ../links/resizing.html -h 2: Add a few more
options for the last note.;
#X obj 35 94 else/openfile ../links/burst_basic.html -h 3: Randomize
which of the last notes is selected.;
#X obj 34 117 else/openfile ../links/burst_advanced.html -h 4: Have
more than one note play as the last note.;
#X obj 36 188 else/openfile ../links/float_connections.html -h make
them hold connections to other Contexts.;
#X restore 551 573 pd follow-ups / challenges;
#X obj 538 41 ctxfiles/license;
#X text 44 96 CREATE A MELODY WHICH PLAYS A DIFFERENT FINAL NOTE EACH
TIME;
#X connect 1 0 0 0;
#X connect 1 0 0 1;
#X connect 2 0 1 0;
#X connect 17 0 11 0;
#X connect 18 0 12 0;
#X connect 18 0 14 0;
#X connect 19 0 13 0;
#X connect 20 0 15 0;
