#N canvas 213 89 616 679 10;
#X declare -path ../;
#X obj 61 350 cnv 15 293 283 empty empty empty 20 12 0 14 -99865 -66577
0;
#X obj 327 101 cnv 15 217 210 empty empty empty 20 12 0 14 -99865 -66577
0;
#X obj 32 102 cnv 15 243 208 empty empty empty 20 12 0 14 -99865 -66577
0;
#X obj 51 340 cnv 15 293 283 empty empty empty 20 12 0 14 -1 -66577
0;
#X obj 317 91 cnv 15 217 210 empty empty empty 20 12 0 14 -1 -66577
0;
#X obj 22 92 cnv 15 243 208 empty empty empty 20 12 0 14 -1 -66577
0;
#X obj 52 341 cnv 15 291 281 empty empty 3: extended loop 20 12 0
15 -106481 -1 0;
#X obj 318 92 cnv 15 215 208 empty empty 2: open feedback loop 10
12 0 15 -106481 -1 0;
#X obj 23 93 cnv 15 241 206 empty empty 1: closed feedback loop
10 12 0 15 -106481 -1 0;
#X obj 193 26 cnv 15 244 37 empty empty empty 20 15 2 18 -99865 -1
0;
#X obj 189 22 cnv 15 244 37 empty empty empty 20 15 2 18 -1 -1 0;
#X obj 190 23 cnv 15 242 35 empty empty feedback types 10 17 0 27
-4032 -1 0;
#X obj 91 182 context :M 1 :d 1 :x = 5 :ID 1;
#X obj 186 200 bng 15 250 50 0 empty empty empty 17 7 0 10 -262144
-1 -1;
#X obj 381 172 context :M 1 :d 1 :h 1 :x = 3 2 1 :R 100 :ID 2;
#X obj 348 193 bng 15 250 50 0 empty empty empty 17 7 0 10 -262144
-1 -1;
#X msg 75 150 start;
#X msg 118 150 stop;
#X msg 355 140 start;
#X msg 408 140 stop;
#X obj 178 414 context :M 1 :d 1 :x = 1 :ID 3;
#X obj 178 483 context :M 1 :d 1 :x = 1 :ID 4;
#X obj 75 453 context :M 1 :d 1 :x = 5 :ID 5;
#X msg 158 376 start;
#X msg 205 376 stop context;
#X text 37 253 This will continue until you tell it to stop., f 30
;
#X text 95 564 These Contexts loop with each other to create a circle.
, f 33;
#X text 366 371 Besides the start messages \, you can start any Context
by double clicking on its canvas (the green bit in the middle). To
stop it \, click and hold. Try this out on any of the Contexts here.
, f 33;
#X obj 380 511 ctxfiles/license;
#X obj 380 571 declare -path ../;
#X obj 26 23 docfiles/help-display \$0;
#X obj 192 66 else/openfile links/feedback.html -h see Context Manual
entry on feedback;
#X text 326 234 This will loop 2/3 times. To understand how this selection
is being made \,, f 25;
#X obj 325 273 else/openfile links/burst_basic.html -h see Context
Manual entry on Burst.;
#X connect 12 4 13 0;
#X connect 13 0 12 4;
#X connect 14 0 15 0;
#X connect 14 1 15 0;
#X connect 15 0 14 0;
#X connect 16 0 12 1;
#X connect 17 0 12 2;
#X connect 18 0 14 1;
#X connect 19 0 14 2;
#X connect 20 0 21 0;
#X connect 21 0 22 4;
#X connect 22 4 20 0;
#X connect 23 0 20 1;
#X connect 24 0 20 2;
