#N canvas 305 164 800 440 10;
#X obj 375 95 cnv 15 272 231 empty empty empty 20 12 0 15 -99865 -1
0;
#X obj 365 85 cnv 15 272 231 empty empty empty 20 12 0 15 -1 -1 0;
#X obj 366 86 cnv 15 270 229 empty empty 2: float connection 20 12
0 15 -260956 -1 0;
#X obj 83 95 cnv 15 233 231 empty empty empty 20 12 0 15 -99865 -1
0;
#X obj 73 85 cnv 15 233 231 empty empty empty 20 12 0 15 -1 -1 0;
#X obj 74 86 cnv 15 231 229 empty empty 1: cable connection 20 12
0 15 -260956 -1 0;
#X obj 78 19 cnv 15 244 37 empty empty empty 29 15 2 25 -99865 -1 0
;
#X obj 74 15 cnv 15 244 37 empty empty empty 29 15 2 25 -1 -1 0;
#X obj 75 16 cnv 15 242 35 empty empty forming a loop 15 15 0 25
-4032 -1 0;
#X msg 82 112 start;
#X msg 389 131 start;
#X obj 387 191 cnv 1 1 1 empty \$0-tester → -12 -1 1 53 -262144 -1
0;
#X obj 474 229 cnv 1 1 1 empty \$0-tester ↑ -11 8 1 53 -262144 -1
0;
#X text 100 254 These contexts use PD connections to form a loop.,
f 28;
#X text 373 262 These contexts use float-connect to form a loop. Notice
how the toggle floats correspond to the ID numbers., f 38;
#X text 357 374 Note that float-connected toggles can still be cable-connected!
Try connecting the toggle labeled c4 or c3 to one of the green contexts
to see.;
#X obj 114 168 context :d 1 :m 1 :x = 5 :ex ' clear ';
#X obj 206 169 context :d 1 :x = 5;
#X obj 421 168 context :c 4 :d 1 :i 0 0 0 0 4.5 :x = 5;
#X obj 551 169 context :c 4 :d 1 :i 0 0 0 0 3.5 :x = 5;
#X msg 127 139 stop context;
#X msg 434 131 stop context;
#X obj 518 191 cnv 1 1 1 empty \$0-tester → -12 -1 1 53 -262144 -1
0;
#X obj 605 230 cnv 1 1 1 empty \$0-tester ↑ -11 8 1 53 -262144 -1
0;
#X text 78 62 Refer to Manual Section 5: CONNECTIONS;
#X obj 70 351 ctxfiles/license;
#X text 357 338 To access float-connect \, click on any toggle and
scroll up while holding the mouse down.;
#X connect 9 0 16 0;
#X connect 10 0 18 0;
#X connect 16 4 17 0;
#X connect 17 4 16 4;
#X connect 20 0 16 1;
#X connect 21 0 18 1;
