#N canvas 67 87 1299 681 8;
#X declare -path ../;
#X obj 421 24 cnv 15 420 58 empty empty empty 20 21 2 37 -99865 -228856
0;
#X obj 416 18 cnv 15 420 58 empty empty empty 20 21 2 37 -1 -228856
0;
#X obj 417 19 cnv 15 418 56 empty empty empty 20 21 2 37 -260097 -228856
0;
#X obj 860 55 cnv 15 392 203 empty empty empty 20 12 0 14 -99865 -66577
0;
#X obj 850 45 cnv 15 392 203 empty empty empty 20 12 0 14 -1 -66577
0;
#X obj 20 55 cnv 15 390 158 empty empty empty 20 12 0 14 -99865 -66577
0;
#X obj 10 45 cnv 15 390 158 empty empty empty 20 12 0 14 -1 -66577
0;
#X obj 851 46 cnv 15 390 201 empty empty NOTES 20 12 0 14 -233017 -1
0;
#X obj 11 46 cnv 15 388 156 empty empty NOTES 20 12 0 14 -233017 -1
0;
#X obj 496 206 context :M 1 :d 1 :i 0 0 0 0 1.5 :x = 1 2 3 5 :v 0;
#X obj 234 332 context :M 1 :h 1 :x = 1 2 3 :z 0 :P 1 :v 0;
#X obj 482 332 context :M 1 :h 1 :x = 1 2 3 :z 0 :R 100 :v 0;
#X obj 449 535 docfiles/snare;
#X obj 444 638 dac~;
#X obj 448 614 *~ 0.3;
#X obj 501 614 hsl 50 15 0 1 0 0 empty empty empty -2 -8 0 10 -262144
-1 -1 0 1;
#X obj 211 537 docfiles/kick;
#X obj 150 434 context :c 14 :d 1 :n ' kick ' :x = 1 3 4 :v 0;
#X obj 220 434 context :c 14 :d 1 :n ' kick ' :x = 2 3 4 :v 0;
#X obj 290 434 context :c 14 :d 1 :n ' kick ' :x = 1 3 :v 0;
#X obj 211 514 receive kick-;
#X obj 398 434 context :c 10 :d 0.5 :n ' snare ' :x = 1 3 4 :v 0;
#X obj 468 434 context :c 10 :d 0.5 :n ' snare ' :x = 2 3 4 :v 0;
#X obj 538 434 context :c 10 :d 0.5 :n ' snare ' :x = 1 3 :v 0;
#X obj 449 508 receive snare-;
#X obj 790 476 context :X 8 :M 1 :a ' _ ' :c 17 :h 2 :l 9 :n ' glock
' :p -1 :x = 7 6 5 4 3 2 1 :z 0 :R 100 :Z 10 :ID 10;
#X obj 794 569 scaler blues c 5;
#X obj 775 332 context :M 1 :d 0.5 :h 1 :x = 1 2 :R 100 :v 0;
#X obj 775 401 context :X 6 :M 1 :d 0.25 :h 1 :i 12.5 12.5 12.5 0 0
0 :x = 1 2 3 4 6 :R 100 :Z 8 :v 0;
#X obj 794 591 docfiles/glock~ 1.5;
#X obj 418 20 cnv 15 416 54 empty empty burst functionality 17 24
0 34 -87063 -228856 0;
#X text 567 169 This context is in a closed loop (the only one in this
network). It's burst is set to ALL (:L 0) and it is being used to "power"
everything else. Opening and closing toggles will turn other parts
of the network on or off \, making this Context function a bit like
a mixing desk., f 39;
#X text 847 330 The burst on this Context is set to RANDOM (:L 2).
It is being used simply to thin the incoming hits from c1. Opening
more toggles decreases the likelihood that c12 will receive a hit.
;
#X text 858 394 The burst on this Context is set to RANDOM (:L 2).
Its toggle floats put it in an open loop \, meaning that it will restart
itself \, but not every time. Opening and closing toggles changes the
probability of repetition. The last toggle (bottom right) will fire
every time.;
#X obj 794 547 receive glock-;
#X text 550 300 This Context is set to RANDOM burst (:L 2). It is being
used as a random selector to choose one of the three snare patterns.
Closing or opening toggles will change the pattern selection or add
optional rests., f 22;
#X msg 523 171 stop;
#X msg 482 148 start;
#X msg 715 88 \; pd dsp 1;
#X text 894 474 This burst has a custom setting (see 07_burst_settings).
It is generating the notes being received by the [glock~] object. Note
that it has a random number of toggles \, and a random selection of
toggles \, each time it fires. Closing toggles will remove corresponding
notes from the list of possibilities.;
#X text 31 75 c2 \, c3 and c10 have safety turned off (:z 0) to allow
for 0 second time cycles.;
#X text 40 299 This Context is set to LINEAR burst (:L 1) \, meaning
that the burst toggles fire one by one after the other. It is being
used to define a linear sequence for the drum patterns below. Opening
and closing toggles will change the length of the sequence., f 31
;
#X text 869 75 This network is very "clean" \, in that each of the
three channels runs totally distinct from the others \, but it may
be desirable for them to "bleed" into each other. Connecting random
selectors to each other will add a degree of chaos into the system
(ie. the first toggle on c12 to c3) \, whereas connecting determined
events will add more complex patterns (ie. the third toggle of c6 to
c7).;
#X text 870 178 This patch mostly uses cable connections so that the
structure of the network is clearly visible. In practice \, using float
connections is probably more useful \, since the connections are easier
to alter in real time.;
#X text 19 75 *;
#X text 857 75 *;
#X text 858 179 *;
#X text 448 89 This patch gives some ideas for how the Burst can be
used in a Context network., f 43;
#X text 31 112 All green Contexts have their axes flipped (:M 1) \,
so their bursts are along the x-axis.;
#X text 30 148 All but c10 are using burst presets (ALL \, SEQUENCE
and RANDOM) to control their behaviour.;
#X text 19 112 *;
#X text 19 148 *;
#X obj 95 602 ctxfiles/license;
#X obj 95 583 declare -path ../;
#X obj 851 18 docfiles/help-display \$0;
#X obj 447 120 else/openfile links/burst_basic.html -h see Context
Manual entry on burst;
#X text 25 436 These Contexts store drum patterns. Change the toggles
to edit the patterns., f 22;
#X connect 9 0 10 4;
#X connect 9 1 11 2;
#X connect 9 2 27 1;
#X connect 10 0 17 4;
#X connect 10 1 18 2;
#X connect 10 2 19 0;
#X connect 11 0 21 4;
#X connect 11 1 22 2;
#X connect 11 2 23 0;
#X connect 12 0 14 0;
#X connect 14 0 13 0;
#X connect 14 0 13 1;
#X connect 15 0 14 1;
#X connect 16 0 14 0;
#X connect 20 0 16 0;
#X connect 24 0 12 0;
#X connect 26 0 29 0;
#X connect 27 0 28 0;
#X connect 28 5 25 4;
#X connect 29 0 14 0;
#X connect 34 0 26 0;
#X connect 36 0 9 2;
#X connect 37 0 9 1;
