#N canvas 67 89 899 676 10;
#X declare -path docfiles;
#X declare -path ../;
#X obj 0 0 cnv 15 885 800 empty empty empty 20 12 0 14 -137887 -66577
0;
#X obj 446 57 cnv 15 430 167 empty empty empty 20 12 0 14 -33289 -33289
0;
#X obj 447 58 cnv 15 428 165 empty can EXAMPLE 20 12 0 14 -3632 -33289
0;
#X msg 579 61;
#X obj 6 1 cnv 15 644 54 empty empty empty 13 28 0 50 -86277 -66577
0;
#X obj 7 2 cnv 15 642 52 empty empty empty 13 28 0 50 -174799 -66577
0;
#X obj 8 3 cnv 15 640 50 empty empty LIST OF ALL CONTEXT COMMANDS
7 25 0 36 -5519 -262111 0;
#X msg 615 87;
#X obj 112 57 cnv 15 330 69 empty empty CATEGORY→ -94 35 0 17 -191407
-1 0;
#N canvas 67 260 1152 500 hold 0;
#X obj 338 469 s \$0-helpno;
#X obj 283 370 receive \$0-got;
#X obj 283 394 change;
#X obj 67 394 text define \$0-help;
#X obj 104 296 loadbang;
#X obj 35 344 t b b;
#X obj 12 369 s \$0-lb;
#X msg 67 369 read -c context_commands.csv;
#X text 299 345 ARGS: \$0 no. x y font_size font_x font_y \, label
;
#X obj 63 447 receive \$0-set;
#X obj 63 471 t s s;
#X obj 63 498 sel sym;
#X obj 6 272 bng 15 250 50 0 empty empty empty 17 7 0 10 -262144 -1
-1;
#X obj 109 525 s \$0-on;
#X obj 283 658 list prepend 0;
#X obj 303 586 list prepend 1;
#X obj 283 681 s reset;
#X obj 498 586 list prepend reset -all;
#X obj 498 611 list trim;
#X obj 283 500 + 14;
#X obj 303 538 + 13;
#X obj 498 537 + 15;
#X obj 283 634 text get \$0-help;
#X obj 303 562 text get \$0-help;
#X obj 498 561 text get \$0-help;
#X obj 35 267 receive \$0-ilb;
#X obj 35 291 spigot 1;
#X obj 35 315 t b f;
#X symbolatom 213 80 13 0 0 0 search #0-onin #0-on2, f 13;
#X obj 525 217 loadbang;
#X obj 525 265 s \$0-onin;
#X msg 525 241 set  ;
#X obj 624 318 receive \$0-on2;
#X obj 647 367 list fromsymbol;
#X obj 700 415 list length;
#X obj 700 439 < 3;
#X obj 624 471 spigot;
#X obj 624 342 t s s s;
#X obj 624 525 s \$0-on;
#X obj 624 495 makefilename :%s;
#X obj 647 391 route 58;
#X obj 647 415 t b;
#X obj 647 439 t f;
#X obj 283 444 t f f f f f;
#X obj 157 604 text get \$0-help;
#X obj 157 580 + 16;
#X obj 118 633 spigot;
#X obj 118 657 print context-c1;
#X obj 72 580 receive c1-;
#X obj 283 420 * 16;
#X obj 359 56 docfiles/helpset \$0 saving;
#X obj 359 78 docfiles/helpset \$0 database;
#X obj 426 56 docfiles/helpset \$0 general;
#X obj 335 34 docfiles/helpset \$0 toggles;
#X obj 217 56 docfiles/helpset \$0 operation;
#X obj 209 34 docfiles/helpset \$0 overlay;
#X obj 174 56 docfiles/helpset \$0 ALL;
#X obj 174 34 docfiles/helpset \$0 ID;
#X obj 284 34 docfiles/helpset \$0 time;
#X obj 442 78 docfiles/helpset \$0 input;
#X obj 308 56 docfiles/helpset \$0 bank;
#X obj 299 78 docfiles/helpset \$0 burst;
#X obj 531 157 declare -path docfiles;
#X obj 498 635 s \$0-c1;
#X obj 410 34 helpset \$0 recording;
#X connect 1 0 2 0;
#X connect 2 0 49 0;
#X connect 4 0 26 0;
#X connect 5 1 7 0;
#X connect 7 0 3 0;
#X connect 9 0 10 0;
#X connect 10 0 11 1;
#X connect 10 1 11 0;
#X connect 11 1 13 0;
#X connect 12 0 5 0;
#X connect 14 0 16 0;
#X connect 15 0 16 0;
#X connect 17 0 18 0;
#X connect 18 0 63 0;
#X connect 19 0 22 0;
#X connect 20 0 23 0;
#X connect 21 0 24 0;
#X connect 22 0 14 0;
#X connect 23 0 15 0;
#X connect 24 0 17 0;
#X connect 25 0 26 0;
#X connect 26 0 27 0;
#X connect 27 0 5 0;
#X connect 27 1 26 1;
#X connect 29 0 31 0;
#X connect 31 0 30 0;
#X connect 32 0 37 0;
#X connect 33 0 40 0;
#X connect 34 0 35 0;
#X connect 35 0 36 1;
#X connect 36 0 39 0;
#X connect 37 0 36 0;
#X connect 37 1 33 0;
#X connect 37 2 38 0;
#X connect 39 0 38 0;
#X connect 40 0 41 0;
#X connect 40 1 34 0;
#X connect 41 0 42 0;
#X connect 42 0 36 1;
#X connect 43 0 19 0;
#X connect 43 1 20 0;
#X connect 43 2 21 0;
#X connect 43 3 0 0;
#X connect 43 4 45 0;
#X connect 44 0 46 1;
#X connect 45 0 44 0;
#X connect 46 0 47 0;
#X connect 48 0 46 0;
#X connect 49 0 43 0;
#X coords 0 -1 1 1 330 69 2 171 31;
#X restore 113 57 pd hold;
#X obj 602 122 context :H 6 :ID 1 :ol 1 5 obj 222 -37 receive reset
6 obj 222 -15 t a f 6 obj 168 54 list split 1 5 msg 249 8 inlet \$1
5 obj 249 32 iemguts/canvasconnections 1 7 obj 249 54 unpack s f f
6 obj 318 77 t f b 5 obj 345 102 iemguts/canvasindex 1 4 obj 318 123
pack 6 obj 318 145 t l l 4 obj 168 116 list 5 obj 345 191 iemguts/sendcanvas
2 8 msg 345 169 connect \$2 0 \$1 0 5 obj 168 78 t b 8 msg 168 138
disconnect \$2 0 \$1 0 7 obj 202 78 list prepend 1 set 5 connect 3
0 4 0 5 connect 4 0 5 0 5 connect 4 1 6 0 5 connect 5 0 16 0 5 connect
5 1 18 0 5 connect 6 0 7 0 5 connect 7 0 8 0 5 connect 8 2 9 0 5 connect
9 0 11 0 5 connect 9 1 10 0 5 connect 10 0 11 1 5 connect 11 0 12 0
5 connect 12 0 13 1 5 connect 12 1 15 0 5 connect 13 0 17 0 5 connect
15 0 14 0 5 connect 16 0 13 0 5 connect 17 0 14 0 5 connect 18 0 2
1;
#X obj 2 431 docfiles/helpget \$0 7 862 30 20 2 14 12 -123325 0;
#X obj 2 595 docfiles/helpget2 \$0 10 862 20 15 2 9 1;
#X obj 2 573 docfiles/helpget \$0 9 862 20 15 2 9 -123325 12 1;
#X obj 2 551 docfiles/helpget \$0 8 862 20 15 2 9 -123325 12 1;
#X obj 2 529 docfiles/helpget \$0 5 430 20 15 2 9 -123325 12 1;
#X obj 2 496 docfiles/helpget \$0 1 322 31 25 1 13 -123325 12 1;
#X obj 2 463 docfiles/helpget \$0 0 322 31 25 1 13 -123325 12 1;
#X obj 434 595 docfiles/helpget2 \$0 11 862 20 15 -123325 12 1;
#X obj 434 529 docfiles/helpget \$0 6 430 20 15 2 9 -123325 12 1;
#X obj 326 507 docfiles/helpget \$0 4 538 20 15 2 9 -123325 12 1;
#X obj 326 485 docfiles/helpget \$0 3 538 20 15 2 9 -123325 12 1;
#X obj 326 463 docfiles/helpget \$0 2 538 20 15 2 9 -123325 12 1;
#X obj 446 226 docfiles/helpget2 \$0 12 862 20 15 2 9 1;
#X obj 4 57 cnv 15 106 24 empty empty empty 20 12 0 14 -1 -66577 0
;
#X obj 5 58 cnv 15 104 22 empty empty empty 20 12 0 14 -4034 -66577
0;
#X obj 6 59 cnv 15 102 20 empty empty empty 20 12 0 14 -233017 -66577
0;
#N canvas 504 157 299 431 this 0;
#X obj 21 15 cnv 15 252 392 empty empty empty 19 18 0 20 -99865 -45076
0;
#X obj 13 7 cnv 15 252 392 empty empty empty 19 18 0 20 -1 -45076 0
;
#X obj 14 8 cnv 15 250 390 empty empty ABOUT THIS PATCH 19 18 0 20
-212254 -45076 0;
#X text 38 254 To access the same information as text \, see 'context_commands.csv'.
, f 30;
#X text 38 309 See manual section 9 for command use, f 30;
#X text 26 41 *;
#X text 26 138 *;
#X text 26 192 *;
#X text 26 233 *;
#X text 26 255 *;
#X text 26 310 *;
#X text 39 40 The boxes on the right show all possible Context commands.
This is an exhaustive accont of Context's functions. Click on each
button for more information., f 30;
#X text 36 190 $ stands for an argument \, curly brackets mean optional.
, f 30;
#X text 39 136 The boxes on the left show categories. Click on them
to highlight commands., f 30;
#X text 38 232 Most examples are interactive.;
#X text 26 349 *;
#X text 38 348 In "arguments" \, curly brackets mean that the argument
is optional., f 30;
#X restore 7 60 about this patch;
#X obj 718 10 declare -path ../;
#X obj 15 129 cnv 15 423 300 empty \$0-cansize COMMAND↓ 10 -12 0
17 -191407 -1 0;
#X obj 15 129 docfiles/spacer \$0 330 163 4 4 300;
#N canvas 394 89 625 412 scroll 0;
#X obj 0 2 vsl 15 265 1.2 -0.05 0 0 \$0-yscroll-out \$0-yscroll-in
empty 0 -9 0 10 -128992 -1 -1 26400 1;
#X obj 1 -14 bng 13 250 50 0 \$0-up empty empty 17 7 0 10 -262144 -1
-1;
#X obj 38 -81 loadbang;
#X obj 38 -58 t f;
#N canvas 67 89 445 300 bar 0;
#X obj 101 101 cnv 11 12 117 empty empty empty 20 12 0 14 -228856 -66577
0;
#X obj 191 58 receive \$0-yscroll;
#X obj 191 152 iemguts/canvasposition;
#X msg 191 127 0 \$1;
#X obj 191 81 max;
#X obj 191 104 * 150;
#X connect 1 0 4 0;
#X connect 3 0 2 0;
#X connect 4 0 5 0;
#X connect 5 0 3 0;
#X coords 0 -1 1 1 15 120 2 100 100;
#X restore 0 0 pd bar;
#X obj 2 -13 cnv 11 11 11 empty empty ▲ 3 4 0 10 -162280 -1 0;
#X obj 1 271 bng 13 250 50 0 \$0-down empty empty 17 7 0 10 -262144
-1 -1;
#X obj 2 272 cnv 11 11 11 empty empty ▼ 3 4 0 10 -162280 -1 0;
#X obj 127 -30 receive \$0-up;
#X obj 127 -7 v \$0-yscroll;
#X obj 127 62 s \$0-yscroll-in;
#X obj 127 16 - 0.1;
#X obj 127 39 max;
#X obj 237 -7 v \$0-yscroll;
#X obj 237 62 s \$0-yscroll-in;
#X obj 237 -30 receive \$0-down;
#X obj 237 16 + 0.1;
#X obj 237 39 min 1;
#X obj 395 -11 receive \$0-bar-pos;
#X obj 395 12 iemguts/canvasposition;
#X obj 159 164 receive \$0-yscroll-out;
#X obj 159 187 clip -0.05 1;
#X obj 159 210 s \$0-yscroll;
#X connect 2 0 3 0;
#X connect 3 0 0 0;
#X connect 8 0 9 0;
#X connect 9 0 11 0;
#X connect 11 0 12 0;
#X connect 12 0 10 0;
#X connect 13 0 16 0;
#X connect 15 0 13 0;
#X connect 16 0 17 0;
#X connect 17 0 14 0;
#X connect 18 0 19 0;
#X connect 20 0 21 0;
#X connect 21 0 22 0;
#X coords 0 -1 1 1 15 300 2 0 -15;
#X restore 423 129 pd scroll;
#X obj 665 0 cnv 15 210 55 empty empty empty 20 12 0 14 -262144 -66577
0;
#X obj 665 0 ctxfiles/license;
#X connect 3 0 10 0;
#X connect 7 0 10 1;
