#N canvas 171 194 723 429 10;
#X declare -path ../;
#N canvas 132 138 450 271 and 0;
#X text 14 25 To start Context \, simply double click in the green
area in middle of any Context.;
#X text 13 65 To stop Context \, click and hold in the same area (while
the Context cycle is already activated).;
#X text 11 110 The start/stop action will not work if \; --you click
in the wrong area \, ie. on top of a toggle box or the symbol atom
\; --you click on top of an embedded [content] object \; --you hold
down the Control button.;
#X text 11 193 BUG: Sometimes \, the start/stop action seems to stop
working. To fix it \, click once on a blank (white) area of the canvas
\, then try again. One day I'll track down the source of this problem...
;
#X restore 65 143 start and stop;
#N canvas 67 89 450 292 floats 0;
#X text 10 133 If you want to obtain a negative toggle float \, you
have to first scroll down to 1 or 2 \, then scroll up quickly. Pausing
at 0 (ie at x) causes the scroll to reset so that float connects can
again be selected.;
#X text 10 196 You can also move a particular toggle float from one
toggle to the next by clicking and dragging left / right. This is equivalent
to the ":i swap" command. Note that to move a toggle on the y-axis
\, you still need to drag left and right \, despite the temptation
to drag up and down.;
#X obj 10 113 else/openfile links/message_variables.html -h see Context
Manual entry on message variables witout arguments;
#X text 11 14 To alter toggle floats and float connects (ie. to get
a number inside a toggle box instead of an x) \, click and drag up
or down on any toggle. dragging up gives float connects \, which are
equivalent to cable connections. Dragging down gives toggle floats
\, which can be read by the = message variable.;
#X obj 10 98 else/openfile links/connections.html -h see Context Manual
entry on connections;
#X restore 65 187 toggle floats and float connects;
#N canvas 67 97 450 274 messages 0;
#X text 11 170 A second option for altering messages is to open the
editor. To do this \, hold down Shift and then double click on the
symbol atom. A text box will appear and you can edit the message with
much greater ease than with the regular symbol atom. Unfortunately
\, the text box external is buggy \, and some special symbols or actions
seem to crash it.;
#X text 12 14 If the message atom contains a float or a list with floats
in it \, you can scroll through float values as with a number atom.
To do this \, you need to double click on the symbol atom and then
drag up or down. If the list contains more than one number \, you can
alter the second number by triple clicking and scrolling \, the third
by quadruple clicking \, etc.;
#X text 11 118 BUG: the selectable are for message scrolling doesn't
always perfectly align with the symbol atom. Try clicking in the middle
of the atom for best results.;
#X restore 65 209 altering messages;
#N canvas 67 215 450 193 bank 0;
#X text 10 14 The memory bank can store and retrieve various different
Context states \, ie. toggle assignments. To access the bank \, hold
the mouse over Context and then double press and hold the Shift key.
The y-axis toggles then turn into a selector for the bank. For example
\, clicking on the second toggle loads the second preset (:u 2) \,
clicking on the third loads the third \, etc. Make sure that the Shift
key is still held while you select the bank \, and let go of it to
return to the regular y-axis toggle assignment.;
#X obj 9 144 else/openfile links/bank.html -h See Context Manual entry
on memory bank.;
#X restore 65 231 memory bank;
#N canvas 67 89 450 156 the 0;
#X text 16 18 To flip the x- and y-axes \, hold down the Shift key
and double click on the number atom (top left corner). This action
will be confirmed by the cursor moving from the left to the top of
the Context canvas. The pattern now occupies the y-axis and the burst
occupies the x.;
#X obj 16 89 else/openfile links/pattern_and_burst.html -h See Context
Manual entry on pattern and burst.;
#X restore 65 253 flipping the axes;
#N canvas 377 244 454 336 the 0;
#X text 17 14 To access the properties menu \, right click on Context
and select "properties". The Context canvas will then display a menu
system which can be navigated using the mouse. There are various types
of menu entries:;
#X obj 61 101 cnv 10 10 10 empty empty ► 2 4 0 14 -262144 -66577
0;
#X text 74 98 indicates another sub-menu beneath this one;
#X obj 61 121 cnv 10 10 10 empty empty ▲ 2 4 0 14 -262144 -66577
0;
#X text 74 118 indicates that input is required \, either through the
number or the symbol atom, f 49;
#X obj 61 153 cnv 10 10 10 empty empty ▪ 2 4 0 14 -262144 -66577
0;
#X text 74 150 indicates that clicking on this item will cycle through
a small series of options--usually on or off., f 48;
#X obj 61 201 cnv 10 10 10 empty empty ☺ 2 4 0 14 -262144 -66577
0;
#X text 74 198 indicates a help prompt which will print out in the
console (present in every sub-menu)., f 48;
#X text 17 243 The ^ button in the top right hand corner returns to
the previous (sub) menu \, or to the main Context GUI. Double clicking
on it returns to the main GUI from any point in the menu system.;
#X restore 65 275 using the properties menu;
#N canvas 67 89 450 110 the 0;
#X text 26 26 To open the Overlay \, right click on Context and select
"open". The patch which pops up is not the main Context window \, but
the Overlay patch.;
#X obj 24 71 else/openfile links/overlay.html -h See Context Manual
entry on overlay.;
#X restore 65 297 opening the overlay;
#N canvas 67 93 450 534 (subpatch) 0;
#X text 11 15 To resize Context \, you need to hold down the Shift
key \, then click and drag just outside of the border of Context. This
works for re-sizing vertically or horizontally. The selectable area
for resizing is exactly one toggle-box width outside of the Context.
Clicking inside on on the border might work \, but tends to interfere
with the toggles.;
#X text 38 208 To summarize:;
#X obj 257 278 cnv 15 110 60 empty empty empty 20 12 0 14 -233017 -66577
0;
#X obj 125 278 cnv 15 110 60 empty empty empty 20 12 0 14 -233017 -66577
0;
#X obj 126 349 cnv 15 110 60 empty empty empty 20 12 0 14 -233017 -66577
0;
#X obj 256 349 cnv 15 110 60 empty empty empty 20 12 0 14 -233017 -66577
0;
#X text 128 281 change number of toggles \, maintain cycle time, f
15;
#X text 258 281 change number of toggles \, change cycle time, f 15
;
#X text 128 351 change physical dimensions \, maintain cycle time,
f 15;
#X text 258 351 change physical dimensions \, change cycle time,
f 15;
#X text 266 242 CONTROL KEY;
#X text 136 242 SHIFT KEY;
#X text 25 286 SINGLE CLICK AND DRAG, f 12;
#X text 25 357 DOUBLE CLICK AND DRAG, f 12;
#X text 11 439 You can resize the message box in a similar way. Hold
the shift key and then click and drag at the right-hand edge of the
symbol atom. The selectable area is harder to find \, but it should
scroll in the same way. If you can't find it \, try using the :Z command
instead.;
#X text 11 101 There are two further options for resizing. Holding
down the Control key instead of Shift re-fits the cycle time (:d) to
the new length. This is useful if you want Context to play at the same
speed with its new length. The second option is to resize the Context
canvas without changing the number of toggles ("zooming") \, useful
for improve visibility. To do this \, double click and drag instead
of single click.;
#X restore 65 165 resizing;
#N canvas 147 164 450 267 message 0;
#X text 15 19 To move the message box between different terms from
the message database \, hold the mouse over Context and use the arrow
keys. Left and right will access the x-axis database \, up and down
will access the y-axis database. The one toggle which is coloured differently
from the rest of them indicates your position in the database (usually
it is black).;
#X text 10 187 If you want to edit many messages at once \, simply
go to properties-->messages-->x- or y-axis--> edit and a text box will
appear. Remember to save it (Control + s) when you are done.;
#X text 13 121 Note that by default you can't scroll past the end of
the database limit. To override this \, hold down the Shift key and
then use the arrow keys as before.;
#X obj 12 161 else/openfile links/message_databases.html -h See Context
Manual entry on message databases.;
#X restore 65 320 accessing message database;
#N canvas 67 89 450 164 toggles 0;
#X text 11 24 You can turn toggles on or off using the keyboard instead
of the usual method of clicking on them. To do this \, first hold the
mouse over Context. Then use the arrow keys to select the desired toggle
box and press tab to toggle it.;
#X text 11 84 Note that by default you can't scroll past the end of
the database limit. To override this \, hold down the Shift key and
then use the arrow keys as before.;
#X obj 10 123 else/openfile links/message_databases.html -h See Context
Manual entry on message databases.;
#X restore 65 342 switching toggles;
#X obj 291 268 context :X 14 :a ' message 1 2 3 ' :d 1 :Z 20 :ID 1
:ba ' :x = :i clear || :x = 1 2 :i clear || :x = 1 2 3 :i clear ';
#X obj 258 26 cnv 15 352 62 empty empty empty 20 12 0 14 -99865 -66577
0;
#X obj 253 21 cnv 15 352 62 empty empty empty 20 12 0 14 -1 -66577
0;
#X obj 254 22 cnv 15 350 60 empty empty GUI manipulation 20 26 2 38
-47022 -1 0;
#X text 202 104 There are many ways of interacting with the GUI which
greatly speed up working with Context. Click on the boxes on the left
to learn about the different ways to use the mouse and keyboard with
Context \, and use the context unit on the right to practice.;
#X obj 28 25 ctxfiles/license;
#X obj 28 3 declare -path ../;
#X obj 28 92 docfiles/help-display \$0;
