#N canvas 335 89 911 679 10;
#X declare -path ../;
#X obj -203 180 bng 8 250 50 0 empty empty empty 17 7 0 10 -262144
-1 -1;
#X obj -193 180 bng 8 250 50 0 empty empty empty 17 7 0 10 -262144
-1 -1;
#X obj -183 180 bng 8 250 50 0 empty empty empty 17 7 0 10 -262144
-1 -1;
#X obj -173 180 bng 8 250 50 0 empty empty empty 17 7 0 10 -262144
-1 -1;
#X obj -163 180 bng 8 250 50 0 empty empty empty 17 7 0 10 -262144
-1 -1;
#X obj -153 180 bng 8 250 50 0 empty empty empty 17 7 0 10 -262144
-1 -1;
#X obj -143 180 bng 8 250 50 0 empty empty empty 17 7 0 10 -262144
-1 -1;
#X obj -133 180 bng 8 250 50 0 empty empty empty 17 7 0 10 -262144
-1 -1;
#X obj -203 190 bng 8 250 50 0 empty empty empty 17 7 0 10 -262144
-1 -1;
#X obj -193 190 bng 8 250 50 0 empty empty empty 17 7 0 10 -262144
-1 -1;
#X obj -183 190 bng 8 250 50 0 empty empty empty 17 7 0 10 -262144
-1 -1;
#X obj -173 190 bng 8 250 50 0 empty empty empty 17 7 0 10 -262144
-1 -1;
#X obj -163 190 bng 8 250 50 0 empty empty empty 17 7 0 10 -262144
-1 -1;
#X obj -153 190 bng 8 250 50 0 empty empty empty 17 7 0 10 -262144
-1 -1;
#X obj -143 190 bng 8 250 50 0 empty empty empty 17 7 0 10 -262144
-1 -1;
#X obj -133 190 bng 8 250 50 0 empty empty empty 17 7 0 10 -262144
-1 -1;
#X obj -203 200 bng 8 250 50 0 empty empty empty 17 7 0 10 -262144
-1 -1;
#X obj -193 200 bng 8 250 50 0 empty empty empty 17 7 0 10 -262144
-1 -1;
#X obj -183 200 bng 8 250 50 0 empty empty empty 17 7 0 10 -262144
-1 -1;
#X obj -173 200 bng 8 250 50 0 empty empty empty 17 7 0 10 -262144
-1 -1;
#X obj -163 200 bng 8 250 50 0 empty empty empty 17 7 0 10 -262144
-1 -1;
#X obj -153 200 bng 8 250 50 0 empty empty empty 17 7 0 10 -262144
-1 -1;
#X obj -143 200 bng 8 250 50 0 empty empty empty 17 7 0 10 -262144
-1 -1;
#X obj -133 200 bng 8 250 50 0 empty empty empty 17 7 0 10 -262144
-1 -1;
#X obj -203 210 bng 8 250 50 0 empty empty empty 17 7 0 10 -262144
-1 -1;
#X obj -193 210 bng 8 250 50 0 empty empty empty 17 7 0 10 -262144
-1 -1;
#X obj -183 210 bng 8 250 50 0 empty empty empty 17 7 0 10 -262144
-1 -1;
#X obj -173 210 bng 8 250 50 0 empty empty empty 17 7 0 10 -262144
-1 -1;
#X obj -163 210 bng 8 250 50 0 empty empty empty 17 7 0 10 -262144
-1 -1;
#X obj -153 210 bng 8 250 50 0 empty empty empty 17 7 0 10 -262144
-1 -1;
#X obj -143 210 bng 8 250 50 0 empty empty empty 17 7 0 10 -262144
-1 -1;
#X obj -133 210 bng 8 250 50 0 empty empty empty 17 7 0 10 -262144
-1 -1;
#X obj -203 220 bng 8 250 50 0 empty empty empty 17 7 0 10 -262144
-1 -1;
#X obj -193 220 bng 8 250 50 0 empty empty empty 17 7 0 10 -262144
-1 -1;
#X obj -183 220 bng 8 250 50 0 empty empty empty 17 7 0 10 -262144
-1 -1;
#X obj -173 220 bng 8 250 50 0 empty empty empty 17 7 0 10 -262144
-1 -1;
#X obj -163 220 bng 8 250 50 0 empty empty empty 17 7 0 10 -262144
-1 -1;
#X obj 454 333 bng 8 250 50 0 empty empty empty 17 7 0 10 -262144 -1
-1;
#X obj 466 331 bng 8 250 50 0 empty empty empty 17 7 0 10 -262144 -1
-1;
#X obj 427 270 bng 8 250 50 0 empty empty empty 17 7 0 10 -262144 -1
-1;
#X obj 444 305 bng 8 250 50 0 empty empty empty 17 7 0 10 -262144 -1
-1;
#X obj 368 334 bng 8 250 50 0 empty empty empty 17 7 0 10 -262144 -1
-1;
#X obj 381 331 bng 8 250 50 0 empty empty empty 17 7 0 10 -262144 -1
-1;
#X obj 469 292 bng 8 250 50 0 empty empty empty 17 7 0 10 -262144 -1
-1;
#X obj 390 331 bng 8 250 50 0 empty empty empty 17 7 0 10 -262144 -1
-1;
#X obj 367 290 bng 8 250 50 0 empty empty empty 17 7 0 10 -262144 -1
-1;
#X obj 387 290 bng 8 250 50 0 empty empty empty 17 7 0 10 -262144 -1
-1;
#X obj 370 271 bng 8 250 50 0 empty empty empty 17 7 0 10 -262144 -1
-1;
#X obj 367 266 context :X 9 :Y 6 :a ' message ' :d 1 :e 3 :f 2 :i 0
0 0 0 0 0 0 1 1.5 :n ' ID-tag ' :x = 1 4 7 8 9 :y = 1 2 :Z 11;
#X msg 230 132 cycle time;
#X msg 432 119 ID number and tags;
#X msg 157 171 cursor;
#X msg 647 147 message window;
#X msg 370 365 pattern toggles, f 7;
#X msg 639 278 burst toggles;
#X msg 57 425 message window indicator;
#X msg 623 514 toggle float;
#X msg 264 498 database limit;
#X text 54 447 Whenever the mouse hovers over Context \, one toggle
turns black. This reveals the position of the message window in the
message database. See manual Section 9: GUI access to database., f
28;
#X text 259 520 The off-coloured toggles indicate the position of the
database limit \, ie. the position past which the database will not
be read. See manual Section 9: database limit., f 26;
#X text 606 415 A c-number in a pattern or burst toggle represents
a connection. It refers to the Context ID number. See manual Section
5: float connections., f 28;
#X msg 606 393 float connection;
#X text 619 539 A normal number in any toggle represents a number value
which can be read by the = variable in the output language. This is
useful for creating melodies. See manual Section 12: variables without
arguments., f 33;
#X text 357 399 These toggles form a simple step-sequencer. See section
6: pattern and burst., f 14;
#X text 635 299 These toggles fire simultaneously at the end of the
Context cycle. See section 6: pattern and burst., f 23;
#X text 646 165 This symbol atom displays and edits a single line from
the message database. See manual Section 9: GUI access to database.
, f 23;
#X text 434 137 These represent a Context's unique ID number and tags.
See manual Section 7: ID and channels., f 19;
#X text 263 150 The number box displays the   cycle time in      seconds.
See        manual         Section 10:            timing.
, f 19;
#X text 96 197 The cursor   represents the    time position during
playback. If the cursor is on the top of the Context canvas \, it means
that the pattern and burst have been reversed. See Manual Section 6:
flipping the axes., f 21;
#X msg 470 517 Context canvas;
#X text 469 540 Special objects can be embedded in this area. See manual
Section 14: overlay., f 17;
#X obj 238 26 cnv 15 352 62 empty empty empty 20 12 0 14 -99865 -66577
0;
#X obj 233 21 cnv 15 352 62 empty empty empty 20 12 0 14 -1 -66577
0;
#X obj 234 22 cnv 15 350 60 empty empty GUI interpretation 20 26 2
38 -47022 -1 0;
#X obj 613 28 ctxfiles/license;
#X obj 613 6 declare -path ../;
#X connect 37 0 56 0;
#X connect 38 0 61 0;
#X connect 40 0 69 0;
#X connect 41 0 55 0;
#X connect 42 0 57 0;
#X connect 43 0 54 0;
#X connect 44 0 53 0;
#X connect 49 0 47 0;
#X connect 50 0 46 0;
#X connect 51 0 45 0;
#X connect 52 0 39 0;
