#N canvas 67 87 1299 681 10;
#X declare -path ../;
#X obj 423 11 cnv 15 232 50 empty empty empty 26 20 0 24 -99865 -1
0;
#X obj 418 6 cnv 15 232 50 empty empty empty 26 20 0 24 -1 -1 0;
#X obj 496 206 context :M 1 :d 1 :i 0 0 0 0 1.5 :x = 1 2 3 5 :v 0;
#X obj 234 332 context :M 1 :h 1 :x = 1 2 3 :z 0 :P 1 :v 0;
#X obj 482 332 context :M 1 :h 1 :x = 1 2 3 :z 0 :R 100 :v 0;
#X obj 449 535 docfiles/snare;
#X obj 444 648 dac~;
#X obj 448 624 *~ 0.3;
#X obj 501 626 hsl 50 15 0 1 0 0 empty empty empty -2 -8 0 10 -262144
-1 -1 0 1;
#X obj 211 537 docfiles/kick;
#X obj 150 434 context :c 14 :d 1 :n ' kick ' :x = 1 3 4 :v 0;
#X obj 220 434 context :c 14 :d 1 :n ' kick ' :x = 2 3 4 :v 0;
#X obj 290 434 context :c 14 :d 1 :n ' kick ' :x = 1 3 :v 0;
#X obj 211 514 receive kick-;
#X obj 398 434 context :c 10 :d 0.5 :n ' snare ' :x = 1 3 4 :v 0;
#X obj 468 434 context :c 10 :d 0.5 :n ' snare ' :x = 2 3 4 :v 0;
#X obj 538 434 context :c 10 :d 0.5 :n ' snare ' :x = 1 3 :v 0;
#X obj 449 508 receive snare-;
#X obj 790 476 context :X 8 :M 1 :a ' _ ' :c 17 :h 2 :l 9 :n ' glock
' :p -1 :x = 7 6 5 4 3 2 1 :z 0 :R 100 :Z 10 :ID 10;
#X obj 794 569 scaler blues c 5;
#X obj 775 332 context :M 1 :d 0.5 :h 1 :x = 1 2 :R 100 :v 0;
#X obj 775 401 context :X 6 :M 1 :d 0.25 :h 1 :i 12.5 12.5 12.5 0 0
0 :x = 1 2 3 4 6 :R 100 :Z 8 :v 0;
#X obj 794 591 docfiles/glock~ 1.5;
#X obj 419 7 cnv 15 230 48 empty empty tempo change 26 20 0 24 -4032
-1 0;
#X obj 794 547 receive glock-;
#X msg 523 171 stop;
#X msg 482 148 start;
#X msg 665 10 \; pd dsp 1;
#X obj 672 138 nbx 5 14 0 1e+37 0 1 empty empty empty 0 -8 0 10 -262144
-1 -1 100 256;
#X msg 672 173 \; context :te \$1;
#X obj 827 22 cnv 15 177 57 empty empty empty 20 12 0 14 -1 -66577
0;
#X obj 828 23 cnv 15 175 55 empty empty empty 20 12 0 14 -262144 -66577
0;
#X text 832 27 part of the Context library;
#X text 829 58 copyright Liam Goodacre 2017;
#X text 837 43 licensed under the GPL v3;
#X obj 827 85 declare -path ../;
#X text 444 76 This patch illustrates how to achieve global tempo change.
;
#X text 766 180 Change global tempo here;
#X obj 851 313 else/openfile links/calculation.html -h See Context
Manual entry on calculation.;
#X text 852 216 The :te setting works as a percentage--the higher the
number \, the slower the speed \, with 100 being the middle. It seems
natural to want to define tempo as a BPM \, but this is not so easy
in Context \, since the number of "beats in a bar" isn't centrally
defined. It should be possible to find an equivalent for BPM using
the :k setting \, but I haven't worked this out yet.;
#X obj 266 26 docfiles/help-display \$0;
#X connect 2 0 3 4;
#X connect 2 1 4 2;
#X connect 2 2 20 1;
#X connect 3 0 10 4;
#X connect 3 1 11 2;
#X connect 3 2 12 0;
#X connect 4 0 14 4;
#X connect 4 1 15 2;
#X connect 4 2 16 0;
#X connect 5 0 7 0;
#X connect 7 0 6 0;
#X connect 7 0 6 1;
#X connect 8 0 7 1;
#X connect 9 0 7 0;
#X connect 13 0 9 0;
#X connect 17 0 5 0;
#X connect 19 0 22 0;
#X connect 20 0 21 0;
#X connect 21 5 18 4;
#X connect 22 0 7 0;
#X connect 24 0 19 0;
#X connect 25 0 2 2;
#X connect 26 0 2 1;
#X connect 28 0 29 0;
