#N canvas 175 101 769 687 10;
#X obj 1 1 cnv 15 383 28 empty \$0-c1 empty 20 12 0 14 -86277 -66577
0;
#X obj 4 4 cnv 15 377 22 empty \$0-c2 empty 20 12 0 14 -233017 -66577
0;
#N canvas 404 71 702 581 guts 1;
#X obj 67 99 inlet;
#X obj 94 320 list trim;
#X obj 234 258 moocow/any2bytes;
#X obj 234 280 list length;
#X obj 234 302 div 60;
#X obj 234 325 * 13;
#X obj 234 348 + 30;
#X obj 94 298 list prepend text 10 6;
#X obj 283 384 - 2;
#X msg 283 406 vis_size 383 \$1;
#X obj 283 428 s \$0-c1;
#X obj 413 451 s \$0-c2;
#X obj 413 407 - 6;
#X msg 413 429 vis_size 377 \$1;
#X obj 513 240 loadbang;
#X msg 366 303 read \$1;
#X msg 547 331 color \$1;
#X msg 607 331 color \$1;
#X obj 547 353 s \$0-c1;
#X obj 607 353 s \$0-c2;
#X obj 547 310 route 0;
#X obj 610 307 route 0;
#X obj 94 342 iemguts/sendcanvas 1;
#X obj 94 267 t a a b;
#X msg 167 200 1;
#X obj 134 223 spigot;
#X msg 134 245 delete 4;
#X obj 227 210 iemguts/canvasdelete;
#X obj 547 287 f \$2;
#X obj 610 285 f \$3;
#X msg 165 477 menu-open \, coords 0 -1 1 1 385 \$1 2 0 0 \, vis 0
;
#X obj 67 121 t b f b f;
#X obj 82 181 msgfile;
#X msg 84 147 goto \$1;
#X obj 366 253 t f;
#X obj 401 241 inlet;
#X obj 366 280 makefilename \$1%d.txt;
#X connect 0 0 31 0;
#X connect 1 0 22 0;
#X connect 2 0 3 0;
#X connect 3 0 4 0;
#X connect 4 0 5 0;
#X connect 5 0 6 0;
#X connect 6 0 30 0;
#X connect 6 0 8 0;
#X connect 7 0 1 0;
#X connect 8 0 9 0;
#X connect 8 0 12 0;
#X connect 9 0 10 0;
#X connect 12 0 13 0;
#X connect 13 0 11 0;
#X connect 14 0 28 0;
#X connect 14 0 29 0;
#X connect 14 0 34 0;
#X connect 15 0 32 0;
#X connect 16 0 18 0;
#X connect 17 0 19 0;
#X connect 20 1 16 0;
#X connect 21 1 17 0;
#X connect 23 0 7 0;
#X connect 23 1 2 0;
#X connect 23 2 24 0;
#X connect 24 0 25 1;
#X connect 25 0 26 0;
#X connect 26 0 22 0;
#X connect 28 0 20 0;
#X connect 29 0 21 0;
#X connect 30 0 22 0;
#X connect 31 0 32 0;
#X connect 31 1 33 0;
#X connect 31 2 25 0;
#X connect 32 0 23 0;
#X connect 33 0 32 0;
#X connect 34 0 36 0;
#X connect 35 0 36 0;
#X connect 36 0 15 0;
#X restore 305 -63 pd guts;
#X obj 305 -156 inlet;
#X connect 3 0 2 0;
#X coords 0 -1 1 1 385 30 2 0 0;
