#N canvas 67 244 752 490 10;
#X msg 142 80 next \$1;
#X obj 142 28 inlet;
#X obj 142 50 route float;
#X obj 142 217 outlet~;
#X obj 236 28 inlet;
#X msg 236 50 all \$1;
#X obj 142 195 lop~ 1200;
#X obj 229 243 s~ record^^^;
#X obj 142 105 clone 8 ting2;
#X obj 142 151 expr~ tanh($v1);
#X connect 0 0 8 0;
#X connect 1 0 2 0;
#X connect 2 0 0 0;
#X connect 4 0 5 0;
#X connect 5 0 8 1;
#X connect 6 0 3 0;
#X connect 6 0 7 0;
#X connect 8 0 9 0;
#X connect 9 0 6 0;
