#N canvas 271 89 804 679 12;
#X obj 392 420 s \$0-canv;
#X msg 392 273 label \$1;
#X obj 457 185 list fromsymbol;
#X obj 457 209 list length;
#X obj 404 382 iemguts/sendcanvas;
#X obj 392 145 t s s;
#X obj 104 99 hsl 35 17 0 127 0 0 \$0nop \$0-canv empty 3 8 0 14 -100399
-100399 -262144 0 1;
#X obj 392 121 symbol \$2;
#X obj 101 260 symbol \$2;
#X obj 101 134 t b b b;
#X obj 147 183 s alltt66£;
#X obj 146 207 receive alltt66£;
#X msg 147 159 color -5.67879e+07 -5.67879e+07 0;
#X msg 124 233 color 15 15 -1;
#X msg 404 358 coords 0 -1 1 1 \$1 19 2 100 98;
#X msg 503 306 size \$1 17;
#X obj 404 333 + 7;
#X obj 503 257 * 8;
#X obj 503 282 + 9;
#X obj 457 233 moses 2;
#X obj 49 98 inlet;
#X obj 101 291 s \$1-hs-start;
#X obj 392 97 receive \$1-newlb;
#X connect 1 0 0 0;
#X connect 2 0 3 0;
#X connect 3 0 19 0;
#X connect 5 0 1 0;
#X connect 5 1 2 0;
#X connect 6 0 9 0;
#X connect 7 0 5 0;
#X connect 8 0 21 0;
#X connect 9 0 8 0;
#X connect 9 1 13 0;
#X connect 9 2 12 0;
#X connect 11 0 0 0;
#X connect 12 0 10 0;
#X connect 13 0 0 0;
#X connect 14 0 4 0;
#X connect 15 0 0 0;
#X connect 16 0 14 0;
#X connect 17 0 18 0;
#X connect 18 0 15 0;
#X connect 18 0 16 0;
#X connect 19 1 17 0;
#X connect 20 0 9 0;
#X connect 22 0 7 0;
#X coords 0 -1 1 1 42 19 2 100 98;
