#N canvas 303 89 804 679 12;
#X obj 385 489 s \$0-canv;
#X msg 370 274 label \$1;
#X obj 483 325 + 2;
#X obj 483 374 iemguts/sendcanvas;
#X obj 101 101 vsl 36 14 0 127 0 0 \$0nop \$0-canv empty 3 7 0 14 -221776
-221776 -1 0 1;
#X obj 101 198 s \$1-got;
#X msg 483 350 coords 0 -1 1 1 \$1 21 2 100 98;
#X obj 370 209 receive \$1-\$2-hgstart;
#X obj 370 234 unpack s f f;
#X text 465 234 label \, text position \, size;
#X msg 451 292 size \$1 14;
#X obj 451 264 t f f;
#X obj 206 35 receive \$1-helpdelete;
#X obj 206 60 iemguts/canvasdelete 1;
#X obj 101 164 f;
#X obj 242 254 s twg34t34tg;
#X obj 242 279 receive twg34t34tg;
#X obj 101 134 t b b b b;
#X msg 247 170 set 0;
#X msg 273 410 color 5 5 -1;
#X msg 105 356 color -5.67879e+08 -5.67879e+08 -1;
#X connect 1 0 0 0;
#X connect 2 0 6 0;
#X connect 4 0 17 0;
#X connect 6 0 3 0;
#X connect 7 0 8 0;
#X connect 8 0 1 0;
#X connect 8 1 14 1;
#X connect 8 2 11 0;
#X connect 10 0 0 0;
#X connect 11 0 10 0;
#X connect 11 1 2 0;
#X connect 12 0 13 0;
#X connect 14 0 5 0;
#X connect 16 0 20 0;
#X connect 17 0 14 0;
#X connect 17 1 19 0;
#X connect 17 2 15 0;
#X connect 17 3 18 0;
#X connect 18 0 4 0;
#X connect 19 0 0 0;
#X connect 20 0 0 0;
#X coords 0 679 1 678 38 21 0;
