#N canvas 362 81 900 687 10;
#X obj 0 1 bng 10 250 50 0 empty empty empty 17 7 0 10 -191407 -1 -1
;
#X obj 1 1 cnv 15 428 64 empty \$0-canv empty 2 7 0 14 -175153 -33289
0;
#N canvas 505 97 842 687 guts 0;
#X obj 507 7 receive \$1-helpno;
#X obj 507 81 text get \$1-help;
#X obj 507 56 + \$2;
#X msg 359 35 1;
#X obj 360 90 spigot;
#X obj 359 11 t b b b;
#X obj 407 36 del 250;
#X obj 407 60 t f;
#X msg 413 146 1;
#X obj 360 117 t b f b b;
#X msg 672 233 label \$1;
#X obj 672 137 f \$2;
#X obj 672 161 text get \$1-help;
#X obj 649 111 t b b b;
#X obj 672 185 l2s;
#X obj 672 209 makefilename %s:;
#X obj 649 89 receive \$1-lb;
#X obj 358 -14 inlet;
#X obj 530 230 list length;
#X obj 530 252 div 60;
#X obj 530 305 * 13;
#X obj 530 354 - 2;
#X obj 530 208 moocow/any2bytes;
#X obj 507 105 t a a b;
#X obj 507 31 t f b;
#X msg 553 130 1;
#X obj 553 153 spigot;
#X obj 688 66 iemguts/canvasdelete;
#X obj 360 533 iemguts/sendcanvas 1;
#X obj 360 462 pack f 2;
#X obj 530 398 s \$0-canv;
#X msg 553 177 delete 3;
#X obj 573 471 cyclone/prepend text 2 14;
#X obj 506 422 route bang;
#X msg 360 509 menu-open \, coords 0 -1 1 1 430 \$1 2 0 0 \, vis 0
;
#X msg 530 376 vis_size 428 \$1;
#X floatatom 459 263 5 0 0 0 - - -, f 5;
#X obj 530 276 + 2;
#X obj 530 328 + 40;
#X msg 667 356 color 3;
#X connect 0 0 24 0;
#X connect 1 0 23 0;
#X connect 2 0 1 0;
#X connect 3 0 4 1;
#X connect 4 0 9 0;
#X connect 5 0 3 0;
#X connect 5 1 6 0;
#X connect 5 2 4 0;
#X connect 6 0 7 0;
#X connect 7 0 4 1;
#X connect 8 0 29 1;
#X connect 9 0 29 0;
#X connect 9 1 29 1;
#X connect 9 2 29 0;
#X connect 9 3 8 0;
#X connect 10 0 30 0;
#X connect 11 0 12 0;
#X connect 12 0 14 0;
#X connect 13 1 11 0;
#X connect 14 0 15 0;
#X connect 15 0 10 0;
#X connect 16 0 13 0;
#X connect 17 0 5 0;
#X connect 18 0 19 0;
#X connect 19 0 37 0;
#X connect 20 0 38 0;
#X connect 21 0 35 0;
#X connect 22 0 18 0;
#X connect 23 0 33 0;
#X connect 23 1 22 0;
#X connect 23 2 25 0;
#X connect 24 0 2 0;
#X connect 24 1 26 0;
#X connect 25 0 26 1;
#X connect 26 0 31 0;
#X connect 29 0 34 0;
#X connect 31 0 28 0;
#X connect 32 0 28 0;
#X connect 33 1 32 0;
#X connect 34 0 28 0;
#X connect 35 0 30 0;
#X connect 36 0 37 0;
#X connect 37 0 20 0;
#X connect 38 0 21 0;
#X connect 38 0 29 0;
#X connect 39 0 30 0;
#X restore 231 381 pd guts;
#X connect 0 0 2 0;
#X coords 0 -1 1 1 430 66 2 0 0;
