#N canvas 337 89 1029 679 12;
#X obj 660 181 receive \$1-helpno;
#X obj 660 230 text get \$1-help;
#X obj 660 205 + \$2;
#X obj 308 275 iemguts/sendcanvas;
#X msg 308 251 coords 0 -1 1 1 \$1 \$2 \$3 100 98;
#X obj 101 99 bng 10 250 50 0 empty empty empty 17 7 0 10 -262144 -1
-1;
#X obj 101 99 cnv 15 1 1 empty \$0-canv empty 0 0 0 4 -182888 -66577
0;
#X msg 389 35 1;
#X obj 390 90 spigot;
#X obj 389 11 t b b b;
#X obj 437 36 del 250;
#X obj 437 60 t f;
#X msg 447 146 1;
#X obj 390 117 t b f b b;
#X obj 619 389 - 2;
#X obj 658 389 - 2;
#X obj 619 481 s \$0-canv;
#X obj 308 210 t a a;
#X msg 660 337 label \$1;
#X obj 308 186 pack \$3 \$4 2;
#X obj 619 364 unpack;
#X obj 525 145 f \$2;
#X obj 525 169 text get \$1-help;
#X obj 660 254 list prepend;
#X obj 308 103 t b b b;
#X obj 660 292 l2s;
#X obj 525 193 l2s;
#X obj 525 217 makefilename %s:;
#X obj 308 61 receive \$1-lb;
#X obj 619 413 pack f f \$5 \$6 \$7 \$8 \$9;
#X obj 525 122 spigot \$10;
#X msg 619 440 vis_size \$1 \$2 \, label_font 0 \$3 \, label_pos \$4
\$5 \, color \$6 0 \$7;
#X connect 0 0 2 0;
#X connect 1 0 23 0;
#X connect 2 0 1 0;
#X connect 4 0 3 0;
#X connect 5 0 9 0;
#X connect 7 0 8 1;
#X connect 8 0 13 0;
#X connect 9 0 7 0;
#X connect 9 1 10 0;
#X connect 9 2 8 0;
#X connect 10 0 11 0;
#X connect 11 0 8 1;
#X connect 12 0 19 2;
#X connect 13 0 19 0;
#X connect 13 1 19 2;
#X connect 13 2 19 0;
#X connect 13 3 12 0;
#X connect 14 0 29 0;
#X connect 15 0 29 1;
#X connect 17 0 4 0;
#X connect 17 1 20 0;
#X connect 18 0 16 0;
#X connect 19 0 17 0;
#X connect 20 0 14 0;
#X connect 20 1 15 0;
#X connect 21 0 22 0;
#X connect 22 0 26 0;
#X connect 23 0 25 0;
#X connect 24 0 23 0;
#X connect 24 1 30 0;
#X connect 24 2 19 0;
#X connect 25 0 18 0;
#X connect 26 0 27 0;
#X connect 27 0 23 1;
#X connect 28 0 24 0;
#X connect 29 0 31 0;
#X connect 30 0 21 0;
#X connect 31 0 16 0;
#X coords 0 -1 1 1 200 140 2 100 98;
