#N canvas 275 89 804 687 12;
#X obj 382 55 f \$2;
#X obj 440 685 s \$0-canv;
#X obj 437 196 text get \$1-help;
#X msg 440 588 label \$1;
#X obj 595 294 list length;
#X obj 595 318 moses 3;
#X obj 341 376 text get \$1-help;
#X obj 341 400 route bang;
#X obj 408 196 + 1;
#X obj 376 196 + 2;
#X obj 280 554 sel sym;
#X obj 280 530 cyclone/iter;
#X msg 280 578 1;
#X obj 262 603 f;
#X obj 262 478 t b b s b;
#X obj 312 578 t f;
#X obj 262 628 sel 0;
#X obj 542 418 + 2;
#X obj 542 467 iemguts/sendcanvas;
#X obj 408 252 text get \$1-help;
#X obj 408 276 t a a;
#X obj 437 220 t s s;
#X obj 440 302 list prepend;
#X obj 440 406 l2s;
#X obj 440 430 t s s;
#X obj 101 164 f \$2;
#X obj 101 101 vsl 36 14 0 127 0 0 \$0nop \$0-canv empty 3 7 0 14 -166441
-166441 -128992 0 1;
#X obj 101 134 t b;
#X obj 101 188 s \$1-got;
#X msg 262 682 color 1 1 11;
#X obj 216 429 receive \$1-on;
#X obj 382 103 t f f f f f;
#X obj 456 130 + 3;
#X obj 456 154 text get \$1-help;
#X obj 440 326 list append;
#X obj 382 -17 receive \$1-lb;
#X obj 382 7 spigot 1;
#X obj 382 31 t b f;
#X obj 495 492 s \$1-mysize;
#X obj 341 196 + 5;
#X obj 216 453 sel ALL;
#X msg 506 418 38;
#X msg 641 391 size \$1 14;
#X msg 542 443 coords 0 -1 1 1 \$1 21 2 100 98;
#X msg 294 653 color 0 0 -1;
#X obj 641 342 * 8;
#X obj 641 367 + 9;
#X obj 595 163 list fromsymbol;
#X obj 595 188 t b a;
#X obj 627 213 cyclone/iter;
#X obj 627 238 sel 226 128;
#X obj 382 79 * 16;
#X obj 597 265 ../../ctxfiles/collect;
#X obj 280 506 ../../ctxfiles/collect2;
#X connect 0 0 51 0;
#X connect 2 0 21 0;
#X connect 3 0 1 0;
#X connect 4 0 5 0;
#X connect 5 0 41 0;
#X connect 5 1 45 0;
#X connect 6 0 7 0;
#X connect 7 1 53 2;
#X connect 8 0 19 0;
#X connect 9 0 6 0;
#X connect 10 0 12 0;
#X connect 11 0 10 0;
#X connect 12 0 13 1;
#X connect 13 0 16 0;
#X connect 14 0 13 0;
#X connect 14 1 53 0;
#X connect 14 2 10 1;
#X connect 14 3 15 0;
#X connect 15 0 13 1;
#X connect 16 0 29 0;
#X connect 16 1 44 0;
#X connect 17 0 43 0;
#X connect 17 0 38 0;
#X connect 19 0 20 0;
#X connect 20 0 7 0;
#X connect 20 1 22 0;
#X connect 21 0 53 2;
#X connect 21 1 22 1;
#X connect 22 0 34 0;
#X connect 23 0 24 0;
#X connect 24 0 3 0;
#X connect 24 1 47 0;
#X connect 25 0 28 0;
#X connect 26 0 27 0;
#X connect 27 0 25 0;
#X connect 29 0 1 0;
#X connect 30 0 40 0;
#X connect 31 0 39 0;
#X connect 31 1 9 0;
#X connect 31 2 8 0;
#X connect 31 3 2 0;
#X connect 31 4 32 0;
#X connect 32 0 33 0;
#X connect 33 0 34 1;
#X connect 34 0 23 0;
#X connect 35 0 36 0;
#X connect 36 0 37 0;
#X connect 37 0 0 0;
#X connect 37 1 36 1;
#X connect 39 0 6 0;
#X connect 40 0 44 0;
#X connect 40 1 14 0;
#X connect 41 0 38 0;
#X connect 42 0 1 0;
#X connect 43 0 18 0;
#X connect 44 0 1 0;
#X connect 45 0 46 0;
#X connect 46 0 17 0;
#X connect 46 0 42 0;
#X connect 47 0 48 0;
#X connect 48 0 52 0;
#X connect 48 1 49 0;
#X connect 49 0 50 0;
#X connect 50 2 52 1;
#X connect 51 0 31 0;
#X connect 52 0 4 0;
#X connect 53 0 11 0;
#X coords 0 -1 1 1 38 21 2 100 98;
