#N canvas 341 97 804 687 12;
#X obj 392 420 s \$0-canv;
#X msg 392 273 label \$1;
#X obj 392 97 receive \$1-lb;
#X obj 457 185 list fromsymbol;
#X obj 457 209 list length;
#X obj 457 233 moses 3;
#X obj 404 333 + 2;
#X obj 404 382 iemguts/sendcanvas;
#X obj 392 145 t s s;
#X obj 101 101 vsl 40 25 0 127 0 0 \$0nop \$0-canv empty 3 11 0 27
-100399 -100399 -262144 0 1;
#X obj 503 282 + 15;
#X obj 392 121 symbol \$2;
#X obj 101 260 symbol \$2;
#X obj 101 284 s \$1-set;
#X msg 404 358 coords 0 -1 1 1 \$1 32 2 100 98;
#X msg 503 306 size \$1 25;
#X obj 101 134 t b b b;
#X obj 147 183 s alltt66£;
#X obj 146 207 receive alltt66£;
#X msg 147 159 color -5.67879e+07 -5.67879e+07 0;
#X msg 124 233 color 15 15 -1;
#X obj 503 257 * 15;
#X connect 1 0 0 0;
#X connect 2 0 11 0;
#X connect 3 0 4 0;
#X connect 4 0 5 0;
#X connect 5 1 21 0;
#X connect 6 0 14 0;
#X connect 8 0 1 0;
#X connect 8 1 3 0;
#X connect 9 0 16 0;
#X connect 10 0 6 0;
#X connect 10 0 15 0;
#X connect 11 0 8 0;
#X connect 12 0 13 0;
#X connect 14 0 7 0;
#X connect 15 0 0 0;
#X connect 16 0 12 0;
#X connect 16 1 20 0;
#X connect 16 2 19 0;
#X connect 18 0 0 0;
#X connect 19 0 17 0;
#X connect 20 0 0 0;
#X connect 21 0 10 0;
#X coords 0 -1 1 1 42 32 2 100 98;
