#N canvas 65 113 450 543 10;
#X obj 211 301 vline~;
#X obj 165 434 *~;
#X obj 165 409 cos~;
#X obj 164 385 *~;
#X obj 164 362 *~;
#X obj 181 218 t f f;
#X obj 165 338 *~;
#X msg 211 279 1 0 0 \, 0 \$1 0;
#X msg 181 194 70;
#X obj 181 244 / 29;
#X msg 274 196 33.9;
#X msg 237 196 30.5;
#X msg 312 196 36.1;
#X obj 164 461 outlet~;
#X obj 220 508 switch~;
#X obj 220 460 env~;
#X obj 220 484 > 0.1;
#X msg 360 197 1;
#X obj 290 85 t b b b;
#X obj 252 112 t b b b;
#X obj 215 142 t b b b;
#X obj 177 6 inlet;
#X text 284 445 efficient kick drum;
#X text 321 467 ajf;
#X obj 233 53 route 0 1 2;
#X obj 177 28 route bang;
#X connect 0 0 1 1;
#X connect 0 0 6 0;
#X connect 0 0 3 1;
#X connect 1 0 13 0;
#X connect 1 0 15 0;
#X connect 2 0 1 0;
#X connect 3 0 2 0;
#X connect 4 0 3 0;
#X connect 5 0 9 0;
#X connect 5 1 7 0;
#X connect 6 0 4 1;
#X connect 6 0 4 0;
#X connect 7 0 0 0;
#X connect 8 0 5 0;
#X connect 9 0 6 1;
#X connect 10 0 9 1;
#X connect 11 0 9 1;
#X connect 12 0 9 1;
#X connect 15 0 16 0;
#X connect 16 0 14 0;
#X connect 17 0 14 0;
#X connect 18 0 8 0;
#X connect 18 1 12 0;
#X connect 18 2 17 0;
#X connect 19 0 8 0;
#X connect 19 1 10 0;
#X connect 19 2 17 0;
#X connect 20 0 8 0;
#X connect 20 1 11 0;
#X connect 20 2 17 0;
#X connect 21 0 25 0;
#X connect 24 0 20 0;
#X connect 24 1 19 0;
#X connect 24 2 18 0;
#X connect 24 3 18 0;
#X connect 25 0 18 0;
#X connect 25 1 24 0;
