#N canvas 118 191 543 249 10;
#X obj 147 30 inlet;
#X obj 147 59 outlet;
#X obj 209 35 loadbang;
#X obj 209 58 v %%no-lines;
#X obj 248 105 + 1;
#X obj 209 176 array set &&lines;
#X obj 209 153 iemguts/canvasindex;
#X obj 248 129 array size &&lines;
#X obj 209 81 t b f f;
#X connect 2 0 3 0;
#X connect 3 0 8 0;
#X connect 4 0 3 0;
#X connect 4 0 7 0;
#X connect 6 0 5 0;
#X connect 8 0 6 0;
#X connect 8 1 5 1;
#X connect 8 2 4 0;
#X coords 0 -1 1 1 1 1 2 100 100;
