#N canvas 67 190 688 498 10;
#X text 39 324 Objects that are not related to Context:;
#X obj 37 48 pddp/pddplink ../../content-help.pd -text [content] :
embed arrays into the Context overlay;
#X obj 37 68 pddp/pddplink ../../keylist-help.pd -text [keylist] :
define custom keyboard input for Context;
#X obj 37 88 pddp/pddplink ../../marker-help.pd -text [marker] : mark
points on the timeline for sample playback;
#X obj 37 108 pddp/pddplink ../../mover-help.pd -text [mover] : move
embedded objects around the Overlay;
#X obj 37 269 pddp/pddplink ../../scaler-help.pd -text [scaler] : calculate
notes on a scale;
#X obj 37 341 pddp/pddplink ../../sketch-help.pd -text [sketch] : draw
custom shapes on an array;
#X text 40 250 Objects that are not dependent on Context:;
#X obj 37 289 pddp/pddplink ../../autocreate-help.pd -text [autocreate]
: create objects in rapidfire;
#X obj 37 128 pddp/pddplink ../../ctx-help.pd -text [ctx] : create
an in/outlet~ in Context;
#X obj 37 148 pddp/pddplink ../../undo-help.pd -text [undo] : create
an embedded undo stack;
#X text 40 20 Objects that are embeddable in Context:;
#X text 40 190 Objects that are dependent on Context:;
#X obj 37 218 pddp/pddplink ../../finder-help.pd -text [finder] : find
the origin of a context event;
#X obj 37 361 pddp/pddplink ../../psave-help.pd -text [psave] : create
state-saving abstractions (with [num] \, [slide] \, [slide2] and [tog].
;
#X text 135 411 --connector;
