#N canvas 367 89 713 679 10;
#X obj 245 -368 s \$1-ilb;
#X obj 139 -141 s \$1-lb;
#X obj 190 -393 t b b b b b;
#X obj 289 -174 iemguts/canvasdollarzero 1;
#X obj 289 -152 s2l;
#X obj 220 -97 pack f f f f;
#X obj 220 -141 t f b;
#N canvas 459 136 450 498 c 0;
#X obj 137 21 inlet;
#X obj 221 302 outlet y;
#X obj 137 230 outlet x;
#X obj 137 103 f;
#X obj 176 21 receive \$1-mysize;
#X obj 176 45 +;
#X obj 156 147 + \$4;
#X obj 176 67 moses \$2;
#X obj 260 116 max;
#X obj 260 138 t f f;
#X obj 260 160 s \$0-max;
#X obj 221 93 t b b f;
#X obj 221 249 + \$5;
#X obj 240 181 t f f;
#X obj 221 271 t f f f;
#X obj 137 125 t f f b;
#X msg 176 173 26;
#X obj 221 205 f;
#X obj 277 278 + 26;
#X obj 221 227 + 21;
#X obj 277 301 t f f;
#X obj 277 421 s \$0-yrmax;
#X obj 304 326 min \$6;
#X obj 277 375 -;
#X obj 304 351 t f f;
#X obj 331 375 s \$0-y;
#X obj 277 398 max;
#X connect 0 0 3 0;
#X connect 3 0 15 0;
#X connect 4 0 5 0;
#X connect 5 0 7 0;
#X connect 6 0 5 1;
#X connect 7 0 3 1;
#X connect 7 1 11 0;
#X connect 8 0 9 0;
#X connect 9 0 10 0;
#X connect 9 1 8 1;
#X connect 11 0 17 0;
#X connect 11 1 13 0;
#X connect 11 2 8 0;
#X connect 12 0 14 0;
#X connect 13 0 3 1;
#X connect 14 0 1 0;
#X connect 14 1 18 0;
#X connect 14 2 17 1;
#X connect 15 0 2 0;
#X connect 15 1 6 0;
#X connect 15 2 16 0;
#X connect 17 0 19 0;
#X connect 18 0 20 0;
#X connect 19 0 12 0;
#X connect 20 0 23 0;
#X connect 20 1 22 0;
#X connect 22 0 24 0;
#X connect 23 0 26 0;
#X connect 24 0 23 1;
#X connect 24 1 25 0;
#X connect 26 0 21 0;
#X restore 247 -119 pd c;
#X obj 139 -163 cyclone/uzi \$3;
#X obj 76 -365 v \$0-y;
#X obj 190 -368 v \$0-max;
#X obj 29 -373 - \$4;
#X obj 39 -444 inlet;
#X obj 39 -422 t b f b b;
#X obj 76 -343 -;
#X msg 220 -74 obj \$2 \$3 helpgive \$4 \$1;
#X msg 40 -266 coords 0 -1 1 1 \$1 \$2 \$3 0 \$4;
#X obj 317 -289 receive \$0-yrmax;
#X obj 302 -265 *;
#X msg 353 -220 menu-open;
#X msg 302 -219 vis 0;
#X text 250 31 ARGS: \$0 \, x-size \, # instances \, x-gap \, y-gap
\, y-max;
#X obj 302 -313 receive \$1-yscroll;
#X obj 302 -242 t b b f b;
#X obj 90 -398 f 1;
#X obj 190 -345 t f f b;
#X obj 492 -108 unpack;
#X obj 477 -85 +;
#X obj 477 -39 pack;
#X obj 477 -16 s \$1-bar-pos;
#X obj 492 -131 iemguts/canvasposition;
#X obj 477 -62 - 4;
#X obj 29 -350 t f f;
#X obj 39 -313 pack f f 2 0 \$1 f;
#X obj 138 -337 + 15;
#X msg 7 -215 \; \$5-cansize vis_size \$6 \$2;
#N canvas 559 89 727 650 guts 1;
#X obj 201 40 receive \$1-hs-start;
#X obj 201 63 t s s;
#X obj 201 94 sel no;
#X obj 234 188 until;
#X obj 276 211 + 16;
#X obj 234 257 + 5;
#X obj 234 303 route bang;
#X obj 344 235 sel ALL;
#X obj 291 326 demux;
#X obj 344 259 t f;
#X obj 345 375 sel no;
#X obj 383 259 t b s;
#X obj 383 282 f 1;
#X obj 345 398 f 1;
#X msg 378 398 0;
#X obj 318 350 t s s;
#X obj 318 425 spigot;
#X obj 234 280 text get \$1-help;
#X obj 234 211 f 16;
#X obj 272 188 f 16;
#X obj 234 142 text size \$1-help;
#X obj 234 165 / 16;
#X obj 478 37 receive \$1-newlb;
#X msg 478 83 coords 0 -1 1 1 \$1 \$2 2 0 0;
#X obj 478 106 iemguts/sendcanvas 1;
#X obj 478 60 list append \$2 \$3;
#X obj 291 488 f;
#X obj 234 234 t f f f f;
#X obj 420 586 text get \$1-help;
#X obj 291 610 ../../ctxfiles/collect;
#X obj 325 555 + 1;
#X obj 308 534 + 3;
#X obj 291 511 t b f f f;
#X obj 291 633 l2s;
#X obj 291 463 t b;
#X obj 291 656 t s s;
#X obj 318 806 list length;
#X obj 318 830 moses 3;
#X msg 318 880 38;
#X obj 357 854 * 8;
#X obj 357 879 + 9;
#X obj 318 680 list fromsymbol;
#X obj 318 705 t b a;
#X obj 345 730 cyclone/iter;
#X obj 345 755 sel 226 128;
#X obj 318 780 ../../ctxfiles/collect;
#X obj 402 1008 t f f;
#X msg 153 2186;
#X obj 348 913 t f f;
#X obj 375 1031 *;
#X obj 402 985 <= \$2;
#X obj 375 960 t f f;
#X obj 375 1054 + \$4;
#X obj 375 1077 t f f;
#X obj 375 937 + \$4;
#X obj 429 1071 sel 0;
#X obj 234 118 t b b s b;
#X obj 453 951 f \$4;
#X obj 429 1094 f;
#X obj 457 1094 + 16;
#X obj 457 1117 + \$4;
#X obj 453 928 t b f;
#X obj 291 1138 pack s f f f f \$0;
#X text 25 1109 label \, text position \, size \, x-pos \, y-pos \,
\$0;
#X obj 291 1214 iemguts/sendcanvas 1;
#X msg 291 1161 obj \$4 \$5 helpgive \$6 \$2 \; \$6-\$2-hgstart \$1
\$2 \$3;
#X connect 0 0 1 0;
#X connect 1 0 2 1;
#X connect 1 1 2 0;
#X connect 2 1 56 0;
#X connect 3 0 18 0;
#X connect 4 0 18 1;
#X connect 5 0 17 0;
#X connect 6 1 8 0;
#X connect 7 0 9 0;
#X connect 7 1 11 0;
#X connect 8 0 34 0;
#X connect 8 1 15 0;
#X connect 9 0 8 1;
#X connect 10 0 13 0;
#X connect 10 1 14 0;
#X connect 11 0 12 0;
#X connect 11 1 10 1;
#X connect 12 0 8 1;
#X connect 13 0 16 1;
#X connect 14 0 16 1;
#X connect 15 0 16 0;
#X connect 15 1 10 0;
#X connect 16 0 34 0;
#X connect 17 0 6 0;
#X connect 18 0 27 0;
#X connect 19 0 18 1;
#X connect 20 0 21 0;
#X connect 21 0 3 0;
#X connect 22 0 25 0;
#X connect 23 0 24 0;
#X connect 25 0 23 0;
#X connect 26 0 32 0;
#X connect 27 0 5 0;
#X connect 27 1 62 1;
#X connect 27 2 4 0;
#X connect 27 3 26 1;
#X connect 28 0 29 1;
#X connect 29 0 33 0;
#X connect 30 0 28 0;
#X connect 31 0 28 0;
#X connect 32 0 29 0;
#X connect 32 1 31 0;
#X connect 32 2 30 0;
#X connect 32 3 28 0;
#X connect 33 0 35 0;
#X connect 34 0 26 0;
#X connect 35 0 62 0;
#X connect 35 1 41 0;
#X connect 36 0 37 0;
#X connect 37 0 38 0;
#X connect 37 1 39 0;
#X connect 38 0 48 0;
#X connect 39 0 40 0;
#X connect 40 0 48 0;
#X connect 41 0 42 0;
#X connect 42 0 45 0;
#X connect 42 1 43 0;
#X connect 43 0 44 0;
#X connect 44 2 45 1;
#X connect 45 0 36 0;
#X connect 46 0 49 1;
#X connect 46 1 55 0;
#X connect 48 0 62 2;
#X connect 48 1 54 0;
#X connect 49 0 52 0;
#X connect 50 0 46 0;
#X connect 51 0 49 0;
#X connect 51 1 50 0;
#X connect 52 0 53 0;
#X connect 53 0 62 3;
#X connect 53 1 54 1;
#X connect 54 0 51 0;
#X connect 55 0 58 0;
#X connect 56 0 20 0;
#X connect 56 1 19 0;
#X connect 56 2 7 0;
#X connect 56 3 61 0;
#X connect 57 0 52 1;
#X connect 58 0 59 0;
#X connect 58 0 62 4;
#X connect 59 0 60 0;
#X connect 60 0 58 1;
#X connect 61 0 57 0;
#X connect 61 1 58 1;
#X connect 62 0 65 0;
#X connect 65 0 64 0;
#X restore 194 -613 pd guts;
#X obj 40 -242 symbol iemguts/sendcanvas;
#X obj 220 -52 symbol iemguts/sendcanvas;
#X connect 2 0 10 0;
#X connect 2 1 9 0;
#X connect 2 2 8 0;
#X connect 2 3 0 0;
#X connect 2 4 3 0;
#X connect 3 0 4 0;
#X connect 4 0 5 3;
#X connect 5 0 15 0;
#X connect 6 0 5 0;
#X connect 6 1 7 0;
#X connect 7 0 5 1;
#X connect 7 1 5 2;
#X connect 8 0 1 0;
#X connect 8 2 6 0;
#X connect 9 0 14 0;
#X connect 10 0 25 0;
#X connect 11 0 32 0;
#X connect 12 0 13 0;
#X connect 13 0 33 0;
#X connect 13 1 33 2;
#X connect 13 2 33 0;
#X connect 13 3 24 0;
#X connect 14 0 33 1;
#X connect 15 0 38 0;
#X connect 16 0 37 0;
#X connect 17 0 18 1;
#X connect 18 0 23 0;
#X connect 19 0 37 0;
#X connect 20 0 37 0;
#X connect 22 0 18 0;
#X connect 23 0 20 0;
#X connect 23 1 33 0;
#X connect 23 2 33 3;
#X connect 23 3 19 0;
#X connect 24 0 33 2;
#X connect 25 0 11 0;
#X connect 25 1 27 0;
#X connect 25 2 30 0;
#X connect 26 0 27 1;
#X connect 26 1 28 1;
#X connect 27 0 31 0;
#X connect 28 0 29 0;
#X connect 30 0 26 0;
#X connect 31 0 28 0;
#X connect 32 0 33 0;
#X connect 32 1 34 0;
#X connect 33 0 16 0;
#X connect 33 0 35 0;
#X connect 34 0 33 5;
#X coords 0 -1 1 1 200 140 2 0 0;
