#N canvas 283 89 713 679 10;
#X obj 40 -242 iemguts/sendcanvas;
#X obj 190 -436 loadbang;
#X obj 234 -316 s \$1-ilb;
#X obj 139 -141 s \$1-lb;
#X obj 190 -364 t b b b b b;
#X obj 289 -174 iemguts/canvasdollarzero 1;
#X obj 289 -152 s2l;
#X obj 220 -52 iemguts/sendcanvas;
#X obj 220 -97 pack f f f f;
#X obj 220 -141 t f b;
#N canvas 479 152 450 498 c 0;
#X obj 137 21 inlet;
#X obj 221 302 outlet y;
#X obj 137 230 outlet x;
#X obj 137 103 f;
#X obj 176 21 receive \$1-mysize;
#X obj 176 45 +;
#X obj 156 147 + \$4;
#X obj 176 67 moses \$2;
#X obj 260 116 max;
#X obj 260 138 t f f;
#X obj 260 160 s \$0-max;
#X obj 221 93 t b b f;
#X obj 221 249 + \$5;
#X obj 240 181 t f f;
#X obj 221 271 t f f f;
#X obj 137 125 t f f b;
#X msg 176 173 26;
#X obj 221 205 f;
#X obj 277 278 + 26;
#X obj 221 227 + 21;
#X obj 277 301 t f f;
#X obj 277 421 s \$0-yrmax;
#X obj 304 326 min \$6;
#X obj 277 375 -;
#X obj 304 351 t f f;
#X obj 331 375 s \$0-y;
#X obj 277 398 max;
#X connect 0 0 3 0;
#X connect 3 0 15 0;
#X connect 4 0 5 0;
#X connect 5 0 7 0;
#X connect 6 0 5 1;
#X connect 7 0 3 1;
#X connect 7 1 11 0;
#X connect 8 0 9 0;
#X connect 9 0 10 0;
#X connect 9 1 8 1;
#X connect 11 0 17 0;
#X connect 11 1 13 0;
#X connect 11 2 8 0;
#X connect 12 0 14 0;
#X connect 13 0 3 1;
#X connect 14 0 1 0;
#X connect 14 1 18 0;
#X connect 14 2 17 1;
#X connect 15 0 2 0;
#X connect 15 1 6 0;
#X connect 15 2 16 0;
#X connect 17 0 19 0;
#X connect 18 0 20 0;
#X connect 19 0 12 0;
#X connect 20 0 23 0;
#X connect 20 1 22 0;
#X connect 22 0 24 0;
#X connect 23 0 26 0;
#X connect 24 0 23 1;
#X connect 24 1 25 0;
#X connect 26 0 21 0;
#X restore 247 -119 pd c;
#X obj 139 -163 cyclone/uzi \$3;
#X obj 126 -335 v \$0-y;
#X obj 69 -335 v \$0-max;
#X obj 69 -313 - \$4;
#X obj 39 -404 inlet;
#X obj 39 -382 t b f b b;
#X msg 90 -360 1;
#X obj 126 -313 -;
#X obj 190 -395 ../../ctxfiles/myinit 2;
#X msg 220 -74 obj \$2 \$3 helpgive \$4 \$1;
#X obj 69 -293 pack f f 2 0;
#X msg 40 -266 coords 0 -1 1 1 \$1 \$2 \$3 0 \$4;
#X obj 317 -289 receive \$0-yrmax;
#X obj 302 -265 *;
#X msg 353 -220 menu-open;
#X msg 302 -219 vis 0;
#X text 340 -335 ARGS: \$0 \, x-size \, # instances \, x-gap \, y-gap
\, y-max;
#X obj 302 -313 receive \$1-yscroll;
#X obj 302 -242 t b b f b;
#X connect 1 0 19 0;
#X connect 4 0 13 0;
#X connect 4 1 12 0;
#X connect 4 2 11 0;
#X connect 4 3 2 0;
#X connect 4 4 5 0;
#X connect 5 0 6 0;
#X connect 6 0 8 3;
#X connect 8 0 20 0;
#X connect 9 0 8 0;
#X connect 9 1 10 0;
#X connect 10 0 8 1;
#X connect 10 1 8 2;
#X connect 11 0 3 0;
#X connect 11 2 9 0;
#X connect 12 0 18 0;
#X connect 13 0 14 0;
#X connect 14 0 21 0;
#X connect 15 0 16 0;
#X connect 16 0 21 0;
#X connect 16 1 21 2;
#X connect 16 2 21 0;
#X connect 16 3 17 0;
#X connect 17 0 21 2;
#X connect 18 0 21 1;
#X connect 19 0 4 0;
#X connect 20 0 7 0;
#X connect 21 0 22 0;
#X connect 22 0 0 0;
#X connect 23 0 24 1;
#X connect 24 0 29 0;
#X connect 25 0 0 0;
#X connect 26 0 0 0;
#X connect 28 0 24 0;
#X connect 29 0 26 0;
#X connect 29 1 21 0;
#X connect 29 2 21 3;
#X connect 29 3 25 0;
#X coords 0 -1 1 1 200 140 2 0 0;
