#N canvas 220 81 713 687 10;
#X obj 40 -242 iemguts/sendcanvas;
#X obj 190 -436 loadbang;
#X obj 234 -316 s \$1-ilb;
#X obj 139 -141 s \$1-lb;
#X obj 190 -364 t b b b b b;
#X obj 289 -174 iemguts/canvasdollarzero 1;
#X obj 289 -152 s2l;
#X obj 220 -52 iemguts/sendcanvas;
#X obj 220 -97 pack f f f f;
#X obj 220 -141 t f b;
#N canvas 707 322 450 370 c 0;
#X obj 137 21 inlet;
#X obj 221 302 outlet y;
#X obj 137 230 outlet x;
#X obj 137 103 f;
#X obj 176 21 receive \$1-mysize;
#X obj 176 45 +;
#X obj 156 147 + \$4;
#X obj 176 67 moses \$2;
#X obj 260 116 max;
#X obj 260 138 t f f;
#X obj 260 160 s \$0-max;
#X obj 221 93 t b b f;
#X obj 221 249 + \$5;
#X obj 277 302 s \$0-y;
#X obj 240 181 t f f;
#X obj 221 271 t f f f;
#X obj 137 125 t f f b;
#X msg 176 173 26;
#X obj 221 205 f;
#X obj 277 278 + 26;
#X obj 221 227 + 21;
#X connect 0 0 3 0;
#X connect 3 0 16 0;
#X connect 4 0 5 0;
#X connect 5 0 7 0;
#X connect 6 0 5 1;
#X connect 7 0 3 1;
#X connect 7 1 11 0;
#X connect 8 0 9 0;
#X connect 9 0 10 0;
#X connect 9 1 8 1;
#X connect 11 0 18 0;
#X connect 11 1 14 0;
#X connect 11 2 8 0;
#X connect 12 0 15 0;
#X connect 14 0 3 1;
#X connect 15 0 1 0;
#X connect 15 1 19 0;
#X connect 15 2 18 1;
#X connect 16 0 2 0;
#X connect 16 1 6 0;
#X connect 16 2 17 0;
#X connect 18 0 20 0;
#X connect 19 0 13 0;
#X connect 20 0 12 0;
#X restore 247 -119 pd c;
#X obj 139 -163 cyclone/uzi \$3;
#X text 340 -335 ARGS: \$0 \, x-size \, # instances \, x-gap \, y-gap
;
#X obj 126 -335 v \$0-y;
#X obj 69 -335 v \$0-max;
#X obj 69 -313 - \$4;
#X obj 69 -293 pack f f 2;
#X msg 40 -266 coords 0 -1 1 1 \$1 \$2 \$3 0 0;
#X obj 39 -404 inlet;
#X obj 39 -382 t b f b b;
#X msg 90 -360 1;
#X obj 126 -313 -;
#X obj 4 1 cnv 15 1 1 empty empty COMMAND 0 -15 0 30 -233017 -66577
0;
#X obj 190 -395 ../../ctxfiles/myinit 2;
#X msg 220 -74 obj \$2 \$3 helpgive \$4 \$1;
#X connect 1 0 23 0;
#X connect 4 0 14 0;
#X connect 4 1 13 0;
#X connect 4 2 11 0;
#X connect 4 3 2 0;
#X connect 4 4 5 0;
#X connect 5 0 6 0;
#X connect 6 0 8 3;
#X connect 8 0 24 0;
#X connect 9 0 8 0;
#X connect 9 1 10 0;
#X connect 10 0 8 1;
#X connect 10 1 8 2;
#X connect 11 0 3 0;
#X connect 11 2 9 0;
#X connect 13 0 21 0;
#X connect 14 0 15 0;
#X connect 15 0 16 0;
#X connect 16 0 17 0;
#X connect 17 0 0 0;
#X connect 18 0 19 0;
#X connect 19 0 16 0;
#X connect 19 1 16 2;
#X connect 19 2 16 0;
#X connect 19 3 20 0;
#X connect 20 0 16 2;
#X connect 21 0 16 1;
#X connect 23 0 4 0;
#X connect 24 0 7 0;
#X coords 0 -1 1 1 200 140 2 0 0;
