#N canvas 67 89 713 679 10;
#N canvas 340 89 727 650 guts 1;
#X obj 173 40 receive \$1-hs-start;
#X obj 173 63 t s s;
#X obj 173 94 sel no;
#X obj 234 188 until;
#X obj 276 211 + 16;
#X obj 234 257 + 5;
#X obj 234 303 route bang;
#X obj 344 235 sel ALL;
#X obj 291 326 demux;
#X obj 344 259 t f;
#X obj 345 375 sel no;
#X obj 383 259 t b s;
#X obj 383 282 f 1;
#X obj 345 398 f 1;
#X msg 378 398 0;
#X obj 318 350 t s s;
#X obj 318 425 spigot;
#X obj 234 280 text get \$1-help;
#X obj 234 211 f 16;
#X obj 272 188 f 16;
#X obj 234 142 text size \$1-help;
#X obj 234 165 / 16;
#X obj 36 451 receive \$1-newlb;
#X obj 76 563 iemguts/sendcanvas 1;
#X obj 291 488 f;
#X obj 234 234 t f f f f;
#X obj 420 586 text get \$1-help;
#X obj 291 610 ../../ctxfiles/collect;
#X obj 325 555 + 1;
#X obj 308 534 + 3;
#X obj 291 511 t b f f f;
#X obj 291 633 l2s;
#X obj 291 463 t b;
#X obj 291 656 t s s;
#X obj 318 806 list length;
#X obj 318 830 moses 3;
#X msg 318 880 38;
#X obj 357 854 * 8;
#X obj 357 879 + 9;
#X obj 318 680 list fromsymbol;
#X obj 318 705 t b a;
#X obj 345 730 cyclone/iter;
#X obj 345 755 sel 226 128;
#X obj 318 780 ../../ctxfiles/collect;
#X msg 153 2186;
#X obj 453 951 f \$4;
#X text 25 1109 label \, text position \, size \, x-pos \, y-pos \,
\$0;
#X obj 291 1274 iemguts/sendcanvas 1;
#X msg 291 1221 obj \$4 \$5 helpgive \$6 \$2 \; \$6-\$2-hgstart \$1
\$2 \$3;
#X obj 466 1095 f \$4;
#X obj 466 1118 + 16;
#X obj 466 1141 + \$4;
#X obj 367 936 f \$4;
#X obj 348 913 t f b f;
#X obj 367 959 t f f;
#X obj 367 982 +;
#X obj 367 1005 + \$4;
#X obj 367 1028 moses \$2;
#X obj 431 1078 f \$4;
#X obj 412 1053 t b b b;
#X msg 87 373 menu-open;
#X msg 95 398 vis 0;
#X obj 95 421 iemguts/sendcanvas 1;
#X obj 344 176 s \$1-helpdelete;
#X obj 291 1198 pack s f f f \$4 \$1;
#X obj 260 257 / 16;
#X obj 99 178 v \$0-yrmax;
#X obj 466 1165 v \$0-yrmax;
#X obj 99 201 / \$3;
#X obj 37 478 t b b b;
#X obj 56 599 f \$3;
#X obj 26 622 - 2;
#X obj 26 599 f \$2;
#X obj 26 645 pack f f \$1;
#X msg 26 673 \; \$3-cansize vis_size \$1 \$2;
#X obj 99 224 max 1;
#X obj 99 247 s \$1-scrollrat;
#X obj 36 276 receive \$1-yscroll2;
#X obj 36 317 * \$2;
#X obj 411 400 receive \$1-searched;
#X obj 445 508 t b b;
#X obj 539 574 receive \$1-startsearch;
#X obj 379 464 t f f;
#X obj 379 487 * 16;
#X obj 445 485 receive \$1-endsearch;
#X obj 411 423 cyclone/iter;
#X obj 539 597 t b b b b;
#X obj 210 63 symbol no&;
#X obj 56 622 - 2;
#X obj 76 503 pack \$1 \$2 \$3 0 1;
#X obj 190 472 + 1;
#X msg 76 527 coords 0 -1 1 1 \$2 \$3 2 0 \$4 \; \$1-cansize pos 1
\$5;
#X obj 36 347 t b b b f b f;
#X obj 21 387 s \$1-ontop;
#X obj 206 118 t b b b b b s b b b;
#X connect 0 0 1 0;
#X connect 1 0 2 1;
#X connect 1 1 2 0;
#X connect 2 1 94 0;
#X connect 3 0 18 0;
#X connect 4 0 18 1;
#X connect 5 0 17 0;
#X connect 6 1 8 0;
#X connect 7 0 9 0;
#X connect 7 1 11 0;
#X connect 8 0 32 0;
#X connect 8 1 15 0;
#X connect 9 0 8 1;
#X connect 10 0 13 0;
#X connect 10 1 14 0;
#X connect 11 0 12 0;
#X connect 11 1 10 1;
#X connect 12 0 8 1;
#X connect 13 0 16 1;
#X connect 14 0 16 1;
#X connect 15 0 16 0;
#X connect 15 1 10 0;
#X connect 16 0 32 0;
#X connect 17 0 6 0;
#X connect 18 0 25 0;
#X connect 19 0 18 1;
#X connect 20 0 21 0;
#X connect 21 0 3 0;
#X connect 22 0 69 0;
#X connect 24 0 30 0;
#X connect 25 0 5 0;
#X connect 25 1 65 0;
#X connect 25 2 4 0;
#X connect 25 3 24 1;
#X connect 26 0 27 1;
#X connect 27 0 31 0;
#X connect 28 0 26 0;
#X connect 29 0 26 0;
#X connect 30 0 27 0;
#X connect 30 1 29 0;
#X connect 30 2 28 0;
#X connect 30 3 26 0;
#X connect 31 0 33 0;
#X connect 32 0 24 0;
#X connect 33 0 64 0;
#X connect 33 1 39 0;
#X connect 34 0 35 0;
#X connect 35 0 36 0;
#X connect 35 1 37 0;
#X connect 36 0 53 0;
#X connect 37 0 38 0;
#X connect 38 0 53 0;
#X connect 39 0 40 0;
#X connect 40 0 43 0;
#X connect 40 1 41 0;
#X connect 41 0 42 0;
#X connect 42 2 43 1;
#X connect 43 0 34 0;
#X connect 45 0 49 1;
#X connect 45 0 52 1;
#X connect 45 0 64 4;
#X connect 48 0 47 0;
#X connect 49 0 50 0;
#X connect 50 0 51 0;
#X connect 51 0 49 1;
#X connect 51 0 64 4;
#X connect 51 0 67 0;
#X connect 52 0 54 0;
#X connect 53 0 64 2;
#X connect 53 1 52 0;
#X connect 53 2 55 1;
#X connect 54 0 55 0;
#X connect 54 1 64 3;
#X connect 55 0 56 0;
#X connect 56 0 57 0;
#X connect 57 0 52 1;
#X connect 57 1 59 0;
#X connect 58 0 52 1;
#X connect 58 0 64 3;
#X connect 59 0 52 0;
#X connect 59 1 58 0;
#X connect 59 2 49 0;
#X connect 60 0 62 0;
#X connect 61 0 62 0;
#X connect 64 0 48 0;
#X connect 65 0 64 1;
#X connect 66 0 68 0;
#X connect 68 0 75 0;
#X connect 69 0 72 0;
#X connect 69 1 70 0;
#X connect 69 2 89 0;
#X connect 70 0 88 0;
#X connect 71 0 73 0;
#X connect 72 0 71 0;
#X connect 73 0 74 0;
#X connect 75 0 76 0;
#X connect 77 0 78 0;
#X connect 78 0 92 0;
#X connect 79 0 85 0;
#X connect 80 0 66 0;
#X connect 80 1 61 0;
#X connect 81 0 86 0;
#X connect 82 0 83 0;
#X connect 82 1 64 1;
#X connect 83 0 30 0;
#X connect 84 0 80 0;
#X connect 85 0 82 0;
#X connect 86 0 45 0;
#X connect 86 1 63 0;
#X connect 86 2 60 0;
#X connect 86 3 87 0;
#X connect 87 0 2 1;
#X connect 88 0 73 1;
#X connect 89 0 91 0;
#X connect 90 0 89 4;
#X connect 91 0 23 0;
#X connect 92 0 93 0;
#X connect 92 1 61 0;
#X connect 92 2 89 0;
#X connect 92 3 89 3;
#X connect 92 4 60 0;
#X connect 92 5 90 0;
#X connect 94 0 93 0;
#X connect 94 1 66 0;
#X connect 94 2 61 0;
#X connect 94 3 20 0;
#X connect 94 4 19 0;
#X connect 94 5 7 0;
#X connect 94 6 45 0;
#X connect 94 7 63 0;
#X connect 94 8 60 0;
#X restore 175 -39 pd guts;
#X obj 1 1 cnv 15 100 60 empty \$1-cansize empty 20 12 0 14 -186401
-66577 0;
#X coords 0 -1 1 1 200 140 2 0 0;
