#N canvas 636 126 787 686 10;
#X obj 174 256 osc~;
#X obj 174 71 inlet freq;
#X floatatom 126 59 5 0 0 0 - - -, f 5;
#X obj 131 181 del 1000;
#X obj 235 228 switch~;
#X obj 124 10 tgl 15 0 empty empty empty 17 7 0 10 -262144 -1 -1 0
1;
#X obj 124 30 metro 2000;
#X obj 174 437 *~;
#X obj 277 371 lop~;
#X obj 225 317 t f b;
#X obj 276 347 sig~;
#X obj 430 247 inlet;
#X obj 225 295 del 30;
#X obj 174 301 *~ 0.1;
#X obj 265 180 f 1;
#X obj 131 203 t f;
#X obj 376 177 t f f;
#X obj 376 219 /;
#X obj 376 197 + 1;
#X obj 174 93 t b b b b b f f;
#X obj 376 157 * 0.01;
#X obj 309 346 f 20;
#X obj 397 303 -;
#X obj 397 272 swap 2;
#X obj 397 325 max 0.3;
#X obj 197 170 f 0.74;
#X obj 376 241 * 0.1;
#X obj 318 236 f 4000;
#X obj 175 462 outlet~;
#X obj 289 550 -;
#X obj 290 445 * 0.005;
#X obj 290 467 clip 0 1;
#X obj 289 525 swap 1;
#X connect 0 0 13 0;
#X connect 1 0 19 0;
#X connect 2 0 19 0;
#X connect 3 0 15 0;
#X connect 5 0 6 0;
#X connect 6 0 2 0;
#X connect 7 0 28 0;
#X connect 8 0 7 1;
#X connect 9 0 10 0;
#X connect 9 1 21 0;
#X connect 10 0 8 0;
#X connect 11 0 23 1;
#X connect 12 0 9 0;
#X connect 13 0 7 0;
#X connect 14 0 4 0;
#X connect 14 0 10 0;
#X connect 15 0 4 0;
#X connect 16 0 18 0;
#X connect 16 1 17 1;
#X connect 17 0 23 0;
#X connect 17 0 26 0;
#X connect 18 0 17 0;
#X connect 19 0 3 0;
#X connect 19 1 25 0;
#X connect 19 2 12 0;
#X connect 19 3 14 0;
#X connect 19 4 27 0;
#X connect 19 5 0 0;
#X connect 19 5 30 0;
#X connect 19 6 20 0;
#X connect 20 0 16 0;
#X connect 21 0 8 1;
#X connect 22 0 24 0;
#X connect 23 0 22 0;
#X connect 23 1 22 1;
#X connect 24 0 21 1;
#X connect 25 0 0 1;
#X connect 26 0 13 1;
#X connect 27 0 8 1;
#X connect 30 0 31 0;
#X connect 31 0 32 0;
#X connect 32 0 29 0;
#X connect 32 1 29 1;
#X coords 0 686 1 685 5 5 0;
