#N canvas 592 93 554 686 10;
#X obj 174 256 osc~;
#X obj 174 101 inlet freq;
#X floatatom 126 89 5 0 0 0 - - -, f 5;
#X obj 125 147 del 1000;
#X msg 125 169 0;
#X msg 250 160 1;
#X obj 235 228 switch~;
#X obj 124 40 tgl 15 0 empty empty empty 17 7 0 10 -262144 -1 -1 0
1;
#X obj 124 60 metro 2000;
#X obj 175 392 outlet~ R;
#X msg 205 165 0.74;
#X obj 174 347 *~;
#X obj 174 123 t b b b b b b f;
#X msg 283 293 1;
#X obj 277 371 lop~;
#X obj 225 317 t f b;
#X obj 276 347 sig~;
#X obj 336 321 inlet;
#X obj 225 295 del 30;
#X obj 174 301 *~ 0.1;
#X msg 315 293 400;
#X obj 318 236 f 400;
#X obj 309 346 f 1.6;
#X connect 0 0 19 0;
#X connect 1 0 12 0;
#X connect 2 0 12 0;
#X connect 3 0 4 0;
#X connect 4 0 6 0;
#X connect 5 0 6 0;
#X connect 7 0 8 0;
#X connect 8 0 2 0;
#X connect 10 0 0 1;
#X connect 11 0 9 0;
#X connect 12 0 3 0;
#X connect 12 1 5 0;
#X connect 12 2 10 0;
#X connect 12 3 18 0;
#X connect 12 4 13 0;
#X connect 12 5 21 0;
#X connect 12 6 0 0;
#X connect 13 0 16 0;
#X connect 14 0 11 1;
#X connect 15 0 16 0;
#X connect 15 1 22 0;
#X connect 16 0 14 0;
#X connect 17 0 22 1;
#X connect 18 0 15 0;
#X connect 19 0 11 0;
#X connect 20 0 14 1;
#X connect 21 0 14 1;
#X connect 22 0 14 1;
#X coords 0 686 1 685 5 5 0;
